ISO-10303-21;
HEADER;
FILE_DESCRIPTION(('KiCad electronic assembly'),'2;1');
FILE_NAME('cutout.step','2024-07-12T22:49:35',('Pcbnew'),('Kicad'),
  'Open CASCADE STEP processor 7.7','KiCad to STEP converter','Unknown'
  );
FILE_SCHEMA(('AUTOMOTIVE_DESIGN { 1 0 10303 214 1 1 1 1 }'));
ENDSEC;
DATA;
#1 = APPLICATION_PROTOCOL_DEFINITION('international standard',
  'automotive_design',2000,#2);
#2 = APPLICATION_CONTEXT(
  'core data for automotive mechanical design processes');
#3 = SHAPE_DEFINITION_REPRESENTATION(#4,#10);
#4 = PRODUCT_DEFINITION_SHAPE('','',#5);
#5 = PRODUCT_DEFINITION('design','',#6,#9);
#6 = PRODUCT_DEFINITION_FORMATION('','',#7);
#7 = PRODUCT('cutout 1','cutout 1','',(#8));
#8 = PRODUCT_CONTEXT('',#2,'mechanical');
#9 = PRODUCT_DEFINITION_CONTEXT('part definition',#2,'design');
#10 = SHAPE_REPRESENTATION('',(#11,#15),#19);
#11 = AXIS2_PLACEMENT_3D('',#12,#13,#14);
#12 = CARTESIAN_POINT('',(0.,0.,0.));
#13 = DIRECTION('',(0.,0.,1.));
#14 = DIRECTION('',(1.,0.,-0.));
#15 = AXIS2_PLACEMENT_3D('',#16,#17,#18);
#16 = CARTESIAN_POINT('',(0.,0.,0.));
#17 = DIRECTION('',(0.,0.,1.));
#18 = DIRECTION('',(1.,0.,-0.));
#19 = ( GEOMETRIC_REPRESENTATION_CONTEXT(3) 
GLOBAL_UNCERTAINTY_ASSIGNED_CONTEXT((#23)) GLOBAL_UNIT_ASSIGNED_CONTEXT(
(#20,#21,#22)) REPRESENTATION_CONTEXT('Context #1',
  '3D Context with UNIT and UNCERTAINTY') );
#20 = ( LENGTH_UNIT() NAMED_UNIT(*) SI_UNIT(.MILLI.,.METRE.) );
#21 = ( NAMED_UNIT(*) PLANE_ANGLE_UNIT() SI_UNIT($,.RADIAN.) );
#22 = ( NAMED_UNIT(*) SI_UNIT($,.STERADIAN.) SOLID_ANGLE_UNIT() );
#23 = UNCERTAINTY_MEASURE_WITH_UNIT(LENGTH_MEASURE(1.E-07),#20,
  'distance_accuracy_value','confusion accuracy');
#24 = PRODUCT_RELATED_PRODUCT_CATEGORY('part',$,(#7));
#25 = SHAPE_DEFINITION_REPRESENTATION(#26,#32);
#26 = PRODUCT_DEFINITION_SHAPE('','',#27);
#27 = PRODUCT_DEFINITION('design','',#28,#31);
#28 = PRODUCT_DEFINITION_FORMATION('','',#29);
#29 = PRODUCT('_autosave-spacer_PCB','_autosave-spacer_PCB','',(#30));
#30 = PRODUCT_CONTEXT('',#2,'mechanical');
#31 = PRODUCT_DEFINITION_CONTEXT('part definition',#2,'design');
#32 = ADVANCED_BREP_SHAPE_REPRESENTATION('',(#11,#33),#591);
#33 = MANIFOLD_SOLID_BREP('',#34);
#34 = CLOSED_SHELL('',(#35,#77,#108,#141,#172,#203,#234,#267,#298,#331,
    #362,#395,#426,#457,#488,#521,#543,#567));
#35 = ADVANCED_FACE('',(#36),#72,.F.);
#36 = FACE_BOUND('',#37,.T.);
#37 = EDGE_LOOP('',(#38,#48,#57,#65));
#38 = ORIENTED_EDGE('',*,*,#39,.T.);
#39 = EDGE_CURVE('',#40,#42,#44,.T.);
#40 = VERTEX_POINT('',#41);
#41 = CARTESIAN_POINT('',(242.509524,-109.014398,0.));
#42 = VERTEX_POINT('',#43);
#43 = CARTESIAN_POINT('',(242.509524,-109.014398,1.6));
#44 = LINE('',#45,#46);
#45 = CARTESIAN_POINT('',(242.509524,-109.014398,0.));
#46 = VECTOR('',#47,1.);
#47 = DIRECTION('',(0.,0.,1.));
#48 = ORIENTED_EDGE('',*,*,#49,.T.);
#49 = EDGE_CURVE('',#42,#50,#52,.T.);
#50 = VERTEX_POINT('',#51);
#51 = CARTESIAN_POINT('',(239.677973,-113.914215,1.6));
#52 = CIRCLE('',#53,3.999938467251);
#53 = AXIS2_PLACEMENT_3D('',#54,#55,#56);
#54 = CARTESIAN_POINT('',(243.54160047269,-112.8788935552,1.6));
#55 = DIRECTION('',(0.,0.,1.));
#56 = DIRECTION('',(-0.258023087392,0.966138751098,0.));
#57 = ORIENTED_EDGE('',*,*,#58,.F.);
#58 = EDGE_CURVE('',#59,#50,#61,.T.);
#59 = VERTEX_POINT('',#60);
#60 = CARTESIAN_POINT('',(239.677973,-113.914215,0.));
#61 = LINE('',#62,#63);
#62 = CARTESIAN_POINT('',(239.677973,-113.914215,0.));
#63 = VECTOR('',#64,1.);
#64 = DIRECTION('',(0.,0.,1.));
#65 = ORIENTED_EDGE('',*,*,#66,.F.);
#66 = EDGE_CURVE('',#40,#59,#67,.T.);
#67 = CIRCLE('',#68,3.999938467251);
#68 = AXIS2_PLACEMENT_3D('',#69,#70,#71);
#69 = CARTESIAN_POINT('',(243.54160047269,-112.8788935552,0.));
#70 = DIRECTION('',(0.,0.,1.));
#71 = DIRECTION('',(-0.258023087392,0.966138751098,0.));
#72 = CYLINDRICAL_SURFACE('',#73,3.999938467251);
#73 = AXIS2_PLACEMENT_3D('',#74,#75,#76);
#74 = CARTESIAN_POINT('',(243.54160047269,-112.8788935552,0.));
#75 = DIRECTION('',(-0.,-0.,-1.));
#76 = DIRECTION('',(-0.258023087392,0.966138751098,0.));
#77 = ADVANCED_FACE('',(#78),#103,.T.);
#78 = FACE_BOUND('',#79,.T.);
#79 = EDGE_LOOP('',(#80,#81,#89,#97));
#80 = ORIENTED_EDGE('',*,*,#58,.T.);
#81 = ORIENTED_EDGE('',*,*,#82,.T.);
#82 = EDGE_CURVE('',#50,#83,#85,.T.);
#83 = VERTEX_POINT('',#84);
#84 = CARTESIAN_POINT('',(250.173077,-153.163094,1.6));
#85 = LINE('',#86,#87);
#86 = CARTESIAN_POINT('',(239.677973,-113.914215,1.6));
#87 = VECTOR('',#88,1.);
#88 = DIRECTION('',(0.258322937137,-0.966058621487,0.));
#89 = ORIENTED_EDGE('',*,*,#90,.F.);
#90 = EDGE_CURVE('',#91,#83,#93,.T.);
#91 = VERTEX_POINT('',#92);
#92 = CARTESIAN_POINT('',(250.173077,-153.163094,0.));
#93 = LINE('',#94,#95);
#94 = CARTESIAN_POINT('',(250.173077,-153.163094,0.));
#95 = VECTOR('',#96,1.);
#96 = DIRECTION('',(0.,0.,1.));
#97 = ORIENTED_EDGE('',*,*,#98,.F.);
#98 = EDGE_CURVE('',#59,#91,#99,.T.);
#99 = LINE('',#100,#101);
#100 = CARTESIAN_POINT('',(239.677973,-113.914215,0.));
#101 = VECTOR('',#102,1.);
#102 = DIRECTION('',(0.258322937137,-0.966058621487,0.));
#103 = PLANE('',#104);
#104 = AXIS2_PLACEMENT_3D('',#105,#106,#107);
#105 = CARTESIAN_POINT('',(239.677973,-113.914215,0.));
#106 = DIRECTION('',(0.966058621487,0.258322937137,-0.));
#107 = DIRECTION('',(0.258322937137,-0.966058621487,0.));
#108 = ADVANCED_FACE('',(#109),#136,.T.);
#109 = FACE_BOUND('',#110,.T.);
#110 = EDGE_LOOP('',(#111,#112,#121,#129));
#111 = ORIENTED_EDGE('',*,*,#90,.T.);
#112 = ORIENTED_EDGE('',*,*,#113,.T.);
#113 = EDGE_CURVE('',#83,#114,#116,.T.);
#114 = VERTEX_POINT('',#115);
#115 = CARTESIAN_POINT('',(247.34465,-158.062077,1.6));
#116 = CIRCLE('',#117,3.999970763292);
#117 = AXIS2_PLACEMENT_3D('',#118,#119,#120);
#118 = CARTESIAN_POINT('',(246.30941038947,-154.1983941641,1.6));
#119 = DIRECTION('',(0.,0.,-1.));
#120 = DIRECTION('',(0.965923712739,0.258826932851,0.));
#121 = ORIENTED_EDGE('',*,*,#122,.F.);
#122 = EDGE_CURVE('',#123,#114,#125,.T.);
#123 = VERTEX_POINT('',#124);
#124 = CARTESIAN_POINT('',(247.34465,-158.062077,0.));
#125 = LINE('',#126,#127);
#126 = CARTESIAN_POINT('',(247.34465,-158.062077,0.));
#127 = VECTOR('',#128,1.);
#128 = DIRECTION('',(0.,0.,1.));
#129 = ORIENTED_EDGE('',*,*,#130,.F.);
#130 = EDGE_CURVE('',#91,#123,#131,.T.);
#131 = CIRCLE('',#132,3.999970763292);
#132 = AXIS2_PLACEMENT_3D('',#133,#134,#135);
#133 = CARTESIAN_POINT('',(246.30941038947,-154.1983941641,0.));
#134 = DIRECTION('',(0.,0.,-1.));
#135 = DIRECTION('',(0.965923712739,0.258826932851,0.));
#136 = CYLINDRICAL_SURFACE('',#137,3.999970763292);
#137 = AXIS2_PLACEMENT_3D('',#138,#139,#140);
#138 = CARTESIAN_POINT('',(246.30941038947,-154.1983941641,0.));
#139 = DIRECTION('',(0.,0.,-1.));
#140 = DIRECTION('',(0.965923712739,0.258826932851,0.));
#141 = ADVANCED_FACE('',(#142),#167,.T.);
#142 = FACE_BOUND('',#143,.T.);
#143 = EDGE_LOOP('',(#144,#145,#153,#161));
#144 = ORIENTED_EDGE('',*,*,#122,.T.);
#145 = ORIENTED_EDGE('',*,*,#146,.T.);
#146 = EDGE_CURVE('',#114,#147,#149,.T.);
#147 = VERTEX_POINT('',#148);
#148 = CARTESIAN_POINT('',(233.133552,-163.490916,1.6));
#149 = LINE('',#150,#151);
#150 = CARTESIAN_POINT('',(247.34465,-158.062077,1.6));
#151 = VECTOR('',#152,1.);
#152 = DIRECTION('',(-0.934157401791,-0.356861245696,0.));
#153 = ORIENTED_EDGE('',*,*,#154,.F.);
#154 = EDGE_CURVE('',#155,#147,#157,.T.);
#155 = VERTEX_POINT('',#156);
#156 = CARTESIAN_POINT('',(233.133552,-163.490916,0.));
#157 = LINE('',#158,#159);
#158 = CARTESIAN_POINT('',(233.133552,-163.490916,0.));
#159 = VECTOR('',#160,1.);
#160 = DIRECTION('',(0.,0.,1.));
#161 = ORIENTED_EDGE('',*,*,#162,.F.);
#162 = EDGE_CURVE('',#123,#155,#163,.T.);
#163 = LINE('',#164,#165);
#164 = CARTESIAN_POINT('',(247.34465,-158.062077,0.));
#165 = VECTOR('',#166,1.);
#166 = DIRECTION('',(-0.934157401791,-0.356861245696,0.));
#167 = PLANE('',#168);
#168 = AXIS2_PLACEMENT_3D('',#169,#170,#171);
#169 = CARTESIAN_POINT('',(247.34465,-158.062077,0.));
#170 = DIRECTION('',(0.356861245696,-0.934157401791,0.));
#171 = DIRECTION('',(-0.934157401791,-0.356861245696,0.));
#172 = ADVANCED_FACE('',(#173),#198,.T.);
#173 = FACE_BOUND('',#174,.T.);
#174 = EDGE_LOOP('',(#175,#176,#184,#192));
#175 = ORIENTED_EDGE('',*,*,#154,.T.);
#176 = ORIENTED_EDGE('',*,*,#177,.T.);
#177 = EDGE_CURVE('',#147,#178,#180,.T.);
#178 = VERTEX_POINT('',#179);
#179 = CARTESIAN_POINT('',(208.99351,-163.501026,1.6));
#180 = LINE('',#181,#182);
#181 = CARTESIAN_POINT('',(233.133552,-163.490916,1.6));
#182 = VECTOR('',#183,1.);
#183 = DIRECTION('',(-0.999999912301,-4.18806194014E-04,0.));
#184 = ORIENTED_EDGE('',*,*,#185,.F.);
#185 = EDGE_CURVE('',#186,#178,#188,.T.);
#186 = VERTEX_POINT('',#187);
#187 = CARTESIAN_POINT('',(208.99351,-163.501026,0.));
#188 = LINE('',#189,#190);
#189 = CARTESIAN_POINT('',(208.99351,-163.501026,0.));
#190 = VECTOR('',#191,1.);
#191 = DIRECTION('',(0.,0.,1.));
#192 = ORIENTED_EDGE('',*,*,#193,.F.);
#193 = EDGE_CURVE('',#155,#186,#194,.T.);
#194 = LINE('',#195,#196);
#195 = CARTESIAN_POINT('',(233.133552,-163.490916,0.));
#196 = VECTOR('',#197,1.);
#197 = DIRECTION('',(-0.999999912301,-4.18806194014E-04,0.));
#198 = PLANE('',#199);
#199 = AXIS2_PLACEMENT_3D('',#200,#201,#202);
#200 = CARTESIAN_POINT('',(233.133552,-163.490916,0.));
#201 = DIRECTION('',(4.18806194014E-04,-0.999999912301,0.));
#202 = DIRECTION('',(-0.999999912301,-4.18806194014E-04,0.));
#203 = ADVANCED_FACE('',(#204),#229,.T.);
#204 = FACE_BOUND('',#205,.T.);
#205 = EDGE_LOOP('',(#206,#207,#215,#223));
#206 = ORIENTED_EDGE('',*,*,#185,.T.);
#207 = ORIENTED_EDGE('',*,*,#208,.T.);
#208 = EDGE_CURVE('',#178,#209,#211,.T.);
#209 = VERTEX_POINT('',#210);
#210 = CARTESIAN_POINT('',(194.782453,-158.072077,1.6));
#211 = LINE('',#212,#213);
#212 = CARTESIAN_POINT('',(208.99351,-163.501026,1.6));
#213 = VECTOR('',#214,1.);
#214 = DIRECTION('',(-0.934154648056,0.356868454078,0.));
#215 = ORIENTED_EDGE('',*,*,#216,.F.);
#216 = EDGE_CURVE('',#217,#209,#219,.T.);
#217 = VERTEX_POINT('',#218);
#218 = CARTESIAN_POINT('',(194.782453,-158.072077,0.));
#219 = LINE('',#220,#221);
#220 = CARTESIAN_POINT('',(194.782453,-158.072077,0.));
#221 = VECTOR('',#222,1.);
#222 = DIRECTION('',(0.,0.,1.));
#223 = ORIENTED_EDGE('',*,*,#224,.F.);
#224 = EDGE_CURVE('',#186,#217,#225,.T.);
#225 = LINE('',#226,#227);
#226 = CARTESIAN_POINT('',(208.99351,-163.501026,0.));
#227 = VECTOR('',#228,1.);
#228 = DIRECTION('',(-0.934154648056,0.356868454078,0.));
#229 = PLANE('',#230);
#230 = AXIS2_PLACEMENT_3D('',#231,#232,#233);
#231 = CARTESIAN_POINT('',(208.99351,-163.501026,0.));
#232 = DIRECTION('',(-0.356868454078,-0.934154648056,0.));
#233 = DIRECTION('',(-0.934154648056,0.356868454078,0.));
#234 = ADVANCED_FACE('',(#235),#262,.T.);
#235 = FACE_BOUND('',#236,.T.);
#236 = EDGE_LOOP('',(#237,#238,#247,#255));
#237 = ORIENTED_EDGE('',*,*,#216,.T.);
#238 = ORIENTED_EDGE('',*,*,#239,.T.);
#239 = EDGE_CURVE('',#209,#240,#242,.T.);
#240 = VERTEX_POINT('',#241);
#241 = CARTESIAN_POINT('',(191.954027,-153.173095,1.6));
#242 = CIRCLE('',#243,3.999989019648);
#243 = AXIS2_PLACEMENT_3D('',#244,#245,#246);
#244 = CARTESIAN_POINT('',(195.81771615304,-154.2083815718,1.6));
#245 = DIRECTION('',(0.,0.,-1.));
#246 = DIRECTION('',(-0.258816498736,-0.965926508582,-0.));
#247 = ORIENTED_EDGE('',*,*,#248,.F.);
#248 = EDGE_CURVE('',#249,#240,#251,.T.);
#249 = VERTEX_POINT('',#250);
#250 = CARTESIAN_POINT('',(191.954027,-153.173095,0.));
#251 = LINE('',#252,#253);
#252 = CARTESIAN_POINT('',(191.954027,-153.173095,0.));
#253 = VECTOR('',#254,1.);
#254 = DIRECTION('',(0.,0.,1.));
#255 = ORIENTED_EDGE('',*,*,#256,.F.);
#256 = EDGE_CURVE('',#217,#249,#257,.T.);
#257 = CIRCLE('',#258,3.999989019648);
#258 = AXIS2_PLACEMENT_3D('',#259,#260,#261);
#259 = CARTESIAN_POINT('',(195.81771615304,-154.2083815718,0.));
#260 = DIRECTION('',(0.,0.,-1.));
#261 = DIRECTION('',(-0.258816498736,-0.965926508582,-0.));
#262 = CYLINDRICAL_SURFACE('',#263,3.999989019648);
#263 = AXIS2_PLACEMENT_3D('',#264,#265,#266);
#264 = CARTESIAN_POINT('',(195.81771615304,-154.2083815718,0.));
#265 = DIRECTION('',(0.,0.,-1.));
#266 = DIRECTION('',(-0.258816498736,-0.965926508582,-0.));
#267 = ADVANCED_FACE('',(#268),#293,.T.);
#268 = FACE_BOUND('',#269,.T.);
#269 = EDGE_LOOP('',(#270,#271,#279,#287));
#270 = ORIENTED_EDGE('',*,*,#248,.T.);
#271 = ORIENTED_EDGE('',*,*,#272,.T.);
#272 = EDGE_CURVE('',#240,#273,#275,.T.);
#273 = VERTEX_POINT('',#274);
#274 = CARTESIAN_POINT('',(202.449131,-113.924215,1.6));
#275 = LINE('',#276,#277);
#276 = CARTESIAN_POINT('',(191.954027,-153.173095,1.6));
#277 = VECTOR('',#278,1.);
#278 = DIRECTION('',(0.258322930994,0.966058623129,0.));
#279 = ORIENTED_EDGE('',*,*,#280,.F.);
#280 = EDGE_CURVE('',#281,#273,#283,.T.);
#281 = VERTEX_POINT('',#282);
#282 = CARTESIAN_POINT('',(202.449131,-113.924215,0.));
#283 = LINE('',#284,#285);
#284 = CARTESIAN_POINT('',(202.449131,-113.924215,0.));
#285 = VECTOR('',#286,1.);
#286 = DIRECTION('',(0.,0.,1.));
#287 = ORIENTED_EDGE('',*,*,#288,.F.);
#288 = EDGE_CURVE('',#249,#281,#289,.T.);
#289 = LINE('',#290,#291);
#290 = CARTESIAN_POINT('',(191.954027,-153.173095,0.));
#291 = VECTOR('',#292,1.);
#292 = DIRECTION('',(0.258322930994,0.966058623129,0.));
#293 = PLANE('',#294);
#294 = AXIS2_PLACEMENT_3D('',#295,#296,#297);
#295 = CARTESIAN_POINT('',(191.954027,-153.173095,0.));
#296 = DIRECTION('',(-0.966058623129,0.258322930994,0.));
#297 = DIRECTION('',(0.258322930994,0.966058623129,0.));
#298 = ADVANCED_FACE('',(#299),#326,.F.);
#299 = FACE_BOUND('',#300,.T.);
#300 = EDGE_LOOP('',(#301,#302,#311,#319));
#301 = ORIENTED_EDGE('',*,*,#280,.T.);
#302 = ORIENTED_EDGE('',*,*,#303,.T.);
#303 = EDGE_CURVE('',#273,#304,#306,.T.);
#304 = VERTEX_POINT('',#305);
#305 = CARTESIAN_POINT('',(199.61758,-109.024399,1.6));
#306 = CIRCLE('',#307,3.999935938555);
#307 = AXIS2_PLACEMENT_3D('',#308,#309,#310);
#308 = CARTESIAN_POINT('',(198.58550637482,-112.8888926983,1.6));
#309 = DIRECTION('',(0.,0.,1.));
#310 = DIRECTION('',(0.965921625879,-0.258834720739,0.));
#311 = ORIENTED_EDGE('',*,*,#312,.F.);
#312 = EDGE_CURVE('',#313,#304,#315,.T.);
#313 = VERTEX_POINT('',#314);
#314 = CARTESIAN_POINT('',(199.61758,-109.024399,0.));
#315 = LINE('',#316,#317);
#316 = CARTESIAN_POINT('',(199.61758,-109.024399,0.));
#317 = VECTOR('',#318,1.);
#318 = DIRECTION('',(0.,0.,1.));
#319 = ORIENTED_EDGE('',*,*,#320,.F.);
#320 = EDGE_CURVE('',#281,#313,#321,.T.);
#321 = CIRCLE('',#322,3.999935938555);
#322 = AXIS2_PLACEMENT_3D('',#323,#324,#325);
#323 = CARTESIAN_POINT('',(198.58550637482,-112.8888926983,0.));
#324 = DIRECTION('',(0.,0.,1.));
#325 = DIRECTION('',(0.965921625879,-0.258834720739,0.));
#326 = CYLINDRICAL_SURFACE('',#327,3.999935938555);
#327 = AXIS2_PLACEMENT_3D('',#328,#329,#330);
#328 = CARTESIAN_POINT('',(198.58550637482,-112.8888926983,0.));
#329 = DIRECTION('',(-0.,-0.,-1.));
#330 = DIRECTION('',(0.965921625879,-0.258834720739,0.));
#331 = ADVANCED_FACE('',(#332),#357,.T.);
#332 = FACE_BOUND('',#333,.T.);
#333 = EDGE_LOOP('',(#334,#335,#343,#351));
#334 = ORIENTED_EDGE('',*,*,#312,.T.);
#335 = ORIENTED_EDGE('',*,*,#336,.T.);
#336 = EDGE_CURVE('',#304,#337,#339,.T.);
#337 = VERTEX_POINT('',#338);
#338 = CARTESIAN_POINT('',(211.413552,-109.020917,1.6));
#339 = LINE('',#340,#341);
#340 = CARTESIAN_POINT('',(199.61758,-109.024399,1.6));
#341 = VECTOR('',#342,1.);
#342 = DIRECTION('',(0.999999956433,2.951854962274E-04,0.));
#343 = ORIENTED_EDGE('',*,*,#344,.F.);
#344 = EDGE_CURVE('',#345,#337,#347,.T.);
#345 = VERTEX_POINT('',#346);
#346 = CARTESIAN_POINT('',(211.413552,-109.020917,0.));
#347 = LINE('',#348,#349);
#348 = CARTESIAN_POINT('',(211.413552,-109.020917,0.));
#349 = VECTOR('',#350,1.);
#350 = DIRECTION('',(0.,0.,1.));
#351 = ORIENTED_EDGE('',*,*,#352,.F.);
#352 = EDGE_CURVE('',#313,#345,#353,.T.);
#353 = LINE('',#354,#355);
#354 = CARTESIAN_POINT('',(199.61758,-109.024399,0.));
#355 = VECTOR('',#356,1.);
#356 = DIRECTION('',(0.999999956433,2.951854962274E-04,0.));
#357 = PLANE('',#358);
#358 = AXIS2_PLACEMENT_3D('',#359,#360,#361);
#359 = CARTESIAN_POINT('',(199.61758,-109.024399,0.));
#360 = DIRECTION('',(-2.951854962274E-04,0.999999956433,0.));
#361 = DIRECTION('',(0.999999956433,2.951854962274E-04,0.));
#362 = ADVANCED_FACE('',(#363),#390,.T.);
#363 = FACE_BOUND('',#364,.T.);
#364 = EDGE_LOOP('',(#365,#366,#375,#383));
#365 = ORIENTED_EDGE('',*,*,#344,.T.);
#366 = ORIENTED_EDGE('',*,*,#367,.T.);
#367 = EDGE_CURVE('',#337,#368,#370,.T.);
#368 = VERTEX_POINT('',#369);
#369 = CARTESIAN_POINT('',(213.953552,-111.560917,1.6));
#370 = CIRCLE('',#371,2.540000765514);
#371 = AXIS2_PLACEMENT_3D('',#372,#373,#374);
#372 = CARTESIAN_POINT('',(211.41355123448,-111.5609177655,1.6));
#373 = DIRECTION('',(0.,0.,-1.));
#374 = DIRECTION('',(3.01383458606E-07,1.,0.));
#375 = ORIENTED_EDGE('',*,*,#376,.F.);
#376 = EDGE_CURVE('',#377,#368,#379,.T.);
#377 = VERTEX_POINT('',#378);
#378 = CARTESIAN_POINT('',(213.953552,-111.560917,0.));
#379 = LINE('',#380,#381);
#380 = CARTESIAN_POINT('',(213.953552,-111.560917,0.));
#381 = VECTOR('',#382,1.);
#382 = DIRECTION('',(0.,0.,1.));
#383 = ORIENTED_EDGE('',*,*,#384,.F.);
#384 = EDGE_CURVE('',#345,#377,#385,.T.);
#385 = CIRCLE('',#386,2.540000765514);
#386 = AXIS2_PLACEMENT_3D('',#387,#388,#389);
#387 = CARTESIAN_POINT('',(211.41355123448,-111.5609177655,0.));
#388 = DIRECTION('',(0.,0.,-1.));
#389 = DIRECTION('',(3.01383458606E-07,1.,0.));
#390 = CYLINDRICAL_SURFACE('',#391,2.540000765514);
#391 = AXIS2_PLACEMENT_3D('',#392,#393,#394);
#392 = CARTESIAN_POINT('',(211.41355123448,-111.5609177655,0.));
#393 = DIRECTION('',(0.,0.,-1.));
#394 = DIRECTION('',(3.01383458606E-07,1.,0.));
#395 = ADVANCED_FACE('',(#396),#421,.T.);
#396 = FACE_BOUND('',#397,.T.);
#397 = EDGE_LOOP('',(#398,#399,#407,#415));
#398 = ORIENTED_EDGE('',*,*,#376,.T.);
#399 = ORIENTED_EDGE('',*,*,#400,.T.);
#400 = EDGE_CURVE('',#368,#401,#403,.T.);
#401 = VERTEX_POINT('',#402);
#402 = CARTESIAN_POINT('',(213.951552,-118.163399,1.6));
#403 = LINE('',#404,#405);
#404 = CARTESIAN_POINT('',(213.953552,-111.560917,1.6));
#405 = VECTOR('',#406,1.);
#406 = DIRECTION('',(-3.029163742137E-04,-0.999999954121,0.));
#407 = ORIENTED_EDGE('',*,*,#408,.F.);
#408 = EDGE_CURVE('',#409,#401,#411,.T.);
#409 = VERTEX_POINT('',#410);
#410 = CARTESIAN_POINT('',(213.951552,-118.163399,0.));
#411 = LINE('',#412,#413);
#412 = CARTESIAN_POINT('',(213.951552,-118.163399,0.));
#413 = VECTOR('',#414,1.);
#414 = DIRECTION('',(0.,0.,1.));
#415 = ORIENTED_EDGE('',*,*,#416,.F.);
#416 = EDGE_CURVE('',#377,#409,#417,.T.);
#417 = LINE('',#418,#419);
#418 = CARTESIAN_POINT('',(213.953552,-111.560917,0.));
#419 = VECTOR('',#420,1.);
#420 = DIRECTION('',(-3.029163742137E-04,-0.999999954121,0.));
#421 = PLANE('',#422);
#422 = AXIS2_PLACEMENT_3D('',#423,#424,#425);
#423 = CARTESIAN_POINT('',(213.953552,-111.560917,0.));
#424 = DIRECTION('',(0.999999954121,-3.029163742137E-04,0.));
#425 = DIRECTION('',(-3.029163742137E-04,-0.999999954121,0.));
#426 = ADVANCED_FACE('',(#427),#452,.T.);
#427 = FACE_BOUND('',#428,.T.);
#428 = EDGE_LOOP('',(#429,#430,#438,#446));
#429 = ORIENTED_EDGE('',*,*,#408,.T.);
#430 = ORIENTED_EDGE('',*,*,#431,.T.);
#431 = EDGE_CURVE('',#401,#432,#434,.T.);
#432 = VERTEX_POINT('',#433);
#433 = CARTESIAN_POINT('',(228.175552,-118.163399,1.6));
#434 = LINE('',#435,#436);
#435 = CARTESIAN_POINT('',(213.951552,-118.163399,1.6));
#436 = VECTOR('',#437,1.);
#437 = DIRECTION('',(1.,0.,0.));
#438 = ORIENTED_EDGE('',*,*,#439,.F.);
#439 = EDGE_CURVE('',#440,#432,#442,.T.);
#440 = VERTEX_POINT('',#441);
#441 = CARTESIAN_POINT('',(228.175552,-118.163399,0.));
#442 = LINE('',#443,#444);
#443 = CARTESIAN_POINT('',(228.175552,-118.163399,0.));
#444 = VECTOR('',#445,1.);
#445 = DIRECTION('',(0.,0.,1.));
#446 = ORIENTED_EDGE('',*,*,#447,.F.);
#447 = EDGE_CURVE('',#409,#440,#448,.T.);
#448 = LINE('',#449,#450);
#449 = CARTESIAN_POINT('',(213.951552,-118.163399,0.));
#450 = VECTOR('',#451,1.);
#451 = DIRECTION('',(1.,0.,0.));
#452 = PLANE('',#453);
#453 = AXIS2_PLACEMENT_3D('',#454,#455,#456);
#454 = CARTESIAN_POINT('',(213.951552,-118.163399,0.));
#455 = DIRECTION('',(0.,1.,0.));
#456 = DIRECTION('',(1.,0.,0.));
#457 = ADVANCED_FACE('',(#458),#483,.T.);
#458 = FACE_BOUND('',#459,.T.);
#459 = EDGE_LOOP('',(#460,#461,#469,#477));
#460 = ORIENTED_EDGE('',*,*,#439,.T.);
#461 = ORIENTED_EDGE('',*,*,#462,.T.);
#462 = EDGE_CURVE('',#432,#463,#465,.T.);
#463 = VERTEX_POINT('',#464);
#464 = CARTESIAN_POINT('',(228.173552,-111.560917,1.6));
#465 = LINE('',#466,#467);
#466 = CARTESIAN_POINT('',(228.175552,-118.163399,1.6));
#467 = VECTOR('',#468,1.);
#468 = DIRECTION('',(-3.029163742137E-04,0.999999954121,0.));
#469 = ORIENTED_EDGE('',*,*,#470,.F.);
#470 = EDGE_CURVE('',#471,#463,#473,.T.);
#471 = VERTEX_POINT('',#472);
#472 = CARTESIAN_POINT('',(228.173552,-111.560917,0.));
#473 = LINE('',#474,#475);
#474 = CARTESIAN_POINT('',(228.173552,-111.560917,0.));
#475 = VECTOR('',#476,1.);
#476 = DIRECTION('',(0.,0.,1.));
#477 = ORIENTED_EDGE('',*,*,#478,.F.);
#478 = EDGE_CURVE('',#440,#471,#479,.T.);
#479 = LINE('',#480,#481);
#480 = CARTESIAN_POINT('',(228.175552,-118.163399,0.));
#481 = VECTOR('',#482,1.);
#482 = DIRECTION('',(-3.029163742137E-04,0.999999954121,0.));
#483 = PLANE('',#484);
#484 = AXIS2_PLACEMENT_3D('',#485,#486,#487);
#485 = CARTESIAN_POINT('',(228.175552,-118.163399,0.));
#486 = DIRECTION('',(-0.999999954121,-3.029163742137E-04,0.));
#487 = DIRECTION('',(-3.029163742137E-04,0.999999954121,0.));
#488 = ADVANCED_FACE('',(#489),#516,.T.);
#489 = FACE_BOUND('',#490,.T.);
#490 = EDGE_LOOP('',(#491,#492,#501,#509));
#491 = ORIENTED_EDGE('',*,*,#470,.T.);
#492 = ORIENTED_EDGE('',*,*,#493,.T.);
#493 = EDGE_CURVE('',#463,#494,#496,.T.);
#494 = VERTEX_POINT('',#495);
#495 = CARTESIAN_POINT('',(230.713552,-109.020917,1.6));
#496 = CIRCLE('',#497,2.540000765514);
#497 = AXIS2_PLACEMENT_3D('',#498,#499,#500);
#498 = CARTESIAN_POINT('',(230.71355276551,-111.5609177655,1.6));
#499 = DIRECTION('',(0.,0.,-1.));
#500 = DIRECTION('',(-1.,3.013834306319E-07,0.));
#501 = ORIENTED_EDGE('',*,*,#502,.F.);
#502 = EDGE_CURVE('',#503,#494,#505,.T.);
#503 = VERTEX_POINT('',#504);
#504 = CARTESIAN_POINT('',(230.713552,-109.020917,0.));
#505 = LINE('',#506,#507);
#506 = CARTESIAN_POINT('',(230.713552,-109.020917,0.));
#507 = VECTOR('',#508,1.);
#508 = DIRECTION('',(0.,0.,1.));
#509 = ORIENTED_EDGE('',*,*,#510,.F.);
#510 = EDGE_CURVE('',#471,#503,#511,.T.);
#511 = CIRCLE('',#512,2.540000765514);
#512 = AXIS2_PLACEMENT_3D('',#513,#514,#515);
#513 = CARTESIAN_POINT('',(230.71355276551,-111.5609177655,0.));
#514 = DIRECTION('',(0.,0.,-1.));
#515 = DIRECTION('',(-1.,3.013834306319E-07,0.));
#516 = CYLINDRICAL_SURFACE('',#517,2.540000765514);
#517 = AXIS2_PLACEMENT_3D('',#518,#519,#520);
#518 = CARTESIAN_POINT('',(230.71355276551,-111.5609177655,0.));
#519 = DIRECTION('',(0.,0.,-1.));
#520 = DIRECTION('',(-1.,3.013834306319E-07,0.));
#521 = ADVANCED_FACE('',(#522),#538,.T.);
#522 = FACE_BOUND('',#523,.T.);
#523 = EDGE_LOOP('',(#524,#525,#531,#532));
#524 = ORIENTED_EDGE('',*,*,#502,.T.);
#525 = ORIENTED_EDGE('',*,*,#526,.T.);
#526 = EDGE_CURVE('',#494,#42,#527,.T.);
#527 = LINE('',#528,#529);
#528 = CARTESIAN_POINT('',(230.713552,-109.020917,1.6));
#529 = VECTOR('',#530,1.);
#530 = DIRECTION('',(0.999999847291,5.526461918092E-04,0.));
#531 = ORIENTED_EDGE('',*,*,#39,.F.);
#532 = ORIENTED_EDGE('',*,*,#533,.F.);
#533 = EDGE_CURVE('',#503,#40,#534,.T.);
#534 = LINE('',#535,#536);
#535 = CARTESIAN_POINT('',(230.713552,-109.020917,0.));
#536 = VECTOR('',#537,1.);
#537 = DIRECTION('',(0.999999847291,5.526461918092E-04,0.));
#538 = PLANE('',#539);
#539 = AXIS2_PLACEMENT_3D('',#540,#541,#542);
#540 = CARTESIAN_POINT('',(230.713552,-109.020917,0.));
#541 = DIRECTION('',(-5.526461918092E-04,0.999999847291,0.));
#542 = DIRECTION('',(0.999999847291,5.526461918092E-04,0.));
#543 = ADVANCED_FACE('',(#544),#562,.F.);
#544 = FACE_BOUND('',#545,.T.);
#545 = EDGE_LOOP('',(#546,#547,#548,#549,#550,#551,#552,#553,#554,#555,
    #556,#557,#558,#559,#560,#561));
#546 = ORIENTED_EDGE('',*,*,#66,.T.);
#547 = ORIENTED_EDGE('',*,*,#98,.T.);
#548 = ORIENTED_EDGE('',*,*,#130,.T.);
#549 = ORIENTED_EDGE('',*,*,#162,.T.);
#550 = ORIENTED_EDGE('',*,*,#193,.T.);
#551 = ORIENTED_EDGE('',*,*,#224,.T.);
#552 = ORIENTED_EDGE('',*,*,#256,.T.);
#553 = ORIENTED_EDGE('',*,*,#288,.T.);
#554 = ORIENTED_EDGE('',*,*,#320,.T.);
#555 = ORIENTED_EDGE('',*,*,#352,.T.);
#556 = ORIENTED_EDGE('',*,*,#384,.T.);
#557 = ORIENTED_EDGE('',*,*,#416,.T.);
#558 = ORIENTED_EDGE('',*,*,#447,.T.);
#559 = ORIENTED_EDGE('',*,*,#478,.T.);
#560 = ORIENTED_EDGE('',*,*,#510,.T.);
#561 = ORIENTED_EDGE('',*,*,#533,.T.);
#562 = PLANE('',#563);
#563 = AXIS2_PLACEMENT_3D('',#564,#565,#566);
#564 = CARTESIAN_POINT('',(0.,0.,0.));
#565 = DIRECTION('',(0.,0.,1.));
#566 = DIRECTION('',(1.,0.,-0.));
#567 = ADVANCED_FACE('',(#568),#586,.T.);
#568 = FACE_BOUND('',#569,.F.);
#569 = EDGE_LOOP('',(#570,#571,#572,#573,#574,#575,#576,#577,#578,#579,
    #580,#581,#582,#583,#584,#585));
#570 = ORIENTED_EDGE('',*,*,#49,.T.);
#571 = ORIENTED_EDGE('',*,*,#82,.T.);
#572 = ORIENTED_EDGE('',*,*,#113,.T.);
#573 = ORIENTED_EDGE('',*,*,#146,.T.);
#574 = ORIENTED_EDGE('',*,*,#177,.T.);
#575 = ORIENTED_EDGE('',*,*,#208,.T.);
#576 = ORIENTED_EDGE('',*,*,#239,.T.);
#577 = ORIENTED_EDGE('',*,*,#272,.T.);
#578 = ORIENTED_EDGE('',*,*,#303,.T.);
#579 = ORIENTED_EDGE('',*,*,#336,.T.);
#580 = ORIENTED_EDGE('',*,*,#367,.T.);
#581 = ORIENTED_EDGE('',*,*,#400,.T.);
#582 = ORIENTED_EDGE('',*,*,#431,.T.);
#583 = ORIENTED_EDGE('',*,*,#462,.T.);
#584 = ORIENTED_EDGE('',*,*,#493,.T.);
#585 = ORIENTED_EDGE('',*,*,#526,.T.);
#586 = PLANE('',#587);
#587 = AXIS2_PLACEMENT_3D('',#588,#589,#590);
#588 = CARTESIAN_POINT('',(0.,0.,1.6));
#589 = DIRECTION('',(0.,0.,1.));
#590 = DIRECTION('',(1.,0.,-0.));
#591 = ( GEOMETRIC_REPRESENTATION_CONTEXT(3) 
GLOBAL_UNCERTAINTY_ASSIGNED_CONTEXT((#595)) GLOBAL_UNIT_ASSIGNED_CONTEXT
((#592,#593,#594)) REPRESENTATION_CONTEXT('Context #1',
  '3D Context with UNIT and UNCERTAINTY') );
#592 = ( LENGTH_UNIT() NAMED_UNIT(*) SI_UNIT(.MILLI.,.METRE.) );
#593 = ( NAMED_UNIT(*) PLANE_ANGLE_UNIT() SI_UNIT($,.RADIAN.) );
#594 = ( NAMED_UNIT(*) SI_UNIT($,.STERADIAN.) SOLID_ANGLE_UNIT() );
#595 = UNCERTAINTY_MEASURE_WITH_UNIT(LENGTH_MEASURE(1.E-07),#592,
  'distance_accuracy_value','confusion accuracy');
#596 = CONTEXT_DEPENDENT_SHAPE_REPRESENTATION(#597,#599);
#597 = ( REPRESENTATION_RELATIONSHIP('','',#32,#10) 
REPRESENTATION_RELATIONSHIP_WITH_TRANSFORMATION(#598) 
SHAPE_REPRESENTATION_RELATIONSHIP() );
#598 = ITEM_DEFINED_TRANSFORMATION('','',#11,#15);
#599 = PRODUCT_DEFINITION_SHAPE('Placement','Placement of an item',#600
  );
#600 = NEXT_ASSEMBLY_USAGE_OCCURRENCE('1','=>[0:1:1:2]','',#5,#27,$);
#601 = PRODUCT_RELATED_PRODUCT_CATEGORY('part',$,(#29));
#602 = MECHANICAL_DESIGN_GEOMETRIC_PRESENTATION_REPRESENTATION('',(#603)
  ,#591);
#603 = STYLED_ITEM('color',(#604),#33);
#604 = PRESENTATION_STYLE_ASSIGNMENT((#605));
#605 = SURFACE_STYLE_USAGE(.BOTH.,#606);
#606 = SURFACE_SIDE_STYLE('',(#607));
#607 = SURFACE_STYLE_FILL_AREA(#608);
#608 = FILL_AREA_STYLE('',(#609));
#609 = FILL_AREA_STYLE_COLOUR('',#610);
#610 = COLOUR_RGB('',0.313304153717,0.484529207832,0.410020903123);
ENDSEC;
END-ISO-10303-21;
