M48
; DRILL file {KiCad 8.0.2} date 2024-05-23T23:16:20+0100
; FORMAT={-:-/ absolute / metric / decimal}
; #@! TF.CreationDate,2024-05-23T23:16:20+01:00
; #@! TF.GenerationSoftware,Kicad,Pcbnew,8.0.2
; #@! TF.FileFunction,Plated,1,2,PTH
FMAT,2
METRIC
; #@! TA.AperFunction,Plated,PTH,ViaDrill
T1C0.400
; #@! TA.AperFunction,Plated,PTH,ComponentDrill
T2C1.020
; #@! TA.AperFunction,Plated,PTH,ComponentDrill
T3C1.200
; #@! TA.AperFunction,Plated,PTH,ComponentDrill
T4C1.470
; #@! TA.AperFunction,Plated,PTH,ComponentDrill
T5C2.200
%
G90
G05
T1
X59.889Y-183.653
X66.814Y-117.278
X76.589Y-121.428
X77.039Y-157.878
X81.039Y-140.328
X85.339Y-121.228
X95.164Y-124.828
X103.914Y-123.853
X114.439Y-126.753
X122.364Y-206.778
X123.164Y-126.653
X134.839Y-131.528
X137.189Y-151.453
X141.089Y-132.503
X150.139Y-177.253
X152.739Y-137.753
X158.864Y-138.853
X169.172Y-141.578
X182.056Y-131.551
X183.101Y-157.19
X183.264Y-162.203
X184.281Y-154.451
X186.093Y-127.763
X186.164Y-145.553
X192.439Y-164.203
X193.481Y-154.451
X193.489Y-158.003
X193.589Y-161.953
X205.064Y-158.253
X205.481Y-127.776
X211.17Y-143.024
X212.006Y-149.351
X221.985Y-144.941
X229.589Y-141.203
X229.905Y-142.818
X243.58Y-138.379
X247.314Y-134.953
X249.489Y-176.103
X260.764Y-132.803
X265.264Y-128.603
X271.439Y-148.253
X277.039Y-126.978
X283.989Y-125.153
X295.614Y-123.603
X303.189Y-123.103
X312.039Y-179.778
X314.889Y-121.578
X321.989Y-119.653
X329.164Y-138.678
X352.614Y-168.203
T2
X190.037Y-135.383
X190.037Y-143.003
X190.037Y-145.543
X190.037Y-165.863
X190.037Y-127.763
X190.037Y-137.923
X190.037Y-140.463
X190.037Y-148.083
X190.037Y-155.703
X190.037Y-160.783
X190.037Y-168.403
X190.037Y-170.943
X190.037Y-176.023
X190.037Y-130.303
X190.037Y-150.623
X190.037Y-153.163
X190.037Y-158.243
X190.037Y-163.323
X190.037Y-173.483
X190.037Y-132.843
X196.387Y-175.793
X198.927Y-175.793
X201.467Y-175.793
X207.817Y-170.943
X207.817Y-130.303
X207.817Y-140.463
X207.817Y-145.543
X207.817Y-150.623
X207.817Y-153.163
X207.817Y-173.483
X207.817Y-127.763
X207.817Y-132.843
X207.817Y-135.383
X207.817Y-143.003
X207.817Y-148.083
X207.817Y-155.703
X207.817Y-163.323
X207.817Y-165.863
X207.817Y-176.023
X207.817Y-137.923
X207.817Y-158.243
X207.817Y-160.783
X207.817Y-168.403
T3
X42.788Y-149.604
X47.074Y-152.926
X58.737Y-163.709
X63.023Y-167.031
X63.658Y-145.319
X67.945Y-148.641
X68.589Y-126.918
X72.587Y-185.601
X72.875Y-130.24
X73.529Y-108.506
X76.873Y-188.923
X77.517Y-167.2
X77.815Y-111.829
X81.804Y-170.522
X82.448Y-148.799
X86.734Y-152.122
X87.378Y-130.398
X91.665Y-133.721
X91.786Y-187.577
X92.318Y-111.987
X96.072Y-190.899
X96.604Y-115.309
X96.717Y-169.176
X101.003Y-172.498
X101.657Y-150.764
X105.943Y-154.087
X106.578Y-132.374
X110.572Y-191.046
X110.864Y-135.696
X111.508Y-113.973
X114.858Y-194.368
X115.503Y-172.645
X115.794Y-117.296
X119.789Y-175.967
X120.433Y-154.244
X124.719Y-157.566
X125.373Y-135.832
X128.588Y-197.438
X129.659Y-139.155
X130.303Y-117.431
X132.874Y-200.76
X133.528Y-179.026
X134.59Y-120.754
X137.814Y-182.349
X138.449Y-160.636
X142.735Y-163.958
X143.389Y-142.224
X146.604Y-203.83
X147.675Y-145.547
X148.319Y-123.823
X150.89Y-207.152
X151.534Y-185.429
X152.605Y-127.146
X155.82Y-188.751
X156.465Y-167.028
X160.751Y-170.35
X161.395Y-148.627
X165.681Y-151.949
X166.326Y-130.226
X167.894Y-212.648
X170.612Y-133.549
X171.174Y-216.967
X172.409Y-181.163
X176.695Y-184.486
X186.176Y-226.778
X188.226Y-231.799
X211.605Y-226.808
X216.626Y-224.757
X225.451Y-181.184
X229.947Y-212.663
X230.824Y-181.919
X231.53Y-130.235
X235.327Y-211.981
X236.46Y-148.636
X236.903Y-130.97
X241.391Y-167.037
X241.833Y-149.37
X246.319Y-185.452
X246.764Y-167.771
X249.536Y-123.833
X251.252Y-203.839
X251.692Y-186.186
X254.464Y-142.247
X254.909Y-124.567
X256.625Y-204.573
X259.394Y-160.648
X259.837Y-142.982
X264.328Y-179.035
X264.768Y-161.383
X267.54Y-117.444
X269.255Y-197.45
X269.701Y-179.77
X272.47Y-135.845
X272.913Y-118.178
X274.629Y-198.185
X277.398Y-154.26
X277.844Y-136.579
X282.331Y-172.647
X282.771Y-154.994
X286.338Y-113.972
X287.259Y-191.061
X287.705Y-173.381
X291.269Y-132.373
X291.711Y-114.706
X292.632Y-191.796
X296.196Y-150.787
X296.642Y-133.107
X301.13Y-169.174
X301.569Y-151.522
X305.522Y-112.013
X306.057Y-187.589
X306.503Y-169.909
X310.455Y-130.4
X310.895Y-112.747
X311.43Y-188.323
X315.383Y-148.815
X315.829Y-131.134
X320.316Y-167.202
X320.756Y-149.549
X324.314Y-108.519
X325.247Y-185.603
X325.69Y-167.936
X329.245Y-126.92
X329.688Y-109.253
X330.62Y-186.337
X334.175Y-145.321
X334.618Y-127.654
X339.106Y-163.722
X339.549Y-146.055
X344.479Y-164.456
X355.04Y-149.598
X360.413Y-150.333
T4
X38.238Y-151.863
X45.029Y-151.053
X54.188Y-165.968
X59.109Y-147.578
X60.979Y-165.158
X64.039Y-129.177
X65.9Y-146.768
X68.037Y-187.86
X68.979Y-110.766
X70.83Y-128.367
X72.968Y-169.459
X74.828Y-187.05
X75.77Y-109.956
X77.898Y-151.058
X79.759Y-168.649
X82.829Y-132.658
X84.689Y-150.249
X87.236Y-189.836
X87.769Y-114.246
X89.62Y-131.848
X92.167Y-171.435
X94.027Y-189.026
X94.56Y-113.436
X97.107Y-153.024
X98.958Y-170.625
X102.028Y-134.633
X103.898Y-152.214
X106.022Y-193.305
X106.958Y-116.232
X108.819Y-133.823
X110.953Y-174.904
X112.813Y-192.495
X113.749Y-115.422
X115.883Y-156.503
X117.744Y-174.094
X120.823Y-138.092
X122.674Y-155.693
X124.038Y-199.697
X125.754Y-119.691
X127.614Y-137.282
X128.978Y-181.285
X130.829Y-198.887
X132.545Y-118.881
X133.899Y-162.895
X135.769Y-180.476
X138.839Y-144.484
X140.69Y-162.085
X142.054Y-206.089
X143.769Y-126.083
X145.63Y-143.674
X146.984Y-187.688
X148.845Y-205.279
X150.561Y-125.273
X151.915Y-169.287
X153.775Y-186.878
X156.845Y-150.886
X158.706Y-168.477
X161.776Y-132.485
X162.914Y-213.653
X163.636Y-150.076
X167.859Y-183.423
X168.567Y-131.675
X169.684Y-214.628
X174.65Y-182.613
X181.106Y-226.46
X187.392Y-229.154
X211.287Y-231.878
X213.981Y-225.592
X222.64Y-185.416
X228.117Y-181.319
X228.327Y-217.477
X228.719Y-134.467
X232.556Y-212.103
X233.65Y-152.868
X234.196Y-130.37
X238.58Y-171.269
X239.126Y-148.771
X243.508Y-189.683
X244.057Y-167.172
X246.726Y-128.064
X248.441Y-208.07
X248.984Y-185.586
X251.653Y-146.479
X252.202Y-123.967
X253.918Y-203.973
X256.584Y-164.88
X257.13Y-142.382
X261.517Y-183.267
X262.06Y-160.783
X264.729Y-121.676
X266.445Y-201.682
X266.993Y-179.17
X269.66Y-140.077
X270.206Y-117.579
X271.921Y-197.585
X274.588Y-158.491
X275.136Y-135.98
X279.521Y-176.878
X280.064Y-154.394
X283.528Y-118.203
X284.449Y-195.293
X284.997Y-172.781
X288.458Y-136.604
X289.004Y-114.106
X289.925Y-191.196
X293.386Y-155.019
X293.934Y-132.507
X298.319Y-173.406
X298.862Y-150.922
X302.712Y-116.245
X303.247Y-191.821
X303.795Y-169.309
X307.645Y-134.632
X308.188Y-112.148
X308.723Y-187.724
X312.573Y-153.047
X313.121Y-130.535
X317.506Y-171.434
X318.049Y-148.95
X321.504Y-112.75
X322.436Y-189.834
X322.982Y-167.337
X326.434Y-131.151
X326.98Y-108.654
X327.913Y-185.737
X331.365Y-149.552
X331.911Y-127.054
X336.295Y-167.953
X336.841Y-145.455
X341.772Y-163.856
X352.229Y-153.83
X357.706Y-149.733
T5
X29.572Y-152.189
X57.149Y-199.386
X96.974Y-103.911
X198.924Y-184.511
X198.949Y-255.886
X300.917Y-103.899
X340.742Y-199.374
X368.319Y-152.177
M30
