M48
; DRILL file {KiCad 8.0.2} date 2024-05-23T23:16:20+0100
; FORMAT={-:-/ absolute / metric / decimal}
; #@! TF.CreationDate,2024-05-23T23:16:20+01:00
; #@! TF.GenerationSoftware,Kicad,Pcbnew,8.0.2
; #@! TF.FileFunction,NonPlated,1,2,NPTH
FMAT,2
METRIC
; #@! TA.AperFunction,NonPlated,NPTH,ComponentDrill
T1C1.700
; #@! TA.AperFunction,NonPlated,NPTH,ComponentDrill
T2C1.750
; #@! TA.AperFunction,NonPlated,NPTH,ComponentDrill
T3C4.000
%
G90
G05
T1
X35.949Y-153.879
X46.574Y-156.726
X51.898Y-167.984
X56.819Y-149.594
X61.749Y-131.193
X62.523Y-170.831
X65.747Y-189.876
X66.689Y-112.782
X67.444Y-152.441
X70.678Y-171.475
X72.375Y-134.04
X75.608Y-153.075
X76.372Y-192.723
X77.314Y-115.629
X80.539Y-134.674
X81.303Y-174.322
X84.946Y-191.852
X85.479Y-116.262
X86.233Y-155.922
X89.877Y-173.451
X91.164Y-137.521
X94.817Y-155.04
X95.572Y-194.699
X96.104Y-119.109
X99.738Y-136.649
X100.502Y-176.298
X103.732Y-195.321
X104.668Y-118.248
X105.442Y-157.887
X108.663Y-176.92
X110.363Y-139.496
X113.593Y-158.519
X114.358Y-198.168
X115.294Y-121.095
X118.533Y-140.108
X119.288Y-179.767
X121.748Y-201.713
X123.464Y-121.707
X124.219Y-161.366
X126.688Y-183.302
X129.158Y-142.955
X131.609Y-164.911
X132.373Y-204.56
X134.089Y-124.554
X136.549Y-146.5
X137.313Y-186.149
X139.764Y-208.105
X141.48Y-128.099
X142.234Y-167.758
X144.695Y-189.704
X147.174Y-149.347
X149.625Y-171.303
X150.389Y-210.952
X152.105Y-130.946
X154.556Y-152.902
X155.32Y-192.551
X159.486Y-134.501
X160.181Y-215.008
X160.25Y-174.15
X165.181Y-155.749
X165.569Y-185.439
X169.707Y-220.508
X170.111Y-137.348
X176.194Y-188.286
X178.115Y-227.061
X185.893Y-234.839
X211.888Y-234.869
X219.666Y-227.091
X221.665Y-188.307
X227.744Y-137.358
X228.133Y-220.522
X232.29Y-185.46
X232.675Y-155.759
X237.605Y-174.16
X237.66Y-215.022
X238.369Y-134.511
X242.533Y-192.574
X243.3Y-152.912
X245.751Y-130.955
X247.466Y-210.961
X248.23Y-171.312
X250.678Y-149.37
X253.158Y-189.727
X255.609Y-167.771
X256.376Y-128.108
X258.091Y-208.114
X260.542Y-186.158
X261.304Y-146.523
X263.754Y-124.566
X265.47Y-204.573
X266.234Y-164.924
X268.685Y-142.967
X271.167Y-183.311
X273.612Y-161.382
X274.38Y-121.719
X276.095Y-201.726
X278.546Y-179.769
X279.31Y-140.12
X282.553Y-121.094
X283.473Y-198.184
X284.238Y-158.535
X287.483Y-139.495
X289.171Y-176.922
X292.411Y-157.91
X293.178Y-118.247
X294.099Y-195.337
X297.344Y-176.297
X298.108Y-136.648
X301.737Y-119.136
X302.272Y-194.712
X303.036Y-155.063
X306.67Y-137.523
X307.969Y-173.45
X311.598Y-155.937
X312.362Y-116.289
X312.897Y-191.865
X316.531Y-174.324
X317.295Y-134.676
X320.529Y-115.641
X321.461Y-192.725
X322.223Y-153.09
X325.459Y-134.042
X327.156Y-171.477
X330.39Y-152.443
X331.154Y-112.794
X332.087Y-189.878
X335.32Y-170.844
X336.085Y-131.195
X341.015Y-149.596
X345.946Y-167.997
X351.254Y-156.721
X361.879Y-153.874
T2
X36.354Y-153.988
X46.168Y-156.618
X52.303Y-168.093
X57.225Y-149.703
X62.117Y-170.723
X62.155Y-131.302
X66.153Y-189.985
X67.038Y-152.332
X67.095Y-112.89
X71.083Y-171.584
X71.969Y-133.932
X75.967Y-192.615
X76.014Y-153.183
X76.909Y-115.52
X80.897Y-174.214
X80.944Y-134.782
X85.352Y-191.961
X85.828Y-155.813
X85.884Y-116.371
X90.283Y-173.56
X90.758Y-137.412
X95.166Y-194.59
X95.223Y-155.148
X95.698Y-119.0
X100.096Y-176.189
X100.144Y-136.758
X104.138Y-195.43
X105.036Y-157.778
X105.074Y-118.357
X109.069Y-177.029
X109.957Y-139.388
X113.952Y-198.059
X113.999Y-158.628
X114.888Y-120.987
X118.882Y-179.658
X118.939Y-140.216
X122.154Y-201.822
X123.813Y-161.258
X123.87Y-121.816
X127.094Y-183.41
X128.753Y-142.846
X131.968Y-204.451
X132.015Y-165.02
X133.683Y-124.445
X136.908Y-186.04
X136.955Y-146.608
X140.17Y-208.214
X141.829Y-167.65
X141.885Y-128.208
X145.1Y-189.813
X146.769Y-149.238
X149.984Y-210.843
X150.031Y-171.412
X151.699Y-130.837
X154.914Y-192.442
X154.961Y-153.011
X159.845Y-174.042
X159.892Y-134.61
X160.545Y-215.218
X164.775Y-155.641
X165.975Y-185.547
X169.343Y-220.298
X169.706Y-137.24
X175.789Y-188.177
X178.412Y-227.358
X185.596Y-234.542
X212.185Y-234.572
X219.369Y-227.388
X222.071Y-188.198
X228.15Y-137.249
X228.497Y-220.312
X231.885Y-185.569
X233.08Y-155.65
X237.296Y-215.232
X237.964Y-134.619
X238.011Y-174.051
X242.894Y-153.02
X242.939Y-192.466
X246.156Y-130.846
X247.825Y-171.421
X247.872Y-210.853
X251.084Y-149.261
X252.752Y-189.836
X255.97Y-128.217
X256.015Y-167.662
X257.686Y-208.223
X260.898Y-146.632
X260.948Y-186.049
X264.16Y-124.458
X265.828Y-165.033
X265.876Y-204.464
X269.091Y-142.859
X270.762Y-183.42
X273.974Y-121.828
X274.018Y-161.273
X275.689Y-201.834
X278.904Y-140.229
X278.952Y-179.66
X282.958Y-120.985
X283.832Y-158.644
X283.879Y-198.075
X287.889Y-139.386
X288.765Y-177.031
X292.772Y-118.356
X292.816Y-157.801
X293.693Y-195.446
X297.703Y-136.757
X297.75Y-176.188
X302.142Y-119.027
X302.63Y-155.172
X302.677Y-194.603
X307.076Y-137.414
X307.564Y-173.559
X311.956Y-116.397
X312.003Y-155.829
X312.491Y-191.973
X316.889Y-134.784
X316.937Y-174.216
X320.935Y-115.533
X321.817Y-153.199
X321.867Y-192.617
X325.865Y-133.934
X326.75Y-171.586
X330.748Y-112.903
X330.796Y-152.334
X331.681Y-189.987
X335.679Y-131.304
X335.726Y-170.735
X340.609Y-149.705
X345.54Y-168.106
X351.66Y-156.612
X361.474Y-153.982
T3
X41.261Y-155.303
X57.21Y-169.408
X62.131Y-151.018
X67.062Y-132.617
X71.06Y-191.3
X72.002Y-114.205
X75.99Y-172.899
X80.921Y-154.498
X85.851Y-136.097
X90.259Y-193.276
X90.791Y-117.686
X95.19Y-174.875
X100.129Y-156.463
X105.051Y-138.073
X109.045Y-196.745
X109.981Y-119.672
X113.975Y-178.344
X118.906Y-159.943
X123.846Y-141.531
X127.061Y-203.137
X128.776Y-123.13
X132.001Y-184.725
X136.922Y-166.335
X141.862Y-147.923
X145.077Y-209.528
X146.792Y-129.522
X150.007Y-191.128
X154.938Y-172.727
X159.868Y-154.326
X164.799Y-135.925
X164.944Y-217.758
X170.882Y-186.862
X182.004Y-230.95
X215.777Y-230.98
X226.978Y-186.883
X232.897Y-217.772
X233.057Y-135.934
X237.987Y-154.335
X242.918Y-172.736
X247.846Y-191.151
X251.063Y-129.532
X252.779Y-209.538
X255.991Y-147.946
X260.921Y-166.347
X265.855Y-184.734
X269.067Y-123.143
X270.782Y-203.149
X273.997Y-141.544
X278.925Y-159.959
X283.858Y-178.346
X287.865Y-119.671
X288.786Y-196.76
X292.796Y-138.072
X297.723Y-156.486
X302.657Y-174.873
X307.049Y-117.712
X307.584Y-193.288
X311.983Y-136.099
X316.91Y-154.514
X321.844Y-172.901
X325.841Y-114.218
X326.774Y-191.302
X330.772Y-132.619
X335.702Y-151.02
X340.633Y-169.421
X356.567Y-155.297
M30
