G04 #@! TF.GenerationSoftware,KiCad,Pcbnew,8.0.2*
G04 #@! TF.CreationDate,2024-05-23T23:16:29+01:00*
G04 #@! TF.ProjectId,Phoenixia3,50686f65-6e69-4786-9961-332e6b696361,1*
G04 #@! TF.SameCoordinates,Original*
G04 #@! TF.FileFunction,Legend,Bot*
G04 #@! TF.FilePolarity,Positive*
%FSLAX46Y46*%
G04 Gerber Fmt 4.6, Leading zero omitted, Abs format (unit mm)*
G04 Created by KiCad (PCBNEW 8.0.2) date 2024-05-23 23:16:29*
%MOMM*%
%LPD*%
G01*
G04 APERTURE LIST*
G04 Aperture macros list*
%AMRoundRect*
0 Rectangle with rounded corners*
0 $1 Rounding radius*
0 $2 $3 $4 $5 $6 $7 $8 $9 X,Y pos of 4 corners*
0 Add a 4 corners polygon primitive as box body*
4,1,4,$2,$3,$4,$5,$6,$7,$8,$9,$2,$3,0*
0 Add four circle primitives for the rounded corners*
1,1,$1+$1,$2,$3*
1,1,$1+$1,$4,$5*
1,1,$1+$1,$6,$7*
1,1,$1+$1,$8,$9*
0 Add four rect primitives between the rounded corners*
20,1,$1+$1,$2,$3,$4,$5,0*
20,1,$1+$1,$4,$5,$6,$7,0*
20,1,$1+$1,$6,$7,$8,$9,0*
20,1,$1+$1,$8,$9,$2,$3,0*%
%AMHorizOval*
0 Thick line with rounded ends*
0 $1 width*
0 $2 $3 position (X,Y) of the first rounded end (center of the circle)*
0 $4 $5 position (X,Y) of the second rounded end (center of the circle)*
0 Add line between two ends*
20,1,$1,$2,$3,$4,$5,0*
0 Add two circle primitives to create the rounded ends*
1,1,$1,$2,$3*
1,1,$1,$4,$5*%
G04 Aperture macros list end*
%ADD10C,0.150000*%
%ADD11C,0.100000*%
%ADD12C,0.120000*%
%ADD13C,1.700000*%
%ADD14C,1.750000*%
%ADD15C,4.000000*%
%ADD16C,2.250000*%
%ADD17C,2.000000*%
%ADD18HorizOval,2.250000X0.000000X0.000000X0.000000X0.000000X0*%
%ADD19HorizOval,2.250000X0.000000X0.000000X0.000000X0.000000X0*%
%ADD20RoundRect,0.082000X0.608642X-0.502656X0.778427X0.130992X-0.608642X0.502656X-0.778427X-0.130992X0*%
%ADD21RoundRect,0.082000X0.778427X-0.130992X0.608642X0.502656X-0.778427X0.130992X-0.608642X-0.502656X0*%
%ADD22C,4.400000*%
%ADD23HorizOval,2.250000X0.000000X0.000000X0.000000X0.000000X0*%
%ADD24HorizOval,2.250000X0.000000X0.000000X0.000000X0.000000X0*%
%ADD25O,1.700000X1.700000*%
%ADD26R,1.700000X1.700000*%
%ADD27HorizOval,2.250000X0.000000X0.000000X0.000000X0.000000X0*%
%ADD28HorizOval,2.250000X0.000000X0.000000X0.000000X0.000000X0*%
%ADD29RoundRect,0.250000X-0.212132X0.367423X-0.367423X-0.212132X0.212132X-0.367423X0.367423X0.212132X0*%
%ADD30RoundRect,0.250000X-0.367423X0.212132X-0.212132X-0.367423X0.367423X-0.212132X0.212132X0.367423X0*%
%ADD31RoundRect,0.250000X-0.409808X0.109808X-0.109808X-0.409808X0.409808X-0.109808X0.109808X0.409808X0*%
%ADD32RoundRect,0.250000X-0.424264X0.000000X0.000000X-0.424264X0.424264X0.000000X0.000000X0.424264X0*%
%ADD33RoundRect,0.250000X-0.109808X0.409808X-0.409808X-0.109808X0.109808X-0.409808X0.409808X0.109808X0*%
%ADD34RoundRect,0.250000X0.000000X0.424264X-0.424264X0.000000X0.000000X-0.424264X0.424264X0.000000X0*%
G04 APERTURE END LIST*
D10*
X73755539Y-143685433D02*
X72789613Y-143426614D01*
X72789613Y-143426614D02*
X72727990Y-143656597D01*
X72727990Y-143656597D02*
X72737012Y-143806911D01*
X72737012Y-143806911D02*
X72804356Y-143923553D01*
X72804356Y-143923553D02*
X72884024Y-143994199D01*
X72884024Y-143994199D02*
X73055685Y-144089494D01*
X73055685Y-144089494D02*
X73193674Y-144126469D01*
X73193674Y-144126469D02*
X73389985Y-144129771D01*
X73389985Y-144129771D02*
X73494303Y-144108424D01*
X73494303Y-144108424D02*
X73610945Y-144041080D01*
X73610945Y-144041080D02*
X73693916Y-143915416D01*
X73693916Y-143915416D02*
X73755539Y-143685433D01*
X72555444Y-144300547D02*
X72395222Y-144898501D01*
X72395222Y-144898501D02*
X72849467Y-144675124D01*
X72849467Y-144675124D02*
X72812493Y-144813113D01*
X72812493Y-144813113D02*
X72833840Y-144917431D01*
X72833840Y-144917431D02*
X72867512Y-144975752D01*
X72867512Y-144975752D02*
X72947180Y-145046398D01*
X72947180Y-145046398D02*
X73177162Y-145108021D01*
X73177162Y-145108021D02*
X73281480Y-145086674D01*
X73281480Y-145086674D02*
X73339801Y-145053003D01*
X73339801Y-145053003D02*
X73410447Y-144973334D01*
X73410447Y-144973334D02*
X73484395Y-144697356D01*
X73484395Y-144697356D02*
X73463048Y-144593038D01*
X73463048Y-144593038D02*
X73429377Y-144534717D01*
X72308949Y-145220477D02*
X72148728Y-145818431D01*
X72148728Y-145818431D02*
X72602973Y-145595053D01*
X72602973Y-145595053D02*
X72565999Y-145733043D01*
X72565999Y-145733043D02*
X72587346Y-145837360D01*
X72587346Y-145837360D02*
X72621018Y-145895681D01*
X72621018Y-145895681D02*
X72700686Y-145966327D01*
X72700686Y-145966327D02*
X72930668Y-146027951D01*
X72930668Y-146027951D02*
X73034986Y-146006604D01*
X73034986Y-146006604D02*
X73093307Y-145972932D01*
X73093307Y-145972932D02*
X73163953Y-145893264D01*
X73163953Y-145893264D02*
X73237901Y-145617285D01*
X73237901Y-145617285D02*
X73216554Y-145512967D01*
X73216554Y-145512967D02*
X73182882Y-145454646D01*
X236018417Y-187955655D02*
X236984343Y-187696836D01*
X236984343Y-187696836D02*
X236922720Y-187466854D01*
X236922720Y-187466854D02*
X236839749Y-187341189D01*
X236839749Y-187341189D02*
X236723107Y-187273846D01*
X236723107Y-187273846D02*
X236618789Y-187252499D01*
X236618789Y-187252499D02*
X236422478Y-187255801D01*
X236422478Y-187255801D02*
X236284489Y-187292775D01*
X236284489Y-187292775D02*
X236112828Y-187388071D01*
X236112828Y-187388071D02*
X236033160Y-187458716D01*
X236033160Y-187458716D02*
X235965816Y-187575359D01*
X235965816Y-187575359D02*
X235956794Y-187725673D01*
X235956794Y-187725673D02*
X236018417Y-187955655D01*
X236602277Y-186270946D02*
X236725524Y-186730910D01*
X236725524Y-186730910D02*
X236277884Y-186900154D01*
X236277884Y-186900154D02*
X236311556Y-186841833D01*
X236311556Y-186841833D02*
X236332903Y-186737515D01*
X236332903Y-186737515D02*
X236271279Y-186507533D01*
X236271279Y-186507533D02*
X236200633Y-186427865D01*
X236200633Y-186427865D02*
X236142312Y-186394193D01*
X236142312Y-186394193D02*
X236037995Y-186372846D01*
X236037995Y-186372846D02*
X235808012Y-186434469D01*
X235808012Y-186434469D02*
X235728344Y-186505115D01*
X235728344Y-186505115D02*
X235694672Y-186563437D01*
X235694672Y-186563437D02*
X235673325Y-186667754D01*
X235673325Y-186667754D02*
X235734949Y-186897737D01*
X235734949Y-186897737D02*
X235805595Y-186977405D01*
X235805595Y-186977405D02*
X235863916Y-187011077D01*
X236046132Y-185483286D02*
X235402181Y-185655832D01*
X236475727Y-185614670D02*
X235847404Y-186029524D01*
X235847404Y-186029524D02*
X235687183Y-185431569D01*
X78686044Y-125284556D02*
X77720118Y-125025737D01*
X77720118Y-125025737D02*
X77658495Y-125255720D01*
X77658495Y-125255720D02*
X77667517Y-125406034D01*
X77667517Y-125406034D02*
X77734861Y-125522676D01*
X77734861Y-125522676D02*
X77814529Y-125593322D01*
X77814529Y-125593322D02*
X77986190Y-125688617D01*
X77986190Y-125688617D02*
X78124179Y-125725592D01*
X78124179Y-125725592D02*
X78320490Y-125728894D01*
X78320490Y-125728894D02*
X78424808Y-125707547D01*
X78424808Y-125707547D02*
X78541450Y-125640203D01*
X78541450Y-125640203D02*
X78624421Y-125514539D01*
X78624421Y-125514539D02*
X78686044Y-125284556D01*
X78291653Y-126756443D02*
X78439550Y-126204486D01*
X78365602Y-126480465D02*
X77399676Y-126221645D01*
X77399676Y-126221645D02*
X77562315Y-126166627D01*
X77562315Y-126166627D02*
X77678957Y-126099283D01*
X77678957Y-126099283D02*
X77749603Y-126019615D01*
X77239454Y-126819600D02*
X77066908Y-127463550D01*
X77066908Y-127463550D02*
X78143757Y-127308401D01*
X220651371Y-217772376D02*
X221517396Y-217272376D01*
X221517396Y-217272376D02*
X221398348Y-217066180D01*
X221398348Y-217066180D02*
X221285680Y-216966271D01*
X221285680Y-216966271D02*
X221155583Y-216931412D01*
X221155583Y-216931412D02*
X221049295Y-216937792D01*
X221049295Y-216937792D02*
X220860528Y-216991790D01*
X220860528Y-216991790D02*
X220736810Y-217063219D01*
X220736810Y-217063219D02*
X220595662Y-217199696D01*
X220595662Y-217199696D02*
X220536993Y-217288555D01*
X220536993Y-217288555D02*
X220502134Y-217418652D01*
X220502134Y-217418652D02*
X220532323Y-217566180D01*
X220532323Y-217566180D02*
X220651371Y-217772376D01*
X221065015Y-216488830D02*
X220731682Y-215911479D01*
X220731682Y-215911479D02*
X220079942Y-216782633D01*
X220445967Y-215416608D02*
X220398348Y-215334129D01*
X220398348Y-215334129D02*
X220309490Y-215275460D01*
X220309490Y-215275460D02*
X220244441Y-215258030D01*
X220244441Y-215258030D02*
X220138153Y-215264410D01*
X220138153Y-215264410D02*
X219949386Y-215318409D01*
X219949386Y-215318409D02*
X219743190Y-215437456D01*
X219743190Y-215437456D02*
X219602042Y-215573934D01*
X219602042Y-215573934D02*
X219543373Y-215662792D01*
X219543373Y-215662792D02*
X219525943Y-215727841D01*
X219525943Y-215727841D02*
X219532323Y-215834129D01*
X219532323Y-215834129D02*
X219579942Y-215916608D01*
X219579942Y-215916608D02*
X219668800Y-215975277D01*
X219668800Y-215975277D02*
X219733849Y-215992706D01*
X219733849Y-215992706D02*
X219840137Y-215986327D01*
X219840137Y-215986327D02*
X220028904Y-215932328D01*
X220028904Y-215932328D02*
X220235101Y-215813280D01*
X220235101Y-215813280D02*
X220376248Y-215676803D01*
X220376248Y-215676803D02*
X220434917Y-215587945D01*
X220434917Y-215587945D02*
X220452347Y-215522896D01*
X220452347Y-215522896D02*
X220445967Y-215416608D01*
X83544623Y-107248674D02*
X82578697Y-106989854D01*
X82578697Y-106989854D02*
X82517074Y-107219837D01*
X82517074Y-107219837D02*
X82526096Y-107370151D01*
X82526096Y-107370151D02*
X82593439Y-107486793D01*
X82593439Y-107486793D02*
X82673108Y-107557439D01*
X82673108Y-107557439D02*
X82844769Y-107652735D01*
X82844769Y-107652735D02*
X82982758Y-107689709D01*
X82982758Y-107689709D02*
X83179069Y-107693011D01*
X83179069Y-107693011D02*
X83283386Y-107671664D01*
X83283386Y-107671664D02*
X83400029Y-107604321D01*
X83400029Y-107604321D02*
X83482999Y-107478656D01*
X83482999Y-107478656D02*
X83544623Y-107248674D01*
X83150232Y-108720561D02*
X83298129Y-108168603D01*
X83224180Y-108444582D02*
X82258254Y-108185763D01*
X82258254Y-108185763D02*
X82420893Y-108130744D01*
X82420893Y-108130744D02*
X82537536Y-108063400D01*
X82537536Y-108063400D02*
X82608182Y-107983732D01*
X276939728Y-193579702D02*
X277905654Y-193320883D01*
X277905654Y-193320883D02*
X277844031Y-193090901D01*
X277844031Y-193090901D02*
X277761060Y-192965236D01*
X277761060Y-192965236D02*
X277644418Y-192897893D01*
X277644418Y-192897893D02*
X277540100Y-192876546D01*
X277540100Y-192876546D02*
X277343789Y-192879848D01*
X277343789Y-192879848D02*
X277205800Y-192916822D01*
X277205800Y-192916822D02*
X277034139Y-193012118D01*
X277034139Y-193012118D02*
X276954471Y-193082763D01*
X276954471Y-193082763D02*
X276887127Y-193199406D01*
X276887127Y-193199406D02*
X276878105Y-193349720D01*
X276878105Y-193349720D02*
X276939728Y-193579702D01*
X277671485Y-192446950D02*
X277498939Y-191803000D01*
X277498939Y-191803000D02*
X276643935Y-192475787D01*
X277424990Y-191527021D02*
X277264769Y-190929067D01*
X277264769Y-190929067D02*
X276983070Y-191349640D01*
X276983070Y-191349640D02*
X276946096Y-191211650D01*
X276946096Y-191211650D02*
X276875450Y-191131982D01*
X276875450Y-191131982D02*
X276817129Y-191098311D01*
X276817129Y-191098311D02*
X276712811Y-191076963D01*
X276712811Y-191076963D02*
X276482829Y-191138587D01*
X276482829Y-191138587D02*
X276403161Y-191209233D01*
X276403161Y-191209233D02*
X276369489Y-191267554D01*
X276369489Y-191267554D02*
X276348142Y-191371872D01*
X276348142Y-191371872D02*
X276422090Y-191647851D01*
X276422090Y-191647851D02*
X276492736Y-191727519D01*
X276492736Y-191727519D02*
X276551057Y-191761191D01*
X285874052Y-153319488D02*
X286839978Y-153060669D01*
X286839978Y-153060669D02*
X286778355Y-152830687D01*
X286778355Y-152830687D02*
X286695384Y-152705022D01*
X286695384Y-152705022D02*
X286578742Y-152637679D01*
X286578742Y-152637679D02*
X286474424Y-152616332D01*
X286474424Y-152616332D02*
X286278113Y-152619634D01*
X286278113Y-152619634D02*
X286140124Y-152656608D01*
X286140124Y-152656608D02*
X285968463Y-152751904D01*
X285968463Y-152751904D02*
X285888795Y-152822549D01*
X285888795Y-152822549D02*
X285821451Y-152939192D01*
X285821451Y-152939192D02*
X285812429Y-153089506D01*
X285812429Y-153089506D02*
X285874052Y-153319488D01*
X286148261Y-151767048D02*
X285504311Y-151939594D01*
X286577857Y-151898433D02*
X285949533Y-152313286D01*
X285949533Y-152313286D02*
X285789312Y-151715332D01*
X285233167Y-150927672D02*
X285381064Y-151479630D01*
X285307115Y-151203651D02*
X286273041Y-150944832D01*
X286273041Y-150944832D02*
X286159701Y-151073799D01*
X286159701Y-151073799D02*
X286092358Y-151190441D01*
X286092358Y-151190441D02*
X286071011Y-151294759D01*
X124826005Y-173923073D02*
X123860079Y-173664254D01*
X123860079Y-173664254D02*
X123798456Y-173894237D01*
X123798456Y-173894237D02*
X123807478Y-174044551D01*
X123807478Y-174044551D02*
X123874822Y-174161193D01*
X123874822Y-174161193D02*
X123954490Y-174231839D01*
X123954490Y-174231839D02*
X124126151Y-174327134D01*
X124126151Y-174327134D02*
X124264140Y-174364109D01*
X124264140Y-174364109D02*
X124460451Y-174367411D01*
X124460451Y-174367411D02*
X124564769Y-174346064D01*
X124564769Y-174346064D02*
X124681411Y-174278720D01*
X124681411Y-174278720D02*
X124764382Y-174153056D01*
X124764382Y-174153056D02*
X124826005Y-173923073D01*
X123478013Y-175090145D02*
X123601260Y-174630180D01*
X123601260Y-174630180D02*
X124073550Y-174707431D01*
X124073550Y-174707431D02*
X124015229Y-174741103D01*
X124015229Y-174741103D02*
X123944583Y-174820771D01*
X123944583Y-174820771D02*
X123882959Y-175050753D01*
X123882959Y-175050753D02*
X123904306Y-175155071D01*
X123904306Y-175155071D02*
X123937978Y-175213392D01*
X123937978Y-175213392D02*
X124017646Y-175284038D01*
X124017646Y-175284038D02*
X124247628Y-175345661D01*
X124247628Y-175345661D02*
X124351946Y-175324314D01*
X124351946Y-175324314D02*
X124410267Y-175290643D01*
X124410267Y-175290643D02*
X124480913Y-175210974D01*
X124480913Y-175210974D02*
X124542537Y-174980992D01*
X124542537Y-174980992D02*
X124521190Y-174876674D01*
X124521190Y-174876674D02*
X124487518Y-174818353D01*
X123459084Y-175528763D02*
X123400763Y-175562434D01*
X123400763Y-175562434D02*
X123330117Y-175642102D01*
X123330117Y-175642102D02*
X123268493Y-175872085D01*
X123268493Y-175872085D02*
X123289840Y-175976402D01*
X123289840Y-175976402D02*
X123323512Y-176034724D01*
X123323512Y-176034724D02*
X123403180Y-176105370D01*
X123403180Y-176105370D02*
X123495173Y-176130019D01*
X123495173Y-176130019D02*
X123645487Y-176120997D01*
X123645487Y-176120997D02*
X124345341Y-175716936D01*
X124345341Y-175716936D02*
X124185120Y-176314890D01*
X215142979Y-183707693D02*
X216108905Y-183448874D01*
X216108905Y-183448874D02*
X216047282Y-183218892D01*
X216047282Y-183218892D02*
X215964311Y-183093227D01*
X215964311Y-183093227D02*
X215847669Y-183025884D01*
X215847669Y-183025884D02*
X215743351Y-183004537D01*
X215743351Y-183004537D02*
X215547040Y-183007839D01*
X215547040Y-183007839D02*
X215409051Y-183044813D01*
X215409051Y-183044813D02*
X215237390Y-183140109D01*
X215237390Y-183140109D02*
X215157722Y-183210754D01*
X215157722Y-183210754D02*
X215090378Y-183327397D01*
X215090378Y-183327397D02*
X215081356Y-183477711D01*
X215081356Y-183477711D02*
X215142979Y-183707693D01*
X215417188Y-182155253D02*
X214773238Y-182327799D01*
X215846784Y-182286638D02*
X215218460Y-182701491D01*
X215218460Y-182701491D02*
X215058239Y-182103537D01*
X215170694Y-181235324D02*
X214526743Y-181407870D01*
X215600289Y-181366708D02*
X214971966Y-181781562D01*
X214971966Y-181781562D02*
X214811745Y-181183607D01*
X262145371Y-138390945D02*
X263111297Y-138132126D01*
X263111297Y-138132126D02*
X263049674Y-137902144D01*
X263049674Y-137902144D02*
X262966703Y-137776479D01*
X262966703Y-137776479D02*
X262850061Y-137709136D01*
X262850061Y-137709136D02*
X262745743Y-137687789D01*
X262745743Y-137687789D02*
X262549432Y-137691091D01*
X262549432Y-137691091D02*
X262411443Y-137728065D01*
X262411443Y-137728065D02*
X262239782Y-137823361D01*
X262239782Y-137823361D02*
X262160114Y-137894006D01*
X262160114Y-137894006D02*
X262092770Y-138010649D01*
X262092770Y-138010649D02*
X262083748Y-138160963D01*
X262083748Y-138160963D02*
X262145371Y-138390945D01*
X262772810Y-137236846D02*
X262806482Y-137178525D01*
X262806482Y-137178525D02*
X262827829Y-137074208D01*
X262827829Y-137074208D02*
X262766205Y-136844225D01*
X262766205Y-136844225D02*
X262695559Y-136764557D01*
X262695559Y-136764557D02*
X262637238Y-136730885D01*
X262637238Y-136730885D02*
X262532920Y-136709538D01*
X262532920Y-136709538D02*
X262440927Y-136734188D01*
X262440927Y-136734188D02*
X262315263Y-136817158D01*
X262315263Y-136817158D02*
X261911202Y-137517012D01*
X261911202Y-137517012D02*
X261750980Y-136919058D01*
X262173086Y-135918576D02*
X261529135Y-136091122D01*
X262602681Y-136049960D02*
X261974358Y-136464814D01*
X261974358Y-136464814D02*
X261814137Y-135866859D01*
X204001573Y-234188318D02*
X204708679Y-233481211D01*
X204708679Y-233481211D02*
X204540321Y-233312852D01*
X204540321Y-233312852D02*
X204405634Y-233245509D01*
X204405634Y-233245509D02*
X204270947Y-233245509D01*
X204270947Y-233245509D02*
X204169931Y-233279181D01*
X204169931Y-233279181D02*
X204001573Y-233380196D01*
X204001573Y-233380196D02*
X203900557Y-233481211D01*
X203900557Y-233481211D02*
X203799542Y-233649570D01*
X203799542Y-233649570D02*
X203765870Y-233750585D01*
X203765870Y-233750585D02*
X203765870Y-233885272D01*
X203765870Y-233885272D02*
X203833214Y-234019959D01*
X203833214Y-234019959D02*
X204001573Y-234188318D01*
X204068916Y-232841448D02*
X203597512Y-232370043D01*
X203597512Y-232370043D02*
X203193451Y-233380196D01*
X203193450Y-231965982D02*
X203126107Y-231898639D01*
X203126107Y-231898639D02*
X203025092Y-231864967D01*
X203025092Y-231864967D02*
X202957748Y-231864967D01*
X202957748Y-231864967D02*
X202856733Y-231898639D01*
X202856733Y-231898639D02*
X202688374Y-231999654D01*
X202688374Y-231999654D02*
X202520015Y-232168013D01*
X202520015Y-232168013D02*
X202419000Y-232336371D01*
X202419000Y-232336371D02*
X202385328Y-232437387D01*
X202385328Y-232437387D02*
X202385328Y-232504730D01*
X202385328Y-232504730D02*
X202419000Y-232605745D01*
X202419000Y-232605745D02*
X202486344Y-232673089D01*
X202486344Y-232673089D02*
X202587359Y-232706761D01*
X202587359Y-232706761D02*
X202654702Y-232706761D01*
X202654702Y-232706761D02*
X202755718Y-232673089D01*
X202755718Y-232673089D02*
X202924076Y-232572074D01*
X202924076Y-232572074D02*
X203092435Y-232403715D01*
X203092435Y-232403715D02*
X203193450Y-232235356D01*
X203193450Y-232235356D02*
X203227122Y-232134341D01*
X203227122Y-232134341D02*
X203227122Y-232066997D01*
X203227122Y-232066997D02*
X203193450Y-231965982D01*
X305060969Y-151347039D02*
X306026895Y-151088220D01*
X306026895Y-151088220D02*
X305965272Y-150858238D01*
X305965272Y-150858238D02*
X305882301Y-150732573D01*
X305882301Y-150732573D02*
X305765659Y-150665230D01*
X305765659Y-150665230D02*
X305661341Y-150643883D01*
X305661341Y-150643883D02*
X305465030Y-150647185D01*
X305465030Y-150647185D02*
X305327041Y-150684159D01*
X305327041Y-150684159D02*
X305155380Y-150779455D01*
X305155380Y-150779455D02*
X305075712Y-150850100D01*
X305075712Y-150850100D02*
X305008368Y-150966743D01*
X305008368Y-150966743D02*
X304999346Y-151117057D01*
X304999346Y-151117057D02*
X305060969Y-151347039D01*
X305335178Y-149794599D02*
X304691228Y-149967145D01*
X305764774Y-149925984D02*
X305136450Y-150340837D01*
X305136450Y-150340837D02*
X304976229Y-149742883D01*
X305441914Y-149273011D02*
X305475585Y-149214690D01*
X305475585Y-149214690D02*
X305496932Y-149110372D01*
X305496932Y-149110372D02*
X305435309Y-148880390D01*
X305435309Y-148880390D02*
X305364663Y-148800722D01*
X305364663Y-148800722D02*
X305306342Y-148767050D01*
X305306342Y-148767050D02*
X305202024Y-148745703D01*
X305202024Y-148745703D02*
X305110031Y-148770352D01*
X305110031Y-148770352D02*
X304984366Y-148853323D01*
X304984366Y-148853323D02*
X304580305Y-149553177D01*
X304580305Y-149553177D02*
X304420084Y-148955223D01*
X137908161Y-198703350D02*
X136942235Y-198444531D01*
X136942235Y-198444531D02*
X136880612Y-198674514D01*
X136880612Y-198674514D02*
X136889634Y-198824828D01*
X136889634Y-198824828D02*
X136956978Y-198941470D01*
X136956978Y-198941470D02*
X137036646Y-199012116D01*
X137036646Y-199012116D02*
X137208307Y-199107411D01*
X137208307Y-199107411D02*
X137346296Y-199144386D01*
X137346296Y-199144386D02*
X137542607Y-199147688D01*
X137542607Y-199147688D02*
X137646925Y-199126341D01*
X137646925Y-199126341D02*
X137763567Y-199058997D01*
X137763567Y-199058997D02*
X137846538Y-198933333D01*
X137846538Y-198933333D02*
X137908161Y-198703350D01*
X136572494Y-199824425D02*
X136621793Y-199640439D01*
X136621793Y-199640439D02*
X136692439Y-199560771D01*
X136692439Y-199560771D02*
X136750760Y-199527100D01*
X136750760Y-199527100D02*
X136913399Y-199472081D01*
X136913399Y-199472081D02*
X137109709Y-199475383D01*
X137109709Y-199475383D02*
X137477681Y-199573981D01*
X137477681Y-199573981D02*
X137557349Y-199644627D01*
X137557349Y-199644627D02*
X137591021Y-199702948D01*
X137591021Y-199702948D02*
X137612368Y-199807266D01*
X137612368Y-199807266D02*
X137563069Y-199991251D01*
X137563069Y-199991251D02*
X137492423Y-200070920D01*
X137492423Y-200070920D02*
X137434102Y-200104591D01*
X137434102Y-200104591D02*
X137329784Y-200125938D01*
X137329784Y-200125938D02*
X137099802Y-200064315D01*
X137099802Y-200064315D02*
X137020134Y-199993669D01*
X137020134Y-199993669D02*
X136986462Y-199935348D01*
X136986462Y-199935348D02*
X136965115Y-199831030D01*
X136965115Y-199831030D02*
X137014414Y-199647044D01*
X137014414Y-199647044D02*
X137085060Y-199567376D01*
X137085060Y-199567376D02*
X137143381Y-199533704D01*
X137143381Y-199533704D02*
X137247699Y-199512357D01*
X136813916Y-200579298D02*
X136792569Y-200474981D01*
X136792569Y-200474981D02*
X136758897Y-200416660D01*
X136758897Y-200416660D02*
X136679229Y-200346014D01*
X136679229Y-200346014D02*
X136633233Y-200333689D01*
X136633233Y-200333689D02*
X136528915Y-200355036D01*
X136528915Y-200355036D02*
X136470594Y-200388708D01*
X136470594Y-200388708D02*
X136399948Y-200468376D01*
X136399948Y-200468376D02*
X136350649Y-200652362D01*
X136350649Y-200652362D02*
X136371996Y-200756679D01*
X136371996Y-200756679D02*
X136405668Y-200815001D01*
X136405668Y-200815001D02*
X136485336Y-200885647D01*
X136485336Y-200885647D02*
X136531332Y-200897971D01*
X136531332Y-200897971D02*
X136635650Y-200876624D01*
X136635650Y-200876624D02*
X136693971Y-200842952D01*
X136693971Y-200842952D02*
X136764617Y-200763284D01*
X136764617Y-200763284D02*
X136813916Y-200579298D01*
X136813916Y-200579298D02*
X136884562Y-200499630D01*
X136884562Y-200499630D02*
X136942883Y-200465958D01*
X136942883Y-200465958D02*
X137047201Y-200444611D01*
X137047201Y-200444611D02*
X137231187Y-200493910D01*
X137231187Y-200493910D02*
X137310855Y-200564556D01*
X137310855Y-200564556D02*
X137344527Y-200622877D01*
X137344527Y-200622877D02*
X137365874Y-200727195D01*
X137365874Y-200727195D02*
X137316575Y-200911181D01*
X137316575Y-200911181D02*
X137245929Y-200990849D01*
X137245929Y-200990849D02*
X137187608Y-201024521D01*
X137187608Y-201024521D02*
X137083290Y-201045868D01*
X137083290Y-201045868D02*
X136899304Y-200996569D01*
X136899304Y-200996569D02*
X136819636Y-200925923D01*
X136819636Y-200925923D02*
X136785964Y-200867602D01*
X136785964Y-200867602D02*
X136764617Y-200763284D01*
X111740636Y-149130228D02*
X110774710Y-148871409D01*
X110774710Y-148871409D02*
X110713087Y-149101392D01*
X110713087Y-149101392D02*
X110722109Y-149251706D01*
X110722109Y-149251706D02*
X110789453Y-149368348D01*
X110789453Y-149368348D02*
X110869121Y-149438994D01*
X110869121Y-149438994D02*
X111040782Y-149534289D01*
X111040782Y-149534289D02*
X111178771Y-149571264D01*
X111178771Y-149571264D02*
X111375082Y-149574566D01*
X111375082Y-149574566D02*
X111479400Y-149553219D01*
X111479400Y-149553219D02*
X111596042Y-149485875D01*
X111596042Y-149485875D02*
X111679013Y-149360211D01*
X111679013Y-149360211D02*
X111740636Y-149130228D01*
X110540541Y-149745342D02*
X110380319Y-150343296D01*
X110380319Y-150343296D02*
X110834564Y-150119919D01*
X110834564Y-150119919D02*
X110797590Y-150257908D01*
X110797590Y-150257908D02*
X110818937Y-150362226D01*
X110818937Y-150362226D02*
X110852609Y-150420547D01*
X110852609Y-150420547D02*
X110932277Y-150491193D01*
X110932277Y-150491193D02*
X111162259Y-150552816D01*
X111162259Y-150552816D02*
X111266577Y-150531469D01*
X111266577Y-150531469D02*
X111324898Y-150497798D01*
X111324898Y-150497798D02*
X111395544Y-150418129D01*
X111395544Y-150418129D02*
X111469492Y-150142151D01*
X111469492Y-150142151D02*
X111448145Y-150037833D01*
X111448145Y-150037833D02*
X111414474Y-149979512D01*
X110146150Y-151217229D02*
X110269397Y-150757265D01*
X110269397Y-150757265D02*
X110741686Y-150834515D01*
X110741686Y-150834515D02*
X110683365Y-150868187D01*
X110683365Y-150868187D02*
X110612719Y-150947855D01*
X110612719Y-150947855D02*
X110551096Y-151177838D01*
X110551096Y-151177838D02*
X110572443Y-151282155D01*
X110572443Y-151282155D02*
X110606115Y-151340476D01*
X110606115Y-151340476D02*
X110685783Y-151411122D01*
X110685783Y-151411122D02*
X110915765Y-151472746D01*
X110915765Y-151472746D02*
X111020083Y-151451399D01*
X111020083Y-151451399D02*
X111078404Y-151417727D01*
X111078404Y-151417727D02*
X111149050Y-151338059D01*
X111149050Y-151338059D02*
X111210673Y-151108077D01*
X111210673Y-151108077D02*
X111189326Y-151003759D01*
X111189326Y-151003759D02*
X111155655Y-150945438D01*
X221040229Y-132222868D02*
X222006155Y-131964049D01*
X222006155Y-131964049D02*
X221944531Y-131734067D01*
X221944531Y-131734067D02*
X221861561Y-131608402D01*
X221861561Y-131608402D02*
X221744918Y-131541059D01*
X221744918Y-131541059D02*
X221640601Y-131519712D01*
X221640601Y-131519712D02*
X221444290Y-131523014D01*
X221444290Y-131523014D02*
X221306301Y-131559988D01*
X221306301Y-131559988D02*
X221134639Y-131655283D01*
X221134639Y-131655283D02*
X221054971Y-131725929D01*
X221054971Y-131725929D02*
X220987628Y-131842572D01*
X220987628Y-131842572D02*
X220978605Y-131992886D01*
X220978605Y-131992886D02*
X221040229Y-132222868D01*
X221636413Y-130584155D02*
X221685712Y-130768141D01*
X221685712Y-130768141D02*
X221664365Y-130872459D01*
X221664365Y-130872459D02*
X221630693Y-130930780D01*
X221630693Y-130930780D02*
X221517353Y-131059747D01*
X221517353Y-131059747D02*
X221345692Y-131155042D01*
X221345692Y-131155042D02*
X220977721Y-131253640D01*
X220977721Y-131253640D02*
X220873403Y-131232293D01*
X220873403Y-131232293D02*
X220815082Y-131198621D01*
X220815082Y-131198621D02*
X220744436Y-131118953D01*
X220744436Y-131118953D02*
X220695137Y-130934967D01*
X220695137Y-130934967D02*
X220716484Y-130830649D01*
X220716484Y-130830649D02*
X220750156Y-130772328D01*
X220750156Y-130772328D02*
X220829824Y-130701682D01*
X220829824Y-130701682D02*
X221059806Y-130640059D01*
X221059806Y-130640059D02*
X221164124Y-130661406D01*
X221164124Y-130661406D02*
X221222445Y-130695077D01*
X221222445Y-130695077D02*
X221293091Y-130774746D01*
X221293091Y-130774746D02*
X221342390Y-130958732D01*
X221342390Y-130958732D02*
X221321043Y-131063049D01*
X221321043Y-131063049D02*
X221287371Y-131121370D01*
X221287371Y-131121370D02*
X221207703Y-131192016D01*
X295110067Y-114458784D02*
X296075993Y-114199965D01*
X296075993Y-114199965D02*
X296014370Y-113969983D01*
X296014370Y-113969983D02*
X295931399Y-113844318D01*
X295931399Y-113844318D02*
X295814757Y-113776975D01*
X295814757Y-113776975D02*
X295710439Y-113755628D01*
X295710439Y-113755628D02*
X295514128Y-113758930D01*
X295514128Y-113758930D02*
X295376139Y-113795904D01*
X295376139Y-113795904D02*
X295204478Y-113891200D01*
X295204478Y-113891200D02*
X295124810Y-113961845D01*
X295124810Y-113961845D02*
X295057466Y-114078488D01*
X295057466Y-114078488D02*
X295048444Y-114228802D01*
X295048444Y-114228802D02*
X295110067Y-114458784D01*
X294715676Y-112986897D02*
X294863573Y-113538855D01*
X294789625Y-113262876D02*
X295755551Y-113004057D01*
X295755551Y-113004057D02*
X295642211Y-113133024D01*
X295642211Y-113133024D02*
X295574867Y-113249667D01*
X295574867Y-113249667D02*
X295553520Y-113353984D01*
X295521381Y-112130124D02*
X295496731Y-112038131D01*
X295496731Y-112038131D02*
X295426086Y-111958463D01*
X295426086Y-111958463D02*
X295367764Y-111924791D01*
X295367764Y-111924791D02*
X295263447Y-111903444D01*
X295263447Y-111903444D02*
X295067136Y-111906747D01*
X295067136Y-111906747D02*
X294837154Y-111968370D01*
X294837154Y-111968370D02*
X294665493Y-112063666D01*
X294665493Y-112063666D02*
X294585824Y-112134311D01*
X294585824Y-112134311D02*
X294552153Y-112192633D01*
X294552153Y-112192633D02*
X294530806Y-112296950D01*
X294530806Y-112296950D02*
X294555455Y-112388943D01*
X294555455Y-112388943D02*
X294626101Y-112468611D01*
X294626101Y-112468611D02*
X294684422Y-112502283D01*
X294684422Y-112502283D02*
X294788740Y-112523630D01*
X294788740Y-112523630D02*
X294985050Y-112520328D01*
X294985050Y-112520328D02*
X295215033Y-112458704D01*
X295215033Y-112458704D02*
X295386694Y-112363409D01*
X295386694Y-112363409D02*
X295466362Y-112292763D01*
X295466362Y-112292763D02*
X295500034Y-112234442D01*
X295500034Y-112234442D02*
X295521381Y-112130124D01*
X275799895Y-115971262D02*
X276765821Y-115712443D01*
X276765821Y-115712443D02*
X276704197Y-115482461D01*
X276704197Y-115482461D02*
X276621227Y-115356796D01*
X276621227Y-115356796D02*
X276504584Y-115289453D01*
X276504584Y-115289453D02*
X276400267Y-115268106D01*
X276400267Y-115268106D02*
X276203956Y-115271408D01*
X276203956Y-115271408D02*
X276065967Y-115308382D01*
X276065967Y-115308382D02*
X275894305Y-115403677D01*
X275894305Y-115403677D02*
X275814637Y-115474323D01*
X275814637Y-115474323D02*
X275747294Y-115590966D01*
X275747294Y-115590966D02*
X275738271Y-115741280D01*
X275738271Y-115741280D02*
X275799895Y-115971262D01*
X275528751Y-114959340D02*
X275479452Y-114775354D01*
X275479452Y-114775354D02*
X275500799Y-114671036D01*
X275500799Y-114671036D02*
X275534471Y-114612715D01*
X275534471Y-114612715D02*
X275647811Y-114483748D01*
X275647811Y-114483748D02*
X275819472Y-114388453D01*
X275819472Y-114388453D02*
X276187444Y-114289855D01*
X276187444Y-114289855D02*
X276291762Y-114311202D01*
X276291762Y-114311202D02*
X276350083Y-114344874D01*
X276350083Y-114344874D02*
X276420729Y-114424542D01*
X276420729Y-114424542D02*
X276470028Y-114608528D01*
X276470028Y-114608528D02*
X276448681Y-114712846D01*
X276448681Y-114712846D02*
X276415009Y-114771167D01*
X276415009Y-114771167D02*
X276335341Y-114841813D01*
X276335341Y-114841813D02*
X276105358Y-114903436D01*
X276105358Y-114903436D02*
X276001041Y-114882089D01*
X276001041Y-114882089D02*
X275942719Y-114848417D01*
X275942719Y-114848417D02*
X275872074Y-114768749D01*
X275872074Y-114768749D02*
X275822775Y-114584763D01*
X275822775Y-114584763D02*
X275844122Y-114480446D01*
X275844122Y-114480446D02*
X275877793Y-114422124D01*
X275877793Y-114422124D02*
X275957462Y-114351479D01*
X295732772Y-190093307D02*
X296698698Y-189834488D01*
X296698698Y-189834488D02*
X296637075Y-189604506D01*
X296637075Y-189604506D02*
X296554104Y-189478841D01*
X296554104Y-189478841D02*
X296437462Y-189411498D01*
X296437462Y-189411498D02*
X296333144Y-189390151D01*
X296333144Y-189390151D02*
X296136833Y-189393453D01*
X296136833Y-189393453D02*
X295998844Y-189430427D01*
X295998844Y-189430427D02*
X295827183Y-189525723D01*
X295827183Y-189525723D02*
X295747515Y-189596368D01*
X295747515Y-189596368D02*
X295680171Y-189713011D01*
X295680171Y-189713011D02*
X295671149Y-189863325D01*
X295671149Y-189863325D02*
X295732772Y-190093307D01*
X296464529Y-188960555D02*
X296291983Y-188316605D01*
X296291983Y-188316605D02*
X295436979Y-188989392D01*
X295760487Y-187620938D02*
X295116536Y-187793484D01*
X296190082Y-187752322D02*
X295561759Y-188167176D01*
X295561759Y-188167176D02*
X295401538Y-187569221D01*
X309991471Y-169747928D02*
X310957397Y-169489109D01*
X310957397Y-169489109D02*
X310895774Y-169259127D01*
X310895774Y-169259127D02*
X310812803Y-169133462D01*
X310812803Y-169133462D02*
X310696161Y-169066119D01*
X310696161Y-169066119D02*
X310591843Y-169044772D01*
X310591843Y-169044772D02*
X310395532Y-169048074D01*
X310395532Y-169048074D02*
X310257543Y-169085048D01*
X310257543Y-169085048D02*
X310085882Y-169180344D01*
X310085882Y-169180344D02*
X310006214Y-169250989D01*
X310006214Y-169250989D02*
X309938870Y-169367632D01*
X309938870Y-169367632D02*
X309929848Y-169517946D01*
X309929848Y-169517946D02*
X309991471Y-169747928D01*
X310575331Y-168063219D02*
X310698578Y-168523183D01*
X310698578Y-168523183D02*
X310250938Y-168692427D01*
X310250938Y-168692427D02*
X310284610Y-168634106D01*
X310284610Y-168634106D02*
X310305957Y-168529788D01*
X310305957Y-168529788D02*
X310244333Y-168299806D01*
X310244333Y-168299806D02*
X310173687Y-168220138D01*
X310173687Y-168220138D02*
X310115366Y-168186466D01*
X310115366Y-168186466D02*
X310011049Y-168165119D01*
X310011049Y-168165119D02*
X309781066Y-168226742D01*
X309781066Y-168226742D02*
X309701398Y-168297388D01*
X309701398Y-168297388D02*
X309667726Y-168355710D01*
X309667726Y-168355710D02*
X309646379Y-168460027D01*
X309646379Y-168460027D02*
X309708003Y-168690010D01*
X309708003Y-168690010D02*
X309778649Y-168769678D01*
X309778649Y-168769678D02*
X309836970Y-168803350D01*
X310001141Y-167576187D02*
X310071787Y-167655855D01*
X310071787Y-167655855D02*
X310130108Y-167689527D01*
X310130108Y-167689527D02*
X310234426Y-167710874D01*
X310234426Y-167710874D02*
X310280423Y-167698549D01*
X310280423Y-167698549D02*
X310360091Y-167627903D01*
X310360091Y-167627903D02*
X310393763Y-167569582D01*
X310393763Y-167569582D02*
X310415110Y-167465265D01*
X310415110Y-167465265D02*
X310365811Y-167281279D01*
X310365811Y-167281279D02*
X310295165Y-167201611D01*
X310295165Y-167201611D02*
X310236844Y-167167939D01*
X310236844Y-167167939D02*
X310132526Y-167146592D01*
X310132526Y-167146592D02*
X310086530Y-167158916D01*
X310086530Y-167158916D02*
X310006861Y-167229562D01*
X310006861Y-167229562D02*
X309973190Y-167287884D01*
X309973190Y-167287884D02*
X309951843Y-167392201D01*
X309951843Y-167392201D02*
X310001141Y-167576187D01*
X310001141Y-167576187D02*
X309979794Y-167680505D01*
X309979794Y-167680505D02*
X309946123Y-167738826D01*
X309946123Y-167738826D02*
X309866454Y-167809472D01*
X309866454Y-167809472D02*
X309682469Y-167858771D01*
X309682469Y-167858771D02*
X309578151Y-167837424D01*
X309578151Y-167837424D02*
X309519830Y-167803752D01*
X309519830Y-167803752D02*
X309449184Y-167724084D01*
X309449184Y-167724084D02*
X309399885Y-167540098D01*
X309399885Y-167540098D02*
X309421232Y-167435780D01*
X309421232Y-167435780D02*
X309454904Y-167377459D01*
X309454904Y-167377459D02*
X309534572Y-167306813D01*
X309534572Y-167306813D02*
X309718558Y-167257514D01*
X309718558Y-167257514D02*
X309822875Y-167278861D01*
X309822875Y-167278861D02*
X309881197Y-167312533D01*
X309881197Y-167312533D02*
X309951843Y-167392201D01*
X152693454Y-143523867D02*
X151727528Y-143265048D01*
X151727528Y-143265048D02*
X151665905Y-143495031D01*
X151665905Y-143495031D02*
X151674927Y-143645345D01*
X151674927Y-143645345D02*
X151742271Y-143761987D01*
X151742271Y-143761987D02*
X151821939Y-143832633D01*
X151821939Y-143832633D02*
X151993600Y-143927928D01*
X151993600Y-143927928D02*
X152131589Y-143964903D01*
X152131589Y-143964903D02*
X152327900Y-143968205D01*
X152327900Y-143968205D02*
X152432218Y-143946858D01*
X152432218Y-143946858D02*
X152548860Y-143879514D01*
X152548860Y-143879514D02*
X152631831Y-143753850D01*
X152631831Y-143753850D02*
X152693454Y-143523867D01*
X151573027Y-144209627D02*
X151514706Y-144243299D01*
X151514706Y-144243299D02*
X151444060Y-144322967D01*
X151444060Y-144322967D02*
X151382436Y-144552949D01*
X151382436Y-144552949D02*
X151403783Y-144657267D01*
X151403783Y-144657267D02*
X151437455Y-144715588D01*
X151437455Y-144715588D02*
X151517123Y-144786234D01*
X151517123Y-144786234D02*
X151609116Y-144810884D01*
X151609116Y-144810884D02*
X151759430Y-144801861D01*
X151759430Y-144801861D02*
X152459285Y-144397800D01*
X152459285Y-144397800D02*
X152299063Y-144995754D01*
X152052569Y-145915684D02*
X152200466Y-145363726D01*
X152126517Y-145639705D02*
X151160591Y-145380886D01*
X151160591Y-145380886D02*
X151323230Y-145325867D01*
X151323230Y-145325867D02*
X151439873Y-145258524D01*
X151439873Y-145258524D02*
X151510519Y-145178855D01*
X157518388Y-125613564D02*
X156552462Y-125354744D01*
X156552462Y-125354744D02*
X156490839Y-125584727D01*
X156490839Y-125584727D02*
X156499861Y-125735041D01*
X156499861Y-125735041D02*
X156567204Y-125851683D01*
X156567204Y-125851683D02*
X156646873Y-125922329D01*
X156646873Y-125922329D02*
X156818534Y-126017625D01*
X156818534Y-126017625D02*
X156956523Y-126054599D01*
X156956523Y-126054599D02*
X157152834Y-126057901D01*
X157152834Y-126057901D02*
X157257151Y-126036554D01*
X157257151Y-126036554D02*
X157373794Y-125969211D01*
X157373794Y-125969211D02*
X157456764Y-125843546D01*
X157456764Y-125843546D02*
X157518388Y-125613564D01*
X156170396Y-126780635D02*
X156293643Y-126320670D01*
X156293643Y-126320670D02*
X156765932Y-126397921D01*
X156765932Y-126397921D02*
X156707611Y-126431593D01*
X156707611Y-126431593D02*
X156636965Y-126511261D01*
X156636965Y-126511261D02*
X156575342Y-126741243D01*
X156575342Y-126741243D02*
X156596689Y-126845561D01*
X156596689Y-126845561D02*
X156630361Y-126903882D01*
X156630361Y-126903882D02*
X156710029Y-126974528D01*
X156710029Y-126974528D02*
X156940011Y-127036152D01*
X156940011Y-127036152D02*
X157044329Y-127014805D01*
X157044329Y-127014805D02*
X157102650Y-126981133D01*
X157102650Y-126981133D02*
X157173296Y-126901465D01*
X157173296Y-126901465D02*
X157234919Y-126671482D01*
X157234919Y-126671482D02*
X157213572Y-126567165D01*
X157213572Y-126567165D02*
X157179901Y-126508843D01*
X231087915Y-169554773D02*
X232053841Y-169295954D01*
X232053841Y-169295954D02*
X231992218Y-169065972D01*
X231992218Y-169065972D02*
X231909247Y-168940307D01*
X231909247Y-168940307D02*
X231792605Y-168872964D01*
X231792605Y-168872964D02*
X231688287Y-168851617D01*
X231688287Y-168851617D02*
X231491976Y-168854919D01*
X231491976Y-168854919D02*
X231353987Y-168891893D01*
X231353987Y-168891893D02*
X231182326Y-168987189D01*
X231182326Y-168987189D02*
X231102658Y-169057834D01*
X231102658Y-169057834D02*
X231035314Y-169174477D01*
X231035314Y-169174477D02*
X231026292Y-169324791D01*
X231026292Y-169324791D02*
X231087915Y-169554773D01*
X231819672Y-168422021D02*
X231659450Y-167824067D01*
X231659450Y-167824067D02*
X231377751Y-168244640D01*
X231377751Y-168244640D02*
X231340777Y-168106651D01*
X231340777Y-168106651D02*
X231270131Y-168026983D01*
X231270131Y-168026983D02*
X231211810Y-167993311D01*
X231211810Y-167993311D02*
X231107493Y-167971964D01*
X231107493Y-167971964D02*
X230877510Y-168033587D01*
X230877510Y-168033587D02*
X230797842Y-168104233D01*
X230797842Y-168104233D02*
X230764170Y-168162555D01*
X230764170Y-168162555D02*
X230742823Y-168266872D01*
X230742823Y-168266872D02*
X230816772Y-168542851D01*
X230816772Y-168542851D02*
X230887417Y-168622519D01*
X230887417Y-168622519D02*
X230945739Y-168656191D01*
X231097585Y-167383032D02*
X231168231Y-167462700D01*
X231168231Y-167462700D02*
X231226552Y-167496372D01*
X231226552Y-167496372D02*
X231330870Y-167517719D01*
X231330870Y-167517719D02*
X231376867Y-167505394D01*
X231376867Y-167505394D02*
X231456535Y-167434748D01*
X231456535Y-167434748D02*
X231490207Y-167376427D01*
X231490207Y-167376427D02*
X231511554Y-167272110D01*
X231511554Y-167272110D02*
X231462255Y-167088124D01*
X231462255Y-167088124D02*
X231391609Y-167008456D01*
X231391609Y-167008456D02*
X231333288Y-166974784D01*
X231333288Y-166974784D02*
X231228970Y-166953437D01*
X231228970Y-166953437D02*
X231182974Y-166965761D01*
X231182974Y-166965761D02*
X231103305Y-167036407D01*
X231103305Y-167036407D02*
X231069634Y-167094729D01*
X231069634Y-167094729D02*
X231048287Y-167199046D01*
X231048287Y-167199046D02*
X231097585Y-167383032D01*
X231097585Y-167383032D02*
X231076238Y-167487350D01*
X231076238Y-167487350D02*
X231042567Y-167545671D01*
X231042567Y-167545671D02*
X230962898Y-167616317D01*
X230962898Y-167616317D02*
X230778913Y-167665616D01*
X230778913Y-167665616D02*
X230674595Y-167644269D01*
X230674595Y-167644269D02*
X230616274Y-167610597D01*
X230616274Y-167610597D02*
X230545628Y-167530929D01*
X230545628Y-167530929D02*
X230496329Y-167346943D01*
X230496329Y-167346943D02*
X230517676Y-167242625D01*
X230517676Y-167242625D02*
X230551348Y-167184304D01*
X230551348Y-167184304D02*
X230631016Y-167113658D01*
X230631016Y-167113658D02*
X230815002Y-167064359D01*
X230815002Y-167064359D02*
X230919319Y-167085706D01*
X230919319Y-167085706D02*
X230977641Y-167119378D01*
X230977641Y-167119378D02*
X231048287Y-167199046D01*
X313899517Y-110978418D02*
X314865443Y-110719599D01*
X314865443Y-110719599D02*
X314803820Y-110489617D01*
X314803820Y-110489617D02*
X314720849Y-110363952D01*
X314720849Y-110363952D02*
X314604207Y-110296609D01*
X314604207Y-110296609D02*
X314499889Y-110275262D01*
X314499889Y-110275262D02*
X314303578Y-110278564D01*
X314303578Y-110278564D02*
X314165589Y-110315538D01*
X314165589Y-110315538D02*
X313993928Y-110410834D01*
X313993928Y-110410834D02*
X313914260Y-110481479D01*
X313914260Y-110481479D02*
X313846916Y-110598122D01*
X313846916Y-110598122D02*
X313837894Y-110748436D01*
X313837894Y-110748436D02*
X313899517Y-110978418D01*
X313505126Y-109506531D02*
X313653023Y-110058489D01*
X313579075Y-109782510D02*
X314545001Y-109523691D01*
X314545001Y-109523691D02*
X314431661Y-109652658D01*
X314431661Y-109652658D02*
X314364317Y-109769301D01*
X314364317Y-109769301D02*
X314342970Y-109873618D01*
X313258632Y-108586602D02*
X313406529Y-109138560D01*
X313332580Y-108862581D02*
X314298506Y-108603762D01*
X314298506Y-108603762D02*
X314185166Y-108732729D01*
X314185166Y-108732729D02*
X314117823Y-108849371D01*
X314117823Y-108849371D02*
X314096476Y-108953689D01*
X63910169Y-180453408D02*
X62944243Y-180194589D01*
X62944243Y-180194589D02*
X62882620Y-180424572D01*
X62882620Y-180424572D02*
X62891642Y-180574886D01*
X62891642Y-180574886D02*
X62958986Y-180691528D01*
X62958986Y-180691528D02*
X63038654Y-180762174D01*
X63038654Y-180762174D02*
X63210315Y-180857469D01*
X63210315Y-180857469D02*
X63348304Y-180894444D01*
X63348304Y-180894444D02*
X63544615Y-180897746D01*
X63544615Y-180897746D02*
X63648933Y-180876399D01*
X63648933Y-180876399D02*
X63765575Y-180809055D01*
X63765575Y-180809055D02*
X63848546Y-180683391D01*
X63848546Y-180683391D02*
X63910169Y-180453408D01*
X62574502Y-181574483D02*
X62623801Y-181390497D01*
X62623801Y-181390497D02*
X62694447Y-181310829D01*
X62694447Y-181310829D02*
X62752768Y-181277158D01*
X62752768Y-181277158D02*
X62915407Y-181222139D01*
X62915407Y-181222139D02*
X63111717Y-181225441D01*
X63111717Y-181225441D02*
X63479689Y-181324039D01*
X63479689Y-181324039D02*
X63559357Y-181394685D01*
X63559357Y-181394685D02*
X63593029Y-181453006D01*
X63593029Y-181453006D02*
X63614376Y-181557324D01*
X63614376Y-181557324D02*
X63565077Y-181741309D01*
X63565077Y-181741309D02*
X63494431Y-181820978D01*
X63494431Y-181820978D02*
X63436110Y-181854649D01*
X63436110Y-181854649D02*
X63331792Y-181875996D01*
X63331792Y-181875996D02*
X63101810Y-181814373D01*
X63101810Y-181814373D02*
X63022142Y-181743727D01*
X63022142Y-181743727D02*
X62988470Y-181685406D01*
X62988470Y-181685406D02*
X62967123Y-181581088D01*
X62967123Y-181581088D02*
X63016422Y-181397102D01*
X63016422Y-181397102D02*
X63087068Y-181317434D01*
X63087068Y-181317434D02*
X63145389Y-181283762D01*
X63145389Y-181283762D02*
X63249707Y-181262415D01*
X62649983Y-182580686D02*
X63293933Y-182753232D01*
X62343635Y-182252106D02*
X63095205Y-182206994D01*
X63095205Y-182206994D02*
X62934984Y-182804948D01*
X256756376Y-119509346D02*
X257722302Y-119250527D01*
X257722302Y-119250527D02*
X257660678Y-119020545D01*
X257660678Y-119020545D02*
X257577708Y-118894880D01*
X257577708Y-118894880D02*
X257461065Y-118827537D01*
X257461065Y-118827537D02*
X257356748Y-118806190D01*
X257356748Y-118806190D02*
X257160437Y-118809492D01*
X257160437Y-118809492D02*
X257022448Y-118846466D01*
X257022448Y-118846466D02*
X256850786Y-118941761D01*
X256850786Y-118941761D02*
X256771118Y-119012407D01*
X256771118Y-119012407D02*
X256703775Y-119129050D01*
X256703775Y-119129050D02*
X256694752Y-119279364D01*
X256694752Y-119279364D02*
X256756376Y-119509346D01*
X257012540Y-118257534D02*
X257083186Y-118337203D01*
X257083186Y-118337203D02*
X257141508Y-118370874D01*
X257141508Y-118370874D02*
X257245825Y-118392221D01*
X257245825Y-118392221D02*
X257291822Y-118379897D01*
X257291822Y-118379897D02*
X257371490Y-118309251D01*
X257371490Y-118309251D02*
X257405162Y-118250930D01*
X257405162Y-118250930D02*
X257426509Y-118146612D01*
X257426509Y-118146612D02*
X257377210Y-117962626D01*
X257377210Y-117962626D02*
X257306564Y-117882958D01*
X257306564Y-117882958D02*
X257248243Y-117849286D01*
X257248243Y-117849286D02*
X257143925Y-117827939D01*
X257143925Y-117827939D02*
X257097929Y-117840264D01*
X257097929Y-117840264D02*
X257018260Y-117910910D01*
X257018260Y-117910910D02*
X256984589Y-117969231D01*
X256984589Y-117969231D02*
X256963242Y-118073548D01*
X256963242Y-118073548D02*
X257012540Y-118257534D01*
X257012540Y-118257534D02*
X256991193Y-118361852D01*
X256991193Y-118361852D02*
X256957522Y-118420173D01*
X256957522Y-118420173D02*
X256877853Y-118490819D01*
X256877853Y-118490819D02*
X256693868Y-118540118D01*
X256693868Y-118540118D02*
X256589550Y-118518771D01*
X256589550Y-118518771D02*
X256531229Y-118485099D01*
X256531229Y-118485099D02*
X256460583Y-118405431D01*
X256460583Y-118405431D02*
X256411284Y-118221445D01*
X256411284Y-118221445D02*
X256432631Y-118117127D01*
X256432631Y-118117127D02*
X256466303Y-118058806D01*
X256466303Y-118058806D02*
X256545971Y-117988160D01*
X256545971Y-117988160D02*
X256729957Y-117938861D01*
X256729957Y-117938861D02*
X256834274Y-117960208D01*
X256834274Y-117960208D02*
X256892596Y-117993880D01*
X256892596Y-117993880D02*
X256963242Y-118073548D01*
X258950536Y-199984603D02*
X259916462Y-199725784D01*
X259916462Y-199725784D02*
X259854839Y-199495802D01*
X259854839Y-199495802D02*
X259771868Y-199370137D01*
X259771868Y-199370137D02*
X259655226Y-199302794D01*
X259655226Y-199302794D02*
X259550908Y-199281447D01*
X259550908Y-199281447D02*
X259354597Y-199284749D01*
X259354597Y-199284749D02*
X259216608Y-199321723D01*
X259216608Y-199321723D02*
X259044947Y-199417019D01*
X259044947Y-199417019D02*
X258965279Y-199487664D01*
X258965279Y-199487664D02*
X258897935Y-199604307D01*
X258897935Y-199604307D02*
X258888913Y-199754621D01*
X258888913Y-199754621D02*
X258950536Y-199984603D01*
X259682293Y-198851851D02*
X259509747Y-198207901D01*
X259509747Y-198207901D02*
X258654743Y-198880688D01*
X259331481Y-197910575D02*
X259365152Y-197852254D01*
X259365152Y-197852254D02*
X259386499Y-197747936D01*
X259386499Y-197747936D02*
X259324876Y-197517954D01*
X259324876Y-197517954D02*
X259254230Y-197438286D01*
X259254230Y-197438286D02*
X259195909Y-197404614D01*
X259195909Y-197404614D02*
X259091591Y-197383267D01*
X259091591Y-197383267D02*
X258999598Y-197407916D01*
X258999598Y-197407916D02*
X258873933Y-197490887D01*
X258873933Y-197490887D02*
X258469872Y-198190741D01*
X258469872Y-198190741D02*
X258309651Y-197592787D01*
X160830161Y-205486492D02*
X159964136Y-204986492D01*
X159964136Y-204986492D02*
X159845088Y-205192688D01*
X159845088Y-205192688D02*
X159814899Y-205340216D01*
X159814899Y-205340216D02*
X159849759Y-205470313D01*
X159849759Y-205470313D02*
X159908428Y-205559172D01*
X159908428Y-205559172D02*
X160049575Y-205695649D01*
X160049575Y-205695649D02*
X160173293Y-205767078D01*
X160173293Y-205767078D02*
X160362060Y-205821076D01*
X160362060Y-205821076D02*
X160468348Y-205827456D01*
X160468348Y-205827456D02*
X160598446Y-205792597D01*
X160598446Y-205792597D02*
X160711114Y-205692688D01*
X160711114Y-205692688D02*
X160830161Y-205486492D01*
X159249850Y-206223671D02*
X159345088Y-206058714D01*
X159345088Y-206058714D02*
X159433947Y-206000045D01*
X159433947Y-206000045D02*
X159498995Y-205982615D01*
X159498995Y-205982615D02*
X159670332Y-205971565D01*
X159670332Y-205971565D02*
X159859099Y-206025564D01*
X159859099Y-206025564D02*
X160189014Y-206216040D01*
X160189014Y-206216040D02*
X160247683Y-206304898D01*
X160247683Y-206304898D02*
X160265112Y-206369947D01*
X160265112Y-206369947D02*
X160258733Y-206476235D01*
X160258733Y-206476235D02*
X160163495Y-206641192D01*
X160163495Y-206641192D02*
X160074636Y-206699861D01*
X160074636Y-206699861D02*
X160009587Y-206717291D01*
X160009587Y-206717291D02*
X159903299Y-206710911D01*
X159903299Y-206710911D02*
X159697103Y-206591864D01*
X159697103Y-206591864D02*
X159638434Y-206503005D01*
X159638434Y-206503005D02*
X159621004Y-206437957D01*
X159621004Y-206437957D02*
X159627384Y-206331668D01*
X159627384Y-206331668D02*
X159722622Y-206166711D01*
X159722622Y-206166711D02*
X159811480Y-206108042D01*
X159811480Y-206108042D02*
X159876529Y-206090612D01*
X159876529Y-206090612D02*
X159982817Y-206096992D01*
X159830161Y-207218543D02*
X159734923Y-207383500D01*
X159734923Y-207383500D02*
X159646065Y-207442169D01*
X159646065Y-207442169D02*
X159581016Y-207459599D01*
X159581016Y-207459599D02*
X159409679Y-207470649D01*
X159409679Y-207470649D02*
X159220912Y-207416650D01*
X159220912Y-207416650D02*
X158890998Y-207226174D01*
X158890998Y-207226174D02*
X158832329Y-207137315D01*
X158832329Y-207137315D02*
X158814899Y-207072267D01*
X158814899Y-207072267D02*
X158821279Y-206965978D01*
X158821279Y-206965978D02*
X158916517Y-206801021D01*
X158916517Y-206801021D02*
X159005375Y-206742352D01*
X159005375Y-206742352D02*
X159070424Y-206724922D01*
X159070424Y-206724922D02*
X159176712Y-206731302D01*
X159176712Y-206731302D02*
X159382909Y-206850350D01*
X159382909Y-206850350D02*
X159441578Y-206939208D01*
X159441578Y-206939208D02*
X159459007Y-207004257D01*
X159459007Y-207004257D02*
X159452628Y-207110545D01*
X159452628Y-207110545D02*
X159357390Y-207275502D01*
X159357390Y-207275502D02*
X159268531Y-207334171D01*
X159268531Y-207334171D02*
X159203482Y-207351601D01*
X159203482Y-207351601D02*
X159097194Y-207345221D01*
X181192301Y-218043721D02*
X180485194Y-217336615D01*
X180485194Y-217336615D02*
X180316835Y-217504973D01*
X180316835Y-217504973D02*
X180249492Y-217639660D01*
X180249492Y-217639660D02*
X180249492Y-217774347D01*
X180249492Y-217774347D02*
X180283164Y-217875363D01*
X180283164Y-217875363D02*
X180384179Y-218043721D01*
X180384179Y-218043721D02*
X180485194Y-218144737D01*
X180485194Y-218144737D02*
X180653553Y-218245752D01*
X180653553Y-218245752D02*
X180754568Y-218279424D01*
X180754568Y-218279424D02*
X180889255Y-218279424D01*
X180889255Y-218279424D02*
X181023942Y-218212080D01*
X181023942Y-218212080D02*
X181192301Y-218043721D01*
X179475042Y-218346767D02*
X179609729Y-218212080D01*
X179609729Y-218212080D02*
X179710744Y-218178408D01*
X179710744Y-218178408D02*
X179778087Y-218178408D01*
X179778087Y-218178408D02*
X179946446Y-218212080D01*
X179946446Y-218212080D02*
X180114805Y-218313095D01*
X180114805Y-218313095D02*
X180384179Y-218582469D01*
X180384179Y-218582469D02*
X180417851Y-218683485D01*
X180417851Y-218683485D02*
X180417851Y-218750828D01*
X180417851Y-218750828D02*
X180384179Y-218851843D01*
X180384179Y-218851843D02*
X180249492Y-218986530D01*
X180249492Y-218986530D02*
X180148477Y-219020202D01*
X180148477Y-219020202D02*
X180081133Y-219020202D01*
X180081133Y-219020202D02*
X179980118Y-218986530D01*
X179980118Y-218986530D02*
X179811759Y-218818172D01*
X179811759Y-218818172D02*
X179778087Y-218717156D01*
X179778087Y-218717156D02*
X179778087Y-218649813D01*
X179778087Y-218649813D02*
X179811759Y-218548798D01*
X179811759Y-218548798D02*
X179946446Y-218414111D01*
X179946446Y-218414111D02*
X180047461Y-218380439D01*
X180047461Y-218380439D02*
X180114805Y-218380439D01*
X180114805Y-218380439D02*
X180215820Y-218414111D01*
X179778087Y-219457935D02*
X179643400Y-219592622D01*
X179643400Y-219592622D02*
X179542385Y-219626294D01*
X179542385Y-219626294D02*
X179475041Y-219626294D01*
X179475041Y-219626294D02*
X179306683Y-219592622D01*
X179306683Y-219592622D02*
X179138324Y-219491607D01*
X179138324Y-219491607D02*
X178868950Y-219222233D01*
X178868950Y-219222233D02*
X178835278Y-219121218D01*
X178835278Y-219121218D02*
X178835278Y-219053874D01*
X178835278Y-219053874D02*
X178868950Y-218952859D01*
X178868950Y-218952859D02*
X179003637Y-218818172D01*
X179003637Y-218818172D02*
X179104652Y-218784500D01*
X179104652Y-218784500D02*
X179171996Y-218784500D01*
X179171996Y-218784500D02*
X179273011Y-218818172D01*
X179273011Y-218818172D02*
X179441370Y-218986531D01*
X179441370Y-218986531D02*
X179475041Y-219087546D01*
X179475041Y-219087546D02*
X179475041Y-219154889D01*
X179475041Y-219154889D02*
X179441370Y-219255905D01*
X179441370Y-219255905D02*
X179306683Y-219390592D01*
X179306683Y-219390592D02*
X179205667Y-219424263D01*
X179205667Y-219424263D02*
X179138324Y-219424263D01*
X179138324Y-219424263D02*
X179037309Y-219390592D01*
X64755168Y-103768319D02*
X63789242Y-103509499D01*
X63789242Y-103509499D02*
X63727619Y-103739482D01*
X63727619Y-103739482D02*
X63736641Y-103889796D01*
X63736641Y-103889796D02*
X63803984Y-104006438D01*
X63803984Y-104006438D02*
X63883653Y-104077084D01*
X63883653Y-104077084D02*
X64055314Y-104172380D01*
X64055314Y-104172380D02*
X64193303Y-104209354D01*
X64193303Y-104209354D02*
X64389614Y-104212656D01*
X64389614Y-104212656D02*
X64493931Y-104191309D01*
X64493931Y-104191309D02*
X64610574Y-104123966D01*
X64610574Y-104123966D02*
X64693544Y-103998301D01*
X64693544Y-103998301D02*
X64755168Y-103768319D01*
X63481124Y-104659411D02*
X63456475Y-104751404D01*
X63456475Y-104751404D02*
X63477822Y-104855722D01*
X63477822Y-104855722D02*
X63511494Y-104914043D01*
X63511494Y-104914043D02*
X63591162Y-104984689D01*
X63591162Y-104984689D02*
X63762823Y-105079984D01*
X63762823Y-105079984D02*
X63992805Y-105141608D01*
X63992805Y-105141608D02*
X64189116Y-105144910D01*
X64189116Y-105144910D02*
X64293434Y-105123563D01*
X64293434Y-105123563D02*
X64351755Y-105089891D01*
X64351755Y-105089891D02*
X64422401Y-105010223D01*
X64422401Y-105010223D02*
X64447050Y-104918230D01*
X64447050Y-104918230D02*
X64425703Y-104813913D01*
X64425703Y-104813913D02*
X64392031Y-104755591D01*
X64392031Y-104755591D02*
X64312363Y-104684945D01*
X64312363Y-104684945D02*
X64140702Y-104589650D01*
X64140702Y-104589650D02*
X63910720Y-104528027D01*
X63910720Y-104528027D02*
X63714409Y-104524724D01*
X63714409Y-104524724D02*
X63610091Y-104546071D01*
X63610091Y-104546071D02*
X63551770Y-104579743D01*
X63551770Y-104579743D02*
X63481124Y-104659411D01*
X226380673Y-151116445D02*
X227346599Y-150857626D01*
X227346599Y-150857626D02*
X227284976Y-150627644D01*
X227284976Y-150627644D02*
X227202005Y-150501979D01*
X227202005Y-150501979D02*
X227085363Y-150434636D01*
X227085363Y-150434636D02*
X226981045Y-150413289D01*
X226981045Y-150413289D02*
X226784734Y-150416591D01*
X226784734Y-150416591D02*
X226646745Y-150453565D01*
X226646745Y-150453565D02*
X226475084Y-150548861D01*
X226475084Y-150548861D02*
X226395416Y-150619506D01*
X226395416Y-150619506D02*
X226328072Y-150736149D01*
X226328072Y-150736149D02*
X226319050Y-150886463D01*
X226319050Y-150886463D02*
X226380673Y-151116445D01*
X227008112Y-149962346D02*
X227041784Y-149904025D01*
X227041784Y-149904025D02*
X227063131Y-149799708D01*
X227063131Y-149799708D02*
X227001507Y-149569725D01*
X227001507Y-149569725D02*
X226930861Y-149490057D01*
X226930861Y-149490057D02*
X226872540Y-149456385D01*
X226872540Y-149456385D02*
X226768222Y-149435038D01*
X226768222Y-149435038D02*
X226676229Y-149459688D01*
X226676229Y-149459688D02*
X226550565Y-149542658D01*
X226550565Y-149542658D02*
X226146504Y-150242512D01*
X226146504Y-150242512D02*
X225986282Y-149644558D01*
X226761618Y-149042417D02*
X226795289Y-148984096D01*
X226795289Y-148984096D02*
X226816636Y-148879778D01*
X226816636Y-148879778D02*
X226755013Y-148649796D01*
X226755013Y-148649796D02*
X226684367Y-148570128D01*
X226684367Y-148570128D02*
X226626046Y-148536456D01*
X226626046Y-148536456D02*
X226521728Y-148515109D01*
X226521728Y-148515109D02*
X226429735Y-148539758D01*
X226429735Y-148539758D02*
X226304070Y-148622729D01*
X226304070Y-148622729D02*
X225900009Y-149322583D01*
X225900009Y-149322583D02*
X225739788Y-148724629D01*
X87993870Y-164078769D02*
X87027944Y-163819950D01*
X87027944Y-163819950D02*
X86966321Y-164049933D01*
X86966321Y-164049933D02*
X86975343Y-164200247D01*
X86975343Y-164200247D02*
X87042687Y-164316889D01*
X87042687Y-164316889D02*
X87122355Y-164387535D01*
X87122355Y-164387535D02*
X87294016Y-164482830D01*
X87294016Y-164482830D02*
X87432005Y-164519805D01*
X87432005Y-164519805D02*
X87628316Y-164523107D01*
X87628316Y-164523107D02*
X87732634Y-164501760D01*
X87732634Y-164501760D02*
X87849276Y-164434416D01*
X87849276Y-164434416D02*
X87932247Y-164308752D01*
X87932247Y-164308752D02*
X87993870Y-164078769D01*
X86645878Y-165245841D02*
X86769125Y-164785876D01*
X86769125Y-164785876D02*
X87241415Y-164863127D01*
X87241415Y-164863127D02*
X87183094Y-164896799D01*
X87183094Y-164896799D02*
X87112448Y-164976467D01*
X87112448Y-164976467D02*
X87050824Y-165206449D01*
X87050824Y-165206449D02*
X87072171Y-165310767D01*
X87072171Y-165310767D02*
X87105843Y-165369088D01*
X87105843Y-165369088D02*
X87185511Y-165439734D01*
X87185511Y-165439734D02*
X87415493Y-165501357D01*
X87415493Y-165501357D02*
X87519811Y-165480010D01*
X87519811Y-165480010D02*
X87578132Y-165446339D01*
X87578132Y-165446339D02*
X87648778Y-165366670D01*
X87648778Y-165366670D02*
X87710402Y-165136688D01*
X87710402Y-165136688D02*
X87689055Y-165032370D01*
X87689055Y-165032370D02*
X87655383Y-164974049D01*
X86473332Y-165889791D02*
X86448683Y-165981784D01*
X86448683Y-165981784D02*
X86470030Y-166086102D01*
X86470030Y-166086102D02*
X86503702Y-166144423D01*
X86503702Y-166144423D02*
X86583370Y-166215069D01*
X86583370Y-166215069D02*
X86755031Y-166310364D01*
X86755031Y-166310364D02*
X86985013Y-166371988D01*
X86985013Y-166371988D02*
X87181324Y-166375290D01*
X87181324Y-166375290D02*
X87285641Y-166353943D01*
X87285641Y-166353943D02*
X87343963Y-166320272D01*
X87343963Y-166320272D02*
X87414609Y-166240603D01*
X87414609Y-166240603D02*
X87439258Y-166148610D01*
X87439258Y-166148610D02*
X87417911Y-166044293D01*
X87417911Y-166044293D02*
X87384239Y-165985972D01*
X87384239Y-165985972D02*
X87304571Y-165915326D01*
X87304571Y-165915326D02*
X87132910Y-165820030D01*
X87132910Y-165820030D02*
X86902927Y-165758407D01*
X86902927Y-165758407D02*
X86706617Y-165755104D01*
X86706617Y-165755104D02*
X86602299Y-165776451D01*
X86602299Y-165776451D02*
X86543978Y-165810123D01*
X86543978Y-165810123D02*
X86473332Y-165889791D01*
X318919919Y-129465794D02*
X319885845Y-129206975D01*
X319885845Y-129206975D02*
X319824222Y-128976993D01*
X319824222Y-128976993D02*
X319741251Y-128851328D01*
X319741251Y-128851328D02*
X319624609Y-128783985D01*
X319624609Y-128783985D02*
X319520291Y-128762638D01*
X319520291Y-128762638D02*
X319323980Y-128765940D01*
X319323980Y-128765940D02*
X319185991Y-128802914D01*
X319185991Y-128802914D02*
X319014330Y-128898210D01*
X319014330Y-128898210D02*
X318934662Y-128968855D01*
X318934662Y-128968855D02*
X318867318Y-129085498D01*
X318867318Y-129085498D02*
X318858296Y-129235812D01*
X318858296Y-129235812D02*
X318919919Y-129465794D01*
X319547358Y-128311695D02*
X319581030Y-128253374D01*
X319581030Y-128253374D02*
X319602377Y-128149057D01*
X319602377Y-128149057D02*
X319540753Y-127919074D01*
X319540753Y-127919074D02*
X319470107Y-127839406D01*
X319470107Y-127839406D02*
X319411786Y-127805734D01*
X319411786Y-127805734D02*
X319307468Y-127784387D01*
X319307468Y-127784387D02*
X319215475Y-127809037D01*
X319215475Y-127809037D02*
X319089811Y-127892007D01*
X319089811Y-127892007D02*
X318685750Y-128591861D01*
X318685750Y-128591861D02*
X318525528Y-127993907D01*
X319405181Y-127413113D02*
X319232635Y-126769162D01*
X319232635Y-126769162D02*
X318377632Y-127441950D01*
X50020936Y-158588581D02*
X49055010Y-158329762D01*
X49055010Y-158329762D02*
X48993387Y-158559745D01*
X48993387Y-158559745D02*
X49002409Y-158710059D01*
X49002409Y-158710059D02*
X49069753Y-158826701D01*
X49069753Y-158826701D02*
X49149421Y-158897347D01*
X49149421Y-158897347D02*
X49321082Y-158992642D01*
X49321082Y-158992642D02*
X49459071Y-159029617D01*
X49459071Y-159029617D02*
X49655382Y-159032919D01*
X49655382Y-159032919D02*
X49759700Y-159011572D01*
X49759700Y-159011572D02*
X49876342Y-158944228D01*
X49876342Y-158944228D02*
X49959313Y-158818564D01*
X49959313Y-158818564D02*
X50020936Y-158588581D01*
X49007244Y-159795929D02*
X49651195Y-159968475D01*
X48700896Y-159467349D02*
X49452467Y-159422238D01*
X49452467Y-159422238D02*
X49292245Y-160020192D01*
X48926691Y-160464529D02*
X48905344Y-160360212D01*
X48905344Y-160360212D02*
X48871672Y-160301891D01*
X48871672Y-160301891D02*
X48792004Y-160231245D01*
X48792004Y-160231245D02*
X48746008Y-160218920D01*
X48746008Y-160218920D02*
X48641690Y-160240267D01*
X48641690Y-160240267D02*
X48583369Y-160273939D01*
X48583369Y-160273939D02*
X48512723Y-160353607D01*
X48512723Y-160353607D02*
X48463424Y-160537593D01*
X48463424Y-160537593D02*
X48484771Y-160641910D01*
X48484771Y-160641910D02*
X48518443Y-160700232D01*
X48518443Y-160700232D02*
X48598111Y-160770878D01*
X48598111Y-160770878D02*
X48644107Y-160783202D01*
X48644107Y-160783202D02*
X48748425Y-160761855D01*
X48748425Y-160761855D02*
X48806746Y-160728183D01*
X48806746Y-160728183D02*
X48877392Y-160648515D01*
X48877392Y-160648515D02*
X48926691Y-160464529D01*
X48926691Y-160464529D02*
X48997337Y-160384861D01*
X48997337Y-160384861D02*
X49055658Y-160351189D01*
X49055658Y-160351189D02*
X49159976Y-160329842D01*
X49159976Y-160329842D02*
X49343962Y-160379141D01*
X49343962Y-160379141D02*
X49423630Y-160449787D01*
X49423630Y-160449787D02*
X49457302Y-160508108D01*
X49457302Y-160508108D02*
X49478649Y-160612426D01*
X49478649Y-160612426D02*
X49429350Y-160796412D01*
X49429350Y-160796412D02*
X49358704Y-160876080D01*
X49358704Y-160876080D02*
X49300383Y-160909752D01*
X49300383Y-160909752D02*
X49196065Y-160931099D01*
X49196065Y-160931099D02*
X49012079Y-160881800D01*
X49012079Y-160881800D02*
X48932411Y-160811154D01*
X48932411Y-160811154D02*
X48898739Y-160752833D01*
X48898739Y-160752833D02*
X48877392Y-160648515D01*
X97885230Y-127260288D02*
X96919304Y-127001469D01*
X96919304Y-127001469D02*
X96857681Y-127231452D01*
X96857681Y-127231452D02*
X96866703Y-127381766D01*
X96866703Y-127381766D02*
X96934047Y-127498408D01*
X96934047Y-127498408D02*
X97013715Y-127569054D01*
X97013715Y-127569054D02*
X97185376Y-127664349D01*
X97185376Y-127664349D02*
X97323365Y-127701324D01*
X97323365Y-127701324D02*
X97519676Y-127704626D01*
X97519676Y-127704626D02*
X97623994Y-127683279D01*
X97623994Y-127683279D02*
X97740636Y-127615935D01*
X97740636Y-127615935D02*
X97823607Y-127490271D01*
X97823607Y-127490271D02*
X97885230Y-127260288D01*
X97490839Y-128732175D02*
X97638736Y-128180218D01*
X97564788Y-128456197D02*
X96598862Y-128197377D01*
X96598862Y-128197377D02*
X96761501Y-128142359D01*
X96761501Y-128142359D02*
X96878143Y-128075015D01*
X96878143Y-128075015D02*
X96948789Y-127995347D01*
X96790985Y-129136236D02*
X96769638Y-129031919D01*
X96769638Y-129031919D02*
X96735966Y-128973598D01*
X96735966Y-128973598D02*
X96656298Y-128902952D01*
X96656298Y-128902952D02*
X96610302Y-128890627D01*
X96610302Y-128890627D02*
X96505984Y-128911974D01*
X96505984Y-128911974D02*
X96447663Y-128945646D01*
X96447663Y-128945646D02*
X96377017Y-129025314D01*
X96377017Y-129025314D02*
X96327718Y-129209300D01*
X96327718Y-129209300D02*
X96349065Y-129313617D01*
X96349065Y-129313617D02*
X96382737Y-129371939D01*
X96382737Y-129371939D02*
X96462405Y-129442585D01*
X96462405Y-129442585D02*
X96508401Y-129454909D01*
X96508401Y-129454909D02*
X96612719Y-129433562D01*
X96612719Y-129433562D02*
X96671040Y-129399890D01*
X96671040Y-129399890D02*
X96741686Y-129320222D01*
X96741686Y-129320222D02*
X96790985Y-129136236D01*
X96790985Y-129136236D02*
X96861631Y-129056568D01*
X96861631Y-129056568D02*
X96919952Y-129022896D01*
X96919952Y-129022896D02*
X97024270Y-129001549D01*
X97024270Y-129001549D02*
X97208256Y-129050848D01*
X97208256Y-129050848D02*
X97287924Y-129121494D01*
X97287924Y-129121494D02*
X97321596Y-129179815D01*
X97321596Y-129179815D02*
X97342943Y-129284133D01*
X97342943Y-129284133D02*
X97293644Y-129468119D01*
X97293644Y-129468119D02*
X97222998Y-129547787D01*
X97222998Y-129547787D02*
X97164677Y-129581459D01*
X97164677Y-129581459D02*
X97060359Y-129602806D01*
X97060359Y-129602806D02*
X96876373Y-129553507D01*
X96876373Y-129553507D02*
X96796705Y-129482861D01*
X96796705Y-129482861D02*
X96763033Y-129424540D01*
X96763033Y-129424540D02*
X96741686Y-129320222D01*
X142832447Y-180325645D02*
X141866521Y-180066826D01*
X141866521Y-180066826D02*
X141804898Y-180296809D01*
X141804898Y-180296809D02*
X141813920Y-180447123D01*
X141813920Y-180447123D02*
X141881264Y-180563765D01*
X141881264Y-180563765D02*
X141960932Y-180634411D01*
X141960932Y-180634411D02*
X142132593Y-180729706D01*
X142132593Y-180729706D02*
X142270582Y-180766681D01*
X142270582Y-180766681D02*
X142466893Y-180769983D01*
X142466893Y-180769983D02*
X142571211Y-180748636D01*
X142571211Y-180748636D02*
X142687853Y-180681292D01*
X142687853Y-180681292D02*
X142770824Y-180555628D01*
X142770824Y-180555628D02*
X142832447Y-180325645D01*
X141484455Y-181492717D02*
X141607702Y-181032752D01*
X141607702Y-181032752D02*
X142079992Y-181110003D01*
X142079992Y-181110003D02*
X142021671Y-181143675D01*
X142021671Y-181143675D02*
X141951025Y-181223343D01*
X141951025Y-181223343D02*
X141889401Y-181453325D01*
X141889401Y-181453325D02*
X141910748Y-181557643D01*
X141910748Y-181557643D02*
X141944420Y-181615964D01*
X141944420Y-181615964D02*
X142024088Y-181686610D01*
X142024088Y-181686610D02*
X142254070Y-181748233D01*
X142254070Y-181748233D02*
X142358388Y-181726886D01*
X142358388Y-181726886D02*
X142416709Y-181693215D01*
X142416709Y-181693215D02*
X142487355Y-181613546D01*
X142487355Y-181613546D02*
X142548979Y-181383564D01*
X142548979Y-181383564D02*
X142527632Y-181279246D01*
X142527632Y-181279246D02*
X142493960Y-181220925D01*
X141385857Y-181860689D02*
X141225636Y-182458643D01*
X141225636Y-182458643D02*
X141679881Y-182235265D01*
X141679881Y-182235265D02*
X141642907Y-182373255D01*
X141642907Y-182373255D02*
X141664254Y-182477572D01*
X141664254Y-182477572D02*
X141697926Y-182535893D01*
X141697926Y-182535893D02*
X141777594Y-182606539D01*
X141777594Y-182606539D02*
X142007576Y-182668163D01*
X142007576Y-182668163D02*
X142111894Y-182646816D01*
X142111894Y-182646816D02*
X142170215Y-182613144D01*
X142170215Y-182613144D02*
X142240861Y-182533476D01*
X142240861Y-182533476D02*
X142314809Y-182257497D01*
X142314809Y-182257497D02*
X142293462Y-182153179D01*
X142293462Y-182153179D02*
X142259790Y-182094858D01*
X240965908Y-206384317D02*
X241931834Y-206125498D01*
X241931834Y-206125498D02*
X241870211Y-205895516D01*
X241870211Y-205895516D02*
X241787240Y-205769851D01*
X241787240Y-205769851D02*
X241670598Y-205702508D01*
X241670598Y-205702508D02*
X241566280Y-205681161D01*
X241566280Y-205681161D02*
X241369969Y-205684463D01*
X241369969Y-205684463D02*
X241231980Y-205721437D01*
X241231980Y-205721437D02*
X241060319Y-205816733D01*
X241060319Y-205816733D02*
X240980651Y-205887378D01*
X240980651Y-205887378D02*
X240913307Y-206004021D01*
X240913307Y-206004021D02*
X240904285Y-206154335D01*
X240904285Y-206154335D02*
X240965908Y-206384317D01*
X241697665Y-205251565D02*
X241525119Y-204607615D01*
X241525119Y-204607615D02*
X240670115Y-205280402D01*
X240325023Y-203992501D02*
X240472920Y-204544459D01*
X240398971Y-204268480D02*
X241364897Y-204009661D01*
X241364897Y-204009661D02*
X241251557Y-204138628D01*
X241251557Y-204138628D02*
X241184214Y-204255270D01*
X241184214Y-204255270D02*
X241162867Y-204359588D01*
X106810126Y-167531112D02*
X105844200Y-167272293D01*
X105844200Y-167272293D02*
X105782577Y-167502276D01*
X105782577Y-167502276D02*
X105791599Y-167652590D01*
X105791599Y-167652590D02*
X105858943Y-167769232D01*
X105858943Y-167769232D02*
X105938611Y-167839878D01*
X105938611Y-167839878D02*
X106110272Y-167935173D01*
X106110272Y-167935173D02*
X106248261Y-167972148D01*
X106248261Y-167972148D02*
X106444572Y-167975450D01*
X106444572Y-167975450D02*
X106548890Y-167954103D01*
X106548890Y-167954103D02*
X106665532Y-167886759D01*
X106665532Y-167886759D02*
X106748503Y-167761095D01*
X106748503Y-167761095D02*
X106810126Y-167531112D01*
X105462134Y-168698184D02*
X105585381Y-168238219D01*
X105585381Y-168238219D02*
X106057671Y-168315470D01*
X106057671Y-168315470D02*
X105999350Y-168349142D01*
X105999350Y-168349142D02*
X105928704Y-168428810D01*
X105928704Y-168428810D02*
X105867080Y-168658792D01*
X105867080Y-168658792D02*
X105888427Y-168763110D01*
X105888427Y-168763110D02*
X105922099Y-168821431D01*
X105922099Y-168821431D02*
X106001767Y-168892077D01*
X106001767Y-168892077D02*
X106231749Y-168953700D01*
X106231749Y-168953700D02*
X106336067Y-168932353D01*
X106336067Y-168932353D02*
X106394388Y-168898682D01*
X106394388Y-168898682D02*
X106465034Y-168819013D01*
X106465034Y-168819013D02*
X106526658Y-168589031D01*
X106526658Y-168589031D02*
X106505311Y-168484713D01*
X106505311Y-168484713D02*
X106471639Y-168426392D01*
X106169241Y-169922929D02*
X106317138Y-169370971D01*
X106243189Y-169646950D02*
X105277263Y-169388131D01*
X105277263Y-169388131D02*
X105439902Y-169333112D01*
X105439902Y-169333112D02*
X105556545Y-169265769D01*
X105556545Y-169265769D02*
X105627191Y-169186100D01*
X328535575Y-166333308D02*
X329501501Y-166074489D01*
X329501501Y-166074489D02*
X329439878Y-165844507D01*
X329439878Y-165844507D02*
X329356907Y-165718842D01*
X329356907Y-165718842D02*
X329240265Y-165651499D01*
X329240265Y-165651499D02*
X329135947Y-165630152D01*
X329135947Y-165630152D02*
X328939636Y-165633454D01*
X328939636Y-165633454D02*
X328801647Y-165670428D01*
X328801647Y-165670428D02*
X328629986Y-165765724D01*
X328629986Y-165765724D02*
X328550318Y-165836369D01*
X328550318Y-165836369D02*
X328482974Y-165953012D01*
X328482974Y-165953012D02*
X328473952Y-166103326D01*
X328473952Y-166103326D02*
X328535575Y-166333308D01*
X329119435Y-164648599D02*
X329242682Y-165108563D01*
X329242682Y-165108563D02*
X328795042Y-165277807D01*
X328795042Y-165277807D02*
X328828714Y-165219486D01*
X328828714Y-165219486D02*
X328850061Y-165115168D01*
X328850061Y-165115168D02*
X328788437Y-164885186D01*
X328788437Y-164885186D02*
X328717791Y-164805518D01*
X328717791Y-164805518D02*
X328659470Y-164771846D01*
X328659470Y-164771846D02*
X328555153Y-164750499D01*
X328555153Y-164750499D02*
X328325170Y-164812122D01*
X328325170Y-164812122D02*
X328245502Y-164882768D01*
X328245502Y-164882768D02*
X328211830Y-164941090D01*
X328211830Y-164941090D02*
X328190483Y-165045407D01*
X328190483Y-165045407D02*
X328252107Y-165275390D01*
X328252107Y-165275390D02*
X328322753Y-165355058D01*
X328322753Y-165355058D02*
X328381074Y-165388730D01*
X328017937Y-164401457D02*
X327968638Y-164217471D01*
X327968638Y-164217471D02*
X327989985Y-164113153D01*
X327989985Y-164113153D02*
X328023657Y-164054832D01*
X328023657Y-164054832D02*
X328136997Y-163925865D01*
X328136997Y-163925865D02*
X328308658Y-163830569D01*
X328308658Y-163830569D02*
X328676630Y-163731972D01*
X328676630Y-163731972D02*
X328780948Y-163753319D01*
X328780948Y-163753319D02*
X328839269Y-163786991D01*
X328839269Y-163786991D02*
X328909915Y-163866659D01*
X328909915Y-163866659D02*
X328959214Y-164050645D01*
X328959214Y-164050645D02*
X328937867Y-164154962D01*
X328937867Y-164154962D02*
X328904195Y-164213283D01*
X328904195Y-164213283D02*
X328824527Y-164283929D01*
X328824527Y-164283929D02*
X328594544Y-164345553D01*
X328594544Y-164345553D02*
X328490227Y-164324206D01*
X328490227Y-164324206D02*
X328431905Y-164290534D01*
X328431905Y-164290534D02*
X328361260Y-164210866D01*
X328361260Y-164210866D02*
X328311961Y-164026880D01*
X328311961Y-164026880D02*
X328333308Y-163922562D01*
X328333308Y-163922562D02*
X328366979Y-163864241D01*
X328366979Y-163864241D02*
X328446648Y-163793595D01*
X323850419Y-147866684D02*
X324816345Y-147607865D01*
X324816345Y-147607865D02*
X324754722Y-147377883D01*
X324754722Y-147377883D02*
X324671751Y-147252218D01*
X324671751Y-147252218D02*
X324555109Y-147184875D01*
X324555109Y-147184875D02*
X324450791Y-147163528D01*
X324450791Y-147163528D02*
X324254480Y-147166830D01*
X324254480Y-147166830D02*
X324116491Y-147203804D01*
X324116491Y-147203804D02*
X323944830Y-147299100D01*
X323944830Y-147299100D02*
X323865162Y-147369745D01*
X323865162Y-147369745D02*
X323797818Y-147486388D01*
X323797818Y-147486388D02*
X323788796Y-147636702D01*
X323788796Y-147636702D02*
X323850419Y-147866684D01*
X324124628Y-146314244D02*
X323480678Y-146486790D01*
X324554224Y-146445629D02*
X323925900Y-146860482D01*
X323925900Y-146860482D02*
X323765679Y-146262528D01*
X324335681Y-145814003D02*
X324175460Y-145216049D01*
X324175460Y-145216049D02*
X323893761Y-145636622D01*
X323893761Y-145636622D02*
X323856787Y-145498632D01*
X323856787Y-145498632D02*
X323786141Y-145418964D01*
X323786141Y-145418964D02*
X323727820Y-145385293D01*
X323727820Y-145385293D02*
X323623502Y-145363945D01*
X323623502Y-145363945D02*
X323393520Y-145425569D01*
X323393520Y-145425569D02*
X323313852Y-145496215D01*
X323313852Y-145496215D02*
X323280180Y-145554536D01*
X323280180Y-145554536D02*
X323258833Y-145658854D01*
X323258833Y-145658854D02*
X323332781Y-145934833D01*
X323332781Y-145934833D02*
X323403427Y-146014501D01*
X323403427Y-146014501D02*
X323461748Y-146048173D01*
X300130466Y-132946155D02*
X301096392Y-132687336D01*
X301096392Y-132687336D02*
X301034769Y-132457354D01*
X301034769Y-132457354D02*
X300951798Y-132331689D01*
X300951798Y-132331689D02*
X300835156Y-132264346D01*
X300835156Y-132264346D02*
X300730838Y-132242999D01*
X300730838Y-132242999D02*
X300534527Y-132246301D01*
X300534527Y-132246301D02*
X300396538Y-132283275D01*
X300396538Y-132283275D02*
X300224877Y-132378571D01*
X300224877Y-132378571D02*
X300145209Y-132449216D01*
X300145209Y-132449216D02*
X300077865Y-132565859D01*
X300077865Y-132565859D02*
X300068843Y-132716173D01*
X300068843Y-132716173D02*
X300130466Y-132946155D01*
X300757905Y-131792056D02*
X300791577Y-131733735D01*
X300791577Y-131733735D02*
X300812924Y-131629418D01*
X300812924Y-131629418D02*
X300751300Y-131399435D01*
X300751300Y-131399435D02*
X300680654Y-131319767D01*
X300680654Y-131319767D02*
X300622333Y-131286095D01*
X300622333Y-131286095D02*
X300518015Y-131264748D01*
X300518015Y-131264748D02*
X300426022Y-131289398D01*
X300426022Y-131289398D02*
X300300358Y-131372368D01*
X300300358Y-131372368D02*
X299896297Y-132072222D01*
X299896297Y-132072222D02*
X299736075Y-131474268D01*
X300480156Y-130387513D02*
X300529455Y-130571499D01*
X300529455Y-130571499D02*
X300508108Y-130675816D01*
X300508108Y-130675816D02*
X300474436Y-130734138D01*
X300474436Y-130734138D02*
X300361096Y-130863105D01*
X300361096Y-130863105D02*
X300189435Y-130958400D01*
X300189435Y-130958400D02*
X299821464Y-131056998D01*
X299821464Y-131056998D02*
X299717146Y-131035651D01*
X299717146Y-131035651D02*
X299658825Y-131001979D01*
X299658825Y-131001979D02*
X299588179Y-130922311D01*
X299588179Y-130922311D02*
X299538880Y-130738325D01*
X299538880Y-130738325D02*
X299560227Y-130634007D01*
X299560227Y-130634007D02*
X299593899Y-130575686D01*
X299593899Y-130575686D02*
X299673567Y-130505040D01*
X299673567Y-130505040D02*
X299903549Y-130443416D01*
X299903549Y-130443416D02*
X300007867Y-130464764D01*
X300007867Y-130464764D02*
X300066188Y-130498435D01*
X300066188Y-130498435D02*
X300136834Y-130578103D01*
X300136834Y-130578103D02*
X300186133Y-130762089D01*
X300186133Y-130762089D02*
X300164786Y-130866407D01*
X300164786Y-130866407D02*
X300131114Y-130924728D01*
X300131114Y-130924728D02*
X300051446Y-130995374D01*
X134686930Y-137146115D02*
X133721004Y-136887296D01*
X133721004Y-136887296D02*
X133659381Y-137117279D01*
X133659381Y-137117279D02*
X133668403Y-137267593D01*
X133668403Y-137267593D02*
X133735747Y-137384235D01*
X133735747Y-137384235D02*
X133815415Y-137454881D01*
X133815415Y-137454881D02*
X133987076Y-137550176D01*
X133987076Y-137550176D02*
X134125065Y-137587151D01*
X134125065Y-137587151D02*
X134321376Y-137590453D01*
X134321376Y-137590453D02*
X134425694Y-137569106D01*
X134425694Y-137569106D02*
X134542336Y-137501762D01*
X134542336Y-137501762D02*
X134625307Y-137376098D01*
X134625307Y-137376098D02*
X134686930Y-137146115D01*
X133566503Y-137831875D02*
X133508182Y-137865547D01*
X133508182Y-137865547D02*
X133437536Y-137945215D01*
X133437536Y-137945215D02*
X133375912Y-138175197D01*
X133375912Y-138175197D02*
X133397259Y-138279515D01*
X133397259Y-138279515D02*
X133430931Y-138337836D01*
X133430931Y-138337836D02*
X133510599Y-138408482D01*
X133510599Y-138408482D02*
X133602592Y-138433132D01*
X133602592Y-138433132D02*
X133752906Y-138424109D01*
X133752906Y-138424109D02*
X134452761Y-138020048D01*
X134452761Y-138020048D02*
X134292539Y-138618002D01*
X133166392Y-138957137D02*
X133141743Y-139049130D01*
X133141743Y-139049130D02*
X133163090Y-139153448D01*
X133163090Y-139153448D02*
X133196762Y-139211769D01*
X133196762Y-139211769D02*
X133276430Y-139282415D01*
X133276430Y-139282415D02*
X133448091Y-139377710D01*
X133448091Y-139377710D02*
X133678073Y-139439334D01*
X133678073Y-139439334D02*
X133874384Y-139442636D01*
X133874384Y-139442636D02*
X133978701Y-139421289D01*
X133978701Y-139421289D02*
X134037023Y-139387618D01*
X134037023Y-139387618D02*
X134107669Y-139307949D01*
X134107669Y-139307949D02*
X134132318Y-139215956D01*
X134132318Y-139215956D02*
X134110971Y-139111639D01*
X134110971Y-139111639D02*
X134077299Y-139053318D01*
X134077299Y-139053318D02*
X133997631Y-138982672D01*
X133997631Y-138982672D02*
X133825970Y-138887376D01*
X133825970Y-138887376D02*
X133595987Y-138825753D01*
X133595987Y-138825753D02*
X133399677Y-138822450D01*
X133399677Y-138822450D02*
X133295359Y-138843797D01*
X133295359Y-138843797D02*
X133237038Y-138877469D01*
X133237038Y-138877469D02*
X133166392Y-138957137D01*
X238998121Y-125832272D02*
X239964047Y-125573453D01*
X239964047Y-125573453D02*
X239902423Y-125343471D01*
X239902423Y-125343471D02*
X239819453Y-125217806D01*
X239819453Y-125217806D02*
X239702810Y-125150463D01*
X239702810Y-125150463D02*
X239598493Y-125129116D01*
X239598493Y-125129116D02*
X239402182Y-125132418D01*
X239402182Y-125132418D02*
X239264193Y-125169392D01*
X239264193Y-125169392D02*
X239092531Y-125264687D01*
X239092531Y-125264687D02*
X239012863Y-125335333D01*
X239012863Y-125335333D02*
X238945520Y-125451976D01*
X238945520Y-125451976D02*
X238936497Y-125602290D01*
X238936497Y-125602290D02*
X238998121Y-125832272D01*
X239729877Y-124699520D02*
X239557331Y-124055570D01*
X239557331Y-124055570D02*
X238702328Y-124728357D01*
X249072273Y-163180497D02*
X250038199Y-162921678D01*
X250038199Y-162921678D02*
X249976576Y-162691696D01*
X249976576Y-162691696D02*
X249893605Y-162566031D01*
X249893605Y-162566031D02*
X249776963Y-162498688D01*
X249776963Y-162498688D02*
X249672645Y-162477341D01*
X249672645Y-162477341D02*
X249476334Y-162480643D01*
X249476334Y-162480643D02*
X249338345Y-162517617D01*
X249338345Y-162517617D02*
X249166684Y-162612913D01*
X249166684Y-162612913D02*
X249087016Y-162683558D01*
X249087016Y-162683558D02*
X249019672Y-162800201D01*
X249019672Y-162800201D02*
X249010650Y-162950515D01*
X249010650Y-162950515D02*
X249072273Y-163180497D01*
X249804030Y-162047745D02*
X249643808Y-161449791D01*
X249643808Y-161449791D02*
X249362109Y-161870364D01*
X249362109Y-161870364D02*
X249325135Y-161732375D01*
X249325135Y-161732375D02*
X249254489Y-161652707D01*
X249254489Y-161652707D02*
X249196168Y-161619035D01*
X249196168Y-161619035D02*
X249091851Y-161597688D01*
X249091851Y-161597688D02*
X248861868Y-161659311D01*
X248861868Y-161659311D02*
X248782200Y-161729957D01*
X248782200Y-161729957D02*
X248748528Y-161788279D01*
X248748528Y-161788279D02*
X248727181Y-161892596D01*
X248727181Y-161892596D02*
X248801130Y-162168575D01*
X248801130Y-162168575D02*
X248871775Y-162248243D01*
X248871775Y-162248243D02*
X248930097Y-162281915D01*
X248554635Y-161248646D02*
X248505336Y-161064660D01*
X248505336Y-161064660D02*
X248526683Y-160960342D01*
X248526683Y-160960342D02*
X248560355Y-160902021D01*
X248560355Y-160902021D02*
X248673695Y-160773054D01*
X248673695Y-160773054D02*
X248845356Y-160677758D01*
X248845356Y-160677758D02*
X249213328Y-160579161D01*
X249213328Y-160579161D02*
X249317646Y-160600508D01*
X249317646Y-160600508D02*
X249375967Y-160634180D01*
X249375967Y-160634180D02*
X249446613Y-160713848D01*
X249446613Y-160713848D02*
X249495912Y-160897834D01*
X249495912Y-160897834D02*
X249474565Y-161002151D01*
X249474565Y-161002151D02*
X249440893Y-161060472D01*
X249440893Y-161060472D02*
X249361225Y-161131118D01*
X249361225Y-161131118D02*
X249131242Y-161192742D01*
X249131242Y-161192742D02*
X249026925Y-161171395D01*
X249026925Y-161171395D02*
X248968603Y-161137723D01*
X248968603Y-161137723D02*
X248897958Y-161058055D01*
X248897958Y-161058055D02*
X248848659Y-160874069D01*
X248848659Y-160874069D02*
X248870006Y-160769751D01*
X248870006Y-160769751D02*
X248903677Y-160711430D01*
X248903677Y-160711430D02*
X248983346Y-160640784D01*
X101895266Y-185898195D02*
X100929340Y-185639376D01*
X100929340Y-185639376D02*
X100867717Y-185869359D01*
X100867717Y-185869359D02*
X100876739Y-186019673D01*
X100876739Y-186019673D02*
X100944083Y-186136315D01*
X100944083Y-186136315D02*
X101023751Y-186206961D01*
X101023751Y-186206961D02*
X101195412Y-186302256D01*
X101195412Y-186302256D02*
X101333401Y-186339231D01*
X101333401Y-186339231D02*
X101529712Y-186342533D01*
X101529712Y-186342533D02*
X101634030Y-186321186D01*
X101634030Y-186321186D02*
X101750672Y-186253842D01*
X101750672Y-186253842D02*
X101833643Y-186128178D01*
X101833643Y-186128178D02*
X101895266Y-185898195D01*
X100559599Y-187019270D02*
X100608898Y-186835284D01*
X100608898Y-186835284D02*
X100679544Y-186755616D01*
X100679544Y-186755616D02*
X100737865Y-186721945D01*
X100737865Y-186721945D02*
X100900504Y-186666926D01*
X100900504Y-186666926D02*
X101096814Y-186670228D01*
X101096814Y-186670228D02*
X101464786Y-186768826D01*
X101464786Y-186768826D02*
X101544454Y-186839472D01*
X101544454Y-186839472D02*
X101578126Y-186897793D01*
X101578126Y-186897793D02*
X101599473Y-187002111D01*
X101599473Y-187002111D02*
X101550174Y-187186096D01*
X101550174Y-187186096D02*
X101479528Y-187265765D01*
X101479528Y-187265765D02*
X101421207Y-187299436D01*
X101421207Y-187299436D02*
X101316889Y-187320783D01*
X101316889Y-187320783D02*
X101086907Y-187259160D01*
X101086907Y-187259160D02*
X101007239Y-187188514D01*
X101007239Y-187188514D02*
X100973567Y-187130193D01*
X100973567Y-187130193D02*
X100952220Y-187025875D01*
X100952220Y-187025875D02*
X101001519Y-186841889D01*
X101001519Y-186841889D02*
X101072165Y-186762221D01*
X101072165Y-186762221D02*
X101130486Y-186728549D01*
X101130486Y-186728549D02*
X101234804Y-186707202D01*
X100313105Y-187939200D02*
X100362403Y-187755214D01*
X100362403Y-187755214D02*
X100433049Y-187675546D01*
X100433049Y-187675546D02*
X100491371Y-187641874D01*
X100491371Y-187641874D02*
X100654009Y-187586855D01*
X100654009Y-187586855D02*
X100850320Y-187590158D01*
X100850320Y-187590158D02*
X101218292Y-187688755D01*
X101218292Y-187688755D02*
X101297960Y-187759401D01*
X101297960Y-187759401D02*
X101331632Y-187817722D01*
X101331632Y-187817722D02*
X101352979Y-187922040D01*
X101352979Y-187922040D02*
X101303680Y-188106026D01*
X101303680Y-188106026D02*
X101233034Y-188185694D01*
X101233034Y-188185694D02*
X101174713Y-188219366D01*
X101174713Y-188219366D02*
X101070395Y-188240713D01*
X101070395Y-188240713D02*
X100840413Y-188179089D01*
X100840413Y-188179089D02*
X100760745Y-188108443D01*
X100760745Y-188108443D02*
X100727073Y-188050122D01*
X100727073Y-188050122D02*
X100705726Y-187945805D01*
X100705726Y-187945805D02*
X100755025Y-187761819D01*
X100755025Y-187761819D02*
X100825671Y-187682150D01*
X100825671Y-187682150D02*
X100883992Y-187648479D01*
X100883992Y-187648479D02*
X100988309Y-187627132D01*
X147762953Y-161924752D02*
X146797027Y-161665933D01*
X146797027Y-161665933D02*
X146735404Y-161895916D01*
X146735404Y-161895916D02*
X146744426Y-162046230D01*
X146744426Y-162046230D02*
X146811770Y-162162872D01*
X146811770Y-162162872D02*
X146891438Y-162233518D01*
X146891438Y-162233518D02*
X147063099Y-162328813D01*
X147063099Y-162328813D02*
X147201088Y-162365788D01*
X147201088Y-162365788D02*
X147397399Y-162369090D01*
X147397399Y-162369090D02*
X147501717Y-162347743D01*
X147501717Y-162347743D02*
X147618359Y-162280399D01*
X147618359Y-162280399D02*
X147701330Y-162154735D01*
X147701330Y-162154735D02*
X147762953Y-161924752D01*
X146562858Y-162539866D02*
X146402636Y-163137820D01*
X146402636Y-163137820D02*
X146856881Y-162914443D01*
X146856881Y-162914443D02*
X146819907Y-163052432D01*
X146819907Y-163052432D02*
X146841254Y-163156750D01*
X146841254Y-163156750D02*
X146874926Y-163215071D01*
X146874926Y-163215071D02*
X146954594Y-163285717D01*
X146954594Y-163285717D02*
X147184576Y-163347340D01*
X147184576Y-163347340D02*
X147288894Y-163325993D01*
X147288894Y-163325993D02*
X147347215Y-163292322D01*
X147347215Y-163292322D02*
X147417861Y-163212653D01*
X147417861Y-163212653D02*
X147491809Y-162936675D01*
X147491809Y-162936675D02*
X147470462Y-162832357D01*
X147470462Y-162832357D02*
X147436791Y-162774036D01*
X146316363Y-163459796D02*
X146143817Y-164103746D01*
X146143817Y-164103746D02*
X147220666Y-163948597D01*
X290804554Y-171720378D02*
X291770480Y-171461559D01*
X291770480Y-171461559D02*
X291708857Y-171231577D01*
X291708857Y-171231577D02*
X291625886Y-171105912D01*
X291625886Y-171105912D02*
X291509244Y-171038569D01*
X291509244Y-171038569D02*
X291404926Y-171017222D01*
X291404926Y-171017222D02*
X291208615Y-171020524D01*
X291208615Y-171020524D02*
X291070626Y-171057498D01*
X291070626Y-171057498D02*
X290898965Y-171152794D01*
X290898965Y-171152794D02*
X290819297Y-171223439D01*
X290819297Y-171223439D02*
X290751953Y-171340082D01*
X290751953Y-171340082D02*
X290742931Y-171490396D01*
X290742931Y-171490396D02*
X290804554Y-171720378D01*
X291388414Y-170035669D02*
X291511661Y-170495633D01*
X291511661Y-170495633D02*
X291064021Y-170664877D01*
X291064021Y-170664877D02*
X291097693Y-170606556D01*
X291097693Y-170606556D02*
X291119040Y-170502238D01*
X291119040Y-170502238D02*
X291057416Y-170272256D01*
X291057416Y-170272256D02*
X290986770Y-170192588D01*
X290986770Y-170192588D02*
X290928449Y-170158916D01*
X290928449Y-170158916D02*
X290824132Y-170137569D01*
X290824132Y-170137569D02*
X290594149Y-170199192D01*
X290594149Y-170199192D02*
X290514481Y-170269838D01*
X290514481Y-170269838D02*
X290480809Y-170328160D01*
X290480809Y-170328160D02*
X290459462Y-170432477D01*
X290459462Y-170432477D02*
X290521086Y-170662460D01*
X290521086Y-170662460D02*
X290591732Y-170742128D01*
X290591732Y-170742128D02*
X290650053Y-170775800D01*
X291289816Y-169667697D02*
X291117270Y-169023746D01*
X291117270Y-169023746D02*
X290262267Y-169696534D01*
X344787532Y-152158643D02*
X345753458Y-151899824D01*
X345753458Y-151899824D02*
X345691835Y-151669842D01*
X345691835Y-151669842D02*
X345608864Y-151544177D01*
X345608864Y-151544177D02*
X345492222Y-151476834D01*
X345492222Y-151476834D02*
X345387904Y-151455487D01*
X345387904Y-151455487D02*
X345191593Y-151458789D01*
X345191593Y-151458789D02*
X345053604Y-151495763D01*
X345053604Y-151495763D02*
X344881943Y-151591059D01*
X344881943Y-151591059D02*
X344802275Y-151661704D01*
X344802275Y-151661704D02*
X344734931Y-151778347D01*
X344734931Y-151778347D02*
X344725909Y-151928661D01*
X344725909Y-151928661D02*
X344787532Y-152158643D01*
X345061741Y-150606203D02*
X344417791Y-150778749D01*
X345491337Y-150737588D02*
X344863013Y-151152441D01*
X344863013Y-151152441D02*
X344702792Y-150554487D01*
X344815247Y-149686274D02*
X344171296Y-149858820D01*
X345244842Y-149817658D02*
X344616519Y-150232512D01*
X344616519Y-150232512D02*
X344456298Y-149634557D01*
X272006381Y-175192719D02*
X272972307Y-174933900D01*
X272972307Y-174933900D02*
X272910684Y-174703918D01*
X272910684Y-174703918D02*
X272827713Y-174578253D01*
X272827713Y-174578253D02*
X272711071Y-174510910D01*
X272711071Y-174510910D02*
X272606753Y-174489563D01*
X272606753Y-174489563D02*
X272410442Y-174492865D01*
X272410442Y-174492865D02*
X272272453Y-174529839D01*
X272272453Y-174529839D02*
X272100792Y-174625135D01*
X272100792Y-174625135D02*
X272021124Y-174695780D01*
X272021124Y-174695780D02*
X271953780Y-174812423D01*
X271953780Y-174812423D02*
X271944758Y-174962737D01*
X271944758Y-174962737D02*
X272006381Y-175192719D01*
X272590241Y-173508010D02*
X272713488Y-173967974D01*
X272713488Y-173967974D02*
X272265848Y-174137218D01*
X272265848Y-174137218D02*
X272299520Y-174078897D01*
X272299520Y-174078897D02*
X272320867Y-173974579D01*
X272320867Y-173974579D02*
X272259243Y-173744597D01*
X272259243Y-173744597D02*
X272188597Y-173664929D01*
X272188597Y-173664929D02*
X272130276Y-173631257D01*
X272130276Y-173631257D02*
X272025959Y-173609910D01*
X272025959Y-173609910D02*
X271795976Y-173671533D01*
X271795976Y-173671533D02*
X271716308Y-173742179D01*
X271716308Y-173742179D02*
X271682636Y-173800501D01*
X271682636Y-173800501D02*
X271661289Y-173904818D01*
X271661289Y-173904818D02*
X271722913Y-174134801D01*
X271722913Y-174134801D02*
X271793559Y-174214469D01*
X271793559Y-174214469D02*
X271851880Y-174248141D01*
X272356071Y-172634077D02*
X272405370Y-172818063D01*
X272405370Y-172818063D02*
X272384023Y-172922380D01*
X272384023Y-172922380D02*
X272350351Y-172980702D01*
X272350351Y-172980702D02*
X272237011Y-173109669D01*
X272237011Y-173109669D02*
X272065350Y-173204964D01*
X272065350Y-173204964D02*
X271697379Y-173303562D01*
X271697379Y-173303562D02*
X271593061Y-173282215D01*
X271593061Y-173282215D02*
X271534740Y-173248543D01*
X271534740Y-173248543D02*
X271464094Y-173168875D01*
X271464094Y-173168875D02*
X271414795Y-172984889D01*
X271414795Y-172984889D02*
X271436142Y-172880571D01*
X271436142Y-172880571D02*
X271469814Y-172822250D01*
X271469814Y-172822250D02*
X271549482Y-172751604D01*
X271549482Y-172751604D02*
X271779464Y-172689980D01*
X271779464Y-172689980D02*
X271883782Y-172711328D01*
X271883782Y-172711328D02*
X271942103Y-172744999D01*
X271942103Y-172744999D02*
X272012749Y-172824667D01*
X272012749Y-172824667D02*
X272062048Y-173008653D01*
X272062048Y-173008653D02*
X272040701Y-173112971D01*
X272040701Y-173112971D02*
X272007029Y-173171292D01*
X272007029Y-173171292D02*
X271927361Y-173241938D01*
X129756506Y-155522183D02*
X128790580Y-155263364D01*
X128790580Y-155263364D02*
X128728957Y-155493347D01*
X128728957Y-155493347D02*
X128737979Y-155643661D01*
X128737979Y-155643661D02*
X128805323Y-155760303D01*
X128805323Y-155760303D02*
X128884991Y-155830949D01*
X128884991Y-155830949D02*
X129056652Y-155926244D01*
X129056652Y-155926244D02*
X129194641Y-155963219D01*
X129194641Y-155963219D02*
X129390952Y-155966521D01*
X129390952Y-155966521D02*
X129495270Y-155945174D01*
X129495270Y-155945174D02*
X129611912Y-155877830D01*
X129611912Y-155877830D02*
X129694883Y-155752166D01*
X129694883Y-155752166D02*
X129756506Y-155522183D01*
X128556411Y-156137297D02*
X128396189Y-156735251D01*
X128396189Y-156735251D02*
X128850434Y-156511874D01*
X128850434Y-156511874D02*
X128813460Y-156649863D01*
X128813460Y-156649863D02*
X128834807Y-156754181D01*
X128834807Y-156754181D02*
X128868479Y-156812502D01*
X128868479Y-156812502D02*
X128948147Y-156883148D01*
X128948147Y-156883148D02*
X129178129Y-156944771D01*
X129178129Y-156944771D02*
X129282447Y-156923424D01*
X129282447Y-156923424D02*
X129340768Y-156889753D01*
X129340768Y-156889753D02*
X129411414Y-156810084D01*
X129411414Y-156810084D02*
X129485362Y-156534106D01*
X129485362Y-156534106D02*
X129464015Y-156429788D01*
X129464015Y-156429788D02*
X129430344Y-156371467D01*
X128174345Y-157563188D02*
X128223643Y-157379202D01*
X128223643Y-157379202D02*
X128294289Y-157299534D01*
X128294289Y-157299534D02*
X128352611Y-157265862D01*
X128352611Y-157265862D02*
X128515249Y-157210843D01*
X128515249Y-157210843D02*
X128711560Y-157214146D01*
X128711560Y-157214146D02*
X129079532Y-157312743D01*
X129079532Y-157312743D02*
X129159200Y-157383389D01*
X129159200Y-157383389D02*
X129192872Y-157441710D01*
X129192872Y-157441710D02*
X129214219Y-157546028D01*
X129214219Y-157546028D02*
X129164920Y-157730014D01*
X129164920Y-157730014D02*
X129094274Y-157809682D01*
X129094274Y-157809682D02*
X129035953Y-157843354D01*
X129035953Y-157843354D02*
X128931635Y-157864701D01*
X128931635Y-157864701D02*
X128701653Y-157803077D01*
X128701653Y-157803077D02*
X128621985Y-157732431D01*
X128621985Y-157732431D02*
X128588313Y-157674110D01*
X128588313Y-157674110D02*
X128566966Y-157569793D01*
X128566966Y-157569793D02*
X128616265Y-157385807D01*
X128616265Y-157385807D02*
X128686911Y-157306138D01*
X128686911Y-157306138D02*
X128745232Y-157272467D01*
X128745232Y-157272467D02*
X128849549Y-157251120D01*
X34114185Y-144543024D02*
X33148259Y-144284205D01*
X33148259Y-144284205D02*
X33086636Y-144514188D01*
X33086636Y-144514188D02*
X33095658Y-144664502D01*
X33095658Y-144664502D02*
X33163002Y-144781144D01*
X33163002Y-144781144D02*
X33242670Y-144851790D01*
X33242670Y-144851790D02*
X33414331Y-144947085D01*
X33414331Y-144947085D02*
X33552320Y-144984060D01*
X33552320Y-144984060D02*
X33748631Y-144987362D01*
X33748631Y-144987362D02*
X33852949Y-144966015D01*
X33852949Y-144966015D02*
X33969591Y-144898671D01*
X33969591Y-144898671D02*
X34052562Y-144773007D01*
X34052562Y-144773007D02*
X34114185Y-144543024D01*
X32914090Y-145158138D02*
X32753868Y-145756092D01*
X32753868Y-145756092D02*
X33208113Y-145532715D01*
X33208113Y-145532715D02*
X33171139Y-145670704D01*
X33171139Y-145670704D02*
X33192486Y-145775022D01*
X33192486Y-145775022D02*
X33226158Y-145833343D01*
X33226158Y-145833343D02*
X33305826Y-145903989D01*
X33305826Y-145903989D02*
X33535808Y-145965612D01*
X33535808Y-145965612D02*
X33640126Y-145944265D01*
X33640126Y-145944265D02*
X33698447Y-145910594D01*
X33698447Y-145910594D02*
X33769093Y-145830925D01*
X33769093Y-145830925D02*
X33843041Y-145554947D01*
X33843041Y-145554947D02*
X33821694Y-145450629D01*
X33821694Y-145450629D02*
X33788023Y-145392308D01*
X32747264Y-146148714D02*
X32688943Y-146182385D01*
X32688943Y-146182385D02*
X32618297Y-146262053D01*
X32618297Y-146262053D02*
X32556673Y-146492036D01*
X32556673Y-146492036D02*
X32578020Y-146596353D01*
X32578020Y-146596353D02*
X32611692Y-146654675D01*
X32611692Y-146654675D02*
X32691360Y-146725321D01*
X32691360Y-146725321D02*
X32783353Y-146749970D01*
X32783353Y-146749970D02*
X32933667Y-146740948D01*
X32933667Y-146740948D02*
X33633521Y-146336887D01*
X33633521Y-146336887D02*
X33473300Y-146934841D01*
X116671136Y-130729343D02*
X115705210Y-130470524D01*
X115705210Y-130470524D02*
X115643587Y-130700507D01*
X115643587Y-130700507D02*
X115652609Y-130850821D01*
X115652609Y-130850821D02*
X115719953Y-130967463D01*
X115719953Y-130967463D02*
X115799621Y-131038109D01*
X115799621Y-131038109D02*
X115971282Y-131133404D01*
X115971282Y-131133404D02*
X116109271Y-131170379D01*
X116109271Y-131170379D02*
X116305582Y-131173681D01*
X116305582Y-131173681D02*
X116409900Y-131152334D01*
X116409900Y-131152334D02*
X116526542Y-131084990D01*
X116526542Y-131084990D02*
X116609513Y-130959326D01*
X116609513Y-130959326D02*
X116671136Y-130729343D01*
X116276745Y-132201230D02*
X116424642Y-131649273D01*
X116350694Y-131925252D02*
X115384768Y-131666432D01*
X115384768Y-131666432D02*
X115547407Y-131611414D01*
X115547407Y-131611414D02*
X115664049Y-131544070D01*
X115664049Y-131544070D02*
X115734695Y-131464402D01*
X116153498Y-132661195D02*
X116104199Y-132845181D01*
X116104199Y-132845181D02*
X116033553Y-132924849D01*
X116033553Y-132924849D02*
X115975232Y-132958521D01*
X115975232Y-132958521D02*
X115812593Y-133013540D01*
X115812593Y-133013540D02*
X115616283Y-133010237D01*
X115616283Y-133010237D02*
X115248311Y-132911640D01*
X115248311Y-132911640D02*
X115168643Y-132840994D01*
X115168643Y-132840994D02*
X115134971Y-132782672D01*
X115134971Y-132782672D02*
X115113624Y-132678355D01*
X115113624Y-132678355D02*
X115162923Y-132494369D01*
X115162923Y-132494369D02*
X115233569Y-132414701D01*
X115233569Y-132414701D02*
X115291890Y-132381029D01*
X115291890Y-132381029D02*
X115396208Y-132359682D01*
X115396208Y-132359682D02*
X115626190Y-132421306D01*
X115626190Y-132421306D02*
X115705858Y-132491951D01*
X115705858Y-132491951D02*
X115739530Y-132550273D01*
X115739530Y-132550273D02*
X115760877Y-132654590D01*
X115760877Y-132654590D02*
X115711578Y-132838576D01*
X115711578Y-132838576D02*
X115640932Y-132918244D01*
X115640932Y-132918244D02*
X115582611Y-132951916D01*
X115582611Y-132951916D02*
X115478293Y-132973263D01*
X314924817Y-188134907D02*
X315890743Y-187876088D01*
X315890743Y-187876088D02*
X315829120Y-187646106D01*
X315829120Y-187646106D02*
X315746149Y-187520441D01*
X315746149Y-187520441D02*
X315629507Y-187453098D01*
X315629507Y-187453098D02*
X315525189Y-187431751D01*
X315525189Y-187431751D02*
X315328878Y-187435053D01*
X315328878Y-187435053D02*
X315190889Y-187472027D01*
X315190889Y-187472027D02*
X315019228Y-187567323D01*
X315019228Y-187567323D02*
X314939560Y-187637968D01*
X314939560Y-187637968D02*
X314872216Y-187754611D01*
X314872216Y-187754611D02*
X314863194Y-187904925D01*
X314863194Y-187904925D02*
X314924817Y-188134907D01*
X315656574Y-187002155D02*
X315484028Y-186358205D01*
X315484028Y-186358205D02*
X314629024Y-187030992D01*
X315262183Y-185530268D02*
X315385430Y-185990233D01*
X315385430Y-185990233D02*
X314937790Y-186159477D01*
X314937790Y-186159477D02*
X314971462Y-186101155D01*
X314971462Y-186101155D02*
X314992809Y-185996838D01*
X314992809Y-185996838D02*
X314931185Y-185766855D01*
X314931185Y-185766855D02*
X314860539Y-185687187D01*
X314860539Y-185687187D02*
X314802218Y-185653516D01*
X314802218Y-185653516D02*
X314697900Y-185632168D01*
X314697900Y-185632168D02*
X314467918Y-185693792D01*
X314467918Y-185693792D02*
X314388250Y-185764438D01*
X314388250Y-185764438D02*
X314354578Y-185822759D01*
X314354578Y-185822759D02*
X314333231Y-185927077D01*
X314333231Y-185927077D02*
X314394854Y-186157059D01*
X314394854Y-186157059D02*
X314465500Y-186236727D01*
X314465500Y-186236727D02*
X314523822Y-186270399D01*
X139511938Y-119210989D02*
X138546012Y-118952169D01*
X138546012Y-118952169D02*
X138484389Y-119182152D01*
X138484389Y-119182152D02*
X138493411Y-119332466D01*
X138493411Y-119332466D02*
X138560754Y-119449108D01*
X138560754Y-119449108D02*
X138640423Y-119519754D01*
X138640423Y-119519754D02*
X138812084Y-119615050D01*
X138812084Y-119615050D02*
X138950073Y-119652024D01*
X138950073Y-119652024D02*
X139146384Y-119655326D01*
X139146384Y-119655326D02*
X139250701Y-119633979D01*
X139250701Y-119633979D02*
X139367344Y-119566636D01*
X139367344Y-119566636D02*
X139450314Y-119440971D01*
X139450314Y-119440971D02*
X139511938Y-119210989D01*
X138498246Y-120418337D02*
X139142196Y-120590883D01*
X138191898Y-120089756D02*
X138943468Y-120044645D01*
X138943468Y-120044645D02*
X138783247Y-120642599D01*
X163758089Y-176123407D02*
X162792163Y-175864588D01*
X162792163Y-175864588D02*
X162730540Y-176094571D01*
X162730540Y-176094571D02*
X162739562Y-176244885D01*
X162739562Y-176244885D02*
X162806906Y-176361527D01*
X162806906Y-176361527D02*
X162886574Y-176432173D01*
X162886574Y-176432173D02*
X163058235Y-176527468D01*
X163058235Y-176527468D02*
X163196224Y-176564443D01*
X163196224Y-176564443D02*
X163392535Y-176567745D01*
X163392535Y-176567745D02*
X163496853Y-176546398D01*
X163496853Y-176546398D02*
X163613495Y-176479054D01*
X163613495Y-176479054D02*
X163696466Y-176353390D01*
X163696466Y-176353390D02*
X163758089Y-176123407D01*
X162557994Y-176738521D02*
X162397772Y-177336475D01*
X162397772Y-177336475D02*
X162852017Y-177113098D01*
X162852017Y-177113098D02*
X162815043Y-177251087D01*
X162815043Y-177251087D02*
X162836390Y-177355405D01*
X162836390Y-177355405D02*
X162870062Y-177413726D01*
X162870062Y-177413726D02*
X162949730Y-177484372D01*
X162949730Y-177484372D02*
X163179712Y-177545995D01*
X163179712Y-177545995D02*
X163284030Y-177524648D01*
X163284030Y-177524648D02*
X163342351Y-177490977D01*
X163342351Y-177490977D02*
X163412997Y-177411308D01*
X163412997Y-177411308D02*
X163486945Y-177135330D01*
X163486945Y-177135330D02*
X163465598Y-177031012D01*
X163465598Y-177031012D02*
X163431927Y-176972691D01*
X162391168Y-177729097D02*
X162332847Y-177762768D01*
X162332847Y-177762768D02*
X162262201Y-177842436D01*
X162262201Y-177842436D02*
X162200577Y-178072419D01*
X162200577Y-178072419D02*
X162221924Y-178176736D01*
X162221924Y-178176736D02*
X162255596Y-178235058D01*
X162255596Y-178235058D02*
X162335264Y-178305704D01*
X162335264Y-178305704D02*
X162427257Y-178330353D01*
X162427257Y-178330353D02*
X162577571Y-178321331D01*
X162577571Y-178321331D02*
X163277425Y-177917270D01*
X163277425Y-177917270D02*
X163117204Y-178515224D01*
X244141770Y-144779605D02*
X245107696Y-144520786D01*
X245107696Y-144520786D02*
X245046073Y-144290804D01*
X245046073Y-144290804D02*
X244963102Y-144165139D01*
X244963102Y-144165139D02*
X244846460Y-144097796D01*
X244846460Y-144097796D02*
X244742142Y-144076449D01*
X244742142Y-144076449D02*
X244545831Y-144079751D01*
X244545831Y-144079751D02*
X244407842Y-144116725D01*
X244407842Y-144116725D02*
X244236181Y-144212021D01*
X244236181Y-144212021D02*
X244156513Y-144282666D01*
X244156513Y-144282666D02*
X244089169Y-144399309D01*
X244089169Y-144399309D02*
X244080147Y-144549623D01*
X244080147Y-144549623D02*
X244141770Y-144779605D01*
X244769209Y-143625506D02*
X244802881Y-143567185D01*
X244802881Y-143567185D02*
X244824228Y-143462868D01*
X244824228Y-143462868D02*
X244762604Y-143232885D01*
X244762604Y-143232885D02*
X244691958Y-143153217D01*
X244691958Y-143153217D02*
X244633637Y-143119545D01*
X244633637Y-143119545D02*
X244529319Y-143098198D01*
X244529319Y-143098198D02*
X244437326Y-143122848D01*
X244437326Y-143122848D02*
X244311662Y-143205818D01*
X244311662Y-143205818D02*
X243907601Y-143905672D01*
X243907601Y-143905672D02*
X243747379Y-143307718D01*
X244627032Y-142726924D02*
X244466811Y-142128970D01*
X244466811Y-142128970D02*
X244185112Y-142549543D01*
X244185112Y-142549543D02*
X244148138Y-142411553D01*
X244148138Y-142411553D02*
X244077492Y-142331885D01*
X244077492Y-142331885D02*
X244019171Y-142298214D01*
X244019171Y-142298214D02*
X243914853Y-142276866D01*
X243914853Y-142276866D02*
X243684871Y-142338490D01*
X243684871Y-142338490D02*
X243605203Y-142409136D01*
X243605203Y-142409136D02*
X243571531Y-142467457D01*
X243571531Y-142467457D02*
X243550184Y-142571775D01*
X243550184Y-142571775D02*
X243624132Y-142847754D01*
X243624132Y-142847754D02*
X243694778Y-142927422D01*
X243694778Y-142927422D02*
X243753099Y-142961094D01*
X254024861Y-181553088D02*
X254990787Y-181294269D01*
X254990787Y-181294269D02*
X254929164Y-181064287D01*
X254929164Y-181064287D02*
X254846193Y-180938622D01*
X254846193Y-180938622D02*
X254729551Y-180871279D01*
X254729551Y-180871279D02*
X254625233Y-180849932D01*
X254625233Y-180849932D02*
X254428922Y-180853234D01*
X254428922Y-180853234D02*
X254290933Y-180890208D01*
X254290933Y-180890208D02*
X254119272Y-180985504D01*
X254119272Y-180985504D02*
X254039604Y-181056149D01*
X254039604Y-181056149D02*
X253972260Y-181172792D01*
X253972260Y-181172792D02*
X253963238Y-181323106D01*
X253963238Y-181323106D02*
X254024861Y-181553088D01*
X254608721Y-179868379D02*
X254731968Y-180328343D01*
X254731968Y-180328343D02*
X254284328Y-180497587D01*
X254284328Y-180497587D02*
X254318000Y-180439266D01*
X254318000Y-180439266D02*
X254339347Y-180334948D01*
X254339347Y-180334948D02*
X254277723Y-180104966D01*
X254277723Y-180104966D02*
X254207077Y-180025298D01*
X254207077Y-180025298D02*
X254148756Y-179991626D01*
X254148756Y-179991626D02*
X254044439Y-179970279D01*
X254044439Y-179970279D02*
X253814456Y-180031902D01*
X253814456Y-180031902D02*
X253734788Y-180102548D01*
X253734788Y-180102548D02*
X253701116Y-180160870D01*
X253701116Y-180160870D02*
X253679769Y-180265187D01*
X253679769Y-180265187D02*
X253741393Y-180495170D01*
X253741393Y-180495170D02*
X253812039Y-180574838D01*
X253812039Y-180574838D02*
X253870360Y-180608510D01*
X254362227Y-178948449D02*
X254485474Y-179408414D01*
X254485474Y-179408414D02*
X254037834Y-179577658D01*
X254037834Y-179577658D02*
X254071506Y-179519336D01*
X254071506Y-179519336D02*
X254092853Y-179415019D01*
X254092853Y-179415019D02*
X254031229Y-179185036D01*
X254031229Y-179185036D02*
X253960583Y-179105368D01*
X253960583Y-179105368D02*
X253902262Y-179071697D01*
X253902262Y-179071697D02*
X253797944Y-179050349D01*
X253797944Y-179050349D02*
X253567962Y-179111973D01*
X253567962Y-179111973D02*
X253488294Y-179182619D01*
X253488294Y-179182619D02*
X253454622Y-179240940D01*
X253454622Y-179240940D02*
X253433275Y-179345258D01*
X253433275Y-179345258D02*
X253494898Y-179575240D01*
X253494898Y-179575240D02*
X253565544Y-179654908D01*
X253565544Y-179654908D02*
X253623866Y-179688580D01*
X280943545Y-134918602D02*
X281909471Y-134659783D01*
X281909471Y-134659783D02*
X281847848Y-134429801D01*
X281847848Y-134429801D02*
X281764877Y-134304136D01*
X281764877Y-134304136D02*
X281648235Y-134236793D01*
X281648235Y-134236793D02*
X281543917Y-134215446D01*
X281543917Y-134215446D02*
X281347606Y-134218748D01*
X281347606Y-134218748D02*
X281209617Y-134255722D01*
X281209617Y-134255722D02*
X281037956Y-134351018D01*
X281037956Y-134351018D02*
X280958288Y-134421663D01*
X280958288Y-134421663D02*
X280890944Y-134538306D01*
X280890944Y-134538306D02*
X280881922Y-134688620D01*
X280881922Y-134688620D02*
X280943545Y-134918602D01*
X281570984Y-133764503D02*
X281604656Y-133706182D01*
X281604656Y-133706182D02*
X281626003Y-133601865D01*
X281626003Y-133601865D02*
X281564379Y-133371882D01*
X281564379Y-133371882D02*
X281493733Y-133292214D01*
X281493733Y-133292214D02*
X281435412Y-133258542D01*
X281435412Y-133258542D02*
X281331094Y-133237195D01*
X281331094Y-133237195D02*
X281239101Y-133261845D01*
X281239101Y-133261845D02*
X281113437Y-133344815D01*
X281113437Y-133344815D02*
X280709376Y-134044669D01*
X280709376Y-134044669D02*
X280549154Y-133446715D01*
X281280911Y-132313963D02*
X281404158Y-132773928D01*
X281404158Y-132773928D02*
X280956518Y-132943172D01*
X280956518Y-132943172D02*
X280990190Y-132884850D01*
X280990190Y-132884850D02*
X281011537Y-132780533D01*
X281011537Y-132780533D02*
X280949913Y-132550550D01*
X280949913Y-132550550D02*
X280879267Y-132470882D01*
X280879267Y-132470882D02*
X280820946Y-132437211D01*
X280820946Y-132437211D02*
X280716628Y-132415863D01*
X280716628Y-132415863D02*
X280486646Y-132477487D01*
X280486646Y-132477487D02*
X280406978Y-132548133D01*
X280406978Y-132548133D02*
X280373306Y-132606454D01*
X280373306Y-132606454D02*
X280351959Y-132710772D01*
X280351959Y-132710772D02*
X280413582Y-132940754D01*
X280413582Y-132940754D02*
X280484228Y-133020422D01*
X280484228Y-133020422D02*
X280542550Y-133054094D01*
X83099935Y-182439760D02*
X82134009Y-182180941D01*
X82134009Y-182180941D02*
X82072386Y-182410924D01*
X82072386Y-182410924D02*
X82081408Y-182561238D01*
X82081408Y-182561238D02*
X82148752Y-182677880D01*
X82148752Y-182677880D02*
X82228420Y-182748526D01*
X82228420Y-182748526D02*
X82400081Y-182843821D01*
X82400081Y-182843821D02*
X82538070Y-182880796D01*
X82538070Y-182880796D02*
X82734381Y-182884098D01*
X82734381Y-182884098D02*
X82838699Y-182862751D01*
X82838699Y-182862751D02*
X82955341Y-182795407D01*
X82955341Y-182795407D02*
X83038312Y-182669743D01*
X83038312Y-182669743D02*
X83099935Y-182439760D01*
X81764268Y-183560835D02*
X81813567Y-183376849D01*
X81813567Y-183376849D02*
X81884213Y-183297181D01*
X81884213Y-183297181D02*
X81942534Y-183263510D01*
X81942534Y-183263510D02*
X82105173Y-183208491D01*
X82105173Y-183208491D02*
X82301483Y-183211793D01*
X82301483Y-183211793D02*
X82669455Y-183310391D01*
X82669455Y-183310391D02*
X82749123Y-183381037D01*
X82749123Y-183381037D02*
X82782795Y-183439358D01*
X82782795Y-183439358D02*
X82804142Y-183543676D01*
X82804142Y-183543676D02*
X82754843Y-183727661D01*
X82754843Y-183727661D02*
X82684197Y-183807330D01*
X82684197Y-183807330D02*
X82625876Y-183841001D01*
X82625876Y-183841001D02*
X82521558Y-183862348D01*
X82521558Y-183862348D02*
X82291576Y-183800725D01*
X82291576Y-183800725D02*
X82211908Y-183730079D01*
X82211908Y-183730079D02*
X82178236Y-183671758D01*
X82178236Y-183671758D02*
X82156889Y-183567440D01*
X82156889Y-183567440D02*
X82206188Y-183383454D01*
X82206188Y-183383454D02*
X82276834Y-183303786D01*
X82276834Y-183303786D02*
X82335155Y-183270114D01*
X82335155Y-183270114D02*
X82439473Y-183248767D01*
X81505449Y-184526761D02*
X81628696Y-184066797D01*
X81628696Y-184066797D02*
X82100985Y-184144047D01*
X82100985Y-184144047D02*
X82042664Y-184177719D01*
X82042664Y-184177719D02*
X81972018Y-184257387D01*
X81972018Y-184257387D02*
X81910395Y-184487370D01*
X81910395Y-184487370D02*
X81931742Y-184591687D01*
X81931742Y-184591687D02*
X81965414Y-184650008D01*
X81965414Y-184650008D02*
X82045082Y-184720654D01*
X82045082Y-184720654D02*
X82275064Y-184782278D01*
X82275064Y-184782278D02*
X82379382Y-184760931D01*
X82379382Y-184760931D02*
X82437703Y-184727259D01*
X82437703Y-184727259D02*
X82508349Y-184647591D01*
X82508349Y-184647591D02*
X82569972Y-184417609D01*
X82569972Y-184417609D02*
X82548625Y-184313291D01*
X82548625Y-184313291D02*
X82514954Y-184254970D01*
X119901710Y-192300767D02*
X118935784Y-192041948D01*
X118935784Y-192041948D02*
X118874161Y-192271931D01*
X118874161Y-192271931D02*
X118883183Y-192422245D01*
X118883183Y-192422245D02*
X118950527Y-192538887D01*
X118950527Y-192538887D02*
X119030195Y-192609533D01*
X119030195Y-192609533D02*
X119201856Y-192704828D01*
X119201856Y-192704828D02*
X119339845Y-192741803D01*
X119339845Y-192741803D02*
X119536156Y-192745105D01*
X119536156Y-192745105D02*
X119640474Y-192723758D01*
X119640474Y-192723758D02*
X119757116Y-192656414D01*
X119757116Y-192656414D02*
X119840087Y-192530750D01*
X119840087Y-192530750D02*
X119901710Y-192300767D01*
X118566043Y-193421842D02*
X118615342Y-193237856D01*
X118615342Y-193237856D02*
X118685988Y-193158188D01*
X118685988Y-193158188D02*
X118744309Y-193124517D01*
X118744309Y-193124517D02*
X118906948Y-193069498D01*
X118906948Y-193069498D02*
X119103258Y-193072800D01*
X119103258Y-193072800D02*
X119471230Y-193171398D01*
X119471230Y-193171398D02*
X119550898Y-193242044D01*
X119550898Y-193242044D02*
X119584570Y-193300365D01*
X119584570Y-193300365D02*
X119605917Y-193404683D01*
X119605917Y-193404683D02*
X119556618Y-193588668D01*
X119556618Y-193588668D02*
X119485972Y-193668337D01*
X119485972Y-193668337D02*
X119427651Y-193702008D01*
X119427651Y-193702008D02*
X119323333Y-193723355D01*
X119323333Y-193723355D02*
X119093351Y-193661732D01*
X119093351Y-193661732D02*
X119013683Y-193591086D01*
X119013683Y-193591086D02*
X118980011Y-193532765D01*
X118980011Y-193532765D02*
X118958664Y-193428447D01*
X118958664Y-193428447D02*
X119007963Y-193244461D01*
X119007963Y-193244461D02*
X119078609Y-193164793D01*
X119078609Y-193164793D02*
X119136930Y-193131121D01*
X119136930Y-193131121D02*
X119241248Y-193109774D01*
X118455120Y-193835811D02*
X118282574Y-194479761D01*
X118282574Y-194479761D02*
X119359423Y-194324612D01*
X267075873Y-156791831D02*
X268041799Y-156533012D01*
X268041799Y-156533012D02*
X267980176Y-156303030D01*
X267980176Y-156303030D02*
X267897205Y-156177365D01*
X267897205Y-156177365D02*
X267780563Y-156110022D01*
X267780563Y-156110022D02*
X267676245Y-156088675D01*
X267676245Y-156088675D02*
X267479934Y-156091977D01*
X267479934Y-156091977D02*
X267341945Y-156128951D01*
X267341945Y-156128951D02*
X267170284Y-156224247D01*
X267170284Y-156224247D02*
X267090616Y-156294892D01*
X267090616Y-156294892D02*
X267023272Y-156411535D01*
X267023272Y-156411535D02*
X267014250Y-156561849D01*
X267014250Y-156561849D02*
X267075873Y-156791831D01*
X267350082Y-155239391D02*
X266706132Y-155411937D01*
X267779678Y-155370776D02*
X267151354Y-155785629D01*
X267151354Y-155785629D02*
X266991133Y-155187675D01*
X267487187Y-154463171D02*
X267462537Y-154371178D01*
X267462537Y-154371178D02*
X267391892Y-154291510D01*
X267391892Y-154291510D02*
X267333570Y-154257838D01*
X267333570Y-154257838D02*
X267229253Y-154236491D01*
X267229253Y-154236491D02*
X267032942Y-154239794D01*
X267032942Y-154239794D02*
X266802960Y-154301417D01*
X266802960Y-154301417D02*
X266631299Y-154396713D01*
X266631299Y-154396713D02*
X266551630Y-154467358D01*
X266551630Y-154467358D02*
X266517959Y-154525680D01*
X266517959Y-154525680D02*
X266496612Y-154629997D01*
X266496612Y-154629997D02*
X266521261Y-154721990D01*
X266521261Y-154721990D02*
X266591907Y-154801658D01*
X266591907Y-154801658D02*
X266650228Y-154835330D01*
X266650228Y-154835330D02*
X266754546Y-154856677D01*
X266754546Y-154856677D02*
X266950856Y-154853375D01*
X266950856Y-154853375D02*
X267180839Y-154791751D01*
X267180839Y-154791751D02*
X267352500Y-154696456D01*
X267352500Y-154696456D02*
X267432168Y-154625810D01*
X267432168Y-154625810D02*
X267465840Y-154567489D01*
X267465840Y-154567489D02*
X267487187Y-154463171D01*
X68810051Y-162070194D02*
X67844125Y-161811375D01*
X67844125Y-161811375D02*
X67782502Y-162041358D01*
X67782502Y-162041358D02*
X67791524Y-162191672D01*
X67791524Y-162191672D02*
X67858868Y-162308314D01*
X67858868Y-162308314D02*
X67938536Y-162378960D01*
X67938536Y-162378960D02*
X68110197Y-162474255D01*
X68110197Y-162474255D02*
X68248186Y-162511230D01*
X68248186Y-162511230D02*
X68444497Y-162514532D01*
X68444497Y-162514532D02*
X68548815Y-162493185D01*
X68548815Y-162493185D02*
X68665457Y-162425841D01*
X68665457Y-162425841D02*
X68748428Y-162300177D01*
X68748428Y-162300177D02*
X68810051Y-162070194D01*
X67796359Y-163277542D02*
X68440310Y-163450088D01*
X67490011Y-162948962D02*
X68241582Y-162903851D01*
X68241582Y-162903851D02*
X68081360Y-163501805D01*
X68292413Y-164002046D02*
X68243114Y-164186032D01*
X68243114Y-164186032D02*
X68172468Y-164265700D01*
X68172468Y-164265700D02*
X68114147Y-164299372D01*
X68114147Y-164299372D02*
X67951508Y-164354391D01*
X67951508Y-164354391D02*
X67755198Y-164351088D01*
X67755198Y-164351088D02*
X67387226Y-164252491D01*
X67387226Y-164252491D02*
X67307558Y-164181845D01*
X67307558Y-164181845D02*
X67273886Y-164123523D01*
X67273886Y-164123523D02*
X67252539Y-164019206D01*
X67252539Y-164019206D02*
X67301838Y-163835220D01*
X67301838Y-163835220D02*
X67372484Y-163755552D01*
X67372484Y-163755552D02*
X67430805Y-163721880D01*
X67430805Y-163721880D02*
X67535123Y-163700533D01*
X67535123Y-163700533D02*
X67765105Y-163762157D01*
X67765105Y-163762157D02*
X67844773Y-163832802D01*
X67844773Y-163832802D02*
X67878445Y-163891124D01*
X67878445Y-163891124D02*
X67899792Y-163995441D01*
X67899792Y-163995441D02*
X67850493Y-164179427D01*
X67850493Y-164179427D02*
X67779847Y-164259095D01*
X67779847Y-164259095D02*
X67721526Y-164292767D01*
X67721526Y-164292767D02*
X67617208Y-164314114D01*
X121496073Y-112819039D02*
X120530147Y-112560219D01*
X120530147Y-112560219D02*
X120468524Y-112790202D01*
X120468524Y-112790202D02*
X120477546Y-112940516D01*
X120477546Y-112940516D02*
X120544889Y-113057158D01*
X120544889Y-113057158D02*
X120624558Y-113127804D01*
X120624558Y-113127804D02*
X120796219Y-113223100D01*
X120796219Y-113223100D02*
X120934208Y-113260074D01*
X120934208Y-113260074D02*
X121130519Y-113263376D01*
X121130519Y-113263376D02*
X121234836Y-113242029D01*
X121234836Y-113242029D02*
X121351479Y-113174686D01*
X121351479Y-113174686D02*
X121434449Y-113049021D01*
X121434449Y-113049021D02*
X121496073Y-112819039D01*
X120295978Y-113434152D02*
X120135756Y-114032106D01*
X120135756Y-114032106D02*
X120590001Y-113808729D01*
X120590001Y-113808729D02*
X120553027Y-113946718D01*
X120553027Y-113946718D02*
X120574374Y-114051036D01*
X120574374Y-114051036D02*
X120608046Y-114109357D01*
X120608046Y-114109357D02*
X120687714Y-114180003D01*
X120687714Y-114180003D02*
X120917696Y-114241627D01*
X120917696Y-114241627D02*
X121022014Y-114220280D01*
X121022014Y-114220280D02*
X121080335Y-114186608D01*
X121080335Y-114186608D02*
X121150981Y-114106940D01*
X121150981Y-114106940D02*
X121224929Y-113830961D01*
X121224929Y-113830961D02*
X121203582Y-113726643D01*
X121203582Y-113726643D02*
X121169910Y-113668322D01*
X59896592Y-121804197D02*
X58930666Y-121545378D01*
X58930666Y-121545378D02*
X58869043Y-121775361D01*
X58869043Y-121775361D02*
X58878065Y-121925675D01*
X58878065Y-121925675D02*
X58945409Y-122042317D01*
X58945409Y-122042317D02*
X59025077Y-122112963D01*
X59025077Y-122112963D02*
X59196738Y-122208258D01*
X59196738Y-122208258D02*
X59334727Y-122245233D01*
X59334727Y-122245233D02*
X59531038Y-122248535D01*
X59531038Y-122248535D02*
X59635356Y-122227188D01*
X59635356Y-122227188D02*
X59751998Y-122159844D01*
X59751998Y-122159844D02*
X59834969Y-122034180D01*
X59834969Y-122034180D02*
X59896592Y-121804197D01*
X59502201Y-123276084D02*
X59650098Y-122724127D01*
X59576150Y-123000106D02*
X58610224Y-122741286D01*
X58610224Y-122741286D02*
X58772863Y-122686268D01*
X58772863Y-122686268D02*
X58889505Y-122618924D01*
X58889505Y-122618924D02*
X58960151Y-122539256D01*
X58314431Y-123845202D02*
X58363729Y-123661216D01*
X58363729Y-123661216D02*
X58434375Y-123581548D01*
X58434375Y-123581548D02*
X58492697Y-123547876D01*
X58492697Y-123547876D02*
X58655335Y-123492857D01*
X58655335Y-123492857D02*
X58851646Y-123496160D01*
X58851646Y-123496160D02*
X59219618Y-123594757D01*
X59219618Y-123594757D02*
X59299286Y-123665403D01*
X59299286Y-123665403D02*
X59332958Y-123723724D01*
X59332958Y-123723724D02*
X59354305Y-123828042D01*
X59354305Y-123828042D02*
X59305006Y-124012028D01*
X59305006Y-124012028D02*
X59234360Y-124091696D01*
X59234360Y-124091696D02*
X59176039Y-124125368D01*
X59176039Y-124125368D02*
X59071721Y-124146715D01*
X59071721Y-124146715D02*
X58841739Y-124085091D01*
X58841739Y-124085091D02*
X58762071Y-124014445D01*
X58762071Y-124014445D02*
X58728399Y-123956124D01*
X58728399Y-123956124D02*
X58707052Y-123851807D01*
X58707052Y-123851807D02*
X58756351Y-123667821D01*
X58756351Y-123667821D02*
X58826997Y-123588152D01*
X58826997Y-123588152D02*
X58885318Y-123554481D01*
X58885318Y-123554481D02*
X58989635Y-123533134D01*
X54720750Y-140139339D02*
X53754824Y-139880520D01*
X53754824Y-139880520D02*
X53693201Y-140110503D01*
X53693201Y-140110503D02*
X53702223Y-140260817D01*
X53702223Y-140260817D02*
X53769567Y-140377459D01*
X53769567Y-140377459D02*
X53849235Y-140448105D01*
X53849235Y-140448105D02*
X54020896Y-140543400D01*
X54020896Y-140543400D02*
X54158885Y-140580375D01*
X54158885Y-140580375D02*
X54355196Y-140583677D01*
X54355196Y-140583677D02*
X54459514Y-140562330D01*
X54459514Y-140562330D02*
X54576156Y-140494986D01*
X54576156Y-140494986D02*
X54659127Y-140369322D01*
X54659127Y-140369322D02*
X54720750Y-140139339D01*
X53520655Y-140754453D02*
X53360433Y-141352407D01*
X53360433Y-141352407D02*
X53814678Y-141129030D01*
X53814678Y-141129030D02*
X53777704Y-141267019D01*
X53777704Y-141267019D02*
X53799051Y-141371337D01*
X53799051Y-141371337D02*
X53832723Y-141429658D01*
X53832723Y-141429658D02*
X53912391Y-141500304D01*
X53912391Y-141500304D02*
X54142373Y-141561927D01*
X54142373Y-141561927D02*
X54246691Y-141540580D01*
X54246691Y-141540580D02*
X54305012Y-141506909D01*
X54305012Y-141506909D02*
X54375658Y-141427240D01*
X54375658Y-141427240D02*
X54449606Y-141151262D01*
X54449606Y-141151262D02*
X54428259Y-141046944D01*
X54428259Y-141046944D02*
X54394588Y-140988623D01*
X53353829Y-141745029D02*
X53295508Y-141778700D01*
X53295508Y-141778700D02*
X53224862Y-141858368D01*
X53224862Y-141858368D02*
X53163238Y-142088351D01*
X53163238Y-142088351D02*
X53184585Y-142192668D01*
X53184585Y-142192668D02*
X53218257Y-142250990D01*
X53218257Y-142250990D02*
X53297925Y-142321636D01*
X53297925Y-142321636D02*
X53389918Y-142346285D01*
X53389918Y-142346285D02*
X53540232Y-142337263D01*
X53540232Y-142337263D02*
X54240086Y-141933202D01*
X54240086Y-141933202D02*
X54079865Y-142531156D01*
X92954729Y-145661180D02*
X91988803Y-145402361D01*
X91988803Y-145402361D02*
X91927180Y-145632344D01*
X91927180Y-145632344D02*
X91936202Y-145782658D01*
X91936202Y-145782658D02*
X92003546Y-145899300D01*
X92003546Y-145899300D02*
X92083214Y-145969946D01*
X92083214Y-145969946D02*
X92254875Y-146065241D01*
X92254875Y-146065241D02*
X92392864Y-146102216D01*
X92392864Y-146102216D02*
X92589175Y-146105518D01*
X92589175Y-146105518D02*
X92693493Y-146084171D01*
X92693493Y-146084171D02*
X92810135Y-146016827D01*
X92810135Y-146016827D02*
X92893106Y-145891163D01*
X92893106Y-145891163D02*
X92954729Y-145661180D01*
X91754634Y-146276294D02*
X91594412Y-146874248D01*
X91594412Y-146874248D02*
X92048657Y-146650871D01*
X92048657Y-146650871D02*
X92011683Y-146788860D01*
X92011683Y-146788860D02*
X92033030Y-146893178D01*
X92033030Y-146893178D02*
X92066702Y-146951499D01*
X92066702Y-146951499D02*
X92146370Y-147022145D01*
X92146370Y-147022145D02*
X92376352Y-147083768D01*
X92376352Y-147083768D02*
X92480670Y-147062421D01*
X92480670Y-147062421D02*
X92538991Y-147028750D01*
X92538991Y-147028750D02*
X92609637Y-146949081D01*
X92609637Y-146949081D02*
X92683585Y-146673103D01*
X92683585Y-146673103D02*
X92662238Y-146568785D01*
X92662238Y-146568785D02*
X92628567Y-146510464D01*
X91694543Y-147788458D02*
X92338493Y-147961004D01*
X91388195Y-147459878D02*
X92139765Y-147414766D01*
X92139765Y-147414766D02*
X91979544Y-148012720D01*
X102498468Y-109158675D02*
X101532542Y-108899855D01*
X101532542Y-108899855D02*
X101470919Y-109129838D01*
X101470919Y-109129838D02*
X101479941Y-109280152D01*
X101479941Y-109280152D02*
X101547284Y-109396794D01*
X101547284Y-109396794D02*
X101626953Y-109467440D01*
X101626953Y-109467440D02*
X101798614Y-109562736D01*
X101798614Y-109562736D02*
X101936603Y-109599710D01*
X101936603Y-109599710D02*
X102132914Y-109603012D01*
X102132914Y-109603012D02*
X102237231Y-109581665D01*
X102237231Y-109581665D02*
X102353874Y-109514322D01*
X102353874Y-109514322D02*
X102436844Y-109388657D01*
X102436844Y-109388657D02*
X102498468Y-109158675D01*
X101378041Y-109844434D02*
X101319720Y-109878106D01*
X101319720Y-109878106D02*
X101249074Y-109957774D01*
X101249074Y-109957774D02*
X101187450Y-110187757D01*
X101187450Y-110187757D02*
X101208797Y-110292074D01*
X101208797Y-110292074D02*
X101242469Y-110350395D01*
X101242469Y-110350395D02*
X101322137Y-110421041D01*
X101322137Y-110421041D02*
X101414130Y-110445691D01*
X101414130Y-110445691D02*
X101564444Y-110436668D01*
X101564444Y-110436668D02*
X102264298Y-110032607D01*
X102264298Y-110032607D02*
X102104077Y-110630562D01*
D11*
X67987732Y-116416670D02*
X66885462Y-117053066D01*
X67118399Y-116183733D01*
X67987732Y-116416670D01*
G36*
X67987732Y-116416670D02*
G01*
X66885462Y-117053066D01*
X67118399Y-116183733D01*
X67987732Y-116416670D01*
G37*
X322834438Y-119242317D02*
X322601499Y-118372983D01*
X323470836Y-118140046D01*
X322834438Y-119242317D01*
G36*
X322834438Y-119242317D02*
G01*
X322601499Y-118372983D01*
X323470836Y-118140046D01*
X322834438Y-119242317D01*
G37*
X230049843Y-140958712D02*
X229816904Y-140089378D01*
X230686241Y-139856441D01*
X230049843Y-140958712D01*
G36*
X230049843Y-140958712D02*
G01*
X229816904Y-140089378D01*
X230686241Y-139856441D01*
X230049843Y-140958712D01*
G37*
X304042142Y-122736592D02*
X303809203Y-121867258D01*
X304678540Y-121634321D01*
X304042142Y-122736592D01*
G36*
X304042142Y-122736592D02*
G01*
X303809203Y-121867258D01*
X304678540Y-121634321D01*
X304042142Y-122736592D01*
G37*
X142778145Y-131733780D02*
X141675873Y-132370176D01*
X141908809Y-131500840D01*
X142778145Y-131733780D01*
G36*
X142778145Y-131733780D02*
G01*
X141675873Y-132370176D01*
X141908809Y-131500840D01*
X142778145Y-131733780D01*
G37*
X105966949Y-121883398D02*
X104864677Y-122519794D01*
X105097613Y-121650458D01*
X105966949Y-121883398D01*
G36*
X105966949Y-121883398D02*
G01*
X104864677Y-122519794D01*
X105097613Y-121650458D01*
X105966949Y-121883398D01*
G37*
X248056290Y-134556133D02*
X247823351Y-133686799D01*
X248692688Y-133453862D01*
X248056290Y-134556133D01*
G36*
X248056290Y-134556133D02*
G01*
X247823351Y-133686799D01*
X248692688Y-133453862D01*
X248056290Y-134556133D01*
G37*
X284858069Y-124695131D02*
X284625130Y-123825797D01*
X285494467Y-123592860D01*
X284858069Y-124695131D01*
G36*
X284858069Y-124695131D02*
G01*
X284625130Y-123825797D01*
X285494467Y-123592860D01*
X284858069Y-124695131D01*
G37*
X160784594Y-138136349D02*
X159682322Y-138772745D01*
X159915258Y-137903409D01*
X160784594Y-138136349D01*
G36*
X160784594Y-138136349D02*
G01*
X159682322Y-138772745D01*
X159915258Y-137903409D01*
X160784594Y-138136349D01*
G37*
X86777185Y-119897036D02*
X85674913Y-120533432D01*
X85907849Y-119664096D01*
X86777185Y-119897036D01*
G36*
X86777185Y-119897036D02*
G01*
X85674913Y-120533432D01*
X85907849Y-119664096D01*
X86777185Y-119897036D01*
G37*
X266059887Y-128167472D02*
X265826948Y-127298138D01*
X266696285Y-127065201D01*
X266059887Y-128167472D01*
G36*
X266059887Y-128167472D02*
G01*
X265826948Y-127298138D01*
X266696285Y-127065201D01*
X266059887Y-128167472D01*
G37*
X124762285Y-125341826D02*
X123660013Y-125978222D01*
X123892949Y-125108886D01*
X124762285Y-125341826D01*
G36*
X124762285Y-125341826D02*
G01*
X123660013Y-125978222D01*
X123892949Y-125108886D01*
X124762285Y-125341826D01*
G37*
D12*
X73416187Y-146691308D02*
X74415224Y-142962836D01*
X75348035Y-147208947D02*
X76347076Y-143480470D01*
X76347076Y-143480470D02*
X74415224Y-142962836D01*
X237477550Y-188147240D02*
X236478504Y-184418774D01*
X238410354Y-183901132D02*
X236478504Y-184418774D01*
X239409398Y-187629606D02*
X238410354Y-183901132D01*
X78346692Y-128290431D02*
X79345729Y-124561959D01*
X80278540Y-128808070D02*
X81277581Y-125079593D01*
X81277581Y-125079593D02*
X79345729Y-124561959D01*
X221912416Y-213236929D02*
X220180368Y-214236932D01*
X222110369Y-217579787D02*
X220180368Y-214236932D01*
X223842418Y-216579788D02*
X221912416Y-213236929D01*
X83328518Y-109794583D02*
X84327555Y-106066111D01*
X85260366Y-110312222D02*
X86259407Y-106583745D01*
X86259407Y-106583745D02*
X84327555Y-106066111D01*
X278398861Y-193771287D02*
X277399815Y-190042821D01*
X279331665Y-189525179D02*
X277399815Y-190042821D01*
X280330709Y-193253653D02*
X279331665Y-189525179D01*
X287333185Y-153511073D02*
X286334139Y-149782607D01*
X288265989Y-149264965D02*
X286334139Y-149782607D01*
X289265033Y-152993439D02*
X288265989Y-149264965D01*
X124486653Y-176928948D02*
X125485690Y-173200476D01*
X126418501Y-177446587D02*
X127417542Y-173718110D01*
X127417542Y-173718110D02*
X125485690Y-173200476D01*
X216602112Y-183899278D02*
X215603066Y-180170812D01*
X217534916Y-179653170D02*
X215603066Y-180170812D01*
X218533960Y-183381644D02*
X217534916Y-179653170D01*
X263604504Y-138582530D02*
X262605458Y-134854064D01*
X264537308Y-134336422D02*
X262605458Y-134854064D01*
X265536352Y-138064896D02*
X264537308Y-134336422D01*
X204045789Y-229481030D02*
X202631579Y-230895246D01*
X205361009Y-233624671D02*
X202631579Y-230895246D01*
X206775223Y-232210463D02*
X204045789Y-229481030D01*
X306520102Y-151538624D02*
X305521056Y-147810158D01*
X307452906Y-147292516D02*
X305521056Y-147810158D01*
X308451950Y-151020990D02*
X307452906Y-147292516D01*
X137568809Y-201709225D02*
X138567846Y-197980753D01*
X139500657Y-202226864D02*
X140499698Y-198498387D01*
X140499698Y-198498387D02*
X138567846Y-197980753D01*
X111401284Y-152136103D02*
X112400321Y-148407631D01*
X113333132Y-152653742D02*
X114332173Y-148925265D01*
X114332173Y-148925265D02*
X112400321Y-148407631D01*
X222622609Y-132874418D02*
X221623563Y-129145952D01*
X223555413Y-128628310D02*
X221623563Y-129145952D01*
X224554457Y-132356784D02*
X223555413Y-128628310D01*
X296569200Y-114650369D02*
X295570154Y-110921903D01*
X297502004Y-110404261D02*
X295570154Y-110921903D01*
X298501048Y-114132735D02*
X297502004Y-110404261D01*
X277382275Y-116622812D02*
X276383229Y-112894346D01*
X278315079Y-112376704D02*
X276383229Y-112894346D01*
X279314123Y-116105178D02*
X278315079Y-112376704D01*
X297191905Y-190284892D02*
X296192859Y-186556426D01*
X298124709Y-186038784D02*
X296192859Y-186556426D01*
X299123753Y-189767258D02*
X298124709Y-186038784D01*
X311450604Y-169939513D02*
X310451558Y-166211047D01*
X312383408Y-165693405D02*
X310451558Y-166211047D01*
X313382452Y-169421879D02*
X312383408Y-165693405D01*
X152354102Y-146529742D02*
X153353139Y-142801270D01*
X154285950Y-147047381D02*
X155284991Y-143318904D01*
X155284991Y-143318904D02*
X153353139Y-142801270D01*
X157302283Y-128159473D02*
X158301320Y-124431001D01*
X159234131Y-128677112D02*
X160233172Y-124948635D01*
X160233172Y-124948635D02*
X158301320Y-124431001D01*
X232547048Y-169746358D02*
X231548002Y-166017892D01*
X233479852Y-165500250D02*
X231548002Y-166017892D01*
X234478896Y-169228724D02*
X233479852Y-165500250D01*
X315358650Y-111170003D02*
X314359604Y-107441537D01*
X316291454Y-106923895D02*
X314359604Y-107441537D01*
X317290498Y-110652369D02*
X316291454Y-106923895D01*
X63570817Y-183459283D02*
X64569854Y-179730811D01*
X65502665Y-183976922D02*
X66501706Y-180248445D01*
X66501706Y-180248445D02*
X64569854Y-179730811D01*
X258338756Y-120160896D02*
X257339710Y-116432430D01*
X259271560Y-115914788D02*
X257339710Y-116432430D01*
X260270604Y-119643262D02*
X259271560Y-115914788D01*
X260409669Y-200176188D02*
X259410623Y-196447722D01*
X261342473Y-195930080D02*
X259410623Y-196447722D01*
X262341517Y-199658554D02*
X261342473Y-195930080D01*
X159724395Y-208302112D02*
X161654390Y-204959255D01*
X161456442Y-209302112D02*
X163386442Y-205959251D01*
X163386442Y-205959251D02*
X161654390Y-204959255D01*
X179395478Y-220477206D02*
X182124903Y-217747776D01*
X180809686Y-221891420D02*
X183539119Y-219161986D01*
X183539119Y-219161986D02*
X182124903Y-217747776D01*
X64539063Y-106314228D02*
X65538100Y-102585756D01*
X66470911Y-106831867D02*
X67469952Y-103103390D01*
X67469952Y-103103390D02*
X65538100Y-102585756D01*
X227839806Y-151308030D02*
X226840760Y-147579564D01*
X228772610Y-147061922D02*
X226840760Y-147579564D01*
X229771654Y-150790396D02*
X228772610Y-147061922D01*
X87654518Y-167084644D02*
X88653555Y-163356172D01*
X89586366Y-167602283D02*
X90585407Y-163873806D01*
X90585407Y-163873806D02*
X88653555Y-163356172D01*
X320379052Y-129657379D02*
X319380006Y-125928913D01*
X321311856Y-125411271D02*
X319380006Y-125928913D01*
X322310900Y-129139745D02*
X321311856Y-125411271D01*
X49681584Y-161594456D02*
X50680621Y-157865984D01*
X51613432Y-162112095D02*
X52612473Y-158383618D01*
X52612473Y-158383618D02*
X50680621Y-157865984D01*
X97545878Y-130266163D02*
X98544915Y-126537691D01*
X99477726Y-130783802D02*
X100476767Y-127055325D01*
X100476767Y-127055325D02*
X98544915Y-126537691D01*
X142493095Y-183331520D02*
X143492132Y-179603048D01*
X144424943Y-183849159D02*
X145423984Y-180120682D01*
X145423984Y-180120682D02*
X143492132Y-179603048D01*
X242425041Y-206575902D02*
X241425995Y-202847436D01*
X243357845Y-202329794D02*
X241425995Y-202847436D01*
X244356889Y-206058268D02*
X243357845Y-202329794D01*
X106470774Y-170536987D02*
X107469811Y-166808515D01*
X108402622Y-171054626D02*
X109401663Y-167326149D01*
X109401663Y-167326149D02*
X107469811Y-166808515D01*
X329994708Y-166524893D02*
X328995662Y-162796427D01*
X330927512Y-162278785D02*
X328995662Y-162796427D01*
X331926556Y-166007259D02*
X330927512Y-162278785D01*
X325309552Y-148058269D02*
X324310506Y-144329803D01*
X326242356Y-143812161D02*
X324310506Y-144329803D01*
X327241400Y-147540635D02*
X326242356Y-143812161D01*
X301589599Y-133137740D02*
X300590553Y-129409274D01*
X302522403Y-128891632D02*
X300590553Y-129409274D01*
X303521447Y-132620106D02*
X302522403Y-128891632D01*
X134347578Y-140151990D02*
X135346615Y-136423518D01*
X136279426Y-140669629D02*
X137278467Y-136941152D01*
X137278467Y-136941152D02*
X135346615Y-136423518D01*
X240580501Y-126483822D02*
X239581455Y-122755356D01*
X241513305Y-122237714D02*
X239581455Y-122755356D01*
X242512349Y-125966188D02*
X241513305Y-122237714D01*
X250531406Y-163372082D02*
X249532360Y-159643616D01*
X251464210Y-159125974D02*
X249532360Y-159643616D01*
X252463254Y-162854448D02*
X251464210Y-159125974D01*
X101555914Y-188904070D02*
X102554951Y-185175598D01*
X103487762Y-189421709D02*
X104486803Y-185693232D01*
X104486803Y-185693232D02*
X102554951Y-185175598D01*
X147423601Y-164930627D02*
X148422638Y-161202155D01*
X149355449Y-165448266D02*
X150354490Y-161719789D01*
X150354490Y-161719789D02*
X148422638Y-161202155D01*
X292263687Y-171911963D02*
X291264641Y-168183497D01*
X293196491Y-167665855D02*
X291264641Y-168183497D01*
X294195535Y-171394329D02*
X293196491Y-167665855D01*
X346246665Y-152350228D02*
X345247619Y-148621762D01*
X347179469Y-148104120D02*
X345247619Y-148621762D01*
X348178513Y-151832594D02*
X347179469Y-148104120D01*
X273465514Y-175384304D02*
X272466468Y-171655838D01*
X274398318Y-171138196D02*
X272466468Y-171655838D01*
X275397362Y-174866670D02*
X274398318Y-171138196D01*
X129417154Y-158528058D02*
X130416191Y-154799586D01*
X131349002Y-159045697D02*
X132348043Y-155317220D01*
X132348043Y-155317220D02*
X130416191Y-154799586D01*
X33774833Y-147548899D02*
X34773870Y-143820427D01*
X35706681Y-148066538D02*
X36705722Y-144338061D01*
X36705722Y-144338061D02*
X34773870Y-143820427D01*
X116331784Y-133735218D02*
X117330821Y-130006746D01*
X118263632Y-134252857D02*
X119262673Y-130524380D01*
X119262673Y-130524380D02*
X117330821Y-130006746D01*
X316383950Y-188326492D02*
X315384904Y-184598026D01*
X317316754Y-184080384D02*
X315384904Y-184598026D01*
X318315798Y-187808858D02*
X317316754Y-184080384D01*
X139295833Y-121756898D02*
X140294870Y-118028426D01*
X141227681Y-122274537D02*
X142226722Y-118546060D01*
X142226722Y-118546060D02*
X140294870Y-118028426D01*
X163418737Y-179129282D02*
X164417774Y-175400810D01*
X165350585Y-179646921D02*
X166349626Y-175918444D01*
X166349626Y-175918444D02*
X164417774Y-175400810D01*
X245600903Y-144971190D02*
X244601857Y-141242724D01*
X246533707Y-140725082D02*
X244601857Y-141242724D01*
X247532751Y-144453556D02*
X246533707Y-140725082D01*
X255483994Y-181744673D02*
X254484948Y-178016207D01*
X256416798Y-177498565D02*
X254484948Y-178016207D01*
X257415842Y-181227039D02*
X256416798Y-177498565D01*
X282402678Y-135110187D02*
X281403632Y-131381721D01*
X283335482Y-130864079D02*
X281403632Y-131381721D01*
X284334526Y-134592553D02*
X283335482Y-130864079D01*
X82760583Y-185445635D02*
X83759620Y-181717163D01*
X84692431Y-185963274D02*
X85691472Y-182234797D01*
X85691472Y-182234797D02*
X83759620Y-181717163D01*
X119562358Y-195306642D02*
X120561395Y-191578170D01*
X121494206Y-195824281D02*
X122493247Y-192095804D01*
X122493247Y-192095804D02*
X120561395Y-191578170D01*
X268535006Y-156983416D02*
X267535960Y-153254950D01*
X269467810Y-152737308D02*
X267535960Y-153254950D01*
X270466854Y-156465782D02*
X269467810Y-152737308D01*
X68470699Y-165076069D02*
X69469736Y-161347597D01*
X70402547Y-165593708D02*
X71401588Y-161865231D01*
X71401588Y-161865231D02*
X69469736Y-161347597D01*
X121279968Y-115364948D02*
X122279005Y-111636476D01*
X123211816Y-115882587D02*
X124210857Y-112154110D01*
X124210857Y-112154110D02*
X122279005Y-111636476D01*
X59557240Y-124810072D02*
X60556277Y-121081600D01*
X61489088Y-125327711D02*
X62488129Y-121599234D01*
X62488129Y-121599234D02*
X60556277Y-121081600D01*
X54381398Y-143145214D02*
X55380435Y-139416742D01*
X56313246Y-143662853D02*
X57312287Y-139934376D01*
X57312287Y-139934376D02*
X55380435Y-139416742D01*
X92615377Y-148667055D02*
X93614414Y-144938583D01*
X94547225Y-149184694D02*
X95546266Y-145456217D01*
X95546266Y-145456217D02*
X93614414Y-144938583D01*
X102282363Y-111704584D02*
X103281400Y-107976112D01*
X104214211Y-112222223D02*
X105213252Y-108493746D01*
X105213252Y-108493746D02*
X103281400Y-107976112D01*
%LPC*%
D13*
X221665266Y-188306836D03*
D14*
X222070957Y-188198132D03*
D15*
X226977856Y-186883332D03*
D14*
X231884763Y-185568530D03*
D13*
X232290444Y-185459828D03*
D16*
X228116509Y-181319028D03*
D17*
X230823973Y-181918721D03*
D18*
X222640281Y-185415982D03*
D17*
X225450827Y-181184370D03*
D13*
X70677792Y-171475402D03*
D14*
X71083482Y-171584107D03*
D15*
X75990382Y-172898906D03*
D14*
X80897289Y-174213708D03*
D13*
X81302969Y-174322411D03*
D16*
X79758636Y-168649404D03*
D17*
X81803523Y-170522485D03*
D19*
X72967606Y-169459354D03*
D17*
X77517417Y-167199945D03*
D13*
X316530931Y-174324361D03*
D14*
X316936622Y-174215657D03*
D15*
X321843521Y-172900857D03*
D14*
X326750428Y-171586055D03*
D13*
X327156109Y-171477353D03*
D16*
X322982174Y-167336553D03*
D17*
X325689638Y-167936246D03*
D18*
X317505946Y-171433507D03*
D17*
X320316492Y-167201895D03*
D13*
X232674780Y-155758612D03*
D14*
X233080471Y-155649908D03*
D15*
X237987370Y-154335108D03*
D14*
X242894277Y-153020306D03*
D13*
X243299958Y-152911604D03*
D16*
X239126023Y-148770804D03*
D17*
X241833487Y-149370497D03*
D18*
X233649795Y-152867758D03*
D17*
X236460341Y-148636146D03*
D13*
X306669920Y-137522591D03*
D14*
X307075611Y-137413887D03*
D15*
X311982510Y-136099087D03*
D14*
X316889417Y-134784285D03*
D13*
X317295098Y-134675583D03*
D16*
X313121163Y-130534783D03*
D17*
X315828627Y-131134476D03*
D18*
X307644935Y-134631737D03*
D17*
X310455481Y-130400125D03*
D13*
X302271665Y-194711604D03*
D14*
X302677356Y-194602900D03*
D15*
X307584255Y-193288100D03*
D14*
X312491162Y-191973298D03*
D13*
X312896843Y-191864596D03*
D16*
X308722908Y-187723796D03*
D17*
X311430372Y-188323489D03*
D18*
X303246680Y-191820750D03*
D17*
X306057226Y-187589138D03*
D13*
X75608297Y-153074506D03*
D14*
X76013987Y-153183211D03*
D15*
X80920887Y-154498010D03*
D14*
X85827794Y-155812812D03*
D13*
X86233474Y-155921515D03*
D16*
X84689141Y-150248508D03*
D17*
X86734028Y-152121589D03*
D19*
X77898111Y-151058458D03*
D17*
X82447922Y-148799049D03*
D13*
X61749354Y-131193263D03*
D14*
X62155043Y-131301968D03*
D15*
X67061944Y-132616767D03*
D14*
X71968851Y-133931569D03*
D13*
X72374534Y-134040272D03*
D16*
X70830198Y-128367265D03*
D17*
X72875084Y-130240346D03*
D19*
X64039168Y-129177217D03*
D17*
X68588979Y-126917806D03*
D13*
X94816906Y-155039626D03*
D14*
X95222596Y-155148331D03*
D15*
X100129496Y-156463130D03*
D14*
X105036403Y-157777932D03*
D13*
X105442083Y-157886635D03*
D16*
X103897750Y-152213628D03*
D17*
X105942637Y-154086709D03*
D19*
X97106720Y-153023578D03*
D17*
X101656531Y-150764169D03*
D13*
X66689276Y-112781748D03*
D14*
X67094965Y-112890453D03*
D15*
X72001866Y-114205252D03*
D14*
X76908773Y-115520054D03*
D13*
X77314456Y-115628757D03*
D16*
X75770120Y-109955750D03*
D20*
X73000824Y-120503406D03*
D17*
X77815006Y-111828831D03*
D19*
X68979090Y-110765703D03*
D17*
X73528901Y-108506291D03*
D20*
X73389053Y-119054517D03*
X68366239Y-117708657D03*
X67978010Y-119157547D03*
D13*
X320528875Y-115641340D03*
D14*
X320934566Y-115532636D03*
D15*
X325841465Y-114217836D03*
D14*
X330748372Y-112903034D03*
D13*
X331154055Y-112794330D03*
D16*
X326980118Y-108653532D03*
D21*
X329855667Y-119172720D03*
D17*
X329687582Y-109253225D03*
D18*
X321503890Y-112750486D03*
D17*
X324314436Y-108518874D03*
D21*
X329467437Y-117723833D03*
X324444623Y-119069689D03*
X324832851Y-120518577D03*
D13*
X103732388Y-195321067D03*
D14*
X104138078Y-195429772D03*
D15*
X109044978Y-196744571D03*
D14*
X113951885Y-198059373D03*
D13*
X114357565Y-198168076D03*
D16*
X112813232Y-192495069D03*
D17*
X114858119Y-194368150D03*
D19*
X106022202Y-193305019D03*
D17*
X110572013Y-191045610D03*
D13*
X131609260Y-164911253D03*
D14*
X132014950Y-165019958D03*
D15*
X136921850Y-166334757D03*
D14*
X141828757Y-167649559D03*
D13*
X142234437Y-167758262D03*
D16*
X140690104Y-162085255D03*
D17*
X142734991Y-163958336D03*
D19*
X133899074Y-162895205D03*
D17*
X138448885Y-160635796D03*
D13*
X227744280Y-137357735D03*
D14*
X228149971Y-137249031D03*
D15*
X233056870Y-135934231D03*
D14*
X237963777Y-134619429D03*
D13*
X238369460Y-134510725D03*
D16*
X234195523Y-130369927D03*
D21*
X237071072Y-140889115D03*
D17*
X236902987Y-130969620D03*
D18*
X228719295Y-134466881D03*
D17*
X231529841Y-130235269D03*
D21*
X236682842Y-139440228D03*
X231660028Y-140786084D03*
X232048256Y-142234972D03*
D13*
X301736579Y-119135615D03*
D14*
X302142270Y-119026911D03*
D15*
X307049169Y-117712111D03*
D14*
X311956076Y-116397309D03*
D13*
X312361759Y-116288605D03*
D16*
X308187822Y-112147807D03*
D21*
X311063371Y-122666995D03*
D17*
X310895286Y-112747500D03*
D18*
X302711594Y-116244761D03*
D17*
X305522140Y-112013149D03*
D21*
X310675141Y-121218108D03*
X305652327Y-122563964D03*
X306040555Y-124012852D03*
D22*
X57148552Y-199385917D03*
D13*
X325459380Y-134042227D03*
D14*
X325865071Y-133933523D03*
D15*
X330771970Y-132618723D03*
D14*
X335678877Y-131303921D03*
D13*
X336084558Y-131195219D03*
D16*
X331910623Y-127054419D03*
D17*
X334618087Y-127654112D03*
D18*
X326434395Y-131151373D03*
D17*
X329244941Y-126919761D03*
D13*
X126688173Y-183301510D03*
D14*
X127093863Y-183410215D03*
D15*
X132000763Y-184725014D03*
D14*
X136907670Y-186039816D03*
D13*
X137313350Y-186148519D03*
D16*
X135769017Y-180475512D03*
D17*
X137813904Y-182348593D03*
D19*
X128977987Y-181285462D03*
D17*
X133527798Y-179026053D03*
D13*
X178114834Y-227061220D03*
D14*
X178411820Y-227358206D03*
D15*
X182003920Y-230950306D03*
D14*
X185596025Y-234542411D03*
D13*
X185893004Y-234839392D03*
D16*
X187392075Y-229154256D03*
D17*
X188226460Y-231798834D03*
D23*
X181105895Y-226460180D03*
D17*
X186175852Y-226778378D03*
D13*
X265469893Y-204572618D03*
D14*
X265875584Y-204463914D03*
D15*
X270782483Y-203149114D03*
D14*
X275689390Y-201834312D03*
D13*
X276095071Y-201725610D03*
D16*
X271921136Y-197584810D03*
D17*
X274628600Y-198184503D03*
D18*
X266444908Y-201681764D03*
D17*
X269255454Y-197450152D03*
D13*
X351254307Y-156720759D03*
D14*
X351659998Y-156612055D03*
D15*
X356566897Y-155297255D03*
D14*
X361473804Y-153982453D03*
D13*
X361879485Y-153873751D03*
D16*
X357705550Y-149732951D03*
D17*
X360413014Y-150332644D03*
D18*
X352229322Y-153829905D03*
D17*
X355039868Y-149598293D03*
D13*
X149625127Y-171303197D03*
D14*
X150030817Y-171411902D03*
D15*
X154937717Y-172726701D03*
D14*
X159844624Y-174041503D03*
D13*
X160250304Y-174150206D03*
D16*
X158705971Y-168477199D03*
D17*
X160750858Y-170350280D03*
D19*
X151914941Y-169287149D03*
D17*
X156464752Y-167027740D03*
D13*
X250678382Y-149369957D03*
D14*
X251084073Y-149261253D03*
D15*
X255990972Y-147946453D03*
D14*
X260897879Y-146631651D03*
D13*
X261303560Y-146522949D03*
D16*
X257129625Y-142382149D03*
D17*
X259837089Y-142981842D03*
D18*
X251653397Y-146479103D03*
D17*
X254463943Y-142247491D03*
D13*
X260542239Y-186157819D03*
D14*
X260947930Y-186049115D03*
D15*
X265854829Y-184734315D03*
D14*
X270761736Y-183419513D03*
D13*
X271167417Y-183310811D03*
D16*
X266993482Y-179170011D03*
D17*
X269700946Y-179769704D03*
D18*
X261517254Y-183266965D03*
D17*
X264327800Y-179035353D03*
D13*
X237605282Y-174159503D03*
D14*
X238010973Y-174050799D03*
D15*
X242917872Y-172735999D03*
D14*
X247824779Y-171421197D03*
D13*
X248230460Y-171312495D03*
D16*
X244056525Y-167171695D03*
D17*
X246763989Y-167771388D03*
D18*
X238580297Y-171268649D03*
D17*
X241390843Y-167037037D03*
D13*
X136549182Y-146499741D03*
D14*
X136954872Y-146608446D03*
D15*
X141861772Y-147923245D03*
D14*
X146768679Y-149238047D03*
D13*
X147174359Y-149346750D03*
D16*
X145630026Y-143673743D03*
D17*
X147674913Y-145546824D03*
D19*
X138838996Y-144483693D03*
D17*
X143388807Y-142224284D03*
D13*
X165569278Y-185438682D03*
D14*
X165974968Y-185547387D03*
D15*
X170881868Y-186862186D03*
D14*
X175788775Y-188176988D03*
D13*
X176194455Y-188285691D03*
D16*
X174650122Y-182612684D03*
D17*
X176695009Y-184485765D03*
D19*
X167859092Y-183422634D03*
D17*
X172408903Y-181163225D03*
D13*
X154555633Y-152902316D03*
D14*
X154961323Y-153011021D03*
D15*
X159868223Y-154325820D03*
D14*
X164775130Y-155640622D03*
D13*
X165180810Y-155749325D03*
D16*
X163636477Y-150076318D03*
D17*
X165681364Y-151949399D03*
D19*
X156845447Y-150886268D03*
D17*
X161395258Y-148626859D03*
D13*
X278545835Y-179769152D03*
D14*
X278951526Y-179660448D03*
D15*
X283858425Y-178345648D03*
D14*
X288765332Y-177030846D03*
D13*
X289171013Y-176922144D03*
D16*
X284997078Y-172781344D03*
D17*
X287704542Y-173381037D03*
D18*
X279520850Y-176878298D03*
D17*
X282331396Y-172646686D03*
D13*
X283473494Y-198183953D03*
D14*
X283879185Y-198075249D03*
D15*
X288786084Y-196760449D03*
D14*
X293692991Y-195445647D03*
D13*
X294098672Y-195336945D03*
D16*
X289924737Y-191196145D03*
D17*
X292632201Y-191795838D03*
D18*
X284448509Y-195293099D03*
D17*
X287259055Y-191061487D03*
D13*
X160180914Y-215007624D03*
D14*
X160544646Y-215217625D03*
D15*
X164944052Y-217757623D03*
D14*
X169343464Y-220297625D03*
D13*
X169707187Y-220507622D03*
D16*
X169683758Y-214628215D03*
D17*
X171174178Y-216966728D03*
D24*
X162914496Y-213652920D03*
D17*
X167894054Y-212648075D03*
D13*
X242532947Y-192574305D03*
D14*
X242938638Y-192465601D03*
D15*
X247845537Y-191150801D03*
D14*
X252752444Y-189835999D03*
D13*
X253158125Y-189727297D03*
D16*
X248984190Y-185586497D03*
D17*
X251691654Y-186186190D03*
D18*
X243507962Y-189683451D03*
D17*
X246318508Y-185451839D03*
D13*
X139764124Y-208104974D03*
D14*
X140169814Y-208213679D03*
D15*
X145076714Y-209528478D03*
D14*
X149983621Y-210843280D03*
D13*
X150389301Y-210951983D03*
D16*
X148844968Y-205278976D03*
D17*
X150889855Y-207152057D03*
D19*
X142053938Y-206088926D03*
D17*
X146603749Y-203829517D03*
D13*
X268684835Y-142967383D03*
D14*
X269090526Y-142858679D03*
D15*
X273997425Y-141543879D03*
D14*
X278904332Y-140229077D03*
D13*
X279310013Y-140120375D03*
D16*
X275136078Y-135979575D03*
D17*
X277843542Y-136579268D03*
D18*
X269659850Y-140076529D03*
D17*
X272470396Y-135844917D03*
D13*
X99737994Y-136649356D03*
D14*
X100143684Y-136758061D03*
D15*
X105050584Y-138072860D03*
D14*
X109957491Y-139387662D03*
D13*
X110363171Y-139496365D03*
D16*
X108818838Y-133823358D03*
D17*
X110863725Y-135696439D03*
D19*
X102027808Y-134633308D03*
D17*
X106577619Y-132373899D03*
D13*
X141479686Y-128098857D03*
D14*
X141885376Y-128207562D03*
D15*
X146792276Y-129522361D03*
D14*
X151699183Y-130837163D03*
D13*
X152104867Y-130945863D03*
D16*
X150560530Y-125272859D03*
D20*
X147791235Y-135820516D03*
D17*
X152605416Y-127145940D03*
D19*
X143769500Y-126082811D03*
D17*
X148319311Y-123823400D03*
D20*
X148179461Y-134371630D03*
X143156647Y-133025769D03*
X142768420Y-134474656D03*
D13*
X65747291Y-189876281D03*
D14*
X66152981Y-189984986D03*
D15*
X71059881Y-191299785D03*
D14*
X75966788Y-192614587D03*
D13*
X76372468Y-192723290D03*
D16*
X74828135Y-187050283D03*
D17*
X76873022Y-188923364D03*
D19*
X68037105Y-187860233D03*
D17*
X72586916Y-185600824D03*
D13*
X335320388Y-170844005D03*
D14*
X335726079Y-170735301D03*
D15*
X340632978Y-169420501D03*
D14*
X345539885Y-168105699D03*
D13*
X345945566Y-167996997D03*
D16*
X341771631Y-163856197D03*
D17*
X344479095Y-164455890D03*
D18*
X336295403Y-167953151D03*
D17*
X339105949Y-163721539D03*
D22*
X198948552Y-255885917D03*
D13*
X311597579Y-155937384D03*
D14*
X312003270Y-155828680D03*
D15*
X316910169Y-154513880D03*
D14*
X321817076Y-153199078D03*
D13*
X322222757Y-153090376D03*
D16*
X318048822Y-148949576D03*
D17*
X320756286Y-149549269D03*
D18*
X312572594Y-153046530D03*
D17*
X315383140Y-148814918D03*
D13*
X108662889Y-176920188D03*
D14*
X109068579Y-177028893D03*
D15*
X113975479Y-178343692D03*
D14*
X118882386Y-179658494D03*
D13*
X119288066Y-179767197D03*
D16*
X117743733Y-174094190D03*
D17*
X119788620Y-175967271D03*
D19*
X110952703Y-174904140D03*
D17*
X115502514Y-172644731D03*
D13*
X104668490Y-118248475D03*
D14*
X105074180Y-118357180D03*
D15*
X109981080Y-119671979D03*
D14*
X114887987Y-120986781D03*
D13*
X115293671Y-121095481D03*
D16*
X113749334Y-115422477D03*
D20*
X110980039Y-125970134D03*
D17*
X115794220Y-117295558D03*
D19*
X106958304Y-116232429D03*
D17*
X111508115Y-113973018D03*
D20*
X111368265Y-124521248D03*
X106345451Y-123175387D03*
X105957224Y-124624274D03*
D13*
X330389879Y-152443119D03*
D14*
X330795570Y-152334415D03*
D15*
X335702469Y-151019615D03*
D14*
X340609376Y-149704813D03*
D13*
X341015057Y-149596111D03*
D16*
X336841122Y-145455311D03*
D17*
X339548586Y-146055004D03*
D18*
X331364894Y-149552265D03*
D17*
X334175440Y-145320653D03*
D13*
X121748257Y-201713025D03*
D14*
X122153947Y-201821730D03*
D15*
X127060847Y-203136529D03*
D14*
X131967754Y-204451331D03*
D13*
X132373434Y-204560034D03*
D16*
X130829101Y-198887027D03*
D17*
X132873988Y-200760108D03*
D19*
X124038071Y-199696977D03*
D17*
X128587882Y-197437568D03*
D13*
X245750727Y-130955156D03*
D14*
X246156418Y-130846452D03*
D15*
X251063317Y-129531652D03*
D14*
X255970224Y-128216850D03*
D13*
X256375907Y-128108146D03*
D16*
X252201970Y-123967348D03*
D21*
X255077519Y-134486536D03*
D17*
X254909434Y-124567041D03*
D18*
X246725742Y-128064302D03*
D17*
X249536288Y-123832690D03*
D21*
X254689289Y-133037649D03*
X249666475Y-134383505D03*
X250054703Y-135832393D03*
D13*
X321461441Y-192725249D03*
D14*
X321867132Y-192616545D03*
D15*
X326774031Y-191301745D03*
D14*
X331680938Y-189986943D03*
D13*
X332086619Y-189878241D03*
D16*
X327912684Y-185737441D03*
D17*
X330620148Y-186337134D03*
D18*
X322436456Y-189834395D03*
D17*
X325247002Y-185602783D03*
D22*
X96973552Y-103910917D03*
D13*
X118533322Y-140107790D03*
D14*
X118939012Y-140216495D03*
D15*
X123845912Y-141531294D03*
D14*
X128752819Y-142846096D03*
D13*
X129158499Y-142954799D03*
D16*
X127614166Y-137281792D03*
D17*
X129659053Y-139154873D03*
D19*
X120823136Y-138091742D03*
D17*
X125372947Y-135832333D03*
D25*
X190036779Y-127763219D03*
X190036780Y-130303218D03*
D26*
X190036781Y-132843219D03*
D25*
X190036778Y-135383218D03*
X190036779Y-137923217D03*
X190036779Y-140463220D03*
X190036778Y-143003219D03*
D26*
X190036778Y-145543221D03*
D25*
X190036779Y-148083219D03*
X190036780Y-150623219D03*
X190036780Y-153163219D03*
X190036779Y-155703219D03*
D26*
X190036780Y-158243218D03*
D25*
X190036779Y-160783220D03*
X190036780Y-163323220D03*
X190036778Y-165863219D03*
X190036779Y-168403219D03*
D26*
X190036779Y-170943218D03*
D25*
X190036780Y-173483219D03*
X190036779Y-176023219D03*
X207816779Y-176023219D03*
X207816778Y-173483220D03*
D26*
X207816777Y-170943219D03*
D25*
X207816780Y-168403220D03*
X207816779Y-165863221D03*
X207816779Y-163323218D03*
X207816780Y-160783219D03*
D26*
X207816780Y-158243217D03*
D25*
X207816779Y-155703219D03*
X207816778Y-153163219D03*
X207816778Y-150623219D03*
X207816779Y-148083219D03*
D26*
X207816778Y-145543220D03*
D25*
X207816779Y-143003218D03*
X207816778Y-140463218D03*
X207816780Y-137923219D03*
X207816779Y-135383219D03*
D26*
X207816779Y-132843220D03*
D25*
X207816778Y-130303219D03*
X207816779Y-127763219D03*
X196386777Y-175793220D03*
D26*
X198926779Y-175793219D03*
D25*
X201466777Y-175793220D03*
D13*
X282552506Y-121094154D03*
D14*
X282958197Y-120985450D03*
D15*
X287865096Y-119670650D03*
D14*
X292772003Y-118355848D03*
D13*
X293177686Y-118247144D03*
D16*
X289003749Y-114106346D03*
D21*
X291879298Y-124625534D03*
D17*
X291711213Y-114706039D03*
D18*
X283527521Y-118203300D03*
D17*
X286338067Y-113971688D03*
D21*
X291491068Y-123176647D03*
X286468254Y-124522503D03*
X286856482Y-125971391D03*
D13*
X84946481Y-191852022D03*
D14*
X85352171Y-191960727D03*
D15*
X90259071Y-193275526D03*
D14*
X95165978Y-194590328D03*
D13*
X95571658Y-194699031D03*
D16*
X94027325Y-189026024D03*
D17*
X96072212Y-190899105D03*
D19*
X87236295Y-189835974D03*
D17*
X91786106Y-187576565D03*
D22*
X29571572Y-152189104D03*
D13*
X292410661Y-157909838D03*
D14*
X292816352Y-157801134D03*
D15*
X297723251Y-156486334D03*
D14*
X302630158Y-155171532D03*
D13*
X303035839Y-155062830D03*
D16*
X298861904Y-150922030D03*
D17*
X301569368Y-151521723D03*
D18*
X293385676Y-155018984D03*
D17*
X296196222Y-150787372D03*
D13*
X113593400Y-158519300D03*
D14*
X113999090Y-158628005D03*
D15*
X118905990Y-159942804D03*
D14*
X123812897Y-161257606D03*
D13*
X124218577Y-161366309D03*
D16*
X122674244Y-155693302D03*
D17*
X124719131Y-157566383D03*
D19*
X115883214Y-156503252D03*
D17*
X120433025Y-154243843D03*
D13*
X35948647Y-153879256D03*
D14*
X36354337Y-153987961D03*
D15*
X41261237Y-155302760D03*
D14*
X46168144Y-156617562D03*
D13*
X46573824Y-156726265D03*
D16*
X45029491Y-151053258D03*
D17*
X47074378Y-152926339D03*
D19*
X38238461Y-151863208D03*
D17*
X42788272Y-149603799D03*
D13*
X56818851Y-149594150D03*
D14*
X57224541Y-149702855D03*
D15*
X62131441Y-151017654D03*
D14*
X67038348Y-152332456D03*
D13*
X67444028Y-152441159D03*
D16*
X65899695Y-146768152D03*
D17*
X67944582Y-148641233D03*
D19*
X59108665Y-147578102D03*
D17*
X63658476Y-145318693D03*
D13*
X51897769Y-167984411D03*
D14*
X52303459Y-168093116D03*
D15*
X57210359Y-169407915D03*
D14*
X62117266Y-170722717D03*
D13*
X62522946Y-170831420D03*
D16*
X60978613Y-165158413D03*
D17*
X63023500Y-167031494D03*
D19*
X54187583Y-165968363D03*
D17*
X58737394Y-163708954D03*
D13*
X247466292Y-210961276D03*
D14*
X247871983Y-210852572D03*
D15*
X252778882Y-209537772D03*
D14*
X257685789Y-208222970D03*
D13*
X258091470Y-208114268D03*
D16*
X253917535Y-203973468D03*
D17*
X256624999Y-204573161D03*
D18*
X248441307Y-208070422D03*
D17*
X251251853Y-203838810D03*
D13*
X89876978Y-173451134D03*
D14*
X90282668Y-173559839D03*
D15*
X95189568Y-174874638D03*
D14*
X100096475Y-176189440D03*
D13*
X100502155Y-176298143D03*
D16*
X98957822Y-170625136D03*
D17*
X101002709Y-172498217D03*
D19*
X92166792Y-171435086D03*
D17*
X96716603Y-169175677D03*
D13*
X144694631Y-189704086D03*
D14*
X145100321Y-189812791D03*
D15*
X150007221Y-191127590D03*
D14*
X154914128Y-192442392D03*
D13*
X155319808Y-192551095D03*
D16*
X153775475Y-186878088D03*
D17*
X155820362Y-188751169D03*
D19*
X146984445Y-187688038D03*
D17*
X151534256Y-185428629D03*
D13*
X297344007Y-176296817D03*
D14*
X297749698Y-176188113D03*
D15*
X302656597Y-174873313D03*
D14*
X307563504Y-173558511D03*
D13*
X307969185Y-173449809D03*
D16*
X303795250Y-169309009D03*
D17*
X306502714Y-169908702D03*
D18*
X298319022Y-173405963D03*
D17*
X301129568Y-169174351D03*
D13*
X255608892Y-167770844D03*
D14*
X256014583Y-167662140D03*
D15*
X260921482Y-166347340D03*
D14*
X265828389Y-165032538D03*
D13*
X266234070Y-164923836D03*
D16*
X262060135Y-160783036D03*
D17*
X264767599Y-161382729D03*
D18*
X256583907Y-164879990D03*
D17*
X259394453Y-160648378D03*
D13*
X287483008Y-139495047D03*
D14*
X287888699Y-139386343D03*
D15*
X292795598Y-138071543D03*
D14*
X297702505Y-136756741D03*
D13*
X298108186Y-136648039D03*
D16*
X293934251Y-132507239D03*
D17*
X296641715Y-133106932D03*
D18*
X288458023Y-136604193D03*
D17*
X291268569Y-132372581D03*
D13*
X80538804Y-134673622D03*
D14*
X80944494Y-134782327D03*
D15*
X85851394Y-136097126D03*
D14*
X90758301Y-137411928D03*
D13*
X91163981Y-137520631D03*
D16*
X89619648Y-131847624D03*
D17*
X91664535Y-133720705D03*
D19*
X82828618Y-132657574D03*
D17*
X87378429Y-130398165D03*
D22*
X198923552Y-184510917D03*
D13*
X159486135Y-134501426D03*
D14*
X159891825Y-134610131D03*
D15*
X164798725Y-135924930D03*
D14*
X169705632Y-137239732D03*
D13*
X170111316Y-137348432D03*
D16*
X168566979Y-131675428D03*
D20*
X165797684Y-142223085D03*
D17*
X170611865Y-133548509D03*
D19*
X161775949Y-132485380D03*
D17*
X166325760Y-130225969D03*
D20*
X166185910Y-140774199D03*
X161163096Y-139428338D03*
X160774869Y-140877225D03*
D13*
X85478726Y-116262113D03*
D14*
X85884416Y-116370818D03*
D15*
X90791316Y-117685617D03*
D14*
X95698223Y-119000419D03*
D13*
X96103907Y-119109119D03*
D16*
X94559570Y-113436115D03*
D20*
X91790275Y-123983772D03*
D17*
X96604456Y-115309196D03*
D19*
X87768540Y-114246067D03*
D17*
X92318351Y-111986656D03*
D20*
X92178501Y-122534886D03*
X87155687Y-121189025D03*
X86767460Y-122637912D03*
D13*
X263754324Y-124566495D03*
D14*
X264160015Y-124457791D03*
D15*
X269066914Y-123142991D03*
D14*
X273973821Y-121828189D03*
D13*
X274379504Y-121719485D03*
D16*
X270205567Y-117578687D03*
D21*
X273081116Y-128097875D03*
D17*
X272913031Y-118178380D03*
D18*
X264729339Y-121675641D03*
D17*
X267539885Y-117444029D03*
D21*
X272692886Y-126648988D03*
X267670072Y-127994844D03*
X268058300Y-129443732D03*
D13*
X211888165Y-234868916D03*
D14*
X212185151Y-234571930D03*
D15*
X215777251Y-230979830D03*
D14*
X219369356Y-227387725D03*
D13*
X219666337Y-227090746D03*
D16*
X213981201Y-225591675D03*
D17*
X216625779Y-224757290D03*
D27*
X211287125Y-231877855D03*
D17*
X211605323Y-226807898D03*
D13*
X273612487Y-161382181D03*
D14*
X274018178Y-161273477D03*
D15*
X278925077Y-159958677D03*
D14*
X283831984Y-158643875D03*
D13*
X284237665Y-158535173D03*
D16*
X280063730Y-154394373D03*
D17*
X282771194Y-154994066D03*
D18*
X274587502Y-158491327D03*
D17*
X277398048Y-154259715D03*
D13*
X228133492Y-220522170D03*
D14*
X228497224Y-220312169D03*
D15*
X232896630Y-217772171D03*
D14*
X237296042Y-215232169D03*
D13*
X237659766Y-215022173D03*
D16*
X232556336Y-212102761D03*
D17*
X235326758Y-211981277D03*
D28*
X228327076Y-217477467D03*
D17*
X229946633Y-212662621D03*
D13*
X123463826Y-121706903D03*
D14*
X123869516Y-121815608D03*
D15*
X128776416Y-123130407D03*
D14*
X133683323Y-124445209D03*
D13*
X134089007Y-124553909D03*
D16*
X132544670Y-118880905D03*
D20*
X129775375Y-129428562D03*
D17*
X134589556Y-120753986D03*
D19*
X125753640Y-119690857D03*
D17*
X130303451Y-117431446D03*
D20*
X130163601Y-127979676D03*
X125140787Y-126633815D03*
X124752560Y-128082702D03*
D29*
X75171507Y-144004050D03*
X74446813Y-146708650D03*
D30*
X237654072Y-184942353D03*
X238378768Y-187646947D03*
D29*
X80102012Y-125603173D03*
X79377318Y-128307773D03*
D22*
X368318758Y-152176802D03*
D31*
X221451390Y-214438410D03*
X222851396Y-216863284D03*
D29*
X85083838Y-107107325D03*
X84359144Y-109811925D03*
D22*
X300916778Y-103898615D03*
D30*
X278575383Y-190566400D03*
X279300079Y-193270994D03*
X287509707Y-150306186D03*
X288234403Y-153010780D03*
D29*
X126241973Y-174241690D03*
X125517279Y-176946290D03*
D30*
X216778634Y-180694391D03*
X217503330Y-183398985D03*
X263781026Y-135377643D03*
X264505722Y-138082237D03*
D32*
X203911439Y-230760897D03*
X205891343Y-232740791D03*
D30*
X306696624Y-148333737D03*
X307421320Y-151038331D03*
D29*
X139324129Y-199021967D03*
X138599435Y-201726567D03*
X113156604Y-149448845D03*
X112431910Y-152153445D03*
D30*
X222799131Y-129669531D03*
X223523827Y-132374125D03*
X296745722Y-111445482D03*
X297470418Y-114150076D03*
X277558797Y-113417925D03*
X278283493Y-116122519D03*
X297368427Y-187080005D03*
X298093123Y-189784599D03*
X311627126Y-166734626D03*
X312351822Y-169439220D03*
D29*
X154109422Y-143842484D03*
X153384728Y-146547084D03*
X159057603Y-125472215D03*
X158332909Y-128176815D03*
D30*
X232723570Y-166541471D03*
X233448266Y-169246065D03*
X315535172Y-107965116D03*
X316259868Y-110669710D03*
D29*
X65326137Y-180772025D03*
X64601443Y-183476625D03*
D30*
X258515278Y-116956009D03*
X259239974Y-119660603D03*
X260586191Y-196971301D03*
X261310887Y-199675895D03*
D33*
X162115418Y-206160732D03*
X160715414Y-208585608D03*
D34*
X182259252Y-219027636D03*
X180279358Y-221007540D03*
D29*
X66294383Y-103626970D03*
X65569689Y-106331570D03*
D30*
X228016328Y-148103143D03*
X228741024Y-150807737D03*
D29*
X89409838Y-164397386D03*
X88685144Y-167101986D03*
D30*
X320555574Y-126452492D03*
X321280270Y-129157086D03*
D29*
X51436904Y-158907198D03*
X50712210Y-161611798D03*
X99301198Y-127578905D03*
X98576504Y-130283505D03*
X144248415Y-180644262D03*
X143523721Y-183348862D03*
D30*
X242601563Y-203371015D03*
X243326259Y-206075609D03*
D29*
X108226094Y-167849729D03*
X107501400Y-170554329D03*
D30*
X330171230Y-163320006D03*
X330895926Y-166024600D03*
X325486074Y-144853382D03*
X326210770Y-147557976D03*
X301766121Y-129932853D03*
X302490817Y-132637447D03*
D29*
X136102898Y-137464732D03*
X135378204Y-140169332D03*
D30*
X240757023Y-123278935D03*
X241481719Y-125983529D03*
X250707928Y-160167195D03*
X251432624Y-162871789D03*
D29*
X103311234Y-186216812D03*
X102586540Y-188921412D03*
X149178921Y-162243369D03*
X148454227Y-164947969D03*
D30*
X292440209Y-168707076D03*
X293164905Y-171411670D03*
X346423187Y-149145341D03*
X347147883Y-151849935D03*
X273642036Y-172179417D03*
X274366732Y-174884011D03*
D29*
X131172474Y-155840800D03*
X130447780Y-158545400D03*
X35530153Y-144861641D03*
X34805459Y-147566241D03*
X118087104Y-131047960D03*
X117362410Y-133752560D03*
D22*
X340741778Y-199373615D03*
D30*
X316560472Y-185121605D03*
X317285168Y-187826199D03*
D29*
X141051153Y-119069640D03*
X140326459Y-121774240D03*
X165174057Y-176442024D03*
X164449363Y-179146624D03*
D30*
X245777425Y-141766303D03*
X246502121Y-144470897D03*
X255660516Y-178539786D03*
X256385212Y-181244380D03*
X282579200Y-131905300D03*
X283303896Y-134609894D03*
D29*
X84515903Y-182758377D03*
X83791209Y-185462977D03*
X121317678Y-192619384D03*
X120592984Y-195323984D03*
D30*
X268711528Y-153778529D03*
X269436224Y-156483123D03*
D29*
X70226019Y-162388811D03*
X69501325Y-165093411D03*
X123035288Y-112677690D03*
X122310594Y-115382290D03*
X61312560Y-122122814D03*
X60587866Y-124827414D03*
X56136718Y-140457956D03*
X55412024Y-143162556D03*
X94370697Y-145979797D03*
X93646003Y-148684397D03*
X104037683Y-109017326D03*
X103312989Y-111721926D03*
%LPD*%
M02*
