  0
SECTION
  2
HEADER
  9
$ANGBASE
  50
0.0
  9
$ANGDIR
  70
1
  9
$MEASUREMENT
  70
1
  0
ENDSEC
  0
SECTION
  2
TABLES
  0
TABLE
  2
LTYPE
  70
4
  0
LTYPE
  5
40F
  2
CONTINUOUS
  70
0
  3
Solid line
  72
65
  73
0
  40
0.0
  0
LTYPE
  5
410
  2
DASHDOT
 70
0
  3
Dash Dot ____ _ ____ _
 72
65
 73
4
 40
2.0
 49
1.25
 49
-0.25
 49
0.25
 49
-0.25
  0
LTYPE
  5
411
  2
DASHED
 70
0
  3
Dashed __ __ __ __ __
 72
65
 73
2
 40
0.75
 49
0.5
 49
-0.25
  0
LTYPE
  5
43B
  2
DOTTED
 70
0
  3
Dotted .  .  .  .
 72
65
 73
2
 40
0.2
 49
0.0
 49
-0.2
  0
ENDTAB
  0
TABLE
  2
STYLE
  70
4
  0
STYLE
  2
KICAD
  70
0
  40
0
  41
1
  42
1
  50
0
  71
0
  3
isocp.shx
  0
STYLE
  2
KICADB
  70
0
  40
0
  41
1
  42
1
  50
0
  71
0
  3
isocp.shx
  0
STYLE
  2
KICADI
  70
0
  40
0
  41
1
  42
1
  50
15
  71
0
  3
isocp.shx
  0
STYLE
  2
KICADBI
  70
0
  40
0
  41
1
  42
1
  50
15
  71
0
  3
isocp.shx
  0
ENDTAB
  0
TABLE
  2
LAYER
  70
1
  0
LAYER
  2
BLACK
  70
0
  62
7
  6
CONTINUOUS
  0
ENDTAB
  0
ENDSEC
  0
SECTION
  2
ENTITIES
0
LINE
8
BLACK
6
CONTINUOUS
10
214.0735540000000015
20
-178.8138439999999889
11
214.073553000000004
21
-192.8138439999999889
0
LINE
8
BLACK
6
CONTINUOUS
10
228.0735519999999781
20
-178.8138439999999889
11
214.0735540000000015
21
-178.8138439999999889
0
LINE
8
BLACK
6
CONTINUOUS
10
228.0735529999999756
20
-192.8138439999999889
11
228.0735519999999781
21
-178.8138439999999889
0
ARC
8
BLACK
10
221.073553000000004
20
-183.0235950000000003
40
12.0353219932829791
50
-125.56465943
51
-54.43534057
0
LINE
8
BLACK
6
CONTINUOUS
10
61.3798379999999995
20
-152.4792939999999817
11
50.6930109999999985
21
-149.6125529999999912
0
LINE
8
BLACK
6
CONTINUOUS
10
102.9659209999999945
20
-86.2851369999999918
11
104.8152829999999938
21
-85.2174040000000019
0
LINE
8
BLACK
6
CONTINUOUS
10
52.7928949999999944
20
-126.2958439999999882
11
47.8614559999999969
21
-144.7127329999999859
0
LINE
8
BLACK
6
CONTINUOUS
10
342.2556989999999928
20
-190.7810929999999985
11
338.5062059999999633
21
-188.6108209999999872
0
LINE
8
BLACK
6
CONTINUOUS
10
77.3063489999999973
20
-166.5751730000000066
11
66.6532770000000028
21
-163.720690999999988
0
LINE
8
BLACK
6
CONTINUOUS
10
80.1347739999999931
20
-171.4741510000000062
11
77.6569760000000002
21
-180.7089179999999828
0
LINE
8
BLACK
6
CONTINUOUS
10
125.4808499999999896
20
-87.6074879999999894
11
140.9453220000000044
21
-91.7511779999999959
0
LINE
8
BLACK
6
CONTINUOUS
10
299.2287269999999921
20
-90.6693059999999917
11
301.1025869999999713
21
-91.7511789999999934
0
ARC
8
BLACK
10
390.3226999999999975
20
-145.7479999999999905
40
4.0000448490866951
50
-75.04571786
51
14.99964724
0
LINE
8
BLACK
6
CONTINUOUS
10
375.3946300000000065
20
-163.7206919999999855
11
364.7415579999999977
21
-166.5751740000000041
0
CIRCLE
8
BLACK
10
251.0735519999999781
20
-185.4809159999999792
40
1.1500589999999999
0
LINE
8
BLACK
6
CONTINUOUS
10
342.2556989999999928
20
-190.7810929999999985
11
361.559381999999971
21
-185.6087359999999933
0
LINE
8
BLACK
6
CONTINUOUS
10
223.858130999999986
20
-219.7262959999999907
11
235.0836499999999774
21
-230.956877999999989
0
LINE
8
BLACK
6
CONTINUOUS
10
256.9519760000000019
20
-105.1342140000000001
11
242.509523999999999
21
-109.0143979999999999
0
LINE
8
BLACK
6
CONTINUOUS
10
104.8152829999999938
20
-85.2174040000000019
11
121.7576219999999978
21
-89.7570929999999976
0
LINE
8
BLACK
6
CONTINUOUS
10
102.9659209999999945
20
-86.2851369999999918
11
88.4311539999999923
21
-82.3806249999999949
0
LINE
8
BLACK
6
CONTINUOUS
10
119.9256639999999976
20
-191.4479790000000037
11
135.4287769999999966
21
-195.6020249999999976
0
LINE
8
BLACK
6
CONTINUOUS
10
167.0762029999999925
20
-98.7425779999999946
11
166.0110619999999813
21
-96.8835539999999895
0
ARC
8
BLACK
10
221.0296999999999912
20
-222.5548000000000002
40
4.0000463451520156
50
45.00073937
51
135.04559825
0
CIRCLE
8
BLACK
10
341.033551999999986
20
-108.8609159999999889
40
1.1500599999999999
0
LINE
8
BLACK
6
CONTINUOUS
10
289.9368319999999812
20
-203.1985669999999971
11
270.0484149999999772
21
-208.5276539999999841
0
ARC
8
BLACK
10
204.133499999999998
20
-228.1305999999999869
40
4.0001333041103768
50
-134.99807561
51
-44.95467621
0
ARC
8
BLACK
10
76.2711999999999932
20
-170.4387999999999863
40
3.9998933794952585
50
-15.00151461
51
75.00147680
0
LINE
8
BLACK
6
CONTINUOUS
10
188.5600619999999878
20
-217.9431679999999858
11
201.3051169999999956
21
-230.9591729999999927
0
LINE
8
BLACK
6
CONTINUOUS
10
83.5290509999999955
20
-85.2082149999999956
11
73.2824159999999978
21
-123.5005649999999946
0
LINE
8
BLACK
6
CONTINUOUS
10
194.7824530000000038
20
-158.0720769999999789
11
208.9935099999999863
21
-163.501025999999996
0
LINE
8
BLACK
6
CONTINUOUS
10
151.0362789999999791
20
-201.3369539999999915
11
152.1110819999999819
21
-203.1985719999999844
0
LINE
8
BLACK
6
CONTINUOUS
10
80.4885259999999931
20
-185.6087339999999983
11
99.7922099999999972
21
-190.781093999999996
0
ARC
8
BLACK
10
87.3926999999999907
20
-86.2433999999999941
40
3.9999239467052368
50
74.95258972
51
165.00106025
0
LINE
8
BLACK
6
CONTINUOUS
10
103.5417039999999957
20
-188.6108209999999872
11
99.7922099999999972
21
-190.781093999999996
0
LINE
8
BLACK
6
CONTINUOUS
10
337.232625999999982
20
-85.2174069999999944
11
339.0819889999999646
21
-86.2851339999999993
0
CIRCLE
8
BLACK
10
191.0435520000000054
20
-185.4109169999999835
40
1.1500589999999999
0
LINE
8
BLACK
6
CONTINUOUS
10
322.1222459999999614
20
-191.4479790000000037
11
323.9577219999999897
21
-192.5090799999999831
0
LINE
8
BLACK
6
CONTINUOUS
10
391.354898999999989
20
-149.6125509999999963
11
380.6680719999999951
21
-152.4792960000000051
0
LINE
8
BLACK
6
CONTINUOUS
10
353.6167519999999627
20
-82.3806229999999999
11
339.0819889999999646
21
-86.2851339999999993
0
LINE
8
BLACK
6
CONTINUOUS
10
320.290284999999983
20
-89.7570910000000026
11
337.232625999999982
21
-85.2174069999999944
0
CIRCLE
8
BLACK
10
175.453552000000002
20
-125.6426680000000005
40
1.1500599999999999
0
CIRCLE
8
BLACK
10
86.2735509999999977
20
-164.0409159999999815
40
1.1500599999999999
0
ARC
8
BLACK
10
385.3911999999999694
20
-127.3312999999999988
40
4.0001434154226274
50
15.00211159
51
105.04414519
0
LINE
8
BLACK
6
CONTINUOUS
10
240.7427929999999776
20
-230.9591709999999978
11
253.4878439999999955
21
-217.9431689999999833
0
ARC
8
BLACK
10
243.5415999999999883
20
-112.8789000000000016
40
3.9999363425377159
50
-255.04723894
51
-164.99918000
0
LINE
8
BLACK
6
CONTINUOUS
10
185.0959330000000023
20
-105.1342149999999975
11
184.0281990000000008
21
-103.2848499999999916
0
LINE
8
BLACK
6
CONTINUOUS
10
306.6191469999999981
20
-195.6020340000000033
11
305.5601139999999987
21
-197.4387040000000013
0
ARC
8
BLACK
10
282.7828000000000088
20
-250.1971999999999809
40
43.5719745110420362
50
106.99336460
51
132.24752474
0
ARC
8
BLACK
10
69.4187000000000012
20
-122.4652600000000007
40
4.0000197214115083
50
-104.99965863
51
-15.00035168
0
LINE
8
BLACK
6
CONTINUOUS
10
140.9453220000000044
20
-91.7511779999999959
11
142.8191819999999836
21
-90.6693049999999943
0
LINE
8
BLACK
6
CONTINUOUS
10
118.0901859999999886
20
-192.5090789999999856
11
103.5417039999999957
21
-188.6108209999999872
0
LINE
8
BLACK
6
CONTINUOUS
10
64.2082639999999998
20
-157.3782769999999971
11
63.8217229999999986
21
-158.8208750000000009
0
CIRCLE
8
BLACK
10
101.0835519999999974
20
-108.7909169999999932
40
1.1500589999999999
0
ARC
8
BLACK
10
246.3093999999999824
20
-154.1983999999999924
40
3.9999823092065041
50
-75.00026471
51
15.00051010
0
LINE
8
BLACK
6
CONTINUOUS
10
68.3834399999999931
20
-126.3289949999999919
11
57.6950000000000003
21
-123.4682539999999875
0
LINE
8
BLACK
6
CONTINUOUS
10
289.9368319999999812
20
-203.1985669999999971
11
291.0116289999999708
21
-201.3369589999999789
0
LINE
8
BLACK
6
CONTINUOUS
10
121.7576219999999978
20
-89.7570929999999976
11
125.4808499999999896
21
-87.6074879999999894
0
LINE
8
BLACK
6
CONTINUOUS
10
276.0368469999999661
20
-96.883552999999992
11
299.2287269999999921
21
-90.6693059999999917
0
LINE
8
BLACK
6
CONTINUOUS
10
136.4877970000000005
20
-197.4387019999999779
11
135.4287630000000036
21
-195.6020340000000033
0
LINE
8
BLACK
6
CONTINUOUS
10
377.8396459999999593
20
-157.3782769999999971
11
378.2261869999999817
21
-158.8208740000000034
0
ARC
8
BLACK
10
365.7768999999999551
20
-170.4388999999999896
40
4.0000547487239464
50
-254.99917347
51
-165.00059836
0
ARC
8
BLACK
10
381.7031999999999812
20
-156.342899999999986
40
3.9998818786365424
50
-255.00168211
51
-164.99805150
0
LINE
8
BLACK
6
CONTINUOUS
10
136.4877970000000005
20
-197.4387019999999779
11
151.0362789999999791
21
-201.3369539999999915
0
LINE
8
BLACK
6
CONTINUOUS
10
306.6191329999999766
20
-195.6020220000000052
11
322.1222459999999614
21
-191.4479790000000037
0
CIRCLE
8
BLACK
10
160.6435519999999997
20
-180.8909160000000043
40
1.1500599999999999
0
ARC
8
BLACK
10
195.8177000000000021
20
-154.2083999999999833
40
3.9999670387814446
50
-195.00051110
51
-104.99969378
0
LINE
8
BLACK
6
CONTINUOUS
10
274.9717059999999833
20
-98.7425759999999997
11
258.0197059999999851
21
-103.2848539999999957
0
ARC
8
BLACK
10
198.5854999999999961
20
-112.8888999999999925
40
3.9999446377920034
50
-15.00080517
51
75.04717989
0
LINE
8
BLACK
6
CONTINUOUS
10
258.0197059999999851
20
-103.2848539999999957
11
256.9519760000000019
21
-105.1342140000000001
0
ARC
8
BLACK
10
60.3445999999999998
20
-156.3429999999999893
40
3.9999927213783772
50
-15.00015706
51
75.00053825
0
LINE
8
BLACK
6
CONTINUOUS
10
118.0901859999999886
20
-192.5090789999999856
11
119.9256639999999976
21
-191.4479790000000037
0
LINE
8
BLACK
6
CONTINUOUS
10
316.567060999999967
20
-87.6074859999999944
11
320.290284999999983
21
-89.7570910000000026
0
ARC
8
BLACK
10
237.9144000000000005
20
-228.1307999999999936
40
3.9999361840021899
50
-135.04732083
51
-44.99977717
0
LINE
8
BLACK
6
CONTINUOUS
10
199.6175800000000038
20
-109.0243989999999883
11
185.0959330000000023
21
-105.1342149999999975
0
CIRCLE
8
BLACK
10
266.6535519999999906
20
-125.7109159999999974
40
1.1500589999999999
0
LINE
8
BLACK
6
CONTINUOUS
10
384.3529100000000085
20
-123.4682569999999942
11
373.6644689999999969
21
-126.3289959999999894
0
ARC
8
BLACK
10
360.5271999999999935
20
-181.744199999999978
40
4.0000287056749979
50
-75.04589768
51
14.99994647
0
ARC
8
BLACK
10
372.629099999999994
20
-122.4653999999999883
40
3.9999203763796345
50
-165.00117115
51
-74.99831791
0
LINE
8
BLACK
6
CONTINUOUS
10
184.0281990000000008
20
-103.2848499999999916
11
167.0762029999999925
21
-98.7425779999999946
0
ARC
8
BLACK
10
374.3623999999999796
20
-159.8560999999999979
40
4.0000678559800704
50
-75.04544041
51
14.99899544
0
LINE
8
BLACK
6
CONTINUOUS
10
202.4491309999999942
20
-113.9242149999999896
11
191.9540269999999964
21
-153.1730949999999893
0
ARC
8
BLACK
10
81.5207999999999942
20
-181.7441000000000031
40
4.0001231937319126
50
-194.99824952
51
-104.95501323
0
LINE
8
BLACK
6
CONTINUOUS
10
291.0116289999999708
20
-201.3369589999999789
11
305.5601139999999987
21
-197.4387040000000013
0
LINE
8
BLACK
6
CONTINUOUS
10
233.1335519999999804
20
-163.4909159999999986
11
247.3446500000000015
21
-158.0620769999999879
0
ARC
8
BLACK
10
51.7254000000000005
20
-145.7478999999999871
40
4.0001712285513475
50
-194.99759719
51
-104.95653440
0
LINE
8
BLACK
6
CONTINUOUS
10
171.9994920000000036
20
-208.5276489999999967
11
152.1110819999999819
21
-203.1985719999999844
0
LINE
8
BLACK
6
CONTINUOUS
10
233.1335519999999804
20
-163.4909159999999986
11
208.993551999999994
21
-163.5009159999999895
0
LINE
8
BLACK
6
CONTINUOUS
10
338.5062059999999633
20
-188.6108209999999872
11
323.9577219999999897
21
-192.5090799999999831
0
ARC
8
BLACK
10
159.265199999999993
20
-250.1970000000000027
40
43.5717454952457075
50
47.75239083
51
73.00667374
0
LINE
8
BLACK
6
CONTINUOUS
10
142.8191819999999836
20
-90.6693049999999943
11
166.0110619999999813
21
-96.8835539999999895
0
CIRCLE
8
BLACK
10
355.8435519999999883
20
-164.1109160000000031
40
1.1500599999999999
0
LINE
8
BLACK
6
CONTINUOUS
10
276.0368469999999661
20
-96.883552999999992
11
274.9717059999999833
21
-98.7425759999999997
0
ARC
8
BLACK
10
354.6553000000000111
20
-86.2432000000000016
40
3.9997603714763961
50
14.99654115
51
105.04944700
0
CIRCLE
8
BLACK
10
281.4635519999999929
20
-180.9709159999999883
40
1.1500589999999999
0
LINE
8
BLACK
6
CONTINUOUS
10
250.1730769999999779
20
-153.163094000000001
11
239.6779729999999802
21
-113.9142149999999987
0
ARC
8
BLACK
10
67.6856999999999971
20
-159.8559999999999945
40
4.0002167161805122
50
-194.99689379
51
-104.95686441
0
ARC
8
BLACK
10
56.656569999999995
20
-127.3310699999999969
40
3.9999596718843304
50
74.95307418
51
165.00058936
0
LINE
8
BLACK
6
CONTINUOUS
10
301.1025869999999713
20
-91.7511789999999934
11
316.567060999999967
21
-87.6074859999999944
0
LINE
8
BLACK
6
CONTINUOUS
10
364.3909319999999639
20
-180.7089199999999778
11
361.9131329999999593
21
-171.4741499999999803
0
LINE
8
BLACK
6
CONTINUOUS
10
394.1864529999999718
20
-144.7127360000000067
11
389.2550159999999551
21
-126.2958409999999958
0
LINE
8
BLACK
6
CONTINUOUS
10
368.7654919999999947
20
-123.5005659999999921
11
358.5188569999999686
21
-85.2082130000000006
0
LINE
8
BLACK
6
CONTINUOUS
10
206.9642580000000009
20
-230.9568829999999764
11
218.1989899999999807
21
-219.7285919999999919
0
LINE
8
BLACK
6
CONTINUOUS
10
257.6755279999999857
20
-175.5343119999999999
11
244.1525659999999789
21
-179.157779000000005
0
LINE
8
BLACK
6
CONTINUOUS
10
244.1525659999999789
20
-179.157779000000005
11
240.5290999999999997
21
-165.6348169999999982
0
LINE
8
BLACK
6
CONTINUOUS
10
240.5290999999999997
20
-165.6348169999999982
11
254.0520599999999831
21
-162.0113509999999906
0
LINE
8
BLACK
6
CONTINUOUS
10
254.0520599999999831
20
-162.0113509999999906
11
257.6755279999999857
21
-175.5343119999999999
0
LINE
8
BLACK
6
CONTINUOUS
10
106.6870179999999948
20
-151.6519439999999861
11
103.0635520000000014
21
-165.1749059999999929
0
LINE
8
BLACK
6
CONTINUOUS
10
103.0635520000000014
20
-165.1749059999999929
11
89.5405909999999921
21
-161.5514399999999853
0
LINE
8
BLACK
6
CONTINUOUS
10
89.5405909999999921
20
-161.5514399999999853
11
93.1640579999999972
21
-148.0284780000000069
0
LINE
8
BLACK
6
CONTINUOUS
10
93.1640579999999972
20
-148.0284780000000069
11
106.6870179999999948
21
-151.6519439999999861
0
LINE
8
BLACK
6
CONTINUOUS
10
352.5411939999999618
20
-161.5518359999999802
11
339.0182320000000118
21
-165.1753029999999853
0
LINE
8
BLACK
6
CONTINUOUS
10
339.0182320000000118
20
-165.1753029999999853
11
335.3947660000000042
21
-151.6523410000000069
0
LINE
8
BLACK
6
CONTINUOUS
10
335.3947660000000042
20
-151.6523410000000069
11
348.9177259999999592
21
-148.0288749999999993
0
LINE
8
BLACK
6
CONTINUOUS
10
348.9177259999999592
20
-148.0288749999999993
11
352.5411939999999618
21
-161.5518359999999802
0
LINE
8
BLACK
6
CONTINUOUS
10
268.6850430000000074
20
-142.9860899999999901
11
255.1620810000000006
21
-146.6095569999999952
0
LINE
8
BLACK
6
CONTINUOUS
10
255.1620810000000006
20
-146.6095569999999952
11
251.538614999999993
21
-133.0865949999999884
0
LINE
8
BLACK
6
CONTINUOUS
10
251.538614999999993
20
-133.0865949999999884
11
265.0615750000000048
21
-129.4631289999999808
0
LINE
8
BLACK
6
CONTINUOUS
10
265.0615750000000048
20
-129.4631289999999808
11
268.6850430000000074
21
-142.9860899999999901
0
LINE
8
BLACK
6
CONTINUOUS
10
342.680183999999997
20
-124.7500670000000014
11
329.1572219999999902
21
-128.3735340000000065
0
LINE
8
BLACK
6
CONTINUOUS
10
329.1572219999999902
20
-128.3735340000000065
11
325.5337559999999826
21
-114.8505719999999997
0
LINE
8
BLACK
6
CONTINUOUS
10
325.5337559999999826
20
-114.8505719999999997
11
339.0567159999999944
21
-111.227105999999992
0
LINE
8
BLACK
6
CONTINUOUS
10
339.0567159999999944
20
-111.227105999999992
11
342.680183999999997
21
-124.7500670000000014
0
LINE
8
BLACK
6
CONTINUOUS
10
338.281926999999996
20
-181.9390809999999874
11
324.7589649999999892
21
-185.5625479999999925
0
LINE
8
BLACK
6
CONTINUOUS
10
324.7589649999999892
20
-185.5625479999999925
11
321.1354989999999816
21
-172.0395859999999857
0
LINE
8
BLACK
6
CONTINUOUS
10
321.1354989999999816
20
-172.0395859999999857
11
334.6584589999999935
21
-168.4161200000000065
0
LINE
8
BLACK
6
CONTINUOUS
10
334.6584589999999935
20
-168.4161200000000065
11
338.281926999999996
21
-181.9390809999999874
0
LINE
8
BLACK
6
CONTINUOUS
10
111.6175209999999964
20
-133.2510509999999897
11
107.9940549999999888
21
-146.7740129999999965
0
LINE
8
BLACK
6
CONTINUOUS
10
107.9940549999999888
20
-146.7740129999999965
11
94.4710939999999937
21
-143.1505469999999889
0
LINE
8
BLACK
6
CONTINUOUS
10
94.4710939999999937
20
-143.1505469999999889
11
98.0945609999999988
21
-129.6275849999999821
0
LINE
8
BLACK
6
CONTINUOUS
10
98.0945609999999988
20
-129.6275849999999821
11
111.6175209999999964
21
-133.2510509999999897
0
LINE
8
BLACK
6
CONTINUOUS
10
97.7585789999999974
20
-111.3698069999999944
11
94.1351129999999898
21
-124.8927690000000013
0
LINE
8
BLACK
6
CONTINUOUS
10
94.1351129999999898
20
-124.8927690000000013
11
80.6121519999999947
21
-121.2693029999999936
0
LINE
8
BLACK
6
CONTINUOUS
10
80.6121519999999947
20
-121.2693029999999936
11
84.2356189999999998
21
-107.746341000000001
0
LINE
8
BLACK
6
CONTINUOUS
10
84.2356189999999998
20
-107.746341000000001
11
97.7585789999999974
21
-111.3698069999999944
0
LINE
8
BLACK
6
CONTINUOUS
10
130.8261320000000012
20
-135.2161679999999819
11
127.2026659999999936
21
-148.7391299999999887
0
LINE
8
BLACK
6
CONTINUOUS
10
127.2026659999999936
20
-148.7391299999999887
11
113.6797049999999984
21
-145.1156639999999811
0
LINE
8
BLACK
6
CONTINUOUS
10
113.6797049999999984
20
-145.1156639999999811
11
117.3031719999999893
21
-131.5927020000000027
0
LINE
8
BLACK
6
CONTINUOUS
10
117.3031719999999893
20
-131.5927020000000027
11
130.8261320000000012
21
-135.2161679999999819
0
LINE
8
BLACK
6
CONTINUOUS
10
102.6984999999999957
20
-92.9582920000000001
11
99.0750340000000023
21
-106.4812539999999927
0
LINE
8
BLACK
6
CONTINUOUS
10
99.0750340000000023
20
-106.4812539999999927
11
85.5520729999999929
21
-102.8577879999999993
0
LINE
8
BLACK
6
CONTINUOUS
10
85.5520729999999929
20
-102.8577879999999993
11
89.175539999999998
21
-89.3348259999999925
0
LINE
8
BLACK
6
CONTINUOUS
10
89.175539999999998
20
-89.3348259999999925
11
102.6984999999999957
21
-92.9582920000000001
0
LINE
8
BLACK
6
CONTINUOUS
10
356.5391379999999799
20
-102.8688179999999903
11
343.0161759999999731
21
-106.4922849999999954
0
LINE
8
BLACK
6
CONTINUOUS
10
343.0161759999999731
20
-106.4922849999999954
11
339.3927099999999655
21
-92.9693230000000028
0
LINE
8
BLACK
6
CONTINUOUS
10
339.3927099999999655
20
-92.9693230000000028
11
352.9156699999999773
21
-89.3458569999999952
0
LINE
8
BLACK
6
CONTINUOUS
10
352.9156699999999773
20
-89.3458569999999952
11
356.5391379999999799
21
-102.8688179999999903
0
LINE
8
BLACK
6
CONTINUOUS
10
139.7416159999999934
20
-175.4976110000000062
11
136.1181499999999858
21
-189.0205729999999846
0
LINE
8
BLACK
6
CONTINUOUS
10
136.1181499999999858
20
-189.0205729999999846
11
122.5951889999999906
21
-185.3971070000000054
0
LINE
8
BLACK
6
CONTINUOUS
10
122.5951889999999906
20
-185.3971070000000054
11
126.2186559999999957
21
-171.8741449999999986
0
LINE
8
BLACK
6
CONTINUOUS
10
126.2186559999999957
20
-171.8741449999999986
11
139.7416159999999934
21
-175.4976110000000062
0
LINE
8
BLACK
6
CONTINUOUS
10
167.6184859999999901
20
-145.0877969999999948
11
163.9950199999999825
21
-158.6107590000000016
0
LINE
8
BLACK
6
CONTINUOUS
10
163.9950199999999825
20
-158.6107590000000016
11
150.4720590000000016
21
-154.987292999999994
0
LINE
8
BLACK
6
CONTINUOUS
10
150.4720590000000016
20
-154.987292999999994
11
154.0955260000000067
21
-141.4643309999999872
0
LINE
8
BLACK
6
CONTINUOUS
10
154.0955260000000067
20
-141.4643309999999872
11
167.6184859999999901
21
-145.0877969999999948
0
LINE
8
BLACK
6
CONTINUOUS
10
263.7545420000000149
20
-124.585211000000001
11
250.2315799999999797
21
-128.2086779999999919
0
LINE
8
BLACK
6
CONTINUOUS
10
250.2315799999999797
20
-128.2086779999999919
11
246.6081140000000005
21
-114.6857159999999993
0
LINE
8
BLACK
6
CONTINUOUS
10
246.6081140000000005
20
-114.6857159999999993
11
260.1310740000000123
21
-111.0622499999999917
0
LINE
8
BLACK
6
CONTINUOUS
10
260.1310740000000123
20
-111.0622499999999917
11
263.7545420000000149
21
-124.585211000000001
0
LINE
8
BLACK
6
CONTINUOUS
10
337.7468389999999658
20
-106.3630919999999946
11
324.223876999999959
21
-109.9865589999999997
0
LINE
8
BLACK
6
CONTINUOUS
10
324.223876999999959
20
-109.9865589999999997
11
320.6004110000000082
21
-96.4635969999999929
0
LINE
8
BLACK
6
CONTINUOUS
10
320.6004110000000082
20
-96.4635969999999929
11
334.1233709999999633
21
-92.8401309999999995
0
LINE
8
BLACK
6
CONTINUOUS
10
334.1233709999999633
20
-92.8401309999999995
11
337.7468389999999658
21
-106.3630919999999946
0
LINE
8
BLACK
6
CONTINUOUS
10
361.4696419999999648
20
-121.2697019999999952
11
347.946679999999958
21
-124.8931690000000003
0
LINE
8
BLACK
6
CONTINUOUS
10
347.946679999999958
20
-124.8931690000000003
11
344.3232140000000072
21
-111.3702069999999935
0
LINE
8
BLACK
6
CONTINUOUS
10
344.3232140000000072
20
-111.3702069999999935
11
357.8461739999999622
21
-107.7467410000000001
0
LINE
8
BLACK
6
CONTINUOUS
10
357.8461739999999622
20
-107.7467410000000001
11
361.4696419999999648
21
-121.2697019999999952
0
LINE
8
BLACK
6
CONTINUOUS
10
162.6973979999999926
20
-163.4780499999999961
11
159.073931999999985
21
-177.0010120000000029
0
LINE
8
BLACK
6
CONTINUOUS
10
159.073931999999985
20
-177.0010120000000029
11
145.5509710000000041
21
-173.3775459999999953
0
LINE
8
BLACK
6
CONTINUOUS
10
145.5509710000000041
20
-173.3775459999999953
11
149.1744379999999808
21
-159.8545839999999885
0
LINE
8
BLACK
6
CONTINUOUS
10
149.1744379999999808
20
-159.8545839999999885
11
162.6973979999999926
21
-163.4780499999999961
0
LINE
8
BLACK
6
CONTINUOUS
10
214.0251639999999895
20
-214.6539190000000019
11
204.1256689999999878
21
-224.5534150000000011
0
LINE
8
BLACK
6
CONTINUOUS
10
204.1256689999999878
20
-224.5534150000000011
11
194.2261739999999861
21
-214.6539199999999994
0
LINE
8
BLACK
6
CONTINUOUS
10
194.2261739999999861
20
-214.6539199999999994
11
204.1256699999999853
21
-204.7544259999999952
0
LINE
8
BLACK
6
CONTINUOUS
10
204.1256699999999853
20
-204.7544259999999952
11
214.0251639999999895
21
-214.6539190000000019
0
LINE
8
BLACK
6
CONTINUOUS
10
301.480152999999973
20
-191.800091999999978
11
287.9571909999999662
21
-195.4235589999999831
0
LINE
8
BLACK
6
CONTINUOUS
10
287.9571909999999662
20
-195.4235589999999831
11
284.3337250000000154
21
-181.9005970000000048
0
LINE
8
BLACK
6
CONTINUOUS
10
284.3337250000000154
20
-181.9005970000000048
11
297.8566849999999704
21
-178.2771309999999971
0
LINE
8
BLACK
6
CONTINUOUS
10
297.8566849999999704
20
-178.2771309999999971
11
301.480152999999973
21
-191.800091999999978
0
LINE
8
BLACK
6
CONTINUOUS
10
387.264569999999992
20
-143.948237000000006
11
373.7416079999999852
21
-147.5717039999999827
0
LINE
8
BLACK
6
CONTINUOUS
10
373.7416079999999852
20
-147.5717039999999827
11
370.1181419999999775
21
-134.0487420000000043
0
LINE
8
BLACK
6
CONTINUOUS
10
370.1181419999999775
20
-134.0487420000000043
11
383.6411019999999894
21
-130.4252759999999967
0
LINE
8
BLACK
6
CONTINUOUS
10
383.6411019999999894
20
-130.4252759999999967
11
387.264569999999992
21
-143.948237000000006
0
LINE
8
BLACK
6
CONTINUOUS
10
185.6343530000000044
20
-151.4797429999999849
11
182.0108869999999968
21
-165.0027049999999917
0
LINE
8
BLACK
6
CONTINUOUS
10
182.0108869999999968
20
-165.0027049999999917
11
168.4879259999999874
21
-161.3792389999999841
0
LINE
8
BLACK
6
CONTINUOUS
10
168.4879259999999874
20
-161.3792389999999841
11
172.1113929999999925
21
-147.8562770000000057
0
LINE
8
BLACK
6
CONTINUOUS
10
172.1113929999999925
20
-147.8562770000000057
11
185.6343530000000044
21
-151.4797429999999849
0
LINE
8
BLACK
6
CONTINUOUS
10
286.6886419999999589
20
-136.5974329999999952
11
273.1656800000000089
21
-140.2209000000000003
0
LINE
8
BLACK
6
CONTINUOUS
10
273.1656800000000089
20
-140.2209000000000003
11
269.5422140000000013
21
-126.6979379999999935
0
LINE
8
BLACK
6
CONTINUOUS
10
269.5422140000000013
20
-126.6979379999999935
11
283.0651740000000132
21
-123.0744720000000001
0
LINE
8
BLACK
6
CONTINUOUS
10
283.0651740000000132
20
-123.0744720000000001
11
286.6886419999999589
21
-136.5974329999999952
0
LINE
8
BLACK
6
CONTINUOUS
10
296.5525010000000066
20
-173.3852939999999876
11
283.0295389999999998
21
-177.0087609999999927
0
LINE
8
BLACK
6
CONTINUOUS
10
283.0295389999999998
20
-177.0087609999999927
11
279.4060729999999921
21
-163.4857989999999859
0
LINE
8
BLACK
6
CONTINUOUS
10
279.4060729999999921
20
-163.4857989999999859
11
292.929033000000004
21
-159.8623330000000067
0
LINE
8
BLACK
6
CONTINUOUS
10
292.929033000000004
20
-159.8623330000000067
11
296.5525010000000066
21
-173.3852939999999876
0
LINE
8
BLACK
6
CONTINUOUS
10
273.6155430000000024
20
-161.3869809999999916
11
260.0925809999999956
21
-165.0104479999999967
0
LINE
8
BLACK
6
CONTINUOUS
10
260.0925809999999956
20
-165.0104479999999967
11
256.469114999999988
21
-151.4874859999999899
0
LINE
8
BLACK
6
CONTINUOUS
10
256.469114999999988
20
-151.4874859999999899
11
269.9920749999999998
21
-147.8640199999999822
0
LINE
8
BLACK
6
CONTINUOUS
10
269.9920749999999998
20
-147.8640199999999822
11
273.6155430000000024
21
-161.3869809999999916
0
LINE
8
BLACK
6
CONTINUOUS
10
172.5584079999999858
20
-126.6762839999999954
11
168.9349419999999782
21
-140.199245999999988
0
LINE
8
BLACK
6
CONTINUOUS
10
168.9349419999999782
20
-140.199245999999988
11
155.4119809999999973
21
-136.5757799999999804
0
LINE
8
BLACK
6
CONTINUOUS
10
155.4119809999999973
20
-136.5757799999999804
11
159.0354480000000024
21
-123.0528179999999878
0
LINE
8
BLACK
6
CONTINUOUS
10
159.0354480000000024
20
-123.0528179999999878
11
172.5584079999999858
21
-126.6762839999999954
0
LINE
8
BLACK
6
CONTINUOUS
10
201.5785060000000044
20
-165.615224999999981
11
197.9550399999999968
21
-179.1381869999999878
0
LINE
8
BLACK
6
CONTINUOUS
10
197.9550399999999968
20
-179.1381869999999878
11
184.4320789999999874
21
-175.5147209999999802
0
LINE
8
BLACK
6
CONTINUOUS
10
184.4320789999999874
20
-175.5147209999999802
11
188.0555459999999925
21
-161.9917590000000018
0
LINE
8
BLACK
6
CONTINUOUS
10
188.0555459999999925
20
-161.9917590000000018
11
201.5785060000000044
21
-165.615224999999981
0
LINE
8
BLACK
6
CONTINUOUS
10
190.5648569999999893
20
-133.0788579999999968
11
186.9413909999999817
21
-146.6018200000000036
0
LINE
8
BLACK
6
CONTINUOUS
10
186.9413909999999817
20
-146.6018200000000036
11
173.4184300000000007
21
-142.9783539999999959
0
LINE
8
BLACK
6
CONTINUOUS
10
173.4184300000000007
20
-142.9783539999999959
11
177.0418970000000058
21
-129.4553919999999891
0
LINE
8
BLACK
6
CONTINUOUS
10
177.0418970000000058
20
-129.4553919999999891
11
190.5648569999999893
21
-133.0788579999999968
0
LINE
8
BLACK
6
CONTINUOUS
10
314.5560959999999682
20
-166.996627999999987
11
301.0331339999999614
21
-170.6200949999999921
0
LINE
8
BLACK
6
CONTINUOUS
10
301.0331339999999614
20
-170.6200949999999921
11
297.4096680000000106
21
-157.0971329999999853
0
LINE
8
BLACK
6
CONTINUOUS
10
297.4096680000000106
20
-157.0971329999999853
11
310.9326279999999656
21
-153.4736670000000061
0
LINE
8
BLACK
6
CONTINUOUS
10
310.9326279999999656
20
-153.4736670000000061
11
314.5560959999999682
21
-166.996627999999987
0
LINE
8
BLACK
6
CONTINUOUS
10
319.4837559999999712
20
-185.4114280000000008
11
305.9607939999999644
21
-189.0348949999999775
0
LINE
8
BLACK
6
CONTINUOUS
10
305.9607939999999644
20
-189.0348949999999775
11
302.3373280000000136
21
-175.5119329999999991
0
LINE
8
BLACK
6
CONTINUOUS
10
302.3373280000000136
20
-175.5119329999999991
11
315.8602879999999686
21
-171.8884669999999915
0
LINE
8
BLACK
6
CONTINUOUS
10
315.8602879999999686
20
-171.8884669999999915
11
319.4837559999999712
21
-185.4114280000000008
0
LINE
8
BLACK
6
CONTINUOUS
10
196.6288659999999879
20
-198.8987559999999917
11
189.6288659999999879
21
-211.0231119999999976
0
LINE
8
BLACK
6
CONTINUOUS
10
189.6288659999999879
20
-211.0231119999999976
11
177.5045109999999795
21
-204.0231119999999976
0
LINE
8
BLACK
6
CONTINUOUS
10
177.5045109999999795
20
-204.0231119999999976
11
184.5045120000000054
21
-191.8987569999999891
0
LINE
8
BLACK
6
CONTINUOUS
10
184.5045120000000054
20
-191.8987569999999891
11
196.6288659999999879
21
-198.8987559999999917
0
LINE
8
BLACK
6
CONTINUOUS
10
278.5432089999999903
20
-179.8017820000000029
11
265.0202469999999835
21
-183.4252489999999796
0
LINE
8
BLACK
6
CONTINUOUS
10
265.0202469999999835
20
-183.4252489999999796
11
261.3967809999999758
21
-169.9022870000000012
0
LINE
8
BLACK
6
CONTINUOUS
10
261.3967809999999758
20
-169.9022870000000012
11
274.9197409999999877
21
-166.2788209999999935
0
LINE
8
BLACK
6
CONTINUOUS
10
274.9197409999999877
20
-166.2788209999999935
11
278.5432089999999903
21
-179.8017820000000029
0
LINE
8
BLACK
6
CONTINUOUS
10
175.7733489999999961
20
-188.2815169999999796
11
172.1498829999999884
21
-201.8044789999999864
0
LINE
8
BLACK
6
CONTINUOUS
10
172.1498829999999884
20
-201.8044789999999864
11
158.6269219999999791
21
-198.1810129999999788
0
LINE
8
BLACK
6
CONTINUOUS
10
158.6269219999999791
20
-198.1810129999999788
11
162.2503889999999842
21
-184.6580510000000004
0
LINE
8
BLACK
6
CONTINUOUS
10
162.2503889999999842
20
-184.6580510000000004
11
175.7733489999999961
21
-188.2815169999999796
0
LINE
8
BLACK
6
CONTINUOUS
10
304.6950989999999706
20
-130.1948600000000056
11
291.1721369999999638
21
-133.8183269999999823
0
LINE
8
BLACK
6
CONTINUOUS
10
291.1721369999999638
20
-133.8183269999999823
11
287.548671000000013
21
-120.2953649999999897
0
LINE
8
BLACK
6
CONTINUOUS
10
287.548671000000013
20
-120.2953649999999897
11
301.071630999999968
21
-116.6718989999999962
0
LINE
8
BLACK
6
CONTINUOUS
10
301.071630999999968
20
-116.6718989999999962
11
304.6950989999999706
21
-130.1948600000000056
0
LINE
8
BLACK
6
CONTINUOUS
10
135.7472190000000012
20
-116.8258989999999926
11
132.1237529999999936
21
-130.3488609999999994
0
LINE
8
BLACK
6
CONTINUOUS
10
132.1237529999999936
20
-130.3488609999999994
11
118.6007919999999984
21
-126.7253949999999918
0
LINE
8
BLACK
6
CONTINUOUS
10
118.6007919999999984
20
-126.7253949999999918
11
122.2242589999999893
21
-113.2024329999999992
0
LINE
8
BLACK
6
CONTINUOUS
10
122.2242589999999893
20
-113.2024329999999992
11
135.7472190000000012
21
-116.8258989999999926
0
LINE
8
BLACK
6
CONTINUOUS
10
177.4889110000000016
20
-108.2753999999999905
11
173.865444999999994
21
-121.7983619999999974
0
LINE
8
BLACK
6
CONTINUOUS
10
173.865444999999994
20
-121.7983619999999974
11
160.3424839999999847
21
-118.1748959999999897
0
LINE
8
BLACK
6
CONTINUOUS
10
160.3424839999999847
20
-118.1748959999999897
11
163.9659509999999898
21
-104.6519339999999971
0
LINE
8
BLACK
6
CONTINUOUS
10
163.9659509999999898
20
-104.6519339999999971
11
177.4889110000000016
21
-108.2753999999999905
0
LINE
8
BLACK
6
CONTINUOUS
10
101.7565170000000023
20
-170.0528239999999869
11
98.1330509999999947
21
-183.5757859999999937
0
LINE
8
BLACK
6
CONTINUOUS
10
98.1330509999999947
20
-183.5757859999999937
11
84.6100899999999996
21
-179.9523199999999861
0
LINE
8
BLACK
6
CONTINUOUS
10
84.6100899999999996
20
-179.9523199999999861
11
88.2335569999999905
21
-166.4293579999999793
0
LINE
8
BLACK
6
CONTINUOUS
10
88.2335569999999905
20
-166.4293579999999793
11
101.7565170000000023
21
-170.0528239999999869
0
LINE
8
BLACK
6
CONTINUOUS
10
371.3306479999999965
20
-158.0714830000000006
11
357.8076859999999897
21
-161.6949500000000057
0
LINE
8
BLACK
6
CONTINUOUS
10
357.8076859999999897
20
-161.6949500000000057
11
354.1842199999999821
21
-148.1719879999999989
0
LINE
8
BLACK
6
CONTINUOUS
10
354.1842199999999821
20
-148.1719879999999989
11
367.7071799999999939
21
-144.5485219999999913
0
LINE
8
BLACK
6
CONTINUOUS
10
367.7071799999999939
20
-144.5485219999999913
11
371.3306479999999965
21
-158.0714830000000006
0
LINE
8
BLACK
6
CONTINUOUS
10
347.6078420000000051
20
-143.1648610000000019
11
334.0848799999999983
21
-146.788328000000007
0
LINE
8
BLACK
6
CONTINUOUS
10
334.0848799999999983
20
-146.788328000000007
11
330.4614139999999907
21
-133.2653660000000002
0
LINE
8
BLACK
6
CONTINUOUS
10
330.4614139999999907
20
-133.2653660000000002
11
343.9843740000000025
21
-129.6418999999999926
0
LINE
8
BLACK
6
CONTINUOUS
10
343.9843740000000025
20
-129.6418999999999926
11
347.6078420000000051
21
-143.1648610000000019
0
LINE
8
BLACK
6
CONTINUOUS
10
144.6721159999999884
20
-157.0967320000000029
11
141.0486499999999808
21
-170.6196939999999813
0
LINE
8
BLACK
6
CONTINUOUS
10
141.0486499999999808
20
-170.6196939999999813
11
127.5256889999999999
21
-166.9962280000000021
0
LINE
8
BLACK
6
CONTINUOUS
10
127.5256889999999999
20
-166.9962280000000021
11
131.149156000000005
21
-153.4732659999999953
0
LINE
8
BLACK
6
CONTINUOUS
10
131.149156000000005
20
-153.4732659999999953
11
144.6721159999999884
21
-157.0967320000000029
0
LINE
8
BLACK
6
CONTINUOUS
10
140.6777129999999829
20
-98.4250189999999918
11
137.0542470000000037
21
-111.9479809999999986
0
LINE
8
BLACK
6
CONTINUOUS
10
137.0542470000000037
20
-111.9479809999999986
11
123.5312859999999944
21
-108.324514999999991
0
LINE
8
BLACK
6
CONTINUOUS
10
123.5312859999999944
20
-108.324514999999991
11
127.1547529999999995
21
-94.8015529999999984
0
LINE
8
BLACK
6
CONTINUOUS
10
127.1547529999999995
20
-94.8015529999999984
11
140.6777129999999829
21
-98.4250189999999918
0
LINE
8
BLACK
6
CONTINUOUS
10
366.4001409999999623
20
-139.6705939999999941
11
352.8771790000000124
21
-143.2940609999999992
0
LINE
8
BLACK
6
CONTINUOUS
10
352.8771790000000124
20
-143.2940609999999992
11
349.2537130000000047
21
-129.7710989999999924
0
LINE
8
BLACK
6
CONTINUOUS
10
349.2537130000000047
20
-129.7710989999999924
11
362.7766729999999598
21
-126.147632999999999
0
LINE
8
BLACK
6
CONTINUOUS
10
362.7766729999999598
20
-126.147632999999999
11
366.4001409999999623
21
-139.6705939999999941
0
LINE
8
BLACK
6
CONTINUOUS
10
157.7574819999999818
20
-181.889569999999992
11
154.1340160000000026
21
-195.4125319999999988
0
LINE
8
BLACK
6
CONTINUOUS
10
154.1340160000000026
20
-195.4125319999999988
11
140.6110549999999932
21
-191.7890659999999912
0
LINE
8
BLACK
6
CONTINUOUS
10
140.6110549999999932
20
-191.7890659999999912
11
144.2345219999999983
21
-178.2661039999999844
0
LINE
8
BLACK
6
CONTINUOUS
10
144.2345219999999983
20
-178.2661039999999844
11
157.7574819999999818
21
-181.889569999999992
0
LINE
8
BLACK
6
CONTINUOUS
10
281.7609899999999925
20
-118.182629999999989
11
268.2380279999999857
21
-121.8060969999999941
0
LINE
8
BLACK
6
CONTINUOUS
10
268.2380279999999857
20
-121.8060969999999941
11
264.6145619999999781
21
-108.2831350000000015
0
LINE
8
BLACK
6
CONTINUOUS
10
264.6145619999999781
20
-108.2831350000000015
11
278.1375219999999899
21
-104.6596689999999938
0
LINE
8
BLACK
6
CONTINUOUS
10
278.1375219999999899
20
-104.6596689999999938
11
281.7609899999999925
21
-118.182629999999989
0
LINE
8
BLACK
6
CONTINUOUS
10
357.4717029999999909
20
-179.9527249999999867
11
343.9487409999999841
21
-183.5761919999999918
0
LINE
8
BLACK
6
CONTINUOUS
10
343.9487409999999841
20
-183.5761919999999918
11
340.3252749999999764
21
-170.053229999999985
0
LINE
8
BLACK
6
CONTINUOUS
10
340.3252749999999764
20
-170.053229999999985
11
353.8482349999999883
21
-166.4297640000000058
0
LINE
8
BLACK
6
CONTINUOUS
10
353.8482349999999883
20
-166.4297640000000058
11
357.4717029999999909
21
-179.9527249999999867
0
LINE
8
BLACK
6
CONTINUOUS
10
154.5425479999999823
20
-120.2843349999999987
11
150.9190820000000031
21
-133.8072970000000055
0
LINE
8
BLACK
6
CONTINUOUS
10
150.9190820000000031
20
-133.8072970000000055
11
137.3961209999999937
21
-130.1838309999999979
0
LINE
8
BLACK
6
CONTINUOUS
10
137.3961209999999937
20
-130.1838309999999979
11
141.0195879999999988
21
-116.660868999999991
0
LINE
8
BLACK
6
CONTINUOUS
10
141.0195879999999988
20
-116.660868999999991
11
154.5425479999999823
21
-120.2843349999999987
0
LINE
8
BLACK
6
CONTINUOUS
10
318.562767000000008
20
-108.321629999999999
11
305.0398050000000012
21
-111.9450969999999899
0
LINE
8
BLACK
6
CONTINUOUS
10
305.0398050000000012
20
-111.9450969999999899
11
301.4163389999999936
21
-98.4221349999999973
0
LINE
8
BLACK
6
CONTINUOUS
10
301.4163389999999936
20
-98.4221349999999973
11
314.9392990000000054
21
-94.7986689999999896
0
LINE
8
BLACK
6
CONTINUOUS
10
314.9392990000000054
20
-94.7986689999999896
11
318.562767000000008
21
-108.321629999999999
0
LINE
8
BLACK
6
CONTINUOUS
10
120.9557069999999896
20
-172.0285659999999837
11
117.3322409999999962
21
-185.5515279999999905
0
LINE
8
BLACK
6
CONTINUOUS
10
117.3322409999999962
20
-185.5515279999999905
11
103.8092800000000011
21
-181.9280619999999828
0
LINE
8
BLACK
6
CONTINUOUS
10
103.8092800000000011
20
-181.9280619999999828
11
107.432746999999992
21
-168.4051000000000045
0
LINE
8
BLACK
6
CONTINUOUS
10
107.432746999999992
20
-168.4051000000000045
11
120.9557069999999896
21
-172.0285659999999837
0
LINE
8
BLACK
6
CONTINUOUS
10
328.4209229999999593
20
-145.1373119999999801
11
314.8979610000000093
21
-148.7607789999999852
0
LINE
8
BLACK
6
CONTINUOUS
10
314.8979610000000093
20
-148.7607789999999852
11
311.2744950000000017
21
-135.2378170000000068
0
LINE
8
BLACK
6
CONTINUOUS
10
311.2744950000000017
20
-135.2378170000000068
11
324.7974550000000136
21
-131.6143509999999992
0
LINE
8
BLACK
6
CONTINUOUS
10
324.7974550000000136
20
-131.6143509999999992
11
328.4209229999999593
21
-145.1373119999999801
0
LINE
8
BLACK
6
CONTINUOUS
10
149.6026259999999866
20
-138.6958459999999889
11
145.9791600000000074
21
-152.2188079999999957
0
LINE
8
BLACK
6
CONTINUOUS
10
145.9791600000000074
20
-152.2188079999999957
11
132.456198999999998
21
-148.595341999999988
0
LINE
8
BLACK
6
CONTINUOUS
10
132.456198999999998
20
-148.595341999999988
11
136.0796660000000031
21
-135.0723799999999812
0
LINE
8
BLACK
6
CONTINUOUS
10
136.0796660000000031
20
-135.0723799999999812
11
149.6026259999999866
21
-138.6958459999999889
0
LINE
8
BLACK
6
CONTINUOUS
10
71.9578729999999922
20
-134.055800000000005
11
68.3344069999999988
21
-147.5787619999999833
0
LINE
8
BLACK
6
CONTINUOUS
10
68.3344069999999988
20
-147.5787619999999833
11
54.8114459999999966
21
-143.9552960000000041
0
LINE
8
BLACK
6
CONTINUOUS
10
54.8114459999999966
20
-143.9552960000000041
11
58.4349129999999946
21
-130.4323339999999973
0
LINE
8
BLACK
6
CONTINUOUS
10
58.4349129999999946
20
-130.4323339999999973
11
71.9578729999999922
21
-134.055800000000005
0
LINE
8
BLACK
6
CONTINUOUS
10
92.8280779999999908
20
-129.7706939999999918
11
89.2046119999999974
21
-143.2936559999999986
0
LINE
8
BLACK
6
CONTINUOUS
10
89.2046119999999974
20
-143.2936559999999986
11
75.6816510000000022
21
-139.670189999999991
0
LINE
8
BLACK
6
CONTINUOUS
10
75.6816510000000022
20
-139.670189999999991
11
79.3051179999999931
21
-126.1472279999999984
0
LINE
8
BLACK
6
CONTINUOUS
10
79.3051179999999931
20
-126.1472279999999984
11
92.8280779999999908
21
-129.7706939999999918
0
LINE
8
BLACK
6
CONTINUOUS
10
87.9069929999999999
20
-148.1609530000000063
11
84.2835269999999923
21
-161.6839149999999847
0
LINE
8
BLACK
6
CONTINUOUS
10
84.2835269999999923
20
-161.6839149999999847
11
70.7605659999999972
21
-158.0604490000000055
0
LINE
8
BLACK
6
CONTINUOUS
10
70.7605659999999972
20
-158.0604490000000055
11
74.3840330000000023
21
-144.5374869999999987
0
LINE
8
BLACK
6
CONTINUOUS
10
74.3840330000000023
20
-144.5374869999999987
11
87.9069929999999999
21
-148.1609530000000063
0
LINE
8
BLACK
6
CONTINUOUS
10
283.4765549999999621
20
-198.1887529999999913
11
269.9535930000000121
21
-201.8122199999999964
0
LINE
8
BLACK
6
CONTINUOUS
10
269.9535930000000121
20
-201.8122199999999964
11
266.3301270000000045
21
-188.2892579999999896
0
LINE
8
BLACK
6
CONTINUOUS
10
266.3301270000000045
20
-188.2892579999999896
11
279.8530869999999595
21
-184.665791999999982
0
LINE
8
BLACK
6
CONTINUOUS
10
279.8530869999999595
20
-184.665791999999982
11
283.4765549999999621
21
-198.1887529999999913
0
LINE
8
BLACK
6
CONTINUOUS
10
125.8862029999999947
20
-153.6276770000000056
11
122.2627370000000013
21
-167.150638999999984
0
LINE
8
BLACK
6
CONTINUOUS
10
122.2627370000000013
20
-167.150638999999984
11
108.739775999999992
21
-163.5271730000000048
0
LINE
8
BLACK
6
CONTINUOUS
10
108.739775999999992
20
-163.5271730000000048
11
112.3632429999999971
21
-150.004210999999998
0
LINE
8
BLACK
6
CONTINUOUS
10
112.3632429999999971
20
-150.004210999999998
11
125.8862029999999947
21
-153.6276770000000056
0
LINE
8
BLACK
6
CONTINUOUS
10
180.7038569999999993
20
-169.8806280000000015
11
177.0803909999999917
21
-183.4035899999999799
0
LINE
8
BLACK
6
CONTINUOUS
10
177.0803909999999917
20
-183.4035899999999799
11
163.5574299999999823
21
-179.7801240000000007
0
LINE
8
BLACK
6
CONTINUOUS
10
163.5574299999999823
20
-179.7801240000000007
11
167.1808969999999874
21
-166.2571619999999939
0
LINE
8
BLACK
6
CONTINUOUS
10
167.1808969999999874
20
-166.2571619999999939
11
180.7038569999999993
21
-169.8806280000000015
0
LINE
8
BLACK
6
CONTINUOUS
10
333.3542709999999829
20
-163.5242930000000001
11
319.8313089999999761
21
-167.1477600000000052
0
LINE
8
BLACK
6
CONTINUOUS
10
319.8313089999999761
20
-167.1477600000000052
11
316.2078429999999685
21
-153.6247979999999984
0
LINE
8
BLACK
6
CONTINUOUS
10
316.2078429999999685
20
-153.6247979999999984
11
329.7308029999999803
21
-150.0013319999999908
0
LINE
8
BLACK
6
CONTINUOUS
10
329.7308029999999803
20
-150.0013319999999908
11
333.3542709999999829
21
-163.5242930000000001
0
LINE
8
BLACK
6
CONTINUOUS
10
291.6191539999999804
20
-154.9983220000000017
11
278.0961919999999736
21
-158.6217890000000068
0
LINE
8
BLACK
6
CONTINUOUS
10
278.0961919999999736
20
-158.6217890000000068
11
274.472725999999966
21
-145.098827
0
LINE
8
BLACK
6
CONTINUOUS
10
274.472725999999966
20
-145.098827
11
287.9956859999999779
21
-141.4753609999999924
0
LINE
8
BLACK
6
CONTINUOUS
10
287.9956859999999779
20
-141.4753609999999924
11
291.6191539999999804
21
-154.9983220000000017
0
LINE
8
BLACK
6
CONTINUOUS
10
323.4932729999999879
20
-126.7225219999999979
11
309.970310999999981
21
-130.345989000000003
0
LINE
8
BLACK
6
CONTINUOUS
10
309.970310999999981
20
-130.345989000000003
11
306.3468449999999734
21
-116.8230269999999962
0
LINE
8
BLACK
6
CONTINUOUS
10
306.3468449999999734
20
-116.8230269999999962
11
319.8698049999999853
21
-113.1995609999999886
0
LINE
8
BLACK
6
CONTINUOUS
10
319.8698049999999853
20
-113.1995609999999886
11
323.4932729999999879
21
-126.7225219999999979
0
LINE
8
BLACK
6
CONTINUOUS
10
116.5480289999999997
20
-114.8501660000000015
11
112.924562999999992
21
-128.3731280000000083
0
LINE
8
BLACK
6
CONTINUOUS
10
112.924562999999992
20
-128.3731280000000083
11
99.4016019999999969
21
-124.7496620000000007
0
LINE
8
BLACK
6
CONTINUOUS
10
99.4016019999999969
20
-124.7496620000000007
11
103.025069000000002
21
-111.2266999999999939
0
LINE
8
BLACK
6
CONTINUOUS
10
103.025069000000002
20
-111.2266999999999939
11
116.5480289999999997
21
-114.8501660000000015
0
LINE
8
BLACK
6
CONTINUOUS
10
195.4953600000000051
20
-114.6779679999999928
11
191.8718939999999975
21
-128.2009299999999996
0
LINE
8
BLACK
6
CONTINUOUS
10
191.8718939999999975
20
-128.2009299999999996
11
178.3489329999999882
21
-124.577463999999992
0
LINE
8
BLACK
6
CONTINUOUS
10
178.3489329999999882
20
-124.577463999999992
11
181.9723999999999933
21
-111.0545019999999994
0
LINE
8
BLACK
6
CONTINUOUS
10
181.9723999999999933
20
-111.0545019999999994
11
195.4953600000000051
21
-114.6779679999999928
0
LINE
8
BLACK
6
CONTINUOUS
10
121.4879490000000004
20
-96.4386590000000012
11
117.8644829999999928
21
-109.9616209999999938
0
LINE
8
BLACK
6
CONTINUOUS
10
117.8644829999999928
20
-109.9616209999999938
11
104.3415219999999977
21
-106.3381550000000004
0
LINE
8
BLACK
6
CONTINUOUS
10
104.3415219999999977
20
-106.3381550000000004
11
107.9649889999999886
21
-92.8151929999999936
0
LINE
8
BLACK
6
CONTINUOUS
10
107.9649889999999886
20
-92.8151929999999936
11
121.4879490000000004
21
-96.4386590000000012
0
LINE
8
BLACK
6
CONTINUOUS
10
299.7645890000000009
20
-111.7939719999999966
11
286.241626999999994
21
-115.4174390000000017
0
LINE
8
BLACK
6
CONTINUOUS
10
286.241626999999994
20
-115.4174390000000017
11
282.6181609999999864
21
-101.8944769999999949
0
LINE
8
BLACK
6
CONTINUOUS
10
282.6181609999999864
20
-101.8944769999999949
11
296.1411209999999983
21
-98.2710110000000014
0
LINE
8
BLACK
6
CONTINUOUS
10
296.1411209999999983
20
-98.2710110000000014
11
299.7645890000000009
21
-111.7939719999999966
0
LINE
8
BLACK
6
CONTINUOUS
10
247.8013229999999965
20
-214.6791989999999828
11
237.9018279999999947
21
-224.5786939999999845
0
LINE
8
BLACK
6
CONTINUOUS
10
237.9018279999999947
20
-224.5786939999999845
11
228.0023339999999905
21
-214.6791979999999853
0
LINE
8
BLACK
6
CONTINUOUS
10
228.0023339999999905
20
-214.6791979999999853
11
237.9018269999999973
21
-204.7797039999999811
0
LINE
8
BLACK
6
CONTINUOUS
10
237.9018269999999973
20
-204.7797039999999811
11
247.8013229999999965
21
-214.6791989999999828
0
LINE
8
BLACK
6
CONTINUOUS
10
309.6227489999999989
20
-148.6096569999999986
11
296.0997869999999921
21
-152.2331240000000037
0
LINE
8
BLACK
6
CONTINUOUS
10
296.0997869999999921
20
-152.2331240000000037
11
292.4763209999999845
21
-138.7101619999999969
0
LINE
8
BLACK
6
CONTINUOUS
10
292.4763209999999845
20
-138.7101619999999969
11
305.9992809999999963
21
-135.0866959999999892
0
LINE
8
BLACK
6
CONTINUOUS
10
305.9992809999999963
20
-135.0866959999999892
11
309.6227489999999989
21
-148.6096569999999986
0
LINE
8
BLACK
6
CONTINUOUS
10
264.5834459999999808
20
-204.0346590000000049
11
252.4590910000000008
21
-211.0346589999999765
0
LINE
8
BLACK
6
CONTINUOUS
10
252.4590910000000008
20
-211.0346589999999765
11
245.4590919999999983
21
-198.910302999999999
0
LINE
8
BLACK
6
CONTINUOUS
10
245.4590919999999983
20
-198.910302999999999
11
257.5834459999999808
21
-191.9103039999999964
0
LINE
8
BLACK
6
CONTINUOUS
10
257.5834459999999808
20
-191.9103039999999964
11
264.5834459999999808
21
-204.0346590000000049
0
LINE
8
BLACK
6
CONTINUOUS
10
159.4730500000000006
20
-101.8834449999999947
11
155.849583999999993
21
-115.4064070000000015
0
LINE
8
BLACK
6
CONTINUOUS
10
155.849583999999993
20
-115.4064070000000015
11
142.3266229999999837
21
-111.7829409999999939
0
LINE
8
BLACK
6
CONTINUOUS
10
142.3266229999999837
20
-111.7829409999999939
11
145.9500899999999888
21
-98.2599790000000013
0
LINE
8
BLACK
6
CONTINUOUS
10
145.9500899999999888
20
-98.2599790000000013
11
159.4730500000000006
21
-101.8834449999999947
  0
ENDSEC
  0
EOF
