  0
SECTION
  2
HEADER
  9
$ANGBASE
  50
0.0
  9
$ANGDIR
  70
1
  9
$MEASUREMENT
  70
1
  0
ENDSEC
  0
SECTION
  2
TABLES
  0
TABLE
  2
LTYPE
  70
4
  0
LTYPE
  5
40F
  2
CONTINUOUS
  70
0
  3
Solid line
  72
65
  73
0
  40
0.0
  0
LTYPE
  5
410
  2
DASHDOT
 70
0
  3
Dash Dot ____ _ ____ _
 72
65
 73
4
 40
2.0
 49
1.25
 49
-0.25
 49
0.25
 49
-0.25
  0
LTYPE
  5
411
  2
DASHED
 70
0
  3
Dashed __ __ __ __ __
 72
65
 73
2
 40
0.75
 49
0.5
 49
-0.25
  0
LTYPE
  5
43B
  2
DOTTED
 70
0
  3
Dotted .  .  .  .
 72
65
 73
2
 40
0.2
 49
0.0
 49
-0.2
  0
ENDTAB
  0
TABLE
  2
STYLE
  70
4
  0
STYLE
  2
KICAD
  70
0
  40
0
  41
1
  42
1
  50
0
  71
0
  3
isocp.shx
  0
STYLE
  2
KICADB
  70
0
  40
0
  41
1
  42
1
  50
0
  71
0
  3
isocp.shx
  0
STYLE
  2
KICADI
  70
0
  40
0
  41
1
  42
1
  50
15
  71
0
  3
isocp.shx
  0
STYLE
  2
KICADBI
  70
0
  40
0
  41
1
  42
1
  50
15
  71
0
  3
isocp.shx
  0
ENDTAB
  0
TABLE
  2
LAYER
  70
1
  0
LAYER
  2
BLACK
  70
0
  62
7
  6
CONTINUOUS
  0
ENDTAB
  0
ENDSEC
  0
SECTION
  2
ENTITIES
0
CIRCLE
8
BLACK
10
269.5626049999999623
20
-184.1670660000000055
40
1.1500589999999999
0
LINE
8
BLACK
6
CONTINUOUS
10
278.0358850000000075
20
-206.3947169999999858
11
279.1106819999999971
21
-204.5331089999999961
0
LINE
8
BLACK
6
CONTINUOUS
10
160.0985450000000014
20
-211.7237989999999854
11
140.2101349999999798
21
-206.3947220000000016
0
LINE
8
BLACK
6
CONTINUOUS
10
308.3893380000000093
20
-92.9532409999999913
11
325.3316790000000083
21
-88.4135569999999973
0
LINE
8
BLACK
6
CONTINUOUS
10
304.6661139999999932
20
-90.8036359999999974
11
308.3893380000000093
21
-92.9532409999999913
0
LINE
8
BLACK
6
CONTINUOUS
10
365.9386989999999855
20
-160.5744269999999858
11
366.325240000000008
21
-162.0170239999999922
0
ARC
8
BLACK
10
360.7281999999999584
20
-125.6615999999999929
40
3.9998599147720157
50
-165.00203720
51
-74.99878282
0
CIRCLE
8
BLACK
10
329.1326050000000123
20
-112.0570659999999918
40
1.1500599999999999
0
LINE
8
BLACK
6
CONTINUOUS
10
52.3073169999999976
20
-160.5744269999999858
11
51.9207759999999965
21
-162.0170249999999896
0
LINE
8
BLACK
6
CONTINUOUS
10
155.1752559999999903
20
-101.9387279999999976
11
154.1101149999999791
21
-100.0797039999999924
0
CIRCLE
8
BLACK
10
148.7426049999999975
20
-184.087065999999993
40
1.1500599999999999
0
ARC
8
BLACK
10
147.3641999999999825
20
-253.3931999999999789
40
43.5718088019974914
50
47.75238344
51
73.00662631
0
LINE
8
BLACK
6
CONTINUOUS
10
108.0247169999999954
20
-194.6441289999999924
11
123.5278299999999945
21
-198.7981749999999863
0
LINE
8
BLACK
6
CONTINUOUS
10
310.2212989999999877
20
-194.6441289999999924
11
312.0567749999999592
21
-195.7052300000000002
0
LINE
8
BLACK
6
CONTINUOUS
10
294.7181860000000029
20
-198.7981719999999939
11
310.2212989999999877
21
-194.6441289999999924
0
LINE
8
BLACK
6
CONTINUOUS
10
246.118758999999983
20
-106.4810039999999987
11
245.0510289999999998
21
-108.3303639999999888
0
LINE
8
BLACK
6
CONTINUOUS
10
264.1358999999999924
20
-100.079702999999995
11
263.0707590000000096
21
-101.9387259999999884
0
CIRCLE
8
BLACK
10
254.7526049999999884
20
-128.9070659999999862
40
1.1500589999999999
0
LINE
8
BLACK
6
CONTINUOUS
10
230.6085769999999968
20
-112.2105479999999886
11
187.7166330000000016
21
-112.2205489999999912
0
LINE
8
BLACK
6
CONTINUOUS
10
264.1358999999999924
20
-100.079702999999995
11
287.3277799999999615
21
-93.8654559999999947
0
LINE
8
BLACK
6
CONTINUOUS
10
106.1892390000000006
20
-195.7052290000000028
11
91.6407569999999936
21
-191.8069710000000043
0
ARC
8
BLACK
10
69.6197999999999979
20
-184.9402999999999793
40
4.0000612102687878
50
-194.99913777
51
-104.95446461
0
LINE
8
BLACK
6
CONTINUOUS
10
228.8418459999999754
20
-234.1553209999999865
11
241.5868969999999933
21
-221.1393190000000004
0
LINE
8
BLACK
6
CONTINUOUS
10
279.1106819999999971
20
-204.5331089999999961
11
293.6591669999999681
21
-200.63485399999999
0
LINE
8
BLACK
6
CONTINUOUS
10
65.4054019999999952
20
-169.7713229999999953
11
54.7523300000000006
21
-166.9168410000000051
0
LINE
8
BLACK
6
CONTINUOUS
10
106.1892390000000006
20
-195.7052290000000028
11
108.0247169999999954
21
-194.6441289999999924
0
ARC
8
BLACK
10
209.128799999999984
20
-225.7509000000000015
40
4.0000442790065458
50
45.00070900
51
135.04658073
0
LINE
8
BLACK
6
CONTINUOUS
10
263.0707590000000096
20
-101.9387259999999884
11
246.118758999999983
21
-106.4810039999999987
0
ARC
8
BLACK
10
192.2325999999999908
20
-231.3265999999999849
40
4.0002060283202914
50
-134.99703249
51
-44.95667225
0
LINE
8
BLACK
6
CONTINUOUS
10
176.6591149999999857
20
-221.1393180000000029
11
189.4041699999999935
21
-234.1553229999999814
0
LINE
8
BLACK
6
CONTINUOUS
10
245.0510289999999998
20
-108.3303639999999888
11
230.6085769999999968
21
-112.2105479999999886
0
LINE
8
BLACK
6
CONTINUOUS
10
195.0633109999999988
20
-234.1530329999999935
11
206.2980429999999785
21
-222.9247419999999806
0
CIRCLE
8
BLACK
10
239.1726049999999759
20
-188.6770659999999964
40
1.1500589999999999
0
LINE
8
BLACK
6
CONTINUOUS
10
124.5868499999999983
20
-200.6348519999999951
11
139.1353320000000053
21
-204.5331039999999803
0
ARC
8
BLACK
10
226.0133999999999901
20
-231.3269999999999982
40
3.9999383062688603
50
-135.04729131
51
-44.99873391
0
LINE
8
BLACK
6
CONTINUOUS
10
211.9571839999999838
20
-222.9224459999999794
11
223.1827030000000036
21
-234.1530279999999777
0
LINE
8
BLACK
6
CONTINUOUS
10
379.4539519999999584
20
-152.808700999999985
11
368.7671249999999645
21
-155.6754459999999938
0
CIRCLE
8
BLACK
10
179.1426050000000032
20
-188.6070670000000007
40
1.1500589999999999
0
LINE
8
BLACK
6
CONTINUOUS
10
68.2338269999999909
20
-174.6703009999999949
11
65.7560289999999981
21
-183.905068
0
LINE
8
BLACK
6
CONTINUOUS
10
356.8645449999999641
20
-126.696715999999995
11
346.6179099999999949
21
-88.4043629999999894
0
CIRCLE
8
BLACK
10
343.9426049999999577
20
-167.3070659999999918
40
1.1500599999999999
0
LINE
8
BLACK
6
CONTINUOUS
10
68.587578999999991
20
-188.8048839999999871
11
87.891262999999995
21
-193.9772439999999847
0
LINE
8
BLACK
6
CONTINUOUS
10
325.3316790000000083
20
-88.4135569999999973
11
327.1810419999999908
21
-89.4812840000000023
0
LINE
8
BLACK
6
CONTINUOUS
10
287.3277799999999615
20
-93.8654559999999947
11
289.2016399999999976
21
-94.9473289999999963
0
LINE
8
BLACK
6
CONTINUOUS
10
139.1353320000000053
20
-204.5331039999999803
11
140.2101349999999798
21
-206.3947220000000016
0
CIRCLE
8
BLACK
10
74.3726039999999955
20
-167.2370659999999987
40
1.1500599999999999
0
CIRCLE
8
BLACK
10
163.5526049999999998
20
-128.8388180000000034
40
1.1500599999999999
0
LINE
8
BLACK
6
CONTINUOUS
10
330.3547519999999622
20
-193.9772429999999872
11
349.6584349999999972
21
-188.804885999999982
0
LINE
8
BLACK
6
CONTINUOUS
10
372.4519629999999779
20
-126.6644069999999971
11
361.7635219999999663
21
-129.5251460000000066
0
LINE
8
BLACK
6
CONTINUOUS
10
278.0358850000000075
20
-206.3947169999999858
11
258.1474680000000035
21
-211.7238040000000012
0
LINE
8
BLACK
6
CONTINUOUS
10
330.3547519999999622
20
-193.9772429999999872
11
326.6052589999999896
21
-191.8069710000000043
0
ARC
8
BLACK
10
64.3700999999999937
20
-173.6349999999999909
40
3.9999812738977916
50
-15.00025555
51
74.99954524
0
LINE
8
BLACK
6
CONTINUOUS
10
124.5868499999999983
20
-200.6348519999999951
11
123.5278160000000014
21
-198.798183999999992
0
ARC
8
BLACK
10
342.7543999999999755
20
-89.4393000000000029
40
3.9997242904672818
50
14.99602351
51
105.05028315
0
ARC
8
BLACK
10
373.4902999999999906
20
-130.5274000000000001
40
4.0001073290123106
50
15.00159408
51
105.04498122
0
ARC
8
BLACK
10
362.4613999999999692
20
-163.0521999999999991
40
4.0001061106645661
50
-75.04489179
51
14.99810720
0
LINE
8
BLACK
6
CONTINUOUS
10
294.7181999999999675
20
-198.798183999999992
11
293.6591669999999681
21
-200.63485399999999
0
LINE
8
BLACK
6
CONTINUOUS
10
289.2016399999999976
20
-94.9473289999999963
11
304.6661139999999932
21
-90.8036359999999974
0
ARC
8
BLACK
10
348.6262999999999579
20
-184.9402999999999793
40
3.9999703664058561
50
-75.04673291
51
14.99942891
0
LINE
8
BLACK
6
CONTINUOUS
10
326.6052589999999896
20
-191.8069710000000043
11
312.0567749999999592
21
-195.7052300000000002
0
CIRCLE
8
BLACK
10
89.1826049999999952
20
-111.9870669999999961
40
1.1500589999999999
0
LINE
8
BLACK
6
CONTINUOUS
10
91.6407569999999936
20
-191.8069710000000043
11
87.891262999999995
21
-193.9772439999999847
0
LINE
8
BLACK
6
CONTINUOUS
10
341.7158049999999889
20
-85.5767730000000029
11
327.1810419999999908
21
-89.4812840000000023
0
ARC
8
BLACK
10
270.8818999999999733
20
-253.3935999999999922
40
43.5721911727763569
50
106.99332763
51
132.24734946
0
LINE
8
BLACK
6
CONTINUOUS
10
382.285505999999998
20
-147.9088859999999954
11
377.3540689999999813
21
-129.4919909999999845
0
ARC
8
BLACK
10
369.8021999999999707
20
-159.5389999999999873
40
3.9998436281097289
50
-255.00223009
51
-164.99716316
0
LINE
8
BLACK
6
CONTINUOUS
10
352.4899849999999901
20
-183.9050699999999949
11
350.0121859999999856
21
-174.6702999999999975
0
ARC
8
BLACK
10
378.421799999999962
20
-148.9440999999999917
40
3.9999865100062526
50
-75.04655309
51
14.99912969
0
LINE
8
BLACK
6
CONTINUOUS
10
187.7166330000000016
20
-112.2205489999999912
11
173.1949860000000001
21
-108.3303650000000005
0
LINE
8
BLACK
6
CONTINUOUS
10
173.1949860000000001
20
-108.3303650000000005
11
172.1272519999999986
21
-106.4809999999999945
0
LINE
8
BLACK
6
CONTINUOUS
10
172.1272519999999986
20
-106.4809999999999945
11
155.1752559999999903
21
-101.9387279999999976
0
LINE
8
BLACK
6
CONTINUOUS
10
130.9182349999999815
20
-93.8654549999999972
11
154.1101149999999791
21
-100.0797039999999924
0
LINE
8
BLACK
6
CONTINUOUS
10
129.0443750000000023
20
-94.9473279999999988
11
130.9182349999999815
21
-93.8654549999999972
0
LINE
8
BLACK
6
CONTINUOUS
10
113.5799030000000016
20
-90.8036379999999923
11
129.0443750000000023
21
-94.9473279999999988
0
LINE
8
BLACK
6
CONTINUOUS
10
109.8566749999999956
20
-92.9532430000000005
11
113.5799030000000016
21
-90.8036379999999923
0
LINE
8
BLACK
6
CONTINUOUS
10
92.9143359999999916
20
-88.4135539999999907
11
109.8566749999999956
21
-92.9532430000000005
0
LINE
8
BLACK
6
CONTINUOUS
10
91.0649739999999923
20
-89.4812869999999947
11
92.9143359999999916
21
-88.4135539999999907
0
LINE
8
BLACK
6
CONTINUOUS
10
91.0649739999999923
20
-89.4812869999999947
11
76.5302069999999901
21
-85.5767749999999978
0
ARC
8
BLACK
10
75.4917999999999978
20
-89.4395999999999987
40
3.9999822856659004
50
74.95342581
51
165.00054269
0
LINE
8
BLACK
6
CONTINUOUS
10
71.6281039999999933
20
-88.4043649999999985
11
61.3814689999999956
21
-126.6967149999999975
0
LINE
8
BLACK
6
CONTINUOUS
10
56.4824929999999981
20
-129.5251449999999807
11
45.7940529999999981
21
-126.6644039999999904
0
ARC
8
BLACK
10
57.5177399999999963
20
-125.6614000000000004
40
4.0000348666812888
50
-104.99944169
51
-15.00044184
0
ARC
8
BLACK
10
44.7556299999999965
20
-130.527230000000003
40
3.9999690214825412
50
74.95320820
51
165.00047695
0
LINE
8
BLACK
6
CONTINUOUS
10
40.8919479999999993
20
-129.4919940000000054
11
35.9605090000000018
21
-147.908883000000003
0
ARC
8
BLACK
10
39.8243000000000009
20
-148.9440999999999917
40
4.0000834375428971
50
-194.99885610
51
-104.95460196
0
LINE
8
BLACK
6
CONTINUOUS
10
49.4788909999999973
20
-155.6754439999999988
11
38.7920639999999963
21
-152.80870299999998
0
ARC
8
BLACK
10
48.4435999999999964
20
-159.5390999999999906
40
3.9999581424081176
50
-15.00065236
51
74.99961958
0
ARC
8
BLACK
10
55.7845999999999975
20
-163.0521999999999991
40
4.0001289243949376
50
-194.99815267
51
-104.95493201
0
LINE
8
BLACK
6
CONTINUOUS
10
363.4936829999999759
20
-166.9168420000000026
11
352.8406109999999671
21
-169.7713239999999928
0
ARC
8
BLACK
10
353.8759000000000015
20
-173.6349999999999909
40
4.0000164954404873
50
-254.99972140
51
-164.99971009
  0
ENDSEC
  0
EOF
