<?xml version="1.0" standalone="no"?>
 <!DOCTYPE svg PUBLIC "-//W3C//DTD SVG 1.1//EN" 
 "http://www.w3.org/Graphics/SVG/1.1/DTD/svg11.dtd"> 
<svg
  xmlns:svg="http://www.w3.org/2000/svg"
  xmlns="http://www.w3.org/2000/svg"
  xmlns:xlink="http://www.w3.org/1999/xlink"
  version="1.1"
  width="419.989000mm" height="297.002200mm" viewBox="0.000000 0.000000 419.989000 297.002200">
<title>SVG Image created as Ashwing66_topplate-Edge_Cuts.svg date 2024/07/10 10:46:35 </title>
  <desc>Image generated by PCBNEW </desc>
<g style="fill:#000000; fill-opacity:1.000000;stroke:#000000; stroke-opacity:1.000000;
stroke-linecap:round; stroke-linejoin:round;"
 transform="translate(0 0) scale(1 1)">
</g>
<g style="fill:none; 
stroke:#000000; stroke-width:0.100000; stroke-opacity:1; 
stroke-linecap:round; stroke-linejoin:round;">
<path d="M214.073554 178.813844
L214.073553 192.813844
" />
<path d="M228.073552 178.813844
L214.073554 178.813844
" />
<path d="M228.073553 192.813844
L228.073552 178.813844
" />
<path d="M214.073553 192.813844 A12.035322 12.035322 0.0 0 0 228.073553 192.813844" />
<path d="M61.379838 152.479294
L50.693011 149.612553
" />
<path d="M102.965921 86.285137
L104.815283 85.217404
" />
<path d="M52.792895 126.295844
L47.861456 144.712733
" />
<path d="M342.255699 190.781093
L338.506206 188.610821
" />
<path d="M77.306349 166.575173
L66.653277 163.720691
" />
<path d="M80.134774 171.474151
L77.656976 180.708918
" />
<path d="M125.480850 87.607488
L140.945322 91.751178
" />
<path d="M299.228727 90.669306
L301.102587 91.751179
" />
<path d="M391.354904 149.612571 A4.000045 4.000045 0.0 0 0 394.186453 144.712736" />
<path d="M375.394630 163.720692
L364.741558 166.575174
" />
<circle cx="251.073552" cy="185.480916" r="1.150059" /> 
<path d="M342.255699 190.781093
L361.559382 185.608736
" />
<path d="M223.858131 219.726296
L235.083650 230.956878
" />
<path d="M256.951976 105.134214
L242.509524 109.014398
" />
<path d="M104.815283 85.217404
L121.757622 89.757093
" />
<path d="M102.965921 86.285137
L88.431154 82.380625
" />
<path d="M119.925664 191.447979
L135.428777 195.602025
" />
<path d="M167.076203 98.742578
L166.011062 96.883554
" />
<path d="M223.858123 219.726304 A4.000046 4.000046 0.0 0 0 218.198990 219.728592" />
<circle cx="341.033552" cy="108.860916" r="1.150060" /> 
<path d="M289.936832 203.198567
L270.048415 208.527654
" />
<path d="M201.305074 230.959216 A4.000133 4.000133 0.0 0 0 206.964258 230.956883" />
<path d="M80.134773 171.474151 A3.999893 3.999893 0.0 0 0 77.306349 166.575173" />
<path d="M188.560062 217.943168
L201.305117 230.959173
" />
<path d="M83.529051 85.208215
L73.282416 123.500565
" />
<path d="M194.782453 158.072077
L208.993510 163.501026
" />
<path d="M151.036279 201.336954
L152.111082 203.198572
" />
<path d="M80.488526 185.608734
L99.792210 190.781094
" />
<path d="M88.431153 82.380628 A3.999924 3.999924 0.0 0 0 83.529051 85.208215" />
<path d="M103.541704 188.610821
L99.792210 190.781094
" />
<path d="M337.232626 85.217407
L339.081989 86.285134
" />
<circle cx="191.043552" cy="185.410917" r="1.150059" /> 
<path d="M322.122246 191.447979
L323.957722 192.509080
" />
<path d="M391.354899 149.612551
L380.668072 152.479296
" />
<path d="M353.616752 82.380623
L339.081989 86.285134
" />
<path d="M320.290285 89.757091
L337.232626 85.217407
" />
<circle cx="175.453552" cy="125.642668" r="1.150060" /> 
<circle cx="86.273551" cy="164.040916" r="1.150060" /> 
<path d="M389.255004 126.295844 A4.000143 4.000143 0.0 0 0 384.352910 123.468257" />
<path d="M240.742793 230.959171
L253.487844 217.943169
" />
<path d="M242.509526 109.014406 A3.999936 3.999936 0.0 0 0 239.677973 113.914215" />
<path d="M185.095933 105.134215
L184.028199 103.284850
" />
<path d="M306.619147 195.602034
L305.560114 197.438704
" />
<path d="M270.048413 208.527639 A43.571975 43.571975 0.0 0 0 253.487844 217.943169" />
<path d="M68.383442 126.328989 A4.000020 4.000020 0.0 0 0 73.282416 123.500565" />
<path d="M140.945322 91.751178
L142.819182 90.669305
" />
<path d="M118.090186 192.509079
L103.541704 188.610821
" />
<path d="M64.208264 157.378277
L63.821723 158.820875
" />
<circle cx="101.083552" cy="108.790917" r="1.150059" /> 
<path d="M247.344654 158.062091 A3.999982 3.999982 0.0 0 0 250.173077 153.163094" />
<path d="M68.383440 126.328995
L57.695000 123.468254
" />
<path d="M289.936832 203.198567
L291.011629 201.336959
" />
<path d="M121.757622 89.757093
L125.480850 87.607488
" />
<path d="M276.036847 96.883553
L299.228727 90.669306
" />
<path d="M136.487797 197.438702
L135.428763 195.602034
" />
<path d="M377.839646 157.378277
L378.226187 158.820874
" />
<path d="M364.741554 166.575159 A4.000055 4.000055 0.0 0 0 361.913133 171.474150" />
<path d="M380.668068 152.479280 A3.999882 3.999882 0.0 0 0 377.839646 157.378277" />
<path d="M136.487797 197.438702
L151.036279 201.336954
" />
<path d="M306.619133 195.602022
L322.122246 191.447979
" />
<circle cx="160.643552" cy="180.890916" r="1.150060" /> 
<path d="M191.954038 153.173098 A3.999967 3.999967 0.0 0 0 194.782453 158.072077" />
<path d="M274.971706 98.742576
L258.019706 103.284854
" />
<path d="M202.449135 113.924216 A3.999945 3.999945 0.0 0 0 199.617580 109.024399" />
<path d="M258.019706 103.284854
L256.951976 105.134214
" />
<path d="M64.208293 157.378285 A3.999993 3.999993 0.0 0 0 61.379838 152.479294" />
<path d="M118.090186 192.509079
L119.925664 191.447979
" />
<path d="M316.567061 87.607486
L320.290285 89.757091
" />
<path d="M235.083683 230.956845 A3.999936 3.999936 0.0 0 0 240.742793 230.959171" />
<path d="M199.617580 109.024399
L185.095933 105.134215
" />
<circle cx="266.653552" cy="125.710916" r="1.150059" /> 
<path d="M384.352910 123.468257
L373.664469 126.328996
" />
<path d="M361.559388 185.608759 A4.000029 4.000029 0.0 0 0 364.390932 180.708920" />
<path d="M368.765452 123.500577 A3.999920 3.999920 0.0 0 0 373.664469 126.328996" />
<path d="M184.028199 103.284850
L167.076203 98.742578
" />
<path d="M375.394629 163.720689 A4.000068 4.000068 0.0 0 0 378.226187 158.820874" />
<path d="M202.449131 113.924215
L191.954027 153.173095
" />
<path d="M77.656946 180.708910 A4.000123 4.000123 0.0 0 0 80.488526 185.608734" />
<path d="M291.011629 201.336959
L305.560114 197.438704
" />
<path d="M233.133552 163.490916
L247.344650 158.062077
" />
<path d="M47.861488 144.712742 A4.000171 4.000171 0.0 0 0 50.693011 149.612553" />
<path d="M171.999492 208.527649
L152.111082 203.198572
" />
<path d="M233.133552 163.490916
L208.993552 163.500916
" />
<path d="M338.506206 188.610821
L323.957722 192.509080
" />
<path d="M188.560050 217.943182 A43.571745 43.571745 0.0 0 0 171.999492 208.527649" />
<path d="M142.819182 90.669305
L166.011062 96.883554
" />
<circle cx="355.843552" cy="164.110916" r="1.150060" /> 
<path d="M276.036847 96.883553
L274.971706 98.742576
" />
<path d="M358.518834 85.208219 A3.999760 3.999760 0.0 0 0 353.616752 82.380623" />
<circle cx="281.463552" cy="180.970916" r="1.150059" /> 
<path d="M250.173077 153.163094
L239.677973 113.914215
" />
<path d="M63.821731 158.820877 A4.000217 4.000217 0.0 0 0 66.653277 163.720691" />
<path d="M57.695000 123.468255 A3.999960 3.999960 0.0 0 0 52.792895 126.295844" />
<path d="M301.102587 91.751179
L316.567061 87.607486
" />
<path d="M364.390932 180.708920
L361.913133 171.474150
" />
<path d="M394.186453 144.712736
L389.255016 126.295841
" />
<path d="M368.765492 123.500566
L358.518857 85.208213
" />
<path d="M206.964258 230.956883
L218.198990 219.728592
" />
<path style="fill:none; 
stroke:#000000; stroke-width:0.100000; stroke-opacity:1; 
stroke-linecap:round; stroke-linejoin:round;fill:none"
d="M 257.675528,175.534312
244.152566,179.157779
240.529100,165.634817
254.052060,162.011351
Z" /> 
<path style="fill:none; 
stroke:#000000; stroke-width:0.100000; stroke-opacity:1; 
stroke-linecap:round; stroke-linejoin:round;fill:none"
d="M 106.687018,151.651944
103.063552,165.174906
89.540591,161.551440
93.164058,148.028478
Z" /> 
<path style="fill:none; 
stroke:#000000; stroke-width:0.100000; stroke-opacity:1; 
stroke-linecap:round; stroke-linejoin:round;fill:none"
d="M 352.541194,161.551836
339.018232,165.175303
335.394766,151.652341
348.917726,148.028875
Z" /> 
<path style="fill:none; 
stroke:#000000; stroke-width:0.100000; stroke-opacity:1; 
stroke-linecap:round; stroke-linejoin:round;fill:none"
d="M 268.685043,142.986090
255.162081,146.609557
251.538615,133.086595
265.061575,129.463129
Z" /> 
<path style="fill:none; 
stroke:#000000; stroke-width:0.100000; stroke-opacity:1; 
stroke-linecap:round; stroke-linejoin:round;fill:none"
d="M 342.680184,124.750067
329.157222,128.373534
325.533756,114.850572
339.056716,111.227106
Z" /> 
<path style="fill:none; 
stroke:#000000; stroke-width:0.100000; stroke-opacity:1; 
stroke-linecap:round; stroke-linejoin:round;fill:none"
d="M 338.281927,181.939081
324.758965,185.562548
321.135499,172.039586
334.658459,168.416120
Z" /> 
<path style="fill:none; 
stroke:#000000; stroke-width:0.100000; stroke-opacity:1; 
stroke-linecap:round; stroke-linejoin:round;fill:none"
d="M 111.617521,133.251051
107.994055,146.774013
94.471094,143.150547
98.094561,129.627585
Z" /> 
<path style="fill:none; 
stroke:#000000; stroke-width:0.100000; stroke-opacity:1; 
stroke-linecap:round; stroke-linejoin:round;fill:none"
d="M 97.758579,111.369807
94.135113,124.892769
80.612152,121.269303
84.235619,107.746341
Z" /> 
<path style="fill:none; 
stroke:#000000; stroke-width:0.100000; stroke-opacity:1; 
stroke-linecap:round; stroke-linejoin:round;fill:none"
d="M 130.826132,135.216168
127.202666,148.739130
113.679705,145.115664
117.303172,131.592702
Z" /> 
<path style="fill:none; 
stroke:#000000; stroke-width:0.100000; stroke-opacity:1; 
stroke-linecap:round; stroke-linejoin:round;fill:none"
d="M 102.698500,92.958292
99.075034,106.481254
85.552073,102.857788
89.175540,89.334826
Z" /> 
<path style="fill:none; 
stroke:#000000; stroke-width:0.100000; stroke-opacity:1; 
stroke-linecap:round; stroke-linejoin:round;fill:none"
d="M 356.539138,102.868818
343.016176,106.492285
339.392710,92.969323
352.915670,89.345857
Z" /> 
<path style="fill:none; 
stroke:#000000; stroke-width:0.100000; stroke-opacity:1; 
stroke-linecap:round; stroke-linejoin:round;fill:none"
d="M 139.741616,175.497611
136.118150,189.020573
122.595189,185.397107
126.218656,171.874145
Z" /> 
<path style="fill:none; 
stroke:#000000; stroke-width:0.100000; stroke-opacity:1; 
stroke-linecap:round; stroke-linejoin:round;fill:none"
d="M 167.618486,145.087797
163.995020,158.610759
150.472059,154.987293
154.095526,141.464331
Z" /> 
<path style="fill:none; 
stroke:#000000; stroke-width:0.100000; stroke-opacity:1; 
stroke-linecap:round; stroke-linejoin:round;fill:none"
d="M 263.754542,124.585211
250.231580,128.208678
246.608114,114.685716
260.131074,111.062250
Z" /> 
<path style="fill:none; 
stroke:#000000; stroke-width:0.100000; stroke-opacity:1; 
stroke-linecap:round; stroke-linejoin:round;fill:none"
d="M 337.746839,106.363092
324.223877,109.986559
320.600411,96.463597
334.123371,92.840131
Z" /> 
<path style="fill:none; 
stroke:#000000; stroke-width:0.100000; stroke-opacity:1; 
stroke-linecap:round; stroke-linejoin:round;fill:none"
d="M 361.469642,121.269702
347.946680,124.893169
344.323214,111.370207
357.846174,107.746741
Z" /> 
<path style="fill:none; 
stroke:#000000; stroke-width:0.100000; stroke-opacity:1; 
stroke-linecap:round; stroke-linejoin:round;fill:none"
d="M 162.697398,163.478050
159.073932,177.001012
145.550971,173.377546
149.174438,159.854584
Z" /> 
<path style="fill:none; 
stroke:#000000; stroke-width:0.100000; stroke-opacity:1; 
stroke-linecap:round; stroke-linejoin:round;fill:none"
d="M 214.025164,214.653919
204.125669,224.553415
194.226174,214.653920
204.125670,204.754426
Z" /> 
<path style="fill:none; 
stroke:#000000; stroke-width:0.100000; stroke-opacity:1; 
stroke-linecap:round; stroke-linejoin:round;fill:none"
d="M 301.480153,191.800092
287.957191,195.423559
284.333725,181.900597
297.856685,178.277131
Z" /> 
<path style="fill:none; 
stroke:#000000; stroke-width:0.100000; stroke-opacity:1; 
stroke-linecap:round; stroke-linejoin:round;fill:none"
d="M 387.264570,143.948237
373.741608,147.571704
370.118142,134.048742
383.641102,130.425276
Z" /> 
<path style="fill:none; 
stroke:#000000; stroke-width:0.100000; stroke-opacity:1; 
stroke-linecap:round; stroke-linejoin:round;fill:none"
d="M 185.634353,151.479743
182.010887,165.002705
168.487926,161.379239
172.111393,147.856277
Z" /> 
<path style="fill:none; 
stroke:#000000; stroke-width:0.100000; stroke-opacity:1; 
stroke-linecap:round; stroke-linejoin:round;fill:none"
d="M 286.688642,136.597433
273.165680,140.220900
269.542214,126.697938
283.065174,123.074472
Z" /> 
<path style="fill:none; 
stroke:#000000; stroke-width:0.100000; stroke-opacity:1; 
stroke-linecap:round; stroke-linejoin:round;fill:none"
d="M 296.552501,173.385294
283.029539,177.008761
279.406073,163.485799
292.929033,159.862333
Z" /> 
<path style="fill:none; 
stroke:#000000; stroke-width:0.100000; stroke-opacity:1; 
stroke-linecap:round; stroke-linejoin:round;fill:none"
d="M 273.615543,161.386981
260.092581,165.010448
256.469115,151.487486
269.992075,147.864020
Z" /> 
<path style="fill:none; 
stroke:#000000; stroke-width:0.100000; stroke-opacity:1; 
stroke-linecap:round; stroke-linejoin:round;fill:none"
d="M 172.558408,126.676284
168.934942,140.199246
155.411981,136.575780
159.035448,123.052818
Z" /> 
<path style="fill:none; 
stroke:#000000; stroke-width:0.100000; stroke-opacity:1; 
stroke-linecap:round; stroke-linejoin:round;fill:none"
d="M 201.578506,165.615225
197.955040,179.138187
184.432079,175.514721
188.055546,161.991759
Z" /> 
<path style="fill:none; 
stroke:#000000; stroke-width:0.100000; stroke-opacity:1; 
stroke-linecap:round; stroke-linejoin:round;fill:none"
d="M 190.564857,133.078858
186.941391,146.601820
173.418430,142.978354
177.041897,129.455392
Z" /> 
<path style="fill:none; 
stroke:#000000; stroke-width:0.100000; stroke-opacity:1; 
stroke-linecap:round; stroke-linejoin:round;fill:none"
d="M 314.556096,166.996628
301.033134,170.620095
297.409668,157.097133
310.932628,153.473667
Z" /> 
<path style="fill:none; 
stroke:#000000; stroke-width:0.100000; stroke-opacity:1; 
stroke-linecap:round; stroke-linejoin:round;fill:none"
d="M 319.483756,185.411428
305.960794,189.034895
302.337328,175.511933
315.860288,171.888467
Z" /> 
<path style="fill:none; 
stroke:#000000; stroke-width:0.100000; stroke-opacity:1; 
stroke-linecap:round; stroke-linejoin:round;fill:none"
d="M 196.628866,198.898756
189.628866,211.023112
177.504511,204.023112
184.504512,191.898757
Z" /> 
<path style="fill:none; 
stroke:#000000; stroke-width:0.100000; stroke-opacity:1; 
stroke-linecap:round; stroke-linejoin:round;fill:none"
d="M 278.543209,179.801782
265.020247,183.425249
261.396781,169.902287
274.919741,166.278821
Z" /> 
<path style="fill:none; 
stroke:#000000; stroke-width:0.100000; stroke-opacity:1; 
stroke-linecap:round; stroke-linejoin:round;fill:none"
d="M 175.773349,188.281517
172.149883,201.804479
158.626922,198.181013
162.250389,184.658051
Z" /> 
<path style="fill:none; 
stroke:#000000; stroke-width:0.100000; stroke-opacity:1; 
stroke-linecap:round; stroke-linejoin:round;fill:none"
d="M 304.695099,130.194860
291.172137,133.818327
287.548671,120.295365
301.071631,116.671899
Z" /> 
<path style="fill:none; 
stroke:#000000; stroke-width:0.100000; stroke-opacity:1; 
stroke-linecap:round; stroke-linejoin:round;fill:none"
d="M 135.747219,116.825899
132.123753,130.348861
118.600792,126.725395
122.224259,113.202433
Z" /> 
<path style="fill:none; 
stroke:#000000; stroke-width:0.100000; stroke-opacity:1; 
stroke-linecap:round; stroke-linejoin:round;fill:none"
d="M 177.488911,108.275400
173.865445,121.798362
160.342484,118.174896
163.965951,104.651934
Z" /> 
<path style="fill:none; 
stroke:#000000; stroke-width:0.100000; stroke-opacity:1; 
stroke-linecap:round; stroke-linejoin:round;fill:none"
d="M 101.756517,170.052824
98.133051,183.575786
84.610090,179.952320
88.233557,166.429358
Z" /> 
<path style="fill:none; 
stroke:#000000; stroke-width:0.100000; stroke-opacity:1; 
stroke-linecap:round; stroke-linejoin:round;fill:none"
d="M 371.330648,158.071483
357.807686,161.694950
354.184220,148.171988
367.707180,144.548522
Z" /> 
<path style="fill:none; 
stroke:#000000; stroke-width:0.100000; stroke-opacity:1; 
stroke-linecap:round; stroke-linejoin:round;fill:none"
d="M 347.607842,143.164861
334.084880,146.788328
330.461414,133.265366
343.984374,129.641900
Z" /> 
<path style="fill:none; 
stroke:#000000; stroke-width:0.100000; stroke-opacity:1; 
stroke-linecap:round; stroke-linejoin:round;fill:none"
d="M 144.672116,157.096732
141.048650,170.619694
127.525689,166.996228
131.149156,153.473266
Z" /> 
<path style="fill:none; 
stroke:#000000; stroke-width:0.100000; stroke-opacity:1; 
stroke-linecap:round; stroke-linejoin:round;fill:none"
d="M 140.677713,98.425019
137.054247,111.947981
123.531286,108.324515
127.154753,94.801553
Z" /> 
<path style="fill:none; 
stroke:#000000; stroke-width:0.100000; stroke-opacity:1; 
stroke-linecap:round; stroke-linejoin:round;fill:none"
d="M 366.400141,139.670594
352.877179,143.294061
349.253713,129.771099
362.776673,126.147633
Z" /> 
<path style="fill:none; 
stroke:#000000; stroke-width:0.100000; stroke-opacity:1; 
stroke-linecap:round; stroke-linejoin:round;fill:none"
d="M 157.757482,181.889570
154.134016,195.412532
140.611055,191.789066
144.234522,178.266104
Z" /> 
<path style="fill:none; 
stroke:#000000; stroke-width:0.100000; stroke-opacity:1; 
stroke-linecap:round; stroke-linejoin:round;fill:none"
d="M 281.760990,118.182630
268.238028,121.806097
264.614562,108.283135
278.137522,104.659669
Z" /> 
<path style="fill:none; 
stroke:#000000; stroke-width:0.100000; stroke-opacity:1; 
stroke-linecap:round; stroke-linejoin:round;fill:none"
d="M 357.471703,179.952725
343.948741,183.576192
340.325275,170.053230
353.848235,166.429764
Z" /> 
<path style="fill:none; 
stroke:#000000; stroke-width:0.100000; stroke-opacity:1; 
stroke-linecap:round; stroke-linejoin:round;fill:none"
d="M 154.542548,120.284335
150.919082,133.807297
137.396121,130.183831
141.019588,116.660869
Z" /> 
<path style="fill:none; 
stroke:#000000; stroke-width:0.100000; stroke-opacity:1; 
stroke-linecap:round; stroke-linejoin:round;fill:none"
d="M 318.562767,108.321630
305.039805,111.945097
301.416339,98.422135
314.939299,94.798669
Z" /> 
<path style="fill:none; 
stroke:#000000; stroke-width:0.100000; stroke-opacity:1; 
stroke-linecap:round; stroke-linejoin:round;fill:none"
d="M 120.955707,172.028566
117.332241,185.551528
103.809280,181.928062
107.432747,168.405100
Z" /> 
<path style="fill:none; 
stroke:#000000; stroke-width:0.100000; stroke-opacity:1; 
stroke-linecap:round; stroke-linejoin:round;fill:none"
d="M 328.420923,145.137312
314.897961,148.760779
311.274495,135.237817
324.797455,131.614351
Z" /> 
<path style="fill:none; 
stroke:#000000; stroke-width:0.100000; stroke-opacity:1; 
stroke-linecap:round; stroke-linejoin:round;fill:none"
d="M 149.602626,138.695846
145.979160,152.218808
132.456199,148.595342
136.079666,135.072380
Z" /> 
<path style="fill:none; 
stroke:#000000; stroke-width:0.100000; stroke-opacity:1; 
stroke-linecap:round; stroke-linejoin:round;fill:none"
d="M 71.957873,134.055800
68.334407,147.578762
54.811446,143.955296
58.434913,130.432334
Z" /> 
<path style="fill:none; 
stroke:#000000; stroke-width:0.100000; stroke-opacity:1; 
stroke-linecap:round; stroke-linejoin:round;fill:none"
d="M 92.828078,129.770694
89.204612,143.293656
75.681651,139.670190
79.305118,126.147228
Z" /> 
<path style="fill:none; 
stroke:#000000; stroke-width:0.100000; stroke-opacity:1; 
stroke-linecap:round; stroke-linejoin:round;fill:none"
d="M 87.906993,148.160953
84.283527,161.683915
70.760566,158.060449
74.384033,144.537487
Z" /> 
<path style="fill:none; 
stroke:#000000; stroke-width:0.100000; stroke-opacity:1; 
stroke-linecap:round; stroke-linejoin:round;fill:none"
d="M 283.476555,198.188753
269.953593,201.812220
266.330127,188.289258
279.853087,184.665792
Z" /> 
<path style="fill:none; 
stroke:#000000; stroke-width:0.100000; stroke-opacity:1; 
stroke-linecap:round; stroke-linejoin:round;fill:none"
d="M 125.886203,153.627677
122.262737,167.150639
108.739776,163.527173
112.363243,150.004211
Z" /> 
<path style="fill:none; 
stroke:#000000; stroke-width:0.100000; stroke-opacity:1; 
stroke-linecap:round; stroke-linejoin:round;fill:none"
d="M 180.703857,169.880628
177.080391,183.403590
163.557430,179.780124
167.180897,166.257162
Z" /> 
<path style="fill:none; 
stroke:#000000; stroke-width:0.100000; stroke-opacity:1; 
stroke-linecap:round; stroke-linejoin:round;fill:none"
d="M 333.354271,163.524293
319.831309,167.147760
316.207843,153.624798
329.730803,150.001332
Z" /> 
<path style="fill:none; 
stroke:#000000; stroke-width:0.100000; stroke-opacity:1; 
stroke-linecap:round; stroke-linejoin:round;fill:none"
d="M 291.619154,154.998322
278.096192,158.621789
274.472726,145.098827
287.995686,141.475361
Z" /> 
<path style="fill:none; 
stroke:#000000; stroke-width:0.100000; stroke-opacity:1; 
stroke-linecap:round; stroke-linejoin:round;fill:none"
d="M 323.493273,126.722522
309.970311,130.345989
306.346845,116.823027
319.869805,113.199561
Z" /> 
<path style="fill:none; 
stroke:#000000; stroke-width:0.100000; stroke-opacity:1; 
stroke-linecap:round; stroke-linejoin:round;fill:none"
d="M 116.548029,114.850166
112.924563,128.373128
99.401602,124.749662
103.025069,111.226700
Z" /> 
<path style="fill:none; 
stroke:#000000; stroke-width:0.100000; stroke-opacity:1; 
stroke-linecap:round; stroke-linejoin:round;fill:none"
d="M 195.495360,114.677968
191.871894,128.200930
178.348933,124.577464
181.972400,111.054502
Z" /> 
<path style="fill:none; 
stroke:#000000; stroke-width:0.100000; stroke-opacity:1; 
stroke-linecap:round; stroke-linejoin:round;fill:none"
d="M 121.487949,96.438659
117.864483,109.961621
104.341522,106.338155
107.964989,92.815193
Z" /> 
<path style="fill:none; 
stroke:#000000; stroke-width:0.100000; stroke-opacity:1; 
stroke-linecap:round; stroke-linejoin:round;fill:none"
d="M 299.764589,111.793972
286.241627,115.417439
282.618161,101.894477
296.141121,98.271011
Z" /> 
<path style="fill:none; 
stroke:#000000; stroke-width:0.100000; stroke-opacity:1; 
stroke-linecap:round; stroke-linejoin:round;fill:none"
d="M 247.801323,214.679199
237.901828,224.578694
228.002334,214.679198
237.901827,204.779704
Z" /> 
<path style="fill:none; 
stroke:#000000; stroke-width:0.100000; stroke-opacity:1; 
stroke-linecap:round; stroke-linejoin:round;fill:none"
d="M 309.622749,148.609657
296.099787,152.233124
292.476321,138.710162
305.999281,135.086696
Z" /> 
<path style="fill:none; 
stroke:#000000; stroke-width:0.100000; stroke-opacity:1; 
stroke-linecap:round; stroke-linejoin:round;fill:none"
d="M 264.583446,204.034659
252.459091,211.034659
245.459092,198.910303
257.583446,191.910304
Z" /> 
<path style="fill:none; 
stroke:#000000; stroke-width:0.100000; stroke-opacity:1; 
stroke-linecap:round; stroke-linejoin:round;fill:none"
d="M 159.473050,101.883445
155.849584,115.406407
142.326623,111.782941
145.950090,98.259979
Z" /> 
</g> 
</svg>
