<?xml version="1.0" standalone="no"?>
 <!DOCTYPE svg PUBLIC "-//W3C//DTD SVG 1.1//EN" 
 "http://www.w3.org/Graphics/SVG/1.1/DTD/svg11.dtd"> 
<svg
  xmlns:svg="http://www.w3.org/2000/svg"
  xmlns="http://www.w3.org/2000/svg"
  xmlns:xlink="http://www.w3.org/1999/xlink"
  version="1.1"
  width="419.989000mm" height="297.002200mm" viewBox="0.000000 0.000000 419.989000 297.002200">
<title>SVG Image created as Ashwing66_baseplate-Edge_Cuts.svg date 2024/07/10 10:36:12 </title>
  <desc>Image generated by PCBNEW </desc>
<g style="fill:#000000; fill-opacity:1.000000;stroke:#000000; stroke-opacity:1.000000;
stroke-linecap:round; stroke-linejoin:round;"
 transform="translate(0 0) scale(1 1)">
</g>
<g style="fill:none; 
stroke:#000000; stroke-width:0.100000; stroke-opacity:1; 
stroke-linecap:round; stroke-linejoin:round;">
<circle cx="269.562605" cy="184.167066" r="1.150059" /> 
<path d="M278.035885 206.394717
L279.110682 204.533109
" />
<path d="M160.098545 211.723799
L140.210135 206.394722
" />
<path d="M308.389338 92.953241
L325.331679 88.413557
" />
<path d="M304.666114 90.803636
L308.389338 92.953241
" />
<path d="M365.938699 160.574427
L366.325240 162.017024
" />
<path d="M356.864595 126.696703 A3.999860 3.999860 0.0 0 0 361.763522 129.525146" />
<circle cx="329.132605" cy="112.057066" r="1.150060" /> 
<path d="M52.307317 160.574427
L51.920776 162.017025
" />
<path d="M155.175256 101.938728
L154.110115 100.079704
" />
<circle cx="148.742605" cy="184.087066" r="1.150060" /> 
<path d="M176.659096 221.139339 A43.571809 43.571809 0.0 0 0 160.098545 211.723799" />
<path d="M108.024717 194.644129
L123.527830 198.798175
" />
<path d="M310.221299 194.644129
L312.056775 195.705230
" />
<path d="M294.718186 198.798172
L310.221299 194.644129
" />
<path d="M246.118759 106.481004
L245.051029 108.330364
" />
<path d="M264.135900 100.079703
L263.070759 101.938726
" />
<circle cx="254.752605" cy="128.907066" r="1.150059" /> 
<path d="M230.608577 112.210548
L187.716633 112.220549
" />
<path d="M264.135900 100.079703
L287.327780 93.865456
" />
<path d="M106.189239 195.705229
L91.640757 191.806971
" />
<path d="M65.756022 183.905066 A4.000061 4.000061 0.0 0 0 68.587579 188.804884" />
<path d="M228.841846 234.155321
L241.586897 221.139319
" />
<path d="M279.110682 204.533109
L293.659167 200.634854
" />
<path d="M65.405402 169.771323
L54.752330 166.916841
" />
<path d="M106.189239 195.705229
L108.024717 194.644129
" />
<path d="M211.957223 222.922407 A4.000044 4.000044 0.0 0 0 206.298043 222.924742" />
<path d="M263.070759 101.938726
L246.118759 106.481004
" />
<path d="M189.404174 234.155319 A4.000206 4.000206 0.0 0 0 195.063311 234.153033" />
<path d="M176.659115 221.139318
L189.404170 234.155323
" />
<path d="M245.051029 108.330364
L230.608577 112.210548
" />
<path d="M195.063311 234.153033
L206.298043 222.924742
" />
<circle cx="239.172605" cy="188.677066" r="1.150059" /> 
<path d="M124.586850 200.634852
L139.135332 204.533104
" />
<path d="M223.182683 234.153048 A3.999938 3.999938 0.0 0 0 228.841846 234.155321" />
<path d="M211.957184 222.922446
L223.182703 234.153028
" />
<path d="M379.453952 152.808701
L368.767125 155.675446
" />
<circle cx="179.142605" cy="188.607067" r="1.150059" /> 
<path d="M68.233827 174.670301
L65.756029 183.905068
" />
<path d="M356.864545 126.696716
L346.617910 88.404363
" />
<circle cx="343.942605" cy="167.307066" r="1.150060" /> 
<path d="M68.587579 188.804884
L87.891263 193.977244
" />
<path d="M325.331679 88.413557
L327.181042 89.481284
" />
<path d="M287.327780 93.865456
L289.201640 94.947329
" />
<path d="M139.135332 204.533104
L140.210135 206.394722
" />
<circle cx="74.372604" cy="167.237066" r="1.150060" /> 
<circle cx="163.552605" cy="128.838818" r="1.150060" /> 
<path d="M330.354752 193.977243
L349.658435 188.804886
" />
<path d="M372.451963 126.664407
L361.763522 129.525146
" />
<path d="M278.035885 206.394717
L258.147468 211.723804
" />
<path d="M330.354752 193.977243
L326.605259 191.806971
" />
<path d="M68.233781 174.670289 A3.999981 3.999981 0.0 0 0 65.405402 169.771323" />
<path d="M124.586850 200.634852
L123.527816 198.798184
" />
<path d="M346.617909 88.404363 A3.999724 3.999724 0.0 0 0 341.715805 85.576773" />
<path d="M377.354078 129.491989 A4.000107 4.000107 0.0 0 0 372.451963 126.664407" />
<path d="M363.493676 166.916816 A4.000106 4.000106 0.0 0 0 366.325240 162.017024" />
<path d="M294.718200 198.798184
L293.659167 200.634854
" />
<path d="M289.201640 94.947329
L304.666114 90.803636
" />
<path d="M349.658417 188.804818 A3.999970 3.999970 0.0 0 0 352.489985 183.905070" />
<path d="M326.605259 191.806971
L312.056775 195.705230
" />
<circle cx="89.182605" cy="111.987067" r="1.150059" /> 
<path d="M91.640757 191.806971
L87.891263 193.977244
" />
<path d="M341.715805 85.576773
L327.181042 89.481284
" />
<path d="M258.147477 211.723823 A43.572191 43.572191 0.0 0 0 241.586897 221.139319" />
<path d="M382.285506 147.908886
L377.354069 129.491991
" />
<path d="M368.767115 155.675407 A3.999844 3.999844 0.0 0 0 365.938699 160.574427" />
<path d="M352.489985 183.905070
L350.012186 174.670300
" />
<path d="M379.453933 152.808630 A3.999987 3.999987 0.0 0 0 382.285506 147.908886" />
<path d="M187.716633 112.220549
L173.194986 108.330365
" />
<path d="M173.194986 108.330365
L172.127252 106.481000
" />
<path d="M172.127252 106.481000
L155.175256 101.938728
" />
<path d="M130.918235 93.865455
L154.110115 100.079704
" />
<path d="M129.044375 94.947328
L130.918235 93.865455
" />
<path d="M113.579903 90.803638
L129.044375 94.947328
" />
<path d="M109.856675 92.953243
L113.579903 90.803638
" />
<path d="M92.914336 88.413554
L109.856675 92.953243
" />
<path d="M91.064974 89.481287
L92.914336 88.413554
" />
<path d="M91.064974 89.481287
L76.530207 85.576775
" />
<path d="M76.530212 85.576757 A3.999982 3.999982 0.0 0 0 71.628104 88.404365" />
<path d="M71.628104 88.404365
L61.381469 126.696715
" />
<path d="M56.482493 129.525145
L45.794053 126.664404
" />
<path d="M56.482492 129.525147 A4.000035 4.000035 0.0 0 0 61.381469 126.696715" />
<path d="M45.794053 126.664403 A3.999969 3.999969 0.0 0 0 40.891948 129.491994" />
<path d="M40.891948 129.491994
L35.960509 147.908883
" />
<path d="M35.960495 147.908879 A4.000083 4.000083 0.0 0 0 38.792064 152.808703" />
<path d="M49.478891 155.675444
L38.792064 152.808703
" />
<path d="M52.307251 160.574409 A3.999958 3.999958 0.0 0 0 49.478891 155.675444" />
<path d="M51.920739 162.017015 A4.000129 4.000129 0.0 0 0 54.752330 166.916841" />
<path d="M363.493683 166.916842
L352.840611 169.771324
" />
<path d="M352.840601 169.771286 A4.000016 4.000016 0.0 0 0 350.012186 174.670300" />
</g> 
</svg>
