%TF.GenerationSoftware,KiCad,Pcbnew,8.0.2*%
%TF.CreationDate,2024-05-15T22:22:56+01:00*%
%TF.ProjectId,Phoenixia,50686f65-6e69-4786-9961-2e6b69636164,1*%
%TF.SameCoordinates,Original*%
%TF.FileFunction,Soldermask,Top*%
%TF.FilePolarity,Negative*%
%FSLAX46Y46*%
G04 Gerber Fmt 4.6, Leading zero omitted, Abs format (unit mm)*
G04 Created by KiCad (PCBNEW 8.0.2) date 2024-05-15 22:22:56*
%MOMM*%
%LPD*%
G01*
G04 APERTURE LIST*
%ADD10C,4.400000*%
%ADD11C,1.700000*%
%ADD12C,1.750000*%
%ADD13C,4.000000*%
%ADD14C,2.250000*%
%ADD15C,2.000000*%
%ADD16O,2.250000X2.250000*%
%ADD17R,0.850000X0.850000*%
%ADD18O,0.850000X0.850000*%
%ADD19C,0.650000*%
%ADD20O,0.900000X2.100000*%
G04 APERTURE END LIST*
D10*
%TO.C,H3*%
X127250000Y-126450000D03*
%TD*%
D11*
%TO.C,K49*%
X150360000Y-97840000D03*
D12*
X150780000Y-97840000D03*
D13*
X155860000Y-97840000D03*
D12*
X160940000Y-97840000D03*
D11*
X161360000Y-97840000D03*
D14*
X158400000Y-92760000D03*
D15*
X160860000Y-94040000D03*
D16*
X152050000Y-95300000D03*
D15*
X155860000Y-91940000D03*
%TD*%
D11*
%TO.C,K58*%
X321810000Y-97840000D03*
D12*
X322230000Y-97840000D03*
D13*
X327310000Y-97840000D03*
D12*
X332390000Y-97840000D03*
D11*
X332810000Y-97840000D03*
D14*
X329850000Y-92760000D03*
D15*
X332310000Y-94040000D03*
D16*
X323500000Y-95300000D03*
D15*
X327310000Y-91940000D03*
%TD*%
D11*
%TO.C,K22*%
X245610000Y-59740000D03*
D12*
X246030000Y-59740000D03*
D13*
X251110000Y-59740000D03*
D12*
X256190000Y-59740000D03*
D11*
X256610000Y-59740000D03*
D14*
X253650000Y-54660000D03*
D15*
X256110000Y-55940000D03*
D16*
X247300000Y-57200000D03*
D15*
X251110000Y-53840000D03*
%TD*%
D10*
%TO.C,H3*%
X451100000Y-31150000D03*
%TD*%
D11*
%TO.C,K26*%
X321810000Y-59740000D03*
D12*
X322230000Y-59740000D03*
D13*
X327310000Y-59740000D03*
D12*
X332390000Y-59740000D03*
D11*
X332810000Y-59740000D03*
D14*
X329850000Y-54660000D03*
D15*
X332310000Y-55940000D03*
D16*
X323500000Y-57200000D03*
D15*
X327310000Y-53840000D03*
%TD*%
D10*
%TO.C,H3*%
X451150000Y-107400000D03*
%TD*%
D11*
%TO.C,K74*%
X321810000Y-116890000D03*
D12*
X322230000Y-116890000D03*
D13*
X327310000Y-116890000D03*
D12*
X332390000Y-116890000D03*
D11*
X332810000Y-116890000D03*
D14*
X329850000Y-111810000D03*
D15*
X332310000Y-113090000D03*
D16*
X323500000Y-114350000D03*
D15*
X327310000Y-110990000D03*
%TD*%
D11*
%TO.C,K33*%
X150360000Y-78790000D03*
D12*
X150780000Y-78790000D03*
D13*
X155860000Y-78790000D03*
D12*
X160940000Y-78790000D03*
D11*
X161360000Y-78790000D03*
D14*
X158400000Y-73710000D03*
D15*
X160860000Y-74990000D03*
D16*
X152050000Y-76250000D03*
D15*
X155860000Y-72890000D03*
%TD*%
D11*
%TO.C,K16*%
X131310000Y-59740000D03*
D12*
X131730000Y-59740000D03*
D13*
X136810000Y-59740000D03*
D12*
X141890000Y-59740000D03*
D11*
X142310000Y-59740000D03*
D14*
X139350000Y-54660000D03*
D15*
X141810000Y-55940000D03*
D16*
X133000000Y-57200000D03*
D15*
X136810000Y-53840000D03*
%TD*%
D10*
%TO.C,H3*%
X127300000Y-31200000D03*
%TD*%
D11*
%TO.C,K34*%
X169410000Y-78790000D03*
D12*
X169830000Y-78790000D03*
D13*
X174910000Y-78790000D03*
D12*
X179990000Y-78790000D03*
D11*
X180410000Y-78790000D03*
D14*
X177450000Y-73710000D03*
D15*
X179910000Y-74990000D03*
D16*
X171100000Y-76250000D03*
D15*
X174910000Y-72890000D03*
%TD*%
D11*
%TO.C,K14*%
X417060000Y-40690000D03*
D12*
X417480000Y-40690000D03*
D13*
X422560000Y-40690000D03*
D12*
X427640000Y-40690000D03*
D11*
X428060000Y-40690000D03*
D14*
X425100000Y-35610000D03*
D15*
X427560000Y-36890000D03*
D16*
X418750000Y-38150000D03*
D15*
X422560000Y-34790000D03*
%TD*%
D11*
%TO.C,K0*%
X131310000Y-40690000D03*
D12*
X131730000Y-40690000D03*
D13*
X136810000Y-40690000D03*
D12*
X141890000Y-40690000D03*
D11*
X142310000Y-40690000D03*
D14*
X139350000Y-35610000D03*
D15*
X141810000Y-36890000D03*
D16*
X133000000Y-38150000D03*
D15*
X136810000Y-34790000D03*
%TD*%
D11*
%TO.C,K11*%
X340860000Y-40690000D03*
D12*
X341280000Y-40690000D03*
D13*
X346360000Y-40690000D03*
D12*
X351440000Y-40690000D03*
D11*
X351860000Y-40690000D03*
D14*
X348900000Y-35610000D03*
D15*
X351360000Y-36890000D03*
D16*
X342550000Y-38150000D03*
D15*
X346360000Y-34790000D03*
%TD*%
D11*
%TO.C,K30*%
X417060000Y-59740000D03*
D12*
X417480000Y-59740000D03*
D13*
X422560000Y-59740000D03*
D12*
X427640000Y-59740000D03*
D11*
X428060000Y-59740000D03*
D14*
X425100000Y-54660000D03*
D15*
X427560000Y-55940000D03*
D16*
X418750000Y-57200000D03*
D15*
X422560000Y-53840000D03*
%TD*%
D11*
%TO.C,K13*%
X398010000Y-40690000D03*
D12*
X398430000Y-40690000D03*
D13*
X403510000Y-40690000D03*
D12*
X408590000Y-40690000D03*
D11*
X409010000Y-40690000D03*
D14*
X406050000Y-35610000D03*
D15*
X408510000Y-36890000D03*
D16*
X399700000Y-38150000D03*
D15*
X403510000Y-34790000D03*
%TD*%
D11*
%TO.C,K46*%
X417060000Y-78790000D03*
D12*
X417480000Y-78790000D03*
D13*
X422560000Y-78790000D03*
D12*
X427640000Y-78790000D03*
D11*
X428060000Y-78790000D03*
D14*
X425100000Y-73710000D03*
D15*
X427560000Y-74990000D03*
D16*
X418750000Y-76250000D03*
D15*
X422560000Y-72890000D03*
%TD*%
D11*
%TO.C,K66*%
X169385000Y-116900000D03*
D12*
X169805000Y-116900000D03*
D13*
X174885000Y-116900000D03*
D12*
X179965000Y-116900000D03*
D11*
X180385000Y-116900000D03*
D14*
X177425000Y-111820000D03*
D15*
X179885000Y-113100000D03*
D16*
X171075000Y-114360000D03*
D15*
X174885000Y-111000000D03*
%TD*%
D11*
%TO.C,K36*%
X207510000Y-78790000D03*
D12*
X207930000Y-78790000D03*
D13*
X213010000Y-78790000D03*
D12*
X218090000Y-78790000D03*
D11*
X218510000Y-78790000D03*
D14*
X215550000Y-73710000D03*
D15*
X218010000Y-74990000D03*
D16*
X209200000Y-76250000D03*
D15*
X213010000Y-72890000D03*
%TD*%
D11*
%TO.C,K6*%
X245610000Y-40690000D03*
D12*
X246030000Y-40690000D03*
D13*
X251110000Y-40690000D03*
D12*
X256190000Y-40690000D03*
D11*
X256610000Y-40690000D03*
D14*
X253650000Y-35610000D03*
D15*
X256110000Y-36890000D03*
D16*
X247300000Y-38150000D03*
D15*
X251110000Y-34790000D03*
%TD*%
D11*
%TO.C,K10*%
X321810000Y-40690000D03*
D12*
X322230000Y-40690000D03*
D13*
X327310000Y-40690000D03*
D12*
X332390000Y-40690000D03*
D11*
X332810000Y-40690000D03*
D14*
X329850000Y-35610000D03*
D15*
X332310000Y-36890000D03*
D16*
X323500000Y-38150000D03*
D15*
X327310000Y-34790000D03*
%TD*%
D11*
%TO.C,K27*%
X340860000Y-59740000D03*
D12*
X341280000Y-59740000D03*
D13*
X346360000Y-59740000D03*
D12*
X351440000Y-59740000D03*
D11*
X351860000Y-59740000D03*
D14*
X348900000Y-54660000D03*
D15*
X351360000Y-55940000D03*
D16*
X342550000Y-57200000D03*
D15*
X346360000Y-53840000D03*
%TD*%
D11*
%TO.C,K52*%
X207510000Y-97840000D03*
D12*
X207930000Y-97840000D03*
D13*
X213010000Y-97840000D03*
D12*
X218090000Y-97840000D03*
D11*
X218510000Y-97840000D03*
D14*
X215550000Y-92760000D03*
D15*
X218010000Y-94040000D03*
D16*
X209200000Y-95300000D03*
D15*
X213010000Y-91940000D03*
%TD*%
D11*
%TO.C,K29*%
X398010000Y-59740000D03*
D12*
X398430000Y-59740000D03*
D13*
X403510000Y-59740000D03*
D12*
X408590000Y-59740000D03*
D11*
X409010000Y-59740000D03*
D14*
X406050000Y-54660000D03*
D15*
X408510000Y-55940000D03*
D16*
X399700000Y-57200000D03*
D15*
X403510000Y-53840000D03*
%TD*%
D11*
%TO.C,K72*%
X283685000Y-116900000D03*
D12*
X284105000Y-116900000D03*
D13*
X289185000Y-116900000D03*
D12*
X294265000Y-116900000D03*
D11*
X294685000Y-116900000D03*
D14*
X291725000Y-111820000D03*
D15*
X294185000Y-113100000D03*
D16*
X285375000Y-114360000D03*
D15*
X289185000Y-111000000D03*
%TD*%
D11*
%TO.C,K44*%
X378960000Y-78790000D03*
D12*
X379380000Y-78790000D03*
D13*
X384460000Y-78790000D03*
D12*
X389540000Y-78790000D03*
D11*
X389960000Y-78790000D03*
D14*
X387000000Y-73710000D03*
D15*
X389460000Y-74990000D03*
D16*
X380650000Y-76250000D03*
D15*
X384460000Y-72890000D03*
%TD*%
D10*
%TO.C,H3*%
X279675000Y-31175000D03*
%TD*%
D11*
%TO.C,K37*%
X226560000Y-78790000D03*
D12*
X226980000Y-78790000D03*
D13*
X232060000Y-78790000D03*
D12*
X237140000Y-78790000D03*
D11*
X237560000Y-78790000D03*
D14*
X234600000Y-73710000D03*
D15*
X237060000Y-74990000D03*
D16*
X228250000Y-76250000D03*
D15*
X232060000Y-72890000D03*
%TD*%
D11*
%TO.C,K23*%
X264660000Y-59740000D03*
D12*
X265080000Y-59740000D03*
D13*
X270160000Y-59740000D03*
D12*
X275240000Y-59740000D03*
D11*
X275660000Y-59740000D03*
D14*
X272700000Y-54660000D03*
D15*
X275160000Y-55940000D03*
D16*
X266350000Y-57200000D03*
D15*
X270160000Y-53840000D03*
%TD*%
D11*
%TO.C,K55*%
X264660000Y-97840000D03*
D12*
X265080000Y-97840000D03*
D13*
X270160000Y-97840000D03*
D12*
X275240000Y-97840000D03*
D11*
X275660000Y-97840000D03*
D14*
X272700000Y-92760000D03*
D15*
X275160000Y-94040000D03*
D16*
X266350000Y-95300000D03*
D15*
X270160000Y-91940000D03*
%TD*%
D11*
%TO.C,K38*%
X245610000Y-78790000D03*
D12*
X246030000Y-78790000D03*
D13*
X251110000Y-78790000D03*
D12*
X256190000Y-78790000D03*
D11*
X256610000Y-78790000D03*
D14*
X253650000Y-73710000D03*
D15*
X256110000Y-74990000D03*
D16*
X247300000Y-76250000D03*
D15*
X251110000Y-72890000D03*
%TD*%
D11*
%TO.C,K20*%
X207510000Y-59740000D03*
D12*
X207930000Y-59740000D03*
D13*
X213010000Y-59740000D03*
D12*
X218090000Y-59740000D03*
D11*
X218510000Y-59740000D03*
D14*
X215550000Y-54660000D03*
D15*
X218010000Y-55940000D03*
D16*
X209200000Y-57200000D03*
D15*
X213010000Y-53840000D03*
%TD*%
D11*
%TO.C,K21*%
X226560000Y-59740000D03*
D12*
X226980000Y-59740000D03*
D13*
X232060000Y-59740000D03*
D12*
X237140000Y-59740000D03*
D11*
X237560000Y-59740000D03*
D14*
X234600000Y-54660000D03*
D15*
X237060000Y-55940000D03*
D16*
X228250000Y-57200000D03*
D15*
X232060000Y-53840000D03*
%TD*%
D17*
%TO.C,REF\u002A\u002A*%
X363375000Y-76700000D03*
D18*
X364375000Y-76700000D03*
X365375000Y-76700000D03*
X366375000Y-76700000D03*
X367375000Y-76700000D03*
%TD*%
D11*
%TO.C,K56*%
X283710000Y-97840000D03*
D12*
X284130000Y-97840000D03*
D13*
X289210000Y-97840000D03*
D12*
X294290000Y-97840000D03*
D11*
X294710000Y-97840000D03*
D14*
X291750000Y-92760000D03*
D15*
X294210000Y-94040000D03*
D16*
X285400000Y-95300000D03*
D15*
X289210000Y-91940000D03*
%TD*%
D11*
%TO.C,K73*%
X302735000Y-116900000D03*
D12*
X303155000Y-116900000D03*
D13*
X308235000Y-116900000D03*
D12*
X313315000Y-116900000D03*
D11*
X313735000Y-116900000D03*
D14*
X310775000Y-111820000D03*
D15*
X313235000Y-113100000D03*
D16*
X304425000Y-114360000D03*
D15*
X308235000Y-111000000D03*
%TD*%
D11*
%TO.C,K28*%
X378960000Y-59740000D03*
D12*
X379380000Y-59740000D03*
D13*
X384460000Y-59740000D03*
D12*
X389540000Y-59740000D03*
D11*
X389960000Y-59740000D03*
D14*
X387000000Y-54660000D03*
D15*
X389460000Y-55940000D03*
D16*
X380650000Y-57200000D03*
D15*
X384460000Y-53840000D03*
%TD*%
D11*
%TO.C,K69*%
X226535000Y-116900000D03*
D12*
X226955000Y-116900000D03*
D13*
X232035000Y-116900000D03*
D12*
X237115000Y-116900000D03*
D11*
X237535000Y-116900000D03*
D14*
X234575000Y-111820000D03*
D15*
X237035000Y-113100000D03*
D16*
X228225000Y-114360000D03*
D15*
X232035000Y-111000000D03*
%TD*%
D11*
%TO.C,K62*%
X417060000Y-97840000D03*
D12*
X417480000Y-97840000D03*
D13*
X422560000Y-97840000D03*
D12*
X427640000Y-97840000D03*
D11*
X428060000Y-97840000D03*
D14*
X425100000Y-92760000D03*
D15*
X427560000Y-94040000D03*
D16*
X418750000Y-95300000D03*
D15*
X422560000Y-91940000D03*
%TD*%
D11*
%TO.C,K54*%
X245610000Y-97840000D03*
D12*
X246030000Y-97840000D03*
D13*
X251110000Y-97840000D03*
D12*
X256190000Y-97840000D03*
D11*
X256610000Y-97840000D03*
D14*
X253650000Y-92760000D03*
D15*
X256110000Y-94040000D03*
D16*
X247300000Y-95300000D03*
D15*
X251110000Y-91940000D03*
%TD*%
D11*
%TO.C,K68*%
X207485000Y-116900000D03*
D12*
X207905000Y-116900000D03*
D13*
X212985000Y-116900000D03*
D12*
X218065000Y-116900000D03*
D11*
X218485000Y-116900000D03*
D14*
X215525000Y-111820000D03*
D15*
X217985000Y-113100000D03*
D16*
X209175000Y-114360000D03*
D15*
X212985000Y-111000000D03*
%TD*%
D11*
%TO.C,K24*%
X283710000Y-59740000D03*
D12*
X284130000Y-59740000D03*
D13*
X289210000Y-59740000D03*
D12*
X294290000Y-59740000D03*
D11*
X294710000Y-59740000D03*
D14*
X291750000Y-54660000D03*
D15*
X294210000Y-55940000D03*
D16*
X285400000Y-57200000D03*
D15*
X289210000Y-53840000D03*
%TD*%
D11*
%TO.C,K18*%
X169410000Y-59740000D03*
D12*
X169830000Y-59740000D03*
D13*
X174910000Y-59740000D03*
D12*
X179990000Y-59740000D03*
D11*
X180410000Y-59740000D03*
D14*
X177450000Y-54660000D03*
D15*
X179910000Y-55940000D03*
D16*
X171100000Y-57200000D03*
D15*
X174910000Y-53840000D03*
%TD*%
D11*
%TO.C,K4*%
X207510000Y-40690000D03*
D12*
X207930000Y-40690000D03*
D13*
X213010000Y-40690000D03*
D12*
X218090000Y-40690000D03*
D11*
X218510000Y-40690000D03*
D14*
X215550000Y-35610000D03*
D15*
X218010000Y-36890000D03*
D16*
X209200000Y-38150000D03*
D15*
X213010000Y-34790000D03*
%TD*%
D11*
%TO.C,K64*%
X131285000Y-116900000D03*
D12*
X131705000Y-116900000D03*
D13*
X136785000Y-116900000D03*
D12*
X141865000Y-116900000D03*
D11*
X142285000Y-116900000D03*
D14*
X139325000Y-111820000D03*
D15*
X141785000Y-113100000D03*
D16*
X132975000Y-114360000D03*
D15*
X136785000Y-111000000D03*
%TD*%
D11*
%TO.C,K12*%
X378960000Y-40690000D03*
D12*
X379380000Y-40690000D03*
D13*
X384460000Y-40690000D03*
D12*
X389540000Y-40690000D03*
D11*
X389960000Y-40690000D03*
D14*
X387000000Y-35610000D03*
D15*
X389460000Y-36890000D03*
D16*
X380650000Y-38150000D03*
D15*
X384460000Y-34790000D03*
%TD*%
D11*
%TO.C,K59*%
X340860000Y-97840000D03*
D12*
X341280000Y-97840000D03*
D13*
X346360000Y-97840000D03*
D12*
X351440000Y-97840000D03*
D11*
X351860000Y-97840000D03*
D14*
X348900000Y-92760000D03*
D15*
X351360000Y-94040000D03*
D16*
X342550000Y-95300000D03*
D15*
X346360000Y-91940000D03*
%TD*%
D11*
%TO.C,K42*%
X321810000Y-78790000D03*
D12*
X322230000Y-78790000D03*
D13*
X327310000Y-78790000D03*
D12*
X332390000Y-78790000D03*
D11*
X332810000Y-78790000D03*
D14*
X329850000Y-73710000D03*
D15*
X332310000Y-74990000D03*
D16*
X323500000Y-76250000D03*
D15*
X327310000Y-72890000D03*
%TD*%
D11*
%TO.C,K51*%
X188460000Y-97840000D03*
D12*
X188880000Y-97840000D03*
D13*
X193960000Y-97840000D03*
D12*
X199040000Y-97840000D03*
D11*
X199460000Y-97840000D03*
D14*
X196500000Y-92760000D03*
D15*
X198960000Y-94040000D03*
D16*
X190150000Y-95300000D03*
D15*
X193960000Y-91940000D03*
%TD*%
D11*
%TO.C,K2*%
X169410000Y-40690000D03*
D12*
X169830000Y-40690000D03*
D13*
X174910000Y-40690000D03*
D12*
X179990000Y-40690000D03*
D11*
X180410000Y-40690000D03*
D14*
X177450000Y-35610000D03*
D15*
X179910000Y-36890000D03*
D16*
X171100000Y-38150000D03*
D15*
X174910000Y-34790000D03*
%TD*%
D11*
%TO.C,K43*%
X340860000Y-78790000D03*
D12*
X341280000Y-78790000D03*
D13*
X346360000Y-78790000D03*
D12*
X351440000Y-78790000D03*
D11*
X351860000Y-78790000D03*
D14*
X348900000Y-73710000D03*
D15*
X351360000Y-74990000D03*
D16*
X342550000Y-76250000D03*
D15*
X346360000Y-72890000D03*
%TD*%
D11*
%TO.C,K67*%
X188435000Y-116900000D03*
D12*
X188855000Y-116900000D03*
D13*
X193935000Y-116900000D03*
D12*
X199015000Y-116900000D03*
D11*
X199435000Y-116900000D03*
D14*
X196475000Y-111820000D03*
D15*
X198935000Y-113100000D03*
D16*
X190125000Y-114360000D03*
D15*
X193935000Y-111000000D03*
%TD*%
D11*
%TO.C,K7*%
X264660000Y-40690000D03*
D12*
X265080000Y-40690000D03*
D13*
X270160000Y-40690000D03*
D12*
X275240000Y-40690000D03*
D11*
X275660000Y-40690000D03*
D14*
X272700000Y-35610000D03*
D15*
X275160000Y-36890000D03*
D16*
X266350000Y-38150000D03*
D15*
X270160000Y-34790000D03*
%TD*%
D11*
%TO.C,K75*%
X340860000Y-116890000D03*
D12*
X341280000Y-116890000D03*
D13*
X346360000Y-116890000D03*
D12*
X351440000Y-116890000D03*
D11*
X351860000Y-116890000D03*
D14*
X348900000Y-111810000D03*
D15*
X351360000Y-113090000D03*
D16*
X342550000Y-114350000D03*
D15*
X346360000Y-110990000D03*
%TD*%
D11*
%TO.C,K76*%
X370906350Y-88300000D03*
D12*
X370486350Y-88300000D03*
D13*
X365406350Y-88300000D03*
D12*
X360326350Y-88300000D03*
D11*
X359906350Y-88300000D03*
D14*
X362866350Y-93380000D03*
D15*
X360406350Y-92100000D03*
D16*
X369216350Y-90840000D03*
D15*
X365406350Y-94200000D03*
%TD*%
D11*
%TO.C,K19*%
X188460000Y-59740000D03*
D12*
X188880000Y-59740000D03*
D13*
X193960000Y-59740000D03*
D12*
X199040000Y-59740000D03*
D11*
X199460000Y-59740000D03*
D14*
X196500000Y-54660000D03*
D15*
X198960000Y-55940000D03*
D16*
X190150000Y-57200000D03*
D15*
X193960000Y-53840000D03*
%TD*%
D11*
%TO.C,K61*%
X398010000Y-97840000D03*
D12*
X398430000Y-97840000D03*
D13*
X403510000Y-97840000D03*
D12*
X408590000Y-97840000D03*
D11*
X409010000Y-97840000D03*
D14*
X406050000Y-92760000D03*
D15*
X408510000Y-94040000D03*
D16*
X399700000Y-95300000D03*
D15*
X403510000Y-91940000D03*
%TD*%
D11*
%TO.C,K31*%
X436110000Y-59740000D03*
D12*
X436530000Y-59740000D03*
D13*
X441610000Y-59740000D03*
D12*
X446690000Y-59740000D03*
D11*
X447110000Y-59740000D03*
D14*
X444150000Y-54660000D03*
D15*
X446610000Y-55940000D03*
D16*
X437800000Y-57200000D03*
D15*
X441610000Y-53840000D03*
%TD*%
D11*
%TO.C,K9*%
X302760000Y-40690000D03*
D12*
X303180000Y-40690000D03*
D13*
X308260000Y-40690000D03*
D12*
X313340000Y-40690000D03*
D11*
X313760000Y-40690000D03*
D14*
X310800000Y-35610000D03*
D15*
X313260000Y-36890000D03*
D16*
X304450000Y-38150000D03*
D15*
X308260000Y-34790000D03*
%TD*%
D11*
%TO.C,K65*%
X150335000Y-116900000D03*
D12*
X150755000Y-116900000D03*
D13*
X155835000Y-116900000D03*
D12*
X160915000Y-116900000D03*
D11*
X161335000Y-116900000D03*
D14*
X158375000Y-111820000D03*
D15*
X160835000Y-113100000D03*
D16*
X152025000Y-114360000D03*
D15*
X155835000Y-111000000D03*
%TD*%
D11*
%TO.C,K41*%
X302760000Y-78790000D03*
D12*
X303180000Y-78790000D03*
D13*
X308260000Y-78790000D03*
D12*
X313340000Y-78790000D03*
D11*
X313760000Y-78790000D03*
D14*
X310800000Y-73710000D03*
D15*
X313260000Y-74990000D03*
D16*
X304450000Y-76250000D03*
D15*
X308260000Y-72890000D03*
%TD*%
D11*
%TO.C,K35*%
X188460000Y-78790000D03*
D12*
X188880000Y-78790000D03*
D13*
X193960000Y-78790000D03*
D12*
X199040000Y-78790000D03*
D11*
X199460000Y-78790000D03*
D14*
X196500000Y-73710000D03*
D15*
X198960000Y-74990000D03*
D16*
X190150000Y-76250000D03*
D15*
X193960000Y-72890000D03*
%TD*%
D11*
%TO.C,K60*%
X378960000Y-97840000D03*
D12*
X379380000Y-97840000D03*
D13*
X384460000Y-97840000D03*
D12*
X389540000Y-97840000D03*
D11*
X389960000Y-97840000D03*
D14*
X387000000Y-92760000D03*
D15*
X389460000Y-94040000D03*
D16*
X380650000Y-95300000D03*
D15*
X384460000Y-91940000D03*
%TD*%
D11*
%TO.C,K45*%
X398010000Y-78790000D03*
D12*
X398430000Y-78790000D03*
D13*
X403510000Y-78790000D03*
D12*
X408590000Y-78790000D03*
D11*
X409010000Y-78790000D03*
D14*
X406050000Y-73710000D03*
D15*
X408510000Y-74990000D03*
D16*
X399700000Y-76250000D03*
D15*
X403510000Y-72890000D03*
%TD*%
D11*
%TO.C,K32*%
X131310000Y-78790000D03*
D12*
X131730000Y-78790000D03*
D13*
X136810000Y-78790000D03*
D12*
X141890000Y-78790000D03*
D11*
X142310000Y-78790000D03*
D14*
X139350000Y-73710000D03*
D15*
X141810000Y-74990000D03*
D16*
X133000000Y-76250000D03*
D15*
X136810000Y-72890000D03*
%TD*%
D11*
%TO.C,K48*%
X131310000Y-97840000D03*
D12*
X131730000Y-97840000D03*
D13*
X136810000Y-97840000D03*
D12*
X141890000Y-97840000D03*
D11*
X142310000Y-97840000D03*
D14*
X139350000Y-92760000D03*
D15*
X141810000Y-94040000D03*
D16*
X133000000Y-95300000D03*
D15*
X136810000Y-91940000D03*
%TD*%
D11*
%TO.C,K15*%
X436110000Y-40690000D03*
D12*
X436530000Y-40690000D03*
D13*
X441610000Y-40690000D03*
D12*
X446690000Y-40690000D03*
D11*
X447110000Y-40690000D03*
D14*
X444150000Y-35610000D03*
D15*
X446610000Y-36890000D03*
D16*
X437800000Y-38150000D03*
D15*
X441610000Y-34790000D03*
%TD*%
D11*
%TO.C,K71*%
X264635000Y-116900000D03*
D12*
X265055000Y-116900000D03*
D13*
X270135000Y-116900000D03*
D12*
X275215000Y-116900000D03*
D11*
X275635000Y-116900000D03*
D14*
X272675000Y-111820000D03*
D15*
X275135000Y-113100000D03*
D16*
X266325000Y-114360000D03*
D15*
X270135000Y-111000000D03*
%TD*%
D11*
%TO.C,K50*%
X169410000Y-97840000D03*
D12*
X169830000Y-97840000D03*
D13*
X174910000Y-97840000D03*
D12*
X179990000Y-97840000D03*
D11*
X180410000Y-97840000D03*
D14*
X177450000Y-92760000D03*
D15*
X179910000Y-94040000D03*
D16*
X171100000Y-95300000D03*
D15*
X174910000Y-91940000D03*
%TD*%
D11*
%TO.C,K53*%
X226560000Y-97840000D03*
D12*
X226980000Y-97840000D03*
D13*
X232060000Y-97840000D03*
D12*
X237140000Y-97840000D03*
D11*
X237560000Y-97840000D03*
D14*
X234600000Y-92760000D03*
D15*
X237060000Y-94040000D03*
D16*
X228250000Y-95300000D03*
D15*
X232060000Y-91940000D03*
%TD*%
D11*
%TO.C,K57*%
X302760000Y-97840000D03*
D12*
X303180000Y-97840000D03*
D13*
X308260000Y-97840000D03*
D12*
X313340000Y-97840000D03*
D11*
X313760000Y-97840000D03*
D14*
X310800000Y-92760000D03*
D15*
X313260000Y-94040000D03*
D16*
X304450000Y-95300000D03*
D15*
X308260000Y-91940000D03*
%TD*%
D11*
%TO.C,K39*%
X264660000Y-78790000D03*
D12*
X265080000Y-78790000D03*
D13*
X270160000Y-78790000D03*
D12*
X275240000Y-78790000D03*
D11*
X275660000Y-78790000D03*
D14*
X272700000Y-73710000D03*
D15*
X275160000Y-74990000D03*
D16*
X266350000Y-76250000D03*
D15*
X270160000Y-72890000D03*
%TD*%
D11*
%TO.C,K25*%
X302760000Y-59740000D03*
D12*
X303180000Y-59740000D03*
D13*
X308260000Y-59740000D03*
D12*
X313340000Y-59740000D03*
D11*
X313760000Y-59740000D03*
D14*
X310800000Y-54660000D03*
D15*
X313260000Y-55940000D03*
D16*
X304450000Y-57200000D03*
D15*
X308260000Y-53840000D03*
%TD*%
D11*
%TO.C,K17*%
X150360000Y-59740000D03*
D12*
X150780000Y-59740000D03*
D13*
X155860000Y-59740000D03*
D12*
X160940000Y-59740000D03*
D11*
X161360000Y-59740000D03*
D14*
X158400000Y-54660000D03*
D15*
X160860000Y-55940000D03*
D16*
X152050000Y-57200000D03*
D15*
X155860000Y-53840000D03*
%TD*%
D11*
%TO.C,K5*%
X226560000Y-40690000D03*
D12*
X226980000Y-40690000D03*
D13*
X232060000Y-40690000D03*
D12*
X237140000Y-40690000D03*
D11*
X237560000Y-40690000D03*
D14*
X234600000Y-35610000D03*
D15*
X237060000Y-36890000D03*
D16*
X228250000Y-38150000D03*
D15*
X232060000Y-34790000D03*
%TD*%
D11*
%TO.C,K1*%
X150360000Y-40690000D03*
D12*
X150780000Y-40690000D03*
D13*
X155860000Y-40690000D03*
D12*
X160940000Y-40690000D03*
D11*
X161360000Y-40690000D03*
D14*
X158400000Y-35610000D03*
D15*
X160860000Y-36890000D03*
D16*
X152050000Y-38150000D03*
D15*
X155860000Y-34790000D03*
%TD*%
D11*
%TO.C,K63*%
X436093650Y-97812700D03*
D12*
X436513650Y-97812700D03*
D13*
X441593650Y-97812700D03*
D12*
X446673650Y-97812700D03*
D11*
X447093650Y-97812700D03*
D14*
X444133650Y-92732700D03*
D15*
X446593650Y-94012700D03*
D16*
X437783650Y-95272700D03*
D15*
X441593650Y-91912700D03*
%TD*%
D11*
%TO.C,K8*%
X283710000Y-40690000D03*
D12*
X284130000Y-40690000D03*
D13*
X289210000Y-40690000D03*
D12*
X294290000Y-40690000D03*
D11*
X294710000Y-40690000D03*
D14*
X291750000Y-35610000D03*
D15*
X294210000Y-36890000D03*
D16*
X285400000Y-38150000D03*
D15*
X289210000Y-34790000D03*
%TD*%
D11*
%TO.C,K47*%
X436110000Y-78790000D03*
D12*
X436530000Y-78790000D03*
D13*
X441610000Y-78790000D03*
D12*
X446690000Y-78790000D03*
D11*
X447110000Y-78790000D03*
D14*
X444150000Y-73710000D03*
D15*
X446610000Y-74990000D03*
D16*
X437800000Y-76250000D03*
D15*
X441610000Y-72890000D03*
%TD*%
D11*
%TO.C,K40*%
X283710000Y-78790000D03*
D12*
X284130000Y-78790000D03*
D13*
X289210000Y-78790000D03*
D12*
X294290000Y-78790000D03*
D11*
X294710000Y-78790000D03*
D14*
X291750000Y-73710000D03*
D15*
X294210000Y-74990000D03*
D16*
X285400000Y-76250000D03*
D15*
X289210000Y-72890000D03*
%TD*%
D10*
%TO.C,H3*%
X356450000Y-126750000D03*
%TD*%
D11*
%TO.C,K70*%
X245585000Y-116900000D03*
D12*
X246005000Y-116900000D03*
D13*
X251085000Y-116900000D03*
D12*
X256165000Y-116900000D03*
D11*
X256585000Y-116900000D03*
D14*
X253625000Y-111820000D03*
D15*
X256085000Y-113100000D03*
D16*
X247275000Y-114360000D03*
D15*
X251085000Y-111000000D03*
%TD*%
D11*
%TO.C,K3*%
X188460000Y-40690000D03*
D12*
X188880000Y-40690000D03*
D13*
X193960000Y-40690000D03*
D12*
X199040000Y-40690000D03*
D11*
X199460000Y-40690000D03*
D14*
X196500000Y-35610000D03*
D15*
X198960000Y-36890000D03*
D16*
X190150000Y-38150000D03*
D15*
X193960000Y-34790000D03*
%TD*%
D19*
%TO.C,USB1*%
X361675000Y-32750000D03*
X369175000Y-32750000D03*
D20*
X359850000Y-28070000D03*
X359850000Y-32670000D03*
X371000000Y-28070000D03*
X371000000Y-32670000D03*
%TD*%
D17*
%TO.C,J5*%
X360675000Y-69725000D03*
D18*
X360675000Y-68725000D03*
X360675000Y-67725000D03*
%TD*%
M02*
