M48
; DRILL file {KiCad 8.0.2} date 2024-05-15T22:22:56+0100
; FORMAT={-:-/ absolute / inch / decimal}
; #@! TF.CreationDate,2024-05-15T22:22:56+01:00
; #@! TF.GenerationSoftware,Kicad,Pcbnew,8.0.2
; #@! TF.FileFunction,Plated,1,2,PTH
FMAT,2
INCH
; #@! TA.AperFunction,Plated,PTH,ViaDrill
T1C0.0079
; #@! TA.AperFunction,Plated,PTH,ViaDrill
T2C0.0118
; #@! TA.AperFunction,Plated,PTH,ComponentDrill
T3C0.0138
; #@! TA.AperFunction,Plated,PTH,ViaDrill
T4C0.0157
; #@! TA.AperFunction,Plated,PTH,ComponentDrill
T5C0.0197
; #@! TA.AperFunction,Plated,PTH,ComponentDrill
T6C0.0472
; #@! TA.AperFunction,Plated,PTH,ComponentDrill
T7C0.0579
; #@! TA.AperFunction,Plated,PTH,ComponentDrill
T8C0.0866
%
G90
G05
T1
X5.7677Y-2.2402
X6.5098Y-2.2382
X7.2618Y-2.2441
X8.0118Y-2.2677
X8.7598Y-2.2579
X9.5138Y-2.2638
X10.2618Y-2.2677
X11.0118Y-2.25
X11.5Y-2.5295
X11.7579Y-3.1122
X12.5118Y-3.1043
X12.5138Y-2.2539
X13.0561Y-2.5197
X13.2579Y-3.1043
X13.3317Y-2.1171
X14.0827Y-2.4921
X14.0866Y-2.1344
X14.1368Y-2.7047
X14.1437Y-3.2323
X14.1752Y-2.1673
X14.2008Y-2.5522
X14.2156Y-3.0187
X14.2766Y-2.6476
X14.2843Y-2.1248
X14.2884Y-2.4764
X14.313Y-1.7972
X14.3307Y-2.2874
X14.3524Y-2.5689
X14.361Y-2.4602
X14.3693Y-2.1618
X14.4008Y-2.1606
X14.4394Y-2.0614
X14.4406Y-2.589
X14.4734Y-1.9429
X14.5049Y-2.6969
X14.5787Y-2.564
X14.6378Y-2.2505
X14.6791Y-2.4887
X14.7303Y-3.9124
X14.9252Y-2.9055
X15.5157Y-3.0768
X16.2657Y-3.065
X17.0157Y-3.0689
T2
X14.2608Y-1.3778
T3
X14.3356Y-2.3278
X14.3356Y-2.378
X14.3356Y-2.4281
X14.3858Y-2.3278
X14.3858Y-2.378
X14.3858Y-2.4281
X14.436Y-2.3278
X14.436Y-2.378
X14.436Y-2.4281
T4
X13.8268Y-4.2598
X13.8583Y-4.0315
X14.0108Y-2.5315
X14.0463Y-1.7254
X14.0591Y-1.4685
X14.0876Y-3.1457
X14.1841Y-1.6732
X14.248Y-2.2472
X14.2844Y-1.4189
X14.3799Y-1.8898
X14.5059Y-1.5699
X14.5404Y-1.4386
X14.5453Y-1.622
X14.563Y-2.0465
X14.5915Y-1.3657
X14.6077Y-1.7245
X14.6082Y-1.8396
X14.6772Y-2.6535
X14.6772Y-2.7028
X14.6772Y-2.752
X14.6772Y-2.7992
X14.7028Y-1.7249
X14.7618Y-1.6732
X14.8957Y-3.3445
X14.9016Y-2.6024
X14.9016Y-2.6535
X14.9016Y-2.7028
X14.9016Y-2.752
X14.9016Y-2.7992
T5
X14.1998Y-2.6663
X14.1998Y-2.7057
X14.1998Y-2.7451
X14.3061Y-3.0197
X14.3455Y-3.0197
X14.3848Y-3.0197
X14.4242Y-3.0197
X14.4636Y-3.0197
T6
X5.3852Y-4.3701
X5.3862Y-1.3697
X5.3862Y-2.1197
X5.3862Y-2.8697
X5.3862Y-3.6197
X5.5821Y-4.4528
X5.5831Y-1.4524
X5.5831Y-2.2024
X5.5831Y-2.9524
X5.5831Y-3.7024
X6.1352Y-4.3701
X6.1362Y-1.3697
X6.1362Y-2.1197
X6.1362Y-2.8697
X6.1362Y-3.6197
X6.3321Y-4.4528
X6.3331Y-1.4524
X6.3331Y-2.2024
X6.3331Y-2.9524
X6.3331Y-3.7024
X6.8852Y-4.3701
X6.8862Y-1.3697
X6.8862Y-2.1197
X6.8862Y-2.8697
X6.8862Y-3.6197
X7.0821Y-4.4528
X7.0831Y-1.4524
X7.0831Y-2.2024
X7.0831Y-2.9524
X7.0831Y-3.7024
X7.6352Y-4.3701
X7.6362Y-1.3697
X7.6362Y-2.1197
X7.6362Y-2.8697
X7.6362Y-3.6197
X7.8321Y-4.4528
X7.8331Y-1.4524
X7.8331Y-2.2024
X7.8331Y-2.9524
X7.8331Y-3.7024
X8.3852Y-4.3701
X8.3862Y-1.3697
X8.3862Y-2.1197
X8.3862Y-2.8697
X8.3862Y-3.6197
X8.5821Y-4.4528
X8.5831Y-1.4524
X8.5831Y-2.2024
X8.5831Y-2.9524
X8.5831Y-3.7024
X9.1352Y-4.3701
X9.1362Y-1.3697
X9.1362Y-2.1197
X9.1362Y-2.8697
X9.1362Y-3.6197
X9.3321Y-4.4528
X9.3331Y-1.4524
X9.3331Y-2.2024
X9.3331Y-2.9524
X9.3331Y-3.7024
X9.8852Y-4.3701
X9.8862Y-1.3697
X9.8862Y-2.1197
X9.8862Y-2.8697
X9.8862Y-3.6197
X10.0821Y-4.4528
X10.0831Y-1.4524
X10.0831Y-2.2024
X10.0831Y-2.9524
X10.0831Y-3.7024
X10.6352Y-4.3701
X10.6362Y-1.3697
X10.6362Y-2.1197
X10.6362Y-2.8697
X10.6362Y-3.6197
X10.8321Y-4.4528
X10.8331Y-1.4524
X10.8331Y-2.2024
X10.8331Y-2.9524
X10.8331Y-3.7024
X11.3852Y-4.3701
X11.3862Y-1.3697
X11.3862Y-2.1197
X11.3862Y-2.8697
X11.3862Y-3.6197
X11.5821Y-4.4528
X11.5831Y-1.4524
X11.5831Y-2.2024
X11.5831Y-2.9524
X11.5831Y-3.7024
X12.1352Y-4.3701
X12.1362Y-1.3697
X12.1362Y-2.1197
X12.1362Y-2.8697
X12.1362Y-3.6197
X12.3321Y-4.4528
X12.3331Y-1.4524
X12.3331Y-2.2024
X12.3331Y-2.9524
X12.3331Y-3.7024
X12.8862Y-1.3697
X12.8862Y-2.1197
X12.8862Y-2.8697
X12.8862Y-3.6197
X12.8862Y-4.3697
X13.0831Y-1.4524
X13.0831Y-2.2024
X13.0831Y-2.9524
X13.0831Y-3.7024
X13.0831Y-4.4524
X13.6362Y-1.3697
X13.6362Y-2.1197
X13.6362Y-2.8697
X13.6362Y-3.6197
X13.6362Y-4.3697
X13.8331Y-1.4524
X13.8331Y-2.2024
X13.8331Y-2.9524
X13.8331Y-3.7024
X13.8331Y-4.4524
X14.1892Y-3.626
X14.3861Y-3.7087
X15.1362Y-1.3697
X15.1362Y-2.1197
X15.1362Y-2.8697
X15.1362Y-3.6197
X15.3331Y-1.4524
X15.3331Y-2.2024
X15.3331Y-2.9524
X15.3331Y-3.7024
X15.8862Y-1.3697
X15.8862Y-2.1197
X15.8862Y-2.8697
X15.8862Y-3.6197
X16.0831Y-1.4524
X16.0831Y-2.2024
X16.0831Y-2.9524
X16.0831Y-3.7024
X16.6362Y-1.3697
X16.6362Y-2.1197
X16.6362Y-2.8697
X16.6362Y-3.6197
X16.8331Y-1.4524
X16.8331Y-2.2024
X16.8331Y-2.9524
X16.8331Y-3.7024
X17.3856Y-3.6186
X17.3862Y-1.3697
X17.3862Y-2.1197
X17.3862Y-2.8697
X17.5824Y-3.7013
X17.5831Y-1.4524
X17.5831Y-2.2024
X17.5831Y-2.9524
T7
X5.2352Y-4.5024
X5.2362Y-1.502
X5.2362Y-2.252
X5.2362Y-3.002
X5.2362Y-3.752
X5.4852Y-4.4024
X5.4862Y-1.402
X5.4862Y-2.152
X5.4862Y-2.902
X5.4862Y-3.652
X5.9852Y-4.5024
X5.9862Y-1.502
X5.9862Y-2.252
X5.9862Y-3.002
X5.9862Y-3.752
X6.2352Y-4.4024
X6.2362Y-1.402
X6.2362Y-2.152
X6.2362Y-2.902
X6.2362Y-3.652
X6.7352Y-4.5024
X6.7362Y-1.502
X6.7362Y-2.252
X6.7362Y-3.002
X6.7362Y-3.752
X6.9852Y-4.4024
X6.9862Y-1.402
X6.9862Y-2.152
X6.9862Y-2.902
X6.9862Y-3.652
X7.4852Y-4.5024
X7.4862Y-1.502
X7.4862Y-2.252
X7.4862Y-3.002
X7.4862Y-3.752
X7.7352Y-4.4024
X7.7362Y-1.402
X7.7362Y-2.152
X7.7362Y-2.902
X7.7362Y-3.652
X8.2352Y-4.5024
X8.2362Y-1.502
X8.2362Y-2.252
X8.2362Y-3.002
X8.2362Y-3.752
X8.4852Y-4.4024
X8.4862Y-1.402
X8.4862Y-2.152
X8.4862Y-2.902
X8.4862Y-3.652
X8.9852Y-4.5024
X8.9862Y-1.502
X8.9862Y-2.252
X8.9862Y-3.002
X8.9862Y-3.752
X9.2352Y-4.4024
X9.2362Y-1.402
X9.2362Y-2.152
X9.2362Y-2.902
X9.2362Y-3.652
X9.7352Y-4.5024
X9.7362Y-1.502
X9.7362Y-2.252
X9.7362Y-3.002
X9.7362Y-3.752
X9.9852Y-4.4024
X9.9862Y-1.402
X9.9862Y-2.152
X9.9862Y-2.902
X9.9862Y-3.652
X10.4852Y-4.5024
X10.4862Y-1.502
X10.4862Y-2.252
X10.4862Y-3.002
X10.4862Y-3.752
X10.7352Y-4.4024
X10.7362Y-1.402
X10.7362Y-2.152
X10.7362Y-2.902
X10.7362Y-3.652
X11.2352Y-4.5024
X11.2362Y-1.502
X11.2362Y-2.252
X11.2362Y-3.002
X11.2362Y-3.752
X11.4852Y-4.4024
X11.4862Y-1.402
X11.4862Y-2.152
X11.4862Y-2.902
X11.4862Y-3.652
X11.9852Y-4.5024
X11.9862Y-1.502
X11.9862Y-2.252
X11.9862Y-3.002
X11.9862Y-3.752
X12.2352Y-4.4024
X12.2362Y-1.402
X12.2362Y-2.152
X12.2362Y-2.902
X12.2362Y-3.652
X12.7362Y-1.502
X12.7362Y-2.252
X12.7362Y-3.002
X12.7362Y-3.752
X12.7362Y-4.502
X12.9862Y-1.402
X12.9862Y-2.152
X12.9862Y-2.902
X12.9862Y-3.652
X12.9862Y-4.402
X13.4862Y-1.502
X13.4862Y-2.252
X13.4862Y-3.002
X13.4862Y-3.752
X13.4862Y-4.502
X13.7362Y-1.402
X13.7362Y-2.152
X13.7362Y-2.902
X13.7362Y-3.652
X13.7362Y-4.402
X14.2861Y-3.6764
X14.5361Y-3.5764
X14.9862Y-1.502
X14.9862Y-2.252
X14.9862Y-3.002
X14.9862Y-3.752
X15.2362Y-1.402
X15.2362Y-2.152
X15.2362Y-2.902
X15.2362Y-3.652
X15.7362Y-1.502
X15.7362Y-2.252
X15.7362Y-3.002
X15.7362Y-3.752
X15.9862Y-1.402
X15.9862Y-2.152
X15.9862Y-2.902
X15.9862Y-3.652
X16.4862Y-1.502
X16.4862Y-2.252
X16.4862Y-3.002
X16.4862Y-3.752
X16.7362Y-1.402
X16.7362Y-2.152
X16.7362Y-2.902
X16.7362Y-3.652
X17.2356Y-3.7509
X17.2362Y-1.502
X17.2362Y-2.252
X17.2362Y-3.002
X17.4856Y-3.6509
X17.4862Y-1.402
X17.4862Y-2.152
X17.4862Y-2.902
T8
X5.0098Y-4.9783
X5.0118Y-1.2283
X11.0108Y-1.2274
X14.0335Y-4.9902
X17.7598Y-1.2264
X17.7618Y-4.2283
T5
G00X14.1673Y-1.0815
M15
G01X14.1673Y-1.1287
M16
G05
G00X14.1673Y-1.2626
M15
G01X14.1673Y-1.3098
M16
G05
G00X14.6063Y-1.0815
M15
G01X14.6063Y-1.1287
M16
G05
G00X14.6063Y-1.2626
M15
G01X14.6063Y-1.3098
M16
G05
M30
