%TF.GenerationSoftware,KiCad,Pcbnew,8.0.2*%
%TF.CreationDate,2024-05-15T22:22:56+01:00*%
%TF.ProjectId,Phoenixia,50686f65-6e69-4786-9961-2e6b69636164,1*%
%TF.SameCoordinates,Original*%
%TF.FileFunction,Soldermask,Bot*%
%TF.FilePolarity,Negative*%
%FSLAX46Y46*%
G04 Gerber Fmt 4.6, Leading zero omitted, Abs format (unit mm)*
G04 Created by KiCad (PCBNEW 8.0.2) date 2024-05-15 22:22:56*
%MOMM*%
%LPD*%
G01*
G04 APERTURE LIST*
G04 Aperture macros list*
%AMRoundRect*
0 Rectangle with rounded corners*
0 $1 Rounding radius*
0 $2 $3 $4 $5 $6 $7 $8 $9 X,Y pos of 4 corners*
0 Add a 4 corners polygon primitive as box body*
4,1,4,$2,$3,$4,$5,$6,$7,$8,$9,$2,$3,0*
0 Add four circle primitives for the rounded corners*
1,1,$1+$1,$2,$3*
1,1,$1+$1,$4,$5*
1,1,$1+$1,$6,$7*
1,1,$1+$1,$8,$9*
0 Add four rect primitives between the rounded corners*
20,1,$1+$1,$2,$3,$4,$5,0*
20,1,$1+$1,$4,$5,$6,$7,0*
20,1,$1+$1,$6,$7,$8,$9,0*
20,1,$1+$1,$8,$9,$2,$3,0*%
G04 Aperture macros list end*
%ADD10C,4.400000*%
%ADD11C,1.700000*%
%ADD12C,1.750000*%
%ADD13C,4.000000*%
%ADD14C,2.250000*%
%ADD15C,2.000000*%
%ADD16O,2.250000X2.250000*%
%ADD17R,0.850000X0.850000*%
%ADD18O,0.850000X0.850000*%
%ADD19RoundRect,0.250000X0.450000X-0.262500X0.450000X0.262500X-0.450000X0.262500X-0.450000X-0.262500X0*%
%ADD20C,0.650000*%
%ADD21R,0.600000X1.100000*%
%ADD22R,0.300000X1.100000*%
%ADD23O,0.900000X2.100000*%
%ADD24RoundRect,0.250000X0.300000X-0.300000X0.300000X0.300000X-0.300000X0.300000X-0.300000X-0.300000X0*%
%ADD25RoundRect,0.250000X0.262500X0.450000X-0.262500X0.450000X-0.262500X-0.450000X0.262500X-0.450000X0*%
%ADD26RoundRect,0.250000X-0.300000X0.300000X-0.300000X-0.300000X0.300000X-0.300000X0.300000X0.300000X0*%
%ADD27RoundRect,0.140000X0.021213X-0.219203X0.219203X-0.021213X-0.021213X0.219203X-0.219203X0.021213X0*%
%ADD28RoundRect,0.140000X0.170000X-0.140000X0.170000X0.140000X-0.170000X0.140000X-0.170000X-0.140000X0*%
%ADD29RoundRect,0.140000X-0.021213X0.219203X-0.219203X0.021213X0.021213X-0.219203X0.219203X-0.021213X0*%
%ADD30R,1.200000X0.900000*%
%ADD31RoundRect,0.140000X0.140000X0.170000X-0.140000X0.170000X-0.140000X-0.170000X0.140000X-0.170000X0*%
%ADD32R,1.400000X1.200000*%
%ADD33RoundRect,0.140000X-0.140000X-0.170000X0.140000X-0.170000X0.140000X0.170000X-0.140000X0.170000X0*%
%ADD34RoundRect,0.135000X0.135000X0.185000X-0.135000X0.185000X-0.135000X-0.185000X0.135000X-0.185000X0*%
%ADD35RoundRect,0.135000X-0.185000X0.135000X-0.185000X-0.135000X0.185000X-0.135000X0.185000X0.135000X0*%
%ADD36RoundRect,0.087500X0.175000X0.087500X-0.175000X0.087500X-0.175000X-0.087500X0.175000X-0.087500X0*%
%ADD37R,1.400000X1.600000*%
%ADD38RoundRect,0.135000X-0.135000X-0.185000X0.135000X-0.185000X0.135000X0.185000X-0.135000X0.185000X0*%
%ADD39RoundRect,0.147500X0.172500X-0.147500X0.172500X0.147500X-0.172500X0.147500X-0.172500X-0.147500X0*%
%ADD40RoundRect,0.150000X-0.512500X-0.150000X0.512500X-0.150000X0.512500X0.150000X-0.512500X0.150000X0*%
%ADD41RoundRect,0.135000X-0.226274X-0.035355X-0.035355X-0.226274X0.226274X0.035355X0.035355X0.226274X0*%
%ADD42RoundRect,0.200000X0.800000X-0.200000X0.800000X0.200000X-0.800000X0.200000X-0.800000X-0.200000X0*%
%ADD43RoundRect,0.050000X0.387500X0.050000X-0.387500X0.050000X-0.387500X-0.050000X0.387500X-0.050000X0*%
%ADD44RoundRect,0.050000X0.050000X0.387500X-0.050000X0.387500X-0.050000X-0.387500X0.050000X-0.387500X0*%
%ADD45RoundRect,0.144000X1.456000X1.456000X-1.456000X1.456000X-1.456000X-1.456000X1.456000X-1.456000X0*%
%ADD46RoundRect,0.243750X-0.243750X-0.456250X0.243750X-0.456250X0.243750X0.456250X-0.243750X0.456250X0*%
%ADD47RoundRect,0.250000X0.250000X0.475000X-0.250000X0.475000X-0.250000X-0.475000X0.250000X-0.475000X0*%
%ADD48RoundRect,0.140000X-0.219203X-0.021213X-0.021213X-0.219203X0.219203X0.021213X0.021213X0.219203X0*%
%ADD49RoundRect,0.200000X-0.800000X0.200000X-0.800000X-0.200000X0.800000X-0.200000X0.800000X0.200000X0*%
G04 APERTURE END LIST*
D10*
%TO.C,H3*%
X127250000Y-126450000D03*
%TD*%
D11*
%TO.C,K49*%
X150360000Y-97840000D03*
D12*
X150780000Y-97840000D03*
D13*
X155860000Y-97840000D03*
D12*
X160940000Y-97840000D03*
D11*
X161360000Y-97840000D03*
D14*
X158400000Y-92760000D03*
D15*
X160860000Y-94040000D03*
D16*
X152050000Y-95300000D03*
D15*
X155860000Y-91940000D03*
%TD*%
D11*
%TO.C,K58*%
X321810000Y-97840000D03*
D12*
X322230000Y-97840000D03*
D13*
X327310000Y-97840000D03*
D12*
X332390000Y-97840000D03*
D11*
X332810000Y-97840000D03*
D14*
X329850000Y-92760000D03*
D15*
X332310000Y-94040000D03*
D16*
X323500000Y-95300000D03*
D15*
X327310000Y-91940000D03*
%TD*%
D11*
%TO.C,K22*%
X245610000Y-59740000D03*
D12*
X246030000Y-59740000D03*
D13*
X251110000Y-59740000D03*
D12*
X256190000Y-59740000D03*
D11*
X256610000Y-59740000D03*
D14*
X253650000Y-54660000D03*
D15*
X256110000Y-55940000D03*
D16*
X247300000Y-57200000D03*
D15*
X251110000Y-53840000D03*
%TD*%
D10*
%TO.C,H3*%
X451100000Y-31150000D03*
%TD*%
D11*
%TO.C,K26*%
X321810000Y-59740000D03*
D12*
X322230000Y-59740000D03*
D13*
X327310000Y-59740000D03*
D12*
X332390000Y-59740000D03*
D11*
X332810000Y-59740000D03*
D14*
X329850000Y-54660000D03*
D15*
X332310000Y-55940000D03*
D16*
X323500000Y-57200000D03*
D15*
X327310000Y-53840000D03*
%TD*%
D10*
%TO.C,H3*%
X451150000Y-107400000D03*
%TD*%
D11*
%TO.C,K74*%
X321810000Y-116890000D03*
D12*
X322230000Y-116890000D03*
D13*
X327310000Y-116890000D03*
D12*
X332390000Y-116890000D03*
D11*
X332810000Y-116890000D03*
D14*
X329850000Y-111810000D03*
D15*
X332310000Y-113090000D03*
D16*
X323500000Y-114350000D03*
D15*
X327310000Y-110990000D03*
%TD*%
D11*
%TO.C,K33*%
X150360000Y-78790000D03*
D12*
X150780000Y-78790000D03*
D13*
X155860000Y-78790000D03*
D12*
X160940000Y-78790000D03*
D11*
X161360000Y-78790000D03*
D14*
X158400000Y-73710000D03*
D15*
X160860000Y-74990000D03*
D16*
X152050000Y-76250000D03*
D15*
X155860000Y-72890000D03*
%TD*%
D11*
%TO.C,K16*%
X131310000Y-59740000D03*
D12*
X131730000Y-59740000D03*
D13*
X136810000Y-59740000D03*
D12*
X141890000Y-59740000D03*
D11*
X142310000Y-59740000D03*
D14*
X139350000Y-54660000D03*
D15*
X141810000Y-55940000D03*
D16*
X133000000Y-57200000D03*
D15*
X136810000Y-53840000D03*
%TD*%
D10*
%TO.C,H3*%
X127300000Y-31200000D03*
%TD*%
D11*
%TO.C,K34*%
X169410000Y-78790000D03*
D12*
X169830000Y-78790000D03*
D13*
X174910000Y-78790000D03*
D12*
X179990000Y-78790000D03*
D11*
X180410000Y-78790000D03*
D14*
X177450000Y-73710000D03*
D15*
X179910000Y-74990000D03*
D16*
X171100000Y-76250000D03*
D15*
X174910000Y-72890000D03*
%TD*%
D11*
%TO.C,K14*%
X417060000Y-40690000D03*
D12*
X417480000Y-40690000D03*
D13*
X422560000Y-40690000D03*
D12*
X427640000Y-40690000D03*
D11*
X428060000Y-40690000D03*
D14*
X425100000Y-35610000D03*
D15*
X427560000Y-36890000D03*
D16*
X418750000Y-38150000D03*
D15*
X422560000Y-34790000D03*
%TD*%
D11*
%TO.C,K0*%
X131310000Y-40690000D03*
D12*
X131730000Y-40690000D03*
D13*
X136810000Y-40690000D03*
D12*
X141890000Y-40690000D03*
D11*
X142310000Y-40690000D03*
D14*
X139350000Y-35610000D03*
D15*
X141810000Y-36890000D03*
D16*
X133000000Y-38150000D03*
D15*
X136810000Y-34790000D03*
%TD*%
D11*
%TO.C,K11*%
X340860000Y-40690000D03*
D12*
X341280000Y-40690000D03*
D13*
X346360000Y-40690000D03*
D12*
X351440000Y-40690000D03*
D11*
X351860000Y-40690000D03*
D14*
X348900000Y-35610000D03*
D15*
X351360000Y-36890000D03*
D16*
X342550000Y-38150000D03*
D15*
X346360000Y-34790000D03*
%TD*%
D11*
%TO.C,K30*%
X417060000Y-59740000D03*
D12*
X417480000Y-59740000D03*
D13*
X422560000Y-59740000D03*
D12*
X427640000Y-59740000D03*
D11*
X428060000Y-59740000D03*
D14*
X425100000Y-54660000D03*
D15*
X427560000Y-55940000D03*
D16*
X418750000Y-57200000D03*
D15*
X422560000Y-53840000D03*
%TD*%
D11*
%TO.C,K13*%
X398010000Y-40690000D03*
D12*
X398430000Y-40690000D03*
D13*
X403510000Y-40690000D03*
D12*
X408590000Y-40690000D03*
D11*
X409010000Y-40690000D03*
D14*
X406050000Y-35610000D03*
D15*
X408510000Y-36890000D03*
D16*
X399700000Y-38150000D03*
D15*
X403510000Y-34790000D03*
%TD*%
D11*
%TO.C,K46*%
X417060000Y-78790000D03*
D12*
X417480000Y-78790000D03*
D13*
X422560000Y-78790000D03*
D12*
X427640000Y-78790000D03*
D11*
X428060000Y-78790000D03*
D14*
X425100000Y-73710000D03*
D15*
X427560000Y-74990000D03*
D16*
X418750000Y-76250000D03*
D15*
X422560000Y-72890000D03*
%TD*%
D11*
%TO.C,K66*%
X169385000Y-116900000D03*
D12*
X169805000Y-116900000D03*
D13*
X174885000Y-116900000D03*
D12*
X179965000Y-116900000D03*
D11*
X180385000Y-116900000D03*
D14*
X177425000Y-111820000D03*
D15*
X179885000Y-113100000D03*
D16*
X171075000Y-114360000D03*
D15*
X174885000Y-111000000D03*
%TD*%
D11*
%TO.C,K36*%
X207510000Y-78790000D03*
D12*
X207930000Y-78790000D03*
D13*
X213010000Y-78790000D03*
D12*
X218090000Y-78790000D03*
D11*
X218510000Y-78790000D03*
D14*
X215550000Y-73710000D03*
D15*
X218010000Y-74990000D03*
D16*
X209200000Y-76250000D03*
D15*
X213010000Y-72890000D03*
%TD*%
D11*
%TO.C,K6*%
X245610000Y-40690000D03*
D12*
X246030000Y-40690000D03*
D13*
X251110000Y-40690000D03*
D12*
X256190000Y-40690000D03*
D11*
X256610000Y-40690000D03*
D14*
X253650000Y-35610000D03*
D15*
X256110000Y-36890000D03*
D16*
X247300000Y-38150000D03*
D15*
X251110000Y-34790000D03*
%TD*%
D11*
%TO.C,K10*%
X321810000Y-40690000D03*
D12*
X322230000Y-40690000D03*
D13*
X327310000Y-40690000D03*
D12*
X332390000Y-40690000D03*
D11*
X332810000Y-40690000D03*
D14*
X329850000Y-35610000D03*
D15*
X332310000Y-36890000D03*
D16*
X323500000Y-38150000D03*
D15*
X327310000Y-34790000D03*
%TD*%
D11*
%TO.C,K27*%
X340860000Y-59740000D03*
D12*
X341280000Y-59740000D03*
D13*
X346360000Y-59740000D03*
D12*
X351440000Y-59740000D03*
D11*
X351860000Y-59740000D03*
D14*
X348900000Y-54660000D03*
D15*
X351360000Y-55940000D03*
D16*
X342550000Y-57200000D03*
D15*
X346360000Y-53840000D03*
%TD*%
D11*
%TO.C,K52*%
X207510000Y-97840000D03*
D12*
X207930000Y-97840000D03*
D13*
X213010000Y-97840000D03*
D12*
X218090000Y-97840000D03*
D11*
X218510000Y-97840000D03*
D14*
X215550000Y-92760000D03*
D15*
X218010000Y-94040000D03*
D16*
X209200000Y-95300000D03*
D15*
X213010000Y-91940000D03*
%TD*%
D11*
%TO.C,K29*%
X398010000Y-59740000D03*
D12*
X398430000Y-59740000D03*
D13*
X403510000Y-59740000D03*
D12*
X408590000Y-59740000D03*
D11*
X409010000Y-59740000D03*
D14*
X406050000Y-54660000D03*
D15*
X408510000Y-55940000D03*
D16*
X399700000Y-57200000D03*
D15*
X403510000Y-53840000D03*
%TD*%
D11*
%TO.C,K72*%
X283685000Y-116900000D03*
D12*
X284105000Y-116900000D03*
D13*
X289185000Y-116900000D03*
D12*
X294265000Y-116900000D03*
D11*
X294685000Y-116900000D03*
D14*
X291725000Y-111820000D03*
D15*
X294185000Y-113100000D03*
D16*
X285375000Y-114360000D03*
D15*
X289185000Y-111000000D03*
%TD*%
D11*
%TO.C,K44*%
X378960000Y-78790000D03*
D12*
X379380000Y-78790000D03*
D13*
X384460000Y-78790000D03*
D12*
X389540000Y-78790000D03*
D11*
X389960000Y-78790000D03*
D14*
X387000000Y-73710000D03*
D15*
X389460000Y-74990000D03*
D16*
X380650000Y-76250000D03*
D15*
X384460000Y-72890000D03*
%TD*%
D10*
%TO.C,H3*%
X279675000Y-31175000D03*
%TD*%
D11*
%TO.C,K37*%
X226560000Y-78790000D03*
D12*
X226980000Y-78790000D03*
D13*
X232060000Y-78790000D03*
D12*
X237140000Y-78790000D03*
D11*
X237560000Y-78790000D03*
D14*
X234600000Y-73710000D03*
D15*
X237060000Y-74990000D03*
D16*
X228250000Y-76250000D03*
D15*
X232060000Y-72890000D03*
%TD*%
D11*
%TO.C,K23*%
X264660000Y-59740000D03*
D12*
X265080000Y-59740000D03*
D13*
X270160000Y-59740000D03*
D12*
X275240000Y-59740000D03*
D11*
X275660000Y-59740000D03*
D14*
X272700000Y-54660000D03*
D15*
X275160000Y-55940000D03*
D16*
X266350000Y-57200000D03*
D15*
X270160000Y-53840000D03*
%TD*%
D11*
%TO.C,K55*%
X264660000Y-97840000D03*
D12*
X265080000Y-97840000D03*
D13*
X270160000Y-97840000D03*
D12*
X275240000Y-97840000D03*
D11*
X275660000Y-97840000D03*
D14*
X272700000Y-92760000D03*
D15*
X275160000Y-94040000D03*
D16*
X266350000Y-95300000D03*
D15*
X270160000Y-91940000D03*
%TD*%
D11*
%TO.C,K38*%
X245610000Y-78790000D03*
D12*
X246030000Y-78790000D03*
D13*
X251110000Y-78790000D03*
D12*
X256190000Y-78790000D03*
D11*
X256610000Y-78790000D03*
D14*
X253650000Y-73710000D03*
D15*
X256110000Y-74990000D03*
D16*
X247300000Y-76250000D03*
D15*
X251110000Y-72890000D03*
%TD*%
D11*
%TO.C,K20*%
X207510000Y-59740000D03*
D12*
X207930000Y-59740000D03*
D13*
X213010000Y-59740000D03*
D12*
X218090000Y-59740000D03*
D11*
X218510000Y-59740000D03*
D14*
X215550000Y-54660000D03*
D15*
X218010000Y-55940000D03*
D16*
X209200000Y-57200000D03*
D15*
X213010000Y-53840000D03*
%TD*%
D11*
%TO.C,K21*%
X226560000Y-59740000D03*
D12*
X226980000Y-59740000D03*
D13*
X232060000Y-59740000D03*
D12*
X237140000Y-59740000D03*
D11*
X237560000Y-59740000D03*
D14*
X234600000Y-54660000D03*
D15*
X237060000Y-55940000D03*
D16*
X228250000Y-57200000D03*
D15*
X232060000Y-53840000D03*
%TD*%
D17*
%TO.C,REF\u002A\u002A*%
X363375000Y-76700000D03*
D18*
X364375000Y-76700000D03*
X365375000Y-76700000D03*
X366375000Y-76700000D03*
X367375000Y-76700000D03*
%TD*%
D11*
%TO.C,K56*%
X283710000Y-97840000D03*
D12*
X284130000Y-97840000D03*
D13*
X289210000Y-97840000D03*
D12*
X294290000Y-97840000D03*
D11*
X294710000Y-97840000D03*
D14*
X291750000Y-92760000D03*
D15*
X294210000Y-94040000D03*
D16*
X285400000Y-95300000D03*
D15*
X289210000Y-91940000D03*
%TD*%
D11*
%TO.C,K73*%
X302735000Y-116900000D03*
D12*
X303155000Y-116900000D03*
D13*
X308235000Y-116900000D03*
D12*
X313315000Y-116900000D03*
D11*
X313735000Y-116900000D03*
D14*
X310775000Y-111820000D03*
D15*
X313235000Y-113100000D03*
D16*
X304425000Y-114360000D03*
D15*
X308235000Y-111000000D03*
%TD*%
D11*
%TO.C,K28*%
X378960000Y-59740000D03*
D12*
X379380000Y-59740000D03*
D13*
X384460000Y-59740000D03*
D12*
X389540000Y-59740000D03*
D11*
X389960000Y-59740000D03*
D14*
X387000000Y-54660000D03*
D15*
X389460000Y-55940000D03*
D16*
X380650000Y-57200000D03*
D15*
X384460000Y-53840000D03*
%TD*%
D11*
%TO.C,K69*%
X226535000Y-116900000D03*
D12*
X226955000Y-116900000D03*
D13*
X232035000Y-116900000D03*
D12*
X237115000Y-116900000D03*
D11*
X237535000Y-116900000D03*
D14*
X234575000Y-111820000D03*
D15*
X237035000Y-113100000D03*
D16*
X228225000Y-114360000D03*
D15*
X232035000Y-111000000D03*
%TD*%
D11*
%TO.C,K62*%
X417060000Y-97840000D03*
D12*
X417480000Y-97840000D03*
D13*
X422560000Y-97840000D03*
D12*
X427640000Y-97840000D03*
D11*
X428060000Y-97840000D03*
D14*
X425100000Y-92760000D03*
D15*
X427560000Y-94040000D03*
D16*
X418750000Y-95300000D03*
D15*
X422560000Y-91940000D03*
%TD*%
D11*
%TO.C,K54*%
X245610000Y-97840000D03*
D12*
X246030000Y-97840000D03*
D13*
X251110000Y-97840000D03*
D12*
X256190000Y-97840000D03*
D11*
X256610000Y-97840000D03*
D14*
X253650000Y-92760000D03*
D15*
X256110000Y-94040000D03*
D16*
X247300000Y-95300000D03*
D15*
X251110000Y-91940000D03*
%TD*%
D11*
%TO.C,K68*%
X207485000Y-116900000D03*
D12*
X207905000Y-116900000D03*
D13*
X212985000Y-116900000D03*
D12*
X218065000Y-116900000D03*
D11*
X218485000Y-116900000D03*
D14*
X215525000Y-111820000D03*
D15*
X217985000Y-113100000D03*
D16*
X209175000Y-114360000D03*
D15*
X212985000Y-111000000D03*
%TD*%
D11*
%TO.C,K24*%
X283710000Y-59740000D03*
D12*
X284130000Y-59740000D03*
D13*
X289210000Y-59740000D03*
D12*
X294290000Y-59740000D03*
D11*
X294710000Y-59740000D03*
D14*
X291750000Y-54660000D03*
D15*
X294210000Y-55940000D03*
D16*
X285400000Y-57200000D03*
D15*
X289210000Y-53840000D03*
%TD*%
D11*
%TO.C,K18*%
X169410000Y-59740000D03*
D12*
X169830000Y-59740000D03*
D13*
X174910000Y-59740000D03*
D12*
X179990000Y-59740000D03*
D11*
X180410000Y-59740000D03*
D14*
X177450000Y-54660000D03*
D15*
X179910000Y-55940000D03*
D16*
X171100000Y-57200000D03*
D15*
X174910000Y-53840000D03*
%TD*%
D11*
%TO.C,K4*%
X207510000Y-40690000D03*
D12*
X207930000Y-40690000D03*
D13*
X213010000Y-40690000D03*
D12*
X218090000Y-40690000D03*
D11*
X218510000Y-40690000D03*
D14*
X215550000Y-35610000D03*
D15*
X218010000Y-36890000D03*
D16*
X209200000Y-38150000D03*
D15*
X213010000Y-34790000D03*
%TD*%
D11*
%TO.C,K64*%
X131285000Y-116900000D03*
D12*
X131705000Y-116900000D03*
D13*
X136785000Y-116900000D03*
D12*
X141865000Y-116900000D03*
D11*
X142285000Y-116900000D03*
D14*
X139325000Y-111820000D03*
D15*
X141785000Y-113100000D03*
D16*
X132975000Y-114360000D03*
D15*
X136785000Y-111000000D03*
%TD*%
D11*
%TO.C,K12*%
X378960000Y-40690000D03*
D12*
X379380000Y-40690000D03*
D13*
X384460000Y-40690000D03*
D12*
X389540000Y-40690000D03*
D11*
X389960000Y-40690000D03*
D14*
X387000000Y-35610000D03*
D15*
X389460000Y-36890000D03*
D16*
X380650000Y-38150000D03*
D15*
X384460000Y-34790000D03*
%TD*%
D11*
%TO.C,K59*%
X340860000Y-97840000D03*
D12*
X341280000Y-97840000D03*
D13*
X346360000Y-97840000D03*
D12*
X351440000Y-97840000D03*
D11*
X351860000Y-97840000D03*
D14*
X348900000Y-92760000D03*
D15*
X351360000Y-94040000D03*
D16*
X342550000Y-95300000D03*
D15*
X346360000Y-91940000D03*
%TD*%
D11*
%TO.C,K42*%
X321810000Y-78790000D03*
D12*
X322230000Y-78790000D03*
D13*
X327310000Y-78790000D03*
D12*
X332390000Y-78790000D03*
D11*
X332810000Y-78790000D03*
D14*
X329850000Y-73710000D03*
D15*
X332310000Y-74990000D03*
D16*
X323500000Y-76250000D03*
D15*
X327310000Y-72890000D03*
%TD*%
D11*
%TO.C,K51*%
X188460000Y-97840000D03*
D12*
X188880000Y-97840000D03*
D13*
X193960000Y-97840000D03*
D12*
X199040000Y-97840000D03*
D11*
X199460000Y-97840000D03*
D14*
X196500000Y-92760000D03*
D15*
X198960000Y-94040000D03*
D16*
X190150000Y-95300000D03*
D15*
X193960000Y-91940000D03*
%TD*%
D11*
%TO.C,K2*%
X169410000Y-40690000D03*
D12*
X169830000Y-40690000D03*
D13*
X174910000Y-40690000D03*
D12*
X179990000Y-40690000D03*
D11*
X180410000Y-40690000D03*
D14*
X177450000Y-35610000D03*
D15*
X179910000Y-36890000D03*
D16*
X171100000Y-38150000D03*
D15*
X174910000Y-34790000D03*
%TD*%
D11*
%TO.C,K43*%
X340860000Y-78790000D03*
D12*
X341280000Y-78790000D03*
D13*
X346360000Y-78790000D03*
D12*
X351440000Y-78790000D03*
D11*
X351860000Y-78790000D03*
D14*
X348900000Y-73710000D03*
D15*
X351360000Y-74990000D03*
D16*
X342550000Y-76250000D03*
D15*
X346360000Y-72890000D03*
%TD*%
D11*
%TO.C,K67*%
X188435000Y-116900000D03*
D12*
X188855000Y-116900000D03*
D13*
X193935000Y-116900000D03*
D12*
X199015000Y-116900000D03*
D11*
X199435000Y-116900000D03*
D14*
X196475000Y-111820000D03*
D15*
X198935000Y-113100000D03*
D16*
X190125000Y-114360000D03*
D15*
X193935000Y-111000000D03*
%TD*%
D11*
%TO.C,K7*%
X264660000Y-40690000D03*
D12*
X265080000Y-40690000D03*
D13*
X270160000Y-40690000D03*
D12*
X275240000Y-40690000D03*
D11*
X275660000Y-40690000D03*
D14*
X272700000Y-35610000D03*
D15*
X275160000Y-36890000D03*
D16*
X266350000Y-38150000D03*
D15*
X270160000Y-34790000D03*
%TD*%
D11*
%TO.C,K75*%
X340860000Y-116890000D03*
D12*
X341280000Y-116890000D03*
D13*
X346360000Y-116890000D03*
D12*
X351440000Y-116890000D03*
D11*
X351860000Y-116890000D03*
D14*
X348900000Y-111810000D03*
D15*
X351360000Y-113090000D03*
D16*
X342550000Y-114350000D03*
D15*
X346360000Y-110990000D03*
%TD*%
D11*
%TO.C,K76*%
X370906350Y-88300000D03*
D12*
X370486350Y-88300000D03*
D13*
X365406350Y-88300000D03*
D12*
X360326350Y-88300000D03*
D11*
X359906350Y-88300000D03*
D14*
X362866350Y-93380000D03*
D15*
X360406350Y-92100000D03*
D16*
X369216350Y-90840000D03*
D15*
X365406350Y-94200000D03*
%TD*%
D11*
%TO.C,K19*%
X188460000Y-59740000D03*
D12*
X188880000Y-59740000D03*
D13*
X193960000Y-59740000D03*
D12*
X199040000Y-59740000D03*
D11*
X199460000Y-59740000D03*
D14*
X196500000Y-54660000D03*
D15*
X198960000Y-55940000D03*
D16*
X190150000Y-57200000D03*
D15*
X193960000Y-53840000D03*
%TD*%
D11*
%TO.C,K61*%
X398010000Y-97840000D03*
D12*
X398430000Y-97840000D03*
D13*
X403510000Y-97840000D03*
D12*
X408590000Y-97840000D03*
D11*
X409010000Y-97840000D03*
D14*
X406050000Y-92760000D03*
D15*
X408510000Y-94040000D03*
D16*
X399700000Y-95300000D03*
D15*
X403510000Y-91940000D03*
%TD*%
D11*
%TO.C,K31*%
X436110000Y-59740000D03*
D12*
X436530000Y-59740000D03*
D13*
X441610000Y-59740000D03*
D12*
X446690000Y-59740000D03*
D11*
X447110000Y-59740000D03*
D14*
X444150000Y-54660000D03*
D15*
X446610000Y-55940000D03*
D16*
X437800000Y-57200000D03*
D15*
X441610000Y-53840000D03*
%TD*%
D11*
%TO.C,K9*%
X302760000Y-40690000D03*
D12*
X303180000Y-40690000D03*
D13*
X308260000Y-40690000D03*
D12*
X313340000Y-40690000D03*
D11*
X313760000Y-40690000D03*
D14*
X310800000Y-35610000D03*
D15*
X313260000Y-36890000D03*
D16*
X304450000Y-38150000D03*
D15*
X308260000Y-34790000D03*
%TD*%
D11*
%TO.C,K65*%
X150335000Y-116900000D03*
D12*
X150755000Y-116900000D03*
D13*
X155835000Y-116900000D03*
D12*
X160915000Y-116900000D03*
D11*
X161335000Y-116900000D03*
D14*
X158375000Y-111820000D03*
D15*
X160835000Y-113100000D03*
D16*
X152025000Y-114360000D03*
D15*
X155835000Y-111000000D03*
%TD*%
D11*
%TO.C,K41*%
X302760000Y-78790000D03*
D12*
X303180000Y-78790000D03*
D13*
X308260000Y-78790000D03*
D12*
X313340000Y-78790000D03*
D11*
X313760000Y-78790000D03*
D14*
X310800000Y-73710000D03*
D15*
X313260000Y-74990000D03*
D16*
X304450000Y-76250000D03*
D15*
X308260000Y-72890000D03*
%TD*%
D11*
%TO.C,K35*%
X188460000Y-78790000D03*
D12*
X188880000Y-78790000D03*
D13*
X193960000Y-78790000D03*
D12*
X199040000Y-78790000D03*
D11*
X199460000Y-78790000D03*
D14*
X196500000Y-73710000D03*
D15*
X198960000Y-74990000D03*
D16*
X190150000Y-76250000D03*
D15*
X193960000Y-72890000D03*
%TD*%
D11*
%TO.C,K60*%
X378960000Y-97840000D03*
D12*
X379380000Y-97840000D03*
D13*
X384460000Y-97840000D03*
D12*
X389540000Y-97840000D03*
D11*
X389960000Y-97840000D03*
D14*
X387000000Y-92760000D03*
D15*
X389460000Y-94040000D03*
D16*
X380650000Y-95300000D03*
D15*
X384460000Y-91940000D03*
%TD*%
D11*
%TO.C,K45*%
X398010000Y-78790000D03*
D12*
X398430000Y-78790000D03*
D13*
X403510000Y-78790000D03*
D12*
X408590000Y-78790000D03*
D11*
X409010000Y-78790000D03*
D14*
X406050000Y-73710000D03*
D15*
X408510000Y-74990000D03*
D16*
X399700000Y-76250000D03*
D15*
X403510000Y-72890000D03*
%TD*%
D11*
%TO.C,K32*%
X131310000Y-78790000D03*
D12*
X131730000Y-78790000D03*
D13*
X136810000Y-78790000D03*
D12*
X141890000Y-78790000D03*
D11*
X142310000Y-78790000D03*
D14*
X139350000Y-73710000D03*
D15*
X141810000Y-74990000D03*
D16*
X133000000Y-76250000D03*
D15*
X136810000Y-72890000D03*
%TD*%
D11*
%TO.C,K48*%
X131310000Y-97840000D03*
D12*
X131730000Y-97840000D03*
D13*
X136810000Y-97840000D03*
D12*
X141890000Y-97840000D03*
D11*
X142310000Y-97840000D03*
D14*
X139350000Y-92760000D03*
D15*
X141810000Y-94040000D03*
D16*
X133000000Y-95300000D03*
D15*
X136810000Y-91940000D03*
%TD*%
D11*
%TO.C,K15*%
X436110000Y-40690000D03*
D12*
X436530000Y-40690000D03*
D13*
X441610000Y-40690000D03*
D12*
X446690000Y-40690000D03*
D11*
X447110000Y-40690000D03*
D14*
X444150000Y-35610000D03*
D15*
X446610000Y-36890000D03*
D16*
X437800000Y-38150000D03*
D15*
X441610000Y-34790000D03*
%TD*%
D11*
%TO.C,K71*%
X264635000Y-116900000D03*
D12*
X265055000Y-116900000D03*
D13*
X270135000Y-116900000D03*
D12*
X275215000Y-116900000D03*
D11*
X275635000Y-116900000D03*
D14*
X272675000Y-111820000D03*
D15*
X275135000Y-113100000D03*
D16*
X266325000Y-114360000D03*
D15*
X270135000Y-111000000D03*
%TD*%
D11*
%TO.C,K50*%
X169410000Y-97840000D03*
D12*
X169830000Y-97840000D03*
D13*
X174910000Y-97840000D03*
D12*
X179990000Y-97840000D03*
D11*
X180410000Y-97840000D03*
D14*
X177450000Y-92760000D03*
D15*
X179910000Y-94040000D03*
D16*
X171100000Y-95300000D03*
D15*
X174910000Y-91940000D03*
%TD*%
D11*
%TO.C,K53*%
X226560000Y-97840000D03*
D12*
X226980000Y-97840000D03*
D13*
X232060000Y-97840000D03*
D12*
X237140000Y-97840000D03*
D11*
X237560000Y-97840000D03*
D14*
X234600000Y-92760000D03*
D15*
X237060000Y-94040000D03*
D16*
X228250000Y-95300000D03*
D15*
X232060000Y-91940000D03*
%TD*%
D11*
%TO.C,K57*%
X302760000Y-97840000D03*
D12*
X303180000Y-97840000D03*
D13*
X308260000Y-97840000D03*
D12*
X313340000Y-97840000D03*
D11*
X313760000Y-97840000D03*
D14*
X310800000Y-92760000D03*
D15*
X313260000Y-94040000D03*
D16*
X304450000Y-95300000D03*
D15*
X308260000Y-91940000D03*
%TD*%
D11*
%TO.C,K39*%
X264660000Y-78790000D03*
D12*
X265080000Y-78790000D03*
D13*
X270160000Y-78790000D03*
D12*
X275240000Y-78790000D03*
D11*
X275660000Y-78790000D03*
D14*
X272700000Y-73710000D03*
D15*
X275160000Y-74990000D03*
D16*
X266350000Y-76250000D03*
D15*
X270160000Y-72890000D03*
%TD*%
D11*
%TO.C,K25*%
X302760000Y-59740000D03*
D12*
X303180000Y-59740000D03*
D13*
X308260000Y-59740000D03*
D12*
X313340000Y-59740000D03*
D11*
X313760000Y-59740000D03*
D14*
X310800000Y-54660000D03*
D15*
X313260000Y-55940000D03*
D16*
X304450000Y-57200000D03*
D15*
X308260000Y-53840000D03*
%TD*%
D11*
%TO.C,K17*%
X150360000Y-59740000D03*
D12*
X150780000Y-59740000D03*
D13*
X155860000Y-59740000D03*
D12*
X160940000Y-59740000D03*
D11*
X161360000Y-59740000D03*
D14*
X158400000Y-54660000D03*
D15*
X160860000Y-55940000D03*
D16*
X152050000Y-57200000D03*
D15*
X155860000Y-53840000D03*
%TD*%
D11*
%TO.C,K5*%
X226560000Y-40690000D03*
D12*
X226980000Y-40690000D03*
D13*
X232060000Y-40690000D03*
D12*
X237140000Y-40690000D03*
D11*
X237560000Y-40690000D03*
D14*
X234600000Y-35610000D03*
D15*
X237060000Y-36890000D03*
D16*
X228250000Y-38150000D03*
D15*
X232060000Y-34790000D03*
%TD*%
D11*
%TO.C,K1*%
X150360000Y-40690000D03*
D12*
X150780000Y-40690000D03*
D13*
X155860000Y-40690000D03*
D12*
X160940000Y-40690000D03*
D11*
X161360000Y-40690000D03*
D14*
X158400000Y-35610000D03*
D15*
X160860000Y-36890000D03*
D16*
X152050000Y-38150000D03*
D15*
X155860000Y-34790000D03*
%TD*%
D11*
%TO.C,K63*%
X436093650Y-97812700D03*
D12*
X436513650Y-97812700D03*
D13*
X441593650Y-97812700D03*
D12*
X446673650Y-97812700D03*
D11*
X447093650Y-97812700D03*
D14*
X444133650Y-92732700D03*
D15*
X446593650Y-94012700D03*
D16*
X437783650Y-95272700D03*
D15*
X441593650Y-91912700D03*
%TD*%
D11*
%TO.C,K8*%
X283710000Y-40690000D03*
D12*
X284130000Y-40690000D03*
D13*
X289210000Y-40690000D03*
D12*
X294290000Y-40690000D03*
D11*
X294710000Y-40690000D03*
D14*
X291750000Y-35610000D03*
D15*
X294210000Y-36890000D03*
D16*
X285400000Y-38150000D03*
D15*
X289210000Y-34790000D03*
%TD*%
D11*
%TO.C,K47*%
X436110000Y-78790000D03*
D12*
X436530000Y-78790000D03*
D13*
X441610000Y-78790000D03*
D12*
X446690000Y-78790000D03*
D11*
X447110000Y-78790000D03*
D14*
X444150000Y-73710000D03*
D15*
X446610000Y-74990000D03*
D16*
X437800000Y-76250000D03*
D15*
X441610000Y-72890000D03*
%TD*%
D11*
%TO.C,K40*%
X283710000Y-78790000D03*
D12*
X284130000Y-78790000D03*
D13*
X289210000Y-78790000D03*
D12*
X294290000Y-78790000D03*
D11*
X294710000Y-78790000D03*
D14*
X291750000Y-73710000D03*
D15*
X294210000Y-74990000D03*
D16*
X285400000Y-76250000D03*
D15*
X289210000Y-72890000D03*
%TD*%
D10*
%TO.C,H3*%
X356450000Y-126750000D03*
%TD*%
D11*
%TO.C,K70*%
X245585000Y-116900000D03*
D12*
X246005000Y-116900000D03*
D13*
X251085000Y-116900000D03*
D12*
X256165000Y-116900000D03*
D11*
X256585000Y-116900000D03*
D14*
X253625000Y-111820000D03*
D15*
X256085000Y-113100000D03*
D16*
X247275000Y-114360000D03*
D15*
X251085000Y-111000000D03*
%TD*%
D11*
%TO.C,K3*%
X188460000Y-40690000D03*
D12*
X188880000Y-40690000D03*
D13*
X193960000Y-40690000D03*
D12*
X199040000Y-40690000D03*
D11*
X199460000Y-40690000D03*
D14*
X196500000Y-35610000D03*
D15*
X198960000Y-36890000D03*
D16*
X190150000Y-38150000D03*
D15*
X193960000Y-34790000D03*
%TD*%
D19*
%TO.C,R5*%
X364285000Y-37892500D03*
X364285000Y-36067500D03*
%TD*%
%TO.C,R6*%
X367205000Y-37882500D03*
X367205000Y-36057500D03*
%TD*%
D20*
%TO.C,USB1*%
X361675000Y-32750000D03*
X369175000Y-32750000D03*
D21*
X362125000Y-33950000D03*
X362975000Y-33950000D03*
D22*
X364175000Y-33950000D03*
X365175000Y-33950000D03*
X365675000Y-33950000D03*
X366675000Y-33950000D03*
D21*
X367875000Y-33950000D03*
X368725000Y-33950000D03*
X368725000Y-33950000D03*
X367875000Y-33950000D03*
D22*
X367175000Y-33950000D03*
X366175000Y-33950000D03*
X364675000Y-33950000D03*
X363675000Y-33950000D03*
D21*
X362975000Y-33950000D03*
X362125000Y-33950000D03*
D23*
X359850000Y-28070000D03*
X359850000Y-32670000D03*
X371000000Y-28070000D03*
X371000000Y-32670000D03*
%TD*%
D24*
%TO.C,D33*%
X147875000Y-85325000D03*
X147875000Y-82525000D03*
%TD*%
%TO.C,D54*%
X243225000Y-104325000D03*
X243225000Y-101525000D03*
%TD*%
%TO.C,D17*%
X147875000Y-66325000D03*
X147875000Y-63525000D03*
%TD*%
D25*
%TO.C,R8*%
X361212500Y-38825000D03*
X359387500Y-38825000D03*
%TD*%
D24*
%TO.C,D63*%
X438525000Y-105625000D03*
X438525000Y-102825000D03*
%TD*%
D26*
%TO.C,D70*%
X243050000Y-107925000D03*
X243050000Y-110725000D03*
%TD*%
D27*
%TO.C,C11*%
X365260589Y-53669411D03*
X365939411Y-52990589D03*
%TD*%
D24*
%TO.C,D1*%
X147875000Y-47275000D03*
X147875000Y-44475000D03*
%TD*%
%TO.C,D14*%
X419475000Y-48525000D03*
X419475000Y-45725000D03*
%TD*%
D26*
%TO.C,D73*%
X300275000Y-107950000D03*
X300275000Y-110750000D03*
%TD*%
D24*
%TO.C,D15*%
X438525000Y-48525000D03*
X438525000Y-45725000D03*
%TD*%
D28*
%TO.C,C19*%
X363170000Y-70970000D03*
X363170000Y-70010000D03*
%TD*%
D24*
%TO.C,D28*%
X381375000Y-66375000D03*
X381375000Y-63575000D03*
%TD*%
%TO.C,D41*%
X300275000Y-85375000D03*
X300275000Y-82575000D03*
%TD*%
D29*
%TO.C,C6*%
X363764411Y-65960589D03*
X363085589Y-66639411D03*
%TD*%
D30*
%TO.C,D100*%
X370775000Y-39807500D03*
X370775000Y-36507500D03*
%TD*%
D24*
%TO.C,D52*%
X205125000Y-104375000D03*
X205125000Y-101575000D03*
%TD*%
%TO.C,D24*%
X281275000Y-66275000D03*
X281275000Y-63475000D03*
%TD*%
D31*
%TO.C,C16*%
X360780000Y-57450000D03*
X359820000Y-57450000D03*
%TD*%
D24*
%TO.C,D47*%
X438525000Y-86600000D03*
X438525000Y-83800000D03*
%TD*%
%TO.C,D42*%
X319375000Y-85375000D03*
X319375000Y-82575000D03*
%TD*%
D26*
%TO.C,D68*%
X204950000Y-107925000D03*
X204950000Y-110725000D03*
%TD*%
D24*
%TO.C,D35*%
X185975000Y-85375000D03*
X185975000Y-82575000D03*
%TD*%
%TO.C,D6*%
X243175000Y-47275000D03*
X243175000Y-44475000D03*
%TD*%
%TO.C,D10*%
X319375000Y-47275000D03*
X319375000Y-44475000D03*
%TD*%
D17*
%TO.C,J5*%
X360675000Y-69725000D03*
D18*
X360675000Y-68725000D03*
X360675000Y-67725000D03*
%TD*%
D24*
%TO.C,D9*%
X300275000Y-47275000D03*
X300275000Y-44475000D03*
%TD*%
D26*
%TO.C,D74*%
X319325000Y-107950000D03*
X319325000Y-110750000D03*
%TD*%
D24*
%TO.C,D58*%
X319375000Y-104375000D03*
X319375000Y-101575000D03*
%TD*%
%TO.C,D21*%
X224075000Y-66275000D03*
X224075000Y-63475000D03*
%TD*%
%TO.C,D29*%
X400425000Y-67550000D03*
X400425000Y-64750000D03*
%TD*%
D32*
%TO.C,Y1*%
X366900000Y-70200000D03*
X364700000Y-70200000D03*
X364700000Y-68500000D03*
X366900000Y-68500000D03*
%TD*%
D24*
%TO.C,D76*%
X360575000Y-99875000D03*
X360575000Y-97075000D03*
%TD*%
%TO.C,D5*%
X224075000Y-47275000D03*
X224075000Y-44475000D03*
%TD*%
%TO.C,D38*%
X243175000Y-85375000D03*
X243175000Y-82575000D03*
%TD*%
%TO.C,D61*%
X400425000Y-105650000D03*
X400425000Y-102850000D03*
%TD*%
%TO.C,D11*%
X338375000Y-47275000D03*
X338375000Y-44475000D03*
%TD*%
D26*
%TO.C,D64*%
X128750000Y-107925000D03*
X128750000Y-110725000D03*
%TD*%
D33*
%TO.C,C15*%
X369970000Y-57175000D03*
X370930000Y-57175000D03*
%TD*%
D24*
%TO.C,D60*%
X381375000Y-105650000D03*
X381375000Y-102850000D03*
%TD*%
D31*
%TO.C,CBP1*%
X370390000Y-42476250D03*
X369430000Y-42476250D03*
%TD*%
D28*
%TO.C,C102*%
X361525000Y-55730000D03*
X361525000Y-54770000D03*
%TD*%
D34*
%TO.C,R7*%
X368494999Y-42476250D03*
X367474999Y-42476250D03*
%TD*%
D29*
%TO.C,C8*%
X365014411Y-66135589D03*
X364335589Y-66814411D03*
%TD*%
D35*
%TO.C,R11*%
X363160000Y-68070000D03*
X363160000Y-69090000D03*
%TD*%
D36*
%TO.C,FLASH1*%
X371187500Y-52570000D03*
X371187500Y-53070000D03*
X371187500Y-53570000D03*
X371187500Y-54070000D03*
X368612500Y-54070000D03*
X368612500Y-53570000D03*
X368612500Y-53070000D03*
X368612500Y-52570000D03*
D37*
X369900000Y-53320000D03*
%TD*%
D35*
%TO.C,R3*%
X364180000Y-52030000D03*
X364180000Y-53050000D03*
%TD*%
D24*
%TO.C,D8*%
X281275000Y-47275000D03*
X281275000Y-44475000D03*
%TD*%
D26*
%TO.C,D72*%
X281150000Y-107925000D03*
X281150000Y-110725000D03*
%TD*%
D38*
%TO.C,FB1*%
X364050000Y-43501250D03*
X365070000Y-43501250D03*
%TD*%
D26*
%TO.C,D69*%
X224050000Y-107925000D03*
X224050000Y-110725000D03*
%TD*%
D39*
%TO.C,DLED1*%
X365225000Y-50345000D03*
X365225000Y-49375000D03*
%TD*%
D40*
%TO.C,U1*%
X367297500Y-45651250D03*
X367297500Y-44701250D03*
X367297500Y-43751250D03*
X369572500Y-43751250D03*
X369572500Y-45651250D03*
%TD*%
D24*
%TO.C,D0*%
X128875000Y-47225000D03*
X128875000Y-44425000D03*
%TD*%
%TO.C,D22*%
X243175000Y-66325000D03*
X243175000Y-63525000D03*
%TD*%
%TO.C,D50*%
X167025000Y-104375000D03*
X167025000Y-101575000D03*
%TD*%
%TO.C,D27*%
X338375000Y-66325000D03*
X338375000Y-63525000D03*
%TD*%
%TO.C,D48*%
X128925000Y-104325000D03*
X128925000Y-101525000D03*
%TD*%
%TO.C,D46*%
X419475000Y-86600000D03*
X419475000Y-83800000D03*
%TD*%
%TO.C,D18*%
X166975000Y-66275000D03*
X166975000Y-63475000D03*
%TD*%
D29*
%TO.C,C13*%
X359128822Y-61883678D03*
X358450000Y-62562500D03*
%TD*%
D41*
%TO.C,R1*%
X372189376Y-51589376D03*
X372910624Y-52310624D03*
%TD*%
D24*
%TO.C,D53*%
X224125000Y-104375000D03*
X224125000Y-101575000D03*
%TD*%
D42*
%TO.C,J2*%
X373450000Y-49512500D03*
X373450000Y-45312500D03*
%TD*%
D26*
%TO.C,D71*%
X262150000Y-107925000D03*
X262150000Y-110725000D03*
%TD*%
D24*
%TO.C,D31*%
X438525000Y-67550000D03*
X438525000Y-64750000D03*
%TD*%
%TO.C,D51*%
X186025000Y-104375000D03*
X186025000Y-101575000D03*
%TD*%
D28*
%TO.C,C5*%
X367560000Y-52570000D03*
X367560000Y-51610000D03*
%TD*%
D24*
%TO.C,D59*%
X338375000Y-104375000D03*
X338375000Y-101575000D03*
%TD*%
%TO.C,D43*%
X338375000Y-85375000D03*
X338375000Y-82575000D03*
%TD*%
%TO.C,D26*%
X319375000Y-66275000D03*
X319375000Y-63475000D03*
%TD*%
%TO.C,D20*%
X205075000Y-66275000D03*
X205075000Y-63475000D03*
%TD*%
%TO.C,D7*%
X262175000Y-47275000D03*
X262175000Y-44475000D03*
%TD*%
%TO.C,D39*%
X262175000Y-85375000D03*
X262175000Y-82575000D03*
%TD*%
%TO.C,D62*%
X419475000Y-105650000D03*
X419475000Y-102850000D03*
%TD*%
D26*
%TO.C,D66*%
X166850000Y-107975000D03*
X166850000Y-110775000D03*
%TD*%
D24*
%TO.C,D37*%
X224075000Y-85375000D03*
X224075000Y-82575000D03*
%TD*%
D28*
%TO.C,C3*%
X363475000Y-55630000D03*
X363475000Y-54670000D03*
%TD*%
D35*
%TO.C,R9*%
X366165000Y-49350000D03*
X366165000Y-50370000D03*
%TD*%
D24*
%TO.C,D57*%
X300275000Y-104375000D03*
X300275000Y-101575000D03*
%TD*%
%TO.C,D30*%
X419475000Y-67550000D03*
X419475000Y-64750000D03*
%TD*%
%TO.C,D44*%
X381375000Y-86600000D03*
X381375000Y-83800000D03*
%TD*%
D38*
%TO.C,R2*%
X369390000Y-51070000D03*
X370410000Y-51070000D03*
%TD*%
D24*
%TO.C,D45*%
X400425000Y-86600000D03*
X400425000Y-83800000D03*
%TD*%
D31*
%TO.C,C18*%
X360530000Y-56450000D03*
X359570000Y-56450000D03*
%TD*%
D24*
%TO.C,D56*%
X281275000Y-104325000D03*
X281275000Y-101525000D03*
%TD*%
%TO.C,D36*%
X205075000Y-85375000D03*
X205075000Y-82575000D03*
%TD*%
%TO.C,D19*%
X185975000Y-66275000D03*
X185975000Y-63475000D03*
%TD*%
D43*
%TO.C,U3*%
X368837500Y-57800000D03*
X368837500Y-58200000D03*
X368837500Y-58600000D03*
X368837500Y-59000000D03*
X368837500Y-59400000D03*
X368837500Y-59800000D03*
X368837500Y-60200000D03*
X368837500Y-60600000D03*
X368837500Y-61000000D03*
X368837500Y-61400000D03*
X368837500Y-61800000D03*
X368837500Y-62200000D03*
X368837500Y-62600000D03*
X368837500Y-63000000D03*
D44*
X368000000Y-63837500D03*
X367600000Y-63837500D03*
X367200000Y-63837500D03*
X366800000Y-63837500D03*
X366400000Y-63837500D03*
X366000000Y-63837500D03*
X365600000Y-63837500D03*
X365200000Y-63837500D03*
X364800000Y-63837500D03*
X364400000Y-63837500D03*
X364000000Y-63837500D03*
X363600000Y-63837500D03*
X363200000Y-63837500D03*
X362800000Y-63837500D03*
D43*
X361962500Y-63000000D03*
X361962500Y-62600000D03*
X361962500Y-62200000D03*
X361962500Y-61800000D03*
X361962500Y-61400000D03*
X361962500Y-61000000D03*
X361962500Y-60600000D03*
X361962500Y-60200000D03*
X361962500Y-59800000D03*
X361962500Y-59400000D03*
X361962500Y-59000000D03*
X361962500Y-58600000D03*
X361962500Y-58200000D03*
X361962500Y-57800000D03*
D44*
X362800000Y-56962500D03*
X363200000Y-56962500D03*
X363600000Y-56962500D03*
X364000000Y-56962500D03*
X364400000Y-56962500D03*
X364800000Y-56962500D03*
X365200000Y-56962500D03*
X365600000Y-56962500D03*
X366000000Y-56962500D03*
X366400000Y-56962500D03*
X366800000Y-56962500D03*
X367200000Y-56962500D03*
X367600000Y-56962500D03*
X368000000Y-56962500D03*
D45*
X365400000Y-60400000D03*
%TD*%
D24*
%TO.C,D13*%
X400425000Y-48525000D03*
X400425000Y-45725000D03*
%TD*%
D26*
%TO.C,D75*%
X338400000Y-107950000D03*
X338400000Y-110750000D03*
%TD*%
D46*
%TO.C,F1*%
X364372500Y-42001250D03*
X366247500Y-42001250D03*
%TD*%
D24*
%TO.C,D4*%
X205075000Y-47200000D03*
X205075000Y-44400000D03*
%TD*%
%TO.C,D23*%
X262175000Y-66325000D03*
X262175000Y-63525000D03*
%TD*%
%TO.C,D55*%
X262225000Y-104325000D03*
X262225000Y-101525000D03*
%TD*%
%TO.C,D25*%
X300275000Y-66275000D03*
X300275000Y-63475000D03*
%TD*%
D28*
%TO.C,C2*%
X368430000Y-70610000D03*
X368430000Y-69650000D03*
%TD*%
D47*
%TO.C,C9*%
X361250000Y-36825000D03*
X359350000Y-36825000D03*
%TD*%
D26*
%TO.C,D65*%
X147850000Y-107925000D03*
X147850000Y-110725000D03*
%TD*%
D28*
%TO.C,C4*%
X371035000Y-45656250D03*
X371035000Y-44696250D03*
%TD*%
D26*
%TO.C,D67*%
X185950000Y-107925000D03*
X185950000Y-110725000D03*
%TD*%
D31*
%TO.C,C1*%
X365715000Y-45651250D03*
X364755000Y-45651250D03*
%TD*%
D35*
%TO.C,R4*%
X363190000Y-52030000D03*
X363190000Y-53050000D03*
%TD*%
D24*
%TO.C,D40*%
X281275000Y-85375000D03*
X281275000Y-82575000D03*
%TD*%
D48*
%TO.C,C14*%
X371550000Y-61912500D03*
X372228822Y-62591322D03*
%TD*%
D27*
%TO.C,C7*%
X366160589Y-54219411D03*
X366839411Y-53540589D03*
%TD*%
D49*
%TO.C,RSW1*%
X357400000Y-45312500D03*
X357400000Y-49512500D03*
%TD*%
D24*
%TO.C,D49*%
X147925000Y-104375000D03*
X147925000Y-101575000D03*
%TD*%
%TO.C,D3*%
X185975000Y-47275000D03*
X185975000Y-44475000D03*
%TD*%
%TO.C,D16*%
X128875000Y-66325000D03*
X128875000Y-63525000D03*
%TD*%
D28*
%TO.C,C10*%
X362500000Y-55730000D03*
X362500000Y-54770000D03*
%TD*%
D24*
%TO.C,D32*%
X128875000Y-85375000D03*
X128875000Y-82575000D03*
%TD*%
%TO.C,D34*%
X166975000Y-85375000D03*
X166975000Y-82575000D03*
%TD*%
%TO.C,D12*%
X381375000Y-48525000D03*
X381375000Y-45725000D03*
%TD*%
%TO.C,D2*%
X166975000Y-47275000D03*
X166975000Y-44475000D03*
%TD*%
M02*
