M48
; DRILL file {KiCad 8.0.2} date 2024-05-15T22:22:56+0100
; FORMAT={-:-/ absolute / inch / decimal}
; #@! TF.CreationDate,2024-05-15T22:22:56+01:00
; #@! TF.GenerationSoftware,Kicad,Pcbnew,8.0.2
; #@! TF.FileFunction,NonPlated,1,2,NPTH
FMAT,2
INCH
; #@! TA.AperFunction,NonPlated,NPTH,ComponentDrill
T1C0.0256
; #@! TA.AperFunction,NonPlated,NPTH,ComponentDrill
T2C0.0669
; #@! TA.AperFunction,NonPlated,NPTH,ComponentDrill
T3C0.0689
; #@! TA.AperFunction,NonPlated,NPTH,ComponentDrill
T4C0.1575
%
G90
G05
T1
X14.2392Y-1.2894
X14.5344Y-1.2894
T2
X5.1687Y-4.6024
X5.1697Y-1.602
X5.1697Y-2.352
X5.1697Y-3.102
X5.1697Y-3.852
X5.6018Y-4.6024
X5.6028Y-1.602
X5.6028Y-2.352
X5.6028Y-3.102
X5.6028Y-3.852
X5.9187Y-4.6024
X5.9197Y-1.602
X5.9197Y-2.352
X5.9197Y-3.102
X5.9197Y-3.852
X6.3518Y-4.6024
X6.3528Y-1.602
X6.3528Y-2.352
X6.3528Y-3.102
X6.3528Y-3.852
X6.6687Y-4.6024
X6.6697Y-1.602
X6.6697Y-2.352
X6.6697Y-3.102
X6.6697Y-3.852
X7.1018Y-4.6024
X7.1028Y-1.602
X7.1028Y-2.352
X7.1028Y-3.102
X7.1028Y-3.852
X7.4187Y-4.6024
X7.4197Y-1.602
X7.4197Y-2.352
X7.4197Y-3.102
X7.4197Y-3.852
X7.8518Y-4.6024
X7.8528Y-1.602
X7.8528Y-2.352
X7.8528Y-3.102
X7.8528Y-3.852
X8.1687Y-4.6024
X8.1697Y-1.602
X8.1697Y-2.352
X8.1697Y-3.102
X8.1697Y-3.852
X8.6018Y-4.6024
X8.6028Y-1.602
X8.6028Y-2.352
X8.6028Y-3.102
X8.6028Y-3.852
X8.9187Y-4.6024
X8.9197Y-1.602
X8.9197Y-2.352
X8.9197Y-3.102
X8.9197Y-3.852
X9.3518Y-4.6024
X9.3528Y-1.602
X9.3528Y-2.352
X9.3528Y-3.102
X9.3528Y-3.852
X9.6687Y-4.6024
X9.6697Y-1.602
X9.6697Y-2.352
X9.6697Y-3.102
X9.6697Y-3.852
X10.1018Y-4.6024
X10.1028Y-1.602
X10.1028Y-2.352
X10.1028Y-3.102
X10.1028Y-3.852
X10.4187Y-4.6024
X10.4197Y-1.602
X10.4197Y-2.352
X10.4197Y-3.102
X10.4197Y-3.852
X10.8518Y-4.6024
X10.8528Y-1.602
X10.8528Y-2.352
X10.8528Y-3.102
X10.8528Y-3.852
X11.1687Y-4.6024
X11.1697Y-1.602
X11.1697Y-2.352
X11.1697Y-3.102
X11.1697Y-3.852
X11.6018Y-4.6024
X11.6028Y-1.602
X11.6028Y-2.352
X11.6028Y-3.102
X11.6028Y-3.852
X11.9187Y-4.6024
X11.9197Y-1.602
X11.9197Y-2.352
X11.9197Y-3.102
X11.9197Y-3.852
X12.3518Y-4.6024
X12.3528Y-1.602
X12.3528Y-2.352
X12.3528Y-3.102
X12.3528Y-3.852
X12.6697Y-1.602
X12.6697Y-2.352
X12.6697Y-3.102
X12.6697Y-3.852
X12.6697Y-4.602
X13.1028Y-1.602
X13.1028Y-2.352
X13.1028Y-3.102
X13.1028Y-3.852
X13.1028Y-4.602
X13.4197Y-1.602
X13.4197Y-2.352
X13.4197Y-3.102
X13.4197Y-3.852
X13.4197Y-4.602
X13.8528Y-1.602
X13.8528Y-2.352
X13.8528Y-3.102
X13.8528Y-3.852
X13.8528Y-4.602
X14.1695Y-3.4764
X14.6026Y-3.4764
X14.9197Y-1.602
X14.9197Y-2.352
X14.9197Y-3.102
X14.9197Y-3.852
X15.3528Y-1.602
X15.3528Y-2.352
X15.3528Y-3.102
X15.3528Y-3.852
X15.6697Y-1.602
X15.6697Y-2.352
X15.6697Y-3.102
X15.6697Y-3.852
X16.1028Y-1.602
X16.1028Y-2.352
X16.1028Y-3.102
X16.1028Y-3.852
X16.4197Y-1.602
X16.4197Y-2.352
X16.4197Y-3.102
X16.4197Y-3.852
X16.8528Y-1.602
X16.8528Y-2.352
X16.8528Y-3.102
X16.8528Y-3.852
X17.169Y-3.8509
X17.1697Y-1.602
X17.1697Y-2.352
X17.1697Y-3.102
X17.6021Y-3.8509
X17.6028Y-1.602
X17.6028Y-2.352
X17.6028Y-3.102
T3
X5.1852Y-4.6024
X5.1862Y-1.602
X5.1862Y-2.352
X5.1862Y-3.102
X5.1862Y-3.852
X5.5852Y-4.6024
X5.5862Y-1.602
X5.5862Y-2.352
X5.5862Y-3.102
X5.5862Y-3.852
X5.9352Y-4.6024
X5.9362Y-1.602
X5.9362Y-2.352
X5.9362Y-3.102
X5.9362Y-3.852
X6.3352Y-4.6024
X6.3362Y-1.602
X6.3362Y-2.352
X6.3362Y-3.102
X6.3362Y-3.852
X6.6852Y-4.6024
X6.6862Y-1.602
X6.6862Y-2.352
X6.6862Y-3.102
X6.6862Y-3.852
X7.0852Y-4.6024
X7.0862Y-1.602
X7.0862Y-2.352
X7.0862Y-3.102
X7.0862Y-3.852
X7.4352Y-4.6024
X7.4362Y-1.602
X7.4362Y-2.352
X7.4362Y-3.102
X7.4362Y-3.852
X7.8352Y-4.6024
X7.8362Y-1.602
X7.8362Y-2.352
X7.8362Y-3.102
X7.8362Y-3.852
X8.1852Y-4.6024
X8.1862Y-1.602
X8.1862Y-2.352
X8.1862Y-3.102
X8.1862Y-3.852
X8.5852Y-4.6024
X8.5862Y-1.602
X8.5862Y-2.352
X8.5862Y-3.102
X8.5862Y-3.852
X8.9352Y-4.6024
X8.9362Y-1.602
X8.9362Y-2.352
X8.9362Y-3.102
X8.9362Y-3.852
X9.3352Y-4.6024
X9.3362Y-1.602
X9.3362Y-2.352
X9.3362Y-3.102
X9.3362Y-3.852
X9.6852Y-4.6024
X9.6862Y-1.602
X9.6862Y-2.352
X9.6862Y-3.102
X9.6862Y-3.852
X10.0852Y-4.6024
X10.0862Y-1.602
X10.0862Y-2.352
X10.0862Y-3.102
X10.0862Y-3.852
X10.4352Y-4.6024
X10.4362Y-1.602
X10.4362Y-2.352
X10.4362Y-3.102
X10.4362Y-3.852
X10.8352Y-4.6024
X10.8362Y-1.602
X10.8362Y-2.352
X10.8362Y-3.102
X10.8362Y-3.852
X11.1852Y-4.6024
X11.1862Y-1.602
X11.1862Y-2.352
X11.1862Y-3.102
X11.1862Y-3.852
X11.5852Y-4.6024
X11.5862Y-1.602
X11.5862Y-2.352
X11.5862Y-3.102
X11.5862Y-3.852
X11.9352Y-4.6024
X11.9362Y-1.602
X11.9362Y-2.352
X11.9362Y-3.102
X11.9362Y-3.852
X12.3352Y-4.6024
X12.3362Y-1.602
X12.3362Y-2.352
X12.3362Y-3.102
X12.3362Y-3.852
X12.6862Y-1.602
X12.6862Y-2.352
X12.6862Y-3.102
X12.6862Y-3.852
X12.6862Y-4.602
X13.0862Y-1.602
X13.0862Y-2.352
X13.0862Y-3.102
X13.0862Y-3.852
X13.0862Y-4.602
X13.4362Y-1.602
X13.4362Y-2.352
X13.4362Y-3.102
X13.4362Y-3.852
X13.4362Y-4.602
X13.8362Y-1.602
X13.8362Y-2.352
X13.8362Y-3.102
X13.8362Y-3.852
X13.8362Y-4.602
X14.1861Y-3.4764
X14.5861Y-3.4764
X14.9362Y-1.602
X14.9362Y-2.352
X14.9362Y-3.102
X14.9362Y-3.852
X15.3362Y-1.602
X15.3362Y-2.352
X15.3362Y-3.102
X15.3362Y-3.852
X15.6862Y-1.602
X15.6862Y-2.352
X15.6862Y-3.102
X15.6862Y-3.852
X16.0862Y-1.602
X16.0862Y-2.352
X16.0862Y-3.102
X16.0862Y-3.852
X16.4362Y-1.602
X16.4362Y-2.352
X16.4362Y-3.102
X16.4362Y-3.852
X16.8362Y-1.602
X16.8362Y-2.352
X16.8362Y-3.102
X16.8362Y-3.852
X17.1856Y-3.8509
X17.1862Y-1.602
X17.1862Y-2.352
X17.1862Y-3.102
X17.5856Y-3.8509
X17.5862Y-1.602
X17.5862Y-2.352
X17.5862Y-3.102
T4
X5.3852Y-4.6024
X5.3862Y-1.602
X5.3862Y-2.352
X5.3862Y-3.102
X5.3862Y-3.852
X6.1352Y-4.6024
X6.1362Y-1.602
X6.1362Y-2.352
X6.1362Y-3.102
X6.1362Y-3.852
X6.8852Y-4.6024
X6.8862Y-1.602
X6.8862Y-2.352
X6.8862Y-3.102
X6.8862Y-3.852
X7.6352Y-4.6024
X7.6362Y-1.602
X7.6362Y-2.352
X7.6362Y-3.102
X7.6362Y-3.852
X8.3852Y-4.6024
X8.3862Y-1.602
X8.3862Y-2.352
X8.3862Y-3.102
X8.3862Y-3.852
X9.1352Y-4.6024
X9.1362Y-1.602
X9.1362Y-2.352
X9.1362Y-3.102
X9.1362Y-3.852
X9.8852Y-4.6024
X9.8862Y-1.602
X9.8862Y-2.352
X9.8862Y-3.102
X9.8862Y-3.852
X10.6352Y-4.6024
X10.6362Y-1.602
X10.6362Y-2.352
X10.6362Y-3.102
X10.6362Y-3.852
X11.3852Y-4.6024
X11.3862Y-1.602
X11.3862Y-2.352
X11.3862Y-3.102
X11.3862Y-3.852
X12.1352Y-4.6024
X12.1362Y-1.602
X12.1362Y-2.352
X12.1362Y-3.102
X12.1362Y-3.852
X12.8862Y-1.602
X12.8862Y-2.352
X12.8862Y-3.102
X12.8862Y-3.852
X12.8862Y-4.602
X13.6362Y-1.602
X13.6362Y-2.352
X13.6362Y-3.102
X13.6362Y-3.852
X13.6362Y-4.602
X14.3861Y-3.4764
X15.1362Y-1.602
X15.1362Y-2.352
X15.1362Y-3.102
X15.1362Y-3.852
X15.8862Y-1.602
X15.8862Y-2.352
X15.8862Y-3.102
X15.8862Y-3.852
X16.6362Y-1.602
X16.6362Y-2.352
X16.6362Y-3.102
X16.6362Y-3.852
X17.3856Y-3.8509
X17.3862Y-1.602
X17.3862Y-2.352
X17.3862Y-3.102
M30
