%TF.GenerationSoftware,KiCad,Pcbnew,8.0.2*%
%TF.CreationDate,2024-05-15T22:22:56+01:00*%
%TF.ProjectId,Phoenixia,50686f65-6e69-4786-9961-2e6b69636164,1*%
%TF.SameCoordinates,Original*%
%TF.FileFunction,Paste,Bot*%
%TF.FilePolarity,Positive*%
%FSLAX46Y46*%
G04 Gerber Fmt 4.6, Leading zero omitted, Abs format (unit mm)*
G04 Created by KiCad (PCBNEW 8.0.2) date 2024-05-15 22:22:56*
%MOMM*%
%LPD*%
G01*
G04 APERTURE LIST*
G04 Aperture macros list*
%AMRoundRect*
0 Rectangle with rounded corners*
0 $1 Rounding radius*
0 $2 $3 $4 $5 $6 $7 $8 $9 X,Y pos of 4 corners*
0 Add a 4 corners polygon primitive as box body*
4,1,4,$2,$3,$4,$5,$6,$7,$8,$9,$2,$3,0*
0 Add four circle primitives for the rounded corners*
1,1,$1+$1,$2,$3*
1,1,$1+$1,$4,$5*
1,1,$1+$1,$6,$7*
1,1,$1+$1,$8,$9*
0 Add four rect primitives between the rounded corners*
20,1,$1+$1,$2,$3,$4,$5,0*
20,1,$1+$1,$4,$5,$6,$7,0*
20,1,$1+$1,$6,$7,$8,$9,0*
20,1,$1+$1,$8,$9,$2,$3,0*%
G04 Aperture macros list end*
%ADD10RoundRect,0.250000X0.450000X-0.262500X0.450000X0.262500X-0.450000X0.262500X-0.450000X-0.262500X0*%
%ADD11R,0.600000X1.100000*%
%ADD12R,0.300000X1.100000*%
%ADD13O,0.900000X2.100000*%
%ADD14RoundRect,0.250000X0.300000X-0.300000X0.300000X0.300000X-0.300000X0.300000X-0.300000X-0.300000X0*%
%ADD15RoundRect,0.250000X0.262500X0.450000X-0.262500X0.450000X-0.262500X-0.450000X0.262500X-0.450000X0*%
%ADD16RoundRect,0.250000X-0.300000X0.300000X-0.300000X-0.300000X0.300000X-0.300000X0.300000X0.300000X0*%
%ADD17RoundRect,0.140000X0.021213X-0.219203X0.219203X-0.021213X-0.021213X0.219203X-0.219203X0.021213X0*%
%ADD18RoundRect,0.140000X0.170000X-0.140000X0.170000X0.140000X-0.170000X0.140000X-0.170000X-0.140000X0*%
%ADD19RoundRect,0.140000X-0.021213X0.219203X-0.219203X0.021213X0.021213X-0.219203X0.219203X-0.021213X0*%
%ADD20R,1.200000X0.900000*%
%ADD21RoundRect,0.140000X0.140000X0.170000X-0.140000X0.170000X-0.140000X-0.170000X0.140000X-0.170000X0*%
%ADD22R,1.400000X1.200000*%
%ADD23RoundRect,0.140000X-0.140000X-0.170000X0.140000X-0.170000X0.140000X0.170000X-0.140000X0.170000X0*%
%ADD24RoundRect,0.135000X0.135000X0.185000X-0.135000X0.185000X-0.135000X-0.185000X0.135000X-0.185000X0*%
%ADD25RoundRect,0.135000X-0.185000X0.135000X-0.185000X-0.135000X0.185000X-0.135000X0.185000X0.135000X0*%
%ADD26RoundRect,0.140000X0.140000X0.180000X-0.140000X0.180000X-0.140000X-0.180000X0.140000X-0.180000X0*%
%ADD27RoundRect,0.087500X0.175000X0.087500X-0.175000X0.087500X-0.175000X-0.087500X0.175000X-0.087500X0*%
%ADD28RoundRect,0.135000X-0.135000X-0.185000X0.135000X-0.185000X0.135000X0.185000X-0.135000X0.185000X0*%
%ADD29RoundRect,0.147500X0.172500X-0.147500X0.172500X0.147500X-0.172500X0.147500X-0.172500X-0.147500X0*%
%ADD30RoundRect,0.150000X-0.512500X-0.150000X0.512500X-0.150000X0.512500X0.150000X-0.512500X0.150000X0*%
%ADD31RoundRect,0.135000X-0.226274X-0.035355X-0.035355X-0.226274X0.226274X0.035355X0.035355X0.226274X0*%
%ADD32RoundRect,0.200000X0.800000X-0.200000X0.800000X0.200000X-0.800000X0.200000X-0.800000X-0.200000X0*%
%ADD33RoundRect,0.250000X0.292217X0.292217X-0.292217X0.292217X-0.292217X-0.292217X0.292217X-0.292217X0*%
%ADD34RoundRect,0.050000X0.387500X0.050000X-0.387500X0.050000X-0.387500X-0.050000X0.387500X-0.050000X0*%
%ADD35RoundRect,0.050000X0.050000X0.387500X-0.050000X0.387500X-0.050000X-0.387500X0.050000X-0.387500X0*%
%ADD36RoundRect,0.243750X-0.243750X-0.456250X0.243750X-0.456250X0.243750X0.456250X-0.243750X0.456250X0*%
%ADD37RoundRect,0.250000X0.250000X0.475000X-0.250000X0.475000X-0.250000X-0.475000X0.250000X-0.475000X0*%
%ADD38RoundRect,0.140000X-0.219203X-0.021213X-0.021213X-0.219203X0.219203X0.021213X0.021213X0.219203X0*%
%ADD39RoundRect,0.200000X-0.800000X0.200000X-0.800000X-0.200000X0.800000X-0.200000X0.800000X0.200000X0*%
G04 APERTURE END LIST*
D10*
%TO.C,R5*%
X364285000Y-37892500D03*
X364285000Y-36067500D03*
%TD*%
%TO.C,R6*%
X367205000Y-37882500D03*
X367205000Y-36057500D03*
%TD*%
D11*
%TO.C,USB1*%
X362125000Y-33950000D03*
X362975000Y-33950000D03*
D12*
X364175000Y-33950000D03*
X365175000Y-33950000D03*
X365675000Y-33950000D03*
X366675000Y-33950000D03*
D11*
X367875000Y-33950000D03*
X368725000Y-33950000D03*
X368725000Y-33950000D03*
X367875000Y-33950000D03*
D12*
X367175000Y-33950000D03*
X366175000Y-33950000D03*
X364675000Y-33950000D03*
X363675000Y-33950000D03*
D11*
X362975000Y-33950000D03*
X362125000Y-33950000D03*
D13*
X359850000Y-28070000D03*
X371000000Y-28070000D03*
X371000000Y-32670000D03*
%TD*%
D14*
%TO.C,D33*%
X147875000Y-85325000D03*
X147875000Y-82525000D03*
%TD*%
%TO.C,D54*%
X243225000Y-104325000D03*
X243225000Y-101525000D03*
%TD*%
%TO.C,D17*%
X147875000Y-66325000D03*
X147875000Y-63525000D03*
%TD*%
D15*
%TO.C,R8*%
X361212500Y-38825000D03*
X359387500Y-38825000D03*
%TD*%
D14*
%TO.C,D63*%
X438525000Y-105625000D03*
X438525000Y-102825000D03*
%TD*%
D16*
%TO.C,D70*%
X243050000Y-107925000D03*
X243050000Y-110725000D03*
%TD*%
D17*
%TO.C,C11*%
X365260589Y-53669411D03*
X365939411Y-52990589D03*
%TD*%
D14*
%TO.C,D1*%
X147875000Y-47275000D03*
X147875000Y-44475000D03*
%TD*%
%TO.C,D14*%
X419475000Y-48525000D03*
X419475000Y-45725000D03*
%TD*%
D16*
%TO.C,D73*%
X300275000Y-107950000D03*
X300275000Y-110750000D03*
%TD*%
D14*
%TO.C,D15*%
X438525000Y-48525000D03*
X438525000Y-45725000D03*
%TD*%
D18*
%TO.C,C19*%
X363170000Y-70970000D03*
X363170000Y-70010000D03*
%TD*%
D14*
%TO.C,D28*%
X381375000Y-66375000D03*
X381375000Y-63575000D03*
%TD*%
%TO.C,D41*%
X300275000Y-85375000D03*
X300275000Y-82575000D03*
%TD*%
D19*
%TO.C,C6*%
X363764411Y-65960589D03*
X363085589Y-66639411D03*
%TD*%
D20*
%TO.C,D100*%
X370775000Y-39807500D03*
X370775000Y-36507500D03*
%TD*%
D14*
%TO.C,D52*%
X205125000Y-104375000D03*
X205125000Y-101575000D03*
%TD*%
%TO.C,D24*%
X281275000Y-66275000D03*
X281275000Y-63475000D03*
%TD*%
D21*
%TO.C,C16*%
X360780000Y-57450000D03*
X359820000Y-57450000D03*
%TD*%
D14*
%TO.C,D47*%
X438525000Y-86600000D03*
X438525000Y-83800000D03*
%TD*%
%TO.C,D42*%
X319375000Y-85375000D03*
X319375000Y-82575000D03*
%TD*%
D16*
%TO.C,D68*%
X204950000Y-107925000D03*
X204950000Y-110725000D03*
%TD*%
D14*
%TO.C,D35*%
X185975000Y-85375000D03*
X185975000Y-82575000D03*
%TD*%
%TO.C,D6*%
X243175000Y-47275000D03*
X243175000Y-44475000D03*
%TD*%
%TO.C,D10*%
X319375000Y-47275000D03*
X319375000Y-44475000D03*
%TD*%
%TO.C,D9*%
X300275000Y-47275000D03*
X300275000Y-44475000D03*
%TD*%
D16*
%TO.C,D74*%
X319325000Y-107950000D03*
X319325000Y-110750000D03*
%TD*%
D14*
%TO.C,D58*%
X319375000Y-104375000D03*
X319375000Y-101575000D03*
%TD*%
%TO.C,D21*%
X224075000Y-66275000D03*
X224075000Y-63475000D03*
%TD*%
%TO.C,D29*%
X400425000Y-67550000D03*
X400425000Y-64750000D03*
%TD*%
D22*
%TO.C,Y1*%
X366900000Y-70200000D03*
X364700000Y-70200000D03*
X364700000Y-68500000D03*
X366900000Y-68500000D03*
%TD*%
D14*
%TO.C,D76*%
X360575000Y-99875000D03*
X360575000Y-97075000D03*
%TD*%
%TO.C,D5*%
X224075000Y-47275000D03*
X224075000Y-44475000D03*
%TD*%
%TO.C,D38*%
X243175000Y-85375000D03*
X243175000Y-82575000D03*
%TD*%
%TO.C,D61*%
X400425000Y-105650000D03*
X400425000Y-102850000D03*
%TD*%
%TO.C,D11*%
X338375000Y-47275000D03*
X338375000Y-44475000D03*
%TD*%
D16*
%TO.C,D64*%
X128750000Y-107925000D03*
X128750000Y-110725000D03*
%TD*%
D23*
%TO.C,C15*%
X369970000Y-57175000D03*
X370930000Y-57175000D03*
%TD*%
D14*
%TO.C,D60*%
X381375000Y-105650000D03*
X381375000Y-102850000D03*
%TD*%
D21*
%TO.C,CBP1*%
X370390000Y-42476250D03*
X369430000Y-42476250D03*
%TD*%
D18*
%TO.C,C102*%
X361525000Y-55730000D03*
X361525000Y-54770000D03*
%TD*%
D24*
%TO.C,R7*%
X368494999Y-42476250D03*
X367474999Y-42476250D03*
%TD*%
D19*
%TO.C,C8*%
X365014411Y-66135589D03*
X364335589Y-66814411D03*
%TD*%
D25*
%TO.C,R11*%
X363160000Y-68070000D03*
X363160000Y-69090000D03*
%TD*%
D26*
%TO.C,FLASH1*%
X370250000Y-53720000D03*
X370250000Y-52920000D03*
X369550000Y-53720000D03*
X369550000Y-52920000D03*
D27*
X371187500Y-52570000D03*
X371187500Y-53070000D03*
X371187500Y-53570000D03*
X371187500Y-54070000D03*
X368612500Y-54070000D03*
X368612500Y-53570000D03*
X368612500Y-53070000D03*
X368612500Y-52570000D03*
%TD*%
D25*
%TO.C,R3*%
X364180000Y-52030000D03*
X364180000Y-53050000D03*
%TD*%
D14*
%TO.C,D8*%
X281275000Y-47275000D03*
X281275000Y-44475000D03*
%TD*%
D16*
%TO.C,D72*%
X281150000Y-107925000D03*
X281150000Y-110725000D03*
%TD*%
D28*
%TO.C,FB1*%
X364050000Y-43501250D03*
X365070000Y-43501250D03*
%TD*%
D16*
%TO.C,D69*%
X224050000Y-107925000D03*
X224050000Y-110725000D03*
%TD*%
D29*
%TO.C,DLED1*%
X365225000Y-50345000D03*
X365225000Y-49375000D03*
%TD*%
D30*
%TO.C,U1*%
X367297500Y-45651250D03*
X367297500Y-44701250D03*
X367297500Y-43751250D03*
X369572500Y-43751250D03*
X369572500Y-45651250D03*
%TD*%
D14*
%TO.C,D0*%
X128875000Y-47225000D03*
X128875000Y-44425000D03*
%TD*%
%TO.C,D22*%
X243175000Y-66325000D03*
X243175000Y-63525000D03*
%TD*%
%TO.C,D50*%
X167025000Y-104375000D03*
X167025000Y-101575000D03*
%TD*%
%TO.C,D27*%
X338375000Y-66325000D03*
X338375000Y-63525000D03*
%TD*%
%TO.C,D48*%
X128925000Y-104325000D03*
X128925000Y-101525000D03*
%TD*%
%TO.C,D46*%
X419475000Y-86600000D03*
X419475000Y-83800000D03*
%TD*%
%TO.C,D18*%
X166975000Y-66275000D03*
X166975000Y-63475000D03*
%TD*%
D19*
%TO.C,C13*%
X359128822Y-61883678D03*
X358450000Y-62562500D03*
%TD*%
D31*
%TO.C,R1*%
X372189376Y-51589376D03*
X372910624Y-52310624D03*
%TD*%
D14*
%TO.C,D53*%
X224125000Y-104375000D03*
X224125000Y-101575000D03*
%TD*%
D32*
%TO.C,J2*%
X373450000Y-49512500D03*
X373450000Y-45312500D03*
%TD*%
D16*
%TO.C,D71*%
X262150000Y-107925000D03*
X262150000Y-110725000D03*
%TD*%
D14*
%TO.C,D31*%
X438525000Y-67550000D03*
X438525000Y-64750000D03*
%TD*%
%TO.C,D51*%
X186025000Y-104375000D03*
X186025000Y-101575000D03*
%TD*%
D18*
%TO.C,C5*%
X367560000Y-52570000D03*
X367560000Y-51610000D03*
%TD*%
D14*
%TO.C,D59*%
X338375000Y-104375000D03*
X338375000Y-101575000D03*
%TD*%
%TO.C,D43*%
X338375000Y-85375000D03*
X338375000Y-82575000D03*
%TD*%
%TO.C,D26*%
X319375000Y-66275000D03*
X319375000Y-63475000D03*
%TD*%
%TO.C,D20*%
X205075000Y-66275000D03*
X205075000Y-63475000D03*
%TD*%
%TO.C,D7*%
X262175000Y-47275000D03*
X262175000Y-44475000D03*
%TD*%
%TO.C,D39*%
X262175000Y-85375000D03*
X262175000Y-82575000D03*
%TD*%
%TO.C,D62*%
X419475000Y-105650000D03*
X419475000Y-102850000D03*
%TD*%
D16*
%TO.C,D66*%
X166850000Y-107975000D03*
X166850000Y-110775000D03*
%TD*%
D14*
%TO.C,D37*%
X224075000Y-85375000D03*
X224075000Y-82575000D03*
%TD*%
D18*
%TO.C,C3*%
X363475000Y-55630000D03*
X363475000Y-54670000D03*
%TD*%
D25*
%TO.C,R9*%
X366165000Y-49350000D03*
X366165000Y-50370000D03*
%TD*%
D14*
%TO.C,D57*%
X300275000Y-104375000D03*
X300275000Y-101575000D03*
%TD*%
%TO.C,D30*%
X419475000Y-67550000D03*
X419475000Y-64750000D03*
%TD*%
%TO.C,D44*%
X381375000Y-86600000D03*
X381375000Y-83800000D03*
%TD*%
D28*
%TO.C,R2*%
X369390000Y-51070000D03*
X370410000Y-51070000D03*
%TD*%
D14*
%TO.C,D45*%
X400425000Y-86600000D03*
X400425000Y-83800000D03*
%TD*%
D21*
%TO.C,C18*%
X360530000Y-56450000D03*
X359570000Y-56450000D03*
%TD*%
D14*
%TO.C,D56*%
X281275000Y-104325000D03*
X281275000Y-101525000D03*
%TD*%
%TO.C,D36*%
X205075000Y-85375000D03*
X205075000Y-82575000D03*
%TD*%
%TO.C,D19*%
X185975000Y-66275000D03*
X185975000Y-63475000D03*
%TD*%
D33*
%TO.C,U3*%
X366037500Y-61037500D03*
X366037500Y-59762500D03*
X364762500Y-61037500D03*
X364762500Y-59762500D03*
D34*
X368837500Y-57800000D03*
X368837500Y-58200000D03*
X368837500Y-58600000D03*
X368837500Y-59000000D03*
X368837500Y-59400000D03*
X368837500Y-59800000D03*
X368837500Y-60200000D03*
X368837500Y-60600000D03*
X368837500Y-61000000D03*
X368837500Y-61400000D03*
X368837500Y-61800000D03*
X368837500Y-62200000D03*
X368837500Y-62600000D03*
X368837500Y-63000000D03*
D35*
X368000000Y-63837500D03*
X367600000Y-63837500D03*
X367200000Y-63837500D03*
X366800000Y-63837500D03*
X366400000Y-63837500D03*
X366000000Y-63837500D03*
X365600000Y-63837500D03*
X365200000Y-63837500D03*
X364800000Y-63837500D03*
X364400000Y-63837500D03*
X364000000Y-63837500D03*
X363600000Y-63837500D03*
X363200000Y-63837500D03*
X362800000Y-63837500D03*
D34*
X361962500Y-63000000D03*
X361962500Y-62600000D03*
X361962500Y-62200000D03*
X361962500Y-61800000D03*
X361962500Y-61400000D03*
X361962500Y-61000000D03*
X361962500Y-60600000D03*
X361962500Y-60200000D03*
X361962500Y-59800000D03*
X361962500Y-59400000D03*
X361962500Y-59000000D03*
X361962500Y-58600000D03*
X361962500Y-58200000D03*
X361962500Y-57800000D03*
D35*
X362800000Y-56962500D03*
X363200000Y-56962500D03*
X363600000Y-56962500D03*
X364000000Y-56962500D03*
X364400000Y-56962500D03*
X364800000Y-56962500D03*
X365200000Y-56962500D03*
X365600000Y-56962500D03*
X366000000Y-56962500D03*
X366400000Y-56962500D03*
X366800000Y-56962500D03*
X367200000Y-56962500D03*
X367600000Y-56962500D03*
X368000000Y-56962500D03*
%TD*%
D14*
%TO.C,D13*%
X400425000Y-48525000D03*
X400425000Y-45725000D03*
%TD*%
D16*
%TO.C,D75*%
X338400000Y-107950000D03*
X338400000Y-110750000D03*
%TD*%
D36*
%TO.C,F1*%
X364372500Y-42001250D03*
X366247500Y-42001250D03*
%TD*%
D14*
%TO.C,D4*%
X205075000Y-47200000D03*
X205075000Y-44400000D03*
%TD*%
%TO.C,D23*%
X262175000Y-66325000D03*
X262175000Y-63525000D03*
%TD*%
%TO.C,D55*%
X262225000Y-104325000D03*
X262225000Y-101525000D03*
%TD*%
%TO.C,D25*%
X300275000Y-66275000D03*
X300275000Y-63475000D03*
%TD*%
D18*
%TO.C,C2*%
X368430000Y-70610000D03*
X368430000Y-69650000D03*
%TD*%
D37*
%TO.C,C9*%
X361250000Y-36825000D03*
X359350000Y-36825000D03*
%TD*%
D16*
%TO.C,D65*%
X147850000Y-107925000D03*
X147850000Y-110725000D03*
%TD*%
D18*
%TO.C,C4*%
X371035000Y-45656250D03*
X371035000Y-44696250D03*
%TD*%
D16*
%TO.C,D67*%
X185950000Y-107925000D03*
X185950000Y-110725000D03*
%TD*%
D21*
%TO.C,C1*%
X365715000Y-45651250D03*
X364755000Y-45651250D03*
%TD*%
D25*
%TO.C,R4*%
X363190000Y-52030000D03*
X363190000Y-53050000D03*
%TD*%
D14*
%TO.C,D40*%
X281275000Y-85375000D03*
X281275000Y-82575000D03*
%TD*%
D38*
%TO.C,C14*%
X371550000Y-61912500D03*
X372228822Y-62591322D03*
%TD*%
D17*
%TO.C,C7*%
X366160589Y-54219411D03*
X366839411Y-53540589D03*
%TD*%
D39*
%TO.C,RSW1*%
X357400000Y-45312500D03*
X357400000Y-49512500D03*
%TD*%
D14*
%TO.C,D49*%
X147925000Y-104375000D03*
X147925000Y-101575000D03*
%TD*%
%TO.C,D3*%
X185975000Y-47275000D03*
X185975000Y-44475000D03*
%TD*%
%TO.C,D16*%
X128875000Y-66325000D03*
X128875000Y-63525000D03*
%TD*%
D18*
%TO.C,C10*%
X362500000Y-55730000D03*
X362500000Y-54770000D03*
%TD*%
D14*
%TO.C,D32*%
X128875000Y-85375000D03*
X128875000Y-82575000D03*
%TD*%
%TO.C,D34*%
X166975000Y-85375000D03*
X166975000Y-82575000D03*
%TD*%
%TO.C,D12*%
X381375000Y-48525000D03*
X381375000Y-45725000D03*
%TD*%
%TO.C,D2*%
X166975000Y-47275000D03*
X166975000Y-44475000D03*
%TD*%
M02*
