G04 #@! TF.GenerationSoftware,KiCad,Pcbnew,8.0.2*
G04 #@! TF.CreationDate,2024-06-03T21:57:39+01:00*
G04 #@! TF.ProjectId,Ashwing66_topplate,41736877-696e-4673-9636-5f746f70706c,1*
G04 #@! TF.SameCoordinates,Original*
G04 #@! TF.FileFunction,Profile,NP*
%FSLAX46Y46*%
G04 Gerber Fmt 4.6, Leading zero omitted, Abs format (unit mm)*
G04 Created by KiCad (PCBNEW 8.0.2) date 2024-06-03 21:57:39*
%MOMM*%
%LPD*%
G01*
G04 APERTURE LIST*
G04 #@! TA.AperFunction,Profile*
%ADD10C,0.100000*%
G04 #@! TD*
G04 #@! TA.AperFunction,Profile*
%ADD11C,0.150000*%
G04 #@! TD*
G04 APERTURE END LIST*
D10*
X200363552Y-169540917D02*
G75*
G02*
X196363583Y-165540917I48J4000017D01*
G01*
X64030647Y-127131240D02*
G75*
G02*
X57808944Y-130723316I-4906847J1314740D01*
G01*
X57559482Y-170901821D02*
G75*
G02*
X53967319Y-164680107I1314918J4907021D01*
G01*
X382975375Y-156172190D02*
X374497129Y-158446109D01*
X228503552Y-165530917D02*
G75*
G02*
X224503552Y-169530852I-3999952J17D01*
G01*
X41897037Y-156184490D02*
G75*
G02*
X38304944Y-149962783I1314963J4906990D01*
G01*
X164040147Y-215952232D02*
G75*
G02*
X191912523Y-237866079I-21253447J-55714868D01*
G01*
X71847809Y-192820366D02*
G75*
G02*
X164040147Y-215952232I-59770929J-433500554D01*
G01*
X345800473Y-87077667D02*
G75*
G02*
X351126693Y-90853775I385927J-5100033D01*
G01*
X196023552Y-115120917D02*
G75*
G02*
X196363482Y-115590921I-194752J-498783D01*
G01*
X367312928Y-170889519D02*
X358725850Y-173190425D01*
X370905029Y-164667821D02*
G75*
G02*
X374497112Y-158446047I4906971J1314821D01*
G01*
X196363552Y-165540917D02*
X196363552Y-115590917D01*
X79066631Y-87087667D02*
G75*
G02*
X196023553Y-115120916I-36110781J-408650393D01*
G01*
X355133738Y-179412122D02*
G75*
G02*
X358725830Y-173190351I4906962J1314822D01*
G01*
X50375279Y-158458413D02*
G75*
G02*
X53967325Y-164680109I-1314679J-4906787D01*
G01*
X357040207Y-186527135D02*
G75*
G02*
X353024614Y-192808145I-4876207J-1306665D01*
G01*
X66146560Y-173202726D02*
X57559482Y-170901821D01*
X386567470Y-149950479D02*
G75*
G02*
X382975382Y-156172215I-4906570J-1315021D01*
G01*
X260832262Y-215939933D02*
G75*
G02*
X353024600Y-192808061I151962938J-410367267D01*
G01*
X355133738Y-179412122D02*
X357040207Y-186527135D01*
X228503552Y-165530917D02*
X228503552Y-115580917D01*
X67832207Y-186539437D02*
X69738671Y-179424426D01*
X38304942Y-149962782D02*
X43107903Y-132045597D01*
X71847809Y-192820366D02*
G75*
G02*
X67832220Y-186539440I860991J4974566D01*
G01*
X64030647Y-127131240D02*
X73745667Y-90866063D01*
X66146560Y-173202726D02*
G75*
G02*
X69738707Y-179424436I-1314860J-4906974D01*
G01*
X370905029Y-164667821D02*
G75*
G02*
X367312914Y-170889466I-4907029J-1314679D01*
G01*
X351126744Y-90853761D02*
X360841765Y-127118938D01*
X375542807Y-128441193D02*
X367063474Y-130711034D01*
X50375279Y-158458413D02*
X41897037Y-156184490D01*
X57808939Y-130723334D02*
X49329603Y-128453498D01*
X232953116Y-237856083D02*
G75*
G02*
X260832259Y-215939924I49141084J-33821117D01*
G01*
X73745667Y-90866063D02*
G75*
G02*
X79071936Y-87089961I4940193J-1323787D01*
G01*
X224503552Y-169530917D02*
X200363552Y-169540917D01*
X367063474Y-130711034D02*
G75*
G02*
X360841750Y-127118942I-1314974J4906634D01*
G01*
X375542807Y-128441193D02*
G75*
G02*
X381764537Y-132033291I1314993J-4906607D01*
G01*
X228503552Y-115580917D02*
G75*
G02*
X228843527Y-115110854I534748J-28783D01*
G01*
X43107903Y-132045597D02*
G75*
G02*
X49329603Y-128453499I4906877J-1314763D01*
G01*
X381764511Y-132033298D02*
X386567470Y-149950479D01*
X232953116Y-237856083D02*
G75*
G02*
X191912525Y-237866077I-20523976J15107843D01*
G01*
X228843552Y-115110917D02*
G75*
G02*
X345800474Y-87077680I153067648J-380617083D01*
G01*
D11*
X249045528Y-181574312D02*
X235522566Y-185197779D01*
X231899099Y-171674817D01*
X245422061Y-168051351D01*
X249045528Y-181574312D01*
X98057019Y-157691946D02*
X94433552Y-171214907D01*
X80910591Y-167591441D01*
X84534057Y-154068479D01*
X98057019Y-157691946D01*
X343911195Y-167591837D02*
X330388233Y-171215304D01*
X326764766Y-157692342D01*
X340287728Y-154068876D01*
X343911195Y-167591837D01*
X260055043Y-149026090D02*
X246532081Y-152649557D01*
X242908614Y-139126595D01*
X256431576Y-135503129D01*
X260055043Y-149026090D01*
X334050184Y-130790068D02*
X320527222Y-134413535D01*
X316903755Y-120890573D01*
X330426717Y-117267107D01*
X334050184Y-130790068D01*
X329651927Y-187979082D02*
X316128965Y-191602549D01*
X312505498Y-178079587D01*
X326028460Y-174456121D01*
X329651927Y-187979082D01*
X102987523Y-139291052D02*
X99364056Y-152814013D01*
X85841095Y-149190547D01*
X89464561Y-135667585D01*
X102987523Y-139291052D01*
X89128579Y-117409809D02*
X85505112Y-130932770D01*
X71982151Y-127309304D01*
X75605617Y-113786342D01*
X89128579Y-117409809D01*
X122196133Y-141256170D02*
X118572666Y-154779131D01*
X105049705Y-151155665D01*
X108673171Y-137632703D01*
X122196133Y-141256170D01*
X94068501Y-98998294D02*
X90445034Y-112521255D01*
X76922073Y-108897789D01*
X80545539Y-95374827D01*
X94068501Y-98998294D01*
X347909139Y-108908819D02*
X334386177Y-112532286D01*
X330762710Y-99009324D01*
X344285672Y-95385858D01*
X347909139Y-108908819D01*
X131111618Y-181537614D02*
X127488151Y-195060575D01*
X113965190Y-191437109D01*
X117588656Y-177914147D01*
X131111618Y-181537614D01*
X158988488Y-151127799D02*
X155365021Y-164650760D01*
X141842060Y-161027294D01*
X145465526Y-147504332D01*
X158988488Y-151127799D01*
X255124542Y-130625212D02*
X241601580Y-134248679D01*
X237978113Y-120725717D01*
X251501075Y-117102251D01*
X255124542Y-130625212D01*
X329116840Y-112403093D02*
X315593878Y-116026560D01*
X311970411Y-102503598D01*
X325493373Y-98880132D01*
X329116840Y-112403093D01*
X205443553Y-184853845D02*
X219443553Y-184853845D01*
X219443553Y-198853845D01*
X205443553Y-198853845D01*
X205443553Y-184853845D01*
X352839642Y-127309703D02*
X339316680Y-130933170D01*
X335693213Y-117410208D01*
X349216175Y-113786742D01*
X352839642Y-127309703D01*
X154067399Y-169518052D02*
X150443932Y-183041013D01*
X136920971Y-179417547D01*
X140544437Y-165894585D01*
X154067399Y-169518052D01*
X205395164Y-220693921D02*
X195495669Y-230593416D01*
X185596174Y-220693921D01*
X195495669Y-210794426D01*
X205395164Y-220693921D01*
X292850154Y-197840094D02*
X279327192Y-201463561D01*
X275703725Y-187940599D01*
X289226687Y-184317133D01*
X292850154Y-197840094D01*
X378634570Y-149988238D02*
X365111608Y-153611705D01*
X361488141Y-140088743D01*
X375011103Y-136465277D01*
X378634570Y-149988238D01*
X177004355Y-157519745D02*
X173380888Y-171042706D01*
X159857927Y-167419240D01*
X163481393Y-153896278D01*
X177004355Y-157519745D01*
X278058643Y-142637434D02*
X264535681Y-146260901D01*
X260912214Y-132737939D01*
X274435176Y-129114473D01*
X278058643Y-142637434D01*
X287922502Y-179425295D02*
X274399540Y-183048762D01*
X270776073Y-169525800D01*
X284299035Y-165902334D01*
X287922502Y-179425295D01*
X264985544Y-167426982D02*
X251462582Y-171050449D01*
X247839115Y-157527487D01*
X261362077Y-153904021D01*
X264985544Y-167426982D01*
X163928409Y-132716286D02*
X160304942Y-146239247D01*
X146781981Y-142615781D01*
X150405447Y-129092819D01*
X163928409Y-132716286D01*
X192948507Y-171655227D02*
X189325040Y-185178188D01*
X175802079Y-181554722D01*
X179425545Y-168031760D01*
X192948507Y-171655227D01*
X181934858Y-139118860D02*
X178311391Y-152641821D01*
X164788430Y-149018355D01*
X168411896Y-135495393D01*
X181934858Y-139118860D01*
X305926097Y-173036629D02*
X292403135Y-176660096D01*
X288779668Y-163137134D01*
X302302630Y-159513668D01*
X305926097Y-173036629D01*
X310853757Y-191451429D02*
X297330795Y-195074896D01*
X293707328Y-181551934D01*
X307230290Y-177928468D01*
X310853757Y-191451429D01*
X187998866Y-204938757D02*
X180998866Y-217063113D01*
X168874511Y-210063113D01*
X175874511Y-197938757D01*
X187998866Y-204938757D01*
X269913209Y-185841783D02*
X256390247Y-189465250D01*
X252766780Y-175942288D01*
X266289742Y-172318822D01*
X269913209Y-185841783D01*
X167143350Y-194321518D02*
X163519883Y-207844479D01*
X149996922Y-204221013D01*
X153620388Y-190698051D01*
X167143350Y-194321518D01*
X296065099Y-136234861D02*
X282542137Y-139858328D01*
X278918670Y-126335366D01*
X292441632Y-122711900D01*
X296065099Y-136234861D01*
X127117220Y-122865901D02*
X123493753Y-136388862D01*
X109970792Y-132765396D01*
X113594258Y-119242434D01*
X127117220Y-122865901D01*
X168858913Y-114315402D02*
X165235446Y-127838363D01*
X151712485Y-124214897D01*
X155335951Y-110691935D01*
X168858913Y-114315402D01*
X93126518Y-176092826D02*
X89503051Y-189615787D01*
X75980090Y-185992321D01*
X79603556Y-172469359D01*
X93126518Y-176092826D01*
X362700648Y-164111484D02*
X349177686Y-167734951D01*
X345554219Y-154211989D01*
X359077181Y-150588523D01*
X362700648Y-164111484D01*
X338977842Y-149204861D02*
X325454880Y-152828328D01*
X321831413Y-139305366D01*
X335354375Y-135681900D01*
X338977842Y-149204861D01*
X136042117Y-163136734D02*
X132418650Y-176659695D01*
X118895689Y-173036229D01*
X122519155Y-159513267D01*
X136042117Y-163136734D01*
X132047714Y-104465020D02*
X128424247Y-117987981D01*
X114901286Y-114364515D01*
X118524752Y-100841553D01*
X132047714Y-104465020D01*
X357770142Y-145710595D02*
X344247180Y-149334062D01*
X340623713Y-135811100D01*
X354146675Y-132187634D01*
X357770142Y-145710595D01*
X149127484Y-187929571D02*
X145504017Y-201452532D01*
X131981056Y-197829066D01*
X135604522Y-184306104D01*
X149127484Y-187929571D01*
X273130991Y-124222632D02*
X259608029Y-127846099D01*
X255984562Y-114323137D01*
X269507524Y-110699671D01*
X273130991Y-124222632D01*
X348841703Y-185992726D02*
X335318741Y-189616193D01*
X331695274Y-176093231D01*
X345218236Y-172469765D01*
X348841703Y-185992726D01*
X145912549Y-126324338D02*
X142289082Y-139847299D01*
X128766121Y-136223833D01*
X132389587Y-122700871D01*
X145912549Y-126324338D01*
X309932768Y-114361631D02*
X296409806Y-117985098D01*
X292786339Y-104462136D01*
X306309301Y-100838670D01*
X309932768Y-114361631D01*
X112325708Y-178068567D02*
X108702241Y-191591528D01*
X95179280Y-187968062D01*
X98802746Y-174445100D01*
X112325708Y-178068567D01*
X319790924Y-151177313D02*
X306267962Y-154800780D01*
X302644495Y-141277818D01*
X316167457Y-137654352D01*
X319790924Y-151177313D01*
X140972627Y-144735848D02*
X137349160Y-158258809D01*
X123826199Y-154635343D01*
X127449665Y-141112381D01*
X140972627Y-144735848D01*
X63327875Y-140095802D02*
X59704408Y-153618763D01*
X46181447Y-149995297D01*
X49804913Y-136472335D01*
X63327875Y-140095802D01*
X84198080Y-135810697D02*
X80574613Y-149333658D01*
X67051652Y-145710192D01*
X70675118Y-132187230D01*
X84198080Y-135810697D01*
X79276995Y-154200955D02*
X75653528Y-167723916D01*
X62130567Y-164100450D01*
X65754033Y-150577488D01*
X79276995Y-154200955D01*
X274846555Y-204228754D02*
X261323593Y-207852221D01*
X257700126Y-194329259D01*
X271223088Y-190705793D01*
X274846555Y-204228754D01*
X117256204Y-159667679D02*
X113632737Y-173190640D01*
X100109776Y-169567174D01*
X103733242Y-156044212D01*
X117256204Y-159667679D01*
X172073859Y-175920630D02*
X168450392Y-189443591D01*
X154927431Y-185820125D01*
X158550897Y-172297163D01*
X172073859Y-175920630D01*
X324724271Y-169564294D02*
X311201309Y-173187761D01*
X307577842Y-159664799D01*
X321100804Y-156041333D01*
X324724271Y-169564294D01*
X282989155Y-161038322D02*
X269466193Y-164661789D01*
X265842726Y-151138827D01*
X279365688Y-147515361D01*
X282989155Y-161038322D01*
X314863273Y-132762524D02*
X301340311Y-136385991D01*
X297716844Y-122863029D01*
X311239806Y-119239563D01*
X314863273Y-132762524D01*
X107918030Y-120890168D02*
X104294563Y-134413129D01*
X90771602Y-130789663D01*
X94395068Y-117266701D01*
X107918030Y-120890168D01*
X186865362Y-120717970D02*
X183241895Y-134240931D01*
X169718934Y-130617465D01*
X173342400Y-117094503D01*
X186865362Y-120717970D01*
X112857951Y-102478661D02*
X109234484Y-116001622D01*
X95711523Y-112378156D01*
X99334989Y-98855194D01*
X112857951Y-102478661D01*
X291134589Y-117833972D02*
X277611627Y-121457439D01*
X273988160Y-107934477D01*
X287511122Y-104311011D01*
X291134589Y-117833972D01*
X239171324Y-220719200D02*
X229271829Y-230618695D01*
X219372334Y-220719200D01*
X229271829Y-210819705D01*
X239171324Y-220719200D01*
X300992750Y-154649658D02*
X287469788Y-158273125D01*
X283846321Y-144750163D01*
X297369283Y-141126697D01*
X300992750Y-154649658D01*
X255953447Y-210074660D02*
X243829092Y-217074660D01*
X236829092Y-204950304D01*
X248953447Y-197950304D01*
X255953447Y-210074660D01*
X150843052Y-107923448D02*
X147219585Y-121446409D01*
X133696624Y-117822943D01*
X137320090Y-104299981D01*
X150843052Y-107923448D01*
M02*
