G04 #@! TF.GenerationSoftware,KiCad,Pcbnew,8.0.2*
G04 #@! TF.CreationDate,2024-06-03T01:18:32+01:00*
G04 #@! TF.ProjectId,Ashwing66_topplate,41736877-696e-4673-9636-5f746f70706c,1*
G04 #@! TF.SameCoordinates,Original*
G04 #@! TF.FileFunction,Legend,Bot*
G04 #@! TF.FilePolarity,Positive*
%FSLAX46Y46*%
G04 Gerber Fmt 4.6, Leading zero omitted, Abs format (unit mm)*
G04 Created by KiCad (PCBNEW 8.0.2) date 2024-06-03 01:18:32*
%MOMM*%
%LPD*%
G01*
G04 APERTURE LIST*
%ADD10C,0.074930*%
%ADD11C,4.000000*%
G04 APERTURE END LIST*
D10*
X347598338Y-167439703D02*
X347427069Y-167439703D01*
X347512703Y-167739423D02*
X347512703Y-167439703D01*
X347327163Y-167739423D02*
X347327163Y-167439703D01*
X347327163Y-167582427D02*
X347155894Y-167582427D01*
X347155894Y-167739423D02*
X347155894Y-167439703D01*
X347041715Y-167439703D02*
X346856174Y-167439703D01*
X346856174Y-167439703D02*
X346956081Y-167553882D01*
X346956081Y-167553882D02*
X346913264Y-167553882D01*
X346913264Y-167553882D02*
X346884719Y-167568154D01*
X346884719Y-167568154D02*
X346870447Y-167582427D01*
X346870447Y-167582427D02*
X346856174Y-167610971D01*
X346856174Y-167610971D02*
X346856174Y-167682333D01*
X346856174Y-167682333D02*
X346870447Y-167710878D01*
X346870447Y-167710878D02*
X346884719Y-167725151D01*
X346884719Y-167725151D02*
X346913264Y-167739423D01*
X346913264Y-167739423D02*
X346998898Y-167739423D01*
X346998898Y-167739423D02*
X347027443Y-167725151D01*
X347027443Y-167725151D02*
X347041715Y-167710878D01*
X347712516Y-172819423D02*
X347712516Y-172519703D01*
X347712516Y-172662427D02*
X347541247Y-172662427D01*
X347541247Y-172819423D02*
X347541247Y-172519703D01*
X347341434Y-172519703D02*
X347284345Y-172519703D01*
X347284345Y-172519703D02*
X347255800Y-172533975D01*
X347255800Y-172533975D02*
X347227255Y-172562520D01*
X347227255Y-172562520D02*
X347212983Y-172619610D01*
X347212983Y-172619610D02*
X347212983Y-172719516D01*
X347212983Y-172719516D02*
X347227255Y-172776606D01*
X347227255Y-172776606D02*
X347255800Y-172805151D01*
X347255800Y-172805151D02*
X347284345Y-172819423D01*
X347284345Y-172819423D02*
X347341434Y-172819423D01*
X347341434Y-172819423D02*
X347369979Y-172805151D01*
X347369979Y-172805151D02*
X347398524Y-172776606D01*
X347398524Y-172776606D02*
X347412796Y-172719516D01*
X347412796Y-172719516D02*
X347412796Y-172619610D01*
X347412796Y-172619610D02*
X347398524Y-172562520D01*
X347398524Y-172562520D02*
X347369979Y-172533975D01*
X347369979Y-172533975D02*
X347341434Y-172519703D01*
X346941808Y-172819423D02*
X347084532Y-172819423D01*
X347084532Y-172819423D02*
X347084532Y-172519703D01*
X346841902Y-172662427D02*
X346741995Y-172662427D01*
X346699178Y-172819423D02*
X346841902Y-172819423D01*
X346841902Y-172819423D02*
X346841902Y-172519703D01*
X346841902Y-172519703D02*
X346699178Y-172519703D01*
X258420353Y-129037129D02*
X258249084Y-129037129D01*
X258334718Y-129336849D02*
X258334718Y-129037129D01*
X258149178Y-129336849D02*
X258149178Y-129037129D01*
X258149178Y-129179853D02*
X257977909Y-129179853D01*
X257977909Y-129336849D02*
X257977909Y-129037129D01*
X257863730Y-129037129D02*
X257678189Y-129037129D01*
X257678189Y-129037129D02*
X257778096Y-129151308D01*
X257778096Y-129151308D02*
X257735279Y-129151308D01*
X257735279Y-129151308D02*
X257706734Y-129165580D01*
X257706734Y-129165580D02*
X257692462Y-129179853D01*
X257692462Y-129179853D02*
X257678189Y-129208397D01*
X257678189Y-129208397D02*
X257678189Y-129279759D01*
X257678189Y-129279759D02*
X257692462Y-129308304D01*
X257692462Y-129308304D02*
X257706734Y-129322577D01*
X257706734Y-129322577D02*
X257735279Y-129336849D01*
X257735279Y-129336849D02*
X257820913Y-129336849D01*
X257820913Y-129336849D02*
X257849458Y-129322577D01*
X257849458Y-129322577D02*
X257863730Y-129308304D01*
X258534531Y-134416849D02*
X258534531Y-134117129D01*
X258534531Y-134259853D02*
X258363262Y-134259853D01*
X258363262Y-134416849D02*
X258363262Y-134117129D01*
X258163449Y-134117129D02*
X258106360Y-134117129D01*
X258106360Y-134117129D02*
X258077815Y-134131401D01*
X258077815Y-134131401D02*
X258049270Y-134159946D01*
X258049270Y-134159946D02*
X258034998Y-134217036D01*
X258034998Y-134217036D02*
X258034998Y-134316942D01*
X258034998Y-134316942D02*
X258049270Y-134374032D01*
X258049270Y-134374032D02*
X258077815Y-134402577D01*
X258077815Y-134402577D02*
X258106360Y-134416849D01*
X258106360Y-134416849D02*
X258163449Y-134416849D01*
X258163449Y-134416849D02*
X258191994Y-134402577D01*
X258191994Y-134402577D02*
X258220539Y-134374032D01*
X258220539Y-134374032D02*
X258234811Y-134316942D01*
X258234811Y-134316942D02*
X258234811Y-134217036D01*
X258234811Y-134217036D02*
X258220539Y-134159946D01*
X258220539Y-134159946D02*
X258191994Y-134131401D01*
X258191994Y-134131401D02*
X258163449Y-134117129D01*
X257763823Y-134416849D02*
X257906547Y-134416849D01*
X257906547Y-134416849D02*
X257906547Y-134117129D01*
X257663917Y-134259853D02*
X257564010Y-134259853D01*
X257521193Y-134416849D02*
X257663917Y-134416849D01*
X257663917Y-134416849D02*
X257663917Y-134117129D01*
X257663917Y-134117129D02*
X257521193Y-134117129D01*
X332793888Y-112188745D02*
X332622619Y-112188745D01*
X332708253Y-112488465D02*
X332708253Y-112188745D01*
X332522713Y-112488465D02*
X332522713Y-112188745D01*
X332522713Y-112331469D02*
X332351444Y-112331469D01*
X332351444Y-112488465D02*
X332351444Y-112188745D01*
X332237265Y-112188745D02*
X332051724Y-112188745D01*
X332051724Y-112188745D02*
X332151631Y-112302924D01*
X332151631Y-112302924D02*
X332108814Y-112302924D01*
X332108814Y-112302924D02*
X332080269Y-112317196D01*
X332080269Y-112317196D02*
X332065997Y-112331469D01*
X332065997Y-112331469D02*
X332051724Y-112360013D01*
X332051724Y-112360013D02*
X332051724Y-112431375D01*
X332051724Y-112431375D02*
X332065997Y-112459920D01*
X332065997Y-112459920D02*
X332080269Y-112474193D01*
X332080269Y-112474193D02*
X332108814Y-112488465D01*
X332108814Y-112488465D02*
X332194448Y-112488465D01*
X332194448Y-112488465D02*
X332222993Y-112474193D01*
X332222993Y-112474193D02*
X332237265Y-112459920D01*
X332908066Y-117568465D02*
X332908066Y-117268745D01*
X332908066Y-117411469D02*
X332736797Y-117411469D01*
X332736797Y-117568465D02*
X332736797Y-117268745D01*
X332536984Y-117268745D02*
X332479895Y-117268745D01*
X332479895Y-117268745D02*
X332451350Y-117283017D01*
X332451350Y-117283017D02*
X332422805Y-117311562D01*
X332422805Y-117311562D02*
X332408533Y-117368652D01*
X332408533Y-117368652D02*
X332408533Y-117468558D01*
X332408533Y-117468558D02*
X332422805Y-117525648D01*
X332422805Y-117525648D02*
X332451350Y-117554193D01*
X332451350Y-117554193D02*
X332479895Y-117568465D01*
X332479895Y-117568465D02*
X332536984Y-117568465D01*
X332536984Y-117568465D02*
X332565529Y-117554193D01*
X332565529Y-117554193D02*
X332594074Y-117525648D01*
X332594074Y-117525648D02*
X332608346Y-117468558D01*
X332608346Y-117468558D02*
X332608346Y-117368652D01*
X332608346Y-117368652D02*
X332594074Y-117311562D01*
X332594074Y-117311562D02*
X332565529Y-117283017D01*
X332565529Y-117283017D02*
X332536984Y-117268745D01*
X332137358Y-117568465D02*
X332280082Y-117568465D01*
X332280082Y-117568465D02*
X332280082Y-117268745D01*
X332037452Y-117411469D02*
X331937545Y-117411469D01*
X331894728Y-117568465D02*
X332037452Y-117568465D01*
X332037452Y-117568465D02*
X332037452Y-117268745D01*
X332037452Y-117268745D02*
X331894728Y-117268745D01*
X242834050Y-188807797D02*
X242662781Y-188807797D01*
X242748415Y-189107517D02*
X242748415Y-188807797D01*
X242562875Y-189107517D02*
X242562875Y-188807797D01*
X242562875Y-188950521D02*
X242391606Y-188950521D01*
X242391606Y-189107517D02*
X242391606Y-188807797D01*
X242277427Y-188807797D02*
X242091886Y-188807797D01*
X242091886Y-188807797D02*
X242191793Y-188921976D01*
X242191793Y-188921976D02*
X242148976Y-188921976D01*
X242148976Y-188921976D02*
X242120431Y-188936248D01*
X242120431Y-188936248D02*
X242106159Y-188950521D01*
X242106159Y-188950521D02*
X242091886Y-188979065D01*
X242091886Y-188979065D02*
X242091886Y-189050427D01*
X242091886Y-189050427D02*
X242106159Y-189078972D01*
X242106159Y-189078972D02*
X242120431Y-189093245D01*
X242120431Y-189093245D02*
X242148976Y-189107517D01*
X242148976Y-189107517D02*
X242234610Y-189107517D01*
X242234610Y-189107517D02*
X242263155Y-189093245D01*
X242263155Y-189093245D02*
X242277427Y-189078972D01*
X242948228Y-194187517D02*
X242948228Y-193887797D01*
X242948228Y-194030521D02*
X242776959Y-194030521D01*
X242776959Y-194187517D02*
X242776959Y-193887797D01*
X242577146Y-193887797D02*
X242520057Y-193887797D01*
X242520057Y-193887797D02*
X242491512Y-193902069D01*
X242491512Y-193902069D02*
X242462967Y-193930614D01*
X242462967Y-193930614D02*
X242448695Y-193987704D01*
X242448695Y-193987704D02*
X242448695Y-194087610D01*
X242448695Y-194087610D02*
X242462967Y-194144700D01*
X242462967Y-194144700D02*
X242491512Y-194173245D01*
X242491512Y-194173245D02*
X242520057Y-194187517D01*
X242520057Y-194187517D02*
X242577146Y-194187517D01*
X242577146Y-194187517D02*
X242605691Y-194173245D01*
X242605691Y-194173245D02*
X242634236Y-194144700D01*
X242634236Y-194144700D02*
X242648508Y-194087610D01*
X242648508Y-194087610D02*
X242648508Y-193987704D01*
X242648508Y-193987704D02*
X242634236Y-193930614D01*
X242634236Y-193930614D02*
X242605691Y-193902069D01*
X242605691Y-193902069D02*
X242577146Y-193887797D01*
X242177520Y-194187517D02*
X242320244Y-194187517D01*
X242320244Y-194187517D02*
X242320244Y-193887797D01*
X242077614Y-194030521D02*
X241977707Y-194030521D01*
X241934890Y-194187517D02*
X242077614Y-194187517D01*
X242077614Y-194187517D02*
X242077614Y-193887797D01*
X242077614Y-193887797D02*
X241934890Y-193887797D01*
X273224802Y-184288086D02*
X273053533Y-184288086D01*
X273139167Y-184587806D02*
X273139167Y-184288086D01*
X272953627Y-184587806D02*
X272953627Y-184288086D01*
X272953627Y-184430810D02*
X272782358Y-184430810D01*
X272782358Y-184587806D02*
X272782358Y-184288086D01*
X272668179Y-184288086D02*
X272482638Y-184288086D01*
X272482638Y-184288086D02*
X272582545Y-184402265D01*
X272582545Y-184402265D02*
X272539728Y-184402265D01*
X272539728Y-184402265D02*
X272511183Y-184416537D01*
X272511183Y-184416537D02*
X272496911Y-184430810D01*
X272496911Y-184430810D02*
X272482638Y-184459354D01*
X272482638Y-184459354D02*
X272482638Y-184530716D01*
X272482638Y-184530716D02*
X272496911Y-184559261D01*
X272496911Y-184559261D02*
X272511183Y-184573534D01*
X272511183Y-184573534D02*
X272539728Y-184587806D01*
X272539728Y-184587806D02*
X272625362Y-184587806D01*
X272625362Y-184587806D02*
X272653907Y-184573534D01*
X272653907Y-184573534D02*
X272668179Y-184559261D01*
X273338980Y-189667806D02*
X273338980Y-189368086D01*
X273338980Y-189510810D02*
X273167711Y-189510810D01*
X273167711Y-189667806D02*
X273167711Y-189368086D01*
X272967898Y-189368086D02*
X272910809Y-189368086D01*
X272910809Y-189368086D02*
X272882264Y-189382358D01*
X272882264Y-189382358D02*
X272853719Y-189410903D01*
X272853719Y-189410903D02*
X272839447Y-189467993D01*
X272839447Y-189467993D02*
X272839447Y-189567899D01*
X272839447Y-189567899D02*
X272853719Y-189624989D01*
X272853719Y-189624989D02*
X272882264Y-189653534D01*
X272882264Y-189653534D02*
X272910809Y-189667806D01*
X272910809Y-189667806D02*
X272967898Y-189667806D01*
X272967898Y-189667806D02*
X272996443Y-189653534D01*
X272996443Y-189653534D02*
X273024988Y-189624989D01*
X273024988Y-189624989D02*
X273039260Y-189567899D01*
X273039260Y-189567899D02*
X273039260Y-189467993D01*
X273039260Y-189467993D02*
X273024988Y-189410903D01*
X273024988Y-189410903D02*
X272996443Y-189382358D01*
X272996443Y-189382358D02*
X272967898Y-189368086D01*
X272568272Y-189667806D02*
X272710996Y-189667806D01*
X272710996Y-189667806D02*
X272710996Y-189368086D01*
X272468366Y-189510810D02*
X272368459Y-189510810D01*
X272325642Y-189667806D02*
X272468366Y-189667806D01*
X272468366Y-189667806D02*
X272468366Y-189368086D01*
X272468366Y-189368086D02*
X272325642Y-189368086D01*
%LPC*%
D11*
X182412813Y-191449989D03*
X152022060Y-186930278D03*
X166826509Y-131679322D03*
X92452975Y-114830939D03*
X77648526Y-170081896D03*
X347204984Y-170154664D03*
X258026999Y-131752090D03*
X332400534Y-114903706D03*
X242440696Y-191522758D03*
X272831448Y-187003047D03*
%LPD*%
M02*
