  0
SECTION
  2
HEADER
  9
$ANGBASE
  50
0.0
  9
$ANGDIR
  70
1
  9
$MEASUREMENT
  70
1
  0
ENDSEC
  0
SECTION
  2
TABLES
  0
TABLE
  2
LTYPE
  70
4
  0
LTYPE
  5
40F
  2
CONTINUOUS
  70
0
  3
Solid line
  72
65
  73
0
  40
0.0
  0
LTYPE
  5
410
  2
DASHDOT
 70
0
  3
Dash Dot ____ _ ____ _
 72
65
 73
4
 40
2.0
 49
1.25
 49
-0.25
 49
0.25
 49
-0.25
  0
LTYPE
  5
411
  2
DASHED
 70
0
  3
Dashed __ __ __ __ __
 72
65
 73
2
 40
0.75
 49
0.5
 49
-0.25
  0
LTYPE
  5
43B
  2
DOTTED
 70
0
  3
Dotted .  .  .  .
 72
65
 73
2
 40
0.2
 49
0.0
 49
-0.2
  0
ENDTAB
  0
TABLE
  2
STYLE
  70
4
  0
STYLE
  2
KICAD
  70
0
  40
0
  41
1
  42
1
  50
0
  71
0
  3
isocp.shx
  0
STYLE
  2
KICADB
  70
0
  40
0
  41
1
  42
1
  50
0
  71
0
  3
isocp.shx
  0
STYLE
  2
KICADI
  70
0
  40
0
  41
1
  42
1
  50
15
  71
0
  3
isocp.shx
  0
STYLE
  2
KICADBI
  70
0
  40
0
  41
1
  42
1
  50
15
  71
0
  3
isocp.shx
  0
ENDTAB
  0
TABLE
  2
LAYER
  70
1
  0
LAYER
  2
BLACK
  70
0
  62
7
  6
CONTINUOUS
  0
ENDTAB
  0
ENDSEC
  0
SECTION
  2
ENTITIES
  0
TEXT
  7
KICAD
  8
BLACK
  10
240.4262409999999761
  11
240.4262409999999761
  20
-175.4287429999999972
  21
-175.4287429999999972
  40
1.
  41
1.
  50
15.00000000
  51
0.00000000
  71
0
  72
1
  73
2
  1
K44
  0
TEXT
  7
KICAD
  8
BLACK
  10
240.9495739999999842
  11
240.9495739999999842
  20
-177.3818449999999984
  21
-177.3818449999999984
  40
1.
  41
1.
  50
15.00000000
  51
0.00000000
  71
0
  72
1
  73
2
  1
Blank
  0
TEXT
  7
KICAD
  8
BLACK
  10
90.0418159999999972
  11
90.0418159999999972
  20
-161.583044000000001
  21
-161.583044000000001
  40
1.
  41
1.
  50
-15.00000000
  51
0.00000000
  71
0
  72
1
  73
2
  1
K49
  0
TEXT
  7
KICAD
  8
BLACK
  10
89.5184849999999983
  11
89.5184849999999983
  20
-163.5361469999999997
  21
-163.5361469999999997
  40
1.
  41
1.
  50
-15.00000000
  51
0.00000000
  71
0
  72
1
  73
2
  1
Blank
  0
TEXT
  7
KICAD
  8
BLACK
  10
335.2919079999999781
  11
335.2919079999999781
  20
-161.4462680000000034
  21
-161.4462680000000034
  40
1.
  41
1.
  50
15.00000000
  51
0.00000000
  71
0
  72
1
  73
2
  1
K58
  0
TEXT
  7
KICAD
  8
BLACK
  10
335.8152409999999577
  11
335.8152409999999577
  20
-163.3993700000000047
  21
-163.3993700000000047
  40
1.
  41
1.
  50
15.00000000
  51
0.00000000
  71
0
  72
1
  73
2
  1
Blank
  0
TEXT
  7
KICAD
  8
BLACK
  10
251.4357559999999978
  11
251.4357559999999978
  20
-142.8805209999999875
  21
-142.8805209999999875
  40
1.
  41
1.
  50
15.00000000
  51
0.00000000
  71
0
  72
1
  73
2
  1
K22
  0
TEXT
  7
KICAD
  8
BLACK
  10
251.9590889999999774
  11
251.9590889999999774
  20
-144.8336229999999887
  21
-144.8336229999999887
  40
1.
  41
1.
  50
15.00000000
  51
0.00000000
  71
0
  72
1
  73
2
  1
Blank
  0
TEXT
  7
KICAD
  8
BLACK
  10
325.430896999999959
  11
325.430896999999959
  20
-124.6444989999999962
  21
-124.6444989999999962
  40
1.
  41
1.
  50
15.00000000
  51
0.00000000
  71
0
  72
1
  73
2
  1
K26
  0
TEXT
  7
KICAD
  8
BLACK
  10
325.9542299999999955
  11
325.9542299999999955
  20
-126.5976009999999974
  21
-126.5976009999999974
  40
1.
  41
1.
  50
15.00000000
  51
0.00000000
  71
0
  72
1
  73
2
  1
Blank
  0
TEXT
  7
KICAD
  8
BLACK
  10
321.032639999999958
  11
321.032639999999958
  20
-181.8335129999999822
  21
-181.8335129999999822
  40
1.
  41
1.
  50
15.00000000
  51
0.00000000
  71
0
  72
1
  73
2
  1
K74
  0
TEXT
  7
KICAD
  8
BLACK
  10
321.5559729999999945
  11
321.5559729999999945
  20
-183.7866149999999834
  21
-183.7866149999999834
  40
1.
  41
1.
  50
15.00000000
  51
0.00000000
  71
0
  72
1
  73
2
  1
Blank
  0
TEXT
  7
KICAD
  8
BLACK
  10
94.9723199999999963
  11
94.9723199999999963
  20
-143.1821500000000071
  21
-143.1821500000000071
  40
1.
  41
1.
  50
-15.00000000
  51
0.00000000
  71
0
  72
1
  73
2
  1
K33
  0
TEXT
  7
KICAD
  8
BLACK
  10
94.4489889999999974
  11
94.4489889999999974
  20
-145.1352530000000058
  21
-145.1352530000000058
  40
1.
  41
1.
  50
-15.00000000
  51
0.00000000
  71
0
  72
1
  73
2
  1
Blank
  0
TEXT
  7
KICAD
  8
BLACK
  10
81.1133760000000024
  11
81.1133760000000024
  20
-121.3009069999999952
  21
-121.3009069999999952
  40
1.
  41
1.
  50
-15.00000000
  51
0.00000000
  71
0
  72
1
  73
2
  1
K16
  0
TEXT
  7
KICAD
  8
BLACK
  10
80.5900449999999893
  11
80.5900449999999893
  20
-123.2540099999999939
  21
-123.2540099999999939
  40
1.
  41
1.
  50
-15.00000000
  51
0.00000000
  71
0
  72
1
  73
2
  1
Blank
  0
TEXT
  7
KICAD
  8
BLACK
  10
114.1809299999999894
  11
114.1809299999999894
  20
-145.1472679999999968
  21
-145.1472679999999968
  40
1.
  41
1.
  50
-15.00000000
  51
0.00000000
  71
0
  72
1
  73
2
  1
K34
  0
TEXT
  7
KICAD
  8
BLACK
  10
113.6575989999999905
  11
113.6575989999999905
  20
-147.1003709999999955
  21
-147.1003709999999955
  40
1.
  41
1.
  50
-15.00000000
  51
0.00000000
  71
0
  72
1
  73
2
  1
Blank
  0
TEXT
  7
KICAD
  8
BLACK
  10
86.0532979999999981
  11
86.0532979999999981
  20
-102.8893920000000008
  21
-102.8893920000000008
  40
1.
  41
1.
  50
-15.00000000
  51
0.00000000
  71
0
  72
1
  73
2
  1
K0
  0
TEXT
  7
KICAD
  8
BLACK
  10
85.5299669999999992
  11
85.5299669999999992
  20
-104.8424949999999995
  21
-104.8424949999999995
  40
1.
  41
1.
  50
-15.00000000
  51
0.00000000
  71
0
  72
1
  73
2
  1
Blank
  0
TEXT
  7
KICAD
  8
BLACK
  10
339.2898519999999962
  11
339.2898519999999962
  20
-102.7632499999999993
  21
-102.7632499999999993
  40
1.
  41
1.
  50
15.00000000
  51
0.00000000
  71
0
  72
1
  73
2
  1
K11
  0
TEXT
  7
KICAD
  8
BLACK
  10
339.8131849999999758
  11
339.8131849999999758
  20
-104.7163520000000005
  21
-104.7163520000000005
  40
1.
  41
1.
  50
15.00000000
  51
0.00000000
  71
0
  72
1
  73
2
  1
Blank
  0
TEXT
  7
KICAD
  8
BLACK
  10
123.0964149999999933
  11
123.0964149999999933
  20
-185.4287119999999902
  21
-185.4287119999999902
  40
1.
  41
1.
  50
-15.00000000
  51
0.00000000
  71
0
  72
1
  73
2
  1
K66
  0
TEXT
  7
KICAD
  8
BLACK
  10
122.5730839999999944
  11
122.5730839999999944
  20
-187.3818149999999889
  21
-187.3818149999999889
  40
1.
  41
1.
  50
-15.00000000
  51
0.00000000
  71
0
  72
1
  73
2
  1
Blank
  0
TEXT
  7
KICAD
  8
BLACK
  10
150.9732850000000042
  11
150.9732850000000042
  20
-155.0188969999999813
  21
-155.0188969999999813
  40
1.
  41
1.
  50
-15.00000000
  51
0.00000000
  71
0
  72
1
  73
2
  1
K36
  0
TEXT
  7
KICAD
  8
BLACK
  10
246.5052549999999769
  11
246.5052549999999769
  20
-124.4796429999999958
  21
-124.4796429999999958
  40
1.
  41
1.
  50
15.00000000
  51
0.00000000
  71
0
  72
1
  73
2
  1
K6
  0
TEXT
  7
KICAD
  8
BLACK
  10
247.028587999999985
  11
247.028587999999985
  20
-126.432744999999997
  21
-126.432744999999997
  40
1.
  41
1.
  50
15.00000000
  51
0.00000000
  71
0
  72
1
  73
2
  1
Blank
  0
TEXT
  7
KICAD
  8
BLACK
  10
320.4975529999999821
  11
320.4975529999999821
  20
-106.2575239999999894
  21
-106.2575239999999894
  40
1.
  41
1.
  50
15.00000000
  51
0.00000000
  71
0
  72
1
  73
2
  1
K10
  0
TEXT
  7
KICAD
  8
BLACK
  10
321.0208859999999618
  11
321.0208859999999618
  20
-108.2106259999999907
  21
-108.2106259999999907
  40
1.
  41
1.
  50
15.00000000
  51
0.00000000
  71
0
  72
1
  73
2
  1
Blank
  0
TEXT
  7
KICAD
  8
BLACK
  10
212.7085519999999974
  11
212.7085519999999974
  20
-190.6868450000000053
  21
-190.6868450000000053
  40
1.
  41
1.
  50
0.00000000
  51
0.00000000
  71
0
  72
1
  73
2
  1
K60
  0
TEXT
  7
KICAD
  8
BLACK
  10
212.7085529999999949
  11
212.7085529999999949
  20
-192.7088449999999966
  21
-192.7088449999999966
  40
1.
  41
1.
  50
0.00000000
  51
0.00000000
  71
0
  72
1
  73
2
  1
Blank
  0
TEXT
  7
KICAD
  8
BLACK
  10
344.2203549999999836
  11
344.2203549999999836
  20
-121.16413399999999
  21
-121.16413399999999
  40
1.
  41
1.
  50
15.00000000
  51
0.00000000
  71
0
  72
1
  73
2
  1
K27
  0
TEXT
  7
KICAD
  8
BLACK
  10
344.7436879999999633
  11
344.7436879999999633
  20
-123.1172359999999912
  21
-123.1172359999999912
  40
1.
  41
1.
  50
15.00000000
  51
0.00000000
  71
0
  72
1
  73
2
  1
Blank
  0
TEXT
  7
KICAD
  8
BLACK
  10
146.0521959999999808
  11
146.0521959999999808
  20
-173.4091499999999826
  21
-173.4091499999999826
  40
1.
  41
1.
  50
-15.00000000
  51
0.00000000
  71
0
  72
1
  73
2
  1
K52
  0
TEXT
  7
KICAD
  8
BLACK
  10
145.5288649999999961
  11
145.5288649999999961
  20
-175.3622529999999813
  21
-175.3622529999999813
  40
1.
  41
1.
  50
-15.00000000
  51
0.00000000
  71
0
  72
1
  73
2
  1
Blank
  0
TEXT
  7
KICAD
  8
BLACK
  10
196.5082459999999855
  11
196.5082459999999855
  20
-220.0561099999999897
  21
-220.0561099999999897
  40
1.
  41
1.
  50
-45.00000000
  51
0.00000000
  71
0
  72
1
  73
2
  1
K69
  0
TEXT
  7
KICAD
  8
BLACK
  10
195.0784759999999949
  11
195.0784759999999949
  20
-221.4858799999999803
  21
-221.4858799999999803
  40
1.
  41
1.
  50
-45.00000000
  51
0.00000000
  71
0
  72
1
  73
2
  1
Blank
  0
TEXT
  7
KICAD
  8
BLACK
  10
284.2308669999999893
  11
284.2308669999999893
  20
-191.6945249999999987
  21
-191.6945249999999987
  40
1.
  41
1.
  50
15.00000000
  51
0.00000000
  71
0
  72
1
  73
2
  1
K72
  0
TEXT
  7
KICAD
  8
BLACK
  10
284.7541999999999689
  11
284.7541999999999689
  20
-193.647627
  21
-193.647627
  40
1.
  41
1.
  50
15.00000000
  51
0.00000000
  71
0
  72
1
  73
2
  1
Blank
  0
TEXT
  7
KICAD
  8
BLACK
  10
370.0152830000000108
  11
370.0152830000000108
  20
-143.8426690000000008
  21
-143.8426690000000008
  40
1.
  41
1.
  50
15.00000000
  51
0.00000000
  71
0
  72
1
  73
2
  1
K44
  0
TEXT
  7
KICAD
  8
BLACK
  10
370.5386159999999904
  11
370.5386159999999904
  20
-145.795771000000002
  21
-145.795771000000002
  40
1.
  41
1.
  50
15.00000000
  51
0.00000000
  71
0
  72
1
  73
2
  1
Blank
  0
TEXT
  7
KICAD
  8
BLACK
  10
182.4048129999999901
  11
182.4048129999999901
  20
-188.899989000000005
  21
-188.899989000000005
  40
0.29972
  41
1.
  50
0.00000000
  51
0.00000000
  71
0
  72
1
  73
2
  1
TH3
  0
TEXT
  7
KICAD
  8
BLACK
  10
182.4048129999999901
  11
182.4048129999999901
  20
-193.9799889999999891
  21
-193.9799889999999891
  40
0.29972
  41
1.
  50
0.00000000
  51
0.00000000
  71
0
  72
1
  73
2
  1
HOLE
  0
TEXT
  7
KICAD
  8
BLACK
  10
168.98915199999999
  11
168.98915199999999
  20
-161.4108429999999998
  21
-161.4108429999999998
  40
1.
  41
1.
  50
-15.00000000
  51
0.00000000
  71
0
  72
1
  73
2
  1
K37
  0
TEXT
  7
KICAD
  8
BLACK
  10
168.4658210000000054
  11
168.4658210000000054
  20
-163.3639459999999985
  21
-163.3639459999999985
  40
1.
  41
1.
  50
-15.00000000
  51
0.00000000
  71
0
  72
1
  73
2
  1
Blank
  0
TEXT
  7
KICAD
  8
BLACK
  10
269.4393559999999752
  11
269.4393559999999752
  20
-136.49186499999999
  21
-136.49186499999999
  40
1.
  41
1.
  50
15.00000000
  51
0.00000000
  71
0
  72
1
  73
2
  1
K23
  0
TEXT
  7
KICAD
  8
BLACK
  10
269.9626890000000117
  11
269.9626890000000117
  20
-138.4449669999999912
  21
-138.4449669999999912
  40
1.
  41
1.
  50
15.00000000
  51
0.00000000
  71
0
  72
1
  73
2
  1
Blank
  0
TEXT
  7
KICAD
  8
BLACK
  10
279.303214999999966
  11
279.303214999999966
  20
-173.2797259999999824
  21
-173.2797259999999824
  40
1.
  41
1.
  50
15.00000000
  51
0.00000000
  71
0
  72
1
  73
2
  1
K55
  0
TEXT
  7
KICAD
  8
BLACK
  10
279.8265480000000025
  11
279.8265480000000025
  20
-175.2328279999999836
  21
-175.2328279999999836
  40
1.
  41
1.
  50
15.00000000
  51
0.00000000
  71
0
  72
1
  73
2
  1
Blank
  0
TEXT
  7
KICAD
  8
BLACK
  10
256.3662569999999619
  11
256.3662569999999619
  20
-161.2814129999999864
  21
-161.2814129999999864
  40
1.
  41
1.
  50
15.00000000
  51
0.00000000
  71
0
  72
1
  73
2
  1
K38
  0
TEXT
  7
KICAD
  8
BLACK
  10
256.8895899999999983
  11
256.8895899999999983
  20
-163.2345149999999876
  21
-163.2345149999999876
  40
1.
  41
1.
  50
15.00000000
  51
0.00000000
  71
0
  72
1
  73
2
  1
Blank
  0
TEXT
  7
KICAD
  8
BLACK
  10
155.9132060000000024
  11
155.9132060000000024
  20
-136.6073839999999961
  21
-136.6073839999999961
  40
1.
  41
1.
  50
-15.00000000
  51
0.00000000
  71
0
  72
1
  73
2
  1
K20
  0
TEXT
  7
KICAD
  8
BLACK
  10
155.3898749999999893
  11
155.3898749999999893
  20
-138.5604869999999949
  21
-138.5604869999999949
  40
1.
  41
1.
  50
-15.00000000
  51
0.00000000
  71
0
  72
1
  73
2
  1
Blank
  0
TEXT
  7
KICAD
  8
BLACK
  10
184.9333039999999926
  11
184.9333039999999926
  20
-175.546324999999996
  21
-175.546324999999996
  40
1.
  41
1.
  50
-15.00000000
  51
0.00000000
  71
0
  72
1
  73
2
  1
K60
  0
TEXT
  7
KICAD
  8
BLACK
  10
184.4099729999999795
  11
184.4099729999999795
  20
-177.4994279999999947
  21
-177.4994279999999947
  40
1.
  41
1.
  50
-15.00000000
  51
0.00000000
  71
0
  72
1
  73
2
  1
Blank
  0
TEXT
  7
KICAD
  8
BLACK
  10
173.9196550000000059
  11
173.9196550000000059
  20
-143.0099579999999833
  21
-143.0099579999999833
  40
1.
  41
1.
  50
-15.00000000
  51
0.00000000
  71
0
  72
1
  73
2
  1
K21
  0
TEXT
  7
KICAD
  8
BLACK
  10
173.3963239999999928
  11
173.3963239999999928
  20
-144.963060999999982
  21
-144.963060999999982
  40
1.
  41
1.
  50
-15.00000000
  51
0.00000000
  71
0
  72
1
  73
2
  1
Blank
  0
TEXT
  7
KICAD
  8
BLACK
  10
297.3068099999999845
  11
297.3068099999999845
  20
-166.8910599999999818
  21
-166.8910599999999818
  40
1.
  41
1.
  50
15.00000000
  51
0.00000000
  71
0
  72
1
  73
2
  1
K56
  0
TEXT
  7
KICAD
  8
BLACK
  10
297.8301429999999641
  11
297.8301429999999641
  20
-168.844161999999983
  21
-168.844161999999983
  40
1.
  41
1.
  50
15.00000000
  51
0.00000000
  71
0
  72
1
  73
2
  1
Blank
  0
TEXT
  7
KICAD
  8
BLACK
  10
302.2344699999999875
  11
302.2344699999999875
  20
-185.3058599999999956
  21
-185.3058599999999956
  40
1.
  41
1.
  50
15.00000000
  51
0.00000000
  71
0
  72
1
  73
2
  1
K73
  0
TEXT
  7
KICAD
  8
BLACK
  10
302.7578029999999671
  11
302.7578029999999671
  20
-187.2589619999999968
  21
-187.2589619999999968
  40
1.
  41
1.
  50
15.00000000
  51
0.00000000
  71
0
  72
1
  73
2
  1
Blank
  0
TEXT
  7
KICAD
  8
BLACK
  10
179.249684000000002
  11
179.249684000000002
  20
-206.6227829999999983
  21
-206.6227829999999983
  40
1.
  41
1.
  50
-30.00000000
  51
0.00000000
  71
0
  72
1
  73
2
  1
K69
  0
TEXT
  7
KICAD
  8
BLACK
  10
178.2386850000000038
  11
178.2386850000000038
  20
-208.3738869999999963
  21
-208.3738869999999963
  40
1.
  41
1.
  50
-30.00000000
  51
0.00000000
  71
0
  72
1
  73
2
  1
Blank
  0
TEXT
  7
KICAD
  8
BLACK
  10
261.2939220000000091
  11
261.2939220000000091
  20
-179.6962139999999977
  21
-179.6962139999999977
  40
1.
  41
1.
  50
15.00000000
  51
0.00000000
  71
0
  72
1
  73
2
  1
K54
  0
TEXT
  7
KICAD
  8
BLACK
  10
261.8172549999999887
  11
261.8172549999999887
  20
-181.6493159999999989
  21
-181.6493159999999989
  40
1.
  41
1.
  50
15.00000000
  51
0.00000000
  71
0
  72
1
  73
2
  1
Blank
  0
TEXT
  7
KICAD
  8
BLACK
  10
159.1281469999999842
  11
159.1281469999999842
  20
-198.212615999999997
  21
-198.212615999999997
  40
1.
  41
1.
  50
-15.00000000
  51
0.00000000
  71
0
  72
1
  73
2
  1
K68
  0
TEXT
  7
KICAD
  8
BLACK
  10
158.6048159999999996
  11
158.6048159999999996
  20
-200.1657189999999957
  21
-200.1657189999999957
  40
1.
  41
1.
  50
-15.00000000
  51
0.00000000
  71
0
  72
1
  73
2
  1
Blank
  0
TEXT
  7
KICAD
  8
BLACK
  10
287.4458119999999894
  11
287.4458119999999894
  20
-130.0892920000000004
  21
-130.0892920000000004
  40
1.
  41
1.
  50
15.00000000
  51
0.00000000
  71
0
  72
1
  73
2
  1
K24
  0
TEXT
  7
KICAD
  8
BLACK
  10
287.9691449999999691
  11
287.9691449999999691
  20
-132.0423940000000016
  21
-132.0423940000000016
  40
1.
  41
1.
  50
15.00000000
  51
0.00000000
  71
0
  72
1
  73
2
  1
Blank
  0
TEXT
  7
KICAD
  8
BLACK
  10
119.1020169999999894
  11
119.1020169999999894
  20
-126.7569989999999933
  21
-126.7569989999999933
  40
1.
  41
1.
  50
-15.00000000
  51
0.00000000
  71
0
  72
1
  73
2
  1
K18
  0
TEXT
  7
KICAD
  8
BLACK
  10
118.5786859999999905
  11
118.5786859999999905
  20
-128.7101020000000062
  21
-128.7101020000000062
  40
1.
  41
1.
  50
-15.00000000
  51
0.00000000
  71
0
  72
1
  73
2
  1
Blank
  0
TEXT
  7
KICAD
  8
BLACK
  10
152.0140600000000006
  11
152.0140600000000006
  20
-184.3802780000000041
  21
-184.3802780000000041
  40
0.29972
  41
1.
  50
0.00000000
  51
0.00000000
  71
0
  72
1
  73
2
  1
TH3
  0
TEXT
  7
KICAD
  8
BLACK
  10
152.0140600000000006
  11
152.0140600000000006
  20
-189.4602779999999882
  21
-189.4602779999999882
  40
0.29972
  41
1.
  50
0.00000000
  51
0.00000000
  71
0
  72
1
  73
2
  1
HOLE
  0
TEXT
  7
KICAD
  8
BLACK
  10
160.8437099999999873
  11
160.8437099999999873
  20
-118.2064999999999912
  21
-118.2064999999999912
  40
1.
  41
1.
  50
-15.00000000
  51
0.00000000
  71
0
  72
1
  73
2
  1
K4
  0
TEXT
  7
KICAD
  8
BLACK
  10
160.3203790000000026
  11
160.3203790000000026
  20
-120.1596029999999899
  21
-120.1596029999999899
  40
1.
  41
1.
  50
-15.00000000
  51
0.00000000
  71
0
  72
1
  73
2
  1
Blank
  0
TEXT
  7
KICAD
  8
BLACK
  10
85.1113149999999905
  11
85.1113149999999905
  20
-179.9839240000000018
  21
-179.9839240000000018
  40
1.
  41
1.
  50
-15.00000000
  51
0.00000000
  71
0
  72
1
  73
2
  1
K64
  0
TEXT
  7
KICAD
  8
BLACK
  10
84.5879839999999916
  11
84.5879839999999916
  20
-181.9370270000000005
  21
-181.9370270000000005
  40
1.
  41
1.
  50
-15.00000000
  51
0.00000000
  71
0
  72
1
  73
2
  1
Blank
  0
TEXT
  7
KICAD
  8
BLACK
  10
354.0813609999999585
  11
354.0813609999999585
  20
-157.9659149999999954
  21
-157.9659149999999954
  40
1.
  41
1.
  50
15.00000000
  51
0.00000000
  71
0
  72
1
  73
2
  1
K59
  0
TEXT
  7
KICAD
  8
BLACK
  10
354.604693999999995
  11
354.604693999999995
  20
-159.9190169999999966
  21
-159.9190169999999966
  40
1.
  41
1.
  50
15.00000000
  51
0.00000000
  71
0
  72
1
  73
2
  1
Blank
  0
TEXT
  7
KICAD
  8
BLACK
  10
330.3585549999999671
  11
330.3585549999999671
  20
-143.0592919999999992
  21
-143.0592919999999992
  40
1.
  41
1.
  50
15.00000000
  51
0.00000000
  71
0
  72
1
  73
2
  1
K42
  0
TEXT
  7
KICAD
  8
BLACK
  10
330.8818880000000036
  11
330.8818880000000036
  20
-145.0123940000000005
  21
-145.0123940000000005
  40
1.
  41
1.
  50
15.00000000
  51
0.00000000
  71
0
  72
1
  73
2
  1
Blank
  0
TEXT
  7
KICAD
  8
BLACK
  10
128.026914000000005
  11
128.026914000000005
  20
-167.0278319999999894
  21
-167.0278319999999894
  40
1.
  41
1.
  50
-15.00000000
  51
0.00000000
  71
0
  72
1
  73
2
  1
K51
  0
TEXT
  7
KICAD
  8
BLACK
  10
127.5035829999999919
  11
127.5035829999999919
  20
-168.9809349999999881
  21
-168.9809349999999881
  40
1.
  41
1.
  50
-15.00000000
  51
0.00000000
  71
0
  72
1
  73
2
  1
Blank
  0
TEXT
  7
KICAD
  8
BLACK
  10
124.0325109999999995
  11
124.0325109999999995
  20
-108.356117999999995
  21
-108.356117999999995
  40
1.
  41
1.
  50
-15.00000000
  51
0.00000000
  71
0
  72
1
  73
2
  1
K2
  0
TEXT
  7
KICAD
  8
BLACK
  10
123.5091800000000006
  11
123.5091800000000006
  20
-110.3092209999999938
  21
-110.3092209999999938
  40
1.
  41
1.
  50
-15.00000000
  51
0.00000000
  71
0
  72
1
  73
2
  1
Blank
  0
TEXT
  7
KICAD
  8
BLACK
  10
349.1508549999999786
  11
349.1508549999999786
  20
-139.5650259999999889
  21
-139.5650259999999889
  40
1.
  41
1.
  50
15.00000000
  51
0.00000000
  71
0
  72
1
  73
2
  1
K43
  0
TEXT
  7
KICAD
  8
BLACK
  10
349.6741879999999583
  11
349.6741879999999583
  20
-141.5181279999999902
  21
-141.5181279999999902
  40
1.
  41
1.
  50
15.00000000
  51
0.00000000
  71
0
  72
1
  73
2
  1
Blank
  0
TEXT
  7
KICAD
  8
BLACK
  10
141.1122809999999959
  11
141.1122809999999959
  20
-191.820668999999981
  21
-191.820668999999981
  40
1.
  41
1.
  50
-15.00000000
  51
0.00000000
  71
0
  72
1
  73
2
  1
K67
  0
TEXT
  7
KICAD
  8
BLACK
  10
140.5889499999999828
  11
140.5889499999999828
  20
-193.7737719999999797
  21
-193.7737719999999797
  40
1.
  41
1.
  50
-15.00000000
  51
0.00000000
  71
0
  72
1
  73
2
  1
Blank
  0
TEXT
  7
KICAD
  8
BLACK
  10
264.5117040000000088
  11
264.5117040000000088
  20
-118.0770629999999954
  21
-118.0770629999999954
  40
1.
  41
1.
  50
15.00000000
  51
0.00000000
  71
0
  72
1
  73
2
  1
K7
  0
TEXT
  7
KICAD
  8
BLACK
  10
265.0350369999999884
  11
265.0350369999999884
  20
-120.0301649999999967
  21
-120.0301649999999967
  40
1.
  41
1.
  50
15.00000000
  51
0.00000000
  71
0
  72
1
  73
2
  1
Blank
  0
TEXT
  7
KICAD
  8
BLACK
  10
340.2224160000000097
  11
340.2224160000000097
  20
-179.8471569999999815
  21
-179.8471569999999815
  40
1.
  41
1.
  50
15.00000000
  51
0.00000000
  71
0
  72
1
  73
2
  1
K75
  0
TEXT
  7
KICAD
  8
BLACK
  10
340.7457489999999893
  11
340.7457489999999893
  20
-181.8002589999999827
  21
-181.8002589999999827
  40
1.
  41
1.
  50
15.00000000
  51
0.00000000
  71
0
  72
1
  73
2
  1
Blank
  0
TEXT
  7
KICAD
  8
BLACK
  10
137.8973459999999989
  11
137.8973459999999989
  20
-130.2154359999999826
  21
-130.2154359999999826
  40
1.
  41
1.
  50
-15.00000000
  51
0.00000000
  71
0
  72
1
  73
2
  1
K19
  0
TEXT
  7
KICAD
  8
BLACK
  10
137.3740149999999858
  11
137.3740149999999858
  20
-132.1685389999999813
  21
-132.1685389999999813
  40
1.
  41
1.
  50
-15.00000000
  51
0.00000000
  71
0
  72
1
  73
2
  1
Blank
  0
TEXT
  7
KICAD
  8
BLACK
  10
301.3134809999999675
  11
301.3134809999999675
  20
-108.2160619999999938
  21
-108.2160619999999938
  40
1.
  41
1.
  50
15.00000000
  51
0.00000000
  71
0
  72
1
  73
2
  1
K9
  0
TEXT
  7
KICAD
  8
BLACK
  10
301.8368140000000039
  11
301.8368140000000039
  20
-110.169163999999995
  21
-110.169163999999995
  40
1.
  41
1.
  50
15.00000000
  51
0.00000000
  71
0
  72
1
  73
2
  1
Blank
  0
TEXT
  7
KICAD
  8
BLACK
  10
104.310504999999992
  11
104.310504999999992
  20
-181.9596650000000011
  21
-181.9596650000000011
  40
1.
  41
1.
  50
-15.00000000
  51
0.00000000
  71
0
  72
1
  73
2
  1
K65
  0
TEXT
  7
KICAD
  8
BLACK
  10
103.7871739999999932
  11
103.7871739999999932
  20
-183.9127679999999998
  21
-183.9127679999999998
  40
1.
  41
1.
  50
-15.00000000
  51
0.00000000
  71
0
  72
1
  73
2
  1
Blank
  0
TEXT
  7
KICAD
  8
BLACK
  10
311.1716369999999756
  11
311.1716369999999756
  20
-145.0317440000000033
  21
-145.0317440000000033
  40
1.
  41
1.
  50
15.00000000
  51
0.00000000
  71
0
  72
1
  73
2
  1
K41
  0
TEXT
  7
KICAD
  8
BLACK
  10
311.6949700000000121
  11
311.6949700000000121
  20
-146.9848460000000046
  21
-146.9848460000000046
  40
1.
  41
1.
  50
15.00000000
  51
0.00000000
  71
0
  72
1
  73
2
  1
Blank
  0
TEXT
  7
KICAD
  8
BLACK
  10
132.9574240000000032
  11
132.9574240000000032
  20
-148.6269460000000038
  21
-148.6269460000000038
  40
1.
  41
1.
  50
-15.00000000
  51
0.00000000
  71
0
  72
1
  73
2
  1
K35
  0
TEXT
  7
KICAD
  8
BLACK
  10
132.4340929999999901
  11
132.4340929999999901
  20
-150.5800490000000025
  21
-150.5800490000000025
  40
1.
  41
1.
  50
-15.00000000
  51
0.00000000
  71
0
  72
1
  73
2
  1
Blank
  0
TEXT
  7
KICAD
  8
BLACK
  10
55.3126719999999992
  11
55.3126719999999992
  20
-143.9868999999999915
  21
-143.9868999999999915
  40
1.
  41
1.
  50
-15.00000000
  51
0.00000000
  71
0
  72
1
  73
2
  1
K60
  0
TEXT
  7
KICAD
  8
BLACK
  10
54.7893410000000003
  11
54.7893410000000003
  20
-145.9400029999999902
  21
-145.9400029999999902
  40
1.
  41
1.
  50
-15.00000000
  51
0.00000000
  71
0
  72
1
  73
2
  1
Blank
  0
TEXT
  7
KICAD
  8
BLACK
  10
76.1828769999999906
  11
76.1828769999999906
  20
-139.7017950000000042
  21
-139.7017950000000042
  40
1.
  41
1.
  50
-15.00000000
  51
0.00000000
  71
0
  72
1
  73
2
  1
K32
  0
TEXT
  7
KICAD
  8
BLACK
  10
75.6595459999999917
  11
75.6595459999999917
  20
-141.6548980000000029
  21
-141.6548980000000029
  40
1.
  41
1.
  50
-15.00000000
  51
0.00000000
  71
0
  72
1
  73
2
  1
Blank
  0
TEXT
  7
KICAD
  8
BLACK
  10
71.2617919999999998
  11
71.2617919999999998
  20
-158.0920529999999928
  21
-158.0920529999999928
  40
1.
  41
1.
  50
-15.00000000
  51
0.00000000
  71
0
  72
1
  73
2
  1
K48
  0
TEXT
  7
KICAD
  8
BLACK
  10
70.7384610000000009
  11
70.7384610000000009
  20
-160.0451559999999915
  21
-160.0451559999999915
  40
1.
  41
1.
  50
-15.00000000
  51
0.00000000
  71
0
  72
1
  73
2
  1
Blank
  0
TEXT
  7
KICAD
  8
BLACK
  10
166.8185090000000059
  11
166.8185090000000059
  20
-129.1293220000000019
  21
-129.1293220000000019
  40
0.29972
  41
1.
  50
0.00000000
  51
0.00000000
  71
0
  72
1
  73
2
  1
TH3
  0
TEXT
  7
KICAD
  8
BLACK
  10
166.8185090000000059
  11
166.8185090000000059
  20
-134.209321999999986
  21
-134.209321999999986
  40
0.29972
  41
1.
  50
0.00000000
  51
0.00000000
  71
0
  72
1
  73
2
  1
HOLE
  0
TEXT
  7
KICAD
  8
BLACK
  10
266.2272679999999809
  11
266.2272679999999809
  20
-198.0831849999999861
  21
-198.0831849999999861
  40
1.
  41
1.
  50
15.00000000
  51
0.00000000
  71
0
  72
1
  73
2
  1
K71
  0
TEXT
  7
KICAD
  8
BLACK
  10
266.7506009999999605
  11
266.7506009999999605
  20
-200.0362869999999873
  21
-200.0362869999999873
  40
1.
  41
1.
  50
15.00000000
  51
0.00000000
  71
0
  72
1
  73
2
  1
Blank
  0
TEXT
  7
KICAD
  8
BLACK
  10
109.2410009999999971
  11
109.2410009999999971
  20
-163.5587769999999921
  21
-163.5587769999999921
  40
1.
  41
1.
  50
-15.00000000
  51
0.00000000
  71
0
  72
1
  73
2
  1
K50
  0
TEXT
  7
KICAD
  8
BLACK
  10
108.7176699999999983
  11
108.7176699999999983
  20
-165.5118799999999908
  21
-165.5118799999999908
  40
1.
  41
1.
  50
-15.00000000
  51
0.00000000
  71
0
  72
1
  73
2
  1
Blank
  0
TEXT
  7
KICAD
  8
BLACK
  10
92.4449749999999995
  11
92.4449749999999995
  20
-112.2809389999999894
  21
-112.2809389999999894
  40
0.29972
  41
1.
  50
0.00000000
  51
0.00000000
  71
0
  72
1
  73
2
  1
TH3
  0
TEXT
  7
KICAD
  8
BLACK
  10
92.4449749999999995
  11
92.4449749999999995
  20
-117.3609389999999877
  21
-117.3609389999999877
  40
0.29972
  41
1.
  50
0.00000000
  51
0.00000000
  71
0
  72
1
  73
2
  1
HOLE
  0
TEXT
  7
KICAD
  8
BLACK
  10
164.0586559999999849
  11
164.0586559999999849
  20
-179.811727999999988
  21
-179.811727999999988
  40
1.
  41
1.
  50
-15.00000000
  51
0.00000000
  71
0
  72
1
  73
2
  1
K53
  0
TEXT
  7
KICAD
  8
BLACK
  10
163.5353250000000003
  11
163.5353250000000003
  20
-181.7648309999999867
  21
-181.7648309999999867
  40
1.
  41
1.
  50
-15.00000000
  51
0.00000000
  71
0
  72
1
  73
2
  1
Blank
  0
TEXT
  7
KICAD
  8
BLACK
  10
316.1049840000000017
  11
316.1049840000000017
  20
-163.4187249999999949
  21
-163.4187249999999949
  40
1.
  41
1.
  50
15.00000000
  51
0.00000000
  71
0
  72
1
  73
2
  1
K57
  0
TEXT
  7
KICAD
  8
BLACK
  10
316.6283169999999814
  11
316.6283169999999814
  20
-165.3718269999999961
  21
-165.3718269999999961
  40
1.
  41
1.
  50
15.00000000
  51
0.00000000
  71
0
  72
1
  73
2
  1
Blank
  0
TEXT
  7
KICAD
  8
BLACK
  10
274.3698679999999968
  11
274.3698679999999968
  20
-154.892752999999999
  21
-154.892752999999999
  40
1.
  41
1.
  50
15.00000000
  51
0.00000000
  71
0
  72
1
  73
2
  1
K39
  0
TEXT
  7
KICAD
  8
BLACK
  10
274.8932009999999764
  11
274.8932009999999764
  20
-156.8458550000000002
  21
-156.8458550000000002
  40
1.
  41
1.
  50
15.00000000
  51
0.00000000
  71
0
  72
1
  73
2
  1
Blank
  0
TEXT
  7
KICAD
  8
BLACK
  10
306.2439860000000067
  11
306.2439860000000067
  20
-126.6169549999999902
  21
-126.6169549999999902
  40
1.
  41
1.
  50
15.00000000
  51
0.00000000
  71
0
  72
1
  73
2
  1
K25
  0
TEXT
  7
KICAD
  8
BLACK
  10
306.7673189999999863
  11
306.7673189999999863
  20
-128.5700569999999914
  21
-128.5700569999999914
  40
1.
  41
1.
  50
15.00000000
  51
0.00000000
  71
0
  72
1
  73
2
  1
Blank
  0
TEXT
  7
KICAD
  8
BLACK
  10
99.902827000000002
  11
99.902827000000002
  20
-124.781265999999988
  21
-124.781265999999988
  40
1.
  41
1.
  50
-15.00000000
  51
0.00000000
  71
0
  72
1
  73
2
  1
K17
  0
TEXT
  7
KICAD
  8
BLACK
  10
99.379495999999989
  11
99.379495999999989
  20
-126.7343690000000009
  21
-126.7343690000000009
  40
1.
  41
1.
  50
-15.00000000
  51
0.00000000
  71
0
  72
1
  73
2
  1
Blank
  0
TEXT
  7
KICAD
  8
BLACK
  10
77.6405259999999942
  11
77.6405259999999942
  20
-167.531895999999989
  21
-167.531895999999989
  40
0.29972
  41
1.
  50
0.00000000
  51
0.00000000
  71
0
  72
1
  73
2
  1
TH3
  0
TEXT
  7
KICAD
  8
BLACK
  10
77.6405259999999942
  11
77.6405259999999942
  20
-172.6118960000000015
  21
-172.6118960000000015
  40
0.29972
  41
1.
  50
0.00000000
  51
0.00000000
  71
0
  72
1
  73
2
  1
HOLE
  0
TEXT
  7
KICAD
  8
BLACK
  10
178.8501589999999908
  11
178.8501589999999908
  20
-124.6090679999999935
  21
-124.6090679999999935
  40
1.
  41
1.
  50
-15.00000000
  51
0.00000000
  71
0
  72
1
  73
2
  1
K5
  0
TEXT
  7
KICAD
  8
BLACK
  10
178.3268280000000061
  11
178.3268280000000061
  20
-126.5621709999999922
  21
-126.5621709999999922
  40
1.
  41
1.
  50
-15.00000000
  51
0.00000000
  71
0
  72
1
  73
2
  1
Blank
  0
TEXT
  7
KICAD
  8
BLACK
  10
104.8427480000000003
  11
104.8427480000000003
  20
-106.3697590000000019
  21
-106.3697590000000019
  40
1.
  41
1.
  50
-15.00000000
  51
0.00000000
  71
0
  72
1
  73
2
  1
K1
  0
TEXT
  7
KICAD
  8
BLACK
  10
104.3194170000000014
  11
104.3194170000000014
  20
-108.3228620000000006
  21
-108.3228620000000006
  40
1.
  41
1.
  50
-15.00000000
  51
0.00000000
  71
0
  72
1
  73
2
  1
Blank
  0
TEXT
  7
KICAD
  8
BLACK
  10
282.5153019999999628
  11
282.5153019999999628
  20
-111.6884029999999939
  21
-111.6884029999999939
  40
1.
  41
1.
  50
15.00000000
  51
0.00000000
  71
0
  72
1
  73
2
  1
K8
  0
TEXT
  7
KICAD
  8
BLACK
  10
283.0386349999999993
  11
283.0386349999999993
  20
-113.6415049999999951
  21
-113.6415049999999951
  40
1.
  41
1.
  50
15.00000000
  51
0.00000000
  71
0
  72
1
  73
2
  1
Blank
  0
TEXT
  7
KICAD
  8
BLACK
  10
228.6340179999999975
  11
228.6340179999999975
  20
-219.7066229999999791
  21
-219.7066229999999791
  40
1.
  41
1.
  50
45.00000000
  51
0.00000000
  71
0
  72
1
  73
2
  1
K70
  0
TEXT
  7
KICAD
  8
BLACK
  10
230.0637879999999882
  11
230.0637879999999882
  20
-221.1363929999999982
  21
-221.1363929999999982
  40
1.
  41
1.
  50
45.00000000
  51
0.00000000
  71
0
  72
1
  73
2
  1
Blank
  0
TEXT
  7
KICAD
  8
BLACK
  10
292.3734629999999584
  11
292.3734629999999584
  20
-148.5040889999999933
  21
-148.5040889999999933
  40
1.
  41
1.
  50
15.00000000
  51
0.00000000
  71
0
  72
1
  73
2
  1
K40
  0
TEXT
  7
KICAD
  8
BLACK
  10
292.8967959999999948
  11
292.8967959999999948
  20
-150.4571909999999946
  21
-150.4571909999999946
  40
1.
  41
1.
  50
15.00000000
  51
0.00000000
  71
0
  72
1
  73
2
  1
Blank
  0
TEXT
  7
KICAD
  8
BLACK
  10
246.0372649999999908
  11
246.0372649999999908
  20
-206.3693309999999883
  21
-206.3693309999999883
  40
1.
  41
1.
  50
30.00000000
  51
0.00000000
  71
0
  72
1
  73
2
  1
K70
  0
TEXT
  7
KICAD
  8
BLACK
  10
247.0482659999999839
  11
247.0482659999999839
  20
-208.1204339999999888
  21
-208.1204339999999888
  40
1.
  41
1.
  50
30.00000000
  51
0.00000000
  71
0
  72
1
  73
2
  1
Blank
  0
TEXT
  7
KICAD
  8
BLACK
  10
142.8278489999999863
  11
142.8278489999999863
  20
-111.8145459999999929
  21
-111.8145459999999929
  40
1.
  41
1.
  50
-15.00000000
  51
0.00000000
  71
0
  72
1
  73
2
  1
K3
  0
TEXT
  7
KICAD
  8
BLACK
  10
142.3045180000000016
  11
142.3045180000000016
  20
-113.7676489999999916
  21
-113.7676489999999916
  40
1.
  41
1.
  50
-15.00000000
  51
0.00000000
  71
0
  72
1
  73
2
  1
Blank
0
CIRCLE
8
WHITE
10
182.4128129999999999
20
-191.449988999999988
40
1.2
0
CIRCLE
8
WHITE
10
152.022059999999982
20
-186.9302779999999871
40
1.2
0
CIRCLE
8
WHITE
10
166.8265089999999873
20
-131.6793219999999849
40
1.2
0
CIRCLE
8
WHITE
10
92.452974999999995
20
-114.8309390000000008
40
1.2
0
CIRCLE
8
WHITE
10
77.6485259999999897
20
-170.0818960000000004
40
1.2
0
CIRCLE
8
WHITE
10
347.2049839999999676
20
-170.1546639999999968
40
1.2
0
CIRCLE
8
WHITE
10
258.0269989999999893
20
-131.7520899999999813
40
1.2
0
CIRCLE
8
WHITE
10
332.4005339999999933
20
-114.9037059999999997
40
1.2
0
CIRCLE
8
WHITE
10
242.4406960000000026
20
-191.5227579999999818
40
1.2
0
CIRCLE
8
WHITE
10
272.8314479999999662
20
-187.0030469999999809
40
1.2
  0
ENDSEC
  0
EOF
