  0
SECTION
  2
HEADER
  9
$ANGBASE
  50
0.0
  9
$ANGDIR
  70
1
  9
$MEASUREMENT
  70
1
  0
ENDSEC
  0
SECTION
  2
TABLES
  0
TABLE
  2
LTYPE
  70
4
  0
LTYPE
  5
40F
  2
CONTINUOUS
  70
0
  3
Solid line
  72
65
  73
0
  40
0.0
  0
LTYPE
  5
410
  2
DASHDOT
 70
0
  3
Dash Dot ____ _ ____ _
 72
65
 73
4
 40
2.0
 49
1.25
 49
-0.25
 49
0.25
 49
-0.25
  0
LTYPE
  5
411
  2
DASHED
 70
0
  3
Dashed __ __ __ __ __
 72
65
 73
2
 40
0.75
 49
0.5
 49
-0.25
  0
LTYPE
  5
43B
  2
DOTTED
 70
0
  3
Dotted .  .  .  .
 72
65
 73
2
 40
0.2
 49
0.0
 49
-0.2
  0
ENDTAB
  0
TABLE
  2
STYLE
  70
4
  0
STYLE
  2
KICAD
  70
0
  40
0
  41
1
  42
1
  50
0
  71
0
  3
isocp.shx
  0
STYLE
  2
KICADB
  70
0
  40
0
  41
1
  42
1
  50
0
  71
0
  3
isocp.shx
  0
STYLE
  2
KICADI
  70
0
  40
0
  41
1
  42
1
  50
15
  71
0
  3
isocp.shx
  0
STYLE
  2
KICADBI
  70
0
  40
0
  41
1
  42
1
  50
15
  71
0
  3
isocp.shx
  0
ENDTAB
  0
TABLE
  2
LAYER
  70
1
  0
LAYER
  2
BLACK
  70
0
  62
7
  6
CONTINUOUS
  0
ENDTAB
  0
ENDSEC
  0
SECTION
  2
ENTITIES
0
LINE
8
BLACK
6
CONTINUOUS
10
242.7253259999999955
20
-189.5431150000000002
11
243.0041609999999821
21
-189.6037719999999922
0
LINE
8
BLACK
6
CONTINUOUS
10
243.0041609999999821
20
-189.6037719999999922
11
243.2715259999999944
21
-189.7034939999999779
0
LINE
8
BLACK
6
CONTINUOUS
10
243.2715259999999944
20
-189.7034939999999779
11
243.5219779999999901
21
-189.840250999999995
0
LINE
8
BLACK
6
CONTINUOUS
10
243.5219779999999901
20
-189.840250999999995
11
243.7504169999999988
21
-190.0112589999999955
0
LINE
8
BLACK
6
CONTINUOUS
10
243.7504169999999988
20
-190.0112589999999955
11
243.952194999999989
21
-190.2130369999999857
0
LINE
8
BLACK
6
CONTINUOUS
10
243.952194999999989
20
-190.2130369999999857
11
244.1232029999999895
21
-190.4414759999999944
0
LINE
8
BLACK
6
CONTINUOUS
10
244.1232029999999895
20
-190.4414759999999944
11
244.2599599999999782
21
-190.6919279999999901
0
LINE
8
BLACK
6
CONTINUOUS
10
244.2599599999999782
20
-190.6919279999999901
11
244.3596819999999923
21
-190.9592930000000024
0
LINE
8
BLACK
6
CONTINUOUS
10
244.3596819999999923
20
-190.9592930000000024
11
244.4203389999999843
21
-191.238127999999989
0
LINE
8
BLACK
6
CONTINUOUS
10
244.4203389999999843
20
-191.238127999999989
11
244.4406960000000026
21
-191.5227579999999818
0
LINE
8
BLACK
6
CONTINUOUS
10
244.4406960000000026
20
-191.5227579999999818
11
244.4203389999999843
21
-191.8073880000000031
0
LINE
8
BLACK
6
CONTINUOUS
10
244.4203389999999843
20
-191.8073880000000031
11
244.3596819999999923
21
-192.0862229999999897
0
LINE
8
BLACK
6
CONTINUOUS
10
244.3596819999999923
20
-192.0862229999999897
11
244.2599599999999782
21
-192.353588000000002
0
LINE
8
BLACK
6
CONTINUOUS
10
244.2599599999999782
20
-192.353588000000002
11
244.1232029999999895
21
-192.6040399999999977
0
LINE
8
BLACK
6
CONTINUOUS
10
244.1232029999999895
20
-192.6040399999999977
11
243.952194999999989
21
-192.832478999999978
0
LINE
8
BLACK
6
CONTINUOUS
10
243.952194999999989
20
-192.832478999999978
11
243.7504169999999988
21
-193.0342569999999967
0
LINE
8
BLACK
6
CONTINUOUS
10
243.7504169999999988
20
-193.0342569999999967
11
243.5219779999999901
21
-193.2052649999999971
0
LINE
8
BLACK
6
CONTINUOUS
10
243.5219779999999901
20
-193.2052649999999971
11
243.2715259999999944
21
-193.3420219999999858
0
LINE
8
BLACK
6
CONTINUOUS
10
243.2715259999999944
20
-193.3420219999999858
11
243.0041609999999821
21
-193.4417439999999999
0
LINE
8
BLACK
6
CONTINUOUS
10
243.0041609999999821
20
-193.4417439999999999
11
242.7253259999999955
21
-193.5024009999999919
0
LINE
8
BLACK
6
CONTINUOUS
10
242.7253259999999955
20
-193.5024009999999919
11
242.4406960000000026
21
-193.5227579999999818
0
LINE
8
BLACK
6
CONTINUOUS
10
242.4406960000000026
20
-193.5227579999999818
11
242.1560659999999814
21
-193.5024009999999919
0
LINE
8
BLACK
6
CONTINUOUS
10
242.1560659999999814
20
-193.5024009999999919
11
241.8772309999999948
21
-193.4417439999999999
0
LINE
8
BLACK
6
CONTINUOUS
10
241.8772309999999948
20
-193.4417439999999999
11
241.6098659999999825
21
-193.3420219999999858
0
LINE
8
BLACK
6
CONTINUOUS
10
241.6098659999999825
20
-193.3420219999999858
11
241.3594139999999868
21
-193.2052649999999971
0
LINE
8
BLACK
6
CONTINUOUS
10
241.3594139999999868
20
-193.2052649999999971
11
241.1309749999999781
21
-193.0342569999999967
0
LINE
8
BLACK
6
CONTINUOUS
10
241.1309749999999781
20
-193.0342569999999967
11
240.9291969999999878
21
-192.832478999999978
0
LINE
8
BLACK
6
CONTINUOUS
10
240.9291969999999878
20
-192.832478999999978
11
240.7581889999999873
21
-192.6040399999999977
0
LINE
8
BLACK
6
CONTINUOUS
10
240.7581889999999873
20
-192.6040399999999977
11
240.6214319999999987
21
-192.353588000000002
0
LINE
8
BLACK
6
CONTINUOUS
10
240.6214319999999987
20
-192.353588000000002
11
240.5217099999999846
21
-192.0862229999999897
0
LINE
8
BLACK
6
CONTINUOUS
10
240.5217099999999846
20
-192.0862229999999897
11
240.4610529999999926
21
-191.8073880000000031
0
LINE
8
BLACK
6
CONTINUOUS
10
240.4610529999999926
20
-191.8073880000000031
11
240.4406960000000026
21
-191.5227579999999818
0
LINE
8
BLACK
6
CONTINUOUS
10
240.4406960000000026
20
-191.5227579999999818
11
240.4610529999999926
21
-191.238127999999989
0
LINE
8
BLACK
6
CONTINUOUS
10
240.4610529999999926
20
-191.238127999999989
11
240.5217099999999846
21
-190.9592930000000024
0
LINE
8
BLACK
6
CONTINUOUS
10
240.5217099999999846
20
-190.9592930000000024
11
240.6214319999999987
21
-190.6919279999999901
0
LINE
8
BLACK
6
CONTINUOUS
10
240.6214319999999987
20
-190.6919279999999901
11
240.7581889999999873
21
-190.4414759999999944
0
LINE
8
BLACK
6
CONTINUOUS
10
240.7581889999999873
20
-190.4414759999999944
11
240.9291969999999878
21
-190.2130369999999857
0
LINE
8
BLACK
6
CONTINUOUS
10
240.9291969999999878
20
-190.2130369999999857
11
241.1309749999999781
21
-190.0112589999999955
0
LINE
8
BLACK
6
CONTINUOUS
10
241.1309749999999781
20
-190.0112589999999955
11
241.3594139999999868
21
-189.840250999999995
0
LINE
8
BLACK
6
CONTINUOUS
10
241.3594139999999868
20
-189.840250999999995
11
241.6098659999999825
21
-189.7034939999999779
0
LINE
8
BLACK
6
CONTINUOUS
10
241.6098659999999825
20
-189.7034939999999779
11
241.8772309999999948
21
-189.6037719999999922
0
LINE
8
BLACK
6
CONTINUOUS
10
241.8772309999999948
20
-189.6037719999999922
11
242.1560659999999814
21
-189.5431150000000002
0
LINE
8
BLACK
6
CONTINUOUS
10
242.1560659999999814
20
-189.5431150000000002
11
242.4406960000000026
21
-189.5227579999999818
0
LINE
8
BLACK
6
CONTINUOUS
10
242.4406960000000026
20
-189.5227579999999818
11
242.7253259999999955
21
-189.5431150000000002
0
LINE
8
BLACK
6
CONTINUOUS
10
182.6974429999999927
20
-189.4703459999999779
11
182.9762779999999793
21
-189.5310029999999983
0
LINE
8
BLACK
6
CONTINUOUS
10
182.9762779999999793
20
-189.5310029999999983
11
183.2436429999999916
21
-189.630724999999984
0
LINE
8
BLACK
6
CONTINUOUS
10
183.2436429999999916
20
-189.630724999999984
11
183.4940949999999873
21
-189.7674820000000011
0
LINE
8
BLACK
6
CONTINUOUS
10
183.4940949999999873
20
-189.7674820000000011
11
183.722533999999996
21
-189.9384900000000016
0
LINE
8
BLACK
6
CONTINUOUS
10
183.722533999999996
20
-189.9384900000000016
11
183.9243119999999863
21
-190.1402679999999918
0
LINE
8
BLACK
6
CONTINUOUS
10
183.9243119999999863
20
-190.1402679999999918
11
184.0953199999999867
21
-190.3687070000000006
0
LINE
8
BLACK
6
CONTINUOUS
10
184.0953199999999867
20
-190.3687070000000006
11
184.2320770000000039
21
-190.6191589999999962
0
LINE
8
BLACK
6
CONTINUOUS
10
184.2320770000000039
20
-190.6191589999999962
11
184.3317989999999895
21
-190.8865239999999801
0
LINE
8
BLACK
6
CONTINUOUS
10
184.3317989999999895
20
-190.8865239999999801
11
184.3924559999999815
21
-191.1653589999999951
0
LINE
8
BLACK
6
CONTINUOUS
10
184.3924559999999815
20
-191.1653589999999951
11
184.4128129999999999
21
-191.449988999999988
0
LINE
8
BLACK
6
CONTINUOUS
10
184.4128129999999999
20
-191.449988999999988
11
184.3924559999999815
21
-191.7346189999999808
0
LINE
8
BLACK
6
CONTINUOUS
10
184.3924559999999815
20
-191.7346189999999808
11
184.3317989999999895
21
-192.0134539999999959
0
LINE
8
BLACK
6
CONTINUOUS
10
184.3317989999999895
20
-192.0134539999999959
11
184.2320770000000039
21
-192.2808189999999797
0
LINE
8
BLACK
6
CONTINUOUS
10
184.2320770000000039
20
-192.2808189999999797
11
184.0953199999999867
21
-192.5312710000000038
0
LINE
8
BLACK
6
CONTINUOUS
10
184.0953199999999867
20
-192.5312710000000038
11
183.9243119999999863
21
-192.7597099999999841
0
LINE
8
BLACK
6
CONTINUOUS
10
183.9243119999999863
20
-192.7597099999999841
11
183.722533999999996
21
-192.9614880000000028
0
LINE
8
BLACK
6
CONTINUOUS
10
183.722533999999996
20
-192.9614880000000028
11
183.4940949999999873
21
-193.1324960000000033
0
LINE
8
BLACK
6
CONTINUOUS
10
183.4940949999999873
20
-193.1324960000000033
11
183.2436429999999916
21
-193.269252999999992
0
LINE
8
BLACK
6
CONTINUOUS
10
183.2436429999999916
20
-193.269252999999992
11
182.9762779999999793
21
-193.3689749999999776
0
LINE
8
BLACK
6
CONTINUOUS
10
182.9762779999999793
20
-193.3689749999999776
11
182.6974429999999927
21
-193.429631999999998
0
LINE
8
BLACK
6
CONTINUOUS
10
182.6974429999999927
20
-193.429631999999998
11
182.4128129999999999
21
-193.449988999999988
0
LINE
8
BLACK
6
CONTINUOUS
10
182.4128129999999999
20
-193.449988999999988
11
182.1281829999999786
21
-193.429631999999998
0
LINE
8
BLACK
6
CONTINUOUS
10
182.1281829999999786
20
-193.429631999999998
11
181.849347999999992
21
-193.3689749999999776
0
LINE
8
BLACK
6
CONTINUOUS
10
181.849347999999992
20
-193.3689749999999776
11
181.5819829999999797
21
-193.269252999999992
0
LINE
8
BLACK
6
CONTINUOUS
10
181.5819829999999797
20
-193.269252999999992
11
181.331530999999984
21
-193.1324960000000033
0
LINE
8
BLACK
6
CONTINUOUS
10
181.331530999999984
20
-193.1324960000000033
11
181.1030920000000037
21
-192.9614880000000028
0
LINE
8
BLACK
6
CONTINUOUS
10
181.1030920000000037
20
-192.9614880000000028
11
180.9013139999999851
21
-192.7597099999999841
0
LINE
8
BLACK
6
CONTINUOUS
10
180.9013139999999851
20
-192.7597099999999841
11
180.7303059999999846
21
-192.5312710000000038
0
LINE
8
BLACK
6
CONTINUOUS
10
180.7303059999999846
20
-192.5312710000000038
11
180.5935489999999959
21
-192.2808189999999797
0
LINE
8
BLACK
6
CONTINUOUS
10
180.5935489999999959
20
-192.2808189999999797
11
180.4938269999999818
21
-192.0134539999999959
0
LINE
8
BLACK
6
CONTINUOUS
10
180.4938269999999818
20
-192.0134539999999959
11
180.4331699999999898
21
-191.7346189999999808
0
LINE
8
BLACK
6
CONTINUOUS
10
180.4331699999999898
20
-191.7346189999999808
11
180.4128129999999999
21
-191.449988999999988
0
LINE
8
BLACK
6
CONTINUOUS
10
180.4128129999999999
20
-191.449988999999988
11
180.4331699999999898
21
-191.1653589999999951
0
LINE
8
BLACK
6
CONTINUOUS
10
180.4331699999999898
20
-191.1653589999999951
11
180.4938269999999818
21
-190.8865239999999801
0
LINE
8
BLACK
6
CONTINUOUS
10
180.4938269999999818
20
-190.8865239999999801
11
180.5935489999999959
21
-190.6191589999999962
0
LINE
8
BLACK
6
CONTINUOUS
10
180.5935489999999959
20
-190.6191589999999962
11
180.7303059999999846
21
-190.3687070000000006
0
LINE
8
BLACK
6
CONTINUOUS
10
180.7303059999999846
20
-190.3687070000000006
11
180.9013139999999851
21
-190.1402679999999918
0
LINE
8
BLACK
6
CONTINUOUS
10
180.9013139999999851
20
-190.1402679999999918
11
181.1030920000000037
21
-189.9384900000000016
0
LINE
8
BLACK
6
CONTINUOUS
10
181.1030920000000037
20
-189.9384900000000016
11
181.331530999999984
21
-189.7674820000000011
0
LINE
8
BLACK
6
CONTINUOUS
10
181.331530999999984
20
-189.7674820000000011
11
181.5819829999999797
21
-189.630724999999984
0
LINE
8
BLACK
6
CONTINUOUS
10
181.5819829999999797
20
-189.630724999999984
11
181.849347999999992
21
-189.5310029999999983
0
LINE
8
BLACK
6
CONTINUOUS
10
181.849347999999992
20
-189.5310029999999983
11
182.1281829999999786
21
-189.4703459999999779
0
LINE
8
BLACK
6
CONTINUOUS
10
182.1281829999999786
20
-189.4703459999999779
11
182.4128129999999999
21
-189.449988999999988
0
LINE
8
BLACK
6
CONTINUOUS
10
182.4128129999999999
20
-189.449988999999988
11
182.6974429999999927
21
-189.4703459999999779
0
LINE
8
BLACK
6
CONTINUOUS
10
273.1160780000000159
20
-185.0234039999999993
11
273.3949129999999741
21
-185.0840609999999913
0
LINE
8
BLACK
6
CONTINUOUS
10
273.3949129999999741
20
-185.0840609999999913
11
273.6622780000000148
21
-185.1837830000000054
0
LINE
8
BLACK
6
CONTINUOUS
10
273.6622780000000148
20
-185.1837830000000054
11
273.9127300000000105
21
-185.3205399999999941
0
LINE
8
BLACK
6
CONTINUOUS
10
273.9127300000000105
20
-185.3205399999999941
11
274.1411689999999908
21
-185.4915479999999945
0
LINE
8
BLACK
6
CONTINUOUS
10
274.1411689999999908
20
-185.4915479999999945
11
274.342946999999981
21
-185.6933259999999848
0
LINE
8
BLACK
6
CONTINUOUS
10
274.342946999999981
20
-185.6933259999999848
11
274.5139550000000099
21
-185.9217649999999935
0
LINE
8
BLACK
6
CONTINUOUS
10
274.5139550000000099
20
-185.9217649999999935
11
274.6507119999999986
21
-186.1722169999999892
0
LINE
8
BLACK
6
CONTINUOUS
10
274.6507119999999986
20
-186.1722169999999892
11
274.7504339999999843
21
-186.4395820000000015
0
LINE
8
BLACK
6
CONTINUOUS
10
274.7504339999999843
20
-186.4395820000000015
11
274.8110909999999762
21
-186.7184169999999881
0
LINE
8
BLACK
6
CONTINUOUS
10
274.8110909999999762
20
-186.7184169999999881
11
274.8314479999999662
21
-187.0030469999999809
0
LINE
8
BLACK
6
CONTINUOUS
10
274.8314479999999662
20
-187.0030469999999809
11
274.8110909999999762
21
-187.2876770000000022
0
LINE
8
BLACK
6
CONTINUOUS
10
274.8110909999999762
20
-187.2876770000000022
11
274.7504339999999843
21
-187.5665119999999888
0
LINE
8
BLACK
6
CONTINUOUS
10
274.7504339999999843
20
-187.5665119999999888
11
274.6507119999999986
21
-187.8338770000000011
0
LINE
8
BLACK
6
CONTINUOUS
10
274.6507119999999986
20
-187.8338770000000011
11
274.5139550000000099
21
-188.0843289999999968
0
LINE
8
BLACK
6
CONTINUOUS
10
274.5139550000000099
20
-188.0843289999999968
11
274.342946999999981
21
-188.3127680000000055
0
LINE
8
BLACK
6
CONTINUOUS
10
274.342946999999981
20
-188.3127680000000055
11
274.1411689999999908
21
-188.5145459999999957
0
LINE
8
BLACK
6
CONTINUOUS
10
274.1411689999999908
20
-188.5145459999999957
11
273.9127300000000105
21
-188.6855539999999962
0
LINE
8
BLACK
6
CONTINUOUS
10
273.9127300000000105
20
-188.6855539999999962
11
273.6622780000000148
21
-188.8223109999999849
0
LINE
8
BLACK
6
CONTINUOUS
10
273.6622780000000148
20
-188.8223109999999849
11
273.3949129999999741
21
-188.922032999999999
0
LINE
8
BLACK
6
CONTINUOUS
10
273.3949129999999741
20
-188.922032999999999
11
273.1160780000000159
21
-188.982689999999991
0
LINE
8
BLACK
6
CONTINUOUS
10
273.1160780000000159
20
-188.982689999999991
11
272.8314479999999662
21
-189.0030469999999809
0
LINE
8
BLACK
6
CONTINUOUS
10
272.8314479999999662
20
-189.0030469999999809
11
272.5468179999999734
21
-188.982689999999991
0
LINE
8
BLACK
6
CONTINUOUS
10
272.5468179999999734
20
-188.982689999999991
11
272.2679830000000152
21
-188.922032999999999
0
LINE
8
BLACK
6
CONTINUOUS
10
272.2679830000000152
20
-188.922032999999999
11
272.0006179999999745
21
-188.8223109999999849
0
LINE
8
BLACK
6
CONTINUOUS
10
272.0006179999999745
20
-188.8223109999999849
11
271.7501659999999788
21
-188.6855539999999962
0
LINE
8
BLACK
6
CONTINUOUS
10
271.7501659999999788
20
-188.6855539999999962
11
271.5217269999999985
21
-188.5145459999999957
0
LINE
8
BLACK
6
CONTINUOUS
10
271.5217269999999985
20
-188.5145459999999957
11
271.3199490000000083
21
-188.3127680000000055
0
LINE
8
BLACK
6
CONTINUOUS
10
271.3199490000000083
20
-188.3127680000000055
11
271.1489409999999793
21
-188.0843289999999968
0
LINE
8
BLACK
6
CONTINUOUS
10
271.1489409999999793
20
-188.0843289999999968
11
271.0121839999999906
21
-187.8338770000000011
0
LINE
8
BLACK
6
CONTINUOUS
10
271.0121839999999906
20
-187.8338770000000011
11
270.912462000000005
21
-187.5665119999999888
0
LINE
8
BLACK
6
CONTINUOUS
10
270.912462000000005
20
-187.5665119999999888
11
270.851805000000013
21
-187.2876770000000022
0
LINE
8
BLACK
6
CONTINUOUS
10
270.851805000000013
20
-187.2876770000000022
11
270.8314479999999662
21
-187.0030469999999809
0
LINE
8
BLACK
6
CONTINUOUS
10
270.8314479999999662
20
-187.0030469999999809
11
270.851805000000013
21
-186.7184169999999881
0
LINE
8
BLACK
6
CONTINUOUS
10
270.851805000000013
20
-186.7184169999999881
11
270.912462000000005
21
-186.4395820000000015
0
LINE
8
BLACK
6
CONTINUOUS
10
270.912462000000005
20
-186.4395820000000015
11
271.0121839999999906
21
-186.1722169999999892
0
LINE
8
BLACK
6
CONTINUOUS
10
271.0121839999999906
20
-186.1722169999999892
11
271.1489409999999793
21
-185.9217649999999935
0
LINE
8
BLACK
6
CONTINUOUS
10
271.1489409999999793
20
-185.9217649999999935
11
271.3199490000000083
21
-185.6933259999999848
0
LINE
8
BLACK
6
CONTINUOUS
10
271.3199490000000083
20
-185.6933259999999848
11
271.5217269999999985
21
-185.4915479999999945
0
LINE
8
BLACK
6
CONTINUOUS
10
271.5217269999999985
20
-185.4915479999999945
11
271.7501659999999788
21
-185.3205399999999941
0
LINE
8
BLACK
6
CONTINUOUS
10
271.7501659999999788
20
-185.3205399999999941
11
272.0006179999999745
21
-185.1837830000000054
0
LINE
8
BLACK
6
CONTINUOUS
10
272.0006179999999745
20
-185.1837830000000054
11
272.2679830000000152
21
-185.0840609999999913
0
LINE
8
BLACK
6
CONTINUOUS
10
272.2679830000000152
20
-185.0840609999999913
11
272.5468179999999734
21
-185.0234039999999993
0
LINE
8
BLACK
6
CONTINUOUS
10
272.5468179999999734
20
-185.0234039999999993
11
272.8314479999999662
21
-185.0030469999999809
0
LINE
8
BLACK
6
CONTINUOUS
10
272.8314479999999662
20
-185.0030469999999809
11
273.1160780000000159
21
-185.0234039999999993
0
LINE
8
BLACK
6
CONTINUOUS
10
152.3066900000000032
20
-184.9506350000000054
11
152.5855249999999899
21
-185.0112919999999974
0
LINE
8
BLACK
6
CONTINUOUS
10
152.5855249999999899
20
-185.0112919999999974
11
152.8528900000000021
21
-185.1110139999999831
0
LINE
8
BLACK
6
CONTINUOUS
10
152.8528900000000021
20
-185.1110139999999831
11
153.1033419999999978
21
-185.2477710000000002
0
LINE
8
BLACK
6
CONTINUOUS
10
153.1033419999999978
20
-185.2477710000000002
11
153.3317810000000065
21
-185.4187790000000007
0
LINE
8
BLACK
6
CONTINUOUS
10
153.3317810000000065
20
-185.4187790000000007
11
153.5335589999999968
21
-185.6205569999999909
0
LINE
8
BLACK
6
CONTINUOUS
10
153.5335589999999968
20
-185.6205569999999909
11
153.7045669999999973
21
-185.8489959999999996
0
LINE
8
BLACK
6
CONTINUOUS
10
153.7045669999999973
20
-185.8489959999999996
11
153.841323999999986
21
-186.0994479999999953
0
LINE
8
BLACK
6
CONTINUOUS
10
153.841323999999986
20
-186.0994479999999953
11
153.941046
21
-186.3668129999999792
0
LINE
8
BLACK
6
CONTINUOUS
10
153.941046
20
-186.3668129999999792
11
154.001702999999992
21
-186.6456479999999942
0
LINE
8
BLACK
6
CONTINUOUS
10
154.001702999999992
20
-186.6456479999999942
11
154.022059999999982
21
-186.9302779999999871
0
LINE
8
BLACK
6
CONTINUOUS
10
154.022059999999982
20
-186.9302779999999871
11
154.001702999999992
21
-187.2149079999999799
0
LINE
8
BLACK
6
CONTINUOUS
10
154.001702999999992
20
-187.2149079999999799
11
153.941046
21
-187.4937429999999949
0
LINE
8
BLACK
6
CONTINUOUS
10
153.941046
20
-187.4937429999999949
11
153.841323999999986
21
-187.7611079999999788
0
LINE
8
BLACK
6
CONTINUOUS
10
153.841323999999986
20
-187.7611079999999788
11
153.7045669999999973
21
-188.0115600000000029
0
LINE
8
BLACK
6
CONTINUOUS
10
153.7045669999999973
20
-188.0115600000000029
11
153.5335589999999968
21
-188.2399989999999832
0
LINE
8
BLACK
6
CONTINUOUS
10
153.5335589999999968
20
-188.2399989999999832
11
153.3317810000000065
21
-188.4417770000000019
0
LINE
8
BLACK
6
CONTINUOUS
10
153.3317810000000065
20
-188.4417770000000019
11
153.1033419999999978
21
-188.6127850000000024
0
LINE
8
BLACK
6
CONTINUOUS
10
153.1033419999999978
20
-188.6127850000000024
11
152.8528900000000021
21
-188.749541999999991
0
LINE
8
BLACK
6
CONTINUOUS
10
152.8528900000000021
20
-188.749541999999991
11
152.5855249999999899
21
-188.8492640000000051
0
LINE
8
BLACK
6
CONTINUOUS
10
152.5855249999999899
20
-188.8492640000000051
11
152.3066900000000032
21
-188.9099209999999971
0
LINE
8
BLACK
6
CONTINUOUS
10
152.3066900000000032
20
-188.9099209999999971
11
152.022059999999982
21
-188.9302779999999871
0
LINE
8
BLACK
6
CONTINUOUS
10
152.022059999999982
20
-188.9302779999999871
11
151.7374299999999891
21
-188.9099209999999971
0
LINE
8
BLACK
6
CONTINUOUS
10
151.7374299999999891
20
-188.9099209999999971
11
151.4585950000000025
21
-188.8492640000000051
0
LINE
8
BLACK
6
CONTINUOUS
10
151.4585950000000025
20
-188.8492640000000051
11
151.1912299999999902
21
-188.749541999999991
0
LINE
8
BLACK
6
CONTINUOUS
10
151.1912299999999902
20
-188.749541999999991
11
150.9407779999999946
21
-188.6127850000000024
0
LINE
8
BLACK
6
CONTINUOUS
10
150.9407779999999946
20
-188.6127850000000024
11
150.7123389999999858
21
-188.4417770000000019
0
LINE
8
BLACK
6
CONTINUOUS
10
150.7123389999999858
20
-188.4417770000000019
11
150.5105609999999956
21
-188.2399989999999832
0
LINE
8
BLACK
6
CONTINUOUS
10
150.5105609999999956
20
-188.2399989999999832
11
150.3395529999999951
21
-188.0115600000000029
0
LINE
8
BLACK
6
CONTINUOUS
10
150.3395529999999951
20
-188.0115600000000029
11
150.2027960000000064
21
-187.7611079999999788
0
LINE
8
BLACK
6
CONTINUOUS
10
150.2027960000000064
20
-187.7611079999999788
11
150.1030739999999923
21
-187.4937429999999949
0
LINE
8
BLACK
6
CONTINUOUS
10
150.1030739999999923
20
-187.4937429999999949
11
150.0424170000000004
21
-187.2149079999999799
0
LINE
8
BLACK
6
CONTINUOUS
10
150.0424170000000004
20
-187.2149079999999799
11
150.022059999999982
21
-186.9302779999999871
0
LINE
8
BLACK
6
CONTINUOUS
10
150.022059999999982
20
-186.9302779999999871
11
150.0424170000000004
21
-186.6456479999999942
0
LINE
8
BLACK
6
CONTINUOUS
10
150.0424170000000004
20
-186.6456479999999942
11
150.1030739999999923
21
-186.3668129999999792
0
LINE
8
BLACK
6
CONTINUOUS
10
150.1030739999999923
20
-186.3668129999999792
11
150.2027960000000064
21
-186.0994479999999953
0
LINE
8
BLACK
6
CONTINUOUS
10
150.2027960000000064
20
-186.0994479999999953
11
150.3395529999999951
21
-185.8489959999999996
0
LINE
8
BLACK
6
CONTINUOUS
10
150.3395529999999951
20
-185.8489959999999996
11
150.5105609999999956
21
-185.6205569999999909
0
LINE
8
BLACK
6
CONTINUOUS
10
150.5105609999999956
20
-185.6205569999999909
11
150.7123389999999858
21
-185.4187790000000007
0
LINE
8
BLACK
6
CONTINUOUS
10
150.7123389999999858
20
-185.4187790000000007
11
150.9407779999999946
21
-185.2477710000000002
0
LINE
8
BLACK
6
CONTINUOUS
10
150.9407779999999946
20
-185.2477710000000002
11
151.1912299999999902
21
-185.1110139999999831
0
LINE
8
BLACK
6
CONTINUOUS
10
151.1912299999999902
20
-185.1110139999999831
11
151.4585950000000025
21
-185.0112919999999974
0
LINE
8
BLACK
6
CONTINUOUS
10
151.4585950000000025
20
-185.0112919999999974
11
151.7374299999999891
21
-184.9506350000000054
0
LINE
8
BLACK
6
CONTINUOUS
10
151.7374299999999891
20
-184.9506350000000054
11
152.022059999999982
21
-184.9302779999999871
0
LINE
8
BLACK
6
CONTINUOUS
10
152.022059999999982
20
-184.9302779999999871
11
152.3066900000000032
21
-184.9506350000000054
0
LINE
8
BLACK
6
CONTINUOUS
10
347.4896139999999605
20
-168.1750209999999868
11
347.7684489999999755
21
-168.2356779999999787
0
LINE
8
BLACK
6
CONTINUOUS
10
347.7684489999999755
20
-168.2356779999999787
11
348.0358139999999594
21
-168.3353999999999928
0
LINE
8
BLACK
6
CONTINUOUS
10
348.0358139999999594
20
-168.3353999999999928
11
348.2862660000000119
21
-168.4721569999999815
0
LINE
8
BLACK
6
CONTINUOUS
10
348.2862660000000119
20
-168.4721569999999815
11
348.5147049999999922
21
-168.643164999999982
0
LINE
8
BLACK
6
CONTINUOUS
10
348.5147049999999922
20
-168.643164999999982
11
348.7164829999999824
21
-168.8449430000000007
0
LINE
8
BLACK
6
CONTINUOUS
10
348.7164829999999824
20
-168.8449430000000007
11
348.8874910000000114
21
-169.073381999999981
0
LINE
8
BLACK
6
CONTINUOUS
10
348.8874910000000114
20
-169.073381999999981
11
349.024248
21
-169.3238340000000051
0
LINE
8
BLACK
6
CONTINUOUS
10
349.024248
20
-169.3238340000000051
11
349.1239699999999857
21
-169.5911989999999889
0
LINE
8
BLACK
6
CONTINUOUS
10
349.1239699999999857
20
-169.5911989999999889
11
349.1846269999999777
21
-169.870034000000004
0
LINE
8
BLACK
6
CONTINUOUS
10
349.1846269999999777
20
-169.870034000000004
11
349.2049839999999676
21
-170.1546639999999968
0
LINE
8
BLACK
6
CONTINUOUS
10
349.2049839999999676
20
-170.1546639999999968
11
349.1846269999999777
21
-170.4392939999999896
0
LINE
8
BLACK
6
CONTINUOUS
10
349.1846269999999777
20
-170.4392939999999896
11
349.1239699999999857
21
-170.7181290000000047
0
LINE
8
BLACK
6
CONTINUOUS
10
349.1239699999999857
20
-170.7181290000000047
11
349.024248
21
-170.9854939999999885
0
LINE
8
BLACK
6
CONTINUOUS
10
349.024248
20
-170.9854939999999885
11
348.8874910000000114
21
-171.2359459999999842
0
LINE
8
BLACK
6
CONTINUOUS
10
348.8874910000000114
20
-171.2359459999999842
11
348.7164829999999824
21
-171.4643849999999929
0
LINE
8
BLACK
6
CONTINUOUS
10
348.7164829999999824
20
-171.4643849999999929
11
348.5147049999999922
21
-171.6661629999999832
0
LINE
8
BLACK
6
CONTINUOUS
10
348.5147049999999922
20
-171.6661629999999832
11
348.2862660000000119
21
-171.8371709999999837
0
LINE
8
BLACK
6
CONTINUOUS
10
348.2862660000000119
20
-171.8371709999999837
11
348.0358139999999594
21
-171.9739280000000008
0
LINE
8
BLACK
6
CONTINUOUS
10
348.0358139999999594
20
-171.9739280000000008
11
347.7684489999999755
21
-172.0736499999999864
0
LINE
8
BLACK
6
CONTINUOUS
10
347.7684489999999755
20
-172.0736499999999864
11
347.4896139999999605
21
-172.1343069999999784
0
LINE
8
BLACK
6
CONTINUOUS
10
347.4896139999999605
20
-172.1343069999999784
11
347.2049839999999676
21
-172.1546639999999968
0
LINE
8
BLACK
6
CONTINUOUS
10
347.2049839999999676
20
-172.1546639999999968
11
346.9203539999999748
21
-172.1343069999999784
0
LINE
8
BLACK
6
CONTINUOUS
10
346.9203539999999748
20
-172.1343069999999784
11
346.6415189999999598
21
-172.0736499999999864
0
LINE
8
BLACK
6
CONTINUOUS
10
346.6415189999999598
20
-172.0736499999999864
11
346.3741539999999759
21
-171.9739280000000008
0
LINE
8
BLACK
6
CONTINUOUS
10
346.3741539999999759
20
-171.9739280000000008
11
346.1237019999999802
21
-171.8371709999999837
0
LINE
8
BLACK
6
CONTINUOUS
10
346.1237019999999802
20
-171.8371709999999837
11
345.8952629999999999
21
-171.6661629999999832
0
LINE
8
BLACK
6
CONTINUOUS
10
345.8952629999999999
20
-171.6661629999999832
11
345.6934850000000097
21
-171.4643849999999929
0
LINE
8
BLACK
6
CONTINUOUS
10
345.6934850000000097
20
-171.4643849999999929
11
345.5224769999999808
21
-171.2359459999999842
0
LINE
8
BLACK
6
CONTINUOUS
10
345.5224769999999808
20
-171.2359459999999842
11
345.3857199999999921
21
-170.9854939999999885
0
LINE
8
BLACK
6
CONTINUOUS
10
345.3857199999999921
20
-170.9854939999999885
11
345.2859980000000064
21
-170.7181290000000047
0
LINE
8
BLACK
6
CONTINUOUS
10
345.2859980000000064
20
-170.7181290000000047
11
345.2253409999999576
21
-170.4392939999999896
0
LINE
8
BLACK
6
CONTINUOUS
10
345.2253409999999576
20
-170.4392939999999896
11
345.2049839999999676
21
-170.1546639999999968
0
LINE
8
BLACK
6
CONTINUOUS
10
345.2049839999999676
20
-170.1546639999999968
11
345.2253409999999576
21
-169.870034000000004
0
LINE
8
BLACK
6
CONTINUOUS
10
345.2253409999999576
20
-169.870034000000004
11
345.2859980000000064
21
-169.5911989999999889
0
LINE
8
BLACK
6
CONTINUOUS
10
345.2859980000000064
20
-169.5911989999999889
11
345.3857199999999921
21
-169.3238340000000051
0
LINE
8
BLACK
6
CONTINUOUS
10
345.3857199999999921
20
-169.3238340000000051
11
345.5224769999999808
21
-169.073381999999981
0
LINE
8
BLACK
6
CONTINUOUS
10
345.5224769999999808
20
-169.073381999999981
11
345.6934850000000097
21
-168.8449430000000007
0
LINE
8
BLACK
6
CONTINUOUS
10
345.6934850000000097
20
-168.8449430000000007
11
345.8952629999999999
21
-168.643164999999982
0
LINE
8
BLACK
6
CONTINUOUS
10
345.8952629999999999
20
-168.643164999999982
11
346.1237019999999802
21
-168.4721569999999815
0
LINE
8
BLACK
6
CONTINUOUS
10
346.1237019999999802
20
-168.4721569999999815
11
346.3741539999999759
21
-168.3353999999999928
0
LINE
8
BLACK
6
CONTINUOUS
10
346.3741539999999759
20
-168.3353999999999928
11
346.6415189999999598
21
-168.2356779999999787
0
LINE
8
BLACK
6
CONTINUOUS
10
346.6415189999999598
20
-168.2356779999999787
11
346.9203539999999748
21
-168.1750209999999868
0
LINE
8
BLACK
6
CONTINUOUS
10
346.9203539999999748
20
-168.1750209999999868
11
347.2049839999999676
21
-168.1546639999999968
0
LINE
8
BLACK
6
CONTINUOUS
10
347.2049839999999676
20
-168.1546639999999968
11
347.4896139999999605
21
-168.1750209999999868
0
LINE
8
BLACK
6
CONTINUOUS
10
77.9331559999999968
20
-168.1022529999999904
11
78.2119909999999976
21
-168.1629099999999823
0
LINE
8
BLACK
6
CONTINUOUS
10
78.2119909999999976
20
-168.1629099999999823
11
78.4793559999999957
21
-168.2626319999999964
0
LINE
8
BLACK
6
CONTINUOUS
10
78.4793559999999957
20
-168.2626319999999964
11
78.7298079999999914
21
-168.3993889999999851
0
LINE
8
BLACK
6
CONTINUOUS
10
78.7298079999999914
20
-168.3993889999999851
11
78.9582470000000001
21
-168.5703969999999856
0
LINE
8
BLACK
6
CONTINUOUS
10
78.9582470000000001
20
-168.5703969999999856
11
79.1600249999999903
21
-168.7721750000000043
0
LINE
8
BLACK
6
CONTINUOUS
10
79.1600249999999903
20
-168.7721750000000043
11
79.3310329999999908
21
-169.0006139999999846
0
LINE
8
BLACK
6
CONTINUOUS
10
79.3310329999999908
20
-169.0006139999999846
11
79.4677899999999937
21
-169.2510659999999802
0
LINE
8
BLACK
6
CONTINUOUS
10
79.4677899999999937
20
-169.2510659999999802
11
79.5675119999999936
21
-169.5184309999999925
0
LINE
8
BLACK
6
CONTINUOUS
10
79.5675119999999936
20
-169.5184309999999925
11
79.6281689999999998
21
-169.7972659999999792
0
LINE
8
BLACK
6
CONTINUOUS
10
79.6281689999999998
20
-169.7972659999999792
11
79.6485259999999897
21
-170.0818960000000004
0
LINE
8
BLACK
6
CONTINUOUS
10
79.6485259999999897
20
-170.0818960000000004
11
79.6281689999999998
21
-170.3665259999999932
0
LINE
8
BLACK
6
CONTINUOUS
10
79.6281689999999998
20
-170.3665259999999932
11
79.5675119999999936
21
-170.6453609999999799
0
LINE
8
BLACK
6
CONTINUOUS
10
79.5675119999999936
20
-170.6453609999999799
11
79.4677899999999937
21
-170.9127259999999922
0
LINE
8
BLACK
6
CONTINUOUS
10
79.4677899999999937
20
-170.9127259999999922
11
79.3310329999999908
21
-171.1631779999999878
0
LINE
8
BLACK
6
CONTINUOUS
10
79.3310329999999908
20
-171.1631779999999878
11
79.1600249999999903
21
-171.3916169999999966
0
LINE
8
BLACK
6
CONTINUOUS
10
79.1600249999999903
20
-171.3916169999999966
11
78.9582470000000001
21
-171.5933949999999868
0
LINE
8
BLACK
6
CONTINUOUS
10
78.9582470000000001
20
-171.5933949999999868
11
78.7298079999999914
21
-171.7644029999999873
0
LINE
8
BLACK
6
CONTINUOUS
10
78.7298079999999914
20
-171.7644029999999873
11
78.4793559999999957
21
-171.9011600000000044
0
LINE
8
BLACK
6
CONTINUOUS
10
78.4793559999999957
20
-171.9011600000000044
11
78.2119909999999976
21
-172.0008819999999901
0
LINE
8
BLACK
6
CONTINUOUS
10
78.2119909999999976
20
-172.0008819999999901
11
77.9331559999999968
21
-172.061538999999982
0
LINE
8
BLACK
6
CONTINUOUS
10
77.9331559999999968
20
-172.061538999999982
11
77.6485259999999897
21
-172.0818960000000004
0
LINE
8
BLACK
6
CONTINUOUS
10
77.6485259999999897
20
-172.0818960000000004
11
77.3638959999999969
21
-172.061538999999982
0
LINE
8
BLACK
6
CONTINUOUS
10
77.3638959999999969
20
-172.061538999999982
11
77.0850609999999961
21
-172.0008819999999901
0
LINE
8
BLACK
6
CONTINUOUS
10
77.0850609999999961
20
-172.0008819999999901
11
76.817695999999998
21
-171.9011600000000044
0
LINE
8
BLACK
6
CONTINUOUS
10
76.817695999999998
20
-171.9011600000000044
11
76.5672440000000023
21
-171.7644029999999873
0
LINE
8
BLACK
6
CONTINUOUS
10
76.5672440000000023
20
-171.7644029999999873
11
76.3388049999999936
21
-171.5933949999999868
0
LINE
8
BLACK
6
CONTINUOUS
10
76.3388049999999936
20
-171.5933949999999868
11
76.1370270000000033
21
-171.3916169999999966
0
LINE
8
BLACK
6
CONTINUOUS
10
76.1370270000000033
20
-171.3916169999999966
11
75.9660190000000028
21
-171.1631779999999878
0
LINE
8
BLACK
6
CONTINUOUS
10
75.9660190000000028
20
-171.1631779999999878
11
75.8292619999999999
21
-170.9127259999999922
0
LINE
8
BLACK
6
CONTINUOUS
10
75.8292619999999999
20
-170.9127259999999922
11
75.7295400000000001
21
-170.6453609999999799
0
LINE
8
BLACK
6
CONTINUOUS
10
75.7295400000000001
20
-170.6453609999999799
11
75.6688829999999939
21
-170.3665259999999932
0
LINE
8
BLACK
6
CONTINUOUS
10
75.6688829999999939
20
-170.3665259999999932
11
75.6485259999999897
21
-170.0818960000000004
0
LINE
8
BLACK
6
CONTINUOUS
10
75.6485259999999897
20
-170.0818960000000004
11
75.6688829999999939
21
-169.7972659999999792
0
LINE
8
BLACK
6
CONTINUOUS
10
75.6688829999999939
20
-169.7972659999999792
11
75.7295400000000001
21
-169.5184309999999925
0
LINE
8
BLACK
6
CONTINUOUS
10
75.7295400000000001
20
-169.5184309999999925
11
75.8292619999999999
21
-169.2510659999999802
0
LINE
8
BLACK
6
CONTINUOUS
10
75.8292619999999999
20
-169.2510659999999802
11
75.9660190000000028
21
-169.0006139999999846
0
LINE
8
BLACK
6
CONTINUOUS
10
75.9660190000000028
20
-169.0006139999999846
11
76.1370270000000033
21
-168.7721750000000043
0
LINE
8
BLACK
6
CONTINUOUS
10
76.1370270000000033
20
-168.7721750000000043
11
76.3388049999999936
21
-168.5703969999999856
0
LINE
8
BLACK
6
CONTINUOUS
10
76.3388049999999936
20
-168.5703969999999856
11
76.5672440000000023
21
-168.3993889999999851
0
LINE
8
BLACK
6
CONTINUOUS
10
76.5672440000000023
20
-168.3993889999999851
11
76.817695999999998
21
-168.2626319999999964
0
LINE
8
BLACK
6
CONTINUOUS
10
76.817695999999998
20
-168.2626319999999964
11
77.0850609999999961
21
-168.1629099999999823
0
LINE
8
BLACK
6
CONTINUOUS
10
77.0850609999999961
20
-168.1629099999999823
11
77.3638959999999969
21
-168.1022529999999904
0
LINE
8
BLACK
6
CONTINUOUS
10
77.3638959999999969
20
-168.1022529999999904
11
77.6485259999999897
21
-168.0818960000000004
0
LINE
8
BLACK
6
CONTINUOUS
10
77.6485259999999897
20
-168.0818960000000004
11
77.9331559999999968
21
-168.1022529999999904
0
LINE
8
BLACK
6
CONTINUOUS
10
258.3116289999999822
20
-129.7724469999999997
11
258.5904639999999972
21
-129.8331039999999916
0
LINE
8
BLACK
6
CONTINUOUS
10
258.5904639999999972
20
-129.8331039999999916
11
258.8578289999999811
21
-129.9328260000000057
0
LINE
8
BLACK
6
CONTINUOUS
10
258.8578289999999811
20
-129.9328260000000057
11
259.1082809999999768
21
-130.0695829999999944
0
LINE
8
BLACK
6
CONTINUOUS
10
259.1082809999999768
20
-130.0695829999999944
11
259.3367200000000139
21
-130.2405909999999949
0
LINE
8
BLACK
6
CONTINUOUS
10
259.3367200000000139
20
-130.2405909999999949
11
259.5384980000000041
21
-130.4423689999999851
0
LINE
8
BLACK
6
CONTINUOUS
10
259.5384980000000041
20
-130.4423689999999851
11
259.7095059999999762
21
-130.6708079999999939
0
LINE
8
BLACK
6
CONTINUOUS
10
259.7095059999999762
20
-130.6708079999999939
11
259.8462629999999649
21
-130.9212599999999895
0
LINE
8
BLACK
6
CONTINUOUS
10
259.8462629999999649
20
-130.9212599999999895
11
259.9459850000000074
21
-131.1886250000000018
0
LINE
8
BLACK
6
CONTINUOUS
10
259.9459850000000074
20
-131.1886250000000018
11
260.0066419999999994
21
-131.4674599999999884
0
LINE
8
BLACK
6
CONTINUOUS
10
260.0066419999999994
20
-131.4674599999999884
11
260.0269989999999893
21
-131.7520899999999813
0
LINE
8
BLACK
6
CONTINUOUS
10
260.0269989999999893
20
-131.7520899999999813
11
260.0066419999999994
21
-132.0367200000000025
0
LINE
8
BLACK
6
CONTINUOUS
10
260.0066419999999994
20
-132.0367200000000025
11
259.9459850000000074
21
-132.3155549999999891
0
LINE
8
BLACK
6
CONTINUOUS
10
259.9459850000000074
20
-132.3155549999999891
11
259.8462629999999649
21
-132.5829200000000014
0
LINE
8
BLACK
6
CONTINUOUS
10
259.8462629999999649
20
-132.5829200000000014
11
259.7095059999999762
21
-132.8333719999999971
0
LINE
8
BLACK
6
CONTINUOUS
10
259.7095059999999762
20
-132.8333719999999971
11
259.5384980000000041
21
-133.0618110000000058
0
LINE
8
BLACK
6
CONTINUOUS
10
259.5384980000000041
20
-133.0618110000000058
11
259.3367200000000139
21
-133.2635889999999961
0
LINE
8
BLACK
6
CONTINUOUS
10
259.3367200000000139
20
-133.2635889999999961
11
259.1082809999999768
21
-133.4345969999999966
0
LINE
8
BLACK
6
CONTINUOUS
10
259.1082809999999768
20
-133.4345969999999966
11
258.8578289999999811
21
-133.5713539999999853
0
LINE
8
BLACK
6
CONTINUOUS
10
258.8578289999999811
20
-133.5713539999999853
11
258.5904639999999972
21
-133.6710759999999993
0
LINE
8
BLACK
6
CONTINUOUS
10
258.5904639999999972
20
-133.6710759999999993
11
258.3116289999999822
21
-133.7317329999999913
0
LINE
8
BLACK
6
CONTINUOUS
10
258.3116289999999822
20
-133.7317329999999913
11
258.0269989999999893
21
-133.7520899999999813
0
LINE
8
BLACK
6
CONTINUOUS
10
258.0269989999999893
20
-133.7520899999999813
11
257.7423689999999965
21
-133.7317329999999913
0
LINE
8
BLACK
6
CONTINUOUS
10
257.7423689999999965
20
-133.7317329999999913
11
257.4635339999999815
21
-133.6710759999999993
0
LINE
8
BLACK
6
CONTINUOUS
10
257.4635339999999815
20
-133.6710759999999993
11
257.1961689999999976
21
-133.5713539999999853
0
LINE
8
BLACK
6
CONTINUOUS
10
257.1961689999999976
20
-133.5713539999999853
11
256.9457170000000019
21
-133.4345969999999966
0
LINE
8
BLACK
6
CONTINUOUS
10
256.9457170000000019
20
-133.4345969999999966
11
256.7172779999999648
21
-133.2635889999999961
0
LINE
8
BLACK
6
CONTINUOUS
10
256.7172779999999648
20
-133.2635889999999961
11
256.5154999999999745
21
-133.0618110000000058
0
LINE
8
BLACK
6
CONTINUOUS
10
256.5154999999999745
20
-133.0618110000000058
11
256.3444920000000025
21
-132.8333719999999971
0
LINE
8
BLACK
6
CONTINUOUS
10
256.3444920000000025
20
-132.8333719999999971
11
256.2077350000000138
21
-132.5829200000000014
0
LINE
8
BLACK
6
CONTINUOUS
10
256.2077350000000138
20
-132.5829200000000014
11
256.1080129999999713
21
-132.3155549999999891
0
LINE
8
BLACK
6
CONTINUOUS
10
256.1080129999999713
20
-132.3155549999999891
11
256.0473559999999793
21
-132.0367200000000025
0
LINE
8
BLACK
6
CONTINUOUS
10
256.0473559999999793
20
-132.0367200000000025
11
256.0269989999999893
21
-131.7520899999999813
0
LINE
8
BLACK
6
CONTINUOUS
10
256.0269989999999893
20
-131.7520899999999813
11
256.0473559999999793
21
-131.4674599999999884
0
LINE
8
BLACK
6
CONTINUOUS
10
256.0473559999999793
20
-131.4674599999999884
11
256.1080129999999713
21
-131.1886250000000018
0
LINE
8
BLACK
6
CONTINUOUS
10
256.1080129999999713
20
-131.1886250000000018
11
256.2077350000000138
21
-130.9212599999999895
0
LINE
8
BLACK
6
CONTINUOUS
10
256.2077350000000138
20
-130.9212599999999895
11
256.3444920000000025
21
-130.6708079999999939
0
LINE
8
BLACK
6
CONTINUOUS
10
256.3444920000000025
20
-130.6708079999999939
11
256.5154999999999745
21
-130.4423689999999851
0
LINE
8
BLACK
6
CONTINUOUS
10
256.5154999999999745
20
-130.4423689999999851
11
256.7172779999999648
21
-130.2405909999999949
0
LINE
8
BLACK
6
CONTINUOUS
10
256.7172779999999648
20
-130.2405909999999949
11
256.9457170000000019
21
-130.0695829999999944
0
LINE
8
BLACK
6
CONTINUOUS
10
256.9457170000000019
20
-130.0695829999999944
11
257.1961689999999976
21
-129.9328260000000057
0
LINE
8
BLACK
6
CONTINUOUS
10
257.1961689999999976
20
-129.9328260000000057
11
257.4635339999999815
21
-129.8331039999999916
0
LINE
8
BLACK
6
CONTINUOUS
10
257.4635339999999815
20
-129.8331039999999916
11
257.7423689999999965
21
-129.7724469999999997
0
LINE
8
BLACK
6
CONTINUOUS
10
257.7423689999999965
20
-129.7724469999999997
11
258.0269989999999893
21
-129.7520899999999813
0
LINE
8
BLACK
6
CONTINUOUS
10
258.0269989999999893
20
-129.7520899999999813
11
258.3116289999999822
21
-129.7724469999999997
0
LINE
8
BLACK
6
CONTINUOUS
10
167.1111389999999801
20
-129.6996790000000033
11
167.3899739999999952
21
-129.7603359999999952
0
LINE
8
BLACK
6
CONTINUOUS
10
167.3899739999999952
20
-129.7603359999999952
11
167.657338999999979
21
-129.8600579999999809
0
LINE
8
BLACK
6
CONTINUOUS
10
167.657338999999979
20
-129.8600579999999809
11
167.9077910000000031
21
-129.996814999999998
0
LINE
8
BLACK
6
CONTINUOUS
10
167.9077910000000031
20
-129.996814999999998
11
168.1362299999999834
21
-130.1678229999999985
0
LINE
8
BLACK
6
CONTINUOUS
10
168.1362299999999834
20
-130.1678229999999985
11
168.3380080000000021
21
-130.3696009999999887
0
LINE
8
BLACK
6
CONTINUOUS
10
168.3380080000000021
20
-130.3696009999999887
11
168.5090160000000026
21
-130.5980399999999975
0
LINE
8
BLACK
6
CONTINUOUS
10
168.5090160000000026
20
-130.5980399999999975
11
168.6457729999999913
21
-130.8484919999999931
0
LINE
8
BLACK
6
CONTINUOUS
10
168.6457729999999913
20
-130.8484919999999931
11
168.7454950000000053
21
-131.1158570000000054
0
LINE
8
BLACK
6
CONTINUOUS
10
168.7454950000000053
20
-131.1158570000000054
11
168.8061519999999973
21
-131.394691999999992
0
LINE
8
BLACK
6
CONTINUOUS
10
168.8061519999999973
20
-131.394691999999992
11
168.8265089999999873
21
-131.6793219999999849
0
LINE
8
BLACK
6
CONTINUOUS
10
168.8265089999999873
20
-131.6793219999999849
11
168.8061519999999973
21
-131.9639520000000061
0
LINE
8
BLACK
6
CONTINUOUS
10
168.8061519999999973
20
-131.9639520000000061
11
168.7454950000000053
21
-132.2427869999999928
0
LINE
8
BLACK
6
CONTINUOUS
10
168.7454950000000053
20
-132.2427869999999928
11
168.6457729999999913
21
-132.510152000000005
0
LINE
8
BLACK
6
CONTINUOUS
10
168.6457729999999913
20
-132.510152000000005
11
168.5090160000000026
21
-132.7606040000000007
0
LINE
8
BLACK
6
CONTINUOUS
10
168.5090160000000026
20
-132.7606040000000007
11
168.3380080000000021
21
-132.989042999999981
0
LINE
8
BLACK
6
CONTINUOUS
10
168.3380080000000021
20
-132.989042999999981
11
168.1362299999999834
21
-133.1908209999999997
0
LINE
8
BLACK
6
CONTINUOUS
10
168.1362299999999834
20
-133.1908209999999997
11
167.9077910000000031
21
-133.3618290000000002
0
LINE
8
BLACK
6
CONTINUOUS
10
167.9077910000000031
20
-133.3618290000000002
11
167.657338999999979
21
-133.4985859999999889
0
LINE
8
BLACK
6
CONTINUOUS
10
167.657338999999979
20
-133.4985859999999889
11
167.3899739999999952
21
-133.5983080000000029
0
LINE
8
BLACK
6
CONTINUOUS
10
167.3899739999999952
20
-133.5983080000000029
11
167.1111389999999801
21
-133.6589649999999949
0
LINE
8
BLACK
6
CONTINUOUS
10
167.1111389999999801
20
-133.6589649999999949
11
166.8265089999999873
21
-133.6793219999999849
0
LINE
8
BLACK
6
CONTINUOUS
10
166.8265089999999873
20
-133.6793219999999849
11
166.5418789999999944
21
-133.6589649999999949
0
LINE
8
BLACK
6
CONTINUOUS
10
166.5418789999999944
20
-133.6589649999999949
11
166.2630439999999794
21
-133.5983080000000029
0
LINE
8
BLACK
6
CONTINUOUS
10
166.2630439999999794
20
-133.5983080000000029
11
165.9956789999999955
21
-133.4985859999999889
0
LINE
8
BLACK
6
CONTINUOUS
10
165.9956789999999955
20
-133.4985859999999889
11
165.7452269999999999
21
-133.3618290000000002
0
LINE
8
BLACK
6
CONTINUOUS
10
165.7452269999999999
20
-133.3618290000000002
11
165.5167879999999911
21
-133.1908209999999997
0
LINE
8
BLACK
6
CONTINUOUS
10
165.5167879999999911
20
-133.1908209999999997
11
165.3150100000000009
21
-132.989042999999981
0
LINE
8
BLACK
6
CONTINUOUS
10
165.3150100000000009
20
-132.989042999999981
11
165.1440020000000004
21
-132.7606040000000007
0
LINE
8
BLACK
6
CONTINUOUS
10
165.1440020000000004
20
-132.7606040000000007
11
165.0072449999999833
21
-132.510152000000005
0
LINE
8
BLACK
6
CONTINUOUS
10
165.0072449999999833
20
-132.510152000000005
11
164.9075229999999976
21
-132.2427869999999928
0
LINE
8
BLACK
6
CONTINUOUS
10
164.9075229999999976
20
-132.2427869999999928
11
164.8468660000000057
21
-131.9639520000000061
0
LINE
8
BLACK
6
CONTINUOUS
10
164.8468660000000057
20
-131.9639520000000061
11
164.8265089999999873
21
-131.6793219999999849
0
LINE
8
BLACK
6
CONTINUOUS
10
164.8265089999999873
20
-131.6793219999999849
11
164.8468660000000057
21
-131.394691999999992
0
LINE
8
BLACK
6
CONTINUOUS
10
164.8468660000000057
20
-131.394691999999992
11
164.9075229999999976
21
-131.1158570000000054
0
LINE
8
BLACK
6
CONTINUOUS
10
164.9075229999999976
20
-131.1158570000000054
11
165.0072449999999833
21
-130.8484919999999931
0
LINE
8
BLACK
6
CONTINUOUS
10
165.0072449999999833
20
-130.8484919999999931
11
165.1440020000000004
21
-130.5980399999999975
0
LINE
8
BLACK
6
CONTINUOUS
10
165.1440020000000004
20
-130.5980399999999975
11
165.3150100000000009
21
-130.3696009999999887
0
LINE
8
BLACK
6
CONTINUOUS
10
165.3150100000000009
20
-130.3696009999999887
11
165.5167879999999911
21
-130.1678229999999985
0
LINE
8
BLACK
6
CONTINUOUS
10
165.5167879999999911
20
-130.1678229999999985
11
165.7452269999999999
21
-129.996814999999998
0
LINE
8
BLACK
6
CONTINUOUS
10
165.7452269999999999
20
-129.996814999999998
11
165.9956789999999955
21
-129.8600579999999809
0
LINE
8
BLACK
6
CONTINUOUS
10
165.9956789999999955
20
-129.8600579999999809
11
166.2630439999999794
21
-129.7603359999999952
0
LINE
8
BLACK
6
CONTINUOUS
10
166.2630439999999794
20
-129.7603359999999952
11
166.5418789999999944
21
-129.6996790000000033
0
LINE
8
BLACK
6
CONTINUOUS
10
166.5418789999999944
20
-129.6996790000000033
11
166.8265089999999873
21
-129.6793219999999849
0
LINE
8
BLACK
6
CONTINUOUS
10
166.8265089999999873
20
-129.6793219999999849
11
167.1111389999999801
21
-129.6996790000000033
0
LINE
8
BLACK
6
CONTINUOUS
10
332.6851639999999861
20
-112.9240629999999896
11
332.9639990000000012
21
-112.9847199999999958
0
LINE
8
BLACK
6
CONTINUOUS
10
332.9639990000000012
20
-112.9847199999999958
11
333.231363999999985
21
-113.0844419999999957
0
LINE
8
BLACK
6
CONTINUOUS
10
333.231363999999985
20
-113.0844419999999957
11
333.4818159999999807
21
-113.2211989999999986
0
LINE
8
BLACK
6
CONTINUOUS
10
333.4818159999999807
20
-113.2211989999999986
11
333.710254999999961
21
-113.3922069999999991
0
LINE
8
BLACK
6
CONTINUOUS
10
333.710254999999961
20
-113.3922069999999991
11
333.9120330000000081
21
-113.5939849999999893
0
LINE
8
BLACK
6
CONTINUOUS
10
333.9120330000000081
20
-113.5939849999999893
11
334.0830409999999802
21
-113.822423999999998
0
LINE
8
BLACK
6
CONTINUOUS
10
334.0830409999999802
20
-113.822423999999998
11
334.2197979999999689
21
-114.0728759999999937
0
LINE
8
BLACK
6
CONTINUOUS
10
334.2197979999999689
20
-114.0728759999999937
11
334.3195200000000114
21
-114.3402409999999918
0
LINE
8
BLACK
6
CONTINUOUS
10
334.3195200000000114
20
-114.3402409999999918
11
334.3801770000000033
21
-114.6190759999999926
0
LINE
8
BLACK
6
CONTINUOUS
10
334.3801770000000033
20
-114.6190759999999926
11
334.4005339999999933
21
-114.9037059999999997
0
LINE
8
BLACK
6
CONTINUOUS
10
334.4005339999999933
20
-114.9037059999999997
11
334.3801770000000033
21
-115.1883359999999925
0
LINE
8
BLACK
6
CONTINUOUS
10
334.3801770000000033
20
-115.1883359999999925
11
334.3195200000000114
21
-115.4671709999999933
0
LINE
8
BLACK
6
CONTINUOUS
10
334.3195200000000114
20
-115.4671709999999933
11
334.2197979999999689
21
-115.7345359999999914
0
LINE
8
BLACK
6
CONTINUOUS
10
334.2197979999999689
20
-115.7345359999999914
11
334.0830409999999802
21
-115.9849880000000013
0
LINE
8
BLACK
6
CONTINUOUS
10
334.0830409999999802
20
-115.9849880000000013
11
333.9120330000000081
21
-116.2134269999999958
0
LINE
8
BLACK
6
CONTINUOUS
10
333.9120330000000081
20
-116.2134269999999958
11
333.710254999999961
21
-116.4152050000000003
0
LINE
8
BLACK
6
CONTINUOUS
10
333.710254999999961
20
-116.4152050000000003
11
333.4818159999999807
21
-116.5862130000000008
0
LINE
8
BLACK
6
CONTINUOUS
10
333.4818159999999807
20
-116.5862130000000008
11
333.231363999999985
21
-116.7229699999999895
0
LINE
8
BLACK
6
CONTINUOUS
10
333.231363999999985
20
-116.7229699999999895
11
332.9639990000000012
21
-116.8226919999999893
0
LINE
8
BLACK
6
CONTINUOUS
10
332.9639990000000012
20
-116.8226919999999893
11
332.6851639999999861
21
-116.8833489999999955
0
LINE
8
BLACK
6
CONTINUOUS
10
332.6851639999999861
20
-116.8833489999999955
11
332.4005339999999933
21
-116.9037059999999997
0
LINE
8
BLACK
6
CONTINUOUS
10
332.4005339999999933
20
-116.9037059999999997
11
332.1159040000000005
21
-116.8833489999999955
0
LINE
8
BLACK
6
CONTINUOUS
10
332.1159040000000005
20
-116.8833489999999955
11
331.8370689999999854
21
-116.8226919999999893
0
LINE
8
BLACK
6
CONTINUOUS
10
331.8370689999999854
20
-116.8226919999999893
11
331.5697040000000015
21
-116.7229699999999895
0
LINE
8
BLACK
6
CONTINUOUS
10
331.5697040000000015
20
-116.7229699999999895
11
331.3192520000000059
21
-116.5862130000000008
0
LINE
8
BLACK
6
CONTINUOUS
10
331.3192520000000059
20
-116.5862130000000008
11
331.0908129999999687
21
-116.4152050000000003
0
LINE
8
BLACK
6
CONTINUOUS
10
331.0908129999999687
20
-116.4152050000000003
11
330.8890349999999785
21
-116.2134269999999958
0
LINE
8
BLACK
6
CONTINUOUS
10
330.8890349999999785
20
-116.2134269999999958
11
330.7180270000000064
21
-115.9849880000000013
0
LINE
8
BLACK
6
CONTINUOUS
10
330.7180270000000064
20
-115.9849880000000013
11
330.5812699999999609
21
-115.7345359999999914
0
LINE
8
BLACK
6
CONTINUOUS
10
330.5812699999999609
20
-115.7345359999999914
11
330.4815479999999752
21
-115.4671709999999933
0
LINE
8
BLACK
6
CONTINUOUS
10
330.4815479999999752
20
-115.4671709999999933
11
330.4208909999999833
21
-115.1883359999999925
0
LINE
8
BLACK
6
CONTINUOUS
10
330.4208909999999833
20
-115.1883359999999925
11
330.4005339999999933
21
-114.9037059999999997
0
LINE
8
BLACK
6
CONTINUOUS
10
330.4005339999999933
20
-114.9037059999999997
11
330.4208909999999833
21
-114.6190759999999926
0
LINE
8
BLACK
6
CONTINUOUS
10
330.4208909999999833
20
-114.6190759999999926
11
330.4815479999999752
21
-114.3402409999999918
0
LINE
8
BLACK
6
CONTINUOUS
10
330.4815479999999752
20
-114.3402409999999918
11
330.5812699999999609
21
-114.0728759999999937
0
LINE
8
BLACK
6
CONTINUOUS
10
330.5812699999999609
20
-114.0728759999999937
11
330.7180270000000064
21
-113.822423999999998
0
LINE
8
BLACK
6
CONTINUOUS
10
330.7180270000000064
20
-113.822423999999998
11
330.8890349999999785
21
-113.5939849999999893
0
LINE
8
BLACK
6
CONTINUOUS
10
330.8890349999999785
20
-113.5939849999999893
11
331.0908129999999687
21
-113.3922069999999991
0
LINE
8
BLACK
6
CONTINUOUS
10
331.0908129999999687
20
-113.3922069999999991
11
331.3192520000000059
21
-113.2211989999999986
0
LINE
8
BLACK
6
CONTINUOUS
10
331.3192520000000059
20
-113.2211989999999986
11
331.5697040000000015
21
-113.0844419999999957
0
LINE
8
BLACK
6
CONTINUOUS
10
331.5697040000000015
20
-113.0844419999999957
11
331.8370689999999854
21
-112.9847199999999958
0
LINE
8
BLACK
6
CONTINUOUS
10
331.8370689999999854
20
-112.9847199999999958
11
332.1159040000000005
21
-112.9240629999999896
0
LINE
8
BLACK
6
CONTINUOUS
10
332.1159040000000005
20
-112.9240629999999896
11
332.4005339999999933
21
-112.9037059999999997
0
LINE
8
BLACK
6
CONTINUOUS
10
332.4005339999999933
20
-112.9037059999999997
11
332.6851639999999861
21
-112.9240629999999896
0
LINE
8
BLACK
6
CONTINUOUS
10
92.7376050000000021
20
-112.8512959999999907
11
93.0164399999999887
21
-112.9119529999999969
0
LINE
8
BLACK
6
CONTINUOUS
10
93.0164399999999887
20
-112.9119529999999969
11
93.283805000000001
21
-113.0116749999999968
0
LINE
8
BLACK
6
CONTINUOUS
10
93.283805000000001
20
-113.0116749999999968
11
93.5342569999999967
21
-113.1484319999999997
0
LINE
8
BLACK
6
CONTINUOUS
10
93.5342569999999967
20
-113.1484319999999997
11
93.7626959999999912
21
-113.3194400000000002
0
LINE
8
BLACK
6
CONTINUOUS
10
93.7626959999999912
20
-113.3194400000000002
11
93.9644739999999956
21
-113.5212179999999904
0
LINE
8
BLACK
6
CONTINUOUS
10
93.9644739999999956
20
-113.5212179999999904
11
94.1354819999999961
21
-113.7496569999999991
0
LINE
8
BLACK
6
CONTINUOUS
10
94.1354819999999961
20
-113.7496569999999991
11
94.272238999999999
21
-114.0001089999999948
0
LINE
8
BLACK
6
CONTINUOUS
10
94.272238999999999
20
-114.0001089999999948
11
94.3719609999999989
21
-114.2674739999999929
0
LINE
8
BLACK
6
CONTINUOUS
10
94.3719609999999989
20
-114.2674739999999929
11
94.4326179999999908
21
-114.5463089999999937
0
LINE
8
BLACK
6
CONTINUOUS
10
94.4326179999999908
20
-114.5463089999999937
11
94.452974999999995
21
-114.8309390000000008
0
LINE
8
BLACK
6
CONTINUOUS
10
94.452974999999995
20
-114.8309390000000008
11
94.4326179999999908
21
-115.1155689999999936
0
LINE
8
BLACK
6
CONTINUOUS
10
94.4326179999999908
20
-115.1155689999999936
11
94.3719609999999989
21
-115.3944039999999944
0
LINE
8
BLACK
6
CONTINUOUS
10
94.3719609999999989
20
-115.3944039999999944
11
94.272238999999999
21
-115.6617689999999925
0
LINE
8
BLACK
6
CONTINUOUS
10
94.272238999999999
20
-115.6617689999999925
11
94.1354819999999961
21
-115.9122209999999882
0
LINE
8
BLACK
6
CONTINUOUS
10
94.1354819999999961
20
-115.9122209999999882
11
93.9644739999999956
21
-116.1406599999999969
0
LINE
8
BLACK
6
CONTINUOUS
10
93.9644739999999956
20
-116.1406599999999969
11
93.7626959999999912
21
-116.3424380000000014
0
LINE
8
BLACK
6
CONTINUOUS
10
93.7626959999999912
20
-116.3424380000000014
11
93.5342569999999967
21
-116.5134459999999876
0
LINE
8
BLACK
6
CONTINUOUS
10
93.5342569999999967
20
-116.5134459999999876
11
93.283805000000001
21
-116.6502029999999905
0
LINE
8
BLACK
6
CONTINUOUS
10
93.283805000000001
20
-116.6502029999999905
11
93.0164399999999887
21
-116.7499249999999904
0
LINE
8
BLACK
6
CONTINUOUS
10
93.0164399999999887
20
-116.7499249999999904
11
92.7376050000000021
21
-116.8105819999999966
0
LINE
8
BLACK
6
CONTINUOUS
10
92.7376050000000021
20
-116.8105819999999966
11
92.452974999999995
21
-116.8309390000000008
0
LINE
8
BLACK
6
CONTINUOUS
10
92.452974999999995
20
-116.8309390000000008
11
92.1683450000000022
21
-116.8105819999999966
0
LINE
8
BLACK
6
CONTINUOUS
10
92.1683450000000022
20
-116.8105819999999966
11
91.8895100000000014
21
-116.7499249999999904
0
LINE
8
BLACK
6
CONTINUOUS
10
91.8895100000000014
20
-116.7499249999999904
11
91.6221449999999891
21
-116.6502029999999905
0
LINE
8
BLACK
6
CONTINUOUS
10
91.6221449999999891
20
-116.6502029999999905
11
91.3716929999999934
21
-116.5134459999999876
0
LINE
8
BLACK
6
CONTINUOUS
10
91.3716929999999934
20
-116.5134459999999876
11
91.1432539999999989
21
-116.3424380000000014
0
LINE
8
BLACK
6
CONTINUOUS
10
91.1432539999999989
20
-116.3424380000000014
11
90.9414759999999944
21
-116.1406599999999969
0
LINE
8
BLACK
6
CONTINUOUS
10
90.9414759999999944
20
-116.1406599999999969
11
90.7704679999999939
21
-115.9122209999999882
0
LINE
8
BLACK
6
CONTINUOUS
10
90.7704679999999939
20
-115.9122209999999882
11
90.633710999999991
21
-115.6617689999999925
0
LINE
8
BLACK
6
CONTINUOUS
10
90.633710999999991
20
-115.6617689999999925
11
90.5339889999999912
21
-115.3944039999999944
0
LINE
8
BLACK
6
CONTINUOUS
10
90.5339889999999912
20
-115.3944039999999944
11
90.4733319999999992
21
-115.1155689999999936
0
LINE
8
BLACK
6
CONTINUOUS
10
90.4733319999999992
20
-115.1155689999999936
11
90.452974999999995
21
-114.8309390000000008
0
LINE
8
BLACK
6
CONTINUOUS
10
90.452974999999995
20
-114.8309390000000008
11
90.4733319999999992
21
-114.5463089999999937
0
LINE
8
BLACK
6
CONTINUOUS
10
90.4733319999999992
20
-114.5463089999999937
11
90.5339889999999912
21
-114.2674739999999929
0
LINE
8
BLACK
6
CONTINUOUS
10
90.5339889999999912
20
-114.2674739999999929
11
90.633710999999991
21
-114.0001089999999948
0
LINE
8
BLACK
6
CONTINUOUS
10
90.633710999999991
20
-114.0001089999999948
11
90.7704679999999939
21
-113.7496569999999991
0
LINE
8
BLACK
6
CONTINUOUS
10
90.7704679999999939
20
-113.7496569999999991
11
90.9414759999999944
21
-113.5212179999999904
0
LINE
8
BLACK
6
CONTINUOUS
10
90.9414759999999944
20
-113.5212179999999904
11
91.1432539999999989
21
-113.3194400000000002
0
LINE
8
BLACK
6
CONTINUOUS
10
91.1432539999999989
20
-113.3194400000000002
11
91.3716929999999934
21
-113.1484319999999997
0
LINE
8
BLACK
6
CONTINUOUS
10
91.3716929999999934
20
-113.1484319999999997
11
91.6221449999999891
21
-113.0116749999999968
0
LINE
8
BLACK
6
CONTINUOUS
10
91.6221449999999891
20
-113.0116749999999968
11
91.8895100000000014
21
-112.9119529999999969
0
LINE
8
BLACK
6
CONTINUOUS
10
91.8895100000000014
20
-112.9119529999999969
11
92.1683450000000022
21
-112.8512959999999907
0
LINE
8
BLACK
6
CONTINUOUS
10
92.1683450000000022
20
-112.8512959999999907
11
92.452974999999995
21
-112.8309390000000008
0
LINE
8
BLACK
6
CONTINUOUS
10
92.452974999999995
20
-112.8309390000000008
11
92.7376050000000021
21
-112.8512959999999907
  0
ENDSEC
  0
EOF
