G04 #@! TF.GenerationSoftware,KiCad,Pcbnew,8.0.2*
G04 #@! TF.CreationDate,2024-06-03T21:57:38+01:00*
G04 #@! TF.ProjectId,Ashwing66_topplate,41736877-696e-4673-9636-5f746f70706c,1*
G04 #@! TF.SameCoordinates,Original*
G04 #@! TF.FileFunction,Copper,L1,Top*
G04 #@! TF.FilePolarity,Positive*
%FSLAX46Y46*%
G04 Gerber Fmt 4.6, Leading zero omitted, Abs format (unit mm)*
G04 Created by KiCad (PCBNEW 8.0.2) date 2024-06-03 21:57:38*
%MOMM*%
%LPD*%
G01*
G04 APERTURE LIST*
G04 #@! TA.AperFunction,ComponentPad*
%ADD10C,4.000000*%
G04 #@! TD*
G04 APERTURE END LIST*
D10*
X182412813Y-191449989D03*
X152022060Y-186930278D03*
X166826509Y-131679322D03*
X92452975Y-114830939D03*
X77648526Y-170081896D03*
X347204984Y-170154664D03*
X258026999Y-131752090D03*
X332400534Y-114903706D03*
X242440696Y-191522758D03*
X272831448Y-187003047D03*
G04 #@! TA.AperFunction,Conductor*
G36*
X346245275Y-87314171D02*
G01*
X346654705Y-87336412D01*
X346665364Y-87337455D01*
X347071351Y-87394998D01*
X347081887Y-87396960D01*
X347481380Y-87489374D01*
X347491716Y-87492242D01*
X347881703Y-87618828D01*
X347891738Y-87622571D01*
X348269373Y-87782407D01*
X348279033Y-87786999D01*
X348641414Y-87978857D01*
X348650658Y-87984276D01*
X348995106Y-88206739D01*
X349003855Y-88212942D01*
X349019632Y-88225186D01*
X349327790Y-88464340D01*
X349335943Y-88471252D01*
X349636943Y-88749709D01*
X349644485Y-88757317D01*
X349920287Y-89060738D01*
X349927149Y-89068977D01*
X350175701Y-89395103D01*
X350181818Y-89403892D01*
X350370546Y-89701805D01*
X350401249Y-89750271D01*
X350406592Y-89759572D01*
X350595265Y-90123613D01*
X350599784Y-90133341D01*
X350756291Y-90512328D01*
X350759952Y-90522410D01*
X350884285Y-90917207D01*
X350885789Y-90922368D01*
X360586265Y-127133247D01*
X360586258Y-127133248D01*
X360586280Y-127133304D01*
X360586672Y-127134770D01*
X360586670Y-127134820D01*
X360656838Y-127396730D01*
X360722581Y-127579991D01*
X360805732Y-127811780D01*
X360820945Y-127845205D01*
X360988390Y-128213110D01*
X360988392Y-128213113D01*
X360988394Y-128213117D01*
X361203575Y-128597997D01*
X361290886Y-128727704D01*
X361449804Y-128963791D01*
X361725402Y-129308000D01*
X361725405Y-129308004D01*
X361976752Y-129573608D01*
X362028489Y-129628279D01*
X362283452Y-129856583D01*
X362356995Y-129922436D01*
X362356997Y-129922438D01*
X362708651Y-130188445D01*
X363081081Y-130424508D01*
X363081086Y-130424512D01*
X363104449Y-130436742D01*
X363471751Y-130629018D01*
X363877964Y-130800561D01*
X364296956Y-130937971D01*
X364725865Y-131040309D01*
X365161760Y-131106877D01*
X365601664Y-131137220D01*
X366042571Y-131131130D01*
X366481469Y-131088649D01*
X366915360Y-131010067D01*
X367125797Y-130953670D01*
X367125833Y-130953670D01*
X367125831Y-130953661D01*
X367184451Y-130937969D01*
X375553922Y-128697536D01*
X375554101Y-128697505D01*
X375564986Y-128694587D01*
X375564989Y-128694588D01*
X375605066Y-128683847D01*
X375610253Y-128682578D01*
X376013723Y-128593110D01*
X376024336Y-128591238D01*
X376431352Y-128537636D01*
X376442086Y-128536695D01*
X376852229Y-128518773D01*
X376863039Y-128518773D01*
X377273155Y-128536665D01*
X377283901Y-128537604D01*
X377690923Y-128591179D01*
X377701563Y-128593055D01*
X378102345Y-128681898D01*
X378112771Y-128684691D01*
X378153514Y-128697537D01*
X378504282Y-128808128D01*
X378514447Y-128811827D01*
X378893712Y-128968918D01*
X378903499Y-128973482D01*
X378918524Y-128981304D01*
X379267618Y-129163030D01*
X379276986Y-129168438D01*
X379623202Y-129389002D01*
X379632064Y-129395208D01*
X379957728Y-129645102D01*
X379966002Y-129652044D01*
X380268672Y-129929396D01*
X380276298Y-129937022D01*
X380478168Y-130157332D01*
X380553634Y-130239691D01*
X380560588Y-130247979D01*
X380810479Y-130573659D01*
X380816683Y-130582521D01*
X380845372Y-130627556D01*
X381037233Y-130928737D01*
X381042632Y-130938087D01*
X381124621Y-131095600D01*
X381232170Y-131302217D01*
X381236742Y-131312022D01*
X381393817Y-131691277D01*
X381397516Y-131701443D01*
X381521584Y-132094995D01*
X381523098Y-132100189D01*
X381536580Y-132150516D01*
X381536611Y-132150601D01*
X386324805Y-150012702D01*
X386326093Y-150017962D01*
X386377584Y-150250158D01*
X386398985Y-150346669D01*
X386415552Y-150421375D01*
X386417431Y-150432030D01*
X386471031Y-150839004D01*
X386471975Y-150849781D01*
X386489898Y-151259900D01*
X386489898Y-151270718D01*
X386472009Y-151680815D01*
X386471067Y-151691592D01*
X386417497Y-152098593D01*
X386415618Y-152109247D01*
X386326784Y-152509999D01*
X386323985Y-152520449D01*
X386200550Y-152911959D01*
X386196850Y-152922125D01*
X386039766Y-153301376D01*
X386035194Y-153311181D01*
X385845650Y-153675297D01*
X385840241Y-153684666D01*
X385619677Y-154030883D01*
X385613471Y-154039745D01*
X385363577Y-154365409D01*
X385356624Y-154373696D01*
X385079296Y-154676340D01*
X385071645Y-154683990D01*
X384768985Y-154961316D01*
X384760698Y-154968269D01*
X384435034Y-155218149D01*
X384426172Y-155224355D01*
X384079940Y-155444914D01*
X384070571Y-155450322D01*
X383706458Y-155639851D01*
X383696653Y-155644423D01*
X383317398Y-155801497D01*
X383307232Y-155805197D01*
X382913688Y-155929260D01*
X382908496Y-155930773D01*
X382857989Y-155944304D01*
X382857826Y-155944363D01*
X374482163Y-158190768D01*
X374481981Y-158190763D01*
X374219315Y-158261149D01*
X373804271Y-158410064D01*
X373402963Y-158592735D01*
X373402958Y-158592738D01*
X373018091Y-158807930D01*
X372652298Y-159054178D01*
X372308101Y-159329783D01*
X372308100Y-159329784D01*
X371987842Y-159632866D01*
X371987836Y-159632872D01*
X371693705Y-159961358D01*
X371693694Y-159961372D01*
X371427689Y-160313032D01*
X371427680Y-160313046D01*
X371191627Y-160685465D01*
X370987125Y-161076123D01*
X370815587Y-161482322D01*
X370815579Y-161482343D01*
X370678175Y-161901305D01*
X370678170Y-161901320D01*
X370575826Y-162330223D01*
X370547700Y-162514374D01*
X370509251Y-162766111D01*
X370497798Y-162932101D01*
X370478897Y-163206023D01*
X370484974Y-163646898D01*
X370484974Y-163646907D01*
X370484975Y-163646912D01*
X370486166Y-163659217D01*
X370527440Y-164085812D01*
X370606001Y-164519686D01*
X370606003Y-164519695D01*
X370636997Y-164635368D01*
X370661582Y-164727122D01*
X370661590Y-164727153D01*
X370662374Y-164730082D01*
X370663652Y-164735309D01*
X370753066Y-165138682D01*
X370754945Y-165149335D01*
X370808516Y-165556328D01*
X370809458Y-165567104D01*
X370827353Y-165977192D01*
X370827353Y-165988009D01*
X370809440Y-166398109D01*
X370808497Y-166408885D01*
X370754910Y-166815864D01*
X370753031Y-166826517D01*
X370664180Y-167227267D01*
X370661380Y-167237716D01*
X370537942Y-167629194D01*
X370534243Y-167639359D01*
X370377146Y-168018614D01*
X370372574Y-168028417D01*
X370183035Y-168392514D01*
X370177626Y-168401883D01*
X369957067Y-168748086D01*
X369950863Y-168756946D01*
X369700973Y-169082609D01*
X369694019Y-169090896D01*
X369416701Y-169393536D01*
X369409052Y-169401185D01*
X369106411Y-169678506D01*
X369098125Y-169685459D01*
X368772466Y-169935349D01*
X368763605Y-169941554D01*
X368417405Y-170162112D01*
X368408037Y-170167521D01*
X368043924Y-170357073D01*
X368034133Y-170361638D01*
X367654888Y-170518732D01*
X367644729Y-170522430D01*
X367249487Y-170647057D01*
X367244291Y-170648572D01*
X358710622Y-172935168D01*
X358710348Y-172935161D01*
X358448038Y-173005451D01*
X358448027Y-173005454D01*
X358032992Y-173154365D01*
X358032991Y-173154365D01*
X357631672Y-173337038D01*
X357246801Y-173552234D01*
X356881022Y-173798471D01*
X356881015Y-173798476D01*
X356536826Y-174074072D01*
X356536814Y-174074082D01*
X356216545Y-174377173D01*
X355922417Y-174705656D01*
X355922406Y-174705670D01*
X355656400Y-175057330D01*
X355656391Y-175057344D01*
X355420339Y-175429763D01*
X355420332Y-175429774D01*
X355215840Y-175820411D01*
X355215840Y-175820412D01*
X355215836Y-175820419D01*
X355215835Y-175820423D01*
X355044293Y-176226629D01*
X355044291Y-176226634D01*
X354906880Y-176645611D01*
X354906877Y-176645625D01*
X354804536Y-177074519D01*
X354737960Y-177510404D01*
X354707605Y-177950322D01*
X354713682Y-178391196D01*
X354713682Y-178391197D01*
X354713682Y-178391206D01*
X354713683Y-178391212D01*
X354725973Y-178518234D01*
X354756148Y-178830111D01*
X354834711Y-179263991D01*
X354834715Y-179264009D01*
X354876770Y-179420966D01*
X354876773Y-179420974D01*
X354878877Y-179428824D01*
X354878877Y-179428826D01*
X356487710Y-185433049D01*
X356784707Y-186541454D01*
X356784711Y-186541475D01*
X356797540Y-186589348D01*
X356798829Y-186594614D01*
X356887810Y-186996112D01*
X356889690Y-187006786D01*
X356942915Y-187411818D01*
X356943856Y-187422616D01*
X356961508Y-187830745D01*
X356961503Y-187841584D01*
X356943447Y-188249709D01*
X356942495Y-188260505D01*
X356888871Y-188665481D01*
X356886980Y-188676154D01*
X356798193Y-189074912D01*
X356795377Y-189085378D01*
X356672111Y-189474847D01*
X356668392Y-189485028D01*
X356511582Y-189862254D01*
X356506988Y-189872071D01*
X356317844Y-190234149D01*
X356312411Y-190243528D01*
X356092357Y-190587725D01*
X356086125Y-190596592D01*
X355836862Y-190920250D01*
X355829880Y-190928540D01*
X355553309Y-191229192D01*
X355545629Y-191236841D01*
X355243860Y-191512190D01*
X355235542Y-191519139D01*
X354910876Y-191767089D01*
X354901983Y-191773284D01*
X354556897Y-191991941D01*
X354547496Y-191997337D01*
X354184654Y-192185012D01*
X354174819Y-192189566D01*
X353796963Y-192344845D01*
X353786767Y-192348523D01*
X353396791Y-192470213D01*
X353386313Y-192472986D01*
X352989550Y-192559642D01*
X352980028Y-192561336D01*
X351445344Y-192772940D01*
X351023719Y-192831074D01*
X351023711Y-192831075D01*
X351023676Y-192831080D01*
X347754834Y-193312031D01*
X347095466Y-193409045D01*
X345227341Y-193701236D01*
X343172591Y-194022616D01*
X339255465Y-194671734D01*
X335344406Y-195356340D01*
X331439697Y-196076388D01*
X327541679Y-196831816D01*
X323650670Y-197622559D01*
X319766993Y-198448554D01*
X315890942Y-199309737D01*
X312022986Y-200206004D01*
X312022921Y-200206019D01*
X312022911Y-200206022D01*
X311584720Y-200311753D01*
X308163110Y-201137358D01*
X304311942Y-202103650D01*
X300469773Y-203104804D01*
X297554051Y-203892858D01*
X296636710Y-204140795D01*
X294729028Y-204675006D01*
X292813149Y-205211514D01*
X288999764Y-206316773D01*
X287635756Y-206725556D01*
X285196244Y-207456660D01*
X285196202Y-207456672D01*
X285196192Y-207456676D01*
X281403278Y-208630971D01*
X277621205Y-209839602D01*
X273850212Y-211082491D01*
X270090678Y-212359512D01*
X266342813Y-213670596D01*
X263672063Y-214632151D01*
X262606996Y-215015610D01*
X262606964Y-215015621D01*
X262606958Y-215015624D01*
X260796354Y-215686106D01*
X260790649Y-215687699D01*
X260744683Y-215705233D01*
X260743554Y-215705657D01*
X260697394Y-215722751D01*
X260692136Y-215725269D01*
X260039147Y-215974369D01*
X258645362Y-216546603D01*
X257266495Y-217153665D01*
X255903257Y-217795244D01*
X254556596Y-218470894D01*
X253227383Y-219180176D01*
X251916392Y-219922677D01*
X250624497Y-220697905D01*
X249352531Y-221505357D01*
X248101220Y-222344574D01*
X246871450Y-223214962D01*
X245663956Y-224115998D01*
X244479469Y-225047137D01*
X243318777Y-226007766D01*
X242182656Y-226997234D01*
X241071738Y-228014993D01*
X239986746Y-229060385D01*
X238928404Y-230132710D01*
X237897378Y-231231290D01*
X236894285Y-232355470D01*
X235919791Y-233504504D01*
X235193856Y-234405443D01*
X234974483Y-234677701D01*
X234058983Y-235874287D01*
X233563763Y-236556438D01*
X233173845Y-237093540D01*
X232751700Y-237706892D01*
X232747965Y-237712032D01*
X232154123Y-238486662D01*
X232151106Y-238490442D01*
X231525488Y-239243766D01*
X231522327Y-239247425D01*
X230867794Y-239975804D01*
X230864492Y-239979337D01*
X230182075Y-240681622D01*
X230178638Y-240685024D01*
X229469343Y-241360181D01*
X229465776Y-241363446D01*
X228730717Y-242010416D01*
X228727026Y-242013540D01*
X227967262Y-242631390D01*
X227963451Y-242634367D01*
X227180198Y-243222107D01*
X227176274Y-243224933D01*
X226370735Y-243781661D01*
X226366705Y-243784333D01*
X225540010Y-244309269D01*
X225535877Y-244311781D01*
X224689368Y-244804070D01*
X224685142Y-244806419D01*
X223820071Y-245265336D01*
X223815755Y-245267518D01*
X222933498Y-245692331D01*
X222929102Y-245694344D01*
X222030876Y-246084469D01*
X222026403Y-246086308D01*
X221113719Y-246441086D01*
X221109179Y-246442750D01*
X220183304Y-246761691D01*
X220178702Y-246763176D01*
X219241134Y-247045763D01*
X219236478Y-247047068D01*
X218288598Y-247292886D01*
X218283894Y-247294009D01*
X217327124Y-247502687D01*
X217322380Y-247503625D01*
X216358210Y-247674839D01*
X216353433Y-247675591D01*
X215383351Y-247809076D01*
X215378549Y-247809642D01*
X214403968Y-247905206D01*
X214399147Y-247905584D01*
X213421597Y-247963075D01*
X213416765Y-247963265D01*
X212437698Y-247982598D01*
X212432862Y-247982599D01*
X211453812Y-247963743D01*
X211448980Y-247963556D01*
X210471377Y-247906541D01*
X210466556Y-247906165D01*
X209491956Y-247811078D01*
X209487153Y-247810515D01*
X208516979Y-247677497D01*
X208512202Y-247676747D01*
X207547947Y-247506003D01*
X207543203Y-247505067D01*
X206586355Y-247296860D01*
X206581651Y-247295740D01*
X205783443Y-247089153D01*
X205633623Y-247050377D01*
X205628985Y-247049080D01*
X205346779Y-246964171D01*
X204691271Y-246766947D01*
X204686668Y-246765464D01*
X203760639Y-246446974D01*
X203756098Y-246445312D01*
X202843231Y-246090975D01*
X202838758Y-246089138D01*
X202830195Y-246085424D01*
X202817241Y-246079805D01*
X201940362Y-245699458D01*
X201935964Y-245697447D01*
X201053480Y-245273055D01*
X201049164Y-245270875D01*
X200536817Y-244999397D01*
X200183871Y-244812380D01*
X200179651Y-244810038D01*
X200169377Y-244804070D01*
X199607948Y-244477935D01*
X199332915Y-244318168D01*
X199328781Y-244315658D01*
X198501849Y-243791136D01*
X198497817Y-243788467D01*
X197691960Y-243232099D01*
X197688035Y-243229274D01*
X196904512Y-242641929D01*
X196900700Y-242638954D01*
X196140647Y-242021484D01*
X196136954Y-242018362D01*
X195401581Y-241371750D01*
X195398013Y-241368487D01*
X194688376Y-240693663D01*
X194684937Y-240690262D01*
X194002179Y-239988309D01*
X193998875Y-239984778D01*
X193343988Y-239256719D01*
X193340825Y-239253061D01*
X193334648Y-239245631D01*
X192714837Y-238500038D01*
X192711819Y-238496260D01*
X192481015Y-238195495D01*
X192117638Y-237721971D01*
X192113879Y-237716802D01*
X191691954Y-237103597D01*
X190807149Y-235884477D01*
X190807142Y-235884467D01*
X189891955Y-234687989D01*
X188946983Y-233514933D01*
X188946968Y-233514915D01*
X187972770Y-232365972D01*
X187304244Y-231616587D01*
X186969987Y-231241900D01*
X185939241Y-230143398D01*
X184881174Y-229071151D01*
X183796513Y-228025894D01*
X182685882Y-227008227D01*
X181550023Y-226018832D01*
X181550012Y-226018822D01*
X180796578Y-225395164D01*
X180389616Y-225058299D01*
X179997463Y-224749980D01*
X179205423Y-224127262D01*
X177998190Y-223226306D01*
X176768679Y-222355999D01*
X176387382Y-222100246D01*
X175517674Y-221516895D01*
X174484706Y-220861097D01*
X174245945Y-220709515D01*
X174219960Y-220693921D01*
X174136927Y-220644091D01*
X185345674Y-220644091D01*
X185345674Y-220743750D01*
X185356144Y-220769026D01*
X185383810Y-220835818D01*
X195353772Y-230805780D01*
X195445841Y-230843916D01*
X195445843Y-230843916D01*
X195545495Y-230843916D01*
X195545497Y-230843916D01*
X195637566Y-230805780D01*
X205607528Y-220835818D01*
X205645664Y-220743749D01*
X205645664Y-220669370D01*
X219121834Y-220669370D01*
X219121834Y-220669372D01*
X219121834Y-220769028D01*
X219159970Y-220861097D01*
X229129932Y-230831059D01*
X229222001Y-230869195D01*
X229222003Y-230869195D01*
X229321655Y-230869195D01*
X229321657Y-230869195D01*
X229413726Y-230831059D01*
X239383688Y-220861097D01*
X239421824Y-220769028D01*
X239421824Y-220669372D01*
X239411353Y-220644094D01*
X239383688Y-220577304D01*
X239383688Y-220577303D01*
X229413726Y-210607341D01*
X229321658Y-210569205D01*
X229321657Y-210569205D01*
X229222001Y-210569205D01*
X229221999Y-210569205D01*
X229129931Y-210607341D01*
X219159970Y-220577302D01*
X219121834Y-220669370D01*
X205645664Y-220669370D01*
X205645664Y-220644093D01*
X205607528Y-220552025D01*
X205607528Y-220552024D01*
X195637566Y-210582062D01*
X195545498Y-210543926D01*
X195545497Y-210543926D01*
X195445841Y-210543926D01*
X195445839Y-210543926D01*
X195353771Y-210582062D01*
X185383810Y-220552023D01*
X185345674Y-220644091D01*
X174136927Y-220644091D01*
X172954349Y-219934397D01*
X172933654Y-219922675D01*
X171643605Y-219191976D01*
X170314633Y-218482775D01*
X170314609Y-218482762D01*
X168968244Y-217807222D01*
X167605311Y-217165760D01*
X167605290Y-217165750D01*
X166226633Y-216558760D01*
X166226617Y-216558753D01*
X166226607Y-216558749D01*
X165812177Y-216388597D01*
X164833145Y-215986638D01*
X164180339Y-215737605D01*
X164174989Y-215735041D01*
X164128830Y-215717947D01*
X164127701Y-215717523D01*
X164096001Y-215705431D01*
X164088160Y-215702440D01*
X164088159Y-215702439D01*
X164081760Y-215699999D01*
X164076051Y-215698404D01*
X163001767Y-215300588D01*
X162265412Y-215027910D01*
X158529615Y-213682905D01*
X157283611Y-213247026D01*
X154781729Y-212371814D01*
X151022195Y-211094795D01*
X147942687Y-210079815D01*
X168619650Y-210079815D01*
X168619650Y-210079818D01*
X168645442Y-210176075D01*
X168645443Y-210176078D01*
X168706109Y-210255138D01*
X168792413Y-210304966D01*
X180914623Y-217303728D01*
X180916768Y-217304966D01*
X181015570Y-217317974D01*
X181111830Y-217292181D01*
X181190891Y-217231515D01*
X181240719Y-217145210D01*
X181276511Y-217083216D01*
X181276512Y-217083212D01*
X188240719Y-205020855D01*
X188252207Y-204933598D01*
X236574231Y-204933598D01*
X236574231Y-204933601D01*
X236587238Y-205032401D01*
X236587239Y-205032403D01*
X243637063Y-217243059D01*
X243637065Y-217243060D01*
X243637066Y-217243062D01*
X243716128Y-217303728D01*
X243808479Y-217328473D01*
X243816237Y-217330828D01*
X243824737Y-217333713D01*
X243845327Y-217325184D01*
X243911190Y-217316513D01*
X252475660Y-212371814D01*
X256121846Y-210266688D01*
X256121846Y-210266687D01*
X256121849Y-210266686D01*
X256182515Y-210187624D01*
X256208308Y-210091365D01*
X256196361Y-210000620D01*
X256196005Y-209995192D01*
X256195300Y-209992561D01*
X249145472Y-197781902D01*
X249145472Y-197781901D01*
X249066412Y-197721236D01*
X249066409Y-197721235D01*
X248970151Y-197695443D01*
X248871349Y-197708450D01*
X248871347Y-197708451D01*
X239551891Y-203089042D01*
X236746994Y-204708450D01*
X236718220Y-204725063D01*
X236718216Y-204725063D01*
X236660692Y-204758276D01*
X236660689Y-204758278D01*
X236600024Y-204837338D01*
X236600023Y-204837341D01*
X236574231Y-204933598D01*
X188252207Y-204933598D01*
X188253727Y-204922053D01*
X188227934Y-204825793D01*
X188185395Y-204770355D01*
X188176127Y-204758276D01*
X188167267Y-204746729D01*
X175956610Y-197696904D01*
X175956608Y-197696903D01*
X175857814Y-197683896D01*
X175857807Y-197683896D01*
X175857806Y-197683896D01*
X175761547Y-197709688D01*
X175682482Y-197770357D01*
X168632658Y-209981013D01*
X168632657Y-209981015D01*
X168619650Y-210079815D01*
X147942687Y-210079815D01*
X147251201Y-209851907D01*
X143469128Y-208643277D01*
X140374389Y-207685139D01*
X139676162Y-207468967D01*
X135872749Y-206329113D01*
X135872742Y-206329111D01*
X135872642Y-206329081D01*
X132059257Y-205223823D01*
X130439916Y-204770356D01*
X128418544Y-204204307D01*
X149742061Y-204204307D01*
X149742061Y-204204310D01*
X149755067Y-204303110D01*
X149755068Y-204303111D01*
X149804896Y-204389415D01*
X149883958Y-204450081D01*
X149980218Y-204475874D01*
X149980218Y-204475873D01*
X150039280Y-204491699D01*
X150039283Y-204491699D01*
X163503179Y-208099340D01*
X163601981Y-208086333D01*
X163688285Y-208036505D01*
X163748951Y-207957443D01*
X163757222Y-207926577D01*
X163774744Y-207861183D01*
X163774743Y-207861182D01*
X163783337Y-207829109D01*
X163783337Y-207829107D01*
X167398211Y-194338222D01*
X167385204Y-194239419D01*
X167335376Y-194153115D01*
X167335374Y-194153113D01*
X167300889Y-194126653D01*
X167266404Y-194100192D01*
X167266403Y-194100190D01*
X167256316Y-194092451D01*
X167256315Y-194092450D01*
X167256314Y-194092449D01*
X167256313Y-194092449D01*
X157394487Y-191449981D01*
X180157484Y-191449981D01*
X180157484Y-191449996D01*
X180176777Y-191744352D01*
X180176778Y-191744362D01*
X180176779Y-191744369D01*
X180226600Y-191994841D01*
X180234331Y-192033705D01*
X180234334Y-192033719D01*
X180329162Y-192313069D01*
X180459638Y-192577649D01*
X180459642Y-192577656D01*
X180623538Y-192822944D01*
X180818054Y-193044747D01*
X181039856Y-193239262D01*
X181285148Y-193403161D01*
X181549736Y-193533641D01*
X181829091Y-193628470D01*
X182118433Y-193686023D01*
X182146701Y-193687875D01*
X182412806Y-193705318D01*
X182412813Y-193705318D01*
X182412820Y-193705318D01*
X182648488Y-193689870D01*
X182707193Y-193686023D01*
X182996535Y-193628470D01*
X183275890Y-193533641D01*
X183540478Y-193403161D01*
X183785770Y-193239262D01*
X184007571Y-193044747D01*
X184202086Y-192822946D01*
X184365985Y-192577654D01*
X184496465Y-192313066D01*
X184591294Y-192033711D01*
X184648847Y-191744369D01*
X184657770Y-191608231D01*
X184668142Y-191449996D01*
X184668142Y-191449981D01*
X184648848Y-191155625D01*
X184648847Y-191155609D01*
X184591294Y-190866267D01*
X184496465Y-190586912D01*
X184365985Y-190322325D01*
X184321484Y-190255725D01*
X184307068Y-190234149D01*
X184202086Y-190077032D01*
X184071388Y-189928000D01*
X184007571Y-189855230D01*
X183785768Y-189660714D01*
X183540480Y-189496818D01*
X183540473Y-189496814D01*
X183275893Y-189366338D01*
X182996543Y-189271510D01*
X182996537Y-189271508D01*
X182996535Y-189271508D01*
X182707193Y-189213955D01*
X182707186Y-189213954D01*
X182707176Y-189213953D01*
X182412820Y-189194660D01*
X182412806Y-189194660D01*
X182118449Y-189213953D01*
X182118437Y-189213954D01*
X182118433Y-189213955D01*
X182118425Y-189213956D01*
X182118422Y-189213957D01*
X181829096Y-189271507D01*
X181829082Y-189271510D01*
X181549732Y-189366338D01*
X181285147Y-189496817D01*
X181039854Y-189660717D01*
X180818054Y-189855230D01*
X180623541Y-190077030D01*
X180459641Y-190322323D01*
X180329162Y-190586908D01*
X180234334Y-190866258D01*
X180234331Y-190866272D01*
X180176781Y-191155598D01*
X180176777Y-191155625D01*
X180157484Y-191449981D01*
X157394487Y-191449981D01*
X153637092Y-190443190D01*
X153538290Y-190456196D01*
X153451986Y-190506025D01*
X153391319Y-190585087D01*
X153371333Y-190659680D01*
X153371333Y-190659681D01*
X149742061Y-204204307D01*
X128418544Y-204204307D01*
X128235697Y-204153104D01*
X127831586Y-204043882D01*
X124402660Y-203117121D01*
X120560463Y-202115960D01*
X116709296Y-201149668D01*
X114379525Y-200587515D01*
X112849496Y-200218332D01*
X112849460Y-200218323D01*
X112849420Y-200218314D01*
X108981464Y-199322048D01*
X107098430Y-198903674D01*
X105105409Y-198460863D01*
X102056280Y-197812363D01*
X102056266Y-197812360D01*
X131726195Y-197812360D01*
X131726195Y-197812363D01*
X131739201Y-197911163D01*
X131760261Y-197947639D01*
X131789030Y-197997468D01*
X131868092Y-198058134D01*
X131964352Y-198083927D01*
X131964352Y-198083926D01*
X132023414Y-198099752D01*
X132023417Y-198099752D01*
X145487313Y-201707393D01*
X145586115Y-201694386D01*
X145672419Y-201644558D01*
X145733085Y-201565496D01*
X149382345Y-187946275D01*
X149369338Y-187847472D01*
X149319510Y-187761168D01*
X149319508Y-187761166D01*
X149319507Y-187761165D01*
X149257003Y-187713204D01*
X149256995Y-187713199D01*
X149240450Y-187700504D01*
X149240449Y-187700503D01*
X149240448Y-187700502D01*
X149240447Y-187700502D01*
X146365902Y-186930270D01*
X149766731Y-186930270D01*
X149766731Y-186930285D01*
X149786024Y-187224641D01*
X149786025Y-187224651D01*
X149786026Y-187224658D01*
X149800502Y-187297437D01*
X149843578Y-187513994D01*
X149843581Y-187514008D01*
X149938409Y-187793358D01*
X150068885Y-188057938D01*
X150068889Y-188057945D01*
X150232785Y-188303233D01*
X150427301Y-188525036D01*
X150649103Y-188719551D01*
X150894395Y-188883450D01*
X151158983Y-189013930D01*
X151438338Y-189108759D01*
X151727680Y-189166312D01*
X151755948Y-189168164D01*
X152022053Y-189185607D01*
X152022060Y-189185607D01*
X152022067Y-189185607D01*
X152257735Y-189170159D01*
X152316440Y-189166312D01*
X152605782Y-189108759D01*
X152885137Y-189013930D01*
X153149725Y-188883450D01*
X153395017Y-188719551D01*
X153616818Y-188525036D01*
X153811333Y-188303235D01*
X153975232Y-188057943D01*
X154105712Y-187793355D01*
X154200541Y-187514000D01*
X154258094Y-187224658D01*
X154272270Y-187008384D01*
X154277389Y-186930285D01*
X154277389Y-186930270D01*
X154258095Y-186635914D01*
X154258094Y-186635898D01*
X154200541Y-186346556D01*
X154105712Y-186067201D01*
X153975629Y-185803419D01*
X154672570Y-185803419D01*
X154672570Y-185803422D01*
X154685576Y-185902222D01*
X154685577Y-185902223D01*
X154735405Y-185988527D01*
X154814467Y-186049193D01*
X154910727Y-186074986D01*
X154910727Y-186074985D01*
X154969789Y-186090811D01*
X154969792Y-186090811D01*
X168433688Y-189698452D01*
X168532490Y-189685445D01*
X168618794Y-189635617D01*
X168679460Y-189556555D01*
X168695467Y-189496817D01*
X168705253Y-189460295D01*
X168705252Y-189460294D01*
X168713846Y-189428221D01*
X168713846Y-189428219D01*
X170828021Y-181538016D01*
X175547218Y-181538016D01*
X175547218Y-181538019D01*
X175560224Y-181636819D01*
X175560225Y-181636820D01*
X175610053Y-181723124D01*
X175689115Y-181783790D01*
X175785375Y-181809583D01*
X175785375Y-181809582D01*
X175844437Y-181825408D01*
X175844440Y-181825408D01*
X189308336Y-185433049D01*
X189407138Y-185420042D01*
X189493442Y-185370214D01*
X189554108Y-185291152D01*
X189562379Y-185260286D01*
X189579901Y-185194892D01*
X189579900Y-185194891D01*
X189588494Y-185162818D01*
X189588494Y-185162816D01*
X189684634Y-184804015D01*
X205193053Y-184804015D01*
X205193053Y-184804017D01*
X205193053Y-198903673D01*
X205231189Y-198995742D01*
X205301656Y-199066209D01*
X205393725Y-199104345D01*
X205393727Y-199104345D01*
X219493379Y-199104345D01*
X219493381Y-199104345D01*
X219585450Y-199066209D01*
X219655917Y-198995742D01*
X219694053Y-198903673D01*
X219694053Y-194345961D01*
X257445265Y-194345961D01*
X257445265Y-194345964D01*
X261094525Y-207965187D01*
X261149246Y-208036500D01*
X261149250Y-208036505D01*
X261155191Y-208044247D01*
X261241495Y-208094075D01*
X261340297Y-208107082D01*
X274959520Y-204457822D01*
X275007794Y-204420780D01*
X275038581Y-204397157D01*
X275088409Y-204310853D01*
X275101416Y-204212050D01*
X271475874Y-190681347D01*
X271470068Y-190659680D01*
X271452156Y-190592829D01*
X271446215Y-190585087D01*
X271391490Y-190513767D01*
X271341661Y-190484998D01*
X271305185Y-190463938D01*
X271206385Y-190450932D01*
X271206382Y-190450932D01*
X257683422Y-194074398D01*
X257587162Y-194100191D01*
X257508100Y-194160857D01*
X257458271Y-194247161D01*
X257445265Y-194345961D01*
X219694053Y-194345961D01*
X219694053Y-191522750D01*
X240185367Y-191522750D01*
X240185367Y-191522765D01*
X240204660Y-191817121D01*
X240204661Y-191817131D01*
X240204662Y-191817138D01*
X240204664Y-191817148D01*
X240262214Y-192106474D01*
X240262217Y-192106488D01*
X240357045Y-192385838D01*
X240487521Y-192650418D01*
X240487525Y-192650425D01*
X240651421Y-192895713D01*
X240845937Y-193117516D01*
X241067740Y-193312032D01*
X241231328Y-193421338D01*
X241313031Y-193475930D01*
X241577619Y-193606410D01*
X241856974Y-193701239D01*
X242146316Y-193758792D01*
X242174584Y-193760644D01*
X242440689Y-193778087D01*
X242440696Y-193778087D01*
X242440703Y-193778087D01*
X242676371Y-193762639D01*
X242735076Y-193758792D01*
X243024418Y-193701239D01*
X243303773Y-193606410D01*
X243568361Y-193475930D01*
X243813653Y-193312031D01*
X244035454Y-193117516D01*
X244229969Y-192895715D01*
X244393868Y-192650423D01*
X244524348Y-192385835D01*
X244619177Y-192106480D01*
X244676730Y-191817138D01*
X244684113Y-191704492D01*
X244696025Y-191522765D01*
X244696025Y-191522750D01*
X244676731Y-191228394D01*
X244676730Y-191228378D01*
X244619177Y-190939036D01*
X244524348Y-190659681D01*
X244393868Y-190395094D01*
X244345245Y-190322325D01*
X244286328Y-190234149D01*
X244229969Y-190149801D01*
X244166150Y-190077030D01*
X244035454Y-189927999D01*
X243813651Y-189733483D01*
X243568363Y-189569587D01*
X243568356Y-189569583D01*
X243303776Y-189439107D01*
X243024426Y-189344279D01*
X243024420Y-189344277D01*
X243024418Y-189344277D01*
X242735076Y-189286724D01*
X242735069Y-189286723D01*
X242735059Y-189286722D01*
X242440703Y-189267429D01*
X242440689Y-189267429D01*
X242146332Y-189286722D01*
X242146320Y-189286723D01*
X242146316Y-189286724D01*
X242146308Y-189286725D01*
X242146305Y-189286726D01*
X241856979Y-189344276D01*
X241856965Y-189344279D01*
X241577615Y-189439107D01*
X241313030Y-189569586D01*
X241067737Y-189733486D01*
X240845937Y-189927999D01*
X240651424Y-190149799D01*
X240487524Y-190395092D01*
X240357045Y-190659677D01*
X240262217Y-190939027D01*
X240262214Y-190939041D01*
X240204664Y-191228367D01*
X240204660Y-191228394D01*
X240185367Y-191522750D01*
X219694053Y-191522750D01*
X219694053Y-184804017D01*
X219655917Y-184711948D01*
X219585450Y-184641481D01*
X219493382Y-184603345D01*
X219493381Y-184603345D01*
X205493381Y-184603345D01*
X205393725Y-184603345D01*
X205393723Y-184603345D01*
X205301655Y-184641481D01*
X205231189Y-184711947D01*
X205193053Y-184804015D01*
X189684634Y-184804015D01*
X193198119Y-171691519D01*
X231644238Y-171691519D01*
X231644238Y-171691522D01*
X235293498Y-185310745D01*
X235339130Y-185370213D01*
X235339131Y-185370214D01*
X235354164Y-185389805D01*
X235354166Y-185389807D01*
X235406536Y-185420042D01*
X235440468Y-185439633D01*
X235539270Y-185452640D01*
X249158493Y-181803380D01*
X249206767Y-181766338D01*
X249237554Y-181742715D01*
X249287382Y-181656411D01*
X249300389Y-181557608D01*
X247800243Y-175958990D01*
X252511919Y-175958990D01*
X252511919Y-175958993D01*
X256155375Y-189556554D01*
X256161179Y-189578215D01*
X256221845Y-189657276D01*
X256308149Y-189707104D01*
X256406951Y-189720111D01*
X266547201Y-187003039D01*
X270576119Y-187003039D01*
X270576119Y-187003054D01*
X270595412Y-187297410D01*
X270595413Y-187297420D01*
X270595414Y-187297427D01*
X270621678Y-187429469D01*
X270652966Y-187586763D01*
X270652969Y-187586777D01*
X270747797Y-187866127D01*
X270878273Y-188130707D01*
X270878277Y-188130714D01*
X271042173Y-188376002D01*
X271236689Y-188597805D01*
X271458492Y-188792321D01*
X271703780Y-188956217D01*
X271703783Y-188956219D01*
X271968371Y-189086699D01*
X272247726Y-189181528D01*
X272537068Y-189239081D01*
X272565336Y-189240933D01*
X272831441Y-189258376D01*
X272831448Y-189258376D01*
X272831455Y-189258376D01*
X273067123Y-189242928D01*
X273125828Y-189239081D01*
X273415170Y-189181528D01*
X273694525Y-189086699D01*
X273959113Y-188956219D01*
X274204405Y-188792320D01*
X274426206Y-188597805D01*
X274620721Y-188376004D01*
X274784620Y-188130712D01*
X274870137Y-187957301D01*
X275448864Y-187957301D01*
X275448864Y-187957304D01*
X279098123Y-201576523D01*
X279098124Y-201576526D01*
X279150328Y-201644559D01*
X279150329Y-201644560D01*
X279158790Y-201655588D01*
X279219453Y-201690611D01*
X279245094Y-201705415D01*
X279343896Y-201718422D01*
X292963119Y-198069162D01*
X292997444Y-198042822D01*
X292997445Y-198042821D01*
X292997445Y-198042822D01*
X292997446Y-198042819D01*
X293042180Y-198008497D01*
X293092008Y-197922193D01*
X293105015Y-197823390D01*
X289455755Y-184204169D01*
X289395089Y-184125107D01*
X289330931Y-184088065D01*
X289308784Y-184075278D01*
X289209984Y-184062272D01*
X289209981Y-184062272D01*
X275687021Y-187685738D01*
X275590761Y-187711531D01*
X275511699Y-187772197D01*
X275461870Y-187858501D01*
X275448864Y-187957301D01*
X274870137Y-187957301D01*
X274915100Y-187866124D01*
X275009929Y-187586769D01*
X275067482Y-187297427D01*
X275086080Y-187013686D01*
X275086777Y-187003054D01*
X275086777Y-187003039D01*
X275067483Y-186708683D01*
X275067482Y-186708667D01*
X275009929Y-186419325D01*
X274915100Y-186139970D01*
X274784620Y-185875383D01*
X274744400Y-185815190D01*
X274729490Y-185792876D01*
X274620721Y-185630090D01*
X274556902Y-185557319D01*
X274426206Y-185408288D01*
X274204403Y-185213772D01*
X273959115Y-185049876D01*
X273959108Y-185049872D01*
X273694528Y-184919396D01*
X273415178Y-184824568D01*
X273415172Y-184824566D01*
X273415170Y-184824566D01*
X273125828Y-184767013D01*
X273125821Y-184767012D01*
X273125811Y-184767011D01*
X272831455Y-184747718D01*
X272831441Y-184747718D01*
X272537084Y-184767011D01*
X272537072Y-184767012D01*
X272537068Y-184767013D01*
X272537060Y-184767014D01*
X272537057Y-184767015D01*
X272247731Y-184824565D01*
X272247717Y-184824568D01*
X271968367Y-184919396D01*
X271703782Y-185049875D01*
X271458489Y-185213775D01*
X271236689Y-185408288D01*
X271042176Y-185630088D01*
X270878276Y-185875381D01*
X270747797Y-186139966D01*
X270652969Y-186419316D01*
X270652966Y-186419330D01*
X270595416Y-186708656D01*
X270595412Y-186708683D01*
X270576119Y-187003039D01*
X266547201Y-187003039D01*
X270026174Y-186070851D01*
X270074448Y-186033809D01*
X270105235Y-186010186D01*
X270155063Y-185923882D01*
X270168070Y-185825079D01*
X266544400Y-172301363D01*
X266537961Y-172277333D01*
X266518810Y-172205858D01*
X266458144Y-172126796D01*
X266393986Y-172089754D01*
X266371839Y-172076967D01*
X266273039Y-172063961D01*
X266273036Y-172063961D01*
X252750076Y-175687427D01*
X252653816Y-175713220D01*
X252574754Y-175773886D01*
X252524925Y-175860190D01*
X252511919Y-175958990D01*
X247800243Y-175958990D01*
X245671672Y-168015056D01*
X245651129Y-167938387D01*
X245590463Y-167859325D01*
X245570700Y-167847915D01*
X245570698Y-167847913D01*
X245504159Y-167809497D01*
X245504158Y-167809496D01*
X245405358Y-167796490D01*
X245405355Y-167796490D01*
X231882395Y-171419956D01*
X231786135Y-171445749D01*
X231707073Y-171506415D01*
X231657244Y-171592719D01*
X231644238Y-171691519D01*
X193198119Y-171691519D01*
X193203368Y-171671931D01*
X193190361Y-171573128D01*
X193140533Y-171486824D01*
X193140531Y-171486822D01*
X193140530Y-171486821D01*
X193087003Y-171445749D01*
X193061472Y-171426159D01*
X193061473Y-171426159D01*
X179442249Y-167776899D01*
X179343447Y-167789905D01*
X179257143Y-167839734D01*
X179196476Y-167918796D01*
X179180934Y-167976804D01*
X179180934Y-167976805D01*
X175547218Y-181538016D01*
X170828021Y-181538016D01*
X172328720Y-175937334D01*
X172315713Y-175838531D01*
X172265885Y-175752227D01*
X172265883Y-175752225D01*
X172215061Y-175713229D01*
X172215058Y-175713227D01*
X172215049Y-175713220D01*
X172186824Y-175691562D01*
X158567601Y-172042302D01*
X158468799Y-172055308D01*
X158431287Y-172076967D01*
X158409139Y-172089754D01*
X158400257Y-172094881D01*
X158382497Y-172105135D01*
X158382495Y-172105136D01*
X158382495Y-172105137D01*
X158365876Y-172126796D01*
X158321829Y-172184199D01*
X154672570Y-185803419D01*
X153975629Y-185803419D01*
X153975232Y-185802614D01*
X153811333Y-185557321D01*
X153702348Y-185433048D01*
X153616818Y-185335519D01*
X153395015Y-185141003D01*
X153149727Y-184977107D01*
X153149720Y-184977103D01*
X152885140Y-184846627D01*
X152605790Y-184751799D01*
X152605784Y-184751797D01*
X152605782Y-184751797D01*
X152316440Y-184694244D01*
X152316433Y-184694243D01*
X152316423Y-184694242D01*
X152022067Y-184674949D01*
X152022053Y-184674949D01*
X151727696Y-184694242D01*
X151727684Y-184694243D01*
X151727680Y-184694244D01*
X151727672Y-184694245D01*
X151727669Y-184694246D01*
X151438343Y-184751796D01*
X151438329Y-184751799D01*
X151158979Y-184846627D01*
X150894394Y-184977106D01*
X150649101Y-185141006D01*
X150427301Y-185335519D01*
X150232788Y-185557319D01*
X150068888Y-185802612D01*
X149938409Y-186067197D01*
X149843581Y-186346547D01*
X149843578Y-186346561D01*
X149786028Y-186635887D01*
X149786024Y-186635914D01*
X149766731Y-186930270D01*
X146365902Y-186930270D01*
X135621226Y-184051243D01*
X135522424Y-184064249D01*
X135522423Y-184064250D01*
X135481175Y-184088065D01*
X135436122Y-184114075D01*
X135375454Y-184193140D01*
X131726195Y-197812360D01*
X102056266Y-197812360D01*
X101221736Y-197634869D01*
X97330728Y-196844126D01*
X93432709Y-196088698D01*
X89528000Y-195368649D01*
X85616942Y-194684042D01*
X81699816Y-194034924D01*
X77776860Y-193421338D01*
X73848732Y-192843385D01*
X73848712Y-192843382D01*
X73848690Y-192843379D01*
X72449212Y-192650418D01*
X71893493Y-192573795D01*
X71883963Y-192572100D01*
X71486136Y-192485185D01*
X71475659Y-192482411D01*
X71110622Y-192368481D01*
X71085700Y-192360702D01*
X71075514Y-192357027D01*
X70697674Y-192201735D01*
X70687847Y-192197185D01*
X70371842Y-192033719D01*
X70324998Y-192009487D01*
X70315599Y-192004091D01*
X69970548Y-191785441D01*
X69961656Y-191779246D01*
X69863778Y-191704492D01*
X69637000Y-191531291D01*
X69628702Y-191524359D01*
X69326919Y-191248987D01*
X69319249Y-191241347D01*
X69042683Y-190940697D01*
X69035701Y-190932407D01*
X69026338Y-190920250D01*
X68786447Y-190608759D01*
X68780216Y-190599892D01*
X68602759Y-190322325D01*
X68560174Y-190255716D01*
X68554750Y-190246356D01*
X68365580Y-189884243D01*
X68360996Y-189874446D01*
X68204184Y-189497236D01*
X68200467Y-189487060D01*
X68191995Y-189460294D01*
X68077185Y-189097579D01*
X68074378Y-189087147D01*
X67985574Y-188688382D01*
X67983685Y-188677718D01*
X67950395Y-188426397D01*
X67930044Y-188272753D01*
X67929092Y-188261964D01*
X67911014Y-187853827D01*
X67911010Y-187843014D01*
X67928638Y-187434874D01*
X67929575Y-187424113D01*
X67982777Y-187019048D01*
X67984653Y-187008398D01*
X68073672Y-186606594D01*
X68074961Y-186601322D01*
X68242619Y-185975615D01*
X75725229Y-185975615D01*
X75725229Y-185975618D01*
X75738235Y-186074418D01*
X75759295Y-186110894D01*
X75788064Y-186160723D01*
X75867126Y-186221389D01*
X75963386Y-186247182D01*
X75963386Y-186247181D01*
X76022448Y-186263007D01*
X76022451Y-186263007D01*
X89486347Y-189870648D01*
X89585149Y-189857641D01*
X89671453Y-189807813D01*
X89732119Y-189728751D01*
X89740238Y-189698452D01*
X89757912Y-189632491D01*
X89757911Y-189632490D01*
X89766505Y-189600417D01*
X89766505Y-189600415D01*
X90208369Y-187951356D01*
X94924419Y-187951356D01*
X94924419Y-187951359D01*
X94937425Y-188050159D01*
X94943788Y-188061180D01*
X94987254Y-188136464D01*
X95066316Y-188197130D01*
X95162576Y-188222923D01*
X95162576Y-188222922D01*
X95221638Y-188238748D01*
X95221641Y-188238748D01*
X108685537Y-191846389D01*
X108784339Y-191833382D01*
X108870643Y-191783554D01*
X108931309Y-191704492D01*
X108937738Y-191680497D01*
X108937739Y-191680496D01*
X108949417Y-191636910D01*
X108957102Y-191608232D01*
X108957101Y-191608231D01*
X108957831Y-191605510D01*
X108965696Y-191576155D01*
X108965697Y-191576149D01*
X109007429Y-191420403D01*
X113710329Y-191420403D01*
X113710329Y-191420406D01*
X113723335Y-191519206D01*
X113744395Y-191555682D01*
X113773164Y-191605511D01*
X113852226Y-191666177D01*
X113948486Y-191691970D01*
X113948486Y-191691969D01*
X114007548Y-191707795D01*
X114007551Y-191707795D01*
X127471447Y-195315436D01*
X127570249Y-195302429D01*
X127656553Y-195252601D01*
X127717219Y-195173539D01*
X127725490Y-195142673D01*
X127743012Y-195077279D01*
X127743011Y-195077278D01*
X127751605Y-195045205D01*
X127751605Y-195045203D01*
X131366479Y-181554318D01*
X131353472Y-181455515D01*
X131303644Y-181369211D01*
X131258908Y-181334885D01*
X131224583Y-181308546D01*
X131224581Y-181308545D01*
X124104932Y-179400841D01*
X136666110Y-179400841D01*
X136666110Y-179400844D01*
X136679116Y-179499644D01*
X136679117Y-179499645D01*
X136728945Y-179585949D01*
X136808007Y-179646615D01*
X136904267Y-179672408D01*
X136904267Y-179672407D01*
X136963329Y-179688233D01*
X136963332Y-179688233D01*
X150427228Y-183295874D01*
X150526030Y-183282867D01*
X150612334Y-183233039D01*
X150673000Y-183153977D01*
X150681271Y-183123111D01*
X150698793Y-183057717D01*
X150698792Y-183057716D01*
X150707386Y-183025643D01*
X150707386Y-183025641D01*
X154322260Y-169534756D01*
X154309253Y-169435953D01*
X154259425Y-169349649D01*
X154259423Y-169349647D01*
X154190462Y-169296733D01*
X154190461Y-169296732D01*
X154180364Y-169288984D01*
X154180363Y-169288983D01*
X147140038Y-167402534D01*
X159603066Y-167402534D01*
X159603066Y-167402537D01*
X159616072Y-167501337D01*
X159616073Y-167501338D01*
X159665901Y-167587642D01*
X159744963Y-167648308D01*
X159841223Y-167674101D01*
X159841223Y-167674100D01*
X159900285Y-167689926D01*
X159900288Y-167689926D01*
X173364184Y-171297567D01*
X173462986Y-171284560D01*
X173549290Y-171234732D01*
X173609956Y-171155670D01*
X173619892Y-171118587D01*
X173635749Y-171059410D01*
X173635748Y-171059409D01*
X177259216Y-157536449D01*
X177246209Y-157437646D01*
X177196381Y-157351342D01*
X177151645Y-157317016D01*
X177117320Y-157290677D01*
X177117318Y-157290676D01*
X163498097Y-153641417D01*
X163399295Y-153654423D01*
X163312991Y-153704252D01*
X163252324Y-153783314D01*
X163228127Y-153873623D01*
X163228127Y-153873624D01*
X159603066Y-167402534D01*
X147140038Y-167402534D01*
X140561141Y-165639724D01*
X140462339Y-165652730D01*
X140414051Y-165680610D01*
X140378699Y-165701021D01*
X140377849Y-165701511D01*
X140376033Y-165702559D01*
X140315369Y-165781619D01*
X136666110Y-179400841D01*
X124104932Y-179400841D01*
X117605360Y-177659286D01*
X117506558Y-177672292D01*
X117506557Y-177672293D01*
X117459607Y-177699400D01*
X117420256Y-177722118D01*
X117359588Y-177801183D01*
X113710329Y-191420403D01*
X109007429Y-191420403D01*
X112580569Y-178085271D01*
X112567562Y-177986468D01*
X112517734Y-177900164D01*
X112517732Y-177900162D01*
X112447628Y-177846371D01*
X112447626Y-177846369D01*
X112438674Y-177839500D01*
X112438673Y-177839499D01*
X112438670Y-177839498D01*
X98819450Y-174190239D01*
X98720648Y-174203245D01*
X98634344Y-174253074D01*
X98573678Y-174332136D01*
X94924419Y-187951356D01*
X90208369Y-187951356D01*
X93381379Y-176109530D01*
X93368372Y-176010727D01*
X93318544Y-175924423D01*
X93273808Y-175890097D01*
X93239483Y-175863758D01*
X93239481Y-175863757D01*
X79620260Y-172214498D01*
X79521458Y-172227504D01*
X79435154Y-172277333D01*
X79374488Y-172356394D01*
X79362558Y-172400920D01*
X75725229Y-185975615D01*
X68242619Y-185975615D01*
X69967430Y-179538544D01*
X69967497Y-179538434D01*
X69980671Y-179489264D01*
X69980672Y-179489265D01*
X70037730Y-179276306D01*
X70086592Y-179006420D01*
X70116284Y-178842425D01*
X70117476Y-178830111D01*
X70158743Y-178403525D01*
X70161256Y-178220945D01*
X70164812Y-177962638D01*
X70164811Y-177962635D01*
X70164812Y-177962624D01*
X70134452Y-177522729D01*
X70067871Y-177086843D01*
X69965521Y-176657944D01*
X69828104Y-176238961D01*
X69656558Y-175832757D01*
X69452053Y-175442107D01*
X69215989Y-175069678D01*
X69215986Y-175069673D01*
X68949983Y-174718024D01*
X68949971Y-174718010D01*
X68655835Y-174389524D01*
X68655829Y-174389518D01*
X68445252Y-174190239D01*
X68335565Y-174086437D01*
X68121205Y-173914799D01*
X67991362Y-173810833D01*
X67813775Y-173691287D01*
X67625582Y-173564599D01*
X67384163Y-173429615D01*
X67240718Y-173349411D01*
X67240705Y-173349404D01*
X66839382Y-173166732D01*
X66424360Y-173017828D01*
X66424348Y-173017825D01*
X66275295Y-172977884D01*
X66275292Y-172977883D01*
X57626907Y-170660550D01*
X57621712Y-170659035D01*
X57227664Y-170534785D01*
X57217506Y-170531088D01*
X56838242Y-170373986D01*
X56828460Y-170369425D01*
X56809527Y-170359569D01*
X56464341Y-170179872D01*
X56454973Y-170174463D01*
X56309662Y-170081888D01*
X75393197Y-170081888D01*
X75393197Y-170081903D01*
X75412490Y-170376259D01*
X75412491Y-170376269D01*
X75412492Y-170376276D01*
X75468898Y-170659854D01*
X75470044Y-170665612D01*
X75470047Y-170665626D01*
X75564875Y-170944976D01*
X75695351Y-171209556D01*
X75695355Y-171209563D01*
X75859251Y-171454851D01*
X76053767Y-171676654D01*
X76275569Y-171871169D01*
X76520861Y-172035068D01*
X76785449Y-172165548D01*
X77064804Y-172260377D01*
X77354146Y-172317930D01*
X77382414Y-172319782D01*
X77648519Y-172337225D01*
X77648526Y-172337225D01*
X77648533Y-172337225D01*
X77884201Y-172321777D01*
X77942906Y-172317930D01*
X78232248Y-172260377D01*
X78511603Y-172165548D01*
X78776191Y-172035068D01*
X79021483Y-171871169D01*
X79243284Y-171676654D01*
X79437799Y-171454853D01*
X79601698Y-171209561D01*
X79732178Y-170944973D01*
X79827007Y-170665618D01*
X79884560Y-170376276D01*
X79898243Y-170167521D01*
X79903855Y-170081903D01*
X79903855Y-170081888D01*
X79884815Y-169791414D01*
X79884560Y-169787516D01*
X79827007Y-169498174D01*
X79732178Y-169218819D01*
X79601698Y-168954232D01*
X79437799Y-168708939D01*
X79384772Y-168648474D01*
X79243284Y-168487137D01*
X79021481Y-168292621D01*
X78776193Y-168128725D01*
X78776186Y-168128721D01*
X78511606Y-167998245D01*
X78232256Y-167903417D01*
X78232250Y-167903415D01*
X78232248Y-167903415D01*
X77942906Y-167845862D01*
X77942899Y-167845861D01*
X77942889Y-167845860D01*
X77648533Y-167826567D01*
X77648519Y-167826567D01*
X77354162Y-167845860D01*
X77354150Y-167845861D01*
X77354146Y-167845862D01*
X77354138Y-167845863D01*
X77354135Y-167845864D01*
X77064809Y-167903414D01*
X77064795Y-167903417D01*
X76785445Y-167998245D01*
X76520860Y-168128724D01*
X76275567Y-168292624D01*
X76053767Y-168487137D01*
X75859254Y-168708937D01*
X75695354Y-168954230D01*
X75564875Y-169218815D01*
X75470047Y-169498165D01*
X75470044Y-169498179D01*
X75412494Y-169787505D01*
X75412490Y-169787532D01*
X75393197Y-170081888D01*
X56309662Y-170081888D01*
X56108769Y-169953903D01*
X56099908Y-169947698D01*
X55774245Y-169697805D01*
X55765959Y-169690852D01*
X55463314Y-169413528D01*
X55455665Y-169405879D01*
X55355650Y-169296732D01*
X55178342Y-169103234D01*
X55171393Y-169094954D01*
X55168279Y-169090896D01*
X54921491Y-168769276D01*
X54915287Y-168760415D01*
X54694732Y-168414218D01*
X54689323Y-168404850D01*
X54499767Y-168040724D01*
X54495210Y-168030952D01*
X54365790Y-167718512D01*
X54338107Y-167651681D01*
X54334408Y-167641516D01*
X54210968Y-167250034D01*
X54208168Y-167239585D01*
X54131351Y-166893113D01*
X54119315Y-166838828D01*
X54117437Y-166828178D01*
X54115816Y-166815864D01*
X54063846Y-166421176D01*
X54062906Y-166410430D01*
X54044992Y-166000308D01*
X54044992Y-165989494D01*
X54045529Y-165977192D01*
X54062888Y-165579383D01*
X54063827Y-165568642D01*
X54117403Y-165161607D01*
X54119275Y-165150994D01*
X54208360Y-164749103D01*
X54209654Y-164743818D01*
X54222696Y-164695198D01*
X54222718Y-164695057D01*
X54223514Y-164692085D01*
X54223626Y-164691443D01*
X54266356Y-164531993D01*
X54344930Y-164098107D01*
X54346320Y-164083744D01*
X61875706Y-164083744D01*
X61875706Y-164083747D01*
X61888712Y-164182547D01*
X61909772Y-164219023D01*
X61938541Y-164268852D01*
X62017603Y-164329518D01*
X62113863Y-164355311D01*
X62113863Y-164355310D01*
X62172925Y-164371136D01*
X62172928Y-164371136D01*
X75636824Y-167978777D01*
X75735626Y-167965770D01*
X75821930Y-167915942D01*
X75882596Y-167836880D01*
X75886507Y-167822283D01*
X75908389Y-167740620D01*
X75908388Y-167740619D01*
X75952837Y-167574735D01*
X80655730Y-167574735D01*
X80655730Y-167574738D01*
X80668736Y-167673538D01*
X80688936Y-167708525D01*
X80718565Y-167759843D01*
X80797627Y-167820509D01*
X80893887Y-167846302D01*
X80893887Y-167846301D01*
X80952949Y-167862127D01*
X80952952Y-167862127D01*
X94416848Y-171469768D01*
X94515650Y-171456761D01*
X94601954Y-171406933D01*
X94662620Y-171327871D01*
X94674225Y-171284560D01*
X94688413Y-171231611D01*
X94688412Y-171231610D01*
X94697007Y-171199534D01*
X94697008Y-171199528D01*
X95138873Y-169550468D01*
X99854915Y-169550468D01*
X99854915Y-169550471D01*
X99867921Y-169649271D01*
X99867922Y-169649272D01*
X99917750Y-169735576D01*
X99996812Y-169796242D01*
X100093072Y-169822035D01*
X100093072Y-169822034D01*
X100152134Y-169837860D01*
X100152137Y-169837860D01*
X113616033Y-173445501D01*
X113714835Y-173432494D01*
X113801139Y-173382666D01*
X113861805Y-173303604D01*
X113882896Y-173224893D01*
X113887598Y-173207344D01*
X113887597Y-173207343D01*
X113896195Y-173175255D01*
X113896195Y-173175254D01*
X113937923Y-173019523D01*
X118640828Y-173019523D01*
X118640828Y-173019526D01*
X118653834Y-173118326D01*
X118674641Y-173154364D01*
X118703663Y-173204631D01*
X118782725Y-173265297D01*
X118878985Y-173291090D01*
X118878985Y-173291089D01*
X118938047Y-173306915D01*
X118938050Y-173306915D01*
X132401946Y-176914556D01*
X132500748Y-176901549D01*
X132587052Y-176851721D01*
X132647718Y-176772659D01*
X132655989Y-176741793D01*
X132673511Y-176676399D01*
X132673510Y-176676398D01*
X132682104Y-176644325D01*
X132682104Y-176644323D01*
X136296978Y-163153438D01*
X136283971Y-163054635D01*
X136234143Y-162968331D01*
X136234141Y-162968329D01*
X136186926Y-162932101D01*
X136186923Y-162932099D01*
X136186914Y-162932092D01*
X136155082Y-162907666D01*
X136155080Y-162907665D01*
X129075092Y-161010588D01*
X141587199Y-161010588D01*
X141587199Y-161010591D01*
X141600205Y-161109391D01*
X141621265Y-161145867D01*
X141650034Y-161195696D01*
X141729096Y-161256362D01*
X141825356Y-161282155D01*
X141825356Y-161282154D01*
X141884418Y-161297980D01*
X141884421Y-161297980D01*
X155348317Y-164905621D01*
X155447119Y-164892614D01*
X155533423Y-164842786D01*
X155594089Y-164763724D01*
X155599119Y-164744951D01*
X155619882Y-164667464D01*
X155619881Y-164667463D01*
X159243349Y-151144503D01*
X159230342Y-151045700D01*
X159180514Y-150959396D01*
X159180512Y-150959394D01*
X159132368Y-150922453D01*
X159132367Y-150922452D01*
X159101453Y-150898731D01*
X152021447Y-149001649D01*
X164533569Y-149001649D01*
X164533569Y-149001652D01*
X164546575Y-149100452D01*
X164546576Y-149100453D01*
X164596404Y-149186757D01*
X164675466Y-149247423D01*
X164771726Y-149273216D01*
X164771726Y-149273215D01*
X164830788Y-149289041D01*
X164830791Y-149289041D01*
X178294687Y-152896682D01*
X178393489Y-152883675D01*
X178479793Y-152833847D01*
X178540459Y-152754785D01*
X178564179Y-152666261D01*
X178566252Y-152658525D01*
X178566251Y-152658524D01*
X182189719Y-139135564D01*
X182176712Y-139036761D01*
X182126884Y-138950457D01*
X182126882Y-138950455D01*
X182057904Y-138897528D01*
X182057899Y-138897524D01*
X182047823Y-138889792D01*
X168428600Y-135240532D01*
X168329798Y-135253538D01*
X168243494Y-135303367D01*
X168182827Y-135382429D01*
X168163964Y-135452831D01*
X168163964Y-135452832D01*
X164533569Y-149001649D01*
X152021447Y-149001649D01*
X145482230Y-147249471D01*
X145383428Y-147262477D01*
X145383427Y-147262478D01*
X145342179Y-147286293D01*
X145297126Y-147312303D01*
X145236458Y-147391368D01*
X141587199Y-161010588D01*
X129075092Y-161010588D01*
X122535859Y-159258406D01*
X122437057Y-159271412D01*
X122350753Y-159321241D01*
X122290087Y-159400303D01*
X122264339Y-159496397D01*
X118640828Y-173019523D01*
X113937923Y-173019523D01*
X117511065Y-159684383D01*
X117498058Y-159585580D01*
X117448230Y-159499276D01*
X117403494Y-159464950D01*
X117369169Y-159438611D01*
X117369167Y-159438610D01*
X103749946Y-155789351D01*
X103651144Y-155802357D01*
X103564840Y-155852186D01*
X103504173Y-155931248D01*
X103479153Y-156024628D01*
X103479153Y-156024629D01*
X99854915Y-169550468D01*
X95138873Y-169550468D01*
X98311880Y-157708650D01*
X98298873Y-157609847D01*
X98249045Y-157523543D01*
X98204309Y-157489217D01*
X98169984Y-157462878D01*
X98169982Y-157462877D01*
X84550761Y-153813618D01*
X84451959Y-153826624D01*
X84451958Y-153826625D01*
X84393083Y-153860617D01*
X84365657Y-153876450D01*
X84304989Y-153955515D01*
X80655730Y-167574735D01*
X75952837Y-167574735D01*
X79531856Y-154217659D01*
X79518849Y-154118856D01*
X79469021Y-154032552D01*
X79469019Y-154032550D01*
X79409366Y-153986778D01*
X79409366Y-153986777D01*
X79409362Y-153986775D01*
X79389960Y-153971887D01*
X79389959Y-153971886D01*
X79389958Y-153971886D01*
X65770737Y-150322627D01*
X65671935Y-150335633D01*
X65585631Y-150385462D01*
X65524964Y-150464524D01*
X65503456Y-150544797D01*
X65503456Y-150544798D01*
X61875706Y-164083744D01*
X54346320Y-164083744D01*
X54387405Y-163659214D01*
X54393490Y-163218312D01*
X54363145Y-162778414D01*
X54296575Y-162342525D01*
X54194236Y-161913622D01*
X54128610Y-161713515D01*
X54056836Y-161494660D01*
X54056831Y-161494650D01*
X54056827Y-161494635D01*
X53885287Y-161088427D01*
X53680787Y-160697772D01*
X53444725Y-160325340D01*
X53178713Y-159973674D01*
X53167697Y-159961372D01*
X52919673Y-159684383D01*
X52884568Y-159645178D01*
X52564300Y-159342094D01*
X52220097Y-159066494D01*
X51854310Y-158820260D01*
X51854303Y-158820256D01*
X51854300Y-158820254D01*
X51469444Y-158605078D01*
X51469440Y-158605075D01*
X51268618Y-158513670D01*
X51068111Y-158422408D01*
X51019588Y-158405000D01*
X50653075Y-158273508D01*
X50653067Y-158273506D01*
X50443354Y-158217317D01*
X50443324Y-158217309D01*
X50394242Y-158204145D01*
X48548287Y-157709047D01*
X42014363Y-155956603D01*
X42014246Y-155956561D01*
X41964520Y-155943235D01*
X41959329Y-155941722D01*
X41565227Y-155817452D01*
X41555062Y-155813752D01*
X41175822Y-155656655D01*
X41166018Y-155652083D01*
X40801921Y-155462537D01*
X40792553Y-155457129D01*
X40446343Y-155236562D01*
X40437482Y-155230357D01*
X40421573Y-155218149D01*
X40111812Y-154980454D01*
X40103538Y-154973510D01*
X39800898Y-154696185D01*
X39793249Y-154688536D01*
X39515930Y-154385890D01*
X39508977Y-154377604D01*
X39259089Y-154051941D01*
X39252884Y-154043080D01*
X39207529Y-153971887D01*
X39032323Y-153696866D01*
X39026916Y-153687499D01*
X39013729Y-153662167D01*
X38837374Y-153323392D01*
X38832805Y-153313595D01*
X38832129Y-153311964D01*
X38675713Y-152934344D01*
X38672016Y-152924186D01*
X38548569Y-152532671D01*
X38545779Y-152522255D01*
X38456924Y-152121474D01*
X38455052Y-152110858D01*
X38401462Y-151703842D01*
X38400522Y-151693096D01*
X38382611Y-151282977D01*
X38382611Y-151272163D01*
X38382674Y-151270718D01*
X38400510Y-150862056D01*
X38401449Y-150851311D01*
X38455026Y-150444285D01*
X38456900Y-150433665D01*
X38546346Y-150030156D01*
X38547622Y-150024944D01*
X38560048Y-149978591D01*
X45926586Y-149978591D01*
X45926586Y-149978594D01*
X45939592Y-150077394D01*
X45958944Y-150110912D01*
X45989421Y-150163699D01*
X46068483Y-150224365D01*
X46164743Y-150250158D01*
X46164743Y-150250157D01*
X46223805Y-150265983D01*
X46223808Y-150265983D01*
X59687704Y-153873624D01*
X59786506Y-153860617D01*
X59872810Y-153810789D01*
X59933476Y-153731727D01*
X59941747Y-153700861D01*
X59959269Y-153635467D01*
X59959268Y-153635466D01*
X59967862Y-153603393D01*
X59967862Y-153603391D01*
X62087316Y-145693486D01*
X66796791Y-145693486D01*
X66796791Y-145693489D01*
X66809797Y-145792289D01*
X66810031Y-145792694D01*
X66859626Y-145878594D01*
X66938688Y-145939260D01*
X67034948Y-145965053D01*
X67034948Y-145965052D01*
X67094010Y-145980878D01*
X67094013Y-145980878D01*
X80557909Y-149588519D01*
X80656711Y-149575512D01*
X80743015Y-149525684D01*
X80803681Y-149446622D01*
X80811952Y-149415756D01*
X80829474Y-149350362D01*
X80829473Y-149350361D01*
X80838067Y-149318288D01*
X80838067Y-149318286D01*
X80876771Y-149173841D01*
X85586234Y-149173841D01*
X85586234Y-149173844D01*
X85599240Y-149272644D01*
X85607505Y-149286959D01*
X85649069Y-149358949D01*
X85728131Y-149419615D01*
X85824391Y-149445408D01*
X85824391Y-149445407D01*
X85883453Y-149461233D01*
X85883456Y-149461233D01*
X99347352Y-153068874D01*
X99446154Y-153055867D01*
X99532458Y-153006039D01*
X99593124Y-152926977D01*
X100072222Y-151138959D01*
X104794844Y-151138959D01*
X104794844Y-151138962D01*
X104807850Y-151237762D01*
X104820350Y-151259412D01*
X104857679Y-151324067D01*
X104936741Y-151384733D01*
X105033001Y-151410526D01*
X105033001Y-151410525D01*
X105092063Y-151426351D01*
X105092066Y-151426351D01*
X118555962Y-155033992D01*
X118654764Y-155020985D01*
X118741068Y-154971157D01*
X118801734Y-154892095D01*
X118819077Y-154827369D01*
X118827527Y-154795835D01*
X118827526Y-154795834D01*
X118836121Y-154763761D01*
X118836123Y-154763747D01*
X118875005Y-154618637D01*
X123571338Y-154618637D01*
X123571338Y-154618640D01*
X123584344Y-154717440D01*
X123584345Y-154717441D01*
X123634173Y-154803745D01*
X123713235Y-154864411D01*
X123809495Y-154890204D01*
X123809495Y-154890203D01*
X123868557Y-154906029D01*
X123868560Y-154906029D01*
X137332456Y-158513670D01*
X137431258Y-158500663D01*
X137517562Y-158450835D01*
X137578228Y-158371773D01*
X141227488Y-144752552D01*
X141214481Y-144653749D01*
X141164653Y-144567445D01*
X141119917Y-144533119D01*
X141085592Y-144506780D01*
X141085590Y-144506779D01*
X133965941Y-142599075D01*
X146527120Y-142599075D01*
X146527120Y-142599078D01*
X146540126Y-142697878D01*
X146540127Y-142697879D01*
X146589955Y-142784183D01*
X146669017Y-142844849D01*
X146765277Y-142870642D01*
X146765277Y-142870641D01*
X146824339Y-142886467D01*
X146824342Y-142886467D01*
X160288238Y-146494108D01*
X160387040Y-146481101D01*
X160473344Y-146431273D01*
X160534010Y-146352211D01*
X164183270Y-132732990D01*
X164170263Y-132634187D01*
X164120435Y-132547883D01*
X164120433Y-132547881D01*
X164071773Y-132510544D01*
X164071770Y-132510542D01*
X164071761Y-132510535D01*
X164041374Y-132487218D01*
X161026235Y-131679314D01*
X164571180Y-131679314D01*
X164571180Y-131679329D01*
X164590473Y-131973685D01*
X164590474Y-131973695D01*
X164590475Y-131973702D01*
X164626160Y-132153107D01*
X164648027Y-132263038D01*
X164648030Y-132263052D01*
X164742858Y-132542402D01*
X164873334Y-132806982D01*
X164873338Y-132806989D01*
X165037234Y-133052277D01*
X165231750Y-133274080D01*
X165453552Y-133468595D01*
X165698844Y-133632494D01*
X165963432Y-133762974D01*
X166242787Y-133857803D01*
X166532129Y-133915356D01*
X166560397Y-133917208D01*
X166826502Y-133934651D01*
X166826509Y-133934651D01*
X166826516Y-133934651D01*
X167062184Y-133919203D01*
X167120889Y-133915356D01*
X167410231Y-133857803D01*
X167689586Y-133762974D01*
X167954174Y-133632494D01*
X168199466Y-133468595D01*
X168421267Y-133274080D01*
X168615782Y-133052279D01*
X168779681Y-132806987D01*
X168910161Y-132542399D01*
X169004990Y-132263044D01*
X169062543Y-131973702D01*
X169066390Y-131914997D01*
X169081838Y-131679329D01*
X169081838Y-131679314D01*
X169062544Y-131384958D01*
X169062543Y-131384942D01*
X169004990Y-131095600D01*
X168910161Y-130816245D01*
X168803895Y-130600759D01*
X169464073Y-130600759D01*
X169464073Y-130600762D01*
X169477079Y-130699562D01*
X169481553Y-130707311D01*
X169526908Y-130785867D01*
X169605970Y-130846533D01*
X169702230Y-130872326D01*
X169702230Y-130872325D01*
X169761292Y-130888151D01*
X169761295Y-130888151D01*
X183225191Y-134495792D01*
X183323993Y-134482785D01*
X183410297Y-134432957D01*
X183470963Y-134353895D01*
X187120223Y-120734674D01*
X187107216Y-120635871D01*
X187057388Y-120549567D01*
X187012652Y-120515241D01*
X186978327Y-120488902D01*
X186978325Y-120488901D01*
X173359104Y-116839642D01*
X173260302Y-116852648D01*
X173173998Y-116902477D01*
X173113331Y-116981539D01*
X173088268Y-117075080D01*
X173088268Y-117075081D01*
X169464073Y-130600759D01*
X168803895Y-130600759D01*
X168779681Y-130551658D01*
X168615782Y-130306365D01*
X168571656Y-130256049D01*
X168421267Y-130084563D01*
X168199464Y-129890047D01*
X167954176Y-129726151D01*
X167954169Y-129726147D01*
X167689589Y-129595671D01*
X167410239Y-129500843D01*
X167410233Y-129500841D01*
X167410231Y-129500841D01*
X167120889Y-129443288D01*
X167120882Y-129443287D01*
X167120872Y-129443286D01*
X166826516Y-129423993D01*
X166826502Y-129423993D01*
X166532145Y-129443286D01*
X166532133Y-129443287D01*
X166532129Y-129443288D01*
X166532121Y-129443289D01*
X166532118Y-129443290D01*
X166242792Y-129500840D01*
X166242778Y-129500843D01*
X165963428Y-129595671D01*
X165698843Y-129726150D01*
X165453550Y-129890050D01*
X165231750Y-130084563D01*
X165037237Y-130306363D01*
X164873337Y-130551656D01*
X164742858Y-130816241D01*
X164648030Y-131095591D01*
X164648027Y-131095605D01*
X164590477Y-131384931D01*
X164590473Y-131384958D01*
X164571180Y-131679314D01*
X161026235Y-131679314D01*
X150422151Y-128837958D01*
X150323349Y-128850964D01*
X150323348Y-128850965D01*
X150263697Y-128885405D01*
X150237047Y-128900790D01*
X150176379Y-128979855D01*
X146527120Y-142599075D01*
X133965941Y-142599075D01*
X127466369Y-140857520D01*
X127367567Y-140870526D01*
X127281263Y-140920355D01*
X127220597Y-140999417D01*
X127196924Y-141087767D01*
X123571338Y-154618637D01*
X118875005Y-154618637D01*
X122450994Y-141272874D01*
X122437987Y-141174071D01*
X122388159Y-141087767D01*
X122388157Y-141087765D01*
X122331900Y-141044599D01*
X122331898Y-141044597D01*
X122309099Y-141027103D01*
X122309098Y-141027102D01*
X122309097Y-141027101D01*
X122309096Y-141027101D01*
X108689875Y-137377842D01*
X108591073Y-137390848D01*
X108504769Y-137440677D01*
X108444103Y-137519739D01*
X104794844Y-151138959D01*
X100072222Y-151138959D01*
X103242384Y-139307756D01*
X103229377Y-139208953D01*
X103179549Y-139122649D01*
X103179547Y-139122647D01*
X103119142Y-139076298D01*
X103119142Y-139076297D01*
X103119138Y-139076295D01*
X103100489Y-139061985D01*
X103100488Y-139061984D01*
X103100487Y-139061983D01*
X103100486Y-139061983D01*
X89481265Y-135412724D01*
X89382463Y-135425730D01*
X89296159Y-135475559D01*
X89235493Y-135554621D01*
X85586234Y-149173841D01*
X80876771Y-149173841D01*
X84452941Y-135827401D01*
X84439934Y-135728598D01*
X84390106Y-135642294D01*
X84390104Y-135642292D01*
X84334728Y-135599802D01*
X84334728Y-135599801D01*
X84334724Y-135599799D01*
X84311046Y-135581630D01*
X84311045Y-135581629D01*
X84311044Y-135581628D01*
X84311043Y-135581628D01*
X70691822Y-131932369D01*
X70593020Y-131945375D01*
X70593019Y-131945376D01*
X70531726Y-131980764D01*
X70506718Y-131995201D01*
X70446050Y-132074266D01*
X66796791Y-145693486D01*
X62087316Y-145693486D01*
X63582736Y-140112506D01*
X63569729Y-140013703D01*
X63519901Y-139927399D01*
X63475165Y-139893073D01*
X63440840Y-139866734D01*
X63440838Y-139866733D01*
X49821617Y-136217474D01*
X49722814Y-136230481D01*
X49648738Y-136273250D01*
X49636510Y-136280309D01*
X49636509Y-136280310D01*
X49575845Y-136359369D01*
X45926586Y-149978591D01*
X38560048Y-149978591D01*
X43335353Y-132164573D01*
X43335377Y-132164511D01*
X43349161Y-132113068D01*
X43350675Y-132107873D01*
X43354736Y-132094995D01*
X43474933Y-131713767D01*
X43478633Y-131703604D01*
X43479528Y-131701443D01*
X43635724Y-131324346D01*
X43640276Y-131314583D01*
X43829838Y-130950433D01*
X43835231Y-130941092D01*
X44055806Y-130594856D01*
X44061996Y-130586017D01*
X44311892Y-130260343D01*
X44318842Y-130252061D01*
X44596191Y-129949386D01*
X44603807Y-129941771D01*
X44906470Y-129664430D01*
X44914739Y-129657492D01*
X45240429Y-129407581D01*
X45249272Y-129401390D01*
X45595502Y-129180817D01*
X45604823Y-129175435D01*
X45968976Y-128985869D01*
X45978744Y-128981314D01*
X46358037Y-128824206D01*
X46368151Y-128820525D01*
X46759684Y-128697076D01*
X46770098Y-128694285D01*
X47170905Y-128605430D01*
X47181516Y-128603559D01*
X47588533Y-128549976D01*
X47599267Y-128549036D01*
X48009395Y-128531132D01*
X48020206Y-128531132D01*
X48430328Y-128549040D01*
X48441070Y-128549980D01*
X48848075Y-128603565D01*
X48858702Y-128605438D01*
X49262224Y-128694900D01*
X49267404Y-128696168D01*
X49307432Y-128706894D01*
X49318079Y-128709747D01*
X49318232Y-128709773D01*
X57792297Y-130978199D01*
X57792297Y-130978198D01*
X57804865Y-130981563D01*
X57804864Y-130981564D01*
X57804915Y-130981572D01*
X57906522Y-131008799D01*
X57957053Y-131022340D01*
X57957055Y-131022340D01*
X57957065Y-131022343D01*
X58390951Y-131100912D01*
X58829844Y-131143381D01*
X59050294Y-131146421D01*
X59270732Y-131149462D01*
X59270734Y-131149461D01*
X59270745Y-131149462D01*
X59710643Y-131119112D01*
X60146531Y-131052538D01*
X60575433Y-130950196D01*
X60994418Y-130812785D01*
X61400625Y-130641243D01*
X61791278Y-130436742D01*
X62163710Y-130200679D01*
X62515375Y-129934667D01*
X62843871Y-129640522D01*
X63146955Y-129320255D01*
X63422555Y-128976054D01*
X63668790Y-128610268D01*
X63883977Y-128225398D01*
X64066647Y-127824072D01*
X64215550Y-127409031D01*
X64220167Y-127391802D01*
X64237195Y-127328247D01*
X64246747Y-127292598D01*
X71727290Y-127292598D01*
X71727290Y-127292601D01*
X71740296Y-127391401D01*
X71740297Y-127391402D01*
X71790125Y-127477706D01*
X71869187Y-127538372D01*
X71965447Y-127564165D01*
X71965447Y-127564164D01*
X72024509Y-127579990D01*
X72024512Y-127579990D01*
X85488408Y-131187631D01*
X85587210Y-131174624D01*
X85673514Y-131124796D01*
X85734180Y-131045734D01*
X85757561Y-130958473D01*
X85757562Y-130958473D01*
X85768474Y-130917751D01*
X85768571Y-130917380D01*
X85780643Y-130872326D01*
X85807269Y-130772957D01*
X90516741Y-130772957D01*
X90516741Y-130772960D01*
X90529747Y-130871760D01*
X90550807Y-130908236D01*
X90579576Y-130958065D01*
X90658638Y-131018731D01*
X90754898Y-131044524D01*
X90754898Y-131044523D01*
X90813960Y-131060349D01*
X90813963Y-131060349D01*
X104277859Y-134667990D01*
X104376661Y-134654983D01*
X104462965Y-134605155D01*
X104523631Y-134526093D01*
X104531750Y-134495792D01*
X104549424Y-134429833D01*
X104549423Y-134429832D01*
X104999884Y-132748690D01*
X109715931Y-132748690D01*
X109715931Y-132748693D01*
X109728937Y-132847493D01*
X109728938Y-132847494D01*
X109778766Y-132933798D01*
X109857828Y-132994464D01*
X109954088Y-133020257D01*
X109954088Y-133020256D01*
X110013150Y-133036082D01*
X110013153Y-133036082D01*
X123477049Y-136643723D01*
X123575851Y-136630716D01*
X123662155Y-136580888D01*
X123722821Y-136501826D01*
X123729019Y-136478694D01*
X123748614Y-136405566D01*
X123748613Y-136405565D01*
X123801784Y-136207127D01*
X128511260Y-136207127D01*
X128511260Y-136207130D01*
X128524266Y-136305930D01*
X128545326Y-136342406D01*
X128574095Y-136392235D01*
X128653157Y-136452901D01*
X128749417Y-136478694D01*
X128749417Y-136478693D01*
X128808479Y-136494519D01*
X128808482Y-136494519D01*
X142272378Y-140102160D01*
X142371180Y-140089153D01*
X142457484Y-140039325D01*
X142518150Y-139960263D01*
X146167410Y-126341042D01*
X146154403Y-126242239D01*
X146104575Y-126155935D01*
X146059839Y-126121609D01*
X146025514Y-126095270D01*
X146025512Y-126095269D01*
X138945520Y-124198191D01*
X151457624Y-124198191D01*
X151457624Y-124198194D01*
X151470630Y-124296994D01*
X151470631Y-124296995D01*
X151520459Y-124383299D01*
X151599521Y-124443965D01*
X151695781Y-124469758D01*
X151695781Y-124469757D01*
X151754843Y-124485583D01*
X151754846Y-124485583D01*
X165218742Y-128093224D01*
X165317544Y-128080217D01*
X165403848Y-128030389D01*
X165464514Y-127951327D01*
X169113774Y-114332106D01*
X169100767Y-114233303D01*
X169050939Y-114146999D01*
X169050937Y-114146997D01*
X169002270Y-114109655D01*
X169002268Y-114109652D01*
X168971878Y-114086334D01*
X168971879Y-114086334D01*
X155352655Y-110437074D01*
X155253853Y-110450080D01*
X155167549Y-110499909D01*
X155106883Y-110578971D01*
X151457624Y-124198191D01*
X138945520Y-124198191D01*
X132406291Y-122446010D01*
X132307489Y-122459016D01*
X132221185Y-122508845D01*
X132160518Y-122587907D01*
X132157564Y-122598936D01*
X132155091Y-122608168D01*
X132154322Y-122611037D01*
X132154321Y-122611040D01*
X128511260Y-136207127D01*
X123801784Y-136207127D01*
X127372081Y-122882605D01*
X127359074Y-122783802D01*
X127309246Y-122697498D01*
X127264510Y-122663172D01*
X127230185Y-122636833D01*
X127230183Y-122636832D01*
X113610962Y-118987573D01*
X113512159Y-119000580D01*
X113430829Y-119047537D01*
X113430828Y-119047537D01*
X113425857Y-119050406D01*
X113425854Y-119050409D01*
X113365190Y-119129468D01*
X109715931Y-132748690D01*
X104999884Y-132748690D01*
X108172891Y-120906872D01*
X108159884Y-120808069D01*
X108110056Y-120721765D01*
X108065320Y-120687439D01*
X108030995Y-120661100D01*
X108030993Y-120661099D01*
X94411772Y-117011840D01*
X94312970Y-117024846D01*
X94226666Y-117074675D01*
X94166000Y-117153736D01*
X94157798Y-117184349D01*
X90516741Y-130772957D01*
X85807269Y-130772957D01*
X89383440Y-117426513D01*
X89370433Y-117327710D01*
X89320605Y-117241406D01*
X89275869Y-117207080D01*
X89241544Y-117180741D01*
X89241542Y-117180740D01*
X80471935Y-114830931D01*
X90197646Y-114830931D01*
X90197646Y-114830946D01*
X90216939Y-115125302D01*
X90216940Y-115125312D01*
X90216941Y-115125319D01*
X90268447Y-115384262D01*
X90274493Y-115414655D01*
X90274496Y-115414669D01*
X90369324Y-115694019D01*
X90499800Y-115958599D01*
X90499804Y-115958606D01*
X90663700Y-116203894D01*
X90858216Y-116425697D01*
X91080018Y-116620212D01*
X91325310Y-116784111D01*
X91589898Y-116914591D01*
X91869253Y-117009420D01*
X92158595Y-117066973D01*
X92186863Y-117068825D01*
X92452968Y-117086268D01*
X92452975Y-117086268D01*
X92452982Y-117086268D01*
X92688650Y-117070820D01*
X92747355Y-117066973D01*
X93036697Y-117009420D01*
X93316052Y-116914591D01*
X93580640Y-116784111D01*
X93825932Y-116620212D01*
X94047733Y-116425697D01*
X94242248Y-116203896D01*
X94406147Y-115958604D01*
X94536627Y-115694016D01*
X94631456Y-115414661D01*
X94689009Y-115125319D01*
X94703535Y-114903698D01*
X94708304Y-114830946D01*
X94708304Y-114830931D01*
X94689010Y-114536575D01*
X94689009Y-114536559D01*
X94631456Y-114247217D01*
X94536627Y-113967862D01*
X94406147Y-113703275D01*
X94242248Y-113457982D01*
X94199630Y-113409386D01*
X94047733Y-113236180D01*
X93825930Y-113041664D01*
X93580642Y-112877768D01*
X93580635Y-112877764D01*
X93316055Y-112747288D01*
X93036705Y-112652460D01*
X93036699Y-112652458D01*
X93036697Y-112652458D01*
X92747355Y-112594905D01*
X92747348Y-112594904D01*
X92747338Y-112594903D01*
X92452982Y-112575610D01*
X92452968Y-112575610D01*
X92158611Y-112594903D01*
X92158599Y-112594904D01*
X92158595Y-112594905D01*
X92158587Y-112594906D01*
X92158584Y-112594907D01*
X91869258Y-112652457D01*
X91869244Y-112652460D01*
X91589894Y-112747288D01*
X91325309Y-112877767D01*
X91080016Y-113041667D01*
X90858216Y-113236180D01*
X90663703Y-113457980D01*
X90499803Y-113703273D01*
X90369324Y-113967858D01*
X90274496Y-114247208D01*
X90274493Y-114247222D01*
X90216943Y-114536548D01*
X90216939Y-114536575D01*
X90197646Y-114830931D01*
X80471935Y-114830931D01*
X75622321Y-113531481D01*
X75523519Y-113544487D01*
X75473149Y-113573569D01*
X75444067Y-113590360D01*
X75444064Y-113590362D01*
X75437216Y-113594314D01*
X75376549Y-113673378D01*
X71727290Y-127292598D01*
X64246747Y-127292598D01*
X64256228Y-127257214D01*
X64256237Y-127257192D01*
X64259719Y-127244192D01*
X64259721Y-127244191D01*
X64272612Y-127196072D01*
X64284043Y-127153407D01*
X64284042Y-127153405D01*
X64287476Y-127140592D01*
X64287478Y-127140571D01*
X69178984Y-108881083D01*
X76667212Y-108881083D01*
X76667212Y-108881086D01*
X76680218Y-108979886D01*
X76680219Y-108979887D01*
X76730047Y-109066191D01*
X76809109Y-109126857D01*
X76905369Y-109152650D01*
X76905369Y-109152649D01*
X76964431Y-109168475D01*
X76964434Y-109168475D01*
X90428330Y-112776116D01*
X90527132Y-112763109D01*
X90613436Y-112713281D01*
X90674102Y-112634219D01*
X90747190Y-112361450D01*
X95456662Y-112361450D01*
X95456662Y-112361453D01*
X95469668Y-112460253D01*
X95469669Y-112460254D01*
X95519497Y-112546558D01*
X95598559Y-112607224D01*
X95694819Y-112633017D01*
X95694819Y-112633016D01*
X95753881Y-112648842D01*
X95753884Y-112648842D01*
X109217780Y-116256483D01*
X109316582Y-116243476D01*
X109402886Y-116193648D01*
X109463552Y-116114586D01*
X109482663Y-116043264D01*
X109489345Y-116018326D01*
X109489344Y-116018325D01*
X109497938Y-115986255D01*
X109497940Y-115986242D01*
X109936957Y-114347809D01*
X114646425Y-114347809D01*
X114646425Y-114347812D01*
X114659431Y-114446612D01*
X114659432Y-114446613D01*
X114709260Y-114532917D01*
X114788322Y-114593583D01*
X114884582Y-114619376D01*
X114884582Y-114619375D01*
X114943644Y-114635201D01*
X114943647Y-114635201D01*
X128407543Y-118242842D01*
X128506345Y-118229835D01*
X128592649Y-118180007D01*
X128653315Y-118100945D01*
X128654087Y-118098063D01*
X128679108Y-118004685D01*
X128679107Y-118004684D01*
X128679726Y-118002376D01*
X128687701Y-117972611D01*
X128687701Y-117972609D01*
X128732280Y-117806237D01*
X133441763Y-117806237D01*
X133441763Y-117806240D01*
X133454769Y-117905040D01*
X133461138Y-117916071D01*
X133504598Y-117991345D01*
X133583660Y-118052011D01*
X133679920Y-118077804D01*
X133679920Y-118077803D01*
X133738982Y-118093629D01*
X133738985Y-118093629D01*
X147202881Y-121701270D01*
X147301683Y-121688263D01*
X147387987Y-121638435D01*
X147448653Y-121559373D01*
X151097913Y-107940152D01*
X151084906Y-107841349D01*
X151035078Y-107755045D01*
X151035076Y-107755043D01*
X150970391Y-107705410D01*
X150970389Y-107705408D01*
X150956018Y-107694381D01*
X150956017Y-107694380D01*
X150956016Y-107694379D01*
X150956015Y-107694379D01*
X137336794Y-104045120D01*
X137237992Y-104058126D01*
X137151688Y-104107955D01*
X137091021Y-104187017D01*
X137067985Y-104272993D01*
X137067985Y-104272994D01*
X133441763Y-117806237D01*
X128732280Y-117806237D01*
X132302575Y-104481724D01*
X132289568Y-104382921D01*
X132239740Y-104296617D01*
X132195004Y-104262291D01*
X132160679Y-104235952D01*
X132160677Y-104235951D01*
X118541456Y-100586692D01*
X118442654Y-100599698D01*
X118356350Y-100649527D01*
X118295684Y-100728589D01*
X114646425Y-114347809D01*
X109936957Y-114347809D01*
X113112812Y-102495365D01*
X113099805Y-102396562D01*
X113049977Y-102310258D01*
X113049975Y-102310256D01*
X112986751Y-102261744D01*
X112986749Y-102261742D01*
X112970917Y-102249594D01*
X112970916Y-102249593D01*
X112970915Y-102249592D01*
X112970914Y-102249592D01*
X99351693Y-98600333D01*
X99252891Y-98613339D01*
X99166587Y-98663168D01*
X99105920Y-98742230D01*
X99085807Y-98817297D01*
X99085807Y-98817298D01*
X95456662Y-112361450D01*
X90747190Y-112361450D01*
X94323362Y-99014998D01*
X94310355Y-98916195D01*
X94260527Y-98829891D01*
X94260525Y-98829889D01*
X94186510Y-98773097D01*
X94186505Y-98773093D01*
X94181468Y-98769227D01*
X94181466Y-98769226D01*
X80562243Y-95119966D01*
X80463441Y-95132972D01*
X80377137Y-95182801D01*
X80316471Y-95261863D01*
X76667212Y-108881083D01*
X69178984Y-108881083D01*
X73986940Y-90933475D01*
X73988441Y-90928328D01*
X74018907Y-90831583D01*
X74112405Y-90534677D01*
X74116057Y-90524618D01*
X74272576Y-90145584D01*
X74277077Y-90135896D01*
X74465765Y-89771814D01*
X74471086Y-89762551D01*
X74690528Y-89416148D01*
X74696644Y-89407359D01*
X74945205Y-89081216D01*
X74952046Y-89073004D01*
X75227872Y-88769555D01*
X75235381Y-88761979D01*
X75536406Y-88483499D01*
X75544553Y-88476591D01*
X75868526Y-88225165D01*
X75877229Y-88218994D01*
X76221721Y-87996508D01*
X76230937Y-87991107D01*
X76593341Y-87799240D01*
X76603003Y-87794648D01*
X76980631Y-87634821D01*
X76990651Y-87631082D01*
X77380687Y-87504488D01*
X77390999Y-87501628D01*
X77790513Y-87409218D01*
X77801016Y-87407262D01*
X78207016Y-87349726D01*
X78217671Y-87348683D01*
X78627139Y-87326451D01*
X78637838Y-87326335D01*
X79050240Y-87339656D01*
X79055573Y-87339944D01*
X79097070Y-87343086D01*
X79097071Y-87343085D01*
X79105213Y-87343702D01*
X79114146Y-87343675D01*
X82918790Y-87698080D01*
X82919468Y-87698146D01*
X86789646Y-88095741D01*
X86790460Y-88095829D01*
X90477165Y-88509971D01*
X90656442Y-88530110D01*
X90657611Y-88530247D01*
X94519281Y-89001199D01*
X94520117Y-89001305D01*
X98377171Y-89508890D01*
X98378300Y-89509044D01*
X102230337Y-90053210D01*
X102231232Y-90053341D01*
X106078036Y-90634060D01*
X106078925Y-90634198D01*
X109920136Y-91251414D01*
X109921022Y-91251561D01*
X113755996Y-91905173D01*
X113756951Y-91905340D01*
X117585567Y-92595322D01*
X117586630Y-92595519D01*
X121408563Y-93321816D01*
X121409418Y-93321982D01*
X125224286Y-94084521D01*
X125225332Y-94084735D01*
X129032880Y-94883464D01*
X129033707Y-94883643D01*
X132552766Y-95656795D01*
X132833320Y-95718434D01*
X132834471Y-95718692D01*
X136625918Y-96589492D01*
X136626828Y-96589705D01*
X140410186Y-97496533D01*
X140410991Y-97496730D01*
X144185507Y-98439409D01*
X144186395Y-98439635D01*
X147951604Y-99418047D01*
X147952580Y-99418305D01*
X151708486Y-100432449D01*
X151709275Y-100432666D01*
X155455405Y-101482417D01*
X155456323Y-101482679D01*
X159192256Y-102567920D01*
X159193229Y-102568208D01*
X162918531Y-103688808D01*
X162919502Y-103689104D01*
X166634057Y-104845029D01*
X166635157Y-104845377D01*
X170338632Y-106036522D01*
X170339517Y-106036812D01*
X174031531Y-107263058D01*
X174032384Y-107263345D01*
X177684511Y-108514953D01*
X177712550Y-108524562D01*
X177713641Y-108524941D01*
X181381585Y-109821000D01*
X181382542Y-109821343D01*
X185011740Y-111142589D01*
X185038082Y-111152179D01*
X185039178Y-111152584D01*
X188681935Y-112518058D01*
X188682869Y-112518414D01*
X192312412Y-113918366D01*
X192313360Y-113918736D01*
X195880337Y-115333592D01*
X195883329Y-115335083D01*
X195891295Y-115338194D01*
X195891297Y-115338195D01*
X195907434Y-115344496D01*
X195924164Y-115351029D01*
X195940171Y-115358639D01*
X195985409Y-115384262D01*
X195987613Y-115385510D01*
X196015585Y-115407150D01*
X196047265Y-115439869D01*
X196067993Y-115468528D01*
X196089147Y-115508860D01*
X196100939Y-115542200D01*
X196110656Y-115590914D01*
X196113052Y-115615170D01*
X196113052Y-165602773D01*
X196113083Y-165603089D01*
X196113083Y-165737424D01*
X196149348Y-166128767D01*
X196149347Y-166128767D01*
X196149506Y-166129617D01*
X196221567Y-166515105D01*
X196329124Y-166893124D01*
X196460619Y-167232553D01*
X196471100Y-167259607D01*
X196646285Y-167611427D01*
X196646289Y-167611434D01*
X196853184Y-167945581D01*
X196853187Y-167945586D01*
X197090018Y-168259204D01*
X197090034Y-168259223D01*
X197245067Y-168429286D01*
X197354809Y-168549668D01*
X197645255Y-168814447D01*
X197958892Y-169051297D01*
X198153718Y-169171930D01*
X198293039Y-169258196D01*
X198293043Y-169258198D01*
X198293045Y-169258199D01*
X198644863Y-169433387D01*
X198999925Y-169570942D01*
X199011347Y-169575367D01*
X199200353Y-169629145D01*
X199389363Y-169682925D01*
X199389366Y-169682925D01*
X199389372Y-169682927D01*
X199655603Y-169732697D01*
X199775692Y-169755147D01*
X200167038Y-169791414D01*
X200167042Y-169791414D01*
X200301502Y-169791415D01*
X200301770Y-169791442D01*
X200313826Y-169791437D01*
X200313828Y-169791438D01*
X200364518Y-169791417D01*
X200407719Y-169791417D01*
X200418483Y-169791417D01*
X200418730Y-169791394D01*
X224502832Y-169781416D01*
X224503549Y-169781417D01*
X224503549Y-169781416D01*
X224553997Y-169781487D01*
X224554837Y-169781395D01*
X224565776Y-169781391D01*
X224566161Y-169781352D01*
X224700060Y-169781354D01*
X225029244Y-169750854D01*
X225091398Y-169745096D01*
X225091400Y-169745095D01*
X225091406Y-169745095D01*
X225477738Y-169672882D01*
X225855758Y-169565330D01*
X226222242Y-169423358D01*
X226574063Y-169248176D01*
X226908219Y-169041279D01*
X227221860Y-168804433D01*
X227512309Y-168539658D01*
X227737517Y-168292621D01*
X227777084Y-168249219D01*
X227777089Y-168249213D01*
X228013940Y-167935576D01*
X228220842Y-167601423D01*
X228396030Y-167249605D01*
X228538008Y-166883124D01*
X228645566Y-166505105D01*
X228717786Y-166118775D01*
X228754051Y-165727429D01*
X228754052Y-165530918D01*
X228754052Y-165486748D01*
X228754052Y-157544189D01*
X247584254Y-157544189D01*
X247584254Y-157544192D01*
X251231438Y-171155669D01*
X251233514Y-171163414D01*
X251268924Y-171209561D01*
X251285842Y-171231608D01*
X251285844Y-171231612D01*
X251294176Y-171242471D01*
X251294178Y-171242473D01*
X251294180Y-171242475D01*
X251380484Y-171292303D01*
X251479286Y-171305310D01*
X258058175Y-169542502D01*
X270521212Y-169542502D01*
X270521212Y-169542505D01*
X274170472Y-183161727D01*
X274225183Y-183233029D01*
X274225188Y-183233034D01*
X274225192Y-183233039D01*
X274231138Y-183240788D01*
X274317442Y-183290616D01*
X274416244Y-183303623D01*
X280891303Y-181568636D01*
X293452467Y-181568636D01*
X293452467Y-181568639D01*
X297101726Y-195187858D01*
X297101727Y-195187861D01*
X297151403Y-195252600D01*
X297162393Y-195266923D01*
X297223056Y-195301946D01*
X297248697Y-195316750D01*
X297347499Y-195329757D01*
X310966722Y-191680497D01*
X310985384Y-191666177D01*
X311023520Y-191636915D01*
X311023521Y-191636913D01*
X311045783Y-191619832D01*
X311095611Y-191533528D01*
X311108618Y-191434725D01*
X307534594Y-178096289D01*
X312250637Y-178096289D01*
X312250637Y-178096292D01*
X313629101Y-183240787D01*
X315899897Y-191715514D01*
X315951325Y-191782536D01*
X315951326Y-191782538D01*
X315952106Y-191783554D01*
X315960563Y-191794575D01*
X316046867Y-191844403D01*
X316145669Y-191857410D01*
X329764892Y-188208150D01*
X329813493Y-188170857D01*
X329843953Y-188147485D01*
X329893781Y-188061181D01*
X329906788Y-187962378D01*
X326730934Y-176109933D01*
X331440413Y-176109933D01*
X331440413Y-176109936D01*
X335089673Y-189729159D01*
X335149994Y-189807771D01*
X335150336Y-189808216D01*
X335150337Y-189808217D01*
X335150339Y-189808219D01*
X335236643Y-189858047D01*
X335335445Y-189871054D01*
X348954668Y-186221794D01*
X349003470Y-186184347D01*
X349033729Y-186161129D01*
X349083557Y-186074825D01*
X349096564Y-185976022D01*
X345447304Y-172356801D01*
X345386638Y-172277739D01*
X345318356Y-172238316D01*
X345300333Y-172227910D01*
X345201533Y-172214904D01*
X345201530Y-172214904D01*
X331678570Y-175838370D01*
X331582310Y-175864163D01*
X331503248Y-175924829D01*
X331453419Y-176011133D01*
X331440413Y-176109933D01*
X326730934Y-176109933D01*
X326257528Y-174343157D01*
X326196862Y-174264095D01*
X326147033Y-174235326D01*
X326110557Y-174214266D01*
X326011757Y-174201260D01*
X326011754Y-174201260D01*
X312488794Y-177824726D01*
X312392534Y-177850519D01*
X312313472Y-177911185D01*
X312263643Y-177997489D01*
X312250637Y-178096289D01*
X307534594Y-178096289D01*
X307481313Y-177897443D01*
X307459358Y-177815504D01*
X307398692Y-177736442D01*
X307398689Y-177736439D01*
X307373888Y-177722121D01*
X307312388Y-177686614D01*
X307312387Y-177686613D01*
X307213587Y-177673607D01*
X307213584Y-177673607D01*
X293690624Y-181297073D01*
X293594364Y-181322866D01*
X293515302Y-181383532D01*
X293465473Y-181469836D01*
X293452467Y-181568636D01*
X280891303Y-181568636D01*
X288035467Y-179654363D01*
X288069792Y-179628023D01*
X288069793Y-179628022D01*
X288069793Y-179628023D01*
X288069794Y-179628020D01*
X288114528Y-179593698D01*
X288164356Y-179507394D01*
X288177363Y-179408591D01*
X284551819Y-165877881D01*
X284528103Y-165789370D01*
X284480574Y-165727429D01*
X284467438Y-165710309D01*
X284467437Y-165710308D01*
X284454013Y-165702558D01*
X284454013Y-165702557D01*
X284381133Y-165660480D01*
X284381132Y-165660479D01*
X284282332Y-165647473D01*
X284282329Y-165647473D01*
X270759369Y-169270939D01*
X270663109Y-169296732D01*
X270584047Y-169357398D01*
X270534218Y-169443702D01*
X270521212Y-169542502D01*
X258058175Y-169542502D01*
X265098509Y-167656050D01*
X265146783Y-167619008D01*
X265177570Y-167595385D01*
X265227398Y-167509081D01*
X265240405Y-167410278D01*
X261604101Y-153839411D01*
X261600781Y-153827022D01*
X261591145Y-153791057D01*
X261585204Y-153783314D01*
X261530479Y-153711995D01*
X261530477Y-153711994D01*
X261530476Y-153711992D01*
X261498973Y-153693805D01*
X261498972Y-153693804D01*
X261444175Y-153662167D01*
X261444174Y-153662166D01*
X261345374Y-153649160D01*
X261345371Y-153649160D01*
X247822411Y-157272626D01*
X247726151Y-157298419D01*
X247647089Y-157359085D01*
X247597260Y-157445389D01*
X247584254Y-157544189D01*
X228754052Y-157544189D01*
X228754052Y-139143297D01*
X242653753Y-139143297D01*
X242653753Y-139143300D01*
X246303013Y-152762523D01*
X246355340Y-152830716D01*
X246363679Y-152841583D01*
X246363679Y-152841584D01*
X246424342Y-152876607D01*
X246449983Y-152891411D01*
X246548785Y-152904418D01*
X253075727Y-151155529D01*
X265587865Y-151155529D01*
X265587865Y-151155532D01*
X269237124Y-164774751D01*
X269237125Y-164774754D01*
X269297791Y-164853815D01*
X269384095Y-164903643D01*
X269482897Y-164916650D01*
X276061808Y-163153836D01*
X288524807Y-163153836D01*
X288524807Y-163153839D01*
X292174067Y-176773062D01*
X292231057Y-176847332D01*
X292231061Y-176847337D01*
X292234733Y-176852122D01*
X292321037Y-176901950D01*
X292419839Y-176914957D01*
X306039062Y-173265697D01*
X306072360Y-173240146D01*
X306087855Y-173228257D01*
X306087857Y-173228255D01*
X306118123Y-173205032D01*
X306167951Y-173118728D01*
X306180958Y-173019925D01*
X302606937Y-159681501D01*
X307322981Y-159681501D01*
X307322981Y-159681504D01*
X310969658Y-173291089D01*
X310972241Y-173300726D01*
X311016989Y-173359042D01*
X311032907Y-173379787D01*
X311119211Y-173429615D01*
X311218013Y-173442622D01*
X324837236Y-169793362D01*
X324852804Y-169781416D01*
X324879146Y-169761204D01*
X324879147Y-169761202D01*
X324916297Y-169732697D01*
X324966125Y-169646393D01*
X324979132Y-169547590D01*
X321807002Y-157709044D01*
X326509905Y-157709044D01*
X326509905Y-157709047D01*
X330159165Y-171328270D01*
X330210556Y-171395243D01*
X330210557Y-171395244D01*
X330219525Y-171406932D01*
X330219831Y-171407330D01*
X330306135Y-171457158D01*
X330404937Y-171470165D01*
X335314483Y-170154656D01*
X344949655Y-170154656D01*
X344949655Y-170154671D01*
X344968948Y-170449027D01*
X344968949Y-170449037D01*
X344968950Y-170449044D01*
X345008425Y-170647503D01*
X345026502Y-170738380D01*
X345026505Y-170738394D01*
X345121333Y-171017744D01*
X345251809Y-171282324D01*
X345251813Y-171282331D01*
X345415709Y-171527619D01*
X345610225Y-171749422D01*
X345832028Y-171943938D01*
X345998705Y-172055308D01*
X346077319Y-172107836D01*
X346341907Y-172238316D01*
X346621262Y-172333145D01*
X346910604Y-172390698D01*
X346938872Y-172392550D01*
X347204977Y-172409993D01*
X347204984Y-172409993D01*
X347204991Y-172409993D01*
X347440659Y-172394545D01*
X347499364Y-172390698D01*
X347788706Y-172333145D01*
X348068061Y-172238316D01*
X348332649Y-172107836D01*
X348577941Y-171943937D01*
X348799742Y-171749422D01*
X348994257Y-171527621D01*
X349158156Y-171282329D01*
X349288636Y-171017741D01*
X349383465Y-170738386D01*
X349441018Y-170449044D01*
X349458661Y-170179872D01*
X349460313Y-170154671D01*
X349460313Y-170154656D01*
X349441019Y-169860300D01*
X349441018Y-169860284D01*
X349383465Y-169570942D01*
X349288636Y-169291587D01*
X349158156Y-169027000D01*
X349155165Y-169022524D01*
X349038330Y-168847667D01*
X348994257Y-168781707D01*
X348930439Y-168708937D01*
X348799742Y-168559905D01*
X348577939Y-168365389D01*
X348332651Y-168201493D01*
X348332644Y-168201489D01*
X348068064Y-168071013D01*
X347788714Y-167976185D01*
X347788708Y-167976183D01*
X347788706Y-167976183D01*
X347499364Y-167918630D01*
X347499357Y-167918629D01*
X347499347Y-167918628D01*
X347204991Y-167899335D01*
X347204977Y-167899335D01*
X346910620Y-167918628D01*
X346910608Y-167918629D01*
X346910604Y-167918630D01*
X346910596Y-167918631D01*
X346910593Y-167918632D01*
X346621267Y-167976182D01*
X346621253Y-167976185D01*
X346341903Y-168071013D01*
X346077318Y-168201492D01*
X345832025Y-168365392D01*
X345610225Y-168559905D01*
X345415712Y-168781705D01*
X345251812Y-169026998D01*
X345121333Y-169291583D01*
X345026505Y-169570933D01*
X345026502Y-169570947D01*
X344968952Y-169860273D01*
X344968948Y-169860300D01*
X344949655Y-170154656D01*
X335314483Y-170154656D01*
X344024160Y-167820905D01*
X344064557Y-167789907D01*
X344103221Y-167760240D01*
X344153049Y-167673936D01*
X344166056Y-167575133D01*
X340589887Y-154228691D01*
X345299358Y-154228691D01*
X345299358Y-154228694D01*
X348948185Y-167846302D01*
X348948618Y-167847916D01*
X348962172Y-167865580D01*
X349003590Y-167919556D01*
X349003591Y-167919560D01*
X349003593Y-167919560D01*
X349009284Y-167926977D01*
X349095588Y-167976805D01*
X349194390Y-167989812D01*
X362813613Y-164340552D01*
X362861887Y-164303510D01*
X362892674Y-164279887D01*
X362942502Y-164193583D01*
X362955509Y-164094780D01*
X359321501Y-150532482D01*
X359306249Y-150475559D01*
X359245583Y-150396497D01*
X359245580Y-150396495D01*
X359226469Y-150385461D01*
X359187676Y-150363064D01*
X359159278Y-150346668D01*
X359060478Y-150333662D01*
X359060475Y-150333662D01*
X345537515Y-153957128D01*
X345441255Y-153982921D01*
X345362193Y-154043587D01*
X345312364Y-154129891D01*
X345299358Y-154228691D01*
X340589887Y-154228691D01*
X340542482Y-154051775D01*
X340516796Y-153955912D01*
X340456130Y-153876850D01*
X340450542Y-153873624D01*
X340369826Y-153827022D01*
X340366803Y-153826624D01*
X340271025Y-153814015D01*
X340271022Y-153814015D01*
X326748062Y-157437481D01*
X326651802Y-157463274D01*
X326572740Y-157523940D01*
X326522911Y-157610244D01*
X326509905Y-157709044D01*
X321807002Y-157709044D01*
X321347035Y-155992424D01*
X321334157Y-155944363D01*
X321329872Y-155928369D01*
X321269206Y-155849307D01*
X321211212Y-155815824D01*
X321182901Y-155799478D01*
X321084101Y-155786472D01*
X321084098Y-155786472D01*
X307561138Y-159409938D01*
X307464878Y-159435731D01*
X307385816Y-159496397D01*
X307335987Y-159582701D01*
X307322981Y-159681501D01*
X302606937Y-159681501D01*
X302557383Y-159496563D01*
X302531698Y-159400704D01*
X302471032Y-159321642D01*
X302470370Y-159321260D01*
X302470342Y-159321231D01*
X302470337Y-159321241D01*
X302384728Y-159271814D01*
X302285927Y-159258807D01*
X302285924Y-159258807D01*
X288762964Y-162882273D01*
X288666704Y-162908066D01*
X288587642Y-162968732D01*
X288537813Y-163055036D01*
X288524807Y-163153836D01*
X276061808Y-163153836D01*
X283102120Y-161267390D01*
X283164766Y-161219320D01*
X283181181Y-161206725D01*
X283231009Y-161120421D01*
X283244016Y-161021618D01*
X279594756Y-147402397D01*
X279534090Y-147323335D01*
X279469932Y-147286293D01*
X279447785Y-147273506D01*
X279348985Y-147260500D01*
X279348982Y-147260500D01*
X265826022Y-150883966D01*
X265729762Y-150909759D01*
X265650700Y-150970425D01*
X265600871Y-151056729D01*
X265587865Y-151155529D01*
X253075727Y-151155529D01*
X260168008Y-149255158D01*
X260216282Y-149218116D01*
X260247069Y-149194493D01*
X260296897Y-149108189D01*
X260309904Y-149009386D01*
X256660644Y-135390165D01*
X256599978Y-135311103D01*
X256550149Y-135282334D01*
X256513673Y-135261274D01*
X256414873Y-135248268D01*
X256414870Y-135248268D01*
X242891910Y-138871734D01*
X242795650Y-138897527D01*
X242716588Y-138958193D01*
X242666759Y-139044497D01*
X242653753Y-139143297D01*
X228754052Y-139143297D01*
X228754052Y-120742419D01*
X237723252Y-120742419D01*
X237723252Y-120742422D01*
X241370435Y-134353895D01*
X241372512Y-134361644D01*
X241424835Y-134429832D01*
X241424836Y-134429833D01*
X241424840Y-134429838D01*
X241433177Y-134440705D01*
X241483005Y-134469472D01*
X241519482Y-134490533D01*
X241618284Y-134503540D01*
X251886865Y-131752082D01*
X255771670Y-131752082D01*
X255771670Y-131752097D01*
X255790963Y-132046453D01*
X255790964Y-132046463D01*
X255790965Y-132046470D01*
X255790967Y-132046480D01*
X255848517Y-132335806D01*
X255848520Y-132335820D01*
X255943348Y-132615170D01*
X256073824Y-132879750D01*
X256073828Y-132879757D01*
X256237724Y-133125045D01*
X256432240Y-133346848D01*
X256571066Y-133468595D01*
X256654042Y-133541363D01*
X256899334Y-133705262D01*
X257163922Y-133835742D01*
X257443277Y-133930571D01*
X257732619Y-133988124D01*
X257760887Y-133989976D01*
X258026992Y-134007419D01*
X258026999Y-134007419D01*
X258027006Y-134007419D01*
X258262674Y-133991971D01*
X258321379Y-133988124D01*
X258610721Y-133930571D01*
X258890076Y-133835742D01*
X259154664Y-133705262D01*
X259399956Y-133541363D01*
X259621757Y-133346848D01*
X259816272Y-133125047D01*
X259980171Y-132879755D01*
X260041870Y-132754641D01*
X260657353Y-132754641D01*
X260657353Y-132754644D01*
X264306613Y-146373867D01*
X264350662Y-146431272D01*
X264350663Y-146431273D01*
X264367279Y-146452927D01*
X264453583Y-146502755D01*
X264552385Y-146515762D01*
X271079357Y-144766865D01*
X283591460Y-144766865D01*
X283591460Y-144766868D01*
X287240720Y-158386090D01*
X287259114Y-158410062D01*
X287290401Y-158450835D01*
X287301386Y-158465151D01*
X287387690Y-158514979D01*
X287486492Y-158527986D01*
X301105715Y-154878726D01*
X301153989Y-154841684D01*
X301184776Y-154818061D01*
X301234604Y-154731757D01*
X301247611Y-154632954D01*
X297673587Y-141294520D01*
X302389634Y-141294520D01*
X302389634Y-141294523D01*
X306038893Y-154913742D01*
X306038894Y-154913745D01*
X306082947Y-154971157D01*
X306099558Y-154992805D01*
X306099560Y-154992806D01*
X306185864Y-155042634D01*
X306284666Y-155055641D01*
X319903889Y-151406381D01*
X319952163Y-151369339D01*
X319982950Y-151345716D01*
X320032778Y-151259412D01*
X320045785Y-151160609D01*
X316873657Y-139322068D01*
X321576552Y-139322068D01*
X321576552Y-139322071D01*
X325223951Y-152934351D01*
X325225812Y-152941293D01*
X325275494Y-153006039D01*
X325286478Y-153020354D01*
X325372782Y-153070182D01*
X325471584Y-153083189D01*
X339090807Y-149433929D01*
X339139081Y-149396887D01*
X339169868Y-149373264D01*
X339219696Y-149286960D01*
X339232703Y-149188157D01*
X335652806Y-135827802D01*
X340368852Y-135827802D01*
X340368852Y-135827805D01*
X344004677Y-149396887D01*
X344018112Y-149447027D01*
X344061343Y-149503366D01*
X344078463Y-149525678D01*
X344078470Y-149525686D01*
X344078779Y-149526089D01*
X344121930Y-149551002D01*
X344165082Y-149575916D01*
X344263884Y-149588923D01*
X357883107Y-145939663D01*
X357931906Y-145902218D01*
X357962168Y-145878998D01*
X358011996Y-145792694D01*
X358025003Y-145693891D01*
X356527583Y-140105445D01*
X361233280Y-140105445D01*
X361233280Y-140105448D01*
X362803357Y-145965053D01*
X364882540Y-153724670D01*
X364933480Y-153791056D01*
X364933481Y-153791058D01*
X364943204Y-153803729D01*
X364943206Y-153803731D01*
X365029510Y-153853559D01*
X365128312Y-153866566D01*
X378747535Y-150217306D01*
X378781860Y-150190966D01*
X378781861Y-150190965D01*
X378781861Y-150190966D01*
X378781862Y-150190963D01*
X378826596Y-150156641D01*
X378876424Y-150070337D01*
X378889431Y-149971534D01*
X375240171Y-136352313D01*
X375179505Y-136273251D01*
X375105426Y-136230481D01*
X375093200Y-136223422D01*
X374994400Y-136210416D01*
X374994397Y-136210416D01*
X361471437Y-139833882D01*
X361375177Y-139859675D01*
X361296115Y-139920341D01*
X361246286Y-140006645D01*
X361233280Y-140105445D01*
X356527583Y-140105445D01*
X354375743Y-132074670D01*
X354315077Y-131995608D01*
X354265248Y-131966839D01*
X354228772Y-131945779D01*
X354129972Y-131932773D01*
X354129969Y-131932773D01*
X340607009Y-135556239D01*
X340510749Y-135582032D01*
X340431687Y-135642698D01*
X340381858Y-135729002D01*
X340368852Y-135827802D01*
X335652806Y-135827802D01*
X335608860Y-135663795D01*
X335603098Y-135642292D01*
X335583443Y-135568936D01*
X335572459Y-135554621D01*
X335522777Y-135489874D01*
X335522775Y-135489873D01*
X335522774Y-135489871D01*
X335503406Y-135478690D01*
X335503403Y-135478688D01*
X335436477Y-135440047D01*
X335436473Y-135440046D01*
X335337672Y-135427039D01*
X335337669Y-135427039D01*
X321814709Y-139050505D01*
X321718449Y-139076298D01*
X321639387Y-139136964D01*
X321589558Y-139223268D01*
X321576552Y-139322068D01*
X316873657Y-139322068D01*
X316396525Y-137541388D01*
X316335859Y-137462326D01*
X316286030Y-137433557D01*
X316249554Y-137412497D01*
X316150754Y-137399491D01*
X316150751Y-137399491D01*
X302627791Y-141022957D01*
X302531531Y-141048750D01*
X302452469Y-141109416D01*
X302402640Y-141195720D01*
X302389634Y-141294520D01*
X297673587Y-141294520D01*
X297618188Y-141087767D01*
X297618187Y-141087765D01*
X297598351Y-141013733D01*
X297587366Y-140999417D01*
X297537685Y-140934671D01*
X297512889Y-140920355D01*
X297512888Y-140920354D01*
X297451385Y-140884844D01*
X297451381Y-140884843D01*
X297352580Y-140871836D01*
X297352577Y-140871836D01*
X283829617Y-144495302D01*
X283733357Y-144521095D01*
X283654295Y-144581761D01*
X283604466Y-144668065D01*
X283591460Y-144766865D01*
X271079357Y-144766865D01*
X278171608Y-142866502D01*
X278219882Y-142829460D01*
X278250669Y-142805837D01*
X278300497Y-142719533D01*
X278313504Y-142620730D01*
X274664244Y-129001509D01*
X274603578Y-128922447D01*
X274539420Y-128885405D01*
X274517273Y-128872618D01*
X274418473Y-128859612D01*
X274418470Y-128859612D01*
X260895510Y-132483078D01*
X260799250Y-132508871D01*
X260720188Y-132569537D01*
X260670359Y-132655841D01*
X260657353Y-132754641D01*
X260041870Y-132754641D01*
X260110651Y-132615167D01*
X260205480Y-132335812D01*
X260263033Y-132046470D01*
X260281298Y-131767805D01*
X260282328Y-131752097D01*
X260282328Y-131752082D01*
X260263034Y-131457726D01*
X260263033Y-131457710D01*
X260205480Y-131168368D01*
X260110651Y-130889013D01*
X259980171Y-130624426D01*
X259972494Y-130612937D01*
X259884584Y-130481370D01*
X259816272Y-130379133D01*
X259708330Y-130256049D01*
X259621757Y-130157331D01*
X259399954Y-129962815D01*
X259154666Y-129798919D01*
X259154659Y-129798915D01*
X258890079Y-129668439D01*
X258610729Y-129573611D01*
X258610723Y-129573609D01*
X258610721Y-129573609D01*
X258321379Y-129516056D01*
X258321372Y-129516055D01*
X258321362Y-129516054D01*
X258027006Y-129496761D01*
X258026992Y-129496761D01*
X257732635Y-129516054D01*
X257732623Y-129516055D01*
X257732619Y-129516056D01*
X257732611Y-129516057D01*
X257732608Y-129516058D01*
X257443282Y-129573608D01*
X257443268Y-129573611D01*
X257163918Y-129668439D01*
X256899333Y-129798918D01*
X256654040Y-129962818D01*
X256432240Y-130157331D01*
X256237727Y-130379131D01*
X256073827Y-130624424D01*
X255943348Y-130889009D01*
X255848520Y-131168359D01*
X255848517Y-131168373D01*
X255790967Y-131457699D01*
X255790963Y-131457726D01*
X255771670Y-131752082D01*
X251886865Y-131752082D01*
X255237507Y-130854280D01*
X255277043Y-130823943D01*
X255316568Y-130793615D01*
X255366396Y-130707311D01*
X255379403Y-130608508D01*
X251755035Y-117082187D01*
X251753131Y-117075082D01*
X251730143Y-116989287D01*
X251724198Y-116981539D01*
X251669477Y-116910225D01*
X251669475Y-116910224D01*
X251669474Y-116910222D01*
X251656059Y-116902478D01*
X251656056Y-116902476D01*
X251583177Y-116860398D01*
X251583173Y-116860397D01*
X251484372Y-116847390D01*
X251484369Y-116847390D01*
X237961409Y-120470856D01*
X237865149Y-120496649D01*
X237786087Y-120557315D01*
X237736258Y-120643619D01*
X237723252Y-120742419D01*
X228754052Y-120742419D01*
X228754052Y-115604812D01*
X228756447Y-115580559D01*
X228760931Y-115558072D01*
X228766096Y-115532177D01*
X228777890Y-115498835D01*
X228783876Y-115487422D01*
X228799054Y-115458484D01*
X228819772Y-115429837D01*
X228851479Y-115397090D01*
X228879441Y-115375459D01*
X228926499Y-115348805D01*
X228942494Y-115341201D01*
X228975805Y-115328196D01*
X228975806Y-115328194D01*
X228983794Y-115325076D01*
X228986764Y-115323595D01*
X231466900Y-114339839D01*
X255729701Y-114339839D01*
X255729701Y-114339842D01*
X259378961Y-127959065D01*
X259421883Y-128015001D01*
X259439627Y-128038125D01*
X259525931Y-128087953D01*
X259624733Y-128100960D01*
X266151686Y-126352068D01*
X278663809Y-126352068D01*
X278663809Y-126352071D01*
X282313068Y-139971290D01*
X282313069Y-139971293D01*
X282345611Y-140013703D01*
X282365273Y-140039326D01*
X282365274Y-140039327D01*
X282373735Y-140050355D01*
X282434398Y-140085378D01*
X282460039Y-140100182D01*
X282558841Y-140113189D01*
X296178064Y-136463929D01*
X296240710Y-136415859D01*
X296257125Y-136403264D01*
X296306953Y-136316960D01*
X296319960Y-136218157D01*
X292745938Y-122879731D01*
X297461983Y-122879731D01*
X297461983Y-122879734D01*
X301111243Y-136498957D01*
X301153811Y-136554432D01*
X301153812Y-136554433D01*
X301171909Y-136578017D01*
X301171911Y-136578019D01*
X301229445Y-136611235D01*
X301258213Y-136627845D01*
X301357015Y-136640852D01*
X314976238Y-132991592D01*
X315010563Y-132965252D01*
X315010564Y-132965251D01*
X315010564Y-132965252D01*
X315010565Y-132965249D01*
X315055299Y-132930927D01*
X315105127Y-132844623D01*
X315118134Y-132745820D01*
X311946005Y-120907275D01*
X316648894Y-120907275D01*
X316648894Y-120907278D01*
X320298154Y-134526501D01*
X320358475Y-134605113D01*
X320358817Y-134605558D01*
X320358818Y-134605559D01*
X320358820Y-134605561D01*
X320445124Y-134655389D01*
X320543926Y-134668396D01*
X334163149Y-131019136D01*
X334212115Y-130981563D01*
X334216497Y-130978201D01*
X334216499Y-130978199D01*
X334242210Y-130958471D01*
X334292038Y-130872167D01*
X334305045Y-130773364D01*
X330728872Y-117426910D01*
X335438352Y-117426910D01*
X335438352Y-117426913D01*
X339087612Y-131046136D01*
X339134220Y-131106876D01*
X339134221Y-131106877D01*
X339148278Y-131125196D01*
X339148280Y-131125198D01*
X339205814Y-131158414D01*
X339234582Y-131175024D01*
X339333384Y-131188031D01*
X352952607Y-127538771D01*
X353001401Y-127501330D01*
X353031668Y-127478106D01*
X353081496Y-127391802D01*
X353094503Y-127292999D01*
X349445243Y-113673778D01*
X349384577Y-113594716D01*
X349334748Y-113565947D01*
X349298272Y-113544887D01*
X349199472Y-113531881D01*
X349199469Y-113531881D01*
X335676509Y-117155347D01*
X335580249Y-117181140D01*
X335501187Y-117241806D01*
X335451358Y-117328110D01*
X335438352Y-117426910D01*
X330728872Y-117426910D01*
X330679167Y-117241407D01*
X330655785Y-117154143D01*
X330655784Y-117154142D01*
X330655784Y-117154141D01*
X330595120Y-117075082D01*
X330595119Y-117075081D01*
X330594416Y-117074675D01*
X330594410Y-117074671D01*
X330508815Y-117025253D01*
X330410014Y-117012246D01*
X330410011Y-117012246D01*
X316887051Y-120635712D01*
X316790791Y-120661505D01*
X316711729Y-120722171D01*
X316661900Y-120808475D01*
X316648894Y-120907275D01*
X311946005Y-120907275D01*
X311468874Y-119126599D01*
X311408208Y-119047537D01*
X311326877Y-119000580D01*
X311321903Y-118997708D01*
X311223103Y-118984702D01*
X311223100Y-118984702D01*
X297700140Y-122608168D01*
X297603880Y-122633961D01*
X297524818Y-122694627D01*
X297474989Y-122780931D01*
X297461983Y-122879731D01*
X292745938Y-122879731D01*
X292696340Y-122694627D01*
X292670700Y-122598936D01*
X292610034Y-122519874D01*
X292610033Y-122519873D01*
X292610032Y-122519872D01*
X292590931Y-122508845D01*
X292523730Y-122470046D01*
X292424929Y-122457039D01*
X292424926Y-122457039D01*
X278901966Y-126080505D01*
X278805706Y-126106298D01*
X278726644Y-126166964D01*
X278676815Y-126253268D01*
X278663809Y-126352068D01*
X266151686Y-126352068D01*
X273243956Y-124451700D01*
X273292230Y-124414658D01*
X273323017Y-124391035D01*
X273372845Y-124304731D01*
X273385852Y-124205928D01*
X269736592Y-110586707D01*
X269675926Y-110507645D01*
X269626097Y-110478876D01*
X269589621Y-110457816D01*
X269490821Y-110444810D01*
X269490818Y-110444810D01*
X255967858Y-114068276D01*
X255871598Y-114094069D01*
X255792536Y-114154735D01*
X255742707Y-114241039D01*
X255729701Y-114339839D01*
X231466900Y-114339839D01*
X232553807Y-113908713D01*
X232554610Y-113908400D01*
X236184315Y-112508386D01*
X236185106Y-112508084D01*
X239827996Y-111142560D01*
X239828947Y-111142208D01*
X243484624Y-109811324D01*
X243485446Y-109811029D01*
X247153528Y-108514922D01*
X247154468Y-108514595D01*
X248798488Y-107951179D01*
X273733299Y-107951179D01*
X273733299Y-107951182D01*
X277382559Y-121570405D01*
X277434760Y-121638434D01*
X277434761Y-121638435D01*
X277443225Y-121649465D01*
X277529529Y-121699293D01*
X277628331Y-121712300D01*
X291247554Y-118063040D01*
X291295828Y-118025998D01*
X291326615Y-118002375D01*
X291376443Y-117916071D01*
X291389450Y-117817268D01*
X287815428Y-104478838D01*
X292531478Y-104478838D01*
X292531478Y-104478841D01*
X296179549Y-118093629D01*
X296180738Y-118098063D01*
X296225488Y-118156382D01*
X296225489Y-118156384D01*
X296234868Y-118168606D01*
X296241404Y-118177124D01*
X296327708Y-118226952D01*
X296426510Y-118239959D01*
X310045733Y-114590699D01*
X310089317Y-114557256D01*
X310124794Y-114530034D01*
X310174622Y-114443730D01*
X310187629Y-114344927D01*
X307019229Y-102520300D01*
X311715550Y-102520300D01*
X311715550Y-102520303D01*
X315364810Y-116139525D01*
X315406339Y-116193647D01*
X315414204Y-116203896D01*
X315425476Y-116218586D01*
X315511780Y-116268414D01*
X315610582Y-116281421D01*
X320752314Y-114903698D01*
X330145205Y-114903698D01*
X330145205Y-114903713D01*
X330164498Y-115198069D01*
X330164499Y-115198079D01*
X330164500Y-115198086D01*
X330216296Y-115458487D01*
X330222052Y-115487422D01*
X330222055Y-115487436D01*
X330316883Y-115766786D01*
X330447359Y-116031366D01*
X330447363Y-116031373D01*
X330611259Y-116276661D01*
X330805775Y-116498464D01*
X331027578Y-116692980D01*
X331258669Y-116847390D01*
X331272869Y-116856878D01*
X331537457Y-116987358D01*
X331816812Y-117082187D01*
X332106154Y-117139740D01*
X332134422Y-117141592D01*
X332400527Y-117159035D01*
X332400534Y-117159035D01*
X332400541Y-117159035D01*
X332636209Y-117143587D01*
X332694914Y-117139740D01*
X332984256Y-117082187D01*
X333263611Y-116987358D01*
X333528199Y-116856878D01*
X333773491Y-116692979D01*
X333995292Y-116498464D01*
X334189807Y-116276663D01*
X334353706Y-116031371D01*
X334484186Y-115766783D01*
X334579015Y-115487428D01*
X334636568Y-115198086D01*
X334641337Y-115125329D01*
X334655863Y-114903713D01*
X334655863Y-114903698D01*
X334636569Y-114609342D01*
X334636568Y-114609326D01*
X334579015Y-114319984D01*
X334484186Y-114040629D01*
X334353706Y-113776042D01*
X334305083Y-113703273D01*
X334232281Y-113594316D01*
X334189807Y-113530749D01*
X334125990Y-113457980D01*
X333995292Y-113308947D01*
X333773489Y-113114431D01*
X333528201Y-112950535D01*
X333528194Y-112950531D01*
X333263614Y-112820055D01*
X332984264Y-112725227D01*
X332984258Y-112725225D01*
X332984256Y-112725225D01*
X332694914Y-112667672D01*
X332694907Y-112667671D01*
X332694897Y-112667670D01*
X332400541Y-112648377D01*
X332400527Y-112648377D01*
X332106170Y-112667670D01*
X332106158Y-112667671D01*
X332106154Y-112667672D01*
X332106146Y-112667673D01*
X332106143Y-112667674D01*
X331816817Y-112725224D01*
X331816803Y-112725227D01*
X331537453Y-112820055D01*
X331272868Y-112950534D01*
X331027575Y-113114434D01*
X330805775Y-113308947D01*
X330611262Y-113530747D01*
X330447362Y-113776040D01*
X330316883Y-114040625D01*
X330222055Y-114319975D01*
X330222052Y-114319989D01*
X330164502Y-114609315D01*
X330164498Y-114609342D01*
X330145205Y-114903698D01*
X320752314Y-114903698D01*
X329229805Y-112632161D01*
X329278358Y-112594905D01*
X329308866Y-112571496D01*
X329358694Y-112485192D01*
X329371701Y-112386389D01*
X325791802Y-99026026D01*
X330507849Y-99026026D01*
X330507849Y-99026029D01*
X334154152Y-112634218D01*
X334157109Y-112645251D01*
X334174315Y-112667674D01*
X334209311Y-112713281D01*
X334209315Y-112713286D01*
X334217774Y-112724312D01*
X334257570Y-112747288D01*
X334304079Y-112774140D01*
X334402881Y-112787147D01*
X348022104Y-109137887D01*
X348070378Y-109100845D01*
X348101165Y-109077222D01*
X348150993Y-108990918D01*
X348164000Y-108892115D01*
X344514740Y-95272894D01*
X344454074Y-95193832D01*
X344404245Y-95165063D01*
X344367769Y-95144003D01*
X344268969Y-95130997D01*
X344268966Y-95130997D01*
X330746006Y-98754463D01*
X330649746Y-98780256D01*
X330570684Y-98840922D01*
X330520855Y-98927226D01*
X330507849Y-99026026D01*
X325791802Y-99026026D01*
X325722441Y-98767168D01*
X325661775Y-98688106D01*
X325611946Y-98659337D01*
X325575470Y-98638277D01*
X325476670Y-98625271D01*
X325476667Y-98625271D01*
X311953707Y-102248737D01*
X311857447Y-102274530D01*
X311778385Y-102335196D01*
X311728556Y-102421500D01*
X311715550Y-102520300D01*
X307019229Y-102520300D01*
X306539141Y-100728589D01*
X306538369Y-100725706D01*
X306477703Y-100646644D01*
X306427874Y-100617875D01*
X306391398Y-100596815D01*
X306292598Y-100583809D01*
X306292595Y-100583809D01*
X292769635Y-104207275D01*
X292673375Y-104233068D01*
X292594313Y-104293734D01*
X292544484Y-104380038D01*
X292531478Y-104478838D01*
X287815428Y-104478838D01*
X287740190Y-104198047D01*
X287679524Y-104118985D01*
X287629695Y-104090216D01*
X287593219Y-104069156D01*
X287494419Y-104056150D01*
X287494416Y-104056150D01*
X273971456Y-107679616D01*
X273875196Y-107705409D01*
X273796134Y-107766075D01*
X273746305Y-107852379D01*
X273733299Y-107951179D01*
X248798488Y-107951179D01*
X250834782Y-107253328D01*
X250835507Y-107253084D01*
X254527656Y-106026793D01*
X254528415Y-106026545D01*
X258232007Y-104835361D01*
X258232965Y-104835058D01*
X261947656Y-103679093D01*
X261948508Y-103678832D01*
X265673877Y-102558212D01*
X265674847Y-102557925D01*
X269410890Y-101472654D01*
X269411590Y-101472454D01*
X273157881Y-100422658D01*
X273158562Y-100422470D01*
X276914572Y-99408298D01*
X276915443Y-99408068D01*
X280680764Y-98429627D01*
X280681551Y-98429426D01*
X284456164Y-97486723D01*
X284456871Y-97486550D01*
X288240317Y-96579702D01*
X288241131Y-96579512D01*
X292032678Y-95708690D01*
X292033742Y-95708451D01*
X295833448Y-94873639D01*
X295834186Y-94873480D01*
X299641814Y-94074734D01*
X299642776Y-94074537D01*
X303457725Y-93311984D01*
X303458501Y-93311832D01*
X307280510Y-92585521D01*
X307281498Y-92585339D01*
X311110186Y-91895344D01*
X311111069Y-91895189D01*
X314946122Y-91241565D01*
X314946938Y-91241429D01*
X318788211Y-90624203D01*
X318789036Y-90624075D01*
X322635902Y-90043348D01*
X322636736Y-90043226D01*
X326488832Y-89499051D01*
X326489904Y-89498905D01*
X330347013Y-88991312D01*
X330347796Y-88991213D01*
X334209508Y-88520257D01*
X334210647Y-88520123D01*
X338076667Y-88085838D01*
X338077437Y-88085755D01*
X341947629Y-87688160D01*
X341948460Y-87688079D01*
X345816432Y-87327774D01*
X345823884Y-87327307D01*
X346234557Y-87314054D01*
X346245275Y-87314171D01*
G37*
G04 #@! TD.AperFunction*
M02*
