%TF.GenerationSoftware,KiCad,Pcbnew,8.0.2*%
%TF.CreationDate,2024-06-03T22:05:41+01:00*%
%TF.ProjectId,Ashwing66_topplate,41736877-696e-4673-9636-5f746f70706c,1*%
%TF.SameCoordinates,Original*%
%TF.FileFunction,Drillmap*%
%TF.FilePolarity,Positive*%
%FSLAX45Y45*%
G04 Gerber Fmt 4.5, Leading zero omitted, Abs format (unit mm)*
G04 Created by KiCad (PCBNEW 8.0.2) date 2024-06-03 22:05:41*
%MOMM*%
%LPD*%
G01*
G04 APERTURE LIST*
%ADD10C,0.100000*%
%ADD11C,0.150000*%
%ADD12C,0.200000*%
%ADD13C,0.240000*%
G04 APERTURE END LIST*
D10*
X20036355Y-16954092D02*
G75*
G02*
X19636358Y-16554092I5J400002D01*
G01*
X6403065Y-12713124D02*
G75*
G02*
X5780894Y-13072332I-490685J131474D01*
G01*
X5755948Y-17090182D02*
G75*
G02*
X5396732Y-16468011I131492J490702D01*
G01*
X38297538Y-15617219D02*
X37449713Y-15844611D01*
X22850355Y-16553092D02*
G75*
G02*
X22450355Y-16953085I-399995J2D01*
G01*
X4189704Y-15618449D02*
G75*
G02*
X3830494Y-14996278I131496J490699D01*
G01*
X16404015Y-21595223D02*
G75*
G02*
X19191252Y-23786608I-2125345J-5571487D01*
G01*
X7184781Y-19282037D02*
G75*
G02*
X16404015Y-21595223I-5977093J-43350055D01*
G01*
X34580047Y-8707767D02*
G75*
G02*
X35112669Y-9085378I38593J-510003D01*
G01*
X19602355Y-11512092D02*
G75*
G02*
X19636348Y-11559092I-19475J-49878D01*
G01*
X36731293Y-17088952D02*
X35872585Y-17319043D01*
X37090503Y-16466782D02*
G75*
G02*
X37449711Y-15844605I490697J131482D01*
G01*
X19636355Y-16554092D02*
X19636355Y-11559092D01*
X7906663Y-8708767D02*
G75*
G02*
X19602355Y-11512092I-3611078J-40865039D01*
G01*
X35513374Y-17941212D02*
G75*
G02*
X35872583Y-17319035I490696J131482D01*
G01*
X5037528Y-15845841D02*
G75*
G02*
X5396733Y-16468011I-131468J-490679D01*
G01*
X35704021Y-18652714D02*
G75*
G02*
X35302461Y-19280815I-487621J-130667D01*
G01*
X6614656Y-17320273D02*
X5755948Y-17090182D01*
X38656747Y-14995048D02*
G75*
G02*
X38297538Y-15617221I-490657J-131502D01*
G01*
X26083226Y-21593993D02*
G75*
G02*
X35302460Y-19280806I15196294J-41036727D01*
G01*
X35513374Y-17941212D02*
X35704021Y-18652714D01*
X22850355Y-16553092D02*
X22850355Y-11558092D01*
X6783221Y-18653944D02*
X6973867Y-17942443D01*
X3830494Y-14996278D02*
X4310790Y-13204560D01*
X7184781Y-19282037D02*
G75*
G02*
X6783222Y-18653944I86099J497457D01*
G01*
X6403065Y-12713124D02*
X7374567Y-9086606D01*
X6614656Y-17320273D02*
G75*
G02*
X6973871Y-17942444I-131486J-490697D01*
G01*
X37090503Y-16466782D02*
G75*
G02*
X36731291Y-17088947I-490703J-131468D01*
G01*
X35112674Y-9085376D02*
X36084177Y-12711894D01*
X37554281Y-12844119D02*
X36706347Y-13071103D01*
X5037528Y-15845841D02*
X4189704Y-15618449D01*
X5780894Y-13072333D02*
X4932960Y-12845350D01*
X23295312Y-23785608D02*
G75*
G02*
X26083226Y-21593992I4914108J-3382112D01*
G01*
X7374567Y-9086606D02*
G75*
G02*
X7907194Y-8708996I494019J-132379D01*
G01*
X22450355Y-16953092D02*
X20036355Y-16954092D01*
X36706347Y-13071103D02*
G75*
G02*
X36084175Y-12711894I-131497J490663D01*
G01*
X37554281Y-12844119D02*
G75*
G02*
X38176454Y-13203329I131499J-490661D01*
G01*
X22850355Y-11558092D02*
G75*
G02*
X22884353Y-11511085I53475J-2878D01*
G01*
X4310790Y-13204560D02*
G75*
G02*
X4932960Y-12845350I490688J-131476D01*
G01*
X38176451Y-13203330D02*
X38656747Y-14995048D01*
X23295312Y-23785608D02*
G75*
G02*
X19191253Y-23786608I-2052398J1510784D01*
G01*
X22884355Y-11511092D02*
G75*
G02*
X34580047Y-8707768I15306765J-38061708D01*
G01*
D11*
X24904553Y-18157431D02*
X23552257Y-18519778D01*
X23189910Y-17167482D01*
X24542206Y-16805135D01*
X24904553Y-18157431D01*
X9805702Y-15769195D02*
X9443355Y-17121491D01*
X8091059Y-16759144D01*
X8453406Y-15406848D01*
X9805702Y-15769195D01*
X34391120Y-16759184D02*
X33038823Y-17121530D01*
X32676477Y-15769234D01*
X34028773Y-15406888D01*
X34391120Y-16759184D01*
X26005504Y-14902609D02*
X24653208Y-15264956D01*
X24290861Y-13912659D01*
X25643158Y-13550313D01*
X26005504Y-14902609D01*
X33405018Y-13079007D02*
X32052722Y-13441353D01*
X31690375Y-12089057D01*
X33042672Y-11726711D01*
X33405018Y-13079007D01*
X32965193Y-18797908D02*
X31612896Y-19160255D01*
X31250550Y-17807959D01*
X32602846Y-17445612D01*
X32965193Y-18797908D01*
X10298752Y-13929105D02*
X9936406Y-15281401D01*
X8584110Y-14919055D01*
X8946456Y-13566758D01*
X10298752Y-13929105D01*
X8912858Y-11740981D02*
X8550511Y-13093277D01*
X7198215Y-12730930D01*
X7560562Y-11378634D01*
X8912858Y-11740981D01*
X12219613Y-14125617D02*
X11857267Y-15477913D01*
X10504971Y-15115566D01*
X10867317Y-13763270D01*
X12219613Y-14125617D01*
X9406850Y-9899829D02*
X9044503Y-11252125D01*
X7692207Y-10889779D01*
X8054554Y-9537483D01*
X9406850Y-9899829D01*
X34790914Y-10890882D02*
X33438618Y-11253229D01*
X33076271Y-9900932D01*
X34428567Y-9538586D01*
X34790914Y-10890882D01*
X13111162Y-18153761D02*
X12748815Y-19506058D01*
X11396519Y-19143711D01*
X11758866Y-17791415D01*
X13111162Y-18153761D01*
X15898849Y-15112780D02*
X15536502Y-16465076D01*
X14184206Y-16102729D01*
X14546553Y-14750433D01*
X15898849Y-15112780D01*
X25512454Y-13062521D02*
X24160158Y-13424868D01*
X23797811Y-12072572D01*
X25150107Y-11710225D01*
X25512454Y-13062521D01*
X32911684Y-11240309D02*
X31559388Y-11602656D01*
X31197041Y-10250360D01*
X32549337Y-9888013D01*
X32911684Y-11240309D01*
X20544355Y-18485385D02*
X21944355Y-18485385D01*
X21944355Y-19885385D01*
X20544355Y-19885385D01*
X20544355Y-18485385D01*
X35283964Y-12730970D02*
X33931668Y-13093317D01*
X33569321Y-11741021D01*
X34921618Y-11378674D01*
X35283964Y-12730970D01*
X15406740Y-16951805D02*
X15044393Y-18304101D01*
X13692097Y-17941755D01*
X14054444Y-16589458D01*
X15406740Y-16951805D01*
X20539516Y-22069392D02*
X19549567Y-23059342D01*
X18559617Y-22069392D01*
X19549567Y-21079443D01*
X20539516Y-22069392D01*
X29285015Y-19784009D02*
X27932719Y-20146356D01*
X27570372Y-18794060D01*
X28922669Y-18431713D01*
X29285015Y-19784009D01*
X37863457Y-14998824D02*
X36511161Y-15361170D01*
X36148814Y-14008874D01*
X37501110Y-13646528D01*
X37863457Y-14998824D01*
X17700436Y-15751974D02*
X17338089Y-17104271D01*
X15985793Y-16741924D01*
X16348139Y-15389628D01*
X17700436Y-15751974D01*
X27805864Y-14263743D02*
X26453568Y-14626090D01*
X26091221Y-13273794D01*
X27443518Y-12911447D01*
X27805864Y-14263743D01*
X28792250Y-17942530D02*
X27439954Y-18304876D01*
X27077607Y-16952580D01*
X28429903Y-16590233D01*
X28792250Y-17942530D01*
X26498554Y-16742698D02*
X25146258Y-17105045D01*
X24783911Y-15752749D01*
X26136208Y-15390402D01*
X26498554Y-16742698D01*
X16392841Y-13271629D02*
X16030494Y-14623925D01*
X14678198Y-14261578D01*
X15040545Y-12909282D01*
X16392841Y-13271629D01*
X19294851Y-17165523D02*
X18932504Y-18517819D01*
X17580208Y-18155472D01*
X17942555Y-16803176D01*
X19294851Y-17165523D01*
X18193486Y-13911886D02*
X17831139Y-15264182D01*
X16478843Y-14901835D01*
X16841190Y-13549539D01*
X18193486Y-13911886D01*
X30592610Y-17303663D02*
X29240313Y-17666010D01*
X28877967Y-16313713D01*
X30230263Y-15951367D01*
X30592610Y-17303663D01*
X31085376Y-19145143D02*
X29733079Y-19507490D01*
X29370733Y-18155193D01*
X30723029Y-17792847D01*
X31085376Y-19145143D01*
X18799887Y-20493876D02*
X18099887Y-21706311D01*
X16887451Y-21006311D01*
X17587451Y-19793876D01*
X18799887Y-20493876D01*
X26991321Y-18584178D02*
X25639025Y-18946525D01*
X25276678Y-17594229D01*
X26628974Y-17231882D01*
X26991321Y-18584178D01*
X16714335Y-19432152D02*
X16351988Y-20784448D01*
X14999692Y-20422101D01*
X15362039Y-19069805D01*
X16714335Y-19432152D01*
X29606510Y-13623486D02*
X28254214Y-13985833D01*
X27891867Y-12633537D01*
X29244163Y-12271190D01*
X29606510Y-13623486D01*
X12711722Y-12286590D02*
X12349375Y-13638886D01*
X10997079Y-13276540D01*
X11359426Y-11924243D01*
X12711722Y-12286590D01*
X16885891Y-11431540D02*
X16523545Y-12783836D01*
X15171248Y-12421490D01*
X15533595Y-11069194D01*
X16885891Y-11431540D01*
X9312652Y-17609283D02*
X8950305Y-18961579D01*
X7598009Y-18599232D01*
X7960356Y-17246936D01*
X9312652Y-17609283D01*
X36270065Y-16411148D02*
X34917769Y-16773495D01*
X34555422Y-15421199D01*
X35907718Y-15058852D01*
X36270065Y-16411148D01*
X33897784Y-14920486D02*
X32545488Y-15282833D01*
X32183141Y-13930537D01*
X33535437Y-13568190D01*
X33897784Y-14920486D01*
X13604212Y-16313673D02*
X13241865Y-17665970D01*
X11889569Y-17303623D01*
X12251915Y-15951327D01*
X13604212Y-16313673D01*
X13204771Y-10446502D02*
X12842425Y-11798798D01*
X11490129Y-11436451D01*
X11852475Y-10084155D01*
X13204771Y-10446502D01*
X35777014Y-14571059D02*
X34424718Y-14933406D01*
X34062371Y-13581110D01*
X35414668Y-13218763D01*
X35777014Y-14571059D01*
X14912748Y-18792957D02*
X14550402Y-20145253D01*
X13198106Y-19782907D01*
X13560452Y-18430610D01*
X14912748Y-18792957D01*
X27313099Y-12422263D02*
X25960803Y-12784610D01*
X25598456Y-11432314D01*
X26950752Y-11069967D01*
X27313099Y-12422263D01*
X34884170Y-18599273D02*
X33531874Y-18961619D01*
X33169527Y-17609323D01*
X34521824Y-17246977D01*
X34884170Y-18599273D01*
X14591255Y-12632434D02*
X14228908Y-13984730D01*
X12876612Y-13622383D01*
X13238959Y-12270087D01*
X14591255Y-12632434D01*
X30993277Y-11436163D02*
X29640981Y-11798510D01*
X29278634Y-10446214D01*
X30630930Y-10083867D01*
X30993277Y-11436163D01*
X11232571Y-17806857D02*
X10870224Y-19159153D01*
X9517928Y-18796806D01*
X9880275Y-17444510D01*
X11232571Y-17806857D01*
X31979092Y-15117731D02*
X30626796Y-15480078D01*
X30264449Y-14127782D01*
X31616746Y-13765435D01*
X31979092Y-15117731D01*
X14097263Y-14473585D02*
X13734916Y-15825881D01*
X12382620Y-15463534D01*
X12744966Y-14111238D01*
X14097263Y-14473585D01*
X6332787Y-14009580D02*
X5970441Y-15361876D01*
X4618145Y-14999530D01*
X4980491Y-13647233D01*
X6332787Y-14009580D01*
X8419808Y-13581070D02*
X8057461Y-14933366D01*
X6705165Y-14571019D01*
X7067512Y-13218723D01*
X8419808Y-13581070D01*
X7927699Y-15420095D02*
X7565353Y-16772392D01*
X6213057Y-16410045D01*
X6575403Y-15057749D01*
X7927699Y-15420095D01*
X27484655Y-20422875D02*
X26132359Y-20785222D01*
X25770013Y-19432926D01*
X27122309Y-19070579D01*
X27484655Y-20422875D01*
X11725620Y-15966768D02*
X11363274Y-17319064D01*
X10010978Y-16956717D01*
X10373324Y-15604421D01*
X11725620Y-15966768D01*
X17207386Y-17592063D02*
X16845039Y-18944359D01*
X15492743Y-18582013D01*
X15855090Y-17229716D01*
X17207386Y-17592063D01*
X32472427Y-16956429D02*
X31120131Y-17318776D01*
X30757784Y-15966480D01*
X32110080Y-15604133D01*
X32472427Y-16956429D01*
X28298915Y-16103832D02*
X26946619Y-16466179D01*
X26584273Y-15113883D01*
X27936569Y-14751536D01*
X28298915Y-16103832D01*
X31486327Y-13276252D02*
X30134031Y-13638599D01*
X29771684Y-12286303D01*
X31123981Y-11923956D01*
X31486327Y-13276252D01*
X10791803Y-12089017D02*
X10429456Y-13441313D01*
X9077160Y-13078966D01*
X9439507Y-11726670D01*
X10791803Y-12089017D01*
X18686536Y-12071797D02*
X18324190Y-13424093D01*
X16971893Y-13061746D01*
X17334240Y-11709450D01*
X18686536Y-12071797D01*
X11285795Y-10247866D02*
X10923448Y-11600162D01*
X9571152Y-11237816D01*
X9933499Y-9885519D01*
X11285795Y-10247866D01*
X29113459Y-11783397D02*
X27761163Y-12145744D01*
X27398816Y-10793448D01*
X28751112Y-10431101D01*
X29113459Y-11783397D01*
X23917132Y-22071920D02*
X22927183Y-23061869D01*
X21937233Y-22071920D01*
X22927183Y-21081971D01*
X23917132Y-22071920D01*
X30099275Y-15464966D02*
X28746979Y-15827312D01*
X28384632Y-14475016D01*
X29736928Y-14112670D01*
X30099275Y-15464966D01*
X25595345Y-21007466D02*
X24382909Y-21707466D01*
X23682909Y-20495030D01*
X24895345Y-19795030D01*
X25595345Y-21007466D01*
X15084305Y-10792345D02*
X14721958Y-12144641D01*
X13369662Y-11782294D01*
X13732009Y-10429998D01*
X15084305Y-10792345D01*
D12*
D13*
X7644853Y-16888190D02*
X7884853Y-17128190D01*
X7884853Y-16888190D02*
X7644853Y-17128190D01*
X9125298Y-11363094D02*
X9365298Y-11603094D01*
X9365298Y-11363094D02*
X9125298Y-11603094D01*
X15082206Y-18573028D02*
X15322206Y-18813028D01*
X15322206Y-18573028D02*
X15082206Y-18813028D01*
X16562651Y-13047932D02*
X16802651Y-13287932D01*
X16802651Y-13047932D02*
X16562651Y-13287932D01*
X18121281Y-19024999D02*
X18361281Y-19264999D01*
X18361281Y-19024999D02*
X18121281Y-19264999D01*
X24124070Y-19032276D02*
X24364070Y-19272276D01*
X24364070Y-19032276D02*
X24124070Y-19272276D01*
X25682700Y-13055209D02*
X25922700Y-13295209D01*
X25922700Y-13055209D02*
X25682700Y-13295209D01*
X27163145Y-18580305D02*
X27403145Y-18820305D01*
X27403145Y-18580305D02*
X27163145Y-18820305D01*
X33120053Y-11370371D02*
X33360053Y-11610371D01*
X33360053Y-11370371D02*
X33120053Y-11610371D01*
X34600498Y-16895466D02*
X34840498Y-17135466D01*
X34840498Y-16895466D02*
X34600498Y-17135466D01*
D12*
X4068964Y-25139799D02*
X4068964Y-24939799D01*
X4068964Y-24939799D02*
X4116583Y-24939799D01*
X4116583Y-24939799D02*
X4145155Y-24949322D01*
X4145155Y-24949322D02*
X4164202Y-24968370D01*
X4164202Y-24968370D02*
X4173726Y-24987418D01*
X4173726Y-24987418D02*
X4183250Y-25025513D01*
X4183250Y-25025513D02*
X4183250Y-25054084D01*
X4183250Y-25054084D02*
X4173726Y-25092179D01*
X4173726Y-25092179D02*
X4164202Y-25111227D01*
X4164202Y-25111227D02*
X4145155Y-25130275D01*
X4145155Y-25130275D02*
X4116583Y-25139799D01*
X4116583Y-25139799D02*
X4068964Y-25139799D01*
X4268964Y-25139799D02*
X4268964Y-25006465D01*
X4268964Y-25044560D02*
X4278488Y-25025513D01*
X4278488Y-25025513D02*
X4288012Y-25015989D01*
X4288012Y-25015989D02*
X4307059Y-25006465D01*
X4307059Y-25006465D02*
X4326107Y-25006465D01*
X4392774Y-25139799D02*
X4392774Y-25006465D01*
X4392774Y-24939799D02*
X4383250Y-24949322D01*
X4383250Y-24949322D02*
X4392774Y-24958846D01*
X4392774Y-24958846D02*
X4402298Y-24949322D01*
X4402298Y-24949322D02*
X4392774Y-24939799D01*
X4392774Y-24939799D02*
X4392774Y-24958846D01*
X4516583Y-25139799D02*
X4497536Y-25130275D01*
X4497536Y-25130275D02*
X4488012Y-25111227D01*
X4488012Y-25111227D02*
X4488012Y-24939799D01*
X4621345Y-25139799D02*
X4602298Y-25130275D01*
X4602298Y-25130275D02*
X4592774Y-25111227D01*
X4592774Y-25111227D02*
X4592774Y-24939799D01*
X4849917Y-25139799D02*
X4849917Y-24939799D01*
X4849917Y-24939799D02*
X4916583Y-25082656D01*
X4916583Y-25082656D02*
X4983250Y-24939799D01*
X4983250Y-24939799D02*
X4983250Y-25139799D01*
X5164202Y-25139799D02*
X5164202Y-25035037D01*
X5164202Y-25035037D02*
X5154679Y-25015989D01*
X5154679Y-25015989D02*
X5135631Y-25006465D01*
X5135631Y-25006465D02*
X5097536Y-25006465D01*
X5097536Y-25006465D02*
X5078488Y-25015989D01*
X5164202Y-25130275D02*
X5145155Y-25139799D01*
X5145155Y-25139799D02*
X5097536Y-25139799D01*
X5097536Y-25139799D02*
X5078488Y-25130275D01*
X5078488Y-25130275D02*
X5068964Y-25111227D01*
X5068964Y-25111227D02*
X5068964Y-25092179D01*
X5068964Y-25092179D02*
X5078488Y-25073132D01*
X5078488Y-25073132D02*
X5097536Y-25063608D01*
X5097536Y-25063608D02*
X5145155Y-25063608D01*
X5145155Y-25063608D02*
X5164202Y-25054084D01*
X5259440Y-25006465D02*
X5259440Y-25206465D01*
X5259440Y-25015989D02*
X5278488Y-25006465D01*
X5278488Y-25006465D02*
X5316583Y-25006465D01*
X5316583Y-25006465D02*
X5335631Y-25015989D01*
X5335631Y-25015989D02*
X5345155Y-25025513D01*
X5345155Y-25025513D02*
X5354679Y-25044560D01*
X5354679Y-25044560D02*
X5354679Y-25101703D01*
X5354679Y-25101703D02*
X5345155Y-25120751D01*
X5345155Y-25120751D02*
X5335631Y-25130275D01*
X5335631Y-25130275D02*
X5316583Y-25139799D01*
X5316583Y-25139799D02*
X5278488Y-25139799D01*
X5278488Y-25139799D02*
X5259440Y-25130275D01*
X5440393Y-25120751D02*
X5449917Y-25130275D01*
X5449917Y-25130275D02*
X5440393Y-25139799D01*
X5440393Y-25139799D02*
X5430869Y-25130275D01*
X5430869Y-25130275D02*
X5440393Y-25120751D01*
X5440393Y-25120751D02*
X5440393Y-25139799D01*
X5440393Y-25015989D02*
X5449917Y-25025513D01*
X5449917Y-25025513D02*
X5440393Y-25035037D01*
X5440393Y-25035037D02*
X5430869Y-25025513D01*
X5430869Y-25025513D02*
X5440393Y-25015989D01*
X5440393Y-25015989D02*
X5440393Y-25035037D01*
X3608187Y-25368315D02*
X3808187Y-25568315D01*
X3808187Y-25368315D02*
X3608187Y-25568315D01*
X4059440Y-25378846D02*
X4068964Y-25369322D01*
X4068964Y-25369322D02*
X4088012Y-25359799D01*
X4088012Y-25359799D02*
X4135631Y-25359799D01*
X4135631Y-25359799D02*
X4154678Y-25369322D01*
X4154678Y-25369322D02*
X4164202Y-25378846D01*
X4164202Y-25378846D02*
X4173726Y-25397894D01*
X4173726Y-25397894D02*
X4173726Y-25416941D01*
X4173726Y-25416941D02*
X4164202Y-25445513D01*
X4164202Y-25445513D02*
X4049917Y-25559799D01*
X4049917Y-25559799D02*
X4173726Y-25559799D01*
X4259440Y-25540751D02*
X4268964Y-25550275D01*
X4268964Y-25550275D02*
X4259440Y-25559799D01*
X4259440Y-25559799D02*
X4249917Y-25550275D01*
X4249917Y-25550275D02*
X4259440Y-25540751D01*
X4259440Y-25540751D02*
X4259440Y-25559799D01*
X4440393Y-25426465D02*
X4440393Y-25559799D01*
X4392774Y-25350275D02*
X4345155Y-25493132D01*
X4345155Y-25493132D02*
X4468964Y-25493132D01*
X4583250Y-25359799D02*
X4602298Y-25359799D01*
X4602298Y-25359799D02*
X4621345Y-25369322D01*
X4621345Y-25369322D02*
X4630869Y-25378846D01*
X4630869Y-25378846D02*
X4640393Y-25397894D01*
X4640393Y-25397894D02*
X4649917Y-25435989D01*
X4649917Y-25435989D02*
X4649917Y-25483608D01*
X4649917Y-25483608D02*
X4640393Y-25521703D01*
X4640393Y-25521703D02*
X4630869Y-25540751D01*
X4630869Y-25540751D02*
X4621345Y-25550275D01*
X4621345Y-25550275D02*
X4602298Y-25559799D01*
X4602298Y-25559799D02*
X4583250Y-25559799D01*
X4583250Y-25559799D02*
X4564202Y-25550275D01*
X4564202Y-25550275D02*
X4554679Y-25540751D01*
X4554679Y-25540751D02*
X4545155Y-25521703D01*
X4545155Y-25521703D02*
X4535631Y-25483608D01*
X4535631Y-25483608D02*
X4535631Y-25435989D01*
X4535631Y-25435989D02*
X4545155Y-25397894D01*
X4545155Y-25397894D02*
X4554679Y-25378846D01*
X4554679Y-25378846D02*
X4564202Y-25369322D01*
X4564202Y-25369322D02*
X4583250Y-25359799D01*
X4773726Y-25359799D02*
X4792774Y-25359799D01*
X4792774Y-25359799D02*
X4811821Y-25369322D01*
X4811821Y-25369322D02*
X4821345Y-25378846D01*
X4821345Y-25378846D02*
X4830869Y-25397894D01*
X4830869Y-25397894D02*
X4840393Y-25435989D01*
X4840393Y-25435989D02*
X4840393Y-25483608D01*
X4840393Y-25483608D02*
X4830869Y-25521703D01*
X4830869Y-25521703D02*
X4821345Y-25540751D01*
X4821345Y-25540751D02*
X4811821Y-25550275D01*
X4811821Y-25550275D02*
X4792774Y-25559799D01*
X4792774Y-25559799D02*
X4773726Y-25559799D01*
X4773726Y-25559799D02*
X4754679Y-25550275D01*
X4754679Y-25550275D02*
X4745155Y-25540751D01*
X4745155Y-25540751D02*
X4735631Y-25521703D01*
X4735631Y-25521703D02*
X4726107Y-25483608D01*
X4726107Y-25483608D02*
X4726107Y-25435989D01*
X4726107Y-25435989D02*
X4735631Y-25397894D01*
X4735631Y-25397894D02*
X4745155Y-25378846D01*
X4745155Y-25378846D02*
X4754679Y-25369322D01*
X4754679Y-25369322D02*
X4773726Y-25359799D01*
X4926107Y-25559799D02*
X4926107Y-25426465D01*
X4926107Y-25445513D02*
X4935631Y-25435989D01*
X4935631Y-25435989D02*
X4954679Y-25426465D01*
X4954679Y-25426465D02*
X4983250Y-25426465D01*
X4983250Y-25426465D02*
X5002298Y-25435989D01*
X5002298Y-25435989D02*
X5011821Y-25455037D01*
X5011821Y-25455037D02*
X5011821Y-25559799D01*
X5011821Y-25455037D02*
X5021345Y-25435989D01*
X5021345Y-25435989D02*
X5040393Y-25426465D01*
X5040393Y-25426465D02*
X5068964Y-25426465D01*
X5068964Y-25426465D02*
X5088012Y-25435989D01*
X5088012Y-25435989D02*
X5097536Y-25455037D01*
X5097536Y-25455037D02*
X5097536Y-25559799D01*
X5192774Y-25559799D02*
X5192774Y-25426465D01*
X5192774Y-25445513D02*
X5202298Y-25435989D01*
X5202298Y-25435989D02*
X5221345Y-25426465D01*
X5221345Y-25426465D02*
X5249917Y-25426465D01*
X5249917Y-25426465D02*
X5268964Y-25435989D01*
X5268964Y-25435989D02*
X5278488Y-25455037D01*
X5278488Y-25455037D02*
X5278488Y-25559799D01*
X5278488Y-25455037D02*
X5288012Y-25435989D01*
X5288012Y-25435989D02*
X5307060Y-25426465D01*
X5307060Y-25426465D02*
X5335631Y-25426465D01*
X5335631Y-25426465D02*
X5354679Y-25435989D01*
X5354679Y-25435989D02*
X5364202Y-25455037D01*
X5364202Y-25455037D02*
X5364202Y-25559799D01*
X5754679Y-25350275D02*
X5583250Y-25607418D01*
X6011821Y-25359799D02*
X6030869Y-25359799D01*
X6030869Y-25359799D02*
X6049917Y-25369322D01*
X6049917Y-25369322D02*
X6059441Y-25378846D01*
X6059441Y-25378846D02*
X6068964Y-25397894D01*
X6068964Y-25397894D02*
X6078488Y-25435989D01*
X6078488Y-25435989D02*
X6078488Y-25483608D01*
X6078488Y-25483608D02*
X6068964Y-25521703D01*
X6068964Y-25521703D02*
X6059441Y-25540751D01*
X6059441Y-25540751D02*
X6049917Y-25550275D01*
X6049917Y-25550275D02*
X6030869Y-25559799D01*
X6030869Y-25559799D02*
X6011821Y-25559799D01*
X6011821Y-25559799D02*
X5992774Y-25550275D01*
X5992774Y-25550275D02*
X5983250Y-25540751D01*
X5983250Y-25540751D02*
X5973726Y-25521703D01*
X5973726Y-25521703D02*
X5964202Y-25483608D01*
X5964202Y-25483608D02*
X5964202Y-25435989D01*
X5964202Y-25435989D02*
X5973726Y-25397894D01*
X5973726Y-25397894D02*
X5983250Y-25378846D01*
X5983250Y-25378846D02*
X5992774Y-25369322D01*
X5992774Y-25369322D02*
X6011821Y-25359799D01*
X6164202Y-25540751D02*
X6173726Y-25550275D01*
X6173726Y-25550275D02*
X6164202Y-25559799D01*
X6164202Y-25559799D02*
X6154679Y-25550275D01*
X6154679Y-25550275D02*
X6164202Y-25540751D01*
X6164202Y-25540751D02*
X6164202Y-25559799D01*
X6297536Y-25359799D02*
X6316583Y-25359799D01*
X6316583Y-25359799D02*
X6335631Y-25369322D01*
X6335631Y-25369322D02*
X6345155Y-25378846D01*
X6345155Y-25378846D02*
X6354679Y-25397894D01*
X6354679Y-25397894D02*
X6364202Y-25435989D01*
X6364202Y-25435989D02*
X6364202Y-25483608D01*
X6364202Y-25483608D02*
X6354679Y-25521703D01*
X6354679Y-25521703D02*
X6345155Y-25540751D01*
X6345155Y-25540751D02*
X6335631Y-25550275D01*
X6335631Y-25550275D02*
X6316583Y-25559799D01*
X6316583Y-25559799D02*
X6297536Y-25559799D01*
X6297536Y-25559799D02*
X6278488Y-25550275D01*
X6278488Y-25550275D02*
X6268964Y-25540751D01*
X6268964Y-25540751D02*
X6259441Y-25521703D01*
X6259441Y-25521703D02*
X6249917Y-25483608D01*
X6249917Y-25483608D02*
X6249917Y-25435989D01*
X6249917Y-25435989D02*
X6259441Y-25397894D01*
X6259441Y-25397894D02*
X6268964Y-25378846D01*
X6268964Y-25378846D02*
X6278488Y-25369322D01*
X6278488Y-25369322D02*
X6297536Y-25359799D01*
X6459441Y-25559799D02*
X6497536Y-25559799D01*
X6497536Y-25559799D02*
X6516583Y-25550275D01*
X6516583Y-25550275D02*
X6526107Y-25540751D01*
X6526107Y-25540751D02*
X6545155Y-25512179D01*
X6545155Y-25512179D02*
X6554679Y-25474084D01*
X6554679Y-25474084D02*
X6554679Y-25397894D01*
X6554679Y-25397894D02*
X6545155Y-25378846D01*
X6545155Y-25378846D02*
X6535631Y-25369322D01*
X6535631Y-25369322D02*
X6516583Y-25359799D01*
X6516583Y-25359799D02*
X6478488Y-25359799D01*
X6478488Y-25359799D02*
X6459441Y-25369322D01*
X6459441Y-25369322D02*
X6449917Y-25378846D01*
X6449917Y-25378846D02*
X6440393Y-25397894D01*
X6440393Y-25397894D02*
X6440393Y-25445513D01*
X6440393Y-25445513D02*
X6449917Y-25464560D01*
X6449917Y-25464560D02*
X6459441Y-25474084D01*
X6459441Y-25474084D02*
X6478488Y-25483608D01*
X6478488Y-25483608D02*
X6516583Y-25483608D01*
X6516583Y-25483608D02*
X6535631Y-25474084D01*
X6535631Y-25474084D02*
X6545155Y-25464560D01*
X6545155Y-25464560D02*
X6554679Y-25445513D01*
X6726107Y-25426465D02*
X6726107Y-25559799D01*
X6678488Y-25350275D02*
X6630869Y-25493132D01*
X6630869Y-25493132D02*
X6754679Y-25493132D01*
X6926107Y-25359799D02*
X6830869Y-25359799D01*
X6830869Y-25359799D02*
X6821345Y-25455037D01*
X6821345Y-25455037D02*
X6830869Y-25445513D01*
X6830869Y-25445513D02*
X6849917Y-25435989D01*
X6849917Y-25435989D02*
X6897536Y-25435989D01*
X6897536Y-25435989D02*
X6916583Y-25445513D01*
X6916583Y-25445513D02*
X6926107Y-25455037D01*
X6926107Y-25455037D02*
X6935631Y-25474084D01*
X6935631Y-25474084D02*
X6935631Y-25521703D01*
X6935631Y-25521703D02*
X6926107Y-25540751D01*
X6926107Y-25540751D02*
X6916583Y-25550275D01*
X6916583Y-25550275D02*
X6897536Y-25559799D01*
X6897536Y-25559799D02*
X6849917Y-25559799D01*
X6849917Y-25559799D02*
X6830869Y-25550275D01*
X6830869Y-25550275D02*
X6821345Y-25540751D01*
X7011822Y-25359799D02*
X7011822Y-25397894D01*
X7088012Y-25359799D02*
X7088012Y-25397894D01*
X7383250Y-25635989D02*
X7373726Y-25626465D01*
X7373726Y-25626465D02*
X7354679Y-25597894D01*
X7354679Y-25597894D02*
X7345155Y-25578846D01*
X7345155Y-25578846D02*
X7335631Y-25550275D01*
X7335631Y-25550275D02*
X7326107Y-25502656D01*
X7326107Y-25502656D02*
X7326107Y-25464560D01*
X7326107Y-25464560D02*
X7335631Y-25416941D01*
X7335631Y-25416941D02*
X7345155Y-25388370D01*
X7345155Y-25388370D02*
X7354679Y-25369322D01*
X7354679Y-25369322D02*
X7373726Y-25340751D01*
X7373726Y-25340751D02*
X7383250Y-25331227D01*
X7564203Y-25559799D02*
X7449917Y-25559799D01*
X7507060Y-25559799D02*
X7507060Y-25359799D01*
X7507060Y-25359799D02*
X7488012Y-25388370D01*
X7488012Y-25388370D02*
X7468964Y-25407418D01*
X7468964Y-25407418D02*
X7449917Y-25416941D01*
X7688012Y-25359799D02*
X7707060Y-25359799D01*
X7707060Y-25359799D02*
X7726107Y-25369322D01*
X7726107Y-25369322D02*
X7735631Y-25378846D01*
X7735631Y-25378846D02*
X7745155Y-25397894D01*
X7745155Y-25397894D02*
X7754679Y-25435989D01*
X7754679Y-25435989D02*
X7754679Y-25483608D01*
X7754679Y-25483608D02*
X7745155Y-25521703D01*
X7745155Y-25521703D02*
X7735631Y-25540751D01*
X7735631Y-25540751D02*
X7726107Y-25550275D01*
X7726107Y-25550275D02*
X7707060Y-25559799D01*
X7707060Y-25559799D02*
X7688012Y-25559799D01*
X7688012Y-25559799D02*
X7668964Y-25550275D01*
X7668964Y-25550275D02*
X7659441Y-25540751D01*
X7659441Y-25540751D02*
X7649917Y-25521703D01*
X7649917Y-25521703D02*
X7640393Y-25483608D01*
X7640393Y-25483608D02*
X7640393Y-25435989D01*
X7640393Y-25435989D02*
X7649917Y-25397894D01*
X7649917Y-25397894D02*
X7659441Y-25378846D01*
X7659441Y-25378846D02*
X7668964Y-25369322D01*
X7668964Y-25369322D02*
X7688012Y-25359799D01*
X7992774Y-25559799D02*
X7992774Y-25359799D01*
X8078488Y-25559799D02*
X8078488Y-25455037D01*
X8078488Y-25455037D02*
X8068965Y-25435989D01*
X8068965Y-25435989D02*
X8049917Y-25426465D01*
X8049917Y-25426465D02*
X8021345Y-25426465D01*
X8021345Y-25426465D02*
X8002298Y-25435989D01*
X8002298Y-25435989D02*
X7992774Y-25445513D01*
X8202298Y-25559799D02*
X8183250Y-25550275D01*
X8183250Y-25550275D02*
X8173726Y-25540751D01*
X8173726Y-25540751D02*
X8164203Y-25521703D01*
X8164203Y-25521703D02*
X8164203Y-25464560D01*
X8164203Y-25464560D02*
X8173726Y-25445513D01*
X8173726Y-25445513D02*
X8183250Y-25435989D01*
X8183250Y-25435989D02*
X8202298Y-25426465D01*
X8202298Y-25426465D02*
X8230869Y-25426465D01*
X8230869Y-25426465D02*
X8249917Y-25435989D01*
X8249917Y-25435989D02*
X8259441Y-25445513D01*
X8259441Y-25445513D02*
X8268965Y-25464560D01*
X8268965Y-25464560D02*
X8268965Y-25521703D01*
X8268965Y-25521703D02*
X8259441Y-25540751D01*
X8259441Y-25540751D02*
X8249917Y-25550275D01*
X8249917Y-25550275D02*
X8230869Y-25559799D01*
X8230869Y-25559799D02*
X8202298Y-25559799D01*
X8383250Y-25559799D02*
X8364203Y-25550275D01*
X8364203Y-25550275D02*
X8354679Y-25531227D01*
X8354679Y-25531227D02*
X8354679Y-25359799D01*
X8535631Y-25550275D02*
X8516584Y-25559799D01*
X8516584Y-25559799D02*
X8478488Y-25559799D01*
X8478488Y-25559799D02*
X8459441Y-25550275D01*
X8459441Y-25550275D02*
X8449917Y-25531227D01*
X8449917Y-25531227D02*
X8449917Y-25455037D01*
X8449917Y-25455037D02*
X8459441Y-25435989D01*
X8459441Y-25435989D02*
X8478488Y-25426465D01*
X8478488Y-25426465D02*
X8516584Y-25426465D01*
X8516584Y-25426465D02*
X8535631Y-25435989D01*
X8535631Y-25435989D02*
X8545155Y-25455037D01*
X8545155Y-25455037D02*
X8545155Y-25474084D01*
X8545155Y-25474084D02*
X8449917Y-25493132D01*
X8621346Y-25550275D02*
X8640393Y-25559799D01*
X8640393Y-25559799D02*
X8678488Y-25559799D01*
X8678488Y-25559799D02*
X8697536Y-25550275D01*
X8697536Y-25550275D02*
X8707060Y-25531227D01*
X8707060Y-25531227D02*
X8707060Y-25521703D01*
X8707060Y-25521703D02*
X8697536Y-25502656D01*
X8697536Y-25502656D02*
X8678488Y-25493132D01*
X8678488Y-25493132D02*
X8649917Y-25493132D01*
X8649917Y-25493132D02*
X8630869Y-25483608D01*
X8630869Y-25483608D02*
X8621346Y-25464560D01*
X8621346Y-25464560D02*
X8621346Y-25455037D01*
X8621346Y-25455037D02*
X8630869Y-25435989D01*
X8630869Y-25435989D02*
X8649917Y-25426465D01*
X8649917Y-25426465D02*
X8678488Y-25426465D01*
X8678488Y-25426465D02*
X8697536Y-25435989D01*
X8773727Y-25635989D02*
X8783250Y-25626465D01*
X8783250Y-25626465D02*
X8802298Y-25597894D01*
X8802298Y-25597894D02*
X8811822Y-25578846D01*
X8811822Y-25578846D02*
X8821346Y-25550275D01*
X8821346Y-25550275D02*
X8830869Y-25502656D01*
X8830869Y-25502656D02*
X8830869Y-25464560D01*
X8830869Y-25464560D02*
X8821346Y-25416941D01*
X8821346Y-25416941D02*
X8811822Y-25388370D01*
X8811822Y-25388370D02*
X8802298Y-25369322D01*
X8802298Y-25369322D02*
X8783250Y-25340751D01*
X8783250Y-25340751D02*
X8773727Y-25331227D01*
M02*
