G04 #@! TF.GenerationSoftware,KiCad,Pcbnew,8.0.2*
G04 #@! TF.CreationDate,2024-06-04T20:59:11+01:00*
G04 #@! TF.ProjectId,Ashwing66_baseplate,41736877-696e-4673-9636-5f6261736570,1*
G04 #@! TF.SameCoordinates,Original*
G04 #@! TF.FileFunction,Profile,NP*
%FSLAX46Y46*%
G04 Gerber Fmt 4.6, Leading zero omitted, Abs format (unit mm)*
G04 Created by KiCad (PCBNEW 8.0.2) date 2024-06-04 20:59:11*
%MOMM*%
%LPD*%
G01*
G04 APERTURE LIST*
G04 #@! TA.AperFunction,Profile*
%ADD10C,0.100000*%
G04 #@! TD*
G04 APERTURE END LIST*
D10*
X64030647Y-127131240D02*
G75*
G02*
X57808944Y-130723316I-4906847J1314740D01*
G01*
X57559482Y-170901821D02*
G75*
G02*
X53967319Y-164680107I1314918J4907021D01*
G01*
X382975375Y-156172190D02*
X374497129Y-158446109D01*
X348353612Y-170150977D02*
G75*
G02*
X346053492Y-170150977I-1150060J0D01*
G01*
X346053492Y-170150977D02*
G75*
G02*
X348353612Y-170150977I1150060J0D01*
G01*
X41897037Y-156184490D02*
G75*
G02*
X38304944Y-149962783I1314963J4906990D01*
G01*
X259173612Y-131760977D02*
G75*
G02*
X256873492Y-131760977I-1150060J0D01*
G01*
X256873492Y-131760977D02*
G75*
G02*
X259173612Y-131760977I1150060J0D01*
G01*
X164040147Y-215952232D02*
G75*
G02*
X191912523Y-237866079I-21253447J-55714868D01*
G01*
X78803552Y-170080917D02*
G75*
G02*
X76503432Y-170080917I-1150060J0D01*
G01*
X76503432Y-170080917D02*
G75*
G02*
X78803552Y-170080917I1150060J0D01*
G01*
X71847809Y-192820366D02*
G75*
G02*
X164040147Y-215952232I-59770929J-433500554D01*
G01*
X345800473Y-87077667D02*
G75*
G02*
X351126693Y-90853775I385927J-5100033D01*
G01*
X273983612Y-187000977D02*
G75*
G02*
X271683492Y-187000977I-1150060J0D01*
G01*
X271683492Y-187000977D02*
G75*
G02*
X273983612Y-187000977I1150060J0D01*
G01*
X153173552Y-186930917D02*
G75*
G02*
X150873432Y-186930917I-1150060J0D01*
G01*
X150873432Y-186930917D02*
G75*
G02*
X153173552Y-186930917I1150060J0D01*
G01*
X367312928Y-170889519D02*
X358725850Y-173190425D01*
X370905029Y-164667821D02*
G75*
G02*
X374497112Y-158446047I4906971J1314821D01*
G01*
X153173552Y-186930917D02*
G75*
G02*
X150873432Y-186930917I-1150060J0D01*
G01*
X150873432Y-186930917D02*
G75*
G02*
X153173552Y-186930917I1150060J0D01*
G01*
X79066631Y-87087667D02*
G75*
G02*
X196023553Y-115120916I-36110781J-408650393D01*
G01*
X355133738Y-179412122D02*
G75*
G02*
X358725830Y-173190351I4906962J1314822D01*
G01*
X50375279Y-158458413D02*
G75*
G02*
X53967325Y-164680109I-1314679J-4906787D01*
G01*
X357040207Y-186527135D02*
G75*
G02*
X353024614Y-192808145I-4876207J-1306665D01*
G01*
X66146560Y-173202726D02*
X57559482Y-170901821D01*
X386567470Y-149950479D02*
G75*
G02*
X382975382Y-156172215I-4906570J-1315021D01*
G01*
X260832262Y-215939933D02*
G75*
G02*
X353024600Y-192808061I151962938J-410367267D01*
G01*
X355133738Y-179412122D02*
X357040207Y-186527135D01*
X167983552Y-131680917D02*
G75*
G02*
X165683432Y-131680917I-1150060J0D01*
G01*
X165683432Y-131680917D02*
G75*
G02*
X167983552Y-131680917I1150060J0D01*
G01*
X67832207Y-186539437D02*
X69738671Y-179424426D01*
X38304942Y-149962782D02*
X43107903Y-132045597D01*
X71847809Y-192820366D02*
G75*
G02*
X67832220Y-186539440I860991J4974566D01*
G01*
X64030647Y-127131240D02*
X73745667Y-90866063D01*
X66146560Y-173202726D02*
G75*
G02*
X69738707Y-179424436I-1314860J-4906974D01*
G01*
X333553612Y-114910977D02*
G75*
G02*
X331253492Y-114910977I-1150060J0D01*
G01*
X331253492Y-114910977D02*
G75*
G02*
X333553612Y-114910977I1150060J0D01*
G01*
X370905029Y-164667821D02*
G75*
G02*
X367312914Y-170889466I-4907029J-1314679D01*
G01*
X351126744Y-90853761D02*
X360841765Y-127118938D01*
X375542807Y-128441193D02*
X367063474Y-130711034D01*
X153173552Y-186930917D02*
G75*
G02*
X150873432Y-186930917I-1150060J0D01*
G01*
X150873432Y-186930917D02*
G75*
G02*
X153173552Y-186930917I1150060J0D01*
G01*
X183563612Y-191450977D02*
G75*
G02*
X181263492Y-191450977I-1150060J0D01*
G01*
X181263492Y-191450977D02*
G75*
G02*
X183563612Y-191450977I1150060J0D01*
G01*
X50375279Y-158458413D02*
X41897037Y-156184490D01*
X57808939Y-130723334D02*
X49329603Y-128453498D01*
X232953116Y-237856083D02*
G75*
G02*
X260832259Y-215939924I49141084J-33821117D01*
G01*
X228843552Y-115110917D02*
X196023552Y-115120917D01*
X73745667Y-90866063D02*
G75*
G02*
X79071936Y-87089961I4940193J-1323787D01*
G01*
X367063474Y-130711034D02*
G75*
G02*
X360841750Y-127118942I-1314974J4906634D01*
G01*
X93603612Y-114830977D02*
G75*
G02*
X91303492Y-114830977I-1150060J0D01*
G01*
X91303492Y-114830977D02*
G75*
G02*
X93603612Y-114830977I1150060J0D01*
G01*
X375542807Y-128441193D02*
G75*
G02*
X381764537Y-132033291I1314993J-4906607D01*
G01*
X43107903Y-132045597D02*
G75*
G02*
X49329603Y-128453499I4906877J-1314763D01*
G01*
X381764511Y-132033298D02*
X386567470Y-149950479D01*
X232953116Y-237856083D02*
G75*
G02*
X191912525Y-237866077I-20523976J15107843D01*
G01*
X243593612Y-191520977D02*
G75*
G02*
X241293492Y-191520977I-1150060J0D01*
G01*
X241293492Y-191520977D02*
G75*
G02*
X243593612Y-191520977I1150060J0D01*
G01*
X228843552Y-115110917D02*
G75*
G02*
X345800474Y-87077680I153067648J-380617083D01*
G01*
X167973552Y-131680917D02*
G75*
G02*
X165673432Y-131680917I-1150060J0D01*
G01*
X165673432Y-131680917D02*
G75*
G02*
X167973552Y-131680917I1150060J0D01*
G01*
M02*
