G04 #@! TF.GenerationSoftware,KiCad,Pcbnew,8.0.3*
G04 #@! TF.CreationDate,2024-06-10T14:21:54+01:00*
G04 #@! TF.ProjectId,Ashwing66_baseplate,41736877-696e-4673-9636-5f6261736570,1*
G04 #@! TF.SameCoordinates,Original*
G04 #@! TF.FileFunction,Profile,NP*
%FSLAX46Y46*%
G04 Gerber Fmt 4.6, Leading zero omitted, Abs format (unit mm)*
G04 Created by KiCad (PCBNEW 8.0.3) date 2024-06-10 14:21:54*
%MOMM*%
%LPD*%
G01*
G04 APERTURE LIST*
G04 #@! TA.AperFunction,Profile*
%ADD10C,0.100000*%
G04 #@! TD*
G04 APERTURE END LIST*
D10*
X113579903Y-90803638D02*
X129044375Y-94947328D01*
X54752330Y-166916841D02*
G75*
G02*
X51920739Y-162017015I1032270J3864641D01*
G01*
X270712664Y-184167066D02*
G75*
G02*
X268412546Y-184167066I-1150059J0D01*
G01*
X268412546Y-184167066D02*
G75*
G02*
X270712664Y-184167066I1150059J0D01*
G01*
X38792064Y-152808703D02*
G75*
G02*
X35960495Y-147908879I1032236J3864603D01*
G01*
X129044375Y-94947328D02*
X130918235Y-93865455D01*
X172127252Y-106481000D02*
X155175256Y-101938728D01*
X278035885Y-206394717D02*
X279110682Y-204533109D01*
X92914336Y-88413554D02*
X109856675Y-92953243D01*
X160098545Y-211723799D02*
X140210135Y-206394722D01*
X308389338Y-92953241D02*
X325331679Y-88413557D01*
X304666114Y-90803636D02*
X308389338Y-92953241D01*
X130918235Y-93865455D02*
X154110115Y-100079704D01*
X365938699Y-160574427D02*
X366325240Y-162017024D01*
X361763522Y-129525146D02*
G75*
G02*
X356864595Y-126696703I-1035322J3863546D01*
G01*
X330282665Y-112057066D02*
G75*
G02*
X327982545Y-112057066I-1150060J0D01*
G01*
X327982545Y-112057066D02*
G75*
G02*
X330282665Y-112057066I1150060J0D01*
G01*
X52307317Y-160574427D02*
X51920776Y-162017025D01*
X155175256Y-101938728D02*
X154110115Y-100079704D01*
X149892665Y-184087066D02*
G75*
G02*
X147592545Y-184087066I-1150060J0D01*
G01*
X147592545Y-184087066D02*
G75*
G02*
X149892665Y-184087066I1150060J0D01*
G01*
X91064974Y-89481287D02*
X92914336Y-88413554D01*
X160098545Y-211723799D02*
G75*
G02*
X176659096Y-221139339I-12734345J-41669401D01*
G01*
X108024717Y-194644129D02*
X123527830Y-198798175D01*
X310221299Y-194644129D02*
X312056775Y-195705230D01*
X294718186Y-198798172D02*
X310221299Y-194644129D01*
X246118759Y-106481004D02*
X245051029Y-108330364D01*
X264135900Y-100079703D02*
X263070759Y-101938726D01*
X255902664Y-128907066D02*
G75*
G02*
X253602546Y-128907066I-1150059J0D01*
G01*
X253602546Y-128907066D02*
G75*
G02*
X255902664Y-128907066I1150059J0D01*
G01*
X230608577Y-112210548D02*
X187716633Y-112220549D01*
X264135900Y-100079703D02*
X287327780Y-93865456D01*
X173194986Y-108330365D02*
X172127252Y-106481000D01*
X106189239Y-195705229D02*
X91640757Y-191806971D01*
X91064974Y-89481287D02*
X76530207Y-85576775D01*
X68587579Y-188804884D02*
G75*
G02*
X65756022Y-183905066I1032221J3864584D01*
G01*
X228841846Y-234155321D02*
X241586897Y-221139319D01*
X279110682Y-204533109D02*
X293659167Y-200634854D01*
X363493683Y-166916842D02*
X352840611Y-169771324D01*
X65405402Y-169771323D02*
X54752330Y-166916841D01*
X106189239Y-195705229D02*
X108024717Y-194644129D01*
X206298043Y-222924742D02*
G75*
G02*
X211957223Y-222922407I2830757J-2826158D01*
G01*
X263070759Y-101938726D02*
X246118759Y-106481004D01*
X195063311Y-234153033D02*
G75*
G02*
X189404174Y-234155319I-2830711J2826433D01*
G01*
X176659115Y-221139318D02*
X189404170Y-234155323D01*
X245051029Y-108330364D02*
X230608577Y-112210548D01*
X195063311Y-234153033D02*
X206298043Y-222924742D01*
X240322664Y-188677066D02*
G75*
G02*
X238022546Y-188677066I-1150059J0D01*
G01*
X238022546Y-188677066D02*
G75*
G02*
X240322664Y-188677066I1150059J0D01*
G01*
X124586850Y-200634852D02*
X139135332Y-204533104D01*
X228841846Y-234155321D02*
G75*
G02*
X223182683Y-234153048I-2828446J2828321D01*
G01*
X49478891Y-155675444D02*
X38792064Y-152808703D01*
X211957184Y-222922446D02*
X223182703Y-234153028D01*
X379453952Y-152808701D02*
X368767125Y-155675446D01*
X180292664Y-188607067D02*
G75*
G02*
X177992546Y-188607067I-1150059J0D01*
G01*
X177992546Y-188607067D02*
G75*
G02*
X180292664Y-188607067I1150059J0D01*
G01*
X71628104Y-88404365D02*
X61381469Y-126696715D01*
X109856675Y-92953243D02*
X113579903Y-90803638D01*
X68233827Y-174670301D02*
X65756029Y-183905068D01*
X356864545Y-126696716D02*
X346617910Y-88404363D01*
X345092665Y-167307066D02*
G75*
G02*
X342792545Y-167307066I-1150060J0D01*
G01*
X342792545Y-167307066D02*
G75*
G02*
X345092665Y-167307066I1150060J0D01*
G01*
X68587579Y-188804884D02*
X87891263Y-193977244D01*
X325331679Y-88413557D02*
X327181042Y-89481284D01*
X287327780Y-93865456D02*
X289201640Y-94947329D01*
X139135332Y-204533104D02*
X140210135Y-206394722D01*
X75522664Y-167237066D02*
G75*
G02*
X73222544Y-167237066I-1150060J0D01*
G01*
X73222544Y-167237066D02*
G75*
G02*
X75522664Y-167237066I1150060J0D01*
G01*
X164702665Y-128838818D02*
G75*
G02*
X162402545Y-128838818I-1150060J0D01*
G01*
X162402545Y-128838818D02*
G75*
G02*
X164702665Y-128838818I1150060J0D01*
G01*
X330354752Y-193977243D02*
X349658435Y-188804886D01*
X372451963Y-126664407D02*
X361763522Y-129525146D01*
X278035885Y-206394717D02*
X258147468Y-211723804D01*
X56482493Y-129525145D02*
X45794053Y-126664404D01*
X40891948Y-129491994D02*
G75*
G02*
X45794053Y-126664403I3863682J-1035236D01*
G01*
X330354752Y-193977243D02*
X326605259Y-191806971D01*
X65405402Y-169771323D02*
G75*
G02*
X68233781Y-174670289I-1035302J-3863677D01*
G01*
X124586850Y-200634852D02*
X123527816Y-198798184D01*
X49478891Y-155675444D02*
G75*
G02*
X52307251Y-160574409I-1035291J-3863656D01*
G01*
X341715805Y-85576773D02*
G75*
G02*
X346617909Y-88404363I1038595J-3862527D01*
G01*
X372451963Y-126664407D02*
G75*
G02*
X377354078Y-129491989I1038337J-3862993D01*
G01*
X366325240Y-162017024D02*
G75*
G02*
X363493676Y-166916816I-3863840J-1035176D01*
G01*
X294718200Y-198798184D02*
X293659167Y-200634854D01*
X289201640Y-94947329D02*
X304666114Y-90803636D01*
X61381469Y-126696715D02*
G75*
G02*
X56482492Y-129525147I-3863729J1035315D01*
G01*
X187716633Y-112220549D02*
X173194986Y-108330365D01*
X352489985Y-183905070D02*
G75*
G02*
X349658417Y-188804818I-3863685J-1035230D01*
G01*
X326605259Y-191806971D02*
X312056775Y-195705230D01*
X90332664Y-111987067D02*
G75*
G02*
X88032546Y-111987067I-1150059J0D01*
G01*
X88032546Y-111987067D02*
G75*
G02*
X90332664Y-111987067I1150059J0D01*
G01*
X91640757Y-191806971D02*
X87891263Y-193977244D01*
X341715805Y-85576773D02*
X327181042Y-89481284D01*
X241586897Y-221139319D02*
G75*
G02*
X258147477Y-211723823I29295003J-32254281D01*
G01*
X382285506Y-147908886D02*
X377354069Y-129491991D01*
X365938699Y-160574427D02*
G75*
G02*
X368767115Y-155675407I3863501J1035427D01*
G01*
X352489985Y-183905070D02*
X350012186Y-174670300D01*
X350012186Y-174670300D02*
G75*
G02*
X352840601Y-169771286I3863714J1035300D01*
G01*
X40891948Y-129491994D02*
X35960509Y-147908883D01*
X382285506Y-147908886D02*
G75*
G02*
X379453933Y-152808630I-3863706J-1035214D01*
G01*
X71628104Y-88404365D02*
G75*
G02*
X76530212Y-85576757I3863696J-1035235D01*
G01*
M02*
