G04 #@! TF.GenerationSoftware,KiCad,Pcbnew,8.0.2*
G04 #@! TF.CreationDate,2024-06-03T01:20:00+01:00*
G04 #@! TF.ProjectId,Ashwing66_baseplate,41736877-696e-4673-9636-5f6261736570,1*
G04 #@! TF.SameCoordinates,Original*
G04 #@! TF.FileFunction,Legend,Top*
G04 #@! TF.FilePolarity,Positive*
%FSLAX46Y46*%
G04 Gerber Fmt 4.6, Leading zero omitted, Abs format (unit mm)*
G04 Created by KiCad (PCBNEW 8.0.2) date 2024-06-03 01:20:00*
%MOMM*%
%LPD*%
G01*
G04 APERTURE LIST*
%ADD10C,0.074930*%
%ADD11C,4.000000*%
G04 APERTURE END LIST*
D10*
X182019458Y-188735028D02*
X182190727Y-188735028D01*
X182105093Y-189034748D02*
X182105093Y-188735028D01*
X182290633Y-189034748D02*
X182290633Y-188735028D01*
X182290633Y-188877752D02*
X182461902Y-188877752D01*
X182461902Y-189034748D02*
X182461902Y-188735028D01*
X182576081Y-188735028D02*
X182761622Y-188735028D01*
X182761622Y-188735028D02*
X182661715Y-188849207D01*
X182661715Y-188849207D02*
X182704532Y-188849207D01*
X182704532Y-188849207D02*
X182733077Y-188863479D01*
X182733077Y-188863479D02*
X182747349Y-188877752D01*
X182747349Y-188877752D02*
X182761622Y-188906296D01*
X182761622Y-188906296D02*
X182761622Y-188977658D01*
X182761622Y-188977658D02*
X182747349Y-189006203D01*
X182747349Y-189006203D02*
X182733077Y-189020476D01*
X182733077Y-189020476D02*
X182704532Y-189034748D01*
X182704532Y-189034748D02*
X182618898Y-189034748D01*
X182618898Y-189034748D02*
X182590353Y-189020476D01*
X182590353Y-189020476D02*
X182576081Y-189006203D01*
X181905280Y-194114748D02*
X181905280Y-193815028D01*
X181905280Y-193957752D02*
X182076549Y-193957752D01*
X182076549Y-194114748D02*
X182076549Y-193815028D01*
X182276362Y-193815028D02*
X182333451Y-193815028D01*
X182333451Y-193815028D02*
X182361996Y-193829300D01*
X182361996Y-193829300D02*
X182390541Y-193857845D01*
X182390541Y-193857845D02*
X182404813Y-193914935D01*
X182404813Y-193914935D02*
X182404813Y-194014841D01*
X182404813Y-194014841D02*
X182390541Y-194071931D01*
X182390541Y-194071931D02*
X182361996Y-194100476D01*
X182361996Y-194100476D02*
X182333451Y-194114748D01*
X182333451Y-194114748D02*
X182276362Y-194114748D01*
X182276362Y-194114748D02*
X182247817Y-194100476D01*
X182247817Y-194100476D02*
X182219272Y-194071931D01*
X182219272Y-194071931D02*
X182205000Y-194014841D01*
X182205000Y-194014841D02*
X182205000Y-193914935D01*
X182205000Y-193914935D02*
X182219272Y-193857845D01*
X182219272Y-193857845D02*
X182247817Y-193829300D01*
X182247817Y-193829300D02*
X182276362Y-193815028D01*
X182675988Y-194114748D02*
X182533264Y-194114748D01*
X182533264Y-194114748D02*
X182533264Y-193815028D01*
X182775894Y-193957752D02*
X182875801Y-193957752D01*
X182918618Y-194114748D02*
X182775894Y-194114748D01*
X182775894Y-194114748D02*
X182775894Y-193815028D01*
X182775894Y-193815028D02*
X182918618Y-193815028D01*
X151628705Y-184215317D02*
X151799974Y-184215317D01*
X151714340Y-184515037D02*
X151714340Y-184215317D01*
X151899880Y-184515037D02*
X151899880Y-184215317D01*
X151899880Y-184358041D02*
X152071149Y-184358041D01*
X152071149Y-184515037D02*
X152071149Y-184215317D01*
X152185328Y-184215317D02*
X152370869Y-184215317D01*
X152370869Y-184215317D02*
X152270962Y-184329496D01*
X152270962Y-184329496D02*
X152313779Y-184329496D01*
X152313779Y-184329496D02*
X152342324Y-184343768D01*
X152342324Y-184343768D02*
X152356596Y-184358041D01*
X152356596Y-184358041D02*
X152370869Y-184386585D01*
X152370869Y-184386585D02*
X152370869Y-184457947D01*
X152370869Y-184457947D02*
X152356596Y-184486492D01*
X152356596Y-184486492D02*
X152342324Y-184500765D01*
X152342324Y-184500765D02*
X152313779Y-184515037D01*
X152313779Y-184515037D02*
X152228145Y-184515037D01*
X152228145Y-184515037D02*
X152199600Y-184500765D01*
X152199600Y-184500765D02*
X152185328Y-184486492D01*
X151514527Y-189595037D02*
X151514527Y-189295317D01*
X151514527Y-189438041D02*
X151685796Y-189438041D01*
X151685796Y-189595037D02*
X151685796Y-189295317D01*
X151885609Y-189295317D02*
X151942698Y-189295317D01*
X151942698Y-189295317D02*
X151971243Y-189309589D01*
X151971243Y-189309589D02*
X151999788Y-189338134D01*
X151999788Y-189338134D02*
X152014060Y-189395224D01*
X152014060Y-189395224D02*
X152014060Y-189495130D01*
X152014060Y-189495130D02*
X151999788Y-189552220D01*
X151999788Y-189552220D02*
X151971243Y-189580765D01*
X151971243Y-189580765D02*
X151942698Y-189595037D01*
X151942698Y-189595037D02*
X151885609Y-189595037D01*
X151885609Y-189595037D02*
X151857064Y-189580765D01*
X151857064Y-189580765D02*
X151828519Y-189552220D01*
X151828519Y-189552220D02*
X151814247Y-189495130D01*
X151814247Y-189495130D02*
X151814247Y-189395224D01*
X151814247Y-189395224D02*
X151828519Y-189338134D01*
X151828519Y-189338134D02*
X151857064Y-189309589D01*
X151857064Y-189309589D02*
X151885609Y-189295317D01*
X152285235Y-189595037D02*
X152142511Y-189595037D01*
X152142511Y-189595037D02*
X152142511Y-189295317D01*
X152385141Y-189438041D02*
X152485048Y-189438041D01*
X152527865Y-189595037D02*
X152385141Y-189595037D01*
X152385141Y-189595037D02*
X152385141Y-189295317D01*
X152385141Y-189295317D02*
X152527865Y-189295317D01*
X166433154Y-128964361D02*
X166604423Y-128964361D01*
X166518789Y-129264081D02*
X166518789Y-128964361D01*
X166704329Y-129264081D02*
X166704329Y-128964361D01*
X166704329Y-129107085D02*
X166875598Y-129107085D01*
X166875598Y-129264081D02*
X166875598Y-128964361D01*
X166989777Y-128964361D02*
X167175318Y-128964361D01*
X167175318Y-128964361D02*
X167075411Y-129078540D01*
X167075411Y-129078540D02*
X167118228Y-129078540D01*
X167118228Y-129078540D02*
X167146773Y-129092812D01*
X167146773Y-129092812D02*
X167161045Y-129107085D01*
X167161045Y-129107085D02*
X167175318Y-129135629D01*
X167175318Y-129135629D02*
X167175318Y-129206991D01*
X167175318Y-129206991D02*
X167161045Y-129235536D01*
X167161045Y-129235536D02*
X167146773Y-129249809D01*
X167146773Y-129249809D02*
X167118228Y-129264081D01*
X167118228Y-129264081D02*
X167032594Y-129264081D01*
X167032594Y-129264081D02*
X167004049Y-129249809D01*
X167004049Y-129249809D02*
X166989777Y-129235536D01*
X166318976Y-134344081D02*
X166318976Y-134044361D01*
X166318976Y-134187085D02*
X166490245Y-134187085D01*
X166490245Y-134344081D02*
X166490245Y-134044361D01*
X166690058Y-134044361D02*
X166747147Y-134044361D01*
X166747147Y-134044361D02*
X166775692Y-134058633D01*
X166775692Y-134058633D02*
X166804237Y-134087178D01*
X166804237Y-134087178D02*
X166818509Y-134144268D01*
X166818509Y-134144268D02*
X166818509Y-134244174D01*
X166818509Y-134244174D02*
X166804237Y-134301264D01*
X166804237Y-134301264D02*
X166775692Y-134329809D01*
X166775692Y-134329809D02*
X166747147Y-134344081D01*
X166747147Y-134344081D02*
X166690058Y-134344081D01*
X166690058Y-134344081D02*
X166661513Y-134329809D01*
X166661513Y-134329809D02*
X166632968Y-134301264D01*
X166632968Y-134301264D02*
X166618696Y-134244174D01*
X166618696Y-134244174D02*
X166618696Y-134144268D01*
X166618696Y-134144268D02*
X166632968Y-134087178D01*
X166632968Y-134087178D02*
X166661513Y-134058633D01*
X166661513Y-134058633D02*
X166690058Y-134044361D01*
X167089684Y-134344081D02*
X166946960Y-134344081D01*
X166946960Y-134344081D02*
X166946960Y-134044361D01*
X167189590Y-134187085D02*
X167289497Y-134187085D01*
X167332314Y-134344081D02*
X167189590Y-134344081D01*
X167189590Y-134344081D02*
X167189590Y-134044361D01*
X167189590Y-134044361D02*
X167332314Y-134044361D01*
X92059620Y-112115978D02*
X92230889Y-112115978D01*
X92145255Y-112415698D02*
X92145255Y-112115978D01*
X92330795Y-112415698D02*
X92330795Y-112115978D01*
X92330795Y-112258702D02*
X92502064Y-112258702D01*
X92502064Y-112415698D02*
X92502064Y-112115978D01*
X92616243Y-112115978D02*
X92801784Y-112115978D01*
X92801784Y-112115978D02*
X92701877Y-112230157D01*
X92701877Y-112230157D02*
X92744694Y-112230157D01*
X92744694Y-112230157D02*
X92773239Y-112244429D01*
X92773239Y-112244429D02*
X92787511Y-112258702D01*
X92787511Y-112258702D02*
X92801784Y-112287246D01*
X92801784Y-112287246D02*
X92801784Y-112358608D01*
X92801784Y-112358608D02*
X92787511Y-112387153D01*
X92787511Y-112387153D02*
X92773239Y-112401426D01*
X92773239Y-112401426D02*
X92744694Y-112415698D01*
X92744694Y-112415698D02*
X92659060Y-112415698D01*
X92659060Y-112415698D02*
X92630515Y-112401426D01*
X92630515Y-112401426D02*
X92616243Y-112387153D01*
X91945442Y-117495698D02*
X91945442Y-117195978D01*
X91945442Y-117338702D02*
X92116711Y-117338702D01*
X92116711Y-117495698D02*
X92116711Y-117195978D01*
X92316524Y-117195978D02*
X92373613Y-117195978D01*
X92373613Y-117195978D02*
X92402158Y-117210250D01*
X92402158Y-117210250D02*
X92430703Y-117238795D01*
X92430703Y-117238795D02*
X92444975Y-117295885D01*
X92444975Y-117295885D02*
X92444975Y-117395791D01*
X92444975Y-117395791D02*
X92430703Y-117452881D01*
X92430703Y-117452881D02*
X92402158Y-117481426D01*
X92402158Y-117481426D02*
X92373613Y-117495698D01*
X92373613Y-117495698D02*
X92316524Y-117495698D01*
X92316524Y-117495698D02*
X92287979Y-117481426D01*
X92287979Y-117481426D02*
X92259434Y-117452881D01*
X92259434Y-117452881D02*
X92245162Y-117395791D01*
X92245162Y-117395791D02*
X92245162Y-117295885D01*
X92245162Y-117295885D02*
X92259434Y-117238795D01*
X92259434Y-117238795D02*
X92287979Y-117210250D01*
X92287979Y-117210250D02*
X92316524Y-117195978D01*
X92716150Y-117495698D02*
X92573426Y-117495698D01*
X92573426Y-117495698D02*
X92573426Y-117195978D01*
X92816056Y-117338702D02*
X92915963Y-117338702D01*
X92958780Y-117495698D02*
X92816056Y-117495698D01*
X92816056Y-117495698D02*
X92816056Y-117195978D01*
X92816056Y-117195978D02*
X92958780Y-117195978D01*
X77255171Y-167366935D02*
X77426440Y-167366935D01*
X77340806Y-167666655D02*
X77340806Y-167366935D01*
X77526346Y-167666655D02*
X77526346Y-167366935D01*
X77526346Y-167509659D02*
X77697615Y-167509659D01*
X77697615Y-167666655D02*
X77697615Y-167366935D01*
X77811794Y-167366935D02*
X77997335Y-167366935D01*
X77997335Y-167366935D02*
X77897428Y-167481114D01*
X77897428Y-167481114D02*
X77940245Y-167481114D01*
X77940245Y-167481114D02*
X77968790Y-167495386D01*
X77968790Y-167495386D02*
X77983062Y-167509659D01*
X77983062Y-167509659D02*
X77997335Y-167538203D01*
X77997335Y-167538203D02*
X77997335Y-167609565D01*
X77997335Y-167609565D02*
X77983062Y-167638110D01*
X77983062Y-167638110D02*
X77968790Y-167652383D01*
X77968790Y-167652383D02*
X77940245Y-167666655D01*
X77940245Y-167666655D02*
X77854611Y-167666655D01*
X77854611Y-167666655D02*
X77826066Y-167652383D01*
X77826066Y-167652383D02*
X77811794Y-167638110D01*
X77140993Y-172746655D02*
X77140993Y-172446935D01*
X77140993Y-172589659D02*
X77312262Y-172589659D01*
X77312262Y-172746655D02*
X77312262Y-172446935D01*
X77512075Y-172446935D02*
X77569164Y-172446935D01*
X77569164Y-172446935D02*
X77597709Y-172461207D01*
X77597709Y-172461207D02*
X77626254Y-172489752D01*
X77626254Y-172489752D02*
X77640526Y-172546842D01*
X77640526Y-172546842D02*
X77640526Y-172646748D01*
X77640526Y-172646748D02*
X77626254Y-172703838D01*
X77626254Y-172703838D02*
X77597709Y-172732383D01*
X77597709Y-172732383D02*
X77569164Y-172746655D01*
X77569164Y-172746655D02*
X77512075Y-172746655D01*
X77512075Y-172746655D02*
X77483530Y-172732383D01*
X77483530Y-172732383D02*
X77454985Y-172703838D01*
X77454985Y-172703838D02*
X77440713Y-172646748D01*
X77440713Y-172646748D02*
X77440713Y-172546842D01*
X77440713Y-172546842D02*
X77454985Y-172489752D01*
X77454985Y-172489752D02*
X77483530Y-172461207D01*
X77483530Y-172461207D02*
X77512075Y-172446935D01*
X77911701Y-172746655D02*
X77768977Y-172746655D01*
X77768977Y-172746655D02*
X77768977Y-172446935D01*
X78011607Y-172589659D02*
X78111514Y-172589659D01*
X78154331Y-172746655D02*
X78011607Y-172746655D01*
X78011607Y-172746655D02*
X78011607Y-172446935D01*
X78011607Y-172446935D02*
X78154331Y-172446935D01*
%LPC*%
D11*
X182412813Y-191449989D03*
X152022060Y-186930278D03*
X166826509Y-131679322D03*
X92452975Y-114830939D03*
X77648526Y-170081896D03*
X347204984Y-170154664D03*
X258026999Y-131752090D03*
X332400534Y-114903706D03*
X242440696Y-191522758D03*
X272831448Y-187003047D03*
%LPD*%
M02*
