G04 #@! TF.GenerationSoftware,KiCad,Pcbnew,8.0.2*
G04 #@! TF.CreationDate,2024-05-24T22:26:47+01:00*
G04 #@! TF.ProjectId,Phoenixia3,50686f65-6e69-4786-9961-332e6b696361,1*
G04 #@! TF.SameCoordinates,Original*
G04 #@! TF.FileFunction,Soldermask,Bot*
G04 #@! TF.FilePolarity,Negative*
%FSLAX46Y46*%
G04 Gerber Fmt 4.6, Leading zero omitted, Abs format (unit mm)*
G04 Created by KiCad (PCBNEW 8.0.2) date 2024-05-24 22:26:47*
%MOMM*%
%LPD*%
G01*
G04 APERTURE LIST*
G04 Aperture macros list*
%AMRoundRect*
0 Rectangle with rounded corners*
0 $1 Rounding radius*
0 $2 $3 $4 $5 $6 $7 $8 $9 X,Y pos of 4 corners*
0 Add a 4 corners polygon primitive as box body*
4,1,4,$2,$3,$4,$5,$6,$7,$8,$9,$2,$3,0*
0 Add four circle primitives for the rounded corners*
1,1,$1+$1,$2,$3*
1,1,$1+$1,$4,$5*
1,1,$1+$1,$6,$7*
1,1,$1+$1,$8,$9*
0 Add four rect primitives between the rounded corners*
20,1,$1+$1,$2,$3,$4,$5,0*
20,1,$1+$1,$4,$5,$6,$7,0*
20,1,$1+$1,$6,$7,$8,$9,0*
20,1,$1+$1,$8,$9,$2,$3,0*%
%AMHorizOval*
0 Thick line with rounded ends*
0 $1 width*
0 $2 $3 position (X,Y) of the first rounded end (center of the circle)*
0 $4 $5 position (X,Y) of the second rounded end (center of the circle)*
0 Add line between two ends*
20,1,$1,$2,$3,$4,$5,0*
0 Add two circle primitives to create the rounded ends*
1,1,$1,$2,$3*
1,1,$1,$4,$5*%
G04 Aperture macros list end*
%ADD10C,1.700000*%
%ADD11C,1.750000*%
%ADD12C,4.000000*%
%ADD13C,2.250000*%
%ADD14C,2.000000*%
%ADD15HorizOval,2.250000X0.000000X0.000000X0.000000X0.000000X0*%
%ADD16HorizOval,2.250000X0.000000X0.000000X0.000000X0.000000X0*%
%ADD17RoundRect,0.082000X0.608642X-0.502656X0.778427X0.130992X-0.608642X0.502656X-0.778427X-0.130992X0*%
%ADD18RoundRect,0.082000X0.778427X-0.130992X0.608642X0.502656X-0.778427X0.130992X-0.608642X-0.502656X0*%
%ADD19C,4.400000*%
%ADD20HorizOval,2.250000X0.000000X0.000000X0.000000X0.000000X0*%
%ADD21HorizOval,2.250000X0.000000X0.000000X0.000000X0.000000X0*%
%ADD22O,1.700000X1.700000*%
%ADD23R,1.700000X1.700000*%
%ADD24HorizOval,2.250000X0.000000X0.000000X0.000000X0.000000X0*%
%ADD25HorizOval,2.250000X0.000000X0.000000X0.000000X0.000000X0*%
%ADD26RoundRect,0.250000X-0.212132X0.367423X-0.367423X-0.212132X0.212132X-0.367423X0.367423X0.212132X0*%
%ADD27RoundRect,0.250000X-0.367423X0.212132X-0.212132X-0.367423X0.367423X-0.212132X0.212132X0.367423X0*%
%ADD28RoundRect,0.250000X-0.409808X0.109808X-0.109808X-0.409808X0.409808X-0.109808X0.109808X0.409808X0*%
%ADD29RoundRect,0.250000X-0.424264X0.000000X0.000000X-0.424264X0.424264X0.000000X0.000000X0.424264X0*%
%ADD30RoundRect,0.250000X-0.109808X0.409808X-0.409808X-0.109808X0.109808X-0.409808X0.409808X0.109808X0*%
%ADD31RoundRect,0.250000X0.000000X0.424264X-0.424264X0.000000X0.000000X-0.424264X0.424264X0.000000X0*%
G04 APERTURE END LIST*
D10*
X230100273Y-167114780D03*
D11*
X230505964Y-167006076D03*
D12*
X235412863Y-165691276D03*
D11*
X240319770Y-164376474D03*
D10*
X240725451Y-164267772D03*
D13*
X236551516Y-160126972D03*
D14*
X239258980Y-160726665D03*
D15*
X231075288Y-164223926D03*
D14*
X233885834Y-159992314D03*
D10*
X79112799Y-150283346D03*
D11*
X79518489Y-150392051D03*
D12*
X84425389Y-151706850D03*
D11*
X89332296Y-153021652D03*
D10*
X89737976Y-153130355D03*
D13*
X88193643Y-147457348D03*
D14*
X90238530Y-149330429D03*
D16*
X81402613Y-148267298D03*
D14*
X85952424Y-146007889D03*
D10*
X324965938Y-153132306D03*
D11*
X325371629Y-153023602D03*
D12*
X330278528Y-151708802D03*
D11*
X335185435Y-150394000D03*
D10*
X335591116Y-150285298D03*
D13*
X331417181Y-146144498D03*
D14*
X334124645Y-146744191D03*
D15*
X325940953Y-150241452D03*
D14*
X328751499Y-146009840D03*
D10*
X241109786Y-134566556D03*
D11*
X241515477Y-134457852D03*
D12*
X246422376Y-133143052D03*
D11*
X251329283Y-131828250D03*
D10*
X251734964Y-131719548D03*
D13*
X247561029Y-127578748D03*
D14*
X250268493Y-128178441D03*
D15*
X242084801Y-131675702D03*
D14*
X244895347Y-127444090D03*
D10*
X315104927Y-116330536D03*
D11*
X315510618Y-116221832D03*
D12*
X320417517Y-114907032D03*
D11*
X325324424Y-113592230D03*
D10*
X325730105Y-113483528D03*
D13*
X321556170Y-109342728D03*
D14*
X324263634Y-109942421D03*
D15*
X316079942Y-113439682D03*
D14*
X318890488Y-109208070D03*
D10*
X310706671Y-173519549D03*
D11*
X311112362Y-173410845D03*
D12*
X316019261Y-172096045D03*
D11*
X320926168Y-170781243D03*
D10*
X321331849Y-170672541D03*
D13*
X317157914Y-166531741D03*
D14*
X319865378Y-167131434D03*
D15*
X311681686Y-170628695D03*
D14*
X314492232Y-166397083D03*
D10*
X84043304Y-131882451D03*
D11*
X84448994Y-131991156D03*
D12*
X89355894Y-133305955D03*
D11*
X94262801Y-134620757D03*
D10*
X94668481Y-134729460D03*
D13*
X93124148Y-129056453D03*
D14*
X95169035Y-130929534D03*
D16*
X86333118Y-129866403D03*
D14*
X90882929Y-127606994D03*
D10*
X70184360Y-110001208D03*
D11*
X70590049Y-110109913D03*
D12*
X75496950Y-111424712D03*
D11*
X80403857Y-112739514D03*
D10*
X80809540Y-112848217D03*
D13*
X79265204Y-107175210D03*
D14*
X81310090Y-109048291D03*
D16*
X72474174Y-107985162D03*
D14*
X77023985Y-105725751D03*
D10*
X103251913Y-133847570D03*
D11*
X103657603Y-133956275D03*
D12*
X108564503Y-135271074D03*
D11*
X113471410Y-136585876D03*
D10*
X113877090Y-136694579D03*
D13*
X112332757Y-131021572D03*
D14*
X114377644Y-132894653D03*
D16*
X105541727Y-131831522D03*
D14*
X110091538Y-129572113D03*
D10*
X75124283Y-91589693D03*
D11*
X75529972Y-91698398D03*
D12*
X80436873Y-93013197D03*
D11*
X85343780Y-94327999D03*
D10*
X85749463Y-94436702D03*
D13*
X84205127Y-88763695D03*
D17*
X81435831Y-99311351D03*
D14*
X86250013Y-90636776D03*
D16*
X77414097Y-89573648D03*
D14*
X81963908Y-87314236D03*
D17*
X81824060Y-97862462D03*
X76801246Y-96516602D03*
X76413017Y-97965492D03*
D10*
X328963882Y-94449285D03*
D11*
X329369573Y-94340581D03*
D12*
X334276472Y-93025781D03*
D11*
X339183379Y-91710979D03*
D10*
X339589062Y-91602275D03*
D13*
X335415125Y-87461477D03*
D18*
X338290674Y-97980665D03*
D14*
X338122589Y-88061170D03*
D15*
X329938897Y-91558431D03*
D14*
X332749443Y-87326819D03*
D18*
X337902444Y-96531778D03*
X332879630Y-97877634D03*
X333267858Y-99326522D03*
D10*
X112167395Y-174129012D03*
D11*
X112573085Y-174237717D03*
D12*
X117479985Y-175552516D03*
D11*
X122386892Y-176867318D03*
D10*
X122792572Y-176976021D03*
D13*
X121248239Y-171303014D03*
D14*
X123293126Y-173176095D03*
D16*
X114457209Y-172112964D03*
D14*
X119007020Y-169853555D03*
D10*
X140044267Y-143719198D03*
D11*
X140449957Y-143827903D03*
D12*
X145356857Y-145142702D03*
D11*
X150263764Y-146457504D03*
D10*
X150669444Y-146566207D03*
D13*
X149125111Y-140893200D03*
D14*
X151169998Y-142766281D03*
D16*
X142334081Y-141703150D03*
D14*
X146883892Y-139443741D03*
D10*
X236179287Y-116165679D03*
D11*
X236584978Y-116056975D03*
D12*
X241491877Y-114742175D03*
D11*
X246398784Y-113427373D03*
D10*
X246804467Y-113318669D03*
D13*
X242630530Y-109177871D03*
D18*
X245506079Y-119697059D03*
D14*
X245337994Y-109777564D03*
D15*
X237154302Y-113274825D03*
D14*
X239964848Y-109043213D03*
D18*
X245117849Y-118248172D03*
X240095035Y-119594028D03*
X240483263Y-121042916D03*
D10*
X310171586Y-97943560D03*
D11*
X310577277Y-97834856D03*
D12*
X315484176Y-96520056D03*
D11*
X320391083Y-95205254D03*
D10*
X320796766Y-95096550D03*
D13*
X316622829Y-90955752D03*
D18*
X319498378Y-101474940D03*
D14*
X319330293Y-91555445D03*
D15*
X311146601Y-95052706D03*
D14*
X313957147Y-90821094D03*
D18*
X319110148Y-100026053D03*
X314087334Y-101371909D03*
X314475562Y-102820797D03*
D19*
X65583559Y-178193861D03*
D10*
X333894387Y-112850171D03*
D11*
X334300078Y-112741467D03*
D12*
X339206977Y-111426667D03*
D11*
X344113884Y-110111865D03*
D10*
X344519565Y-110003163D03*
D13*
X340345630Y-105862363D03*
D14*
X343053094Y-106462056D03*
D15*
X334869402Y-109959317D03*
D14*
X337679948Y-105727705D03*
D10*
X135123179Y-162109454D03*
D11*
X135528869Y-162218159D03*
D12*
X140435769Y-163532958D03*
D11*
X145342676Y-164847760D03*
D10*
X145748356Y-164956463D03*
D13*
X144204023Y-159283456D03*
D14*
X146248910Y-161156537D03*
D16*
X137412993Y-160093406D03*
D14*
X141962804Y-157833997D03*
D10*
X186549840Y-205869164D03*
D11*
X186846826Y-206166150D03*
D12*
X190438926Y-209758250D03*
D11*
X194031031Y-213350355D03*
D10*
X194328010Y-213647336D03*
D13*
X195827081Y-207962200D03*
D14*
X196661466Y-210606778D03*
D20*
X189540901Y-205268124D03*
D14*
X194610858Y-205586322D03*
D10*
X273904899Y-183380562D03*
D11*
X274310590Y-183271858D03*
D12*
X279217489Y-181957058D03*
D11*
X284124396Y-180642256D03*
D10*
X284530077Y-180533554D03*
D13*
X280356142Y-176392754D03*
D14*
X283063606Y-176992447D03*
D15*
X274879914Y-180489708D03*
D14*
X277690460Y-176258096D03*
D10*
X359689314Y-135528704D03*
D11*
X360095005Y-135420000D03*
D12*
X365001904Y-134105200D03*
D11*
X369908811Y-132790398D03*
D10*
X370314492Y-132681696D03*
D13*
X366140557Y-128540896D03*
D14*
X368848021Y-129140589D03*
D15*
X360664329Y-132637850D03*
D14*
X363474875Y-128406238D03*
D10*
X158060134Y-150111142D03*
D11*
X158465824Y-150219847D03*
D12*
X163372724Y-151534646D03*
D11*
X168279631Y-152849448D03*
D10*
X168685311Y-152958151D03*
D13*
X167140978Y-147285144D03*
D14*
X169185865Y-149158225D03*
D16*
X160349948Y-148095094D03*
D14*
X164899759Y-145835685D03*
D10*
X259113389Y-128177901D03*
D11*
X259519080Y-128069197D03*
D12*
X264425979Y-126754397D03*
D11*
X269332886Y-125439595D03*
D10*
X269738567Y-125330893D03*
D13*
X265564632Y-121190093D03*
D14*
X268272096Y-121789786D03*
D15*
X260088404Y-125287047D03*
D14*
X262898950Y-121055435D03*
D10*
X268977246Y-164965763D03*
D11*
X269382937Y-164857059D03*
D12*
X274289836Y-163542259D03*
D11*
X279196743Y-162227457D03*
D10*
X279602424Y-162118755D03*
D13*
X275428489Y-157977955D03*
D14*
X278135953Y-158577648D03*
D15*
X269952261Y-162074909D03*
D14*
X272762807Y-157843297D03*
D10*
X246040289Y-152967447D03*
D11*
X246445980Y-152858743D03*
D12*
X251352879Y-151543943D03*
D11*
X256259786Y-150229141D03*
D10*
X256665467Y-150120439D03*
D13*
X252491532Y-145979639D03*
D14*
X255198996Y-146579332D03*
D15*
X247015304Y-150076593D03*
D14*
X249825850Y-145844981D03*
D10*
X144984189Y-125307686D03*
D11*
X145389879Y-125416391D03*
D12*
X150296779Y-126731190D03*
D11*
X155203686Y-128045992D03*
D10*
X155609366Y-128154695D03*
D13*
X154065033Y-122481688D03*
D14*
X156109920Y-124354769D03*
D16*
X147274003Y-123291638D03*
D14*
X151823814Y-121032229D03*
D10*
X174004285Y-164246626D03*
D11*
X174409975Y-164355331D03*
D12*
X179316875Y-165670130D03*
D11*
X184223782Y-166984932D03*
D10*
X184629462Y-167093635D03*
D13*
X183085129Y-161420628D03*
D14*
X185130016Y-163293709D03*
D16*
X176294099Y-162230578D03*
D14*
X180843910Y-159971169D03*
D10*
X162990639Y-131710260D03*
D11*
X163396329Y-131818965D03*
D12*
X168303229Y-133133764D03*
D11*
X173210136Y-134448566D03*
D10*
X173615816Y-134557269D03*
D13*
X172071483Y-128884262D03*
D14*
X174116370Y-130757343D03*
D16*
X165280453Y-129694212D03*
D14*
X169830264Y-127434803D03*
D10*
X286980841Y-158577096D03*
D11*
X287386532Y-158468392D03*
D12*
X292293431Y-157153592D03*
D11*
X297200338Y-155838790D03*
D10*
X297606019Y-155730088D03*
D13*
X293432084Y-151589288D03*
D14*
X296139548Y-152188981D03*
D15*
X287955856Y-155686242D03*
D14*
X290766402Y-151454630D03*
D10*
X291908500Y-176991897D03*
D11*
X292314191Y-176883193D03*
D12*
X297221090Y-175568393D03*
D11*
X302127997Y-174253591D03*
D10*
X302533678Y-174144889D03*
D13*
X298359743Y-170004089D03*
D14*
X301067207Y-170603782D03*
D15*
X292883515Y-174101043D03*
D14*
X295694061Y-169869431D03*
D10*
X168615920Y-193815568D03*
D11*
X168979652Y-194025569D03*
D12*
X173379058Y-196565567D03*
D11*
X177778470Y-199105569D03*
D10*
X178142193Y-199315566D03*
D13*
X178118764Y-193436159D03*
D14*
X179609184Y-195774672D03*
D21*
X171349502Y-192460864D03*
D14*
X176329060Y-191456019D03*
D10*
X250967954Y-171382249D03*
D11*
X251373645Y-171273545D03*
D12*
X256280544Y-169958745D03*
D11*
X261187451Y-168643943D03*
D10*
X261593132Y-168535241D03*
D13*
X257419197Y-164394441D03*
D14*
X260126661Y-164994134D03*
D15*
X251942969Y-168491395D03*
D14*
X254753515Y-164259783D03*
D10*
X148199131Y-186912918D03*
D11*
X148604821Y-187021623D03*
D12*
X153511721Y-188336422D03*
D11*
X158418628Y-189651224D03*
D10*
X158824308Y-189759927D03*
D13*
X157279975Y-184086920D03*
D14*
X159324862Y-185960001D03*
D16*
X150488945Y-184896870D03*
D14*
X155038756Y-182637461D03*
D10*
X277119842Y-121775328D03*
D11*
X277525533Y-121666624D03*
D12*
X282432432Y-120351824D03*
D11*
X287339339Y-119037022D03*
D10*
X287745020Y-118928320D03*
D13*
X283571085Y-114787520D03*
D14*
X286278549Y-115387213D03*
D15*
X278094857Y-118884474D03*
D14*
X280905403Y-114652862D03*
D10*
X108173000Y-115457300D03*
D11*
X108578690Y-115566005D03*
D12*
X113485590Y-116880804D03*
D11*
X118392497Y-118195606D03*
D10*
X118798177Y-118304309D03*
D13*
X117253844Y-112631302D03*
D14*
X119298731Y-114504383D03*
D16*
X110462814Y-113441252D03*
D14*
X115012625Y-111181843D03*
D10*
X149914693Y-106906801D03*
D11*
X150320383Y-107015506D03*
D12*
X155227283Y-108330305D03*
D11*
X160134190Y-109645107D03*
D10*
X160539874Y-109753807D03*
D13*
X158995537Y-104080803D03*
D17*
X156226242Y-114628460D03*
D14*
X161040423Y-105953884D03*
D16*
X152204507Y-104890755D03*
D14*
X156754318Y-102631344D03*
D17*
X156614468Y-113179574D03*
X151591654Y-111833713D03*
X151203427Y-113282600D03*
D10*
X74182297Y-168684225D03*
D11*
X74587987Y-168792930D03*
D12*
X79494887Y-170107729D03*
D11*
X84401794Y-171422531D03*
D10*
X84807474Y-171531234D03*
D13*
X83263141Y-165858227D03*
D14*
X85308028Y-167731308D03*
D16*
X76472111Y-166668177D03*
D14*
X81021922Y-164408768D03*
D10*
X343755394Y-149651950D03*
D11*
X344161085Y-149543246D03*
D12*
X349067984Y-148228446D03*
D11*
X353974891Y-146913644D03*
D10*
X354380572Y-146804942D03*
D13*
X350206637Y-142664142D03*
D14*
X352914101Y-143263835D03*
D15*
X344730409Y-146761096D03*
D14*
X347540955Y-142529484D03*
D19*
X207383559Y-234693862D03*
D10*
X320032586Y-134745328D03*
D11*
X320438277Y-134636624D03*
D12*
X325345176Y-133321824D03*
D11*
X330252083Y-132007022D03*
D10*
X330657764Y-131898320D03*
D13*
X326483829Y-127757520D03*
D14*
X329191293Y-128357213D03*
D15*
X321007601Y-131854474D03*
D14*
X323818147Y-127622862D03*
D10*
X117097895Y-155728132D03*
D11*
X117503585Y-155836837D03*
D12*
X122410485Y-157151636D03*
D11*
X127317392Y-158466438D03*
D10*
X127723072Y-158575141D03*
D13*
X126178739Y-152902134D03*
D14*
X128223626Y-154775215D03*
D16*
X119387709Y-153712084D03*
D14*
X123937520Y-151452675D03*
D10*
X113103496Y-97056420D03*
D11*
X113509186Y-97165125D03*
D12*
X118416086Y-98479924D03*
D11*
X123322993Y-99794726D03*
D10*
X123728677Y-99903426D03*
D13*
X122184340Y-94230422D03*
D17*
X119415045Y-104778079D03*
D14*
X124229226Y-96103503D03*
D16*
X115393310Y-95040374D03*
D14*
X119943121Y-92780963D03*
D17*
X119803271Y-103329193D03*
X114780457Y-101983332D03*
X114392230Y-103432219D03*
D10*
X338824885Y-131251063D03*
D11*
X339230576Y-131142359D03*
D12*
X344137475Y-129827559D03*
D11*
X349044382Y-128512757D03*
D10*
X349450063Y-128404055D03*
D13*
X345276128Y-124263255D03*
D14*
X347983592Y-124862948D03*
D15*
X339799900Y-128360209D03*
D14*
X342610446Y-124128597D03*
D10*
X130183264Y-180520969D03*
D11*
X130588954Y-180629674D03*
D12*
X135495854Y-181944473D03*
D11*
X140402761Y-183259275D03*
D10*
X140808441Y-183367978D03*
D13*
X139264108Y-177694971D03*
D14*
X141308995Y-179568052D03*
D16*
X132473078Y-178504921D03*
D14*
X137022889Y-176245512D03*
D10*
X254185734Y-109763100D03*
D11*
X254591425Y-109654396D03*
D12*
X259498324Y-108339596D03*
D11*
X264405231Y-107024794D03*
D10*
X264810914Y-106916090D03*
D13*
X260636977Y-102775292D03*
D18*
X263512526Y-113294480D03*
D14*
X263344441Y-103374985D03*
D15*
X255160749Y-106872246D03*
D14*
X257971295Y-102640634D03*
D18*
X263124296Y-111845593D03*
X258101482Y-113191449D03*
X258489710Y-114640337D03*
D10*
X329896447Y-171533194D03*
D11*
X330302138Y-171424490D03*
D12*
X335209037Y-170109690D03*
D11*
X340115944Y-168794888D03*
D10*
X340521625Y-168686186D03*
D13*
X336347690Y-164545386D03*
D14*
X339055154Y-165145079D03*
D15*
X330871462Y-168642340D03*
D14*
X333682008Y-164410728D03*
D19*
X105408558Y-82718861D03*
D10*
X126968329Y-118915735D03*
D11*
X127374019Y-119024440D03*
D12*
X132280919Y-120339239D03*
D11*
X137187826Y-121654041D03*
D10*
X137593506Y-121762744D03*
D13*
X136049173Y-116089737D03*
D14*
X138094060Y-117962818D03*
D16*
X129258143Y-116899687D03*
D14*
X133807954Y-114640278D03*
D22*
X198471786Y-106571163D03*
X198471787Y-109111162D03*
D23*
X198471788Y-111651163D03*
D22*
X198471785Y-114191162D03*
X198471786Y-116731161D03*
X198471786Y-119271164D03*
X198471785Y-121811163D03*
D23*
X198471785Y-124351165D03*
D22*
X198471786Y-126891163D03*
X198471787Y-129431163D03*
X198471787Y-131971163D03*
X198471786Y-134511163D03*
D23*
X198471787Y-137051162D03*
D22*
X198471786Y-139591164D03*
X198471787Y-142131164D03*
X198471785Y-144671163D03*
X198471786Y-147211163D03*
D23*
X198471786Y-149751162D03*
D22*
X198471787Y-152291163D03*
X198471786Y-154831163D03*
X216251786Y-154831163D03*
X216251785Y-152291164D03*
D23*
X216251784Y-149751163D03*
D22*
X216251787Y-147211164D03*
X216251786Y-144671165D03*
X216251786Y-142131162D03*
X216251787Y-139591163D03*
D23*
X216251787Y-137051161D03*
D22*
X216251786Y-134511163D03*
X216251785Y-131971163D03*
X216251785Y-129431163D03*
X216251786Y-126891163D03*
D23*
X216251785Y-124351164D03*
D22*
X216251786Y-121811162D03*
X216251785Y-119271162D03*
X216251787Y-116731163D03*
X216251786Y-114191163D03*
D23*
X216251786Y-111651164D03*
D22*
X216251785Y-109111163D03*
X216251786Y-106571163D03*
X204821784Y-154601164D03*
D23*
X207361786Y-154601163D03*
D22*
X209901784Y-154601164D03*
D10*
X290987512Y-99902098D03*
D11*
X291393203Y-99793394D03*
D12*
X296300102Y-98478594D03*
D11*
X301207009Y-97163792D03*
D10*
X301612692Y-97055088D03*
D13*
X297438755Y-92914290D03*
D18*
X300314304Y-103433478D03*
D14*
X300146219Y-93513983D03*
D15*
X291962527Y-97011244D03*
D14*
X294773073Y-92779632D03*
D18*
X299926074Y-101984591D03*
X294903260Y-103330447D03*
X295291488Y-104779335D03*
D10*
X93381487Y-170659966D03*
D11*
X93787177Y-170768671D03*
D12*
X98694077Y-172083470D03*
D11*
X103600984Y-173398272D03*
D10*
X104006664Y-173506975D03*
D13*
X102462331Y-167833968D03*
D14*
X104507218Y-169707049D03*
D16*
X95671301Y-168643918D03*
D14*
X100221112Y-166384509D03*
D19*
X38006578Y-130997048D03*
D10*
X300845668Y-136717782D03*
D11*
X301251359Y-136609078D03*
D12*
X306158258Y-135294278D03*
D11*
X311065165Y-133979476D03*
D10*
X311470846Y-133870774D03*
D13*
X307296911Y-129729974D03*
D14*
X310004375Y-130329667D03*
D15*
X301820683Y-133826928D03*
D14*
X304631229Y-129595316D03*
D10*
X122028407Y-137327245D03*
D11*
X122434097Y-137435950D03*
D12*
X127340997Y-138750749D03*
D11*
X132247904Y-140065551D03*
D10*
X132653584Y-140174254D03*
D13*
X131109251Y-134501247D03*
D14*
X133154138Y-136374328D03*
D16*
X124318221Y-135311197D03*
D14*
X128868032Y-133051788D03*
D10*
X44383654Y-132687200D03*
D11*
X44789344Y-132795905D03*
D12*
X49696244Y-134110704D03*
D11*
X54603151Y-135425506D03*
D10*
X55008831Y-135534209D03*
D13*
X53464498Y-129861202D03*
D14*
X55509385Y-131734283D03*
D16*
X46673468Y-130671152D03*
D14*
X51223279Y-128411743D03*
D10*
X65253858Y-128402095D03*
D11*
X65659548Y-128510800D03*
D12*
X70566448Y-129825599D03*
D11*
X75473355Y-131140401D03*
D10*
X75879035Y-131249104D03*
D13*
X74334702Y-125576097D03*
D14*
X76379589Y-127449178D03*
D16*
X67543672Y-126386047D03*
D14*
X72093483Y-124126638D03*
D10*
X60332776Y-146792355D03*
D11*
X60738466Y-146901060D03*
D12*
X65645366Y-148215859D03*
D11*
X70552273Y-149530661D03*
D10*
X70957953Y-149639364D03*
D13*
X69413620Y-143966357D03*
D14*
X71458507Y-145839438D03*
D16*
X62622590Y-144776307D03*
D14*
X67172401Y-142516898D03*
D10*
X255901299Y-189769221D03*
D11*
X256306990Y-189660517D03*
D12*
X261213889Y-188345717D03*
D11*
X266120796Y-187030915D03*
D10*
X266526477Y-186922213D03*
D13*
X262352542Y-182781413D03*
D14*
X265060006Y-183381106D03*
D15*
X256876314Y-186878367D03*
D14*
X259686860Y-182646755D03*
D10*
X98311984Y-152259079D03*
D11*
X98717674Y-152367784D03*
D12*
X103624574Y-153682583D03*
D11*
X108531481Y-154997385D03*
D10*
X108937161Y-155106088D03*
D13*
X107392828Y-149433081D03*
D14*
X109437715Y-151306162D03*
D16*
X100601798Y-150243031D03*
D14*
X105151609Y-147983622D03*
D10*
X153129638Y-168512030D03*
D11*
X153535328Y-168620735D03*
D12*
X158442228Y-169935534D03*
D11*
X163349135Y-171250336D03*
D10*
X163754815Y-171359039D03*
D13*
X162210482Y-165686032D03*
D14*
X164255369Y-167559113D03*
D16*
X155419452Y-166495982D03*
D14*
X159969263Y-164236573D03*
D10*
X305779014Y-155104761D03*
D11*
X306184705Y-154996057D03*
D12*
X311091604Y-153681257D03*
D11*
X315998511Y-152366455D03*
D10*
X316404192Y-152257753D03*
D13*
X312230257Y-148116953D03*
D14*
X314937721Y-148716646D03*
D15*
X306754029Y-152213907D03*
D14*
X309564575Y-147982295D03*
D10*
X264043899Y-146578788D03*
D11*
X264449590Y-146470084D03*
D12*
X269356489Y-145155284D03*
D11*
X274263396Y-143840482D03*
D10*
X274669077Y-143731780D03*
D13*
X270495142Y-139590980D03*
D14*
X273202606Y-140190673D03*
D15*
X265018914Y-143687934D03*
D14*
X267829460Y-139456322D03*
D10*
X295918015Y-118302991D03*
D11*
X296323706Y-118194287D03*
D12*
X301230605Y-116879487D03*
D11*
X306137512Y-115564685D03*
D10*
X306543193Y-115455983D03*
D13*
X302369258Y-111315183D03*
D14*
X305076722Y-111914876D03*
D15*
X296893030Y-115412137D03*
D14*
X299703576Y-111180525D03*
D10*
X88973810Y-113481567D03*
D11*
X89379500Y-113590272D03*
D12*
X94286400Y-114905071D03*
D11*
X99193307Y-116219873D03*
D10*
X99598987Y-116328576D03*
D13*
X98054654Y-110655569D03*
D14*
X100099541Y-112528650D03*
D16*
X91263624Y-111465519D03*
D14*
X95813435Y-109206110D03*
D19*
X207358558Y-163318861D03*
D10*
X167921142Y-113309370D03*
D11*
X168326832Y-113418075D03*
D12*
X173233732Y-114732874D03*
D11*
X178140639Y-116047676D03*
D10*
X178546323Y-116156376D03*
D13*
X177001986Y-110483372D03*
D17*
X174232691Y-121031029D03*
D14*
X179046872Y-112356453D03*
D16*
X170210956Y-111293324D03*
D14*
X174760767Y-109033913D03*
D17*
X174620917Y-119582143D03*
X169598103Y-118236282D03*
X169209876Y-119685169D03*
D10*
X93913732Y-95070058D03*
D11*
X94319422Y-95178763D03*
D12*
X99226322Y-96493562D03*
D11*
X104133229Y-97808364D03*
D10*
X104538913Y-97917064D03*
D13*
X102994576Y-92244060D03*
D17*
X100225281Y-102791717D03*
D14*
X105039462Y-94117141D03*
D16*
X96203546Y-93054012D03*
D14*
X100753357Y-90794601D03*
D17*
X100613507Y-101342831D03*
X95590693Y-99996970D03*
X95202466Y-101445857D03*
D10*
X272189331Y-103374440D03*
D11*
X272595022Y-103265736D03*
D12*
X277501921Y-101950936D03*
D11*
X282408828Y-100636134D03*
D10*
X282814511Y-100527430D03*
D13*
X278640574Y-96386632D03*
D18*
X281516123Y-106905820D03*
D14*
X281348038Y-96986325D03*
D15*
X273164346Y-100483586D03*
D14*
X275974892Y-96251974D03*
D18*
X281127893Y-105456933D03*
X276105079Y-106802789D03*
X276493307Y-108251677D03*
D10*
X220323172Y-213676860D03*
D11*
X220620158Y-213379874D03*
D12*
X224212258Y-209787774D03*
D11*
X227804363Y-206195669D03*
D10*
X228101344Y-205898690D03*
D13*
X222416208Y-204399619D03*
D14*
X225060786Y-203565234D03*
D24*
X219722132Y-210685799D03*
D14*
X220040330Y-205615842D03*
D10*
X282047494Y-140190125D03*
D11*
X282453185Y-140081421D03*
D12*
X287360084Y-138766621D03*
D11*
X292266991Y-137451819D03*
D10*
X292672672Y-137343117D03*
D13*
X288498737Y-133202317D03*
D14*
X291206201Y-133802010D03*
D15*
X283022509Y-137299271D03*
D14*
X285833055Y-133067659D03*
D10*
X236568499Y-199330114D03*
D11*
X236932231Y-199120113D03*
D12*
X241331637Y-196580115D03*
D11*
X245731049Y-194040113D03*
D10*
X246094773Y-193830117D03*
D13*
X240991343Y-190910705D03*
D14*
X243761765Y-190789221D03*
D25*
X236762083Y-196285411D03*
D14*
X238381640Y-191470565D03*
D10*
X131898833Y-100514848D03*
D11*
X132304523Y-100623553D03*
D12*
X137211423Y-101938352D03*
D11*
X142118330Y-103253154D03*
D10*
X142524014Y-103361854D03*
D13*
X140979677Y-97688850D03*
D17*
X138210382Y-108236507D03*
D14*
X143024563Y-99561931D03*
D16*
X134188647Y-98498802D03*
D14*
X138738458Y-96239391D03*
D17*
X138598608Y-106787621D03*
X133575794Y-105441760D03*
X133187567Y-106890647D03*
D26*
X83606514Y-122811994D03*
X82881820Y-125516594D03*
D27*
X246089078Y-163750297D03*
X246813774Y-166454891D03*
D26*
X88537019Y-104411117D03*
X87812325Y-107115717D03*
D19*
X376753765Y-130984746D03*
D28*
X229886397Y-193246354D03*
X231286403Y-195671228D03*
D26*
X93518844Y-85915270D03*
X92794150Y-88619870D03*
D19*
X309351784Y-82706560D03*
D27*
X287010390Y-169374344D03*
X287735086Y-172078938D03*
X295944714Y-129114130D03*
X296669410Y-131818724D03*
D26*
X134676979Y-153049635D03*
X133952285Y-155754235D03*
D27*
X225213641Y-159502335D03*
X225938337Y-162206929D03*
X272216033Y-114185588D03*
X272940729Y-116890182D03*
D29*
X212346445Y-209568841D03*
X214326349Y-211548735D03*
D27*
X315131630Y-127141681D03*
X315856326Y-129846275D03*
D26*
X147759135Y-177829911D03*
X147034441Y-180534511D03*
X121591611Y-128256790D03*
X120866917Y-130961390D03*
D27*
X231234137Y-108477476D03*
X231958833Y-111182070D03*
X305180729Y-90253426D03*
X305905425Y-92958020D03*
X285993804Y-92225869D03*
X286718500Y-94930463D03*
X305803434Y-165887949D03*
X306528130Y-168592543D03*
X320062133Y-145542570D03*
X320786829Y-148247164D03*
D26*
X162544428Y-122650429D03*
X161819734Y-125355029D03*
X167492610Y-104280159D03*
X166767916Y-106984759D03*
D27*
X241158576Y-145349415D03*
X241883272Y-148054009D03*
X323970179Y-86773060D03*
X324694875Y-89477654D03*
D26*
X73761144Y-159579969D03*
X73036450Y-162284569D03*
D27*
X266950284Y-95763954D03*
X267674980Y-98468548D03*
X269021197Y-175779246D03*
X269745893Y-178483840D03*
D30*
X170550425Y-184968677D03*
X169150421Y-187393553D03*
D31*
X190694259Y-197835580D03*
X188714365Y-199815484D03*
D26*
X74729389Y-82434915D03*
X74004695Y-85139515D03*
D27*
X236451334Y-126911088D03*
X237176030Y-129615682D03*
D26*
X97844844Y-143205330D03*
X97120150Y-145909930D03*
D27*
X328990580Y-105260437D03*
X329715276Y-107965031D03*
D26*
X59871911Y-137715142D03*
X59147217Y-140419742D03*
X107736204Y-106386849D03*
X107011510Y-109091449D03*
X152683421Y-159452206D03*
X151958727Y-162156806D03*
D27*
X251036569Y-182178959D03*
X251761265Y-184883553D03*
D26*
X116661100Y-146657674D03*
X115936406Y-149362274D03*
D27*
X338606236Y-142127951D03*
X339330932Y-144832545D03*
X333921080Y-123661326D03*
X334645776Y-126365920D03*
X310201128Y-108740797D03*
X310925824Y-111445391D03*
D26*
X144537904Y-116272677D03*
X143813210Y-118977277D03*
D27*
X249192030Y-102086880D03*
X249916726Y-104791474D03*
X259142934Y-138975140D03*
X259867630Y-141679734D03*
D26*
X111746241Y-165024756D03*
X111021547Y-167729356D03*
X157613928Y-141051313D03*
X156889234Y-143755913D03*
D27*
X300875216Y-147515020D03*
X301599912Y-150219614D03*
X354858193Y-127953286D03*
X355582889Y-130657880D03*
X282077043Y-150987361D03*
X282801739Y-153691955D03*
D26*
X139607481Y-134648744D03*
X138882787Y-137353344D03*
X43965159Y-123669585D03*
X43240465Y-126374185D03*
X126522111Y-109855905D03*
X125797417Y-112560505D03*
D19*
X349176785Y-178181559D03*
D27*
X324995479Y-163929549D03*
X325720175Y-166634143D03*
D26*
X149486159Y-97877585D03*
X148761465Y-100582185D03*
X173609064Y-155249968D03*
X172884370Y-157954568D03*
D27*
X254212432Y-120574247D03*
X254937128Y-123278841D03*
X264095522Y-157347730D03*
X264820218Y-160052324D03*
X291014207Y-110713244D03*
X291738903Y-113417838D03*
D26*
X92950909Y-161566321D03*
X92226215Y-164270921D03*
X129752685Y-171427328D03*
X129027991Y-174131928D03*
D27*
X277146535Y-132586474D03*
X277871231Y-135291068D03*
D26*
X78661026Y-141196755D03*
X77936332Y-143901355D03*
X131470295Y-91485634D03*
X130745601Y-94190234D03*
X69747567Y-100930759D03*
X69022873Y-103635359D03*
X64571724Y-119265901D03*
X63847030Y-121970501D03*
X102805703Y-124787741D03*
X102081009Y-127492341D03*
X112472689Y-87825270D03*
X111747995Y-90529870D03*
M02*
