G04 #@! TF.GenerationSoftware,KiCad,Pcbnew,8.0.2*
G04 #@! TF.CreationDate,2024-05-24T22:26:47+01:00*
G04 #@! TF.ProjectId,Phoenixia3,50686f65-6e69-4786-9961-332e6b696361,1*
G04 #@! TF.SameCoordinates,Original*
G04 #@! TF.FileFunction,AssemblyDrawing,Top*
%FSLAX46Y46*%
G04 Gerber Fmt 4.6, Leading zero omitted, Abs format (unit mm)*
G04 Created by KiCad (PCBNEW 8.0.2) date 2024-05-24 22:26:47*
%MOMM*%
%LPD*%
G01*
G04 APERTURE LIST*
%ADD10C,0.150000*%
%ADD11C,0.100000*%
%ADD12C,0.120000*%
G04 APERTURE END LIST*
D10*
X232319727Y-158839178D02*
X232060908Y-157873252D01*
X232871685Y-158691282D02*
X232309820Y-158250246D01*
X232612866Y-157725356D02*
X232208805Y-158425210D01*
X233527075Y-157825486D02*
X233699621Y-158469437D01*
X233198495Y-157519138D02*
X233153384Y-158270709D01*
X233153384Y-158270709D02*
X233751338Y-158110487D01*
X234447005Y-157578992D02*
X234619551Y-158222942D01*
X234118425Y-157272644D02*
X234073313Y-158024214D01*
X234073313Y-158024214D02*
X234671267Y-157863993D01*
X85172703Y-144226192D02*
X85431522Y-143260266D01*
X85724660Y-144374088D02*
X85458589Y-143711208D01*
X85983479Y-143408162D02*
X85283625Y-143812223D01*
X86725143Y-143951983D02*
X86552597Y-144595933D01*
X86593758Y-143522387D02*
X86178905Y-144150711D01*
X86178905Y-144150711D02*
X86776859Y-144310932D01*
X87104554Y-144743830D02*
X87288540Y-144793129D01*
X87288540Y-144793129D02*
X87392858Y-144771782D01*
X87392858Y-144771782D02*
X87451179Y-144738110D01*
X87451179Y-144738110D02*
X87580146Y-144624770D01*
X87580146Y-144624770D02*
X87675442Y-144453109D01*
X87675442Y-144453109D02*
X87774039Y-144085137D01*
X87774039Y-144085137D02*
X87752692Y-143980819D01*
X87752692Y-143980819D02*
X87719020Y-143922498D01*
X87719020Y-143922498D02*
X87639352Y-143851852D01*
X87639352Y-143851852D02*
X87455366Y-143802553D01*
X87455366Y-143802553D02*
X87351049Y-143823900D01*
X87351049Y-143823900D02*
X87292728Y-143857572D01*
X87292728Y-143857572D02*
X87222082Y-143937240D01*
X87222082Y-143937240D02*
X87160458Y-144167223D01*
X87160458Y-144167223D02*
X87181805Y-144271540D01*
X87181805Y-144271540D02*
X87215477Y-144329862D01*
X87215477Y-144329862D02*
X87295145Y-144400507D01*
X87295145Y-144400507D02*
X87479131Y-144449806D01*
X87479131Y-144449806D02*
X87583449Y-144428459D01*
X87583449Y-144428459D02*
X87641770Y-144394788D01*
X87641770Y-144394788D02*
X87712416Y-144315119D01*
X327185392Y-144856704D02*
X326926573Y-143890778D01*
X327737350Y-144708808D02*
X327175485Y-144267772D01*
X327478531Y-143742882D02*
X327074470Y-144442736D01*
X328352464Y-143508712D02*
X327892499Y-143631959D01*
X327892499Y-143631959D02*
X327969750Y-144104249D01*
X327969750Y-144104249D02*
X328003422Y-144045928D01*
X328003422Y-144045928D02*
X328083090Y-143975282D01*
X328083090Y-143975282D02*
X328313072Y-143913658D01*
X328313072Y-143913658D02*
X328417390Y-143935005D01*
X328417390Y-143935005D02*
X328475711Y-143968677D01*
X328475711Y-143968677D02*
X328546357Y-144048345D01*
X328546357Y-144048345D02*
X328607980Y-144278327D01*
X328607980Y-144278327D02*
X328586633Y-144382645D01*
X328586633Y-144382645D02*
X328552962Y-144440966D01*
X328552962Y-144440966D02*
X328473293Y-144511612D01*
X328473293Y-144511612D02*
X328243311Y-144573236D01*
X328243311Y-144573236D02*
X328138993Y-144551889D01*
X328138993Y-144551889D02*
X328080672Y-144518217D01*
X329061340Y-143762459D02*
X328957023Y-143741112D01*
X328957023Y-143741112D02*
X328898702Y-143707440D01*
X328898702Y-143707440D02*
X328828056Y-143627772D01*
X328828056Y-143627772D02*
X328815731Y-143581776D01*
X328815731Y-143581776D02*
X328837078Y-143477458D01*
X328837078Y-143477458D02*
X328870750Y-143419137D01*
X328870750Y-143419137D02*
X328950418Y-143348491D01*
X328950418Y-143348491D02*
X329134404Y-143299192D01*
X329134404Y-143299192D02*
X329238721Y-143320539D01*
X329238721Y-143320539D02*
X329297043Y-143354211D01*
X329297043Y-143354211D02*
X329367689Y-143433879D01*
X329367689Y-143433879D02*
X329380013Y-143479875D01*
X329380013Y-143479875D02*
X329358666Y-143584193D01*
X329358666Y-143584193D02*
X329324994Y-143642514D01*
X329324994Y-143642514D02*
X329245326Y-143713160D01*
X329245326Y-143713160D02*
X329061340Y-143762459D01*
X329061340Y-143762459D02*
X328981672Y-143833105D01*
X328981672Y-143833105D02*
X328948000Y-143891426D01*
X328948000Y-143891426D02*
X328926653Y-143995744D01*
X328926653Y-143995744D02*
X328975952Y-144179730D01*
X328975952Y-144179730D02*
X329046598Y-144259398D01*
X329046598Y-144259398D02*
X329104919Y-144293070D01*
X329104919Y-144293070D02*
X329209237Y-144314417D01*
X329209237Y-144314417D02*
X329393223Y-144265118D01*
X329393223Y-144265118D02*
X329472891Y-144194472D01*
X329472891Y-144194472D02*
X329506563Y-144136151D01*
X329506563Y-144136151D02*
X329527910Y-144031833D01*
X329527910Y-144031833D02*
X329478611Y-143847847D01*
X329478611Y-143847847D02*
X329407965Y-143768179D01*
X329407965Y-143768179D02*
X329349644Y-143734507D01*
X329349644Y-143734507D02*
X329245326Y-143713160D01*
X243329240Y-126290954D02*
X243070421Y-125325028D01*
X243881198Y-126143058D02*
X243319333Y-125702022D01*
X243622379Y-125177132D02*
X243218318Y-125876986D01*
X244015000Y-125170527D02*
X244048672Y-125112206D01*
X244048672Y-125112206D02*
X244128340Y-125041560D01*
X244128340Y-125041560D02*
X244358322Y-124979936D01*
X244358322Y-124979936D02*
X244462640Y-125001283D01*
X244462640Y-125001283D02*
X244520961Y-125034955D01*
X244520961Y-125034955D02*
X244591607Y-125114623D01*
X244591607Y-125114623D02*
X244616257Y-125206616D01*
X244616257Y-125206616D02*
X244607234Y-125356930D01*
X244607234Y-125356930D02*
X244203173Y-126056785D01*
X244203173Y-126056785D02*
X244801127Y-125896563D01*
X244934930Y-124924033D02*
X244968601Y-124865712D01*
X244968601Y-124865712D02*
X245048269Y-124795066D01*
X245048269Y-124795066D02*
X245278252Y-124733442D01*
X245278252Y-124733442D02*
X245382569Y-124754789D01*
X245382569Y-124754789D02*
X245440891Y-124788461D01*
X245440891Y-124788461D02*
X245511537Y-124868129D01*
X245511537Y-124868129D02*
X245536186Y-124960122D01*
X245536186Y-124960122D02*
X245527164Y-125110436D01*
X245527164Y-125110436D02*
X245123103Y-125810290D01*
X245123103Y-125810290D02*
X245721057Y-125650069D01*
X317324381Y-108054934D02*
X317065562Y-107089008D01*
X317876339Y-107907038D02*
X317314474Y-107466002D01*
X317617520Y-106941112D02*
X317213459Y-107640966D01*
X318010141Y-106934507D02*
X318043813Y-106876186D01*
X318043813Y-106876186D02*
X318123481Y-106805540D01*
X318123481Y-106805540D02*
X318353463Y-106743916D01*
X318353463Y-106743916D02*
X318457781Y-106765263D01*
X318457781Y-106765263D02*
X318516102Y-106798935D01*
X318516102Y-106798935D02*
X318586748Y-106878603D01*
X318586748Y-106878603D02*
X318611398Y-106970596D01*
X318611398Y-106970596D02*
X318602375Y-107120910D01*
X318602375Y-107120910D02*
X318198314Y-107820765D01*
X318198314Y-107820765D02*
X318796268Y-107660543D01*
X319365386Y-106472773D02*
X319181400Y-106522071D01*
X319181400Y-106522071D02*
X319101732Y-106592717D01*
X319101732Y-106592717D02*
X319068060Y-106651039D01*
X319068060Y-106651039D02*
X319013041Y-106813677D01*
X319013041Y-106813677D02*
X319016344Y-107009988D01*
X319016344Y-107009988D02*
X319114941Y-107377960D01*
X319114941Y-107377960D02*
X319185587Y-107457628D01*
X319185587Y-107457628D02*
X319243908Y-107491300D01*
X319243908Y-107491300D02*
X319348226Y-107512647D01*
X319348226Y-107512647D02*
X319532212Y-107463348D01*
X319532212Y-107463348D02*
X319611880Y-107392702D01*
X319611880Y-107392702D02*
X319645552Y-107334381D01*
X319645552Y-107334381D02*
X319666899Y-107230063D01*
X319666899Y-107230063D02*
X319605275Y-107000081D01*
X319605275Y-107000081D02*
X319534629Y-106920413D01*
X319534629Y-106920413D02*
X319476308Y-106886741D01*
X319476308Y-106886741D02*
X319371991Y-106865394D01*
X319371991Y-106865394D02*
X319188005Y-106914693D01*
X319188005Y-106914693D02*
X319108336Y-106985339D01*
X319108336Y-106985339D02*
X319074665Y-107043660D01*
X319074665Y-107043660D02*
X319053318Y-107147977D01*
X312926125Y-165243947D02*
X312667306Y-164278021D01*
X313478083Y-165096051D02*
X312916218Y-164655015D01*
X313219264Y-164130125D02*
X312815203Y-164829979D01*
X313541239Y-164043852D02*
X314185190Y-163871306D01*
X314185190Y-163871306D02*
X314030041Y-164948154D01*
X315053403Y-163983761D02*
X315225949Y-164627711D01*
X314724823Y-163677413D02*
X314679711Y-164428983D01*
X314679711Y-164428983D02*
X315277665Y-164268762D01*
X90103208Y-125825297D02*
X90362027Y-124859371D01*
X90655165Y-125973193D02*
X90389094Y-125310313D01*
X90913984Y-125007267D02*
X90214130Y-125411328D01*
X91235960Y-125093540D02*
X91833914Y-125253762D01*
X91833914Y-125253762D02*
X91413341Y-125535461D01*
X91413341Y-125535461D02*
X91551330Y-125572435D01*
X91551330Y-125572435D02*
X91630998Y-125643081D01*
X91630998Y-125643081D02*
X91664670Y-125701402D01*
X91664670Y-125701402D02*
X91686017Y-125805719D01*
X91686017Y-125805719D02*
X91624394Y-126035702D01*
X91624394Y-126035702D02*
X91553748Y-126115370D01*
X91553748Y-126115370D02*
X91495426Y-126149042D01*
X91495426Y-126149042D02*
X91391109Y-126170389D01*
X91391109Y-126170389D02*
X91115130Y-126096440D01*
X91115130Y-126096440D02*
X91035462Y-126025795D01*
X91035462Y-126025795D02*
X91001790Y-125967473D01*
X92155889Y-125340035D02*
X92753843Y-125500256D01*
X92753843Y-125500256D02*
X92333270Y-125781955D01*
X92333270Y-125781955D02*
X92471260Y-125818929D01*
X92471260Y-125818929D02*
X92550928Y-125889575D01*
X92550928Y-125889575D02*
X92584599Y-125947896D01*
X92584599Y-125947896D02*
X92605947Y-126052214D01*
X92605947Y-126052214D02*
X92544323Y-126282196D01*
X92544323Y-126282196D02*
X92473677Y-126361864D01*
X92473677Y-126361864D02*
X92415356Y-126395536D01*
X92415356Y-126395536D02*
X92311038Y-126416883D01*
X92311038Y-126416883D02*
X92035059Y-126342935D01*
X92035059Y-126342935D02*
X91955391Y-126272289D01*
X91955391Y-126272289D02*
X91921719Y-126213968D01*
X76244267Y-103944054D02*
X76503086Y-102978128D01*
X76796224Y-104091950D02*
X76530153Y-103429070D01*
X77055043Y-103126024D02*
X76355189Y-103530085D01*
X77716154Y-104338445D02*
X77164196Y-104190548D01*
X77440175Y-104264496D02*
X77698994Y-103298570D01*
X77698994Y-103298570D02*
X77570027Y-103411910D01*
X77570027Y-103411910D02*
X77453384Y-103479254D01*
X77453384Y-103479254D02*
X77349067Y-103500601D01*
X78802909Y-103594364D02*
X78618923Y-103545065D01*
X78618923Y-103545065D02*
X78514606Y-103566412D01*
X78514606Y-103566412D02*
X78456284Y-103600084D01*
X78456284Y-103600084D02*
X78327317Y-103713424D01*
X78327317Y-103713424D02*
X78232022Y-103885085D01*
X78232022Y-103885085D02*
X78133424Y-104253056D01*
X78133424Y-104253056D02*
X78154771Y-104357374D01*
X78154771Y-104357374D02*
X78188443Y-104415695D01*
X78188443Y-104415695D02*
X78268111Y-104486341D01*
X78268111Y-104486341D02*
X78452097Y-104535640D01*
X78452097Y-104535640D02*
X78556415Y-104514293D01*
X78556415Y-104514293D02*
X78614736Y-104480621D01*
X78614736Y-104480621D02*
X78685382Y-104400953D01*
X78685382Y-104400953D02*
X78747006Y-104170971D01*
X78747006Y-104170971D02*
X78725658Y-104066653D01*
X78725658Y-104066653D02*
X78691987Y-104008332D01*
X78691987Y-104008332D02*
X78612319Y-103937686D01*
X78612319Y-103937686D02*
X78428333Y-103888387D01*
X78428333Y-103888387D02*
X78324015Y-103909734D01*
X78324015Y-103909734D02*
X78265694Y-103943406D01*
X78265694Y-103943406D02*
X78195048Y-104023074D01*
X109311817Y-127790416D02*
X109570636Y-126824490D01*
X109863774Y-127938312D02*
X109597703Y-127275432D01*
X110122593Y-126972386D02*
X109422739Y-127376447D01*
X110444569Y-127058659D02*
X111042523Y-127218881D01*
X111042523Y-127218881D02*
X110621950Y-127500580D01*
X110621950Y-127500580D02*
X110759939Y-127537554D01*
X110759939Y-127537554D02*
X110839607Y-127608200D01*
X110839607Y-127608200D02*
X110873279Y-127666521D01*
X110873279Y-127666521D02*
X110894626Y-127770838D01*
X110894626Y-127770838D02*
X110833003Y-128000821D01*
X110833003Y-128000821D02*
X110762357Y-128080489D01*
X110762357Y-128080489D02*
X110704035Y-128114161D01*
X110704035Y-128114161D02*
X110599718Y-128135508D01*
X110599718Y-128135508D02*
X110323739Y-128061559D01*
X110323739Y-128061559D02*
X110244071Y-127990914D01*
X110244071Y-127990914D02*
X110210399Y-127932592D01*
X111784186Y-127762701D02*
X111611640Y-128406652D01*
X111652802Y-127333106D02*
X111237948Y-127961429D01*
X111237948Y-127961429D02*
X111835903Y-128121650D01*
X81644155Y-85655786D02*
X81902974Y-84689860D01*
X82196112Y-85803683D02*
X81930041Y-85140803D01*
X82454932Y-84837757D02*
X81755077Y-85241818D01*
X83052886Y-84997978D02*
X83144879Y-85022628D01*
X83144879Y-85022628D02*
X83224547Y-85093273D01*
X83224547Y-85093273D02*
X83258219Y-85151595D01*
X83258219Y-85151595D02*
X83279566Y-85255912D01*
X83279566Y-85255912D02*
X83276263Y-85452223D01*
X83276263Y-85452223D02*
X83214640Y-85682205D01*
X83214640Y-85682205D02*
X83119344Y-85853866D01*
X83119344Y-85853866D02*
X83048698Y-85933535D01*
X83048698Y-85933535D02*
X82990377Y-85967206D01*
X82990377Y-85967206D02*
X82886060Y-85988553D01*
X82886060Y-85988553D02*
X82794067Y-85963904D01*
X82794067Y-85963904D02*
X82714398Y-85893258D01*
X82714398Y-85893258D02*
X82680727Y-85834937D01*
X82680727Y-85834937D02*
X82659380Y-85730619D01*
X82659380Y-85730619D02*
X82662682Y-85534309D01*
X82662682Y-85534309D02*
X82724306Y-85304326D01*
X82724306Y-85304326D02*
X82819601Y-85132665D01*
X82819601Y-85132665D02*
X82890247Y-85052997D01*
X82890247Y-85052997D02*
X82948568Y-85019325D01*
X82948568Y-85019325D02*
X83052886Y-84997978D01*
X331183336Y-86173683D02*
X330924517Y-85207757D01*
X331735294Y-86025787D02*
X331173429Y-85584751D01*
X331476475Y-85059861D02*
X331072414Y-85759715D01*
X332655223Y-85779292D02*
X332103266Y-85927189D01*
X332379245Y-85853241D02*
X332120425Y-84887315D01*
X332120425Y-84887315D02*
X332065407Y-85049954D01*
X332065407Y-85049954D02*
X331998063Y-85166596D01*
X331998063Y-85166596D02*
X331918395Y-85237242D01*
X333575153Y-85532798D02*
X333023195Y-85680695D01*
X333299174Y-85606746D02*
X333040355Y-84640820D01*
X333040355Y-84640820D02*
X332985336Y-84803459D01*
X332985336Y-84803459D02*
X332917993Y-84920102D01*
X332917993Y-84920102D02*
X332838324Y-84990748D01*
X118227299Y-168071858D02*
X118486118Y-167105932D01*
X118779256Y-168219754D02*
X118513185Y-167556874D01*
X119038075Y-167253828D02*
X118338221Y-167657889D01*
X119866012Y-167475673D02*
X119682026Y-167426374D01*
X119682026Y-167426374D02*
X119577708Y-167447722D01*
X119577708Y-167447722D02*
X119519387Y-167481393D01*
X119519387Y-167481393D02*
X119390420Y-167594733D01*
X119390420Y-167594733D02*
X119295125Y-167766394D01*
X119295125Y-167766394D02*
X119196527Y-168134366D01*
X119196527Y-168134366D02*
X119217874Y-168238684D01*
X119217874Y-168238684D02*
X119251546Y-168297005D01*
X119251546Y-168297005D02*
X119331214Y-168367651D01*
X119331214Y-168367651D02*
X119515200Y-168416950D01*
X119515200Y-168416950D02*
X119619517Y-168395603D01*
X119619517Y-168395603D02*
X119677839Y-168361931D01*
X119677839Y-168361931D02*
X119748485Y-168282263D01*
X119748485Y-168282263D02*
X119810108Y-168052280D01*
X119810108Y-168052280D02*
X119788761Y-167947963D01*
X119788761Y-167947963D02*
X119755089Y-167889642D01*
X119755089Y-167889642D02*
X119675421Y-167818996D01*
X119675421Y-167818996D02*
X119491435Y-167769697D01*
X119491435Y-167769697D02*
X119387118Y-167791044D01*
X119387118Y-167791044D02*
X119328796Y-167824716D01*
X119328796Y-167824716D02*
X119258150Y-167904384D01*
X120785941Y-167722168D02*
X120601955Y-167672869D01*
X120601955Y-167672869D02*
X120497638Y-167694216D01*
X120497638Y-167694216D02*
X120439316Y-167727888D01*
X120439316Y-167727888D02*
X120310349Y-167841228D01*
X120310349Y-167841228D02*
X120215054Y-168012889D01*
X120215054Y-168012889D02*
X120116456Y-168380860D01*
X120116456Y-168380860D02*
X120137803Y-168485178D01*
X120137803Y-168485178D02*
X120171475Y-168543499D01*
X120171475Y-168543499D02*
X120251143Y-168614145D01*
X120251143Y-168614145D02*
X120435129Y-168663444D01*
X120435129Y-168663444D02*
X120539447Y-168642097D01*
X120539447Y-168642097D02*
X120597768Y-168608425D01*
X120597768Y-168608425D02*
X120668414Y-168528757D01*
X120668414Y-168528757D02*
X120730038Y-168298775D01*
X120730038Y-168298775D02*
X120708690Y-168194457D01*
X120708690Y-168194457D02*
X120675019Y-168136136D01*
X120675019Y-168136136D02*
X120595351Y-168065490D01*
X120595351Y-168065490D02*
X120411365Y-168016191D01*
X120411365Y-168016191D02*
X120307047Y-168037538D01*
X120307047Y-168037538D02*
X120248726Y-168071210D01*
X120248726Y-168071210D02*
X120178080Y-168150878D01*
X146104171Y-137662044D02*
X146362990Y-136696118D01*
X146656128Y-137809940D02*
X146390057Y-137147060D01*
X146914947Y-136844014D02*
X146215093Y-137248075D01*
X147236923Y-136930287D02*
X147834877Y-137090509D01*
X147834877Y-137090509D02*
X147414304Y-137372208D01*
X147414304Y-137372208D02*
X147552293Y-137409182D01*
X147552293Y-137409182D02*
X147631961Y-137479828D01*
X147631961Y-137479828D02*
X147665633Y-137538149D01*
X147665633Y-137538149D02*
X147686980Y-137642466D01*
X147686980Y-137642466D02*
X147625357Y-137872449D01*
X147625357Y-137872449D02*
X147554711Y-137952117D01*
X147554711Y-137952117D02*
X147496389Y-137985789D01*
X147496389Y-137985789D02*
X147392072Y-138007136D01*
X147392072Y-138007136D02*
X147116093Y-137933187D01*
X147116093Y-137933187D02*
X147036425Y-137862542D01*
X147036425Y-137862542D02*
X147002753Y-137804220D01*
X148662813Y-137312354D02*
X148478827Y-137263055D01*
X148478827Y-137263055D02*
X148374510Y-137284402D01*
X148374510Y-137284402D02*
X148316188Y-137318074D01*
X148316188Y-137318074D02*
X148187221Y-137431414D01*
X148187221Y-137431414D02*
X148091926Y-137603075D01*
X148091926Y-137603075D02*
X147993328Y-137971046D01*
X147993328Y-137971046D02*
X148014675Y-138075364D01*
X148014675Y-138075364D02*
X148048347Y-138133685D01*
X148048347Y-138133685D02*
X148128015Y-138204331D01*
X148128015Y-138204331D02*
X148312001Y-138253630D01*
X148312001Y-138253630D02*
X148416319Y-138232283D01*
X148416319Y-138232283D02*
X148474640Y-138198611D01*
X148474640Y-138198611D02*
X148545286Y-138118943D01*
X148545286Y-138118943D02*
X148606910Y-137888961D01*
X148606910Y-137888961D02*
X148585562Y-137784643D01*
X148585562Y-137784643D02*
X148551891Y-137726322D01*
X148551891Y-137726322D02*
X148472223Y-137655676D01*
X148472223Y-137655676D02*
X148288237Y-137606377D01*
X148288237Y-137606377D02*
X148183919Y-137627724D01*
X148183919Y-137627724D02*
X148125598Y-137661396D01*
X148125598Y-137661396D02*
X148054952Y-137741064D01*
X238858707Y-107766830D02*
X238599887Y-106800904D01*
X239410664Y-107618933D02*
X238848799Y-107177898D01*
X239151845Y-106653008D02*
X238747784Y-107352862D01*
X239979782Y-106431163D02*
X239795796Y-106480461D01*
X239795796Y-106480461D02*
X239716127Y-106551107D01*
X239716127Y-106551107D02*
X239682456Y-106609429D01*
X239682456Y-106609429D02*
X239627437Y-106772067D01*
X239627437Y-106772067D02*
X239630739Y-106968378D01*
X239630739Y-106968378D02*
X239729337Y-107336350D01*
X239729337Y-107336350D02*
X239799983Y-107416018D01*
X239799983Y-107416018D02*
X239858304Y-107449690D01*
X239858304Y-107449690D02*
X239962622Y-107471037D01*
X239962622Y-107471037D02*
X240146608Y-107421738D01*
X240146608Y-107421738D02*
X240226276Y-107351092D01*
X240226276Y-107351092D02*
X240259948Y-107292771D01*
X240259948Y-107292771D02*
X240281295Y-107188453D01*
X240281295Y-107188453D02*
X240219671Y-106958471D01*
X240219671Y-106958471D02*
X240149025Y-106878803D01*
X240149025Y-106878803D02*
X240090704Y-106845131D01*
X240090704Y-106845131D02*
X239986386Y-106823784D01*
X239986386Y-106823784D02*
X239802400Y-106873083D01*
X239802400Y-106873083D02*
X239722732Y-106943729D01*
X239722732Y-106943729D02*
X239689060Y-107002050D01*
X239689060Y-107002050D02*
X239667713Y-107106367D01*
X312391040Y-89667958D02*
X312132221Y-88702032D01*
X312942998Y-89520062D02*
X312381133Y-89079026D01*
X312684179Y-88554136D02*
X312280118Y-89253990D01*
X313862927Y-89273567D02*
X313310970Y-89421464D01*
X313586949Y-89347516D02*
X313328129Y-88381590D01*
X313328129Y-88381590D02*
X313273111Y-88544229D01*
X313273111Y-88544229D02*
X313205767Y-88660871D01*
X313205767Y-88660871D02*
X313126099Y-88731517D01*
X314202062Y-88147420D02*
X314294055Y-88122771D01*
X314294055Y-88122771D02*
X314398373Y-88144118D01*
X314398373Y-88144118D02*
X314456694Y-88177790D01*
X314456694Y-88177790D02*
X314527340Y-88257458D01*
X314527340Y-88257458D02*
X314622635Y-88429119D01*
X314622635Y-88429119D02*
X314684259Y-88659101D01*
X314684259Y-88659101D02*
X314687561Y-88855412D01*
X314687561Y-88855412D02*
X314666214Y-88959729D01*
X314666214Y-88959729D02*
X314632543Y-89018051D01*
X314632543Y-89018051D02*
X314552874Y-89088697D01*
X314552874Y-89088697D02*
X314460881Y-89113346D01*
X314460881Y-89113346D02*
X314356564Y-89091999D01*
X314356564Y-89091999D02*
X314298243Y-89058327D01*
X314298243Y-89058327D02*
X314227597Y-88978659D01*
X314227597Y-88978659D02*
X314132301Y-88806998D01*
X314132301Y-88806998D02*
X314070678Y-88577015D01*
X314070678Y-88577015D02*
X314067375Y-88380705D01*
X314067375Y-88380705D02*
X314088722Y-88276387D01*
X314088722Y-88276387D02*
X314122394Y-88218066D01*
X314122394Y-88218066D02*
X314202062Y-88147420D01*
X64137110Y-175739414D02*
X63878291Y-174773489D01*
X64001538Y-175233453D02*
X64553496Y-175085557D01*
X64689067Y-175591518D02*
X64430248Y-174625592D01*
X65390454Y-174713398D02*
X65563000Y-175357348D01*
X65061874Y-174407050D02*
X65016763Y-175158620D01*
X65016763Y-175158620D02*
X65614717Y-174998399D01*
X61906850Y-182962779D02*
X61648031Y-181996853D01*
X61648031Y-181996853D02*
X62154877Y-182600527D01*
X62154877Y-182600527D02*
X62291981Y-181824307D01*
X62291981Y-181824307D02*
X62550800Y-182790233D01*
X63148754Y-182630012D02*
X63044437Y-182608665D01*
X63044437Y-182608665D02*
X62986116Y-182574993D01*
X62986116Y-182574993D02*
X62915470Y-182495325D01*
X62915470Y-182495325D02*
X62841521Y-182219346D01*
X62841521Y-182219346D02*
X62862868Y-182115028D01*
X62862868Y-182115028D02*
X62896540Y-182056707D01*
X62896540Y-182056707D02*
X62976208Y-181986061D01*
X62976208Y-181986061D02*
X63114198Y-181949087D01*
X63114198Y-181949087D02*
X63218515Y-181970434D01*
X63218515Y-181970434D02*
X63276837Y-182004106D01*
X63276837Y-182004106D02*
X63347482Y-182083774D01*
X63347482Y-182083774D02*
X63421431Y-182359753D01*
X63421431Y-182359753D02*
X63400084Y-182464071D01*
X63400084Y-182464071D02*
X63366412Y-182522392D01*
X63366412Y-182522392D02*
X63286744Y-182593038D01*
X63286744Y-182593038D02*
X63148754Y-182630012D01*
X64126120Y-181677943D02*
X64298666Y-182321894D01*
X63712152Y-181788866D02*
X63847724Y-182294827D01*
X63847724Y-182294827D02*
X63918370Y-182374495D01*
X63918370Y-182374495D02*
X64022687Y-182395842D01*
X64022687Y-182395842D02*
X64160677Y-182358868D01*
X64160677Y-182358868D02*
X64240345Y-182288222D01*
X64240345Y-182288222D02*
X64274017Y-182229901D01*
X64586085Y-181554696D02*
X64758631Y-182198647D01*
X64610734Y-181646689D02*
X64644406Y-181588368D01*
X64644406Y-181588368D02*
X64724074Y-181517722D01*
X64724074Y-181517722D02*
X64862064Y-181480748D01*
X64862064Y-181480748D02*
X64966381Y-181502095D01*
X64966381Y-181502095D02*
X65037027Y-181581763D01*
X65037027Y-181581763D02*
X65172599Y-182087724D01*
X65322028Y-181357501D02*
X65690000Y-181258903D01*
X65373745Y-180998551D02*
X65595590Y-181826488D01*
X65595590Y-181826488D02*
X65666236Y-181906156D01*
X65666236Y-181906156D02*
X65770553Y-181927503D01*
X65770553Y-181927503D02*
X65862546Y-181902853D01*
X66184522Y-181816580D02*
X66011976Y-181172630D01*
X65925703Y-180850654D02*
X65892031Y-180908976D01*
X65892031Y-180908976D02*
X65950352Y-180942647D01*
X65950352Y-180942647D02*
X65984024Y-180884326D01*
X65984024Y-180884326D02*
X65925703Y-180850654D01*
X65925703Y-180850654D02*
X65950352Y-180942647D01*
X66471940Y-181049383D02*
X66644486Y-181693333D01*
X66496590Y-181141376D02*
X66530261Y-181083054D01*
X66530261Y-181083054D02*
X66609930Y-181012409D01*
X66609930Y-181012409D02*
X66747919Y-180975434D01*
X66747919Y-180975434D02*
X66852237Y-180996781D01*
X66852237Y-180996781D02*
X66922882Y-181076450D01*
X66922882Y-181076450D02*
X67058454Y-181582411D01*
X67759841Y-180704291D02*
X67969361Y-181486231D01*
X67969361Y-181486231D02*
X67948014Y-181590548D01*
X67948014Y-181590548D02*
X67914343Y-181648869D01*
X67914343Y-181648869D02*
X67834674Y-181719515D01*
X67834674Y-181719515D02*
X67696685Y-181756489D01*
X67696685Y-181756489D02*
X67592367Y-181735142D01*
X67920063Y-181302245D02*
X67840394Y-181372891D01*
X67840394Y-181372891D02*
X67656409Y-181422189D01*
X67656409Y-181422189D02*
X67552091Y-181400842D01*
X67552091Y-181400842D02*
X67493770Y-181367171D01*
X67493770Y-181367171D02*
X67423124Y-181287502D01*
X67423124Y-181287502D02*
X67349175Y-181011524D01*
X67349175Y-181011524D02*
X67370523Y-180907206D01*
X67370523Y-180907206D02*
X67404194Y-180848885D01*
X67404194Y-180848885D02*
X67483862Y-180778239D01*
X67483862Y-180778239D02*
X67667848Y-180728940D01*
X67667848Y-180728940D02*
X67772166Y-180750287D01*
X68392352Y-181224994D02*
X68133533Y-180259068D01*
X68256780Y-180719033D02*
X68808738Y-180571136D01*
X68944310Y-181077097D02*
X68685491Y-180111172D01*
X69542264Y-180916876D02*
X69437946Y-180895529D01*
X69437946Y-180895529D02*
X69379625Y-180861857D01*
X69379625Y-180861857D02*
X69308979Y-180782189D01*
X69308979Y-180782189D02*
X69235031Y-180506210D01*
X69235031Y-180506210D02*
X69256378Y-180401893D01*
X69256378Y-180401893D02*
X69290050Y-180343571D01*
X69290050Y-180343571D02*
X69369718Y-180272926D01*
X69369718Y-180272926D02*
X69507707Y-180235951D01*
X69507707Y-180235951D02*
X69612025Y-180257298D01*
X69612025Y-180257298D02*
X69670346Y-180290970D01*
X69670346Y-180290970D02*
X69740992Y-180370638D01*
X69740992Y-180370638D02*
X69814940Y-180646617D01*
X69814940Y-180646617D02*
X69793593Y-180750935D01*
X69793593Y-180750935D02*
X69759921Y-180809256D01*
X69759921Y-180809256D02*
X69680253Y-180879902D01*
X69680253Y-180879902D02*
X69542264Y-180916876D01*
X70416197Y-180682706D02*
X70311879Y-180661359D01*
X70311879Y-180661359D02*
X70241233Y-180581691D01*
X70241233Y-180581691D02*
X70019388Y-179753755D01*
X71139816Y-180439514D02*
X71060148Y-180510160D01*
X71060148Y-180510160D02*
X70876162Y-180559459D01*
X70876162Y-180559459D02*
X70771844Y-180538112D01*
X70771844Y-180538112D02*
X70701198Y-180458444D01*
X70701198Y-180458444D02*
X70602601Y-180090472D01*
X70602601Y-180090472D02*
X70623948Y-179986155D01*
X70623948Y-179986155D02*
X70703616Y-179915509D01*
X70703616Y-179915509D02*
X70887602Y-179866210D01*
X70887602Y-179866210D02*
X70991919Y-179887557D01*
X70991919Y-179887557D02*
X71062565Y-179967225D01*
X71062565Y-179967225D02*
X71087215Y-180059218D01*
X71087215Y-180059218D02*
X70651899Y-180274458D01*
X65255109Y-178752731D02*
X64996290Y-177786806D01*
X65119537Y-178246770D02*
X65671495Y-178098874D01*
X65807066Y-178604835D02*
X65548247Y-177638909D01*
X66508453Y-177726715D02*
X66680999Y-178370665D01*
X66179873Y-177420367D02*
X66134762Y-178171937D01*
X66134762Y-178171937D02*
X66732716Y-178011716D01*
X336113841Y-104574569D02*
X335855022Y-103608643D01*
X336665799Y-104426673D02*
X336103934Y-103985637D01*
X336406980Y-103460747D02*
X336002919Y-104160601D01*
X336799601Y-103454142D02*
X336833273Y-103395821D01*
X336833273Y-103395821D02*
X336912941Y-103325175D01*
X336912941Y-103325175D02*
X337142923Y-103263551D01*
X337142923Y-103263551D02*
X337247241Y-103284898D01*
X337247241Y-103284898D02*
X337305562Y-103318570D01*
X337305562Y-103318570D02*
X337376208Y-103398238D01*
X337376208Y-103398238D02*
X337400858Y-103490231D01*
X337400858Y-103490231D02*
X337391835Y-103640545D01*
X337391835Y-103640545D02*
X336987774Y-104340400D01*
X336987774Y-104340400D02*
X337585728Y-104180178D01*
X337648885Y-103127979D02*
X338292835Y-102955433D01*
X338292835Y-102955433D02*
X338137686Y-104032282D01*
X141183083Y-156052300D02*
X141441902Y-155086374D01*
X141735040Y-156200196D02*
X141468969Y-155537316D01*
X141993859Y-155234270D02*
X141294005Y-155638331D01*
X142867792Y-155468440D02*
X142407828Y-155345193D01*
X142407828Y-155345193D02*
X142238584Y-155792833D01*
X142238584Y-155792833D02*
X142296905Y-155759161D01*
X142296905Y-155759161D02*
X142401223Y-155737814D01*
X142401223Y-155737814D02*
X142631205Y-155799438D01*
X142631205Y-155799438D02*
X142710873Y-155870084D01*
X142710873Y-155870084D02*
X142744545Y-155928405D01*
X142744545Y-155928405D02*
X142765892Y-156032722D01*
X142765892Y-156032722D02*
X142704269Y-156262705D01*
X142704269Y-156262705D02*
X142633623Y-156342373D01*
X142633623Y-156342373D02*
X142575301Y-156376045D01*
X142575301Y-156376045D02*
X142470984Y-156397392D01*
X142470984Y-156397392D02*
X142241001Y-156335768D01*
X142241001Y-156335768D02*
X142161333Y-156265122D01*
X142161333Y-156265122D02*
X142127661Y-156206801D01*
X143257111Y-155671355D02*
X143315432Y-155637684D01*
X143315432Y-155637684D02*
X143419750Y-155616337D01*
X143419750Y-155616337D02*
X143649732Y-155677960D01*
X143649732Y-155677960D02*
X143729400Y-155748606D01*
X143729400Y-155748606D02*
X143763072Y-155806927D01*
X143763072Y-155806927D02*
X143784419Y-155911245D01*
X143784419Y-155911245D02*
X143759770Y-156003238D01*
X143759770Y-156003238D02*
X143676799Y-156128903D01*
X143676799Y-156128903D02*
X142976945Y-156532964D01*
X142976945Y-156532964D02*
X143574899Y-156693185D01*
X194826448Y-203653467D02*
X195533555Y-202946361D01*
X195230509Y-204057528D02*
X195331524Y-203350422D01*
X195937616Y-203350422D02*
X195129494Y-203350422D01*
X196543707Y-203956513D02*
X196409020Y-203821826D01*
X196409020Y-203821826D02*
X196308005Y-203788154D01*
X196308005Y-203788154D02*
X196240662Y-203788154D01*
X196240662Y-203788154D02*
X196072303Y-203821826D01*
X196072303Y-203821826D02*
X195903944Y-203922841D01*
X195903944Y-203922841D02*
X195634570Y-204192215D01*
X195634570Y-204192215D02*
X195600898Y-204293231D01*
X195600898Y-204293231D02*
X195600898Y-204360574D01*
X195600898Y-204360574D02*
X195634570Y-204461589D01*
X195634570Y-204461589D02*
X195769257Y-204596276D01*
X195769257Y-204596276D02*
X195870272Y-204629948D01*
X195870272Y-204629948D02*
X195937616Y-204629948D01*
X195937616Y-204629948D02*
X196038631Y-204596276D01*
X196038631Y-204596276D02*
X196206990Y-204427918D01*
X196206990Y-204427918D02*
X196240662Y-204326902D01*
X196240662Y-204326902D02*
X196240662Y-204259559D01*
X196240662Y-204259559D02*
X196206990Y-204158544D01*
X196206990Y-204158544D02*
X196072303Y-204023857D01*
X196072303Y-204023857D02*
X195971288Y-203990185D01*
X195971288Y-203990185D02*
X195903944Y-203990185D01*
X195903944Y-203990185D02*
X195802929Y-204023857D01*
X196240662Y-205067681D02*
X196375349Y-205202368D01*
X196375349Y-205202368D02*
X196476364Y-205236040D01*
X196476364Y-205236040D02*
X196543708Y-205236040D01*
X196543708Y-205236040D02*
X196712066Y-205202368D01*
X196712066Y-205202368D02*
X196880425Y-205101353D01*
X196880425Y-205101353D02*
X197149799Y-204831979D01*
X197149799Y-204831979D02*
X197183471Y-204730964D01*
X197183471Y-204730964D02*
X197183471Y-204663620D01*
X197183471Y-204663620D02*
X197149799Y-204562605D01*
X197149799Y-204562605D02*
X197015112Y-204427918D01*
X197015112Y-204427918D02*
X196914097Y-204394246D01*
X196914097Y-204394246D02*
X196846753Y-204394246D01*
X196846753Y-204394246D02*
X196745738Y-204427918D01*
X196745738Y-204427918D02*
X196577379Y-204596277D01*
X196577379Y-204596277D02*
X196543708Y-204697292D01*
X196543708Y-204697292D02*
X196543708Y-204764635D01*
X196543708Y-204764635D02*
X196577379Y-204865651D01*
X196577379Y-204865651D02*
X196712066Y-205000338D01*
X196712066Y-205000338D02*
X196813082Y-205034009D01*
X196813082Y-205034009D02*
X196880425Y-205034009D01*
X196880425Y-205034009D02*
X196981440Y-205000338D01*
X276124353Y-175104960D02*
X275865534Y-174139034D01*
X276676311Y-174957064D02*
X276114446Y-174516028D01*
X276417492Y-173991138D02*
X276013431Y-174690992D01*
X276739467Y-173904865D02*
X277383418Y-173732319D01*
X277383418Y-173732319D02*
X277228269Y-174809167D01*
X277730043Y-173738039D02*
X277763714Y-173679718D01*
X277763714Y-173679718D02*
X277843382Y-173609072D01*
X277843382Y-173609072D02*
X278073365Y-173547448D01*
X278073365Y-173547448D02*
X278177682Y-173568795D01*
X278177682Y-173568795D02*
X278236004Y-173602467D01*
X278236004Y-173602467D02*
X278306650Y-173682135D01*
X278306650Y-173682135D02*
X278331299Y-173774128D01*
X278331299Y-173774128D02*
X278322277Y-173924442D01*
X278322277Y-173924442D02*
X277918216Y-174624296D01*
X277918216Y-174624296D02*
X278516170Y-174464075D01*
X361908768Y-127253102D02*
X361649949Y-126287176D01*
X362460726Y-127105206D02*
X361898861Y-126664170D01*
X362201907Y-126139280D02*
X361797846Y-126839134D01*
X363116116Y-126239410D02*
X363288662Y-126883361D01*
X362787536Y-125933062D02*
X362742425Y-126684633D01*
X362742425Y-126684633D02*
X363340379Y-126524411D01*
X364036046Y-125992916D02*
X364208592Y-126636866D01*
X363707466Y-125686568D02*
X363662354Y-126438138D01*
X363662354Y-126438138D02*
X364260308Y-126277917D01*
X164120038Y-144053988D02*
X164378857Y-143088062D01*
X164671995Y-144201884D02*
X164405924Y-143539004D01*
X164930814Y-143235958D02*
X164230960Y-143640019D01*
X165252790Y-143322231D02*
X165850744Y-143482453D01*
X165850744Y-143482453D02*
X165430171Y-143764152D01*
X165430171Y-143764152D02*
X165568160Y-143801126D01*
X165568160Y-143801126D02*
X165647828Y-143871772D01*
X165647828Y-143871772D02*
X165681500Y-143930093D01*
X165681500Y-143930093D02*
X165702847Y-144034410D01*
X165702847Y-144034410D02*
X165641224Y-144264393D01*
X165641224Y-144264393D02*
X165570578Y-144344061D01*
X165570578Y-144344061D02*
X165512256Y-144377733D01*
X165512256Y-144377733D02*
X165407939Y-144399080D01*
X165407939Y-144399080D02*
X165131960Y-144325131D01*
X165131960Y-144325131D02*
X165052292Y-144254486D01*
X165052292Y-144254486D02*
X165018620Y-144196164D01*
X166172719Y-143568726D02*
X166816670Y-143741272D01*
X166816670Y-143741272D02*
X166143882Y-144596275D01*
X261332843Y-119902299D02*
X261074024Y-118936373D01*
X261884801Y-119754403D02*
X261322936Y-119313367D01*
X261625982Y-118788477D02*
X261221921Y-119488331D01*
X262018603Y-118781872D02*
X262052275Y-118723551D01*
X262052275Y-118723551D02*
X262131943Y-118652905D01*
X262131943Y-118652905D02*
X262361925Y-118591281D01*
X262361925Y-118591281D02*
X262466243Y-118612628D01*
X262466243Y-118612628D02*
X262524564Y-118646300D01*
X262524564Y-118646300D02*
X262595210Y-118725968D01*
X262595210Y-118725968D02*
X262619860Y-118817961D01*
X262619860Y-118817961D02*
X262610837Y-118968275D01*
X262610837Y-118968275D02*
X262206776Y-119668130D01*
X262206776Y-119668130D02*
X262804730Y-119507908D01*
X262867887Y-118455709D02*
X263465841Y-118295488D01*
X263465841Y-118295488D02*
X263242463Y-118749733D01*
X263242463Y-118749733D02*
X263380453Y-118712759D01*
X263380453Y-118712759D02*
X263484770Y-118734106D01*
X263484770Y-118734106D02*
X263543091Y-118767778D01*
X263543091Y-118767778D02*
X263613737Y-118847446D01*
X263613737Y-118847446D02*
X263675361Y-119077428D01*
X263675361Y-119077428D02*
X263654014Y-119181746D01*
X263654014Y-119181746D02*
X263620342Y-119240067D01*
X263620342Y-119240067D02*
X263540674Y-119310713D01*
X263540674Y-119310713D02*
X263264695Y-119384661D01*
X263264695Y-119384661D02*
X263160377Y-119363314D01*
X263160377Y-119363314D02*
X263102056Y-119329642D01*
X271196700Y-156690161D02*
X270937881Y-155724235D01*
X271748658Y-156542265D02*
X271186793Y-156101229D01*
X271489839Y-155576339D02*
X271085778Y-156276193D01*
X272363772Y-155342169D02*
X271903807Y-155465416D01*
X271903807Y-155465416D02*
X271981058Y-155937706D01*
X271981058Y-155937706D02*
X272014730Y-155879385D01*
X272014730Y-155879385D02*
X272094398Y-155808739D01*
X272094398Y-155808739D02*
X272324380Y-155747115D01*
X272324380Y-155747115D02*
X272428698Y-155768462D01*
X272428698Y-155768462D02*
X272487019Y-155802134D01*
X272487019Y-155802134D02*
X272557665Y-155881802D01*
X272557665Y-155881802D02*
X272619288Y-156111784D01*
X272619288Y-156111784D02*
X272597941Y-156216102D01*
X272597941Y-156216102D02*
X272564270Y-156274423D01*
X272564270Y-156274423D02*
X272484601Y-156345069D01*
X272484601Y-156345069D02*
X272254619Y-156406693D01*
X272254619Y-156406693D02*
X272150301Y-156385346D01*
X272150301Y-156385346D02*
X272091980Y-156351674D01*
X273283701Y-155095675D02*
X272823737Y-155218922D01*
X272823737Y-155218922D02*
X272900987Y-155691211D01*
X272900987Y-155691211D02*
X272934659Y-155632890D01*
X272934659Y-155632890D02*
X273014327Y-155562244D01*
X273014327Y-155562244D02*
X273244310Y-155500621D01*
X273244310Y-155500621D02*
X273348627Y-155521968D01*
X273348627Y-155521968D02*
X273406948Y-155555640D01*
X273406948Y-155555640D02*
X273477594Y-155635308D01*
X273477594Y-155635308D02*
X273539218Y-155865290D01*
X273539218Y-155865290D02*
X273517871Y-155969608D01*
X273517871Y-155969608D02*
X273484199Y-156027929D01*
X273484199Y-156027929D02*
X273404531Y-156098575D01*
X273404531Y-156098575D02*
X273174549Y-156160198D01*
X273174549Y-156160198D02*
X273070231Y-156138851D01*
X273070231Y-156138851D02*
X273011910Y-156105180D01*
X248259743Y-144691845D02*
X248000924Y-143725919D01*
X248811701Y-144543949D02*
X248249836Y-144102913D01*
X248552882Y-143578023D02*
X248148821Y-144277877D01*
X248874857Y-143491750D02*
X249472811Y-143331528D01*
X249472811Y-143331528D02*
X249249434Y-143785773D01*
X249249434Y-143785773D02*
X249387423Y-143748799D01*
X249387423Y-143748799D02*
X249491741Y-143770146D01*
X249491741Y-143770146D02*
X249550062Y-143803818D01*
X249550062Y-143803818D02*
X249620708Y-143883486D01*
X249620708Y-143883486D02*
X249682331Y-144113468D01*
X249682331Y-144113468D02*
X249660984Y-144217786D01*
X249660984Y-144217786D02*
X249627313Y-144276107D01*
X249627313Y-144276107D02*
X249547644Y-144346753D01*
X249547644Y-144346753D02*
X249271666Y-144420701D01*
X249271666Y-144420701D02*
X249167348Y-144399354D01*
X249167348Y-144399354D02*
X249109027Y-144365683D01*
X250135691Y-143597600D02*
X250031374Y-143576253D01*
X250031374Y-143576253D02*
X249973053Y-143542581D01*
X249973053Y-143542581D02*
X249902407Y-143462913D01*
X249902407Y-143462913D02*
X249890082Y-143416917D01*
X249890082Y-143416917D02*
X249911429Y-143312599D01*
X249911429Y-143312599D02*
X249945101Y-143254278D01*
X249945101Y-143254278D02*
X250024769Y-143183632D01*
X250024769Y-143183632D02*
X250208755Y-143134333D01*
X250208755Y-143134333D02*
X250313072Y-143155680D01*
X250313072Y-143155680D02*
X250371394Y-143189352D01*
X250371394Y-143189352D02*
X250442040Y-143269020D01*
X250442040Y-143269020D02*
X250454364Y-143315016D01*
X250454364Y-143315016D02*
X250433017Y-143419334D01*
X250433017Y-143419334D02*
X250399345Y-143477655D01*
X250399345Y-143477655D02*
X250319677Y-143548301D01*
X250319677Y-143548301D02*
X250135691Y-143597600D01*
X250135691Y-143597600D02*
X250056023Y-143668246D01*
X250056023Y-143668246D02*
X250022351Y-143726567D01*
X250022351Y-143726567D02*
X250001004Y-143830885D01*
X250001004Y-143830885D02*
X250050303Y-144014871D01*
X250050303Y-144014871D02*
X250120949Y-144094539D01*
X250120949Y-144094539D02*
X250179270Y-144128211D01*
X250179270Y-144128211D02*
X250283588Y-144149558D01*
X250283588Y-144149558D02*
X250467574Y-144100259D01*
X250467574Y-144100259D02*
X250547242Y-144029613D01*
X250547242Y-144029613D02*
X250580914Y-143971292D01*
X250580914Y-143971292D02*
X250602261Y-143866974D01*
X250602261Y-143866974D02*
X250552962Y-143682988D01*
X250552962Y-143682988D02*
X250482316Y-143603320D01*
X250482316Y-143603320D02*
X250423995Y-143569648D01*
X250423995Y-143569648D02*
X250319677Y-143548301D01*
X151044093Y-119250532D02*
X151302912Y-118284606D01*
X151596050Y-119398428D02*
X151329979Y-118735548D01*
X151854869Y-118432502D02*
X151155015Y-118836563D01*
X152198192Y-118623093D02*
X152256513Y-118589421D01*
X152256513Y-118589421D02*
X152360830Y-118568074D01*
X152360830Y-118568074D02*
X152590813Y-118629698D01*
X152590813Y-118629698D02*
X152670481Y-118700344D01*
X152670481Y-118700344D02*
X152704153Y-118758665D01*
X152704153Y-118758665D02*
X152725500Y-118862983D01*
X152725500Y-118862983D02*
X152700850Y-118954976D01*
X152700850Y-118954976D02*
X152617880Y-119080640D01*
X152617880Y-119080640D02*
X151918026Y-119484701D01*
X151918026Y-119484701D02*
X152515980Y-119644923D01*
X153372753Y-118839218D02*
X153464746Y-118863868D01*
X153464746Y-118863868D02*
X153544414Y-118934513D01*
X153544414Y-118934513D02*
X153578086Y-118992835D01*
X153578086Y-118992835D02*
X153599433Y-119097152D01*
X153599433Y-119097152D02*
X153596130Y-119293463D01*
X153596130Y-119293463D02*
X153534507Y-119523445D01*
X153534507Y-119523445D02*
X153439211Y-119695106D01*
X153439211Y-119695106D02*
X153368566Y-119774775D01*
X153368566Y-119774775D02*
X153310244Y-119808446D01*
X153310244Y-119808446D02*
X153205927Y-119829793D01*
X153205927Y-119829793D02*
X153113934Y-119805144D01*
X153113934Y-119805144D02*
X153034266Y-119734498D01*
X153034266Y-119734498D02*
X153000594Y-119676177D01*
X153000594Y-119676177D02*
X152979247Y-119571859D01*
X152979247Y-119571859D02*
X152982549Y-119375549D01*
X152982549Y-119375549D02*
X153044173Y-119145566D01*
X153044173Y-119145566D02*
X153139468Y-118973905D01*
X153139468Y-118973905D02*
X153210114Y-118894237D01*
X153210114Y-118894237D02*
X153268435Y-118860565D01*
X153268435Y-118860565D02*
X153372753Y-118839218D01*
X180064189Y-158189472D02*
X180323008Y-157223546D01*
X180616146Y-158337368D02*
X180350075Y-157674488D01*
X180874965Y-157371442D02*
X180175111Y-157775503D01*
X181702902Y-157593287D02*
X181518916Y-157543988D01*
X181518916Y-157543988D02*
X181414598Y-157565336D01*
X181414598Y-157565336D02*
X181356277Y-157599007D01*
X181356277Y-157599007D02*
X181227310Y-157712347D01*
X181227310Y-157712347D02*
X181132015Y-157884008D01*
X181132015Y-157884008D02*
X181033417Y-158251980D01*
X181033417Y-158251980D02*
X181054764Y-158356298D01*
X181054764Y-158356298D02*
X181088436Y-158414619D01*
X181088436Y-158414619D02*
X181168104Y-158485265D01*
X181168104Y-158485265D02*
X181352090Y-158534564D01*
X181352090Y-158534564D02*
X181456407Y-158513217D01*
X181456407Y-158513217D02*
X181514729Y-158479545D01*
X181514729Y-158479545D02*
X181585375Y-158399877D01*
X181585375Y-158399877D02*
X181646998Y-158169894D01*
X181646998Y-158169894D02*
X181625651Y-158065577D01*
X181625651Y-158065577D02*
X181591979Y-158007256D01*
X181591979Y-158007256D02*
X181512311Y-157936610D01*
X181512311Y-157936610D02*
X181328325Y-157887311D01*
X181328325Y-157887311D02*
X181224008Y-157908658D01*
X181224008Y-157908658D02*
X181165686Y-157942330D01*
X181165686Y-157942330D02*
X181095040Y-158021998D01*
X182392849Y-157778158D02*
X182484842Y-157802808D01*
X182484842Y-157802808D02*
X182564510Y-157873453D01*
X182564510Y-157873453D02*
X182598182Y-157931775D01*
X182598182Y-157931775D02*
X182619529Y-158036092D01*
X182619529Y-158036092D02*
X182616226Y-158232403D01*
X182616226Y-158232403D02*
X182554603Y-158462385D01*
X182554603Y-158462385D02*
X182459307Y-158634046D01*
X182459307Y-158634046D02*
X182388662Y-158713715D01*
X182388662Y-158713715D02*
X182330340Y-158747386D01*
X182330340Y-158747386D02*
X182226023Y-158768733D01*
X182226023Y-158768733D02*
X182134030Y-158744084D01*
X182134030Y-158744084D02*
X182054362Y-158673438D01*
X182054362Y-158673438D02*
X182020690Y-158615117D01*
X182020690Y-158615117D02*
X181999343Y-158510799D01*
X181999343Y-158510799D02*
X182002645Y-158314489D01*
X182002645Y-158314489D02*
X182064269Y-158084506D01*
X182064269Y-158084506D02*
X182159564Y-157912845D01*
X182159564Y-157912845D02*
X182230210Y-157833177D01*
X182230210Y-157833177D02*
X182288531Y-157799505D01*
X182288531Y-157799505D02*
X182392849Y-157778158D01*
X169050543Y-125653106D02*
X169309362Y-124687180D01*
X169602500Y-125801002D02*
X169336429Y-125138122D01*
X169861319Y-124835076D02*
X169161465Y-125239137D01*
X170204642Y-125025667D02*
X170262963Y-124991995D01*
X170262963Y-124991995D02*
X170367280Y-124970648D01*
X170367280Y-124970648D02*
X170597263Y-125032272D01*
X170597263Y-125032272D02*
X170676931Y-125102918D01*
X170676931Y-125102918D02*
X170710603Y-125161239D01*
X170710603Y-125161239D02*
X170731950Y-125265557D01*
X170731950Y-125265557D02*
X170707300Y-125357550D01*
X170707300Y-125357550D02*
X170624330Y-125483214D01*
X170624330Y-125483214D02*
X169924476Y-125887275D01*
X169924476Y-125887275D02*
X170522430Y-126047497D01*
X171442359Y-126293991D02*
X170890401Y-126146094D01*
X171166380Y-126220043D02*
X171425199Y-125254117D01*
X171425199Y-125254117D02*
X171296232Y-125367457D01*
X171296232Y-125367457D02*
X171179590Y-125434800D01*
X171179590Y-125434800D02*
X171075272Y-125456147D01*
X289200295Y-150301494D02*
X288941476Y-149335568D01*
X289752253Y-150153598D02*
X289190388Y-149712562D01*
X289493434Y-149187672D02*
X289089373Y-149887526D01*
X290367367Y-148953502D02*
X289907402Y-149076749D01*
X289907402Y-149076749D02*
X289984653Y-149549039D01*
X289984653Y-149549039D02*
X290018325Y-149490718D01*
X290018325Y-149490718D02*
X290097993Y-149420072D01*
X290097993Y-149420072D02*
X290327975Y-149358448D01*
X290327975Y-149358448D02*
X290432293Y-149379795D01*
X290432293Y-149379795D02*
X290490614Y-149413467D01*
X290490614Y-149413467D02*
X290561260Y-149493135D01*
X290561260Y-149493135D02*
X290622883Y-149723117D01*
X290622883Y-149723117D02*
X290601536Y-149827435D01*
X290601536Y-149827435D02*
X290567865Y-149885756D01*
X290567865Y-149885756D02*
X290488196Y-149956402D01*
X290488196Y-149956402D02*
X290258214Y-150018026D01*
X290258214Y-150018026D02*
X290153896Y-149996679D01*
X290153896Y-149996679D02*
X290095575Y-149963007D01*
X291241300Y-148719333D02*
X291057314Y-148768631D01*
X291057314Y-148768631D02*
X290977646Y-148839277D01*
X290977646Y-148839277D02*
X290943974Y-148897599D01*
X290943974Y-148897599D02*
X290888955Y-149060237D01*
X290888955Y-149060237D02*
X290892258Y-149256548D01*
X290892258Y-149256548D02*
X290990855Y-149624520D01*
X290990855Y-149624520D02*
X291061501Y-149704188D01*
X291061501Y-149704188D02*
X291119822Y-149737860D01*
X291119822Y-149737860D02*
X291224140Y-149759207D01*
X291224140Y-149759207D02*
X291408126Y-149709908D01*
X291408126Y-149709908D02*
X291487794Y-149639262D01*
X291487794Y-149639262D02*
X291521466Y-149580941D01*
X291521466Y-149580941D02*
X291542813Y-149476623D01*
X291542813Y-149476623D02*
X291481189Y-149246641D01*
X291481189Y-149246641D02*
X291410543Y-149166973D01*
X291410543Y-149166973D02*
X291352222Y-149133301D01*
X291352222Y-149133301D02*
X291247905Y-149111954D01*
X291247905Y-149111954D02*
X291063919Y-149161253D01*
X291063919Y-149161253D02*
X290984250Y-149231899D01*
X290984250Y-149231899D02*
X290950579Y-149290220D01*
X290950579Y-149290220D02*
X290929232Y-149394537D01*
X294127954Y-168716295D02*
X293869135Y-167750369D01*
X294679912Y-168568399D02*
X294118047Y-168127363D01*
X294421093Y-167602473D02*
X294017032Y-168302327D01*
X294743068Y-167516200D02*
X295387019Y-167343654D01*
X295387019Y-167343654D02*
X295231870Y-168420502D01*
X295662998Y-167269705D02*
X296260952Y-167109484D01*
X296260952Y-167109484D02*
X296037574Y-167563729D01*
X296037574Y-167563729D02*
X296175564Y-167526755D01*
X296175564Y-167526755D02*
X296279881Y-167548102D01*
X296279881Y-167548102D02*
X296338202Y-167581774D01*
X296338202Y-167581774D02*
X296408848Y-167661442D01*
X296408848Y-167661442D02*
X296470472Y-167891424D01*
X296470472Y-167891424D02*
X296449125Y-167995742D01*
X296449125Y-167995742D02*
X296415453Y-168054063D01*
X296415453Y-168054063D02*
X296335785Y-168124709D01*
X296335785Y-168124709D02*
X296059806Y-168198657D01*
X296059806Y-168198657D02*
X295955488Y-168177310D01*
X295955488Y-168177310D02*
X295897167Y-168143638D01*
X176037045Y-189533224D02*
X176537045Y-188667199D01*
X176531916Y-189818939D02*
X176446477Y-189109781D01*
X177031916Y-188952913D02*
X176251330Y-189162071D01*
X177774224Y-189381485D02*
X177609267Y-189286247D01*
X177609267Y-189286247D02*
X177502978Y-189279867D01*
X177502978Y-189279867D02*
X177437930Y-189297297D01*
X177437930Y-189297297D02*
X177284022Y-189373396D01*
X177284022Y-189373396D02*
X177147545Y-189514543D01*
X177147545Y-189514543D02*
X176957069Y-189844458D01*
X176957069Y-189844458D02*
X176950689Y-189950746D01*
X176950689Y-189950746D02*
X176968119Y-190015795D01*
X176968119Y-190015795D02*
X177026788Y-190104653D01*
X177026788Y-190104653D02*
X177191745Y-190199891D01*
X177191745Y-190199891D02*
X177298033Y-190206271D01*
X177298033Y-190206271D02*
X177363082Y-190188841D01*
X177363082Y-190188841D02*
X177451941Y-190130172D01*
X177451941Y-190130172D02*
X177570988Y-189923975D01*
X177570988Y-189923975D02*
X177577368Y-189817687D01*
X177577368Y-189817687D02*
X177559938Y-189752639D01*
X177559938Y-189752639D02*
X177501269Y-189663780D01*
X177501269Y-189663780D02*
X177336312Y-189568542D01*
X177336312Y-189568542D02*
X177230024Y-189562162D01*
X177230024Y-189562162D02*
X177164975Y-189579592D01*
X177164975Y-189579592D02*
X177076116Y-189638261D01*
X177769096Y-190533224D02*
X177934053Y-190628463D01*
X177934053Y-190628463D02*
X178040341Y-190634842D01*
X178040341Y-190634842D02*
X178105390Y-190617413D01*
X178105390Y-190617413D02*
X178259297Y-190541314D01*
X178259297Y-190541314D02*
X178395774Y-190400166D01*
X178395774Y-190400166D02*
X178586250Y-190070252D01*
X178586250Y-190070252D02*
X178592630Y-189963963D01*
X178592630Y-189963963D02*
X178575200Y-189898915D01*
X178575200Y-189898915D02*
X178516531Y-189810056D01*
X178516531Y-189810056D02*
X178351574Y-189714818D01*
X178351574Y-189714818D02*
X178245286Y-189708438D01*
X178245286Y-189708438D02*
X178180237Y-189725868D01*
X178180237Y-189725868D02*
X178091379Y-189784537D01*
X178091379Y-189784537D02*
X177972331Y-189990734D01*
X177972331Y-189990734D02*
X177965951Y-190097022D01*
X177965951Y-190097022D02*
X177983381Y-190162071D01*
X177983381Y-190162071D02*
X178042050Y-190250929D01*
X178042050Y-190250929D02*
X178207008Y-190346167D01*
X178207008Y-190346167D02*
X178313296Y-190352547D01*
X178313296Y-190352547D02*
X178378344Y-190335117D01*
X178378344Y-190335117D02*
X178467203Y-190276448D01*
X253187408Y-163106647D02*
X252928589Y-162140721D01*
X253739366Y-162958751D02*
X253177501Y-162517715D01*
X253480547Y-161992825D02*
X253076486Y-162692679D01*
X254354480Y-161758655D02*
X253894515Y-161881902D01*
X253894515Y-161881902D02*
X253971766Y-162354192D01*
X253971766Y-162354192D02*
X254005438Y-162295871D01*
X254005438Y-162295871D02*
X254085106Y-162225225D01*
X254085106Y-162225225D02*
X254315088Y-162163601D01*
X254315088Y-162163601D02*
X254419406Y-162184948D01*
X254419406Y-162184948D02*
X254477727Y-162218620D01*
X254477727Y-162218620D02*
X254548373Y-162298288D01*
X254548373Y-162298288D02*
X254609996Y-162528270D01*
X254609996Y-162528270D02*
X254588649Y-162632588D01*
X254588649Y-162632588D02*
X254554978Y-162690909D01*
X254554978Y-162690909D02*
X254475309Y-162761555D01*
X254475309Y-162761555D02*
X254245327Y-162823179D01*
X254245327Y-162823179D02*
X254141009Y-162801832D01*
X254141009Y-162801832D02*
X254082688Y-162768160D01*
X255314686Y-161846461D02*
X255487232Y-162490411D01*
X254986106Y-161540113D02*
X254940994Y-162291683D01*
X254940994Y-162291683D02*
X255538948Y-162131462D01*
X154259035Y-180855764D02*
X154517854Y-179889838D01*
X154810992Y-181003660D02*
X154544921Y-180340780D01*
X155069811Y-180037734D02*
X154369957Y-180441795D01*
X155897748Y-180259579D02*
X155713762Y-180210280D01*
X155713762Y-180210280D02*
X155609444Y-180231628D01*
X155609444Y-180231628D02*
X155551123Y-180265299D01*
X155551123Y-180265299D02*
X155422156Y-180378639D01*
X155422156Y-180378639D02*
X155326861Y-180550300D01*
X155326861Y-180550300D02*
X155228263Y-180918272D01*
X155228263Y-180918272D02*
X155249610Y-181022590D01*
X155249610Y-181022590D02*
X155283282Y-181080911D01*
X155283282Y-181080911D02*
X155362950Y-181151557D01*
X155362950Y-181151557D02*
X155546936Y-181200856D01*
X155546936Y-181200856D02*
X155651253Y-181179509D01*
X155651253Y-181179509D02*
X155709575Y-181145837D01*
X155709575Y-181145837D02*
X155780221Y-181066169D01*
X155780221Y-181066169D02*
X155841844Y-180836186D01*
X155841844Y-180836186D02*
X155820497Y-180731869D01*
X155820497Y-180731869D02*
X155786825Y-180673548D01*
X155786825Y-180673548D02*
X155707157Y-180602902D01*
X155707157Y-180602902D02*
X155523171Y-180553603D01*
X155523171Y-180553603D02*
X155418854Y-180574950D01*
X155418854Y-180574950D02*
X155360532Y-180608622D01*
X155360532Y-180608622D02*
X155289886Y-180688290D01*
X156430776Y-180846094D02*
X156351108Y-180775448D01*
X156351108Y-180775448D02*
X156317436Y-180717127D01*
X156317436Y-180717127D02*
X156296089Y-180612809D01*
X156296089Y-180612809D02*
X156308414Y-180566812D01*
X156308414Y-180566812D02*
X156379060Y-180487144D01*
X156379060Y-180487144D02*
X156437381Y-180453472D01*
X156437381Y-180453472D02*
X156541698Y-180432125D01*
X156541698Y-180432125D02*
X156725684Y-180481424D01*
X156725684Y-180481424D02*
X156805352Y-180552070D01*
X156805352Y-180552070D02*
X156839024Y-180610391D01*
X156839024Y-180610391D02*
X156860371Y-180714709D01*
X156860371Y-180714709D02*
X156848047Y-180760705D01*
X156848047Y-180760705D02*
X156777401Y-180840374D01*
X156777401Y-180840374D02*
X156719079Y-180874045D01*
X156719079Y-180874045D02*
X156614762Y-180895392D01*
X156614762Y-180895392D02*
X156430776Y-180846094D01*
X156430776Y-180846094D02*
X156326458Y-180867441D01*
X156326458Y-180867441D02*
X156268137Y-180901112D01*
X156268137Y-180901112D02*
X156197491Y-180980781D01*
X156197491Y-180980781D02*
X156148192Y-181164766D01*
X156148192Y-181164766D02*
X156169539Y-181269084D01*
X156169539Y-181269084D02*
X156203211Y-181327405D01*
X156203211Y-181327405D02*
X156282879Y-181398051D01*
X156282879Y-181398051D02*
X156466865Y-181447350D01*
X156466865Y-181447350D02*
X156571183Y-181426003D01*
X156571183Y-181426003D02*
X156629504Y-181392331D01*
X156629504Y-181392331D02*
X156700150Y-181312663D01*
X156700150Y-181312663D02*
X156749449Y-181128677D01*
X156749449Y-181128677D02*
X156728102Y-181024360D01*
X156728102Y-181024360D02*
X156694430Y-180966038D01*
X156694430Y-180966038D02*
X156614762Y-180895392D01*
X279339296Y-113499726D02*
X279080477Y-112533800D01*
X279891254Y-113351830D02*
X279329389Y-112910794D01*
X279632435Y-112385904D02*
X279228374Y-113085758D01*
X280025056Y-112379299D02*
X280058728Y-112320978D01*
X280058728Y-112320978D02*
X280138396Y-112250332D01*
X280138396Y-112250332D02*
X280368378Y-112188708D01*
X280368378Y-112188708D02*
X280472696Y-112210055D01*
X280472696Y-112210055D02*
X280531017Y-112243727D01*
X280531017Y-112243727D02*
X280601663Y-112323395D01*
X280601663Y-112323395D02*
X280626313Y-112415388D01*
X280626313Y-112415388D02*
X280617290Y-112565702D01*
X280617290Y-112565702D02*
X280213229Y-113265557D01*
X280213229Y-113265557D02*
X280811183Y-113105335D01*
X281466574Y-112239540D02*
X281639120Y-112883490D01*
X281137994Y-111933192D02*
X281092882Y-112684762D01*
X281092882Y-112684762D02*
X281690836Y-112524541D01*
X114232904Y-109400146D02*
X114491723Y-108434220D01*
X114784861Y-109548042D02*
X114518790Y-108885162D01*
X115043680Y-108582116D02*
X114343826Y-108986177D01*
X115704791Y-109794537D02*
X115152833Y-109646640D01*
X115428812Y-109720588D02*
X115687631Y-108754662D01*
X115687631Y-108754662D02*
X115558664Y-108868002D01*
X115558664Y-108868002D02*
X115442021Y-108935346D01*
X115442021Y-108935346D02*
X115337704Y-108956693D01*
X116404645Y-109390476D02*
X116324977Y-109319830D01*
X116324977Y-109319830D02*
X116291305Y-109261509D01*
X116291305Y-109261509D02*
X116269958Y-109157191D01*
X116269958Y-109157191D02*
X116282283Y-109111194D01*
X116282283Y-109111194D02*
X116352929Y-109031526D01*
X116352929Y-109031526D02*
X116411250Y-108997854D01*
X116411250Y-108997854D02*
X116515567Y-108976507D01*
X116515567Y-108976507D02*
X116699553Y-109025806D01*
X116699553Y-109025806D02*
X116779221Y-109096452D01*
X116779221Y-109096452D02*
X116812893Y-109154773D01*
X116812893Y-109154773D02*
X116834240Y-109259091D01*
X116834240Y-109259091D02*
X116821916Y-109305087D01*
X116821916Y-109305087D02*
X116751270Y-109384756D01*
X116751270Y-109384756D02*
X116692948Y-109418427D01*
X116692948Y-109418427D02*
X116588631Y-109439774D01*
X116588631Y-109439774D02*
X116404645Y-109390476D01*
X116404645Y-109390476D02*
X116300327Y-109411823D01*
X116300327Y-109411823D02*
X116242006Y-109445494D01*
X116242006Y-109445494D02*
X116171360Y-109525163D01*
X116171360Y-109525163D02*
X116122061Y-109709148D01*
X116122061Y-109709148D02*
X116143408Y-109813466D01*
X116143408Y-109813466D02*
X116177080Y-109871787D01*
X116177080Y-109871787D02*
X116256748Y-109942433D01*
X116256748Y-109942433D02*
X116440734Y-109991732D01*
X116440734Y-109991732D02*
X116545052Y-109970385D01*
X116545052Y-109970385D02*
X116603373Y-109936713D01*
X116603373Y-109936713D02*
X116674019Y-109857045D01*
X116674019Y-109857045D02*
X116723318Y-109673059D01*
X116723318Y-109673059D02*
X116701971Y-109568742D01*
X116701971Y-109568742D02*
X116668299Y-109510420D01*
X116668299Y-109510420D02*
X116588631Y-109439774D01*
X156434562Y-100972894D02*
X156693381Y-100006968D01*
X156986519Y-101120791D02*
X156720448Y-100457911D01*
X157245339Y-100154865D02*
X156545484Y-100558926D01*
X157987002Y-100698685D02*
X157814456Y-101342635D01*
X157855617Y-100269090D02*
X157440764Y-100897413D01*
X157440764Y-100897413D02*
X158038718Y-101057634D01*
X80242201Y-162627071D02*
X80501020Y-161661145D01*
X80794158Y-162774967D02*
X80528087Y-162112087D01*
X81052977Y-161809041D02*
X80353123Y-162213102D01*
X81880914Y-162030886D02*
X81696928Y-161981587D01*
X81696928Y-161981587D02*
X81592610Y-162002935D01*
X81592610Y-162002935D02*
X81534289Y-162036606D01*
X81534289Y-162036606D02*
X81405322Y-162149946D01*
X81405322Y-162149946D02*
X81310027Y-162321607D01*
X81310027Y-162321607D02*
X81211429Y-162689579D01*
X81211429Y-162689579D02*
X81232776Y-162793897D01*
X81232776Y-162793897D02*
X81266448Y-162852218D01*
X81266448Y-162852218D02*
X81346116Y-162922864D01*
X81346116Y-162922864D02*
X81530102Y-162972163D01*
X81530102Y-162972163D02*
X81634419Y-162950816D01*
X81634419Y-162950816D02*
X81692741Y-162917144D01*
X81692741Y-162917144D02*
X81763387Y-162837476D01*
X81763387Y-162837476D02*
X81825010Y-162607493D01*
X81825010Y-162607493D02*
X81803663Y-162503176D01*
X81803663Y-162503176D02*
X81769991Y-162444855D01*
X81769991Y-162444855D02*
X81690323Y-162374209D01*
X81690323Y-162374209D02*
X81506337Y-162324910D01*
X81506337Y-162324910D02*
X81402020Y-162346257D01*
X81402020Y-162346257D02*
X81343698Y-162379929D01*
X81343698Y-162379929D02*
X81273052Y-162459597D01*
X82714570Y-162599356D02*
X82542024Y-163243307D01*
X82583186Y-162169761D02*
X82168332Y-162798084D01*
X82168332Y-162798084D02*
X82766287Y-162958305D01*
X345974848Y-141376348D02*
X345716029Y-140410422D01*
X346526806Y-141228452D02*
X345964941Y-140787416D01*
X346267987Y-140262526D02*
X345863926Y-140962380D01*
X347141920Y-140028356D02*
X346681955Y-140151603D01*
X346681955Y-140151603D02*
X346759206Y-140623893D01*
X346759206Y-140623893D02*
X346792878Y-140565572D01*
X346792878Y-140565572D02*
X346872546Y-140494926D01*
X346872546Y-140494926D02*
X347102528Y-140433302D01*
X347102528Y-140433302D02*
X347206846Y-140454649D01*
X347206846Y-140454649D02*
X347265167Y-140488321D01*
X347265167Y-140488321D02*
X347335813Y-140567989D01*
X347335813Y-140567989D02*
X347397436Y-140797971D01*
X347397436Y-140797971D02*
X347376089Y-140902289D01*
X347376089Y-140902289D02*
X347342418Y-140960610D01*
X347342418Y-140960610D02*
X347262749Y-141031256D01*
X347262749Y-141031256D02*
X347032767Y-141092880D01*
X347032767Y-141092880D02*
X346928449Y-141071533D01*
X346928449Y-141071533D02*
X346870128Y-141037861D01*
X347906700Y-140858710D02*
X348090686Y-140809411D01*
X348090686Y-140809411D02*
X348170354Y-140738765D01*
X348170354Y-140738765D02*
X348204026Y-140680444D01*
X348204026Y-140680444D02*
X348259045Y-140517805D01*
X348259045Y-140517805D02*
X348255742Y-140321495D01*
X348255742Y-140321495D02*
X348157145Y-139953523D01*
X348157145Y-139953523D02*
X348086499Y-139873855D01*
X348086499Y-139873855D02*
X348028177Y-139840183D01*
X348028177Y-139840183D02*
X347923860Y-139818836D01*
X347923860Y-139818836D02*
X347739874Y-139868135D01*
X347739874Y-139868135D02*
X347660206Y-139938781D01*
X347660206Y-139938781D02*
X347626534Y-139997102D01*
X347626534Y-139997102D02*
X347605187Y-140101420D01*
X347605187Y-140101420D02*
X347666811Y-140331402D01*
X347666811Y-140331402D02*
X347737456Y-140411070D01*
X347737456Y-140411070D02*
X347795778Y-140444742D01*
X347795778Y-140444742D02*
X347900095Y-140466089D01*
X347900095Y-140466089D02*
X348084081Y-140416790D01*
X348084081Y-140416790D02*
X348163749Y-140346144D01*
X348163749Y-140346144D02*
X348197421Y-140287823D01*
X348197421Y-140287823D02*
X348218768Y-140183505D01*
X205937110Y-232239415D02*
X205678291Y-231273490D01*
X205801538Y-231733454D02*
X206353496Y-231585558D01*
X206489067Y-232091519D02*
X206230248Y-231125593D01*
X207190454Y-231213399D02*
X207363000Y-231857349D01*
X206861874Y-230907051D02*
X206816763Y-231658621D01*
X206816763Y-231658621D02*
X207414717Y-231498400D01*
X203706850Y-239462780D02*
X203448031Y-238496854D01*
X203448031Y-238496854D02*
X203954877Y-239100528D01*
X203954877Y-239100528D02*
X204091981Y-238324308D01*
X204091981Y-238324308D02*
X204350800Y-239290234D01*
X204948754Y-239130013D02*
X204844437Y-239108666D01*
X204844437Y-239108666D02*
X204786116Y-239074994D01*
X204786116Y-239074994D02*
X204715470Y-238995326D01*
X204715470Y-238995326D02*
X204641521Y-238719347D01*
X204641521Y-238719347D02*
X204662868Y-238615029D01*
X204662868Y-238615029D02*
X204696540Y-238556708D01*
X204696540Y-238556708D02*
X204776208Y-238486062D01*
X204776208Y-238486062D02*
X204914198Y-238449088D01*
X204914198Y-238449088D02*
X205018515Y-238470435D01*
X205018515Y-238470435D02*
X205076837Y-238504107D01*
X205076837Y-238504107D02*
X205147482Y-238583775D01*
X205147482Y-238583775D02*
X205221431Y-238859754D01*
X205221431Y-238859754D02*
X205200084Y-238964072D01*
X205200084Y-238964072D02*
X205166412Y-239022393D01*
X205166412Y-239022393D02*
X205086744Y-239093039D01*
X205086744Y-239093039D02*
X204948754Y-239130013D01*
X205926120Y-238177944D02*
X206098666Y-238821895D01*
X205512152Y-238288867D02*
X205647724Y-238794828D01*
X205647724Y-238794828D02*
X205718370Y-238874496D01*
X205718370Y-238874496D02*
X205822687Y-238895843D01*
X205822687Y-238895843D02*
X205960677Y-238858869D01*
X205960677Y-238858869D02*
X206040345Y-238788223D01*
X206040345Y-238788223D02*
X206074017Y-238729902D01*
X206386085Y-238054697D02*
X206558631Y-238698648D01*
X206410734Y-238146690D02*
X206444406Y-238088369D01*
X206444406Y-238088369D02*
X206524074Y-238017723D01*
X206524074Y-238017723D02*
X206662064Y-237980749D01*
X206662064Y-237980749D02*
X206766381Y-238002096D01*
X206766381Y-238002096D02*
X206837027Y-238081764D01*
X206837027Y-238081764D02*
X206972599Y-238587725D01*
X207122028Y-237857502D02*
X207490000Y-237758904D01*
X207173745Y-237498552D02*
X207395590Y-238326489D01*
X207395590Y-238326489D02*
X207466236Y-238406157D01*
X207466236Y-238406157D02*
X207570553Y-238427504D01*
X207570553Y-238427504D02*
X207662546Y-238402854D01*
X207984522Y-238316581D02*
X207811976Y-237672631D01*
X207725703Y-237350655D02*
X207692031Y-237408977D01*
X207692031Y-237408977D02*
X207750352Y-237442648D01*
X207750352Y-237442648D02*
X207784024Y-237384327D01*
X207784024Y-237384327D02*
X207725703Y-237350655D01*
X207725703Y-237350655D02*
X207750352Y-237442648D01*
X208271940Y-237549384D02*
X208444486Y-238193334D01*
X208296590Y-237641377D02*
X208330261Y-237583055D01*
X208330261Y-237583055D02*
X208409930Y-237512410D01*
X208409930Y-237512410D02*
X208547919Y-237475435D01*
X208547919Y-237475435D02*
X208652237Y-237496782D01*
X208652237Y-237496782D02*
X208722882Y-237576451D01*
X208722882Y-237576451D02*
X208858454Y-238082412D01*
X209559841Y-237204292D02*
X209769361Y-237986232D01*
X209769361Y-237986232D02*
X209748014Y-238090549D01*
X209748014Y-238090549D02*
X209714343Y-238148870D01*
X209714343Y-238148870D02*
X209634674Y-238219516D01*
X209634674Y-238219516D02*
X209496685Y-238256490D01*
X209496685Y-238256490D02*
X209392367Y-238235143D01*
X209720063Y-237802246D02*
X209640394Y-237872892D01*
X209640394Y-237872892D02*
X209456409Y-237922190D01*
X209456409Y-237922190D02*
X209352091Y-237900843D01*
X209352091Y-237900843D02*
X209293770Y-237867172D01*
X209293770Y-237867172D02*
X209223124Y-237787503D01*
X209223124Y-237787503D02*
X209149175Y-237511525D01*
X209149175Y-237511525D02*
X209170523Y-237407207D01*
X209170523Y-237407207D02*
X209204194Y-237348886D01*
X209204194Y-237348886D02*
X209283862Y-237278240D01*
X209283862Y-237278240D02*
X209467848Y-237228941D01*
X209467848Y-237228941D02*
X209572166Y-237250288D01*
X210192352Y-237724995D02*
X209933533Y-236759069D01*
X210056780Y-237219034D02*
X210608738Y-237071137D01*
X210744310Y-237577098D02*
X210485491Y-236611173D01*
X211342264Y-237416877D02*
X211237946Y-237395530D01*
X211237946Y-237395530D02*
X211179625Y-237361858D01*
X211179625Y-237361858D02*
X211108979Y-237282190D01*
X211108979Y-237282190D02*
X211035031Y-237006211D01*
X211035031Y-237006211D02*
X211056378Y-236901894D01*
X211056378Y-236901894D02*
X211090050Y-236843572D01*
X211090050Y-236843572D02*
X211169718Y-236772927D01*
X211169718Y-236772927D02*
X211307707Y-236735952D01*
X211307707Y-236735952D02*
X211412025Y-236757299D01*
X211412025Y-236757299D02*
X211470346Y-236790971D01*
X211470346Y-236790971D02*
X211540992Y-236870639D01*
X211540992Y-236870639D02*
X211614940Y-237146618D01*
X211614940Y-237146618D02*
X211593593Y-237250936D01*
X211593593Y-237250936D02*
X211559921Y-237309257D01*
X211559921Y-237309257D02*
X211480253Y-237379903D01*
X211480253Y-237379903D02*
X211342264Y-237416877D01*
X212216197Y-237182707D02*
X212111879Y-237161360D01*
X212111879Y-237161360D02*
X212041233Y-237081692D01*
X212041233Y-237081692D02*
X211819388Y-236253756D01*
X212939816Y-236939515D02*
X212860148Y-237010161D01*
X212860148Y-237010161D02*
X212676162Y-237059460D01*
X212676162Y-237059460D02*
X212571844Y-237038113D01*
X212571844Y-237038113D02*
X212501198Y-236958445D01*
X212501198Y-236958445D02*
X212402601Y-236590473D01*
X212402601Y-236590473D02*
X212423948Y-236486156D01*
X212423948Y-236486156D02*
X212503616Y-236415510D01*
X212503616Y-236415510D02*
X212687602Y-236366211D01*
X212687602Y-236366211D02*
X212791919Y-236387558D01*
X212791919Y-236387558D02*
X212862565Y-236467226D01*
X212862565Y-236467226D02*
X212887215Y-236559219D01*
X212887215Y-236559219D02*
X212451899Y-236774459D01*
X207055109Y-235252732D02*
X206796290Y-234286807D01*
X206919537Y-234746771D02*
X207471495Y-234598875D01*
X207607066Y-235104836D02*
X207348247Y-234138910D01*
X208308453Y-234226716D02*
X208480999Y-234870666D01*
X207979873Y-233920368D02*
X207934762Y-234671938D01*
X207934762Y-234671938D02*
X208532716Y-234511717D01*
X322252040Y-126469726D02*
X321993221Y-125503800D01*
X322803998Y-126321830D02*
X322242133Y-125880794D01*
X322545179Y-125355904D02*
X322141118Y-126055758D01*
X323459388Y-125456034D02*
X323631934Y-126099985D01*
X323130808Y-125149686D02*
X323085697Y-125901257D01*
X323085697Y-125901257D02*
X323683651Y-125741035D01*
X323857730Y-125102805D02*
X323891401Y-125044484D01*
X323891401Y-125044484D02*
X323971069Y-124973838D01*
X323971069Y-124973838D02*
X324201052Y-124912214D01*
X324201052Y-124912214D02*
X324305369Y-124933561D01*
X324305369Y-124933561D02*
X324363691Y-124967233D01*
X324363691Y-124967233D02*
X324434337Y-125046901D01*
X324434337Y-125046901D02*
X324458986Y-125138894D01*
X324458986Y-125138894D02*
X324449964Y-125289208D01*
X324449964Y-125289208D02*
X324045903Y-125989062D01*
X324045903Y-125989062D02*
X324643857Y-125828841D01*
X123157799Y-149670978D02*
X123416618Y-148705052D01*
X123709756Y-149818874D02*
X123443685Y-149155994D01*
X123968575Y-148852948D02*
X123268721Y-149257009D01*
X124842508Y-149087118D02*
X124382544Y-148963871D01*
X124382544Y-148963871D02*
X124213300Y-149411511D01*
X124213300Y-149411511D02*
X124271621Y-149377839D01*
X124271621Y-149377839D02*
X124375939Y-149356492D01*
X124375939Y-149356492D02*
X124605921Y-149418116D01*
X124605921Y-149418116D02*
X124685589Y-149488762D01*
X124685589Y-149488762D02*
X124719261Y-149547083D01*
X124719261Y-149547083D02*
X124740608Y-149651400D01*
X124740608Y-149651400D02*
X124678985Y-149881383D01*
X124678985Y-149881383D02*
X124608339Y-149961051D01*
X124608339Y-149961051D02*
X124550017Y-149994723D01*
X124550017Y-149994723D02*
X124445700Y-150016070D01*
X124445700Y-150016070D02*
X124215717Y-149954446D01*
X124215717Y-149954446D02*
X124136049Y-149883800D01*
X124136049Y-149883800D02*
X124102377Y-149825479D01*
X125549615Y-150311863D02*
X124997657Y-150163966D01*
X125273636Y-150237915D02*
X125532455Y-149271989D01*
X125532455Y-149271989D02*
X125403488Y-149385329D01*
X125403488Y-149385329D02*
X125286846Y-149452672D01*
X125286846Y-149452672D02*
X125182528Y-149474019D01*
X119623365Y-91122513D02*
X119882184Y-90156587D01*
X120175322Y-91270410D02*
X119909251Y-90607530D01*
X120434142Y-90304484D02*
X119734287Y-90708545D01*
X120777464Y-90495074D02*
X120835785Y-90461403D01*
X120835785Y-90461403D02*
X120940103Y-90440056D01*
X120940103Y-90440056D02*
X121170085Y-90501679D01*
X121170085Y-90501679D02*
X121249753Y-90572325D01*
X121249753Y-90572325D02*
X121283425Y-90630646D01*
X121283425Y-90630646D02*
X121304772Y-90734964D01*
X121304772Y-90734964D02*
X121280123Y-90826957D01*
X121280123Y-90826957D02*
X121197152Y-90952622D01*
X121197152Y-90952622D02*
X120497298Y-91356683D01*
X120497298Y-91356683D02*
X121095252Y-91516904D01*
X341044339Y-122975461D02*
X340785520Y-122009535D01*
X341596297Y-122827565D02*
X341034432Y-122386529D01*
X341337478Y-121861639D02*
X340933417Y-122561493D01*
X342251687Y-121961769D02*
X342424233Y-122605720D01*
X341923107Y-121655421D02*
X341877996Y-122406992D01*
X341877996Y-122406992D02*
X342475950Y-122246770D01*
X342579383Y-121528871D02*
X343177337Y-121368650D01*
X343177337Y-121368650D02*
X342953959Y-121822895D01*
X342953959Y-121822895D02*
X343091949Y-121785921D01*
X343091949Y-121785921D02*
X343196266Y-121807268D01*
X343196266Y-121807268D02*
X343254587Y-121840940D01*
X343254587Y-121840940D02*
X343325233Y-121920608D01*
X343325233Y-121920608D02*
X343386857Y-122150590D01*
X343386857Y-122150590D02*
X343365510Y-122254908D01*
X343365510Y-122254908D02*
X343331838Y-122313229D01*
X343331838Y-122313229D02*
X343252170Y-122383875D01*
X343252170Y-122383875D02*
X342976191Y-122457823D01*
X342976191Y-122457823D02*
X342871873Y-122436476D01*
X342871873Y-122436476D02*
X342813552Y-122402804D01*
X136243168Y-174463815D02*
X136501987Y-173497889D01*
X136795125Y-174611711D02*
X136529054Y-173948831D01*
X137053944Y-173645785D02*
X136354090Y-174049846D01*
X137881881Y-173867630D02*
X137697895Y-173818331D01*
X137697895Y-173818331D02*
X137593577Y-173839679D01*
X137593577Y-173839679D02*
X137535256Y-173873350D01*
X137535256Y-173873350D02*
X137406289Y-173986690D01*
X137406289Y-173986690D02*
X137310994Y-174158351D01*
X137310994Y-174158351D02*
X137212396Y-174526323D01*
X137212396Y-174526323D02*
X137233743Y-174630641D01*
X137233743Y-174630641D02*
X137267415Y-174688962D01*
X137267415Y-174688962D02*
X137347083Y-174759608D01*
X137347083Y-174759608D02*
X137531069Y-174808907D01*
X137531069Y-174808907D02*
X137635386Y-174787560D01*
X137635386Y-174787560D02*
X137693708Y-174753888D01*
X137693708Y-174753888D02*
X137764354Y-174674220D01*
X137764354Y-174674220D02*
X137825977Y-174444237D01*
X137825977Y-174444237D02*
X137804630Y-174339920D01*
X137804630Y-174339920D02*
X137770958Y-174281599D01*
X137770958Y-174281599D02*
X137691290Y-174210953D01*
X137691290Y-174210953D02*
X137507304Y-174161654D01*
X137507304Y-174161654D02*
X137402987Y-174183001D01*
X137402987Y-174183001D02*
X137344665Y-174216673D01*
X137344665Y-174216673D02*
X137274019Y-174296341D01*
X138295849Y-173978553D02*
X138939800Y-174151099D01*
X138939800Y-174151099D02*
X138267012Y-175006102D01*
X256865154Y-101364251D02*
X256606334Y-100398325D01*
X257417111Y-101216354D02*
X256855246Y-100775319D01*
X257158292Y-100250429D02*
X256754231Y-100950283D01*
X257480267Y-100164156D02*
X258124218Y-99991609D01*
X258124218Y-99991609D02*
X257969069Y-101068458D01*
X332115901Y-163257592D02*
X331857082Y-162291666D01*
X332667859Y-163109696D02*
X332105994Y-162668660D01*
X332409040Y-162143770D02*
X332004979Y-162843624D01*
X332731015Y-162057497D02*
X333374966Y-161884951D01*
X333374966Y-161884951D02*
X333219817Y-162961799D01*
X334202902Y-161663106D02*
X333742938Y-161786353D01*
X333742938Y-161786353D02*
X333820188Y-162258642D01*
X333820188Y-162258642D02*
X333853860Y-162200321D01*
X333853860Y-162200321D02*
X333933528Y-162129675D01*
X333933528Y-162129675D02*
X334163511Y-162068052D01*
X334163511Y-162068052D02*
X334267828Y-162089399D01*
X334267828Y-162089399D02*
X334326149Y-162123071D01*
X334326149Y-162123071D02*
X334396795Y-162202739D01*
X334396795Y-162202739D02*
X334458419Y-162432721D01*
X334458419Y-162432721D02*
X334437072Y-162537039D01*
X334437072Y-162537039D02*
X334403400Y-162595360D01*
X334403400Y-162595360D02*
X334323732Y-162666006D01*
X334323732Y-162666006D02*
X334093750Y-162727629D01*
X334093750Y-162727629D02*
X333989432Y-162706282D01*
X333989432Y-162706282D02*
X333931111Y-162672611D01*
X103962109Y-80264414D02*
X103703290Y-79298489D01*
X103826537Y-79758453D02*
X104378495Y-79610557D01*
X104514066Y-80116518D02*
X104255247Y-79150592D01*
X105215453Y-79238398D02*
X105387999Y-79882348D01*
X104886873Y-78932050D02*
X104841762Y-79683620D01*
X104841762Y-79683620D02*
X105439716Y-79523399D01*
X101731849Y-87487779D02*
X101473030Y-86521853D01*
X101473030Y-86521853D02*
X101979876Y-87125527D01*
X101979876Y-87125527D02*
X102116980Y-86349307D01*
X102116980Y-86349307D02*
X102375799Y-87315233D01*
X102973753Y-87155012D02*
X102869436Y-87133665D01*
X102869436Y-87133665D02*
X102811115Y-87099993D01*
X102811115Y-87099993D02*
X102740469Y-87020325D01*
X102740469Y-87020325D02*
X102666520Y-86744346D01*
X102666520Y-86744346D02*
X102687867Y-86640028D01*
X102687867Y-86640028D02*
X102721539Y-86581707D01*
X102721539Y-86581707D02*
X102801207Y-86511061D01*
X102801207Y-86511061D02*
X102939197Y-86474087D01*
X102939197Y-86474087D02*
X103043514Y-86495434D01*
X103043514Y-86495434D02*
X103101836Y-86529106D01*
X103101836Y-86529106D02*
X103172481Y-86608774D01*
X103172481Y-86608774D02*
X103246430Y-86884753D01*
X103246430Y-86884753D02*
X103225083Y-86989071D01*
X103225083Y-86989071D02*
X103191411Y-87047392D01*
X103191411Y-87047392D02*
X103111743Y-87118038D01*
X103111743Y-87118038D02*
X102973753Y-87155012D01*
X103951119Y-86202943D02*
X104123665Y-86846894D01*
X103537151Y-86313866D02*
X103672723Y-86819827D01*
X103672723Y-86819827D02*
X103743369Y-86899495D01*
X103743369Y-86899495D02*
X103847686Y-86920842D01*
X103847686Y-86920842D02*
X103985676Y-86883868D01*
X103985676Y-86883868D02*
X104065344Y-86813222D01*
X104065344Y-86813222D02*
X104099016Y-86754901D01*
X104411084Y-86079696D02*
X104583630Y-86723647D01*
X104435733Y-86171689D02*
X104469405Y-86113368D01*
X104469405Y-86113368D02*
X104549073Y-86042722D01*
X104549073Y-86042722D02*
X104687063Y-86005748D01*
X104687063Y-86005748D02*
X104791380Y-86027095D01*
X104791380Y-86027095D02*
X104862026Y-86106763D01*
X104862026Y-86106763D02*
X104997598Y-86612724D01*
X105147027Y-85882501D02*
X105514999Y-85783903D01*
X105198744Y-85523551D02*
X105420589Y-86351488D01*
X105420589Y-86351488D02*
X105491235Y-86431156D01*
X105491235Y-86431156D02*
X105595552Y-86452503D01*
X105595552Y-86452503D02*
X105687545Y-86427853D01*
X106009521Y-86341580D02*
X105836975Y-85697630D01*
X105750702Y-85375654D02*
X105717030Y-85433976D01*
X105717030Y-85433976D02*
X105775351Y-85467647D01*
X105775351Y-85467647D02*
X105809023Y-85409326D01*
X105809023Y-85409326D02*
X105750702Y-85375654D01*
X105750702Y-85375654D02*
X105775351Y-85467647D01*
X106296939Y-85574383D02*
X106469485Y-86218333D01*
X106321589Y-85666376D02*
X106355260Y-85608054D01*
X106355260Y-85608054D02*
X106434929Y-85537409D01*
X106434929Y-85537409D02*
X106572918Y-85500434D01*
X106572918Y-85500434D02*
X106677236Y-85521781D01*
X106677236Y-85521781D02*
X106747881Y-85601450D01*
X106747881Y-85601450D02*
X106883453Y-86107411D01*
X107584840Y-85229291D02*
X107794360Y-86011231D01*
X107794360Y-86011231D02*
X107773013Y-86115548D01*
X107773013Y-86115548D02*
X107739342Y-86173869D01*
X107739342Y-86173869D02*
X107659673Y-86244515D01*
X107659673Y-86244515D02*
X107521684Y-86281489D01*
X107521684Y-86281489D02*
X107417366Y-86260142D01*
X107745062Y-85827245D02*
X107665393Y-85897891D01*
X107665393Y-85897891D02*
X107481408Y-85947189D01*
X107481408Y-85947189D02*
X107377090Y-85925842D01*
X107377090Y-85925842D02*
X107318769Y-85892171D01*
X107318769Y-85892171D02*
X107248123Y-85812502D01*
X107248123Y-85812502D02*
X107174174Y-85536524D01*
X107174174Y-85536524D02*
X107195522Y-85432206D01*
X107195522Y-85432206D02*
X107229193Y-85373885D01*
X107229193Y-85373885D02*
X107308861Y-85303239D01*
X107308861Y-85303239D02*
X107492847Y-85253940D01*
X107492847Y-85253940D02*
X107597165Y-85275287D01*
X108217351Y-85749994D02*
X107958532Y-84784068D01*
X108081779Y-85244033D02*
X108633737Y-85096136D01*
X108769309Y-85602097D02*
X108510490Y-84636172D01*
X109367263Y-85441876D02*
X109262945Y-85420529D01*
X109262945Y-85420529D02*
X109204624Y-85386857D01*
X109204624Y-85386857D02*
X109133978Y-85307189D01*
X109133978Y-85307189D02*
X109060030Y-85031210D01*
X109060030Y-85031210D02*
X109081377Y-84926893D01*
X109081377Y-84926893D02*
X109115049Y-84868571D01*
X109115049Y-84868571D02*
X109194717Y-84797926D01*
X109194717Y-84797926D02*
X109332706Y-84760951D01*
X109332706Y-84760951D02*
X109437024Y-84782298D01*
X109437024Y-84782298D02*
X109495345Y-84815970D01*
X109495345Y-84815970D02*
X109565991Y-84895638D01*
X109565991Y-84895638D02*
X109639939Y-85171617D01*
X109639939Y-85171617D02*
X109618592Y-85275935D01*
X109618592Y-85275935D02*
X109584920Y-85334256D01*
X109584920Y-85334256D02*
X109505252Y-85404902D01*
X109505252Y-85404902D02*
X109367263Y-85441876D01*
X110241196Y-85207706D02*
X110136878Y-85186359D01*
X110136878Y-85186359D02*
X110066232Y-85106691D01*
X110066232Y-85106691D02*
X109844387Y-84278755D01*
X110964815Y-84964514D02*
X110885147Y-85035160D01*
X110885147Y-85035160D02*
X110701161Y-85084459D01*
X110701161Y-85084459D02*
X110596843Y-85063112D01*
X110596843Y-85063112D02*
X110526197Y-84983444D01*
X110526197Y-84983444D02*
X110427600Y-84615472D01*
X110427600Y-84615472D02*
X110448947Y-84511155D01*
X110448947Y-84511155D02*
X110528615Y-84440509D01*
X110528615Y-84440509D02*
X110712601Y-84391210D01*
X110712601Y-84391210D02*
X110816918Y-84412557D01*
X110816918Y-84412557D02*
X110887564Y-84492225D01*
X110887564Y-84492225D02*
X110912214Y-84584218D01*
X110912214Y-84584218D02*
X110476898Y-84799458D01*
X105080108Y-83277731D02*
X104821289Y-82311806D01*
X104944536Y-82771770D02*
X105496494Y-82623874D01*
X105632065Y-83129835D02*
X105373246Y-82163909D01*
X106333452Y-82251715D02*
X106505998Y-82895665D01*
X106004872Y-81945367D02*
X105959761Y-82696937D01*
X105959761Y-82696937D02*
X106557715Y-82536716D01*
X133028233Y-112858581D02*
X133287052Y-111892655D01*
X133580190Y-113006477D02*
X133314119Y-112343597D01*
X133839009Y-112040551D02*
X133139155Y-112444612D01*
X134500120Y-113252972D02*
X133948162Y-113105075D01*
X134224141Y-113179023D02*
X134482960Y-112213097D01*
X134482960Y-112213097D02*
X134353993Y-112326437D01*
X134353993Y-112326437D02*
X134237350Y-112393781D01*
X134237350Y-112393781D02*
X134133033Y-112415128D01*
X134960084Y-113376219D02*
X135144070Y-113425518D01*
X135144070Y-113425518D02*
X135248388Y-113404171D01*
X135248388Y-113404171D02*
X135306709Y-113370499D01*
X135306709Y-113370499D02*
X135435676Y-113257159D01*
X135435676Y-113257159D02*
X135530972Y-113085498D01*
X135530972Y-113085498D02*
X135629569Y-112717526D01*
X135629569Y-112717526D02*
X135608222Y-112613208D01*
X135608222Y-112613208D02*
X135574550Y-112554887D01*
X135574550Y-112554887D02*
X135494882Y-112484241D01*
X135494882Y-112484241D02*
X135310896Y-112434942D01*
X135310896Y-112434942D02*
X135206579Y-112456289D01*
X135206579Y-112456289D02*
X135148258Y-112489961D01*
X135148258Y-112489961D02*
X135077612Y-112569629D01*
X135077612Y-112569629D02*
X135015988Y-112799612D01*
X135015988Y-112799612D02*
X135037335Y-112903929D01*
X135037335Y-112903929D02*
X135071007Y-112962251D01*
X135071007Y-112962251D02*
X135150675Y-113032896D01*
X135150675Y-113032896D02*
X135334661Y-113082195D01*
X135334661Y-113082195D02*
X135438979Y-113060848D01*
X135438979Y-113060848D02*
X135497300Y-113027177D01*
X135497300Y-113027177D02*
X135567946Y-112947508D01*
X206028453Y-130489315D02*
X206028453Y-131489315D01*
X206028453Y-130536934D02*
X206123691Y-130489315D01*
X206123691Y-130489315D02*
X206314167Y-130489315D01*
X206314167Y-130489315D02*
X206409405Y-130536934D01*
X206409405Y-130536934D02*
X206457024Y-130584553D01*
X206457024Y-130584553D02*
X206504643Y-130679791D01*
X206504643Y-130679791D02*
X206504643Y-130965505D01*
X206504643Y-130965505D02*
X206457024Y-131060743D01*
X206457024Y-131060743D02*
X206409405Y-131108363D01*
X206409405Y-131108363D02*
X206314167Y-131155982D01*
X206314167Y-131155982D02*
X206123691Y-131155982D01*
X206123691Y-131155982D02*
X206028453Y-131108363D01*
X206933215Y-131155982D02*
X206933215Y-130489315D01*
X206933215Y-130155982D02*
X206885596Y-130203601D01*
X206885596Y-130203601D02*
X206933215Y-130251220D01*
X206933215Y-130251220D02*
X206980834Y-130203601D01*
X206980834Y-130203601D02*
X206933215Y-130155982D01*
X206933215Y-130155982D02*
X206933215Y-130251220D01*
X207837976Y-131108363D02*
X207742738Y-131155982D01*
X207742738Y-131155982D02*
X207552262Y-131155982D01*
X207552262Y-131155982D02*
X207457024Y-131108363D01*
X207457024Y-131108363D02*
X207409405Y-131060743D01*
X207409405Y-131060743D02*
X207361786Y-130965505D01*
X207361786Y-130965505D02*
X207361786Y-130679791D01*
X207361786Y-130679791D02*
X207409405Y-130584553D01*
X207409405Y-130584553D02*
X207457024Y-130536934D01*
X207457024Y-130536934D02*
X207552262Y-130489315D01*
X207552262Y-130489315D02*
X207742738Y-130489315D01*
X207742738Y-130489315D02*
X207837976Y-130536934D01*
X208409405Y-131155982D02*
X208314167Y-131108363D01*
X208314167Y-131108363D02*
X208266548Y-131060743D01*
X208266548Y-131060743D02*
X208218929Y-130965505D01*
X208218929Y-130965505D02*
X208218929Y-130679791D01*
X208218929Y-130679791D02*
X208266548Y-130584553D01*
X208266548Y-130584553D02*
X208314167Y-130536934D01*
X208314167Y-130536934D02*
X208409405Y-130489315D01*
X208409405Y-130489315D02*
X208552262Y-130489315D01*
X208552262Y-130489315D02*
X208647500Y-130536934D01*
X208647500Y-130536934D02*
X208695119Y-130584553D01*
X208695119Y-130584553D02*
X208742738Y-130679791D01*
X208742738Y-130679791D02*
X208742738Y-130965505D01*
X208742738Y-130965505D02*
X208695119Y-131060743D01*
X208695119Y-131060743D02*
X208647500Y-131108363D01*
X208647500Y-131108363D02*
X208552262Y-131155982D01*
X208552262Y-131155982D02*
X208409405Y-131155982D01*
X293666932Y-91503249D02*
X293408112Y-90537323D01*
X294218889Y-91355352D02*
X293657024Y-90914317D01*
X293960070Y-90389427D02*
X293556009Y-91089281D01*
X294678854Y-91232105D02*
X294862840Y-91182806D01*
X294862840Y-91182806D02*
X294942508Y-91112160D01*
X294942508Y-91112160D02*
X294976180Y-91053839D01*
X294976180Y-91053839D02*
X295031198Y-90891200D01*
X295031198Y-90891200D02*
X295027896Y-90694890D01*
X295027896Y-90694890D02*
X294929298Y-90326918D01*
X294929298Y-90326918D02*
X294858652Y-90247250D01*
X294858652Y-90247250D02*
X294800331Y-90213578D01*
X294800331Y-90213578D02*
X294696014Y-90192231D01*
X294696014Y-90192231D02*
X294512028Y-90241530D01*
X294512028Y-90241530D02*
X294432360Y-90312176D01*
X294432360Y-90312176D02*
X294398688Y-90370497D01*
X294398688Y-90370497D02*
X294377341Y-90474815D01*
X294377341Y-90474815D02*
X294438964Y-90704797D01*
X294438964Y-90704797D02*
X294509610Y-90784465D01*
X294509610Y-90784465D02*
X294567931Y-90818137D01*
X294567931Y-90818137D02*
X294672249Y-90839484D01*
X294672249Y-90839484D02*
X294856235Y-90790185D01*
X294856235Y-90790185D02*
X294935903Y-90719539D01*
X294935903Y-90719539D02*
X294969575Y-90661218D01*
X294969575Y-90661218D02*
X294990922Y-90556900D01*
X99441391Y-164602812D02*
X99700210Y-163636886D01*
X99993348Y-164750708D02*
X99727277Y-164087828D01*
X100252167Y-163784782D02*
X99552313Y-164188843D01*
X101080104Y-164006627D02*
X100896118Y-163957328D01*
X100896118Y-163957328D02*
X100791800Y-163978676D01*
X100791800Y-163978676D02*
X100733479Y-164012347D01*
X100733479Y-164012347D02*
X100604512Y-164125687D01*
X100604512Y-164125687D02*
X100509217Y-164297348D01*
X100509217Y-164297348D02*
X100410619Y-164665320D01*
X100410619Y-164665320D02*
X100431966Y-164769638D01*
X100431966Y-164769638D02*
X100465638Y-164827959D01*
X100465638Y-164827959D02*
X100545306Y-164898605D01*
X100545306Y-164898605D02*
X100729292Y-164947904D01*
X100729292Y-164947904D02*
X100833609Y-164926557D01*
X100833609Y-164926557D02*
X100891931Y-164892885D01*
X100891931Y-164892885D02*
X100962577Y-164813217D01*
X100962577Y-164813217D02*
X101024200Y-164583234D01*
X101024200Y-164583234D02*
X101002853Y-164478917D01*
X101002853Y-164478917D02*
X100969181Y-164420596D01*
X100969181Y-164420596D02*
X100889513Y-164349950D01*
X100889513Y-164349950D02*
X100705527Y-164300651D01*
X100705527Y-164300651D02*
X100601210Y-164321998D01*
X100601210Y-164321998D02*
X100542888Y-164355670D01*
X100542888Y-164355670D02*
X100472242Y-164435338D01*
X102046030Y-164265446D02*
X101586065Y-164142199D01*
X101586065Y-164142199D02*
X101416821Y-164589839D01*
X101416821Y-164589839D02*
X101475143Y-164556167D01*
X101475143Y-164556167D02*
X101579460Y-164534820D01*
X101579460Y-164534820D02*
X101809443Y-164596444D01*
X101809443Y-164596444D02*
X101889111Y-164667090D01*
X101889111Y-164667090D02*
X101922782Y-164725411D01*
X101922782Y-164725411D02*
X101944130Y-164829729D01*
X101944130Y-164829729D02*
X101882506Y-165059711D01*
X101882506Y-165059711D02*
X101811860Y-165139379D01*
X101811860Y-165139379D02*
X101753539Y-165173051D01*
X101753539Y-165173051D02*
X101649221Y-165194398D01*
X101649221Y-165194398D02*
X101419239Y-165132775D01*
X101419239Y-165132775D02*
X101339571Y-165062129D01*
X101339571Y-165062129D02*
X101305899Y-165003807D01*
X37244673Y-128251867D02*
X37244673Y-127251867D01*
X37244673Y-127728057D02*
X37816101Y-127728057D01*
X37816101Y-128251867D02*
X37816101Y-127251867D01*
X38720863Y-127585200D02*
X38720863Y-128251867D01*
X38482768Y-127204248D02*
X38244673Y-127918533D01*
X38244673Y-127918533D02*
X38863720Y-127918533D01*
X33220863Y-134651867D02*
X33220863Y-133651867D01*
X33220863Y-133651867D02*
X33554196Y-134366152D01*
X33554196Y-134366152D02*
X33887529Y-133651867D01*
X33887529Y-133651867D02*
X33887529Y-134651867D01*
X34506577Y-134651867D02*
X34411339Y-134604248D01*
X34411339Y-134604248D02*
X34363720Y-134556628D01*
X34363720Y-134556628D02*
X34316101Y-134461390D01*
X34316101Y-134461390D02*
X34316101Y-134175676D01*
X34316101Y-134175676D02*
X34363720Y-134080438D01*
X34363720Y-134080438D02*
X34411339Y-134032819D01*
X34411339Y-134032819D02*
X34506577Y-133985200D01*
X34506577Y-133985200D02*
X34649434Y-133985200D01*
X34649434Y-133985200D02*
X34744672Y-134032819D01*
X34744672Y-134032819D02*
X34792291Y-134080438D01*
X34792291Y-134080438D02*
X34839910Y-134175676D01*
X34839910Y-134175676D02*
X34839910Y-134461390D01*
X34839910Y-134461390D02*
X34792291Y-134556628D01*
X34792291Y-134556628D02*
X34744672Y-134604248D01*
X34744672Y-134604248D02*
X34649434Y-134651867D01*
X34649434Y-134651867D02*
X34506577Y-134651867D01*
X35697053Y-133985200D02*
X35697053Y-134651867D01*
X35268482Y-133985200D02*
X35268482Y-134509009D01*
X35268482Y-134509009D02*
X35316101Y-134604248D01*
X35316101Y-134604248D02*
X35411339Y-134651867D01*
X35411339Y-134651867D02*
X35554196Y-134651867D01*
X35554196Y-134651867D02*
X35649434Y-134604248D01*
X35649434Y-134604248D02*
X35697053Y-134556628D01*
X36173244Y-133985200D02*
X36173244Y-134651867D01*
X36173244Y-134080438D02*
X36220863Y-134032819D01*
X36220863Y-134032819D02*
X36316101Y-133985200D01*
X36316101Y-133985200D02*
X36458958Y-133985200D01*
X36458958Y-133985200D02*
X36554196Y-134032819D01*
X36554196Y-134032819D02*
X36601815Y-134128057D01*
X36601815Y-134128057D02*
X36601815Y-134651867D01*
X36935149Y-133985200D02*
X37316101Y-133985200D01*
X37078006Y-133651867D02*
X37078006Y-134509009D01*
X37078006Y-134509009D02*
X37125625Y-134604248D01*
X37125625Y-134604248D02*
X37220863Y-134651867D01*
X37220863Y-134651867D02*
X37316101Y-134651867D01*
X37649435Y-134651867D02*
X37649435Y-133985200D01*
X37649435Y-133651867D02*
X37601816Y-133699486D01*
X37601816Y-133699486D02*
X37649435Y-133747105D01*
X37649435Y-133747105D02*
X37697054Y-133699486D01*
X37697054Y-133699486D02*
X37649435Y-133651867D01*
X37649435Y-133651867D02*
X37649435Y-133747105D01*
X38125625Y-133985200D02*
X38125625Y-134651867D01*
X38125625Y-134080438D02*
X38173244Y-134032819D01*
X38173244Y-134032819D02*
X38268482Y-133985200D01*
X38268482Y-133985200D02*
X38411339Y-133985200D01*
X38411339Y-133985200D02*
X38506577Y-134032819D01*
X38506577Y-134032819D02*
X38554196Y-134128057D01*
X38554196Y-134128057D02*
X38554196Y-134651867D01*
X39458958Y-133985200D02*
X39458958Y-134794724D01*
X39458958Y-134794724D02*
X39411339Y-134889962D01*
X39411339Y-134889962D02*
X39363720Y-134937581D01*
X39363720Y-134937581D02*
X39268482Y-134985200D01*
X39268482Y-134985200D02*
X39125625Y-134985200D01*
X39125625Y-134985200D02*
X39030387Y-134937581D01*
X39458958Y-134604248D02*
X39363720Y-134651867D01*
X39363720Y-134651867D02*
X39173244Y-134651867D01*
X39173244Y-134651867D02*
X39078006Y-134604248D01*
X39078006Y-134604248D02*
X39030387Y-134556628D01*
X39030387Y-134556628D02*
X38982768Y-134461390D01*
X38982768Y-134461390D02*
X38982768Y-134175676D01*
X38982768Y-134175676D02*
X39030387Y-134080438D01*
X39030387Y-134080438D02*
X39078006Y-134032819D01*
X39078006Y-134032819D02*
X39173244Y-133985200D01*
X39173244Y-133985200D02*
X39363720Y-133985200D01*
X39363720Y-133985200D02*
X39458958Y-134032819D01*
X39935149Y-134651867D02*
X39935149Y-133651867D01*
X39935149Y-134128057D02*
X40506577Y-134128057D01*
X40506577Y-134651867D02*
X40506577Y-133651867D01*
X41125625Y-134651867D02*
X41030387Y-134604248D01*
X41030387Y-134604248D02*
X40982768Y-134556628D01*
X40982768Y-134556628D02*
X40935149Y-134461390D01*
X40935149Y-134461390D02*
X40935149Y-134175676D01*
X40935149Y-134175676D02*
X40982768Y-134080438D01*
X40982768Y-134080438D02*
X41030387Y-134032819D01*
X41030387Y-134032819D02*
X41125625Y-133985200D01*
X41125625Y-133985200D02*
X41268482Y-133985200D01*
X41268482Y-133985200D02*
X41363720Y-134032819D01*
X41363720Y-134032819D02*
X41411339Y-134080438D01*
X41411339Y-134080438D02*
X41458958Y-134175676D01*
X41458958Y-134175676D02*
X41458958Y-134461390D01*
X41458958Y-134461390D02*
X41411339Y-134556628D01*
X41411339Y-134556628D02*
X41363720Y-134604248D01*
X41363720Y-134604248D02*
X41268482Y-134651867D01*
X41268482Y-134651867D02*
X41125625Y-134651867D01*
X42030387Y-134651867D02*
X41935149Y-134604248D01*
X41935149Y-134604248D02*
X41887530Y-134509009D01*
X41887530Y-134509009D02*
X41887530Y-133651867D01*
X42792292Y-134604248D02*
X42697054Y-134651867D01*
X42697054Y-134651867D02*
X42506578Y-134651867D01*
X42506578Y-134651867D02*
X42411340Y-134604248D01*
X42411340Y-134604248D02*
X42363721Y-134509009D01*
X42363721Y-134509009D02*
X42363721Y-134128057D01*
X42363721Y-134128057D02*
X42411340Y-134032819D01*
X42411340Y-134032819D02*
X42506578Y-133985200D01*
X42506578Y-133985200D02*
X42697054Y-133985200D01*
X42697054Y-133985200D02*
X42792292Y-134032819D01*
X42792292Y-134032819D02*
X42839911Y-134128057D01*
X42839911Y-134128057D02*
X42839911Y-134223295D01*
X42839911Y-134223295D02*
X42363721Y-134318533D01*
X37544673Y-131451867D02*
X37544673Y-130451867D01*
X37544673Y-130928057D02*
X38116101Y-130928057D01*
X38116101Y-131451867D02*
X38116101Y-130451867D01*
X39020863Y-130785200D02*
X39020863Y-131451867D01*
X38782768Y-130404248D02*
X38544673Y-131118533D01*
X38544673Y-131118533D02*
X39163720Y-131118533D01*
X303065122Y-128442180D02*
X302806303Y-127476254D01*
X303617080Y-128294284D02*
X303055215Y-127853248D01*
X303358261Y-127328358D02*
X302954200Y-128028212D01*
X304272470Y-127428488D02*
X304445016Y-128072439D01*
X303943890Y-127122140D02*
X303898779Y-127873711D01*
X303898779Y-127873711D02*
X304496733Y-127713489D01*
X305456939Y-127801295D02*
X304904981Y-127949192D01*
X305180960Y-127875243D02*
X304922141Y-126909317D01*
X304922141Y-126909317D02*
X304867122Y-127071956D01*
X304867122Y-127071956D02*
X304799779Y-127188599D01*
X304799779Y-127188599D02*
X304720110Y-127259245D01*
X128088311Y-131270091D02*
X128347130Y-130304165D01*
X128640268Y-131417987D02*
X128374197Y-130755107D01*
X128899087Y-130452061D02*
X128199233Y-130856122D01*
X129221063Y-130538334D02*
X129819017Y-130698556D01*
X129819017Y-130698556D02*
X129398444Y-130980255D01*
X129398444Y-130980255D02*
X129536433Y-131017229D01*
X129536433Y-131017229D02*
X129616101Y-131087875D01*
X129616101Y-131087875D02*
X129649773Y-131146196D01*
X129649773Y-131146196D02*
X129671120Y-131250513D01*
X129671120Y-131250513D02*
X129609497Y-131480496D01*
X129609497Y-131480496D02*
X129538851Y-131560164D01*
X129538851Y-131560164D02*
X129480529Y-131593836D01*
X129480529Y-131593836D02*
X129376212Y-131615183D01*
X129376212Y-131615183D02*
X129100233Y-131541234D01*
X129100233Y-131541234D02*
X129020565Y-131470589D01*
X129020565Y-131470589D02*
X128986893Y-131412267D01*
X130692950Y-130932725D02*
X130232985Y-130809478D01*
X130232985Y-130809478D02*
X130063741Y-131257118D01*
X130063741Y-131257118D02*
X130122063Y-131223446D01*
X130122063Y-131223446D02*
X130226380Y-131202099D01*
X130226380Y-131202099D02*
X130456363Y-131263723D01*
X130456363Y-131263723D02*
X130536031Y-131334369D01*
X130536031Y-131334369D02*
X130569702Y-131392690D01*
X130569702Y-131392690D02*
X130591050Y-131497008D01*
X130591050Y-131497008D02*
X130529426Y-131726990D01*
X130529426Y-131726990D02*
X130458780Y-131806658D01*
X130458780Y-131806658D02*
X130400459Y-131840330D01*
X130400459Y-131840330D02*
X130296141Y-131861677D01*
X130296141Y-131861677D02*
X130066159Y-131800054D01*
X130066159Y-131800054D02*
X129986491Y-131729408D01*
X129986491Y-131729408D02*
X129952819Y-131671086D01*
X50443558Y-126630046D02*
X50702377Y-125664120D01*
X50995515Y-126777942D02*
X50729444Y-126115062D01*
X51254334Y-125812016D02*
X50554480Y-126216077D01*
X52082271Y-126033861D02*
X51898285Y-125984562D01*
X51898285Y-125984562D02*
X51793967Y-126005910D01*
X51793967Y-126005910D02*
X51735646Y-126039581D01*
X51735646Y-126039581D02*
X51606679Y-126152921D01*
X51606679Y-126152921D02*
X51511384Y-126324582D01*
X51511384Y-126324582D02*
X51412786Y-126692554D01*
X51412786Y-126692554D02*
X51434133Y-126796872D01*
X51434133Y-126796872D02*
X51467805Y-126855193D01*
X51467805Y-126855193D02*
X51547473Y-126925839D01*
X51547473Y-126925839D02*
X51731459Y-126975138D01*
X51731459Y-126975138D02*
X51835776Y-126953791D01*
X51835776Y-126953791D02*
X51894098Y-126920119D01*
X51894098Y-126920119D02*
X51964744Y-126840451D01*
X51964744Y-126840451D02*
X52026367Y-126610468D01*
X52026367Y-126610468D02*
X52005020Y-126506151D01*
X52005020Y-126506151D02*
X51971348Y-126447830D01*
X51971348Y-126447830D02*
X51891680Y-126377184D01*
X51891680Y-126377184D02*
X51707694Y-126327885D01*
X51707694Y-126327885D02*
X51603377Y-126349232D01*
X51603377Y-126349232D02*
X51545055Y-126382904D01*
X51545055Y-126382904D02*
X51474409Y-126462572D01*
X52772218Y-126218732D02*
X52864211Y-126243382D01*
X52864211Y-126243382D02*
X52943879Y-126314027D01*
X52943879Y-126314027D02*
X52977551Y-126372349D01*
X52977551Y-126372349D02*
X52998898Y-126476666D01*
X52998898Y-126476666D02*
X52995595Y-126672977D01*
X52995595Y-126672977D02*
X52933972Y-126902959D01*
X52933972Y-126902959D02*
X52838676Y-127074620D01*
X52838676Y-127074620D02*
X52768031Y-127154289D01*
X52768031Y-127154289D02*
X52709709Y-127187960D01*
X52709709Y-127187960D02*
X52605392Y-127209307D01*
X52605392Y-127209307D02*
X52513399Y-127184658D01*
X52513399Y-127184658D02*
X52433731Y-127114012D01*
X52433731Y-127114012D02*
X52400059Y-127055691D01*
X52400059Y-127055691D02*
X52378712Y-126951373D01*
X52378712Y-126951373D02*
X52382014Y-126755063D01*
X52382014Y-126755063D02*
X52443638Y-126525080D01*
X52443638Y-126525080D02*
X52538933Y-126353419D01*
X52538933Y-126353419D02*
X52609579Y-126273751D01*
X52609579Y-126273751D02*
X52667900Y-126240079D01*
X52667900Y-126240079D02*
X52772218Y-126218732D01*
X71313762Y-122344941D02*
X71572581Y-121379015D01*
X71865719Y-122492837D02*
X71599648Y-121829957D01*
X72124538Y-121526911D02*
X71424684Y-121930972D01*
X72446514Y-121613184D02*
X73044468Y-121773406D01*
X73044468Y-121773406D02*
X72623895Y-122055105D01*
X72623895Y-122055105D02*
X72761884Y-122092079D01*
X72761884Y-122092079D02*
X72841552Y-122162725D01*
X72841552Y-122162725D02*
X72875224Y-122221046D01*
X72875224Y-122221046D02*
X72896571Y-122325363D01*
X72896571Y-122325363D02*
X72834948Y-122555346D01*
X72834948Y-122555346D02*
X72764302Y-122635014D01*
X72764302Y-122635014D02*
X72705980Y-122668686D01*
X72705980Y-122668686D02*
X72601663Y-122690033D01*
X72601663Y-122690033D02*
X72325684Y-122616084D01*
X72325684Y-122616084D02*
X72246016Y-122545439D01*
X72246016Y-122545439D02*
X72212344Y-122487117D01*
X73387790Y-121963996D02*
X73446111Y-121930325D01*
X73446111Y-121930325D02*
X73550429Y-121908978D01*
X73550429Y-121908978D02*
X73780411Y-121970601D01*
X73780411Y-121970601D02*
X73860079Y-122041247D01*
X73860079Y-122041247D02*
X73893751Y-122099568D01*
X73893751Y-122099568D02*
X73915098Y-122203886D01*
X73915098Y-122203886D02*
X73890449Y-122295879D01*
X73890449Y-122295879D02*
X73807478Y-122421544D01*
X73807478Y-122421544D02*
X73107624Y-122825605D01*
X73107624Y-122825605D02*
X73705578Y-122985826D01*
X66392680Y-140735201D02*
X66651499Y-139769275D01*
X66944637Y-140883097D02*
X66678566Y-140220217D01*
X67203456Y-139917171D02*
X66503602Y-140321232D01*
X67945120Y-140460992D02*
X67772574Y-141104942D01*
X67813735Y-140031396D02*
X67398882Y-140659720D01*
X67398882Y-140659720D02*
X67996836Y-140819941D01*
X68564421Y-140725531D02*
X68484753Y-140654885D01*
X68484753Y-140654885D02*
X68451081Y-140596564D01*
X68451081Y-140596564D02*
X68429734Y-140492246D01*
X68429734Y-140492246D02*
X68442059Y-140446249D01*
X68442059Y-140446249D02*
X68512705Y-140366581D01*
X68512705Y-140366581D02*
X68571026Y-140332909D01*
X68571026Y-140332909D02*
X68675343Y-140311562D01*
X68675343Y-140311562D02*
X68859329Y-140360861D01*
X68859329Y-140360861D02*
X68938997Y-140431507D01*
X68938997Y-140431507D02*
X68972669Y-140489828D01*
X68972669Y-140489828D02*
X68994016Y-140594146D01*
X68994016Y-140594146D02*
X68981692Y-140640142D01*
X68981692Y-140640142D02*
X68911046Y-140719811D01*
X68911046Y-140719811D02*
X68852724Y-140753482D01*
X68852724Y-140753482D02*
X68748407Y-140774829D01*
X68748407Y-140774829D02*
X68564421Y-140725531D01*
X68564421Y-140725531D02*
X68460103Y-140746878D01*
X68460103Y-140746878D02*
X68401782Y-140780549D01*
X68401782Y-140780549D02*
X68331136Y-140860218D01*
X68331136Y-140860218D02*
X68281837Y-141044203D01*
X68281837Y-141044203D02*
X68303184Y-141148521D01*
X68303184Y-141148521D02*
X68336856Y-141206842D01*
X68336856Y-141206842D02*
X68416524Y-141277488D01*
X68416524Y-141277488D02*
X68600510Y-141326787D01*
X68600510Y-141326787D02*
X68704828Y-141305440D01*
X68704828Y-141305440D02*
X68763149Y-141271768D01*
X68763149Y-141271768D02*
X68833795Y-141192100D01*
X68833795Y-141192100D02*
X68883094Y-141008114D01*
X68883094Y-141008114D02*
X68861747Y-140903797D01*
X68861747Y-140903797D02*
X68828075Y-140845475D01*
X68828075Y-140845475D02*
X68748407Y-140774829D01*
X258120753Y-181493619D02*
X257861934Y-180527693D01*
X258672711Y-181345723D02*
X258110846Y-180904687D01*
X258413892Y-180379797D02*
X258009831Y-181079651D01*
X258735867Y-180293524D02*
X259379818Y-180120978D01*
X259379818Y-180120978D02*
X259224669Y-181197826D01*
X260512570Y-180852734D02*
X259960612Y-181000631D01*
X260236591Y-180926682D02*
X259977772Y-179960756D01*
X259977772Y-179960756D02*
X259922753Y-180123395D01*
X259922753Y-180123395D02*
X259855410Y-180240038D01*
X259855410Y-180240038D02*
X259775741Y-180310684D01*
X104371888Y-146201925D02*
X104630707Y-145235999D01*
X104923845Y-146349821D02*
X104657774Y-145686941D01*
X105182664Y-145383895D02*
X104482810Y-145787956D01*
X106056597Y-145618065D02*
X105596633Y-145494818D01*
X105596633Y-145494818D02*
X105427389Y-145942458D01*
X105427389Y-145942458D02*
X105485710Y-145908786D01*
X105485710Y-145908786D02*
X105590028Y-145887439D01*
X105590028Y-145887439D02*
X105820010Y-145949063D01*
X105820010Y-145949063D02*
X105899678Y-146019709D01*
X105899678Y-146019709D02*
X105933350Y-146078030D01*
X105933350Y-146078030D02*
X105954697Y-146182347D01*
X105954697Y-146182347D02*
X105893074Y-146412330D01*
X105893074Y-146412330D02*
X105822428Y-146491998D01*
X105822428Y-146491998D02*
X105764106Y-146525670D01*
X105764106Y-146525670D02*
X105659789Y-146547017D01*
X105659789Y-146547017D02*
X105429806Y-146485393D01*
X105429806Y-146485393D02*
X105350138Y-146414747D01*
X105350138Y-146414747D02*
X105316466Y-146356426D01*
X106700548Y-145790611D02*
X106792541Y-145815261D01*
X106792541Y-145815261D02*
X106872209Y-145885906D01*
X106872209Y-145885906D02*
X106905881Y-145944228D01*
X106905881Y-145944228D02*
X106927228Y-146048545D01*
X106927228Y-146048545D02*
X106923925Y-146244856D01*
X106923925Y-146244856D02*
X106862302Y-146474838D01*
X106862302Y-146474838D02*
X106767006Y-146646499D01*
X106767006Y-146646499D02*
X106696361Y-146726168D01*
X106696361Y-146726168D02*
X106638039Y-146759839D01*
X106638039Y-146759839D02*
X106533722Y-146781186D01*
X106533722Y-146781186D02*
X106441729Y-146756537D01*
X106441729Y-146756537D02*
X106362061Y-146685891D01*
X106362061Y-146685891D02*
X106328389Y-146627570D01*
X106328389Y-146627570D02*
X106307042Y-146523252D01*
X106307042Y-146523252D02*
X106310344Y-146326942D01*
X106310344Y-146326942D02*
X106371968Y-146096959D01*
X106371968Y-146096959D02*
X106467263Y-145925298D01*
X106467263Y-145925298D02*
X106537909Y-145845630D01*
X106537909Y-145845630D02*
X106596230Y-145811958D01*
X106596230Y-145811958D02*
X106700548Y-145790611D01*
X159189542Y-162454876D02*
X159448361Y-161488950D01*
X159741499Y-162602772D02*
X159475428Y-161939892D01*
X160000318Y-161636846D02*
X159300464Y-162040907D01*
X160874251Y-161871016D02*
X160414287Y-161747769D01*
X160414287Y-161747769D02*
X160245043Y-162195409D01*
X160245043Y-162195409D02*
X160303364Y-162161737D01*
X160303364Y-162161737D02*
X160407682Y-162140390D01*
X160407682Y-162140390D02*
X160637664Y-162202014D01*
X160637664Y-162202014D02*
X160717332Y-162272660D01*
X160717332Y-162272660D02*
X160751004Y-162330981D01*
X160751004Y-162330981D02*
X160772351Y-162435298D01*
X160772351Y-162435298D02*
X160710728Y-162665281D01*
X160710728Y-162665281D02*
X160640082Y-162744949D01*
X160640082Y-162744949D02*
X160581760Y-162778621D01*
X160581760Y-162778621D02*
X160477443Y-162799968D01*
X160477443Y-162799968D02*
X160247460Y-162738344D01*
X160247460Y-162738344D02*
X160167792Y-162667698D01*
X160167792Y-162667698D02*
X160134120Y-162609377D01*
X161242223Y-161969614D02*
X161840177Y-162129835D01*
X161840177Y-162129835D02*
X161419604Y-162411534D01*
X161419604Y-162411534D02*
X161557594Y-162448508D01*
X161557594Y-162448508D02*
X161637262Y-162519154D01*
X161637262Y-162519154D02*
X161670933Y-162577475D01*
X161670933Y-162577475D02*
X161692281Y-162681793D01*
X161692281Y-162681793D02*
X161630657Y-162911775D01*
X161630657Y-162911775D02*
X161560011Y-162991443D01*
X161560011Y-162991443D02*
X161501690Y-163025115D01*
X161501690Y-163025115D02*
X161397372Y-163046462D01*
X161397372Y-163046462D02*
X161121393Y-162972514D01*
X161121393Y-162972514D02*
X161041725Y-162901868D01*
X161041725Y-162901868D02*
X161008053Y-162843547D01*
X307998468Y-146829159D02*
X307739649Y-145863233D01*
X308550426Y-146681263D02*
X307988561Y-146240227D01*
X308291607Y-145715337D02*
X307887546Y-146415191D01*
X309165540Y-145481167D02*
X308705575Y-145604414D01*
X308705575Y-145604414D02*
X308782826Y-146076704D01*
X308782826Y-146076704D02*
X308816498Y-146018383D01*
X308816498Y-146018383D02*
X308896166Y-145947737D01*
X308896166Y-145947737D02*
X309126148Y-145886113D01*
X309126148Y-145886113D02*
X309230466Y-145907460D01*
X309230466Y-145907460D02*
X309288787Y-145941132D01*
X309288787Y-145941132D02*
X309359433Y-146020800D01*
X309359433Y-146020800D02*
X309421056Y-146250782D01*
X309421056Y-146250782D02*
X309399709Y-146355100D01*
X309399709Y-146355100D02*
X309366038Y-146413421D01*
X309366038Y-146413421D02*
X309286369Y-146484067D01*
X309286369Y-146484067D02*
X309056387Y-146545691D01*
X309056387Y-146545691D02*
X308952069Y-146524344D01*
X308952069Y-146524344D02*
X308893748Y-146490672D01*
X309533512Y-145382569D02*
X310177462Y-145210023D01*
X310177462Y-145210023D02*
X310022313Y-146286872D01*
X266263353Y-138303186D02*
X266004534Y-137337260D01*
X266815311Y-138155290D02*
X266253446Y-137714254D01*
X266556492Y-137189364D02*
X266152431Y-137889218D01*
X266878467Y-137103091D02*
X267476421Y-136942869D01*
X267476421Y-136942869D02*
X267253044Y-137397114D01*
X267253044Y-137397114D02*
X267391033Y-137360140D01*
X267391033Y-137360140D02*
X267495351Y-137381487D01*
X267495351Y-137381487D02*
X267553672Y-137415159D01*
X267553672Y-137415159D02*
X267624318Y-137494827D01*
X267624318Y-137494827D02*
X267685941Y-137724809D01*
X267685941Y-137724809D02*
X267664594Y-137829127D01*
X267664594Y-137829127D02*
X267630923Y-137887448D01*
X267630923Y-137887448D02*
X267551254Y-137958094D01*
X267551254Y-137958094D02*
X267275276Y-138032042D01*
X267275276Y-138032042D02*
X267170958Y-138010695D01*
X267170958Y-138010695D02*
X267112637Y-137977024D01*
X268195205Y-137785548D02*
X268379191Y-137736249D01*
X268379191Y-137736249D02*
X268458859Y-137665603D01*
X268458859Y-137665603D02*
X268492531Y-137607282D01*
X268492531Y-137607282D02*
X268547550Y-137444643D01*
X268547550Y-137444643D02*
X268544247Y-137248333D01*
X268544247Y-137248333D02*
X268445650Y-136880361D01*
X268445650Y-136880361D02*
X268375004Y-136800693D01*
X268375004Y-136800693D02*
X268316682Y-136767021D01*
X268316682Y-136767021D02*
X268212365Y-136745674D01*
X268212365Y-136745674D02*
X268028379Y-136794973D01*
X268028379Y-136794973D02*
X267948711Y-136865619D01*
X267948711Y-136865619D02*
X267915039Y-136923940D01*
X267915039Y-136923940D02*
X267893692Y-137028258D01*
X267893692Y-137028258D02*
X267955316Y-137258240D01*
X267955316Y-137258240D02*
X268025961Y-137337908D01*
X268025961Y-137337908D02*
X268084283Y-137371580D01*
X268084283Y-137371580D02*
X268188600Y-137392927D01*
X268188600Y-137392927D02*
X268372586Y-137343628D01*
X268372586Y-137343628D02*
X268452254Y-137272982D01*
X268452254Y-137272982D02*
X268485926Y-137214661D01*
X268485926Y-137214661D02*
X268507273Y-137110343D01*
X298137469Y-110027389D02*
X297878650Y-109061463D01*
X298689427Y-109879493D02*
X298127562Y-109438457D01*
X298430608Y-108913567D02*
X298026547Y-109613421D01*
X298823229Y-108906962D02*
X298856901Y-108848641D01*
X298856901Y-108848641D02*
X298936569Y-108777995D01*
X298936569Y-108777995D02*
X299166551Y-108716371D01*
X299166551Y-108716371D02*
X299270869Y-108737718D01*
X299270869Y-108737718D02*
X299329190Y-108771390D01*
X299329190Y-108771390D02*
X299399836Y-108851058D01*
X299399836Y-108851058D02*
X299424486Y-108943051D01*
X299424486Y-108943051D02*
X299415463Y-109093365D01*
X299415463Y-109093365D02*
X299011402Y-109793220D01*
X299011402Y-109793220D02*
X299609356Y-109632998D01*
X300224470Y-108432903D02*
X299764506Y-108556150D01*
X299764506Y-108556150D02*
X299841756Y-109028439D01*
X299841756Y-109028439D02*
X299875428Y-108970118D01*
X299875428Y-108970118D02*
X299955096Y-108899472D01*
X299955096Y-108899472D02*
X300185079Y-108837849D01*
X300185079Y-108837849D02*
X300289396Y-108859196D01*
X300289396Y-108859196D02*
X300347717Y-108892868D01*
X300347717Y-108892868D02*
X300418363Y-108972536D01*
X300418363Y-108972536D02*
X300479987Y-109202518D01*
X300479987Y-109202518D02*
X300458640Y-109306836D01*
X300458640Y-109306836D02*
X300424968Y-109365157D01*
X300424968Y-109365157D02*
X300345300Y-109435803D01*
X300345300Y-109435803D02*
X300115318Y-109497426D01*
X300115318Y-109497426D02*
X300011000Y-109476079D01*
X300011000Y-109476079D02*
X299952679Y-109442408D01*
X95033714Y-107424413D02*
X95292533Y-106458487D01*
X95585671Y-107572309D02*
X95319600Y-106909429D01*
X95844490Y-106606383D02*
X95144636Y-107010444D01*
X96505601Y-107818804D02*
X95953643Y-107670907D01*
X96229622Y-107744855D02*
X96488441Y-106778929D01*
X96488441Y-106778929D02*
X96359474Y-106892269D01*
X96359474Y-106892269D02*
X96242831Y-106959613D01*
X96242831Y-106959613D02*
X96138514Y-106980960D01*
X97086395Y-106939151D02*
X97730346Y-107111697D01*
X97730346Y-107111697D02*
X97057558Y-107966700D01*
X174441011Y-107375463D02*
X174699830Y-106409537D01*
X174992968Y-107523360D02*
X174726897Y-106860480D01*
X175251788Y-106557434D02*
X174551933Y-106961495D01*
X176125720Y-106791603D02*
X175665756Y-106668356D01*
X175665756Y-106668356D02*
X175496512Y-107115996D01*
X175496512Y-107115996D02*
X175554833Y-107082324D01*
X175554833Y-107082324D02*
X175659151Y-107060977D01*
X175659151Y-107060977D02*
X175889133Y-107122601D01*
X175889133Y-107122601D02*
X175968802Y-107193247D01*
X175968802Y-107193247D02*
X176002473Y-107251568D01*
X176002473Y-107251568D02*
X176023820Y-107355886D01*
X176023820Y-107355886D02*
X175962197Y-107585868D01*
X175962197Y-107585868D02*
X175891551Y-107665536D01*
X175891551Y-107665536D02*
X175833230Y-107699208D01*
X175833230Y-107699208D02*
X175728912Y-107720555D01*
X175728912Y-107720555D02*
X175498930Y-107658931D01*
X175498930Y-107658931D02*
X175419261Y-107588286D01*
X175419261Y-107588286D02*
X175385590Y-107529964D01*
X100433601Y-89136151D02*
X100692420Y-88170225D01*
X100985558Y-89284048D02*
X100719487Y-88621168D01*
X101244378Y-88318122D02*
X100544523Y-88722183D01*
X101905488Y-89530542D02*
X101353530Y-89382645D01*
X101629509Y-89456594D02*
X101888328Y-88490668D01*
X101888328Y-88490668D02*
X101759361Y-88604008D01*
X101759361Y-88604008D02*
X101642719Y-88671351D01*
X101642719Y-88671351D02*
X101538401Y-88692698D01*
X274868751Y-94975591D02*
X274609931Y-94009665D01*
X275420708Y-94827694D02*
X274858843Y-94386659D01*
X275161889Y-93861769D02*
X274757828Y-94561623D01*
X275824769Y-94127840D02*
X275720452Y-94106493D01*
X275720452Y-94106493D02*
X275662130Y-94072821D01*
X275662130Y-94072821D02*
X275591484Y-93993153D01*
X275591484Y-93993153D02*
X275579160Y-93947157D01*
X275579160Y-93947157D02*
X275600507Y-93842839D01*
X275600507Y-93842839D02*
X275634179Y-93784518D01*
X275634179Y-93784518D02*
X275713847Y-93713872D01*
X275713847Y-93713872D02*
X275897833Y-93664573D01*
X275897833Y-93664573D02*
X276002150Y-93685920D01*
X276002150Y-93685920D02*
X276060471Y-93719592D01*
X276060471Y-93719592D02*
X276131117Y-93799260D01*
X276131117Y-93799260D02*
X276143442Y-93845257D01*
X276143442Y-93845257D02*
X276122095Y-93949574D01*
X276122095Y-93949574D02*
X276088423Y-94007895D01*
X276088423Y-94007895D02*
X276008755Y-94078541D01*
X276008755Y-94078541D02*
X275824769Y-94127840D01*
X275824769Y-94127840D02*
X275745101Y-94198486D01*
X275745101Y-94198486D02*
X275711429Y-94256807D01*
X275711429Y-94256807D02*
X275690082Y-94361125D01*
X275690082Y-94361125D02*
X275739381Y-94545111D01*
X275739381Y-94545111D02*
X275810027Y-94624779D01*
X275810027Y-94624779D02*
X275868348Y-94658451D01*
X275868348Y-94658451D02*
X275972666Y-94679798D01*
X275972666Y-94679798D02*
X276156652Y-94630499D01*
X276156652Y-94630499D02*
X276236320Y-94559853D01*
X276236320Y-94559853D02*
X276269992Y-94501532D01*
X276269992Y-94501532D02*
X276291339Y-94397214D01*
X276291339Y-94397214D02*
X276242040Y-94213228D01*
X276242040Y-94213228D02*
X276171394Y-94133560D01*
X276171394Y-94133560D02*
X276113073Y-94099888D01*
X276113073Y-94099888D02*
X276008755Y-94078541D01*
X218107475Y-205400251D02*
X217400369Y-204693144D01*
X218511536Y-204996190D02*
X217804430Y-204895175D01*
X217804430Y-204289083D02*
X217804430Y-205097205D01*
X218040132Y-204053381D02*
X218511536Y-203581976D01*
X218511536Y-203581976D02*
X218915597Y-204592129D01*
X218915598Y-203177915D02*
X218982941Y-203110572D01*
X218982941Y-203110572D02*
X219083956Y-203076900D01*
X219083956Y-203076900D02*
X219151300Y-203076900D01*
X219151300Y-203076900D02*
X219252315Y-203110572D01*
X219252315Y-203110572D02*
X219420674Y-203211587D01*
X219420674Y-203211587D02*
X219589033Y-203379946D01*
X219589033Y-203379946D02*
X219690048Y-203548304D01*
X219690048Y-203548304D02*
X219723720Y-203649320D01*
X219723720Y-203649320D02*
X219723720Y-203716663D01*
X219723720Y-203716663D02*
X219690048Y-203817678D01*
X219690048Y-203817678D02*
X219622704Y-203885022D01*
X219622704Y-203885022D02*
X219521689Y-203918694D01*
X219521689Y-203918694D02*
X219454346Y-203918694D01*
X219454346Y-203918694D02*
X219353330Y-203885022D01*
X219353330Y-203885022D02*
X219184972Y-203784007D01*
X219184972Y-203784007D02*
X219016613Y-203615648D01*
X219016613Y-203615648D02*
X218915598Y-203447289D01*
X218915598Y-203447289D02*
X218881926Y-203346274D01*
X218881926Y-203346274D02*
X218881926Y-203278930D01*
X218881926Y-203278930D02*
X218915598Y-203177915D01*
X284266948Y-131914523D02*
X284008129Y-130948597D01*
X284818906Y-131766627D02*
X284257041Y-131325591D01*
X284560087Y-130800701D02*
X284156026Y-131500555D01*
X285474296Y-130900831D02*
X285646842Y-131544782D01*
X285145716Y-130594483D02*
X285100605Y-131346054D01*
X285100605Y-131346054D02*
X285698559Y-131185832D01*
X286077970Y-130393985D02*
X286169963Y-130369336D01*
X286169963Y-130369336D02*
X286274281Y-130390683D01*
X286274281Y-130390683D02*
X286332602Y-130424355D01*
X286332602Y-130424355D02*
X286403248Y-130504023D01*
X286403248Y-130504023D02*
X286498543Y-130675684D01*
X286498543Y-130675684D02*
X286560167Y-130905666D01*
X286560167Y-130905666D02*
X286563469Y-131101977D01*
X286563469Y-131101977D02*
X286542122Y-131206294D01*
X286542122Y-131206294D02*
X286508451Y-131264616D01*
X286508451Y-131264616D02*
X286428782Y-131335262D01*
X286428782Y-131335262D02*
X286336789Y-131359911D01*
X286336789Y-131359911D02*
X286232472Y-131338564D01*
X286232472Y-131338564D02*
X286174151Y-131304892D01*
X286174151Y-131304892D02*
X286103505Y-131225224D01*
X286103505Y-131225224D02*
X286008209Y-131053563D01*
X286008209Y-131053563D02*
X285946586Y-130823580D01*
X285946586Y-130823580D02*
X285943283Y-130627270D01*
X285943283Y-130627270D02*
X285964630Y-130522952D01*
X285964630Y-130522952D02*
X285998302Y-130464631D01*
X285998302Y-130464631D02*
X286077970Y-130393985D01*
X236570445Y-190762061D02*
X236070445Y-189896036D01*
X237065316Y-190476347D02*
X236408448Y-190195761D01*
X236565316Y-189610322D02*
X236356159Y-190390907D01*
X236853992Y-189443655D02*
X237431342Y-189110322D01*
X237431342Y-189110322D02*
X237560188Y-190190633D01*
X237926213Y-188824607D02*
X238008692Y-188776988D01*
X238008692Y-188776988D02*
X238114980Y-188770608D01*
X238114980Y-188770608D02*
X238180029Y-188788038D01*
X238180029Y-188788038D02*
X238268887Y-188846707D01*
X238268887Y-188846707D02*
X238405365Y-188987855D01*
X238405365Y-188987855D02*
X238524412Y-189194052D01*
X238524412Y-189194052D02*
X238578411Y-189382818D01*
X238578411Y-189382818D02*
X238584791Y-189489106D01*
X238584791Y-189489106D02*
X238567361Y-189554155D01*
X238567361Y-189554155D02*
X238508692Y-189643014D01*
X238508692Y-189643014D02*
X238426213Y-189690633D01*
X238426213Y-189690633D02*
X238319925Y-189697012D01*
X238319925Y-189697012D02*
X238254877Y-189679583D01*
X238254877Y-189679583D02*
X238166018Y-189620914D01*
X238166018Y-189620914D02*
X238029541Y-189479766D01*
X238029541Y-189479766D02*
X237910493Y-189273569D01*
X237910493Y-189273569D02*
X237856494Y-189084803D01*
X237856494Y-189084803D02*
X237850115Y-188978514D01*
X237850115Y-188978514D02*
X237867544Y-188913466D01*
X237867544Y-188913466D02*
X237926213Y-188824607D01*
X138418702Y-94580941D02*
X138677521Y-93615015D01*
X138970659Y-94728838D02*
X138704588Y-94065958D01*
X139229479Y-93762912D02*
X138529624Y-94166973D01*
X139551454Y-93849185D02*
X140149408Y-94009406D01*
X140149408Y-94009406D02*
X139728835Y-94291105D01*
X139728835Y-94291105D02*
X139866824Y-94328079D01*
X139866824Y-94328079D02*
X139946493Y-94398725D01*
X139946493Y-94398725D02*
X139980164Y-94457046D01*
X139980164Y-94457046D02*
X140001511Y-94561364D01*
X140001511Y-94561364D02*
X139939888Y-94791346D01*
X139939888Y-94791346D02*
X139869242Y-94871014D01*
X139869242Y-94871014D02*
X139810921Y-94904686D01*
X139810921Y-94904686D02*
X139706603Y-94926033D01*
X139706603Y-94926033D02*
X139430624Y-94852085D01*
X139430624Y-94852085D02*
X139350956Y-94781439D01*
X139350956Y-94781439D02*
X139317284Y-94723118D01*
D11*
X227635734Y-161201148D02*
X239902990Y-157914145D01*
X230922735Y-173468405D02*
X227635734Y-161201148D01*
X239902990Y-157914145D02*
X243189994Y-170181403D01*
X243189994Y-170181403D02*
X230922735Y-173468405D01*
X76648259Y-156196977D02*
X79935262Y-143929719D01*
X79935262Y-143929719D02*
X92202518Y-147216721D01*
X88915518Y-159483980D02*
X76648259Y-156196977D01*
X92202518Y-147216721D02*
X88915518Y-159483980D01*
X322501399Y-147218674D02*
X334768655Y-143931671D01*
X325788400Y-159485931D02*
X322501399Y-147218674D01*
X334768655Y-143931671D02*
X338055659Y-156198929D01*
X338055659Y-156198929D02*
X325788400Y-159485931D01*
X238645247Y-128652924D02*
X250912503Y-125365921D01*
X241932248Y-140920181D02*
X238645247Y-128652924D01*
X250912503Y-125365921D02*
X254199507Y-137633179D01*
X254199507Y-137633179D02*
X241932248Y-140920181D01*
X312640388Y-110416904D02*
X324907644Y-107129901D01*
X315927389Y-122684161D02*
X312640388Y-110416904D01*
X324907644Y-107129901D02*
X328194648Y-119397159D01*
X328194648Y-119397159D02*
X315927389Y-122684161D01*
X308242132Y-167605917D02*
X320509388Y-164318914D01*
X311529133Y-179873174D02*
X308242132Y-167605917D01*
X320509388Y-164318914D02*
X323796392Y-176586172D01*
X323796392Y-176586172D02*
X311529133Y-179873174D01*
X81578764Y-137796082D02*
X84865767Y-125528824D01*
X84865767Y-125528824D02*
X97133023Y-128815826D01*
X93846023Y-141083085D02*
X81578764Y-137796082D01*
X97133023Y-128815826D02*
X93846023Y-141083085D01*
X67719821Y-115914841D02*
X71006823Y-103647581D01*
X71006823Y-103647581D02*
X83274080Y-106934583D01*
X79987079Y-119201842D02*
X67719821Y-115914841D01*
X83274080Y-106934583D02*
X79987079Y-119201842D01*
X100787373Y-139761201D02*
X104074376Y-127493943D01*
X104074376Y-127493943D02*
X116341632Y-130780945D01*
X113054632Y-143048204D02*
X100787373Y-139761201D01*
X116341632Y-130780945D02*
X113054632Y-143048204D01*
X72659744Y-97503326D02*
X75946746Y-85236066D01*
X75946746Y-85236066D02*
X88214003Y-88523068D01*
X84927002Y-100790327D02*
X72659744Y-97503326D01*
X88214003Y-88523068D02*
X84927002Y-100790327D01*
X326499343Y-88535653D02*
X338766599Y-85248650D01*
X329786344Y-100802910D02*
X326499343Y-88535653D01*
X338766599Y-85248650D02*
X342053603Y-97515908D01*
X342053603Y-97515908D02*
X329786344Y-100802910D01*
X109702855Y-180042643D02*
X112989858Y-167775385D01*
X112989858Y-167775385D02*
X125257114Y-171062387D01*
X121970114Y-183329646D02*
X109702855Y-180042643D01*
X125257114Y-171062387D02*
X121970114Y-183329646D01*
X137579727Y-149632829D02*
X140866730Y-137365571D01*
X140866730Y-137365571D02*
X153133986Y-140652573D01*
X149846986Y-152919832D02*
X137579727Y-149632829D01*
X153133986Y-140652573D02*
X149846986Y-152919832D01*
X233714748Y-110252047D02*
X245982004Y-106965044D01*
X237001749Y-122519304D02*
X233714748Y-110252047D01*
X245982004Y-106965044D02*
X249269008Y-119232302D01*
X249269008Y-119232302D02*
X237001749Y-122519304D01*
X307707047Y-92029928D02*
X319974303Y-88742925D01*
X310994048Y-104297185D02*
X307707047Y-92029928D01*
X319974303Y-88742925D02*
X323261307Y-101010183D01*
X323261307Y-101010183D02*
X310994048Y-104297185D01*
X331429848Y-106936539D02*
X343697104Y-103649536D01*
X334716849Y-119203796D02*
X331429848Y-106936539D01*
X343697104Y-103649536D02*
X346984108Y-115916794D01*
X346984108Y-115916794D02*
X334716849Y-119203796D01*
X132658639Y-168023085D02*
X135945642Y-155755827D01*
X135945642Y-155755827D02*
X148212898Y-159042829D01*
X144925898Y-171310088D02*
X132658639Y-168023085D01*
X148212898Y-159042829D02*
X144925898Y-171310088D01*
X181458669Y-209758249D02*
X190438927Y-200777994D01*
X190438927Y-200777994D02*
X199419182Y-209758248D01*
X190438927Y-218738506D02*
X181458669Y-209758249D01*
X199419182Y-209758248D02*
X190438927Y-218738506D01*
X271440360Y-177466930D02*
X283707616Y-174179927D01*
X274727361Y-189734187D02*
X271440360Y-177466930D01*
X283707616Y-174179927D02*
X286994620Y-186447185D01*
X286994620Y-186447185D02*
X274727361Y-189734187D01*
X357224775Y-129615072D02*
X369492031Y-126328069D01*
X360511776Y-141882329D02*
X357224775Y-129615072D01*
X369492031Y-126328069D02*
X372779035Y-138595327D01*
X372779035Y-138595327D02*
X360511776Y-141882329D01*
X155595594Y-156024773D02*
X158882597Y-143757515D01*
X158882597Y-143757515D02*
X171149853Y-147044517D01*
X167862853Y-159311776D02*
X155595594Y-156024773D01*
X171149853Y-147044517D02*
X167862853Y-159311776D01*
X256648850Y-122264269D02*
X268916106Y-118977266D01*
X259935851Y-134531526D02*
X256648850Y-122264269D01*
X268916106Y-118977266D02*
X272203110Y-131244524D01*
X272203110Y-131244524D02*
X259935851Y-134531526D01*
X266512707Y-159052131D02*
X278779963Y-155765128D01*
X269799708Y-171319388D02*
X266512707Y-159052131D01*
X278779963Y-155765128D02*
X282066967Y-168032386D01*
X282066967Y-168032386D02*
X269799708Y-171319388D01*
X243575750Y-147053815D02*
X255843006Y-143766812D01*
X246862751Y-159321072D02*
X243575750Y-147053815D01*
X255843006Y-143766812D02*
X259130010Y-156034070D01*
X259130010Y-156034070D02*
X246862751Y-159321072D01*
X142519649Y-131221317D02*
X145806652Y-118954059D01*
X145806652Y-118954059D02*
X158073908Y-122241061D01*
X154786908Y-134508320D02*
X142519649Y-131221317D01*
X158073908Y-122241061D02*
X154786908Y-134508320D01*
X171539745Y-170160257D02*
X174826748Y-157892999D01*
X174826748Y-157892999D02*
X187094004Y-161180001D01*
X183807004Y-173447260D02*
X171539745Y-170160257D01*
X187094004Y-161180001D02*
X183807004Y-173447260D01*
X160526099Y-137623891D02*
X163813102Y-125356633D01*
X163813102Y-125356633D02*
X176080358Y-128643635D01*
X172793358Y-140910894D02*
X160526099Y-137623891D01*
X176080358Y-128643635D02*
X172793358Y-140910894D01*
X284516302Y-152663464D02*
X296783558Y-149376461D01*
X287803303Y-164930721D02*
X284516302Y-152663464D01*
X296783558Y-149376461D02*
X300070562Y-161643719D01*
X300070562Y-161643719D02*
X287803303Y-164930721D01*
X289443961Y-171078265D02*
X301711217Y-167791262D01*
X292730962Y-183345522D02*
X289443961Y-171078265D01*
X301711217Y-167791262D02*
X304998221Y-180058520D01*
X304998221Y-180058520D02*
X292730962Y-183345522D01*
X164704794Y-198889828D02*
X171054798Y-187891305D01*
X171054798Y-187891305D02*
X182053319Y-194241304D01*
X175703320Y-205239828D02*
X164704794Y-198889828D01*
X182053319Y-194241304D02*
X175703320Y-205239828D01*
X248503415Y-165468617D02*
X260770671Y-162181614D01*
X251790416Y-177735874D02*
X248503415Y-165468617D01*
X260770671Y-162181614D02*
X264057675Y-174448872D01*
X264057675Y-174448872D02*
X251790416Y-177735874D01*
X145734591Y-192826549D02*
X149021594Y-180559291D01*
X149021594Y-180559291D02*
X161288850Y-183846293D01*
X158001850Y-196113552D02*
X145734591Y-192826549D01*
X161288850Y-183846293D02*
X158001850Y-196113552D01*
X274655303Y-115861696D02*
X286922559Y-112574693D01*
X277942304Y-128128953D02*
X274655303Y-115861696D01*
X286922559Y-112574693D02*
X290209563Y-124841951D01*
X290209563Y-124841951D02*
X277942304Y-128128953D01*
X105708460Y-121370931D02*
X108995463Y-109103673D01*
X108995463Y-109103673D02*
X121262719Y-112390675D01*
X117975719Y-124657934D02*
X105708460Y-121370931D01*
X121262719Y-112390675D02*
X117975719Y-124657934D01*
X147450153Y-112820432D02*
X150737156Y-100553174D01*
X150737156Y-100553174D02*
X163004412Y-103840176D01*
X159717412Y-116107435D02*
X147450153Y-112820432D01*
X163004412Y-103840176D02*
X159717412Y-116107435D01*
X71717757Y-174597856D02*
X75004760Y-162330598D01*
X75004760Y-162330598D02*
X87272016Y-165617600D01*
X83985016Y-177884859D02*
X71717757Y-174597856D01*
X87272016Y-165617600D02*
X83985016Y-177884859D01*
X341290855Y-143738318D02*
X353558111Y-140451315D01*
X344577856Y-156005575D02*
X341290855Y-143738318D01*
X353558111Y-140451315D02*
X356845115Y-152718573D01*
X356845115Y-152718573D02*
X344577856Y-156005575D01*
X317568047Y-128831696D02*
X329835303Y-125544693D01*
X320855048Y-141098953D02*
X317568047Y-128831696D01*
X329835303Y-125544693D02*
X333122307Y-137811951D01*
X333122307Y-137811951D02*
X320855048Y-141098953D01*
X114633355Y-161641763D02*
X117920358Y-149374505D01*
X117920358Y-149374505D02*
X130187614Y-152661507D01*
X126900614Y-164928766D02*
X114633355Y-161641763D01*
X130187614Y-152661507D02*
X126900614Y-164928766D01*
X110638956Y-102970051D02*
X113925959Y-90702793D01*
X113925959Y-90702793D02*
X126193215Y-93989795D01*
X122906215Y-106257054D02*
X110638956Y-102970051D01*
X126193215Y-93989795D02*
X122906215Y-106257054D01*
X336360346Y-125337431D02*
X348627602Y-122050428D01*
X339647347Y-137604688D02*
X336360346Y-125337431D01*
X348627602Y-122050428D02*
X351914606Y-134317686D01*
X351914606Y-134317686D02*
X339647347Y-137604688D01*
X127718724Y-186434600D02*
X131005727Y-174167342D01*
X131005727Y-174167342D02*
X143272983Y-177454344D01*
X139985983Y-189721603D02*
X127718724Y-186434600D01*
X143272983Y-177454344D02*
X139985983Y-189721603D01*
X251721195Y-103849468D02*
X263988451Y-100562465D01*
X255008196Y-116116725D02*
X251721195Y-103849468D01*
X263988451Y-100562465D02*
X267275455Y-112829723D01*
X267275455Y-112829723D02*
X255008196Y-116116725D01*
X327431908Y-165619562D02*
X339699164Y-162332559D01*
X330718909Y-177886819D02*
X327431908Y-165619562D01*
X339699164Y-162332559D02*
X342986168Y-174599817D01*
X342986168Y-174599817D02*
X330718909Y-177886819D01*
X124503789Y-124829366D02*
X127790792Y-112562108D01*
X127790792Y-112562108D02*
X140058048Y-115849110D01*
X136771048Y-128116369D02*
X124503789Y-124829366D01*
X140058048Y-115849110D02*
X136771048Y-128116369D01*
D12*
X196861785Y-156201166D02*
X196861786Y-105201161D01*
X196861786Y-105201161D02*
X217861787Y-105201160D01*
X196861788Y-106501161D02*
X198161784Y-105201163D01*
X217861786Y-156201165D02*
X196861785Y-156201166D01*
X217861787Y-105201160D02*
X217861786Y-156201165D01*
D11*
X288522973Y-93988466D02*
X300790229Y-90701463D01*
X291809974Y-106255723D02*
X288522973Y-93988466D01*
X300790229Y-90701463D02*
X304077233Y-102968721D01*
X304077233Y-102968721D02*
X291809974Y-106255723D01*
X90916947Y-176573597D02*
X94203950Y-164306339D01*
X94203950Y-164306339D02*
X106471206Y-167593341D01*
X103184206Y-179860600D02*
X90916947Y-176573597D01*
X106471206Y-167593341D02*
X103184206Y-179860600D01*
X298381129Y-130804150D02*
X310648385Y-127517147D01*
X301668130Y-143071407D02*
X298381129Y-130804150D01*
X310648385Y-127517147D02*
X313935389Y-139784405D01*
X313935389Y-139784405D02*
X301668130Y-143071407D01*
X119563867Y-143240876D02*
X122850870Y-130973618D01*
X122850870Y-130973618D02*
X135118126Y-134260620D01*
X131831126Y-146527879D02*
X119563867Y-143240876D01*
X135118126Y-134260620D02*
X131831126Y-146527879D01*
X41919114Y-138600831D02*
X45206117Y-126333573D01*
X45206117Y-126333573D02*
X57473373Y-129620575D01*
X54186373Y-141887834D02*
X41919114Y-138600831D01*
X57473373Y-129620575D02*
X54186373Y-141887834D01*
X62789318Y-134315726D02*
X66076321Y-122048468D01*
X66076321Y-122048468D02*
X78343577Y-125335470D01*
X75056577Y-137602729D02*
X62789318Y-134315726D01*
X78343577Y-125335470D02*
X75056577Y-137602729D01*
X57868236Y-152705986D02*
X61155239Y-140438728D01*
X61155239Y-140438728D02*
X73422495Y-143725730D01*
X70135495Y-155992989D02*
X57868236Y-152705986D01*
X73422495Y-143725730D02*
X70135495Y-155992989D01*
X253436760Y-183855589D02*
X265704016Y-180568586D01*
X256723761Y-196122846D02*
X253436760Y-183855589D01*
X265704016Y-180568586D02*
X268991020Y-192835844D01*
X268991020Y-192835844D02*
X256723761Y-196122846D01*
X95847444Y-158172710D02*
X99134447Y-145905452D01*
X99134447Y-145905452D02*
X111401703Y-149192454D01*
X108114703Y-161459713D02*
X95847444Y-158172710D01*
X111401703Y-149192454D02*
X108114703Y-161459713D01*
X150665098Y-174425661D02*
X153952101Y-162158403D01*
X153952101Y-162158403D02*
X166219357Y-165445405D01*
X162932357Y-177712664D02*
X150665098Y-174425661D01*
X166219357Y-165445405D02*
X162932357Y-177712664D01*
X303314475Y-149191129D02*
X315581731Y-145904126D01*
X306601476Y-161458386D02*
X303314475Y-149191129D01*
X315581731Y-145904126D02*
X318868735Y-158171384D01*
X318868735Y-158171384D02*
X306601476Y-161458386D01*
X261579360Y-140665156D02*
X273846616Y-137378153D01*
X264866361Y-152932413D02*
X261579360Y-140665156D01*
X273846616Y-137378153D02*
X277133620Y-149645411D01*
X277133620Y-149645411D02*
X264866361Y-152932413D01*
X293453476Y-112389359D02*
X305720732Y-109102356D01*
X296740477Y-124656616D02*
X293453476Y-112389359D01*
X305720732Y-109102356D02*
X309007736Y-121369614D01*
X309007736Y-121369614D02*
X296740477Y-124656616D01*
X86509270Y-119395198D02*
X89796273Y-107127940D01*
X89796273Y-107127940D02*
X102063529Y-110414942D01*
X98776529Y-122682201D02*
X86509270Y-119395198D01*
X102063529Y-110414942D02*
X98776529Y-122682201D01*
X165456602Y-119223001D02*
X168743605Y-106955743D01*
X168743605Y-106955743D02*
X181010861Y-110242745D01*
X177723861Y-122510004D02*
X165456602Y-119223001D01*
X181010861Y-110242745D02*
X177723861Y-122510004D01*
X91449192Y-100983689D02*
X94736195Y-88716431D01*
X94736195Y-88716431D02*
X107003451Y-92003433D01*
X103716451Y-104270692D02*
X91449192Y-100983689D01*
X107003451Y-92003433D02*
X103716451Y-104270692D01*
X269724792Y-97460808D02*
X281992048Y-94173805D01*
X273011793Y-109728065D02*
X269724792Y-97460808D01*
X281992048Y-94173805D02*
X285279052Y-106441063D01*
X285279052Y-106441063D02*
X273011793Y-109728065D01*
X215232002Y-209787773D02*
X224212256Y-200807518D01*
X224212256Y-200807518D02*
X233192514Y-209787773D01*
X224212257Y-218768031D02*
X215232002Y-209787773D01*
X233192514Y-209787773D02*
X224212257Y-218768031D01*
X279582955Y-134276493D02*
X291850211Y-130989490D01*
X282869956Y-146543750D02*
X279582955Y-134276493D01*
X291850211Y-130989490D02*
X295137215Y-143256748D01*
X295137215Y-143256748D02*
X282869956Y-146543750D01*
X232657377Y-194255851D02*
X243655898Y-187905854D01*
X239007375Y-205254375D02*
X232657377Y-194255851D01*
X243655898Y-187905854D02*
X250005898Y-198904375D01*
X250005898Y-198904375D02*
X239007375Y-205254375D01*
X129434293Y-106428479D02*
X132721296Y-94161221D01*
X132721296Y-94161221D02*
X144988552Y-97448223D01*
X141701552Y-109715482D02*
X129434293Y-106428479D01*
X144988552Y-97448223D02*
X141701552Y-109715482D01*
M02*
