G04 #@! TF.GenerationSoftware,KiCad,Pcbnew,8.0.2*
G04 #@! TF.CreationDate,2024-05-24T22:26:47+01:00*
G04 #@! TF.ProjectId,Phoenixia3,50686f65-6e69-4786-9961-332e6b696361,1*
G04 #@! TF.SameCoordinates,Original*
G04 #@! TF.FileFunction,Paste,Bot*
G04 #@! TF.FilePolarity,Positive*
%FSLAX46Y46*%
G04 Gerber Fmt 4.6, Leading zero omitted, Abs format (unit mm)*
G04 Created by KiCad (PCBNEW 8.0.2) date 2024-05-24 22:26:47*
%MOMM*%
%LPD*%
G01*
G04 APERTURE LIST*
G04 Aperture macros list*
%AMRoundRect*
0 Rectangle with rounded corners*
0 $1 Rounding radius*
0 $2 $3 $4 $5 $6 $7 $8 $9 X,Y pos of 4 corners*
0 Add a 4 corners polygon primitive as box body*
4,1,4,$2,$3,$4,$5,$6,$7,$8,$9,$2,$3,0*
0 Add four circle primitives for the rounded corners*
1,1,$1+$1,$2,$3*
1,1,$1+$1,$4,$5*
1,1,$1+$1,$6,$7*
1,1,$1+$1,$8,$9*
0 Add four rect primitives between the rounded corners*
20,1,$1+$1,$2,$3,$4,$5,0*
20,1,$1+$1,$4,$5,$6,$7,0*
20,1,$1+$1,$6,$7,$8,$9,0*
20,1,$1+$1,$8,$9,$2,$3,0*%
G04 Aperture macros list end*
%ADD10RoundRect,0.082000X0.608642X-0.502656X0.778427X0.130992X-0.608642X0.502656X-0.778427X-0.130992X0*%
%ADD11RoundRect,0.082000X0.778427X-0.130992X0.608642X0.502656X-0.778427X0.130992X-0.608642X-0.502656X0*%
%ADD12RoundRect,0.250000X-0.212132X0.367423X-0.367423X-0.212132X0.212132X-0.367423X0.367423X0.212132X0*%
%ADD13RoundRect,0.250000X-0.367423X0.212132X-0.212132X-0.367423X0.367423X-0.212132X0.212132X0.367423X0*%
%ADD14RoundRect,0.250000X-0.409808X0.109808X-0.109808X-0.409808X0.409808X-0.109808X0.109808X0.409808X0*%
%ADD15RoundRect,0.250000X-0.424264X0.000000X0.000000X-0.424264X0.424264X0.000000X0.000000X0.424264X0*%
%ADD16RoundRect,0.250000X-0.109808X0.409808X-0.409808X-0.109808X0.109808X-0.409808X0.409808X0.109808X0*%
%ADD17RoundRect,0.250000X0.000000X0.424264X-0.424264X0.000000X0.000000X-0.424264X0.424264X0.000000X0*%
G04 APERTURE END LIST*
D10*
X81435831Y-99311351D03*
X81824060Y-97862462D03*
X76801246Y-96516602D03*
X76413017Y-97965492D03*
D11*
X338290674Y-97980665D03*
X337902444Y-96531778D03*
X332879630Y-97877634D03*
X333267858Y-99326522D03*
X245506079Y-119697059D03*
X245117849Y-118248172D03*
X240095035Y-119594028D03*
X240483263Y-121042916D03*
X319498378Y-101474940D03*
X319110148Y-100026053D03*
X314087334Y-101371909D03*
X314475562Y-102820797D03*
D10*
X156226242Y-114628460D03*
X156614468Y-113179574D03*
X151591654Y-111833713D03*
X151203427Y-113282600D03*
X119415045Y-104778079D03*
X119803271Y-103329193D03*
X114780457Y-101983332D03*
X114392230Y-103432219D03*
D11*
X263512526Y-113294480D03*
X263124296Y-111845593D03*
X258101482Y-113191449D03*
X258489710Y-114640337D03*
X300314304Y-103433478D03*
X299926074Y-101984591D03*
X294903260Y-103330447D03*
X295291488Y-104779335D03*
D10*
X174232691Y-121031029D03*
X174620917Y-119582143D03*
X169598103Y-118236282D03*
X169209876Y-119685169D03*
X100225281Y-102791717D03*
X100613507Y-101342831D03*
X95590693Y-99996970D03*
X95202466Y-101445857D03*
D11*
X281516123Y-106905820D03*
X281127893Y-105456933D03*
X276105079Y-106802789D03*
X276493307Y-108251677D03*
D10*
X138210382Y-108236507D03*
X138598608Y-106787621D03*
X133575794Y-105441760D03*
X133187567Y-106890647D03*
D12*
X83606514Y-122811994D03*
X82881820Y-125516594D03*
D13*
X246089078Y-163750297D03*
X246813774Y-166454891D03*
D12*
X88537019Y-104411117D03*
X87812325Y-107115717D03*
D14*
X229886397Y-193246354D03*
X231286403Y-195671228D03*
D12*
X93518844Y-85915270D03*
X92794150Y-88619870D03*
D13*
X287010390Y-169374344D03*
X287735086Y-172078938D03*
X295944714Y-129114130D03*
X296669410Y-131818724D03*
D12*
X134676979Y-153049635D03*
X133952285Y-155754235D03*
D13*
X225213641Y-159502335D03*
X225938337Y-162206929D03*
X272216033Y-114185588D03*
X272940729Y-116890182D03*
D15*
X212346445Y-209568841D03*
X214326349Y-211548735D03*
D13*
X315131630Y-127141681D03*
X315856326Y-129846275D03*
D12*
X147759135Y-177829911D03*
X147034441Y-180534511D03*
X121591611Y-128256790D03*
X120866917Y-130961390D03*
D13*
X231234137Y-108477476D03*
X231958833Y-111182070D03*
X305180729Y-90253426D03*
X305905425Y-92958020D03*
X285993804Y-92225869D03*
X286718500Y-94930463D03*
X305803434Y-165887949D03*
X306528130Y-168592543D03*
X320062133Y-145542570D03*
X320786829Y-148247164D03*
D12*
X162544428Y-122650429D03*
X161819734Y-125355029D03*
X167492610Y-104280159D03*
X166767916Y-106984759D03*
D13*
X241158576Y-145349415D03*
X241883272Y-148054009D03*
X323970179Y-86773060D03*
X324694875Y-89477654D03*
D12*
X73761144Y-159579969D03*
X73036450Y-162284569D03*
D13*
X266950284Y-95763954D03*
X267674980Y-98468548D03*
X269021197Y-175779246D03*
X269745893Y-178483840D03*
D16*
X170550425Y-184968677D03*
X169150421Y-187393553D03*
D17*
X190694259Y-197835580D03*
X188714365Y-199815484D03*
D12*
X74729389Y-82434915D03*
X74004695Y-85139515D03*
D13*
X236451334Y-126911088D03*
X237176030Y-129615682D03*
D12*
X97844844Y-143205330D03*
X97120150Y-145909930D03*
D13*
X328990580Y-105260437D03*
X329715276Y-107965031D03*
D12*
X59871911Y-137715142D03*
X59147217Y-140419742D03*
X107736204Y-106386849D03*
X107011510Y-109091449D03*
X152683421Y-159452206D03*
X151958727Y-162156806D03*
D13*
X251036569Y-182178959D03*
X251761265Y-184883553D03*
D12*
X116661100Y-146657674D03*
X115936406Y-149362274D03*
D13*
X338606236Y-142127951D03*
X339330932Y-144832545D03*
X333921080Y-123661326D03*
X334645776Y-126365920D03*
X310201128Y-108740797D03*
X310925824Y-111445391D03*
D12*
X144537904Y-116272677D03*
X143813210Y-118977277D03*
D13*
X249192030Y-102086880D03*
X249916726Y-104791474D03*
X259142934Y-138975140D03*
X259867630Y-141679734D03*
D12*
X111746241Y-165024756D03*
X111021547Y-167729356D03*
X157613928Y-141051313D03*
X156889234Y-143755913D03*
D13*
X300875216Y-147515020D03*
X301599912Y-150219614D03*
X354858193Y-127953286D03*
X355582889Y-130657880D03*
X282077043Y-150987361D03*
X282801739Y-153691955D03*
D12*
X139607481Y-134648744D03*
X138882787Y-137353344D03*
X43965159Y-123669585D03*
X43240465Y-126374185D03*
X126522111Y-109855905D03*
X125797417Y-112560505D03*
D13*
X324995479Y-163929549D03*
X325720175Y-166634143D03*
D12*
X149486159Y-97877585D03*
X148761465Y-100582185D03*
X173609064Y-155249968D03*
X172884370Y-157954568D03*
D13*
X254212432Y-120574247D03*
X254937128Y-123278841D03*
X264095522Y-157347730D03*
X264820218Y-160052324D03*
X291014207Y-110713244D03*
X291738903Y-113417838D03*
D12*
X92950909Y-161566321D03*
X92226215Y-164270921D03*
X129752685Y-171427328D03*
X129027991Y-174131928D03*
D13*
X277146535Y-132586474D03*
X277871231Y-135291068D03*
D12*
X78661026Y-141196755D03*
X77936332Y-143901355D03*
X131470295Y-91485634D03*
X130745601Y-94190234D03*
X69747567Y-100930759D03*
X69022873Y-103635359D03*
X64571724Y-119265901D03*
X63847030Y-121970501D03*
X102805703Y-124787741D03*
X102081009Y-127492341D03*
X112472689Y-87825270D03*
X111747995Y-90529870D03*
M02*
