  0
SECTION
  2
HEADER
  9
$ANGBASE
  50
0.0
  9
$ANGDIR
  70
1
  9
$MEASUREMENT
  70
1
  0
ENDSEC
  0
SECTION
  2
TABLES
  0
TABLE
  2
LTYPE
  70
4
  0
LTYPE
  5
40F
  2
CONTINUOUS
  70
0
  3
Solid line
  72
65
  73
0
  40
0.0
  0
LTYPE
  5
410
  2
DASHDOT
 70
0
  3
Dash Dot ____ _ ____ _
 72
65
 73
4
 40
2.0
 49
1.25
 49
-0.25
 49
0.25
 49
-0.25
  0
LTYPE
  5
411
  2
DASHED
 70
0
  3
Dashed __ __ __ __ __
 72
65
 73
2
 40
0.75
 49
0.5
 49
-0.25
  0
LTYPE
  5
43B
  2
DOTTED
 70
0
  3
Dotted .  .  .  .
 72
65
 73
2
 40
0.2
 49
0.0
 49
-0.2
  0
ENDTAB
  0
TABLE
  2
STYLE
  70
4
  0
STYLE
  2
KICAD
  70
0
  40
0
  41
1
  42
1
  50
0
  71
0
  3
isocp.shx
  0
STYLE
  2
KICADB
  70
0
  40
0
  41
1
  42
1
  50
0
  71
0
  3
isocp.shx
  0
STYLE
  2
KICADI
  70
0
  40
0
  41
1
  42
1
  50
15
  71
0
  3
isocp.shx
  0
STYLE
  2
KICADBI
  70
0
  40
0
  41
1
  42
1
  50
15
  71
0
  3
isocp.shx
  0
ENDTAB
  0
TABLE
  2
LAYER
  70
1
  0
LAYER
  2
BLACK
  70
0
  62
7
  6
CONTINUOUS
  0
ENDTAB
  0
ENDSEC
  0
SECTION
  2
ENTITIES
0
ARC
8
BLACK
10
59.1237999999999957
20
-125.8164999999999907
40
5.0799299944988414
50
-105.00085840
51
-14.99950222
0
ARC
8
BLACK
10
58.8743999999999943
20
-165.9947999999999979
40
5.080144135865142
50
-194.99830078
51
-105.00093347
0
LINE
8
BLACK
6
CONTINUOUS
10
382.9753749999999854
20
-156.1721900000000005
11
374.4971289999999726
21
-158.446109000000007
0
CIRCLE
8
BLACK
10
347.203552000000002
20
-170.1509769999999833
40
1.1500599999999999
0
ARC
8
BLACK
10
43.2119999999999962
20
-151.2775000000000034
40
5.0801258401213838
50
-194.99864664
51
-105.00151420
0
CIRCLE
8
BLACK
10
258.0235519999999951
20
-131.7609769999999969
40
1.1500599999999999
0
ARC
8
BLACK
10
142.7866999999999962
20
-271.6671000000000049
40
59.6309946725629629
50
34.52991507
51
69.11974069
0
CIRCLE
8
BLACK
10
77.653492
20
-170.0809169999999995
40
1.1500599999999999
0
ARC
8
BLACK
10
12.0768799999999992
20
-626.320920000000001
40
437.6017530493107301
50
69.67994938
51
82.14957271
0
ARC
8
BLACK
10
346.1863999999999919
20
-92.1777000000000015
40
5.1146139884079229
50
15.00192405
51
94.32740867
0
CIRCLE
8
BLACK
10
272.8335519999999974
20
-187.0009769999999776
40
1.1500599999999999
0
CIRCLE
8
BLACK
10
152.0234920000000045
20
-186.9309169999999938
40
1.1500599999999999
0
LINE
8
BLACK
6
CONTINUOUS
10
367.3129279999999994
20
-170.8895189999999786
11
358.7258499999999799
21
-173.1904250000000047
0
ARC
8
BLACK
10
375.811999999999955
20
-163.3529999999999802
40
5.0800707334526356
50
-254.99919905
51
-164.99997730
0
CIRCLE
8
BLACK
10
152.0234920000000045
20
-186.9309169999999938
40
1.1500599999999999
0
ARC
8
BLACK
10
42.9558499999999981
20
-495.7380599999999617
40
410.2427722745208598
50
68.09214827
51
84.95012071
0
ARC
8
BLACK
10
360.0406999999999584
20
-178.09729999999999
40
5.080062298941618
50
-254.99938113
51
-164.99994014
0
ARC
8
BLACK
10
49.0606000000000009
20
-163.3651999999999873
40
5.0798562515498409
50
-15.00170162
51
75.00098721
0
ARC
8
BLACK
10
352.1639999999999873
20
-187.8337999999999965
40
5.0482440639368855
50
-80.18439338
51
15.00097868
0
LINE
8
BLACK
6
CONTINUOUS
10
66.1465599999999938
20
-173.2027259999999842
11
57.5594819999999956
21
-170.901820999999984
0
ARC
8
BLACK
10
381.6608999999999696
20
-151.265500000000003
40
5.0797351698037367
50
-75.00292665
51
15.00337232
0
ARC
8
BLACK
10
412.7951999999999657
20
-626.3071999999999662
40
437.6003066162558071
50
97.85040998
51
110.32007483
0
LINE
8
BLACK
6
CONTINUOUS
10
355.1337379999999939
20
-179.4121219999999823
11
357.0402070000000094
21
-186.527134999999987
0
CIRCLE
8
BLACK
10
166.8334919999999784
20
-131.6809169999999938
40
1.1500599999999999
0
LINE
8
BLACK
6
CONTINUOUS
10
67.8322069999999968
20
-186.5394369999999924
11
69.7386709999999965
21
-179.4244259999999827
0
LINE
8
BLACK
6
CONTINUOUS
10
38.3049419999999969
20
-149.9627820000000042
11
43.1079030000000003
21
-132.0455969999999866
0
ARC
8
BLACK
10
72.7087999999999965
20
-187.845799999999997
40
5.0485257640658823
50
-194.99653421
51
-99.81939483
0
LINE
8
BLACK
6
CONTINUOUS
10
64.0306470000000019
20
-127.1312399999999911
11
73.7456669999999974
21
-90.8660629999999969
0
ARC
8
BLACK
10
64.8316999999999979
20
-178.1097000000000037
40
5.0800837253214635
50
-14.99898774
51
74.99956119
0
CIRCLE
8
BLACK
10
332.4035519999999906
20
-114.9109769999999884
40
1.1500599999999999
0
ARC
8
BLACK
10
365.9979999999999905
20
-165.9824999999999875
40
5.0800900070650323
50
-74.99895175
51
14.99830641
0
LINE
8
BLACK
6
CONTINUOUS
10
351.1267439999999738
20
-90.8537609999999916
11
360.8417650000000094
21
-127.118938
0
LINE
8
BLACK
6
CONTINUOUS
10
375.5428069999999821
20
-128.4411929999999984
11
367.0634739999999852
21
-130.7110339999999837
0
CIRCLE
8
BLACK
10
152.0234920000000045
20
-186.9309169999999938
40
1.1500599999999999
0
CIRCLE
8
BLACK
10
182.4135519999999815
20
-191.4509769999999946
40
1.1500599999999999
0
LINE
8
BLACK
6
CONTINUOUS
10
50.375278999999999
20
-158.4584129999999789
11
41.8970369999999974
21
-156.1844899999999825
0
LINE
8
BLACK
6
CONTINUOUS
10
57.8089389999999952
20
-130.7233339999999941
11
49.3296029999999988
21
-128.4534979999999962
0
ARC
8
BLACK
10
282.0942000000000007
20
-271.6771999999999707
40
59.6549586524267497
50
110.88021130
51
145.46249260
0
LINE
8
BLACK
6
CONTINUOUS
10
228.8435519999999883
20
-115.1109170000000006
11
196.0235519999999951
21
-115.1209169999999915
0
ARC
8
BLACK
10
78.685859999999991
20
-92.1898499999999927
40
5.1144812932122452
50
85.67080009
51
164.99928284
0
ARC
8
BLACK
10
365.7484999999999786
20
-125.8044000000000011
40
5.0797848212923347
50
-165.00237161
51
-74.99732660
0
CIRCLE
8
BLACK
10
92.453552000000002
20
-114.8309769999999901
40
1.1500599999999999
0
ARC
8
BLACK
10
376.8577999999999975
20
-133.3478000000000065
40
5.0797636601025049
50
14.99730622
51
105.00295924
0
ARC
8
BLACK
10
48.0147799999999947
20
-133.3603599999999858
40
5.0799649250066681
50
74.99963733
51
165.00033478
0
LINE
8
BLACK
6
CONTINUOUS
10
381.7645109999999704
20
-132.033298000000002
11
386.5674699999999575
21
-149.9504790000000014
0
ARC
8
BLACK
10
212.4291399999999896
20
-222.7482399999999814
40
25.4849075132954894
50
-143.61504823
51
-36.35704573
0
CIRCLE
8
BLACK
10
242.4435519999999826
20
-191.5209769999999878
40
1.1500599999999999
0
ARC
8
BLACK
10
381.911200000000008
20
-495.7279999999999518
40
410.2426949205564597
50
95.04987252
51
111.90784786
0
CIRCLE
8
BLACK
10
166.8234919999999875
20
-131.6809169999999938
40
1.1500599999999999
  0
ENDSEC
  0
EOF
