  0
SECTION
  2
HEADER
  9
$ANGBASE
  50
0.0
  9
$ANGDIR
  70
1
  9
$MEASUREMENT
  70
1
  0
ENDSEC
  0
SECTION
  2
TABLES
  0
TABLE
  2
LTYPE
  70
4
  0
LTYPE
  5
40F
  2
CONTINUOUS
  70
0
  3
Solid line
  72
65
  73
0
  40
0.0
  0
LTYPE
  5
410
  2
DASHDOT
 70
0
  3
Dash Dot ____ _ ____ _
 72
65
 73
4
 40
2.0
 49
1.25
 49
-0.25
 49
0.25
 49
-0.25
  0
LTYPE
  5
411
  2
DASHED
 70
0
  3
Dashed __ __ __ __ __
 72
65
 73
2
 40
0.75
 49
0.5
 49
-0.25
  0
LTYPE
  5
43B
  2
DOTTED
 70
0
  3
Dotted .  .  .  .
 72
65
 73
2
 40
0.2
 49
0.0
 49
-0.2
  0
ENDTAB
  0
TABLE
  2
STYLE
  70
4
  0
STYLE
  2
KICAD
  70
0
  40
0
  41
1
  42
1
  50
0
  71
0
  3
isocp.shx
  0
STYLE
  2
KICADB
  70
0
  40
0
  41
1
  42
1
  50
0
  71
0
  3
isocp.shx
  0
STYLE
  2
KICADI
  70
0
  40
0
  41
1
  42
1
  50
15
  71
0
  3
isocp.shx
  0
STYLE
  2
KICADBI
  70
0
  40
0
  41
1
  42
1
  50
15
  71
0
  3
isocp.shx
  0
ENDTAB
  0
TABLE
  2
LAYER
  70
1
  0
LAYER
  2
BLACK
  70
0
  62
7
  6
CONTINUOUS
  0
ENDTAB
  0
ENDSEC
  0
SECTION
  2
ENTITIES
0
ARC
8
BLACK
10
200.363599999999991
20
-165.5408999999999935
40
4.0000170002879987
50
-179.99975650
51
-90.00068755
0
ARC
8
BLACK
10
59.1237999999999957
20
-125.8164999999999907
40
5.0799299944988414
50
-105.00085840
51
-14.99950222
0
ARC
8
BLACK
10
58.8743999999999943
20
-165.9947999999999979
40
5.080144135865142
50
-194.99830078
51
-105.00093347
0
CIRCLE
8
BLACK
10
242.4435519999999826
20
-191.5209169999999972
40
1.1500599999999999
0
LINE
8
BLACK
6
CONTINUOUS
10
382.9753749999999854
20
-156.1721900000000005
11
374.4971289999999726
21
-158.446109000000007
0
CIRCLE
8
BLACK
10
332.4035519999999906
20
-114.9009169999999926
40
1.1500599999999999
0
ARC
8
BLACK
10
224.5035999999999774
20
-165.5309000000000026
40
3.9999520000361253
50
-90.00068755
51
-0.00024351
0
ARC
8
BLACK
10
43.2119999999999962
20
-151.2775000000000034
40
5.0801258401213838
50
-194.99864664
51
-105.00151420
0
ARC
8
BLACK
10
142.7866999999999962
20
-271.6671000000000049
40
59.6309946725629629
50
34.52991507
51
69.11974069
0
CIRCLE
8
BLACK
10
182.4135519999999815
20
-191.450917000000004
40
1.1500599999999999
0
ARC
8
BLACK
10
12.0768799999999992
20
-626.320920000000001
40
437.6017530493107301
50
69.67994938
51
82.14957271
0
ARC
8
BLACK
10
346.1863999999999919
20
-92.1777000000000015
40
5.1146139884079229
50
15.00192405
51
94.32740867
0
CIRCLE
8
BLACK
10
166.8235520000000065
20
-131.6826690000000042
40
1.1500599999999999
0
ARC
8
BLACK
10
195.8288000000000011
20
-115.6196999999999946
40
0.5354557148756561
50
3.08096948
51
68.67162351
0
CIRCLE
8
BLACK
10
77.6435519999999997
20
-170.0809169999999995
40
1.1500599999999999
0
LINE
8
BLACK
6
CONTINUOUS
10
367.3129279999999994
20
-170.8895189999999786
11
358.7258499999999799
21
-173.1904250000000047
0
ARC
8
BLACK
10
375.811999999999955
20
-163.3529999999999802
40
5.0800707334526356
50
-254.99919905
51
-164.99997730
0
LINE
8
BLACK
6
CONTINUOUS
10
196.3635519999999985
20
-165.540916999999979
11
196.3635519999999985
21
-115.5909169999999904
0
CIRCLE
8
BLACK
10
92.453552000000002
20
-114.8309169999999995
40
1.1500599999999999
0
ARC
8
BLACK
10
42.9558499999999981
20
-495.7380599999999617
40
410.2427722745208598
50
68.09214827
51
84.95012071
0
ARC
8
BLACK
10
360.0406999999999584
20
-178.09729999999999
40
5.080062298941618
50
-254.99938113
51
-164.99994014
0
ARC
8
BLACK
10
49.0606000000000009
20
-163.3651999999999873
40
5.0798562515498409
50
-15.00170162
51
75.00098721
0
ARC
8
BLACK
10
352.1639999999999873
20
-187.8337999999999965
40
5.0482440639368855
50
-80.18439338
51
15.00097868
0
LINE
8
BLACK
6
CONTINUOUS
10
66.1465599999999938
20
-173.2027259999999842
11
57.5594819999999956
21
-170.901820999999984
0
ARC
8
BLACK
10
381.6608999999999696
20
-151.265500000000003
40
5.0797351698037367
50
-75.00292665
51
15.00337232
0
ARC
8
BLACK
10
412.7951999999999657
20
-626.3071999999999662
40
437.6003066162558071
50
97.85040998
51
110.32007483
0
LINE
8
BLACK
6
CONTINUOUS
10
355.1337379999999939
20
-179.4121219999999823
11
357.0402070000000094
21
-186.527134999999987
0
CIRCLE
8
BLACK
10
152.0135520000000042
20
-186.9309169999999938
40
1.1500599999999999
0
LINE
8
BLACK
6
CONTINUOUS
10
228.5035519999999849
20
-165.5309169999999881
11
228.5035519999999849
21
-115.5809169999999995
0
LINE
8
BLACK
6
CONTINUOUS
10
67.8322069999999968
20
-186.5394369999999924
11
69.7386709999999965
21
-179.4244259999999827
0
LINE
8
BLACK
6
CONTINUOUS
10
38.3049419999999969
20
-149.9627820000000042
11
43.1079030000000003
21
-132.0455969999999866
0
ARC
8
BLACK
10
72.7087999999999965
20
-187.845799999999997
40
5.0485257640658823
50
-194.99653421
51
-99.81939483
0
LINE
8
BLACK
6
CONTINUOUS
10
64.0306470000000019
20
-127.1312399999999911
11
73.7456669999999974
21
-90.8660629999999969
0
ARC
8
BLACK
10
64.8316999999999979
20
-178.1097000000000037
40
5.0800837253214635
50
-14.99898774
51
74.99956119
0
ARC
8
BLACK
10
365.9979999999999905
20
-165.9824999999999875
40
5.0800900070650323
50
-74.99895175
51
14.99830641
0
LINE
8
BLACK
6
CONTINUOUS
10
351.1267439999999738
20
-90.8537609999999916
11
360.8417650000000094
21
-127.118938
0
CIRCLE
8
BLACK
10
258.0235519999999951
20
-131.750916999999987
40
1.1500599999999999
0
LINE
8
BLACK
6
CONTINUOUS
10
375.5428069999999821
20
-128.4411929999999984
11
367.0634739999999852
21
-130.7110339999999837
0
LINE
8
BLACK
6
CONTINUOUS
10
50.375278999999999
20
-158.4584129999999789
11
41.8970369999999974
21
-156.1844899999999825
0
LINE
8
BLACK
6
CONTINUOUS
10
57.8089389999999952
20
-130.7233339999999941
11
49.3296029999999988
21
-128.4534979999999962
0
ARC
8
BLACK
10
282.0942000000000007
20
-271.6771999999999707
40
59.6549586524267497
50
110.88021130
51
145.46249260
0
ARC
8
BLACK
10
78.685859999999991
20
-92.1898499999999927
40
5.1144812932122452
50
85.67080009
51
164.99928284
0
LINE
8
BLACK
6
CONTINUOUS
10
224.5035519999999849
20
-169.5309169999999881
11
200.3635519999999985
21
-169.540916999999979
0
CIRCLE
8
BLACK
10
347.2135519999999929
20
-170.1509169999999926
40
1.1500599999999999
0
ARC
8
BLACK
10
365.7484999999999786
20
-125.8044000000000011
40
5.0797848212923347
50
-165.00237161
51
-74.99732660
0
ARC
8
BLACK
10
376.8577999999999975
20
-133.3478000000000065
40
5.0797636601025049
50
14.99730622
51
105.00295924
0
CIRCLE
8
BLACK
10
272.8335519999999974
20
-187.0109169999999779
40
1.1500599999999999
0
ARC
8
BLACK
10
229.0382999999999925
20
-115.6096999999999895
40
0.5355220673258946
50
111.32797779
51
176.91900752
0
ARC
8
BLACK
10
48.0147799999999947
20
-133.3603599999999858
40
5.0799649250066681
50
74.99963733
51
165.00033478
0
LINE
8
BLACK
6
CONTINUOUS
10
381.7645109999999704
20
-132.033298000000002
11
386.5674699999999575
21
-149.9504790000000014
0
ARC
8
BLACK
10
212.4291399999999896
20
-222.7482399999999814
40
25.4849075132954894
50
-143.61504823
51
-36.35704573
0
ARC
8
BLACK
10
381.911200000000008
20
-495.7279999999999518
40
410.2426949205564597
50
95.04987252
51
111.90784786
0
LINE
8
BLACK
6
CONTINUOUS
10
249.0455279999999902
20
-181.5743119999999919
11
235.5225659999999834
21
-185.197778999999997
0
LINE
8
BLACK
6
CONTINUOUS
10
235.5225659999999834
20
-185.197778999999997
11
231.8990989999999783
21
-171.6748169999999902
0
LINE
8
BLACK
6
CONTINUOUS
10
231.8990989999999783
20
-171.6748169999999902
11
245.4220609999999851
21
-168.0513509999999826
0
LINE
8
BLACK
6
CONTINUOUS
10
245.4220609999999851
20
-168.0513509999999826
11
249.0455279999999902
21
-181.5743119999999919
0
LINE
8
BLACK
6
CONTINUOUS
10
98.0570189999999968
20
-157.6919460000000015
11
94.4335519999999917
21
-171.2149069999999824
0
LINE
8
BLACK
6
CONTINUOUS
10
94.4335519999999917
20
-171.2149069999999824
11
80.9105909999999966
21
-167.5914410000000032
0
LINE
8
BLACK
6
CONTINUOUS
10
80.9105909999999966
20
-167.5914410000000032
11
84.53405699999999
21
-154.0684789999999964
0
LINE
8
BLACK
6
CONTINUOUS
10
84.53405699999999
20
-154.0684789999999964
11
98.0570189999999968
21
-157.6919460000000015
0
LINE
8
BLACK
6
CONTINUOUS
10
343.9111949999999638
20
-167.5918369999999982
11
330.388232999999957
21
-171.2153040000000033
0
LINE
8
BLACK
6
CONTINUOUS
10
330.388232999999957
20
-171.2153040000000033
11
326.7647660000000087
21
-157.6923419999999965
0
LINE
8
BLACK
6
CONTINUOUS
10
326.7647660000000087
20
-157.6923419999999965
11
340.2877279999999587
21
-154.0688759999999888
0
LINE
8
BLACK
6
CONTINUOUS
10
340.2877279999999587
20
-154.0688759999999888
11
343.9111949999999638
21
-167.5918369999999982
0
LINE
8
BLACK
6
CONTINUOUS
10
260.0550430000000119
20
-149.0260899999999822
11
246.5320809999999767
21
-152.6495569999999873
0
LINE
8
BLACK
6
CONTINUOUS
10
246.5320809999999767
20
-152.6495569999999873
11
242.908614
21
-139.1265949999999805
0
LINE
8
BLACK
6
CONTINUOUS
10
242.908614
20
-139.1265949999999805
11
256.4315760000000068
21
-135.5031290000000013
0
LINE
8
BLACK
6
CONTINUOUS
10
256.4315760000000068
20
-135.5031290000000013
11
260.0550430000000119
21
-149.0260899999999822
0
LINE
8
BLACK
6
CONTINUOUS
10
334.0501840000000016
20
-130.7900679999999909
11
320.5272219999999948
21
-134.413534999999996
0
LINE
8
BLACK
6
CONTINUOUS
10
320.5272219999999948
20
-134.413534999999996
11
316.9037549999999896
21
-120.8905729999999892
0
LINE
8
BLACK
6
CONTINUOUS
10
316.9037549999999896
20
-120.8905729999999892
11
330.4267169999999965
21
-117.2671069999999958
0
LINE
8
BLACK
6
CONTINUOUS
10
330.4267169999999965
20
-117.2671069999999958
11
334.0501840000000016
21
-130.7900679999999909
0
LINE
8
BLACK
6
CONTINUOUS
10
329.6519270000000006
20
-187.9790820000000053
11
316.1289649999999938
21
-191.602548999999982
0
LINE
8
BLACK
6
CONTINUOUS
10
316.1289649999999938
20
-191.602548999999982
11
312.5054979999999887
21
-178.0795870000000036
0
LINE
8
BLACK
6
CONTINUOUS
10
312.5054979999999887
20
-178.0795870000000036
11
326.0284599999999955
21
-174.456120999999996
0
LINE
8
BLACK
6
CONTINUOUS
10
326.0284599999999955
20
-174.456120999999996
11
329.6519270000000006
21
-187.9790820000000053
0
LINE
8
BLACK
6
CONTINUOUS
10
102.9875229999999959
20
-139.2910520000000076
11
99.3640559999999908
21
-152.8140129999999886
0
LINE
8
BLACK
6
CONTINUOUS
10
99.3640559999999908
20
-152.8140129999999886
11
85.8410949999999957
21
-149.1905469999999809
0
LINE
8
BLACK
6
CONTINUOUS
10
85.8410949999999957
20
-149.1905469999999809
11
89.4645609999999891
21
-135.6675850000000025
0
LINE
8
BLACK
6
CONTINUOUS
10
89.4645609999999891
20
-135.6675850000000025
11
102.9875229999999959
21
-139.2910520000000076
0
LINE
8
BLACK
6
CONTINUOUS
10
89.128579000000002
20
-117.4098089999999956
11
85.5051119999999969
21
-130.932770000000005
0
LINE
8
BLACK
6
CONTINUOUS
10
85.5051119999999969
20
-130.932770000000005
11
71.9821510000000018
21
-127.3093039999999974
0
LINE
8
BLACK
6
CONTINUOUS
10
71.9821510000000018
20
-127.3093039999999974
11
75.6056169999999952
21
-113.7863419999999905
0
LINE
8
BLACK
6
CONTINUOUS
10
75.6056169999999952
20
-113.7863419999999905
11
89.128579000000002
21
-117.4098089999999956
0
LINE
8
BLACK
6
CONTINUOUS
10
122.196132999999989
20
-141.2561699999999973
11
118.5726659999999981
21
-154.7791310000000067
0
LINE
8
BLACK
6
CONTINUOUS
10
118.5726659999999981
20
-154.7791310000000067
11
105.0497049999999888
21
-151.1556649999999991
0
LINE
8
BLACK
6
CONTINUOUS
10
105.0497049999999888
20
-151.1556649999999991
11
108.6731709999999964
21
-137.6327029999999922
0
LINE
8
BLACK
6
CONTINUOUS
10
108.6731709999999964
20
-137.6327029999999922
11
122.196132999999989
21
-141.2561699999999973
0
LINE
8
BLACK
6
CONTINUOUS
10
94.0685009999999977
20
-98.9982940000000013
11
90.4450339999999926
21
-112.5212549999999965
0
LINE
8
BLACK
6
CONTINUOUS
10
90.4450339999999926
20
-112.5212549999999965
11
76.9220729999999975
21
-108.8977889999999888
0
LINE
8
BLACK
6
CONTINUOUS
10
76.9220729999999975
20
-108.8977889999999888
11
80.5455389999999909
21
-95.3748269999999962
0
LINE
8
BLACK
6
CONTINUOUS
10
80.5455389999999909
20
-95.3748269999999962
11
94.0685009999999977
21
-98.9982940000000013
0
LINE
8
BLACK
6
CONTINUOUS
10
347.9091389999999819
20
-108.908818999999994
11
334.3861769999999751
21
-112.5322859999999991
0
LINE
8
BLACK
6
CONTINUOUS
10
334.3861769999999751
20
-112.5322859999999991
11
330.76270999999997
21
-99.0093239999999923
0
LINE
8
BLACK
6
CONTINUOUS
10
330.76270999999997
20
-99.0093239999999923
11
344.2856719999999768
21
-95.3858579999999989
0
LINE
8
BLACK
6
CONTINUOUS
10
344.2856719999999768
20
-95.3858579999999989
11
347.9091389999999819
21
-108.908818999999994
0
LINE
8
BLACK
6
CONTINUOUS
10
131.1116179999999929
20
-181.5376139999999907
11
127.4881509999999878
21
-195.060575
0
LINE
8
BLACK
6
CONTINUOUS
10
127.4881509999999878
20
-195.060575
11
113.9651899999999927
21
-191.4371089999999924
0
LINE
8
BLACK
6
CONTINUOUS
10
113.9651899999999927
20
-191.4371089999999924
11
117.5886560000000003
21
-177.9141469999999856
0
LINE
8
BLACK
6
CONTINUOUS
10
117.5886560000000003
20
-177.9141469999999856
11
131.1116179999999929
21
-181.5376139999999907
0
LINE
8
BLACK
6
CONTINUOUS
10
158.9884879999999896
20
-151.1277989999999818
11
155.3650209999999845
21
-164.6507599999999911
0
LINE
8
BLACK
6
CONTINUOUS
10
155.3650209999999845
20
-164.6507599999999911
11
141.8420600000000036
21
-161.0272939999999835
0
LINE
8
BLACK
6
CONTINUOUS
10
141.8420600000000036
20
-161.0272939999999835
11
145.4655259999999828
21
-147.5043320000000051
0
LINE
8
BLACK
6
CONTINUOUS
10
145.4655259999999828
20
-147.5043320000000051
11
158.9884879999999896
21
-151.1277989999999818
0
LINE
8
BLACK
6
CONTINUOUS
10
255.124541999999991
20
-130.6252120000000048
11
241.6015799999999842
21
-134.2486789999999814
0
LINE
8
BLACK
6
CONTINUOUS
10
241.6015799999999842
20
-134.2486789999999814
11
237.9781129999999791
21
-120.7257169999999888
0
LINE
8
BLACK
6
CONTINUOUS
10
237.9781129999999791
20
-120.7257169999999888
11
251.5010749999999859
21
-117.1022509999999954
0
LINE
8
BLACK
6
CONTINUOUS
10
251.5010749999999859
20
-117.1022509999999954
11
255.124541999999991
21
-130.6252120000000048
0
LINE
8
BLACK
6
CONTINUOUS
10
329.1168399999999679
20
-112.4030929999999984
11
315.593877999999961
21
-116.0265599999999893
0
LINE
8
BLACK
6
CONTINUOUS
10
315.593877999999961
20
-116.0265599999999893
11
311.9704110000000128
21
-102.5035979999999967
0
LINE
8
BLACK
6
CONTINUOUS
10
311.9704110000000128
20
-102.5035979999999967
11
325.4933729999999628
21
-98.880131999999989
0
LINE
8
BLACK
6
CONTINUOUS
10
325.4933729999999628
20
-98.880131999999989
11
329.1168399999999679
21
-112.4030929999999984
0
LINE
8
BLACK
6
CONTINUOUS
10
205.4435529999999801
20
-184.8538449999999784
11
219.4435529999999801
21
-184.8538449999999784
0
LINE
8
BLACK
6
CONTINUOUS
10
219.4435529999999801
20
-184.8538449999999784
11
219.4435529999999801
21
-198.8538449999999784
0
LINE
8
BLACK
6
CONTINUOUS
10
219.4435529999999801
20
-198.8538449999999784
11
205.4435529999999801
21
-198.8538449999999784
0
LINE
8
BLACK
6
CONTINUOUS
10
205.4435529999999801
20
-198.8538449999999784
11
205.4435529999999801
21
-184.8538449999999784
0
LINE
8
BLACK
6
CONTINUOUS
10
352.8396419999999694
20
-127.309702999999999
11
339.3166799999999625
21
-130.9331699999999898
0
LINE
8
BLACK
6
CONTINUOUS
10
339.3166799999999625
20
-130.9331699999999898
11
335.6932129999999574
21
-117.4102079999999972
0
LINE
8
BLACK
6
CONTINUOUS
10
335.6932129999999574
20
-117.4102079999999972
11
349.2161749999999643
21
-113.7867419999999896
0
LINE
8
BLACK
6
CONTINUOUS
10
349.2161749999999643
20
-113.7867419999999896
11
352.8396419999999694
21
-127.309702999999999
0
LINE
8
BLACK
6
CONTINUOUS
10
154.0673989999999947
20
-169.5180519999999831
11
150.4439319999999896
21
-183.0410129999999924
0
LINE
8
BLACK
6
CONTINUOUS
10
150.4439319999999896
20
-183.0410129999999924
11
136.9209709999999802
21
-179.4175469999999848
0
LINE
8
BLACK
6
CONTINUOUS
10
136.9209709999999802
20
-179.4175469999999848
11
140.5444369999999878
21
-165.8945850000000064
0
LINE
8
BLACK
6
CONTINUOUS
10
140.5444369999999878
20
-165.8945850000000064
11
154.0673989999999947
21
-169.5180519999999831
0
LINE
8
BLACK
6
CONTINUOUS
10
205.3951639999999941
20
-220.6939209999999889
11
195.4956689999999924
21
-230.5934159999999906
0
LINE
8
BLACK
6
CONTINUOUS
10
195.4956689999999924
20
-230.5934159999999906
11
185.5961739999999907
21
-220.6939209999999889
0
LINE
8
BLACK
6
CONTINUOUS
10
185.5961739999999907
20
-220.6939209999999889
11
195.4956689999999924
21
-210.7944259999999872
0
LINE
8
BLACK
6
CONTINUOUS
10
195.4956689999999924
20
-210.7944259999999872
11
205.3951639999999941
21
-220.6939209999999889
0
LINE
8
BLACK
6
CONTINUOUS
10
292.850153999999975
20
-197.8400939999999935
11
279.3271919999999682
21
-201.4635609999999986
0
LINE
8
BLACK
6
CONTINUOUS
10
279.3271919999999682
20
-201.4635609999999986
11
275.7037249999999631
21
-187.9405989999999917
0
LINE
8
BLACK
6
CONTINUOUS
10
275.7037249999999631
20
-187.9405989999999917
11
289.2266869999999699
21
-184.3171329999999841
0
LINE
8
BLACK
6
CONTINUOUS
10
289.2266869999999699
20
-184.3171329999999841
11
292.850153999999975
21
-197.8400939999999935
0
LINE
8
BLACK
6
CONTINUOUS
10
378.6345699999999965
20
-149.9882379999999955
11
365.1116079999999897
21
-153.6117050000000006
0
LINE
8
BLACK
6
CONTINUOUS
10
365.1116079999999897
20
-153.6117050000000006
11
361.4881409999999846
21
-140.0887429999999938
0
LINE
8
BLACK
6
CONTINUOUS
10
361.4881409999999846
20
-140.0887429999999938
11
375.0111029999999914
21
-136.4652769999999862
0
LINE
8
BLACK
6
CONTINUOUS
10
375.0111029999999914
20
-136.4652769999999862
11
378.6345699999999965
21
-149.9882379999999955
0
LINE
8
BLACK
6
CONTINUOUS
10
177.0043550000000039
20
-157.5197450000000003
11
173.3808879999999988
21
-171.0427059999999813
0
LINE
8
BLACK
6
CONTINUOUS
10
173.3808879999999988
20
-171.0427059999999813
11
159.8579269999999894
21
-167.4192400000000021
0
LINE
8
BLACK
6
CONTINUOUS
10
159.8579269999999894
20
-167.4192400000000021
11
163.4813929999999971
21
-153.8962779999999952
0
LINE
8
BLACK
6
CONTINUOUS
10
163.4813929999999971
20
-153.8962779999999952
11
177.0043550000000039
21
-157.5197450000000003
0
LINE
8
BLACK
6
CONTINUOUS
10
278.0586429999999609
20
-142.6374339999999847
11
264.535681000000011
21
-146.2609009999999898
0
LINE
8
BLACK
6
CONTINUOUS
10
264.535681000000011
20
-146.2609009999999898
11
260.9122140000000059
21
-132.737938999999983
0
LINE
8
BLACK
6
CONTINUOUS
10
260.9122140000000059
20
-132.737938999999983
11
274.4351760000000127
21
-129.1144730000000038
0
LINE
8
BLACK
6
CONTINUOUS
10
274.4351760000000127
20
-129.1144730000000038
11
278.0586429999999609
21
-142.6374339999999847
0
LINE
8
BLACK
6
CONTINUOUS
10
287.9225020000000086
20
-179.4252950000000055
11
274.3995400000000018
21
-183.0487619999999822
0
LINE
8
BLACK
6
CONTINUOUS
10
274.3995400000000018
20
-183.0487619999999822
11
270.7760729999999967
21
-169.5258000000000038
0
LINE
8
BLACK
6
CONTINUOUS
10
270.7760729999999967
20
-169.5258000000000038
11
284.2990350000000035
21
-165.9023339999999962
0
LINE
8
BLACK
6
CONTINUOUS
10
284.2990350000000035
20
-165.9023339999999962
11
287.9225020000000086
21
-179.4252950000000055
0
LINE
8
BLACK
6
CONTINUOUS
10
264.9855440000000044
20
-167.4269819999999811
11
251.4625819999999976
21
-171.0504489999999862
0
LINE
8
BLACK
6
CONTINUOUS
10
251.4625819999999976
20
-171.0504489999999862
11
247.8391149999999925
21
-157.5274869999999794
0
LINE
8
BLACK
6
CONTINUOUS
10
247.8391149999999925
20
-157.5274869999999794
11
261.3620769999999993
21
-153.9040210000000002
0
LINE
8
BLACK
6
CONTINUOUS
10
261.3620769999999993
20
-153.9040210000000002
11
264.9855440000000044
21
-167.4269819999999811
0
LINE
8
BLACK
6
CONTINUOUS
10
163.9284089999999878
20
-132.7162859999999966
11
160.3049419999999827
21
-146.239247000000006
0
LINE
8
BLACK
6
CONTINUOUS
10
160.3049419999999827
20
-146.239247000000006
11
146.7819810000000018
21
-142.6157809999999984
0
LINE
8
BLACK
6
CONTINUOUS
10
146.7819810000000018
20
-142.6157809999999984
11
150.405446999999981
21
-129.0928189999999915
0
LINE
8
BLACK
6
CONTINUOUS
10
150.405446999999981
20
-129.0928189999999915
11
163.9284089999999878
21
-132.7162859999999966
0
LINE
8
BLACK
6
CONTINUOUS
10
192.948506999999978
20
-171.6552269999999965
11
189.3250400000000013
21
-185.1781880000000058
0
LINE
8
BLACK
6
CONTINUOUS
10
189.3250400000000013
20
-185.1781880000000058
11
175.802078999999992
21
-181.5547219999999982
0
LINE
8
BLACK
6
CONTINUOUS
10
175.802078999999992
20
-181.5547219999999982
11
179.4255449999999996
21
-168.0317599999999914
0
LINE
8
BLACK
6
CONTINUOUS
10
179.4255449999999996
20
-168.0317599999999914
11
192.948506999999978
21
-171.6552269999999965
0
LINE
8
BLACK
6
CONTINUOUS
10
181.9348579999999913
20
-139.1188599999999838
11
178.3113909999999862
21
-152.6418209999999931
0
LINE
8
BLACK
6
CONTINUOUS
10
178.3113909999999862
20
-152.6418209999999931
11
164.7884300000000053
21
-149.0183549999999855
0
LINE
8
BLACK
6
CONTINUOUS
10
164.7884300000000053
20
-149.0183549999999855
11
168.4118959999999845
21
-135.4953930000000071
0
LINE
8
BLACK
6
CONTINUOUS
10
168.4118959999999845
20
-135.4953930000000071
11
181.9348579999999913
21
-139.1188599999999838
0
LINE
8
BLACK
6
CONTINUOUS
10
305.9260969999999702
20
-173.0366290000000049
11
292.4031349999999634
21
-176.6600959999999816
0
LINE
8
BLACK
6
CONTINUOUS
10
292.4031349999999634
20
-176.6600959999999816
11
288.7796680000000151
21
-163.1371340000000032
0
LINE
8
BLACK
6
CONTINUOUS
10
288.7796680000000151
20
-163.1371340000000032
11
302.3026299999999651
21
-159.5136679999999956
0
LINE
8
BLACK
6
CONTINUOUS
10
302.3026299999999651
20
-159.5136679999999956
11
305.9260969999999702
21
-173.0366290000000049
0
LINE
8
BLACK
6
CONTINUOUS
10
310.8537569999999732
20
-191.4514289999999903
11
297.3307949999999664
21
-195.0748959999999954
0
LINE
8
BLACK
6
CONTINUOUS
10
297.3307949999999664
20
-195.0748959999999954
11
293.7073279999999613
21
-181.5519339999999886
0
LINE
8
BLACK
6
CONTINUOUS
10
293.7073279999999613
20
-181.5519339999999886
11
307.2302899999999681
21
-177.928467999999981
0
LINE
8
BLACK
6
CONTINUOUS
10
307.2302899999999681
20
-177.928467999999981
11
310.8537569999999732
21
-191.4514289999999903
0
LINE
8
BLACK
6
CONTINUOUS
10
187.9988659999999925
20
-204.9387569999999812
11
180.9988659999999925
21
-217.0631129999999871
0
LINE
8
BLACK
6
CONTINUOUS
10
180.9988659999999925
20
-217.0631129999999871
11
168.8745109999999841
21
-210.0631129999999871
0
LINE
8
BLACK
6
CONTINUOUS
10
168.8745109999999841
20
-210.0631129999999871
11
175.8745109999999841
21
-197.9387569999999812
0
LINE
8
BLACK
6
CONTINUOUS
10
175.8745109999999841
20
-197.9387569999999812
11
187.9988659999999925
21
-204.9387569999999812
0
LINE
8
BLACK
6
CONTINUOUS
10
269.9132089999999948
20
-185.8417829999999924
11
256.390246999999988
21
-189.4652499999999975
0
LINE
8
BLACK
6
CONTINUOUS
10
256.390246999999988
20
-189.4652499999999975
11
252.7667799999999829
21
-175.9422879999999907
0
LINE
8
BLACK
6
CONTINUOUS
10
252.7667799999999829
20
-175.9422879999999907
11
266.2897419999999897
21
-172.3188219999999831
0
LINE
8
BLACK
6
CONTINUOUS
10
266.2897419999999897
20
-172.3188219999999831
11
269.9132089999999948
21
-185.8417829999999924
0
LINE
8
BLACK
6
CONTINUOUS
10
167.1433499999999981
20
-194.3215179999999975
11
163.519882999999993
21
-207.8444789999999784
0
LINE
8
BLACK
6
CONTINUOUS
10
163.519882999999993
20
-207.8444789999999784
11
149.9969219999999837
21
-204.2210129999999992
0
LINE
8
BLACK
6
CONTINUOUS
10
149.9969219999999837
20
-204.2210129999999992
11
153.6203879999999913
21
-190.6980509999999924
0
LINE
8
BLACK
6
CONTINUOUS
10
153.6203879999999913
20
-190.6980509999999924
11
167.1433499999999981
21
-194.3215179999999975
0
LINE
8
BLACK
6
CONTINUOUS
10
296.0650989999999751
20
-136.2348609999999951
11
282.5421369999999683
21
-139.8583280000000002
0
LINE
8
BLACK
6
CONTINUOUS
10
282.5421369999999683
20
-139.8583280000000002
11
278.9186699999999632
21
-126.3353659999999934
0
LINE
8
BLACK
6
CONTINUOUS
10
278.9186699999999632
20
-126.3353659999999934
11
292.44163199999997
21
-122.7119
0
LINE
8
BLACK
6
CONTINUOUS
10
292.44163199999997
20
-122.7119
11
296.0650989999999751
21
-136.2348609999999951
0
LINE
8
BLACK
6
CONTINUOUS
10
127.117219999999989
20
-122.8659009999999938
11
123.4937529999999981
21
-136.3888619999999889
0
LINE
8
BLACK
6
CONTINUOUS
10
123.4937529999999981
20
-136.3888619999999889
11
109.9707919999999888
21
-132.7653959999999813
0
LINE
8
BLACK
6
CONTINUOUS
10
109.9707919999999888
20
-132.7653959999999813
11
113.5942579999999964
21
-119.2424339999999887
0
LINE
8
BLACK
6
CONTINUOUS
10
113.5942579999999964
20
-119.2424339999999887
11
127.117219999999989
21
-122.8659009999999938
0
LINE
8
BLACK
6
CONTINUOUS
10
168.8589130000000011
20
-114.3154019999999917
11
165.235445999999996
21
-127.8383630000000011
0
LINE
8
BLACK
6
CONTINUOUS
10
165.235445999999996
20
-127.8383630000000011
11
151.7124849999999867
21
-124.2148969999999935
0
LINE
8
BLACK
6
CONTINUOUS
10
151.7124849999999867
20
-124.2148969999999935
11
155.3359509999999943
21
-110.6919350000000009
0
LINE
8
BLACK
6
CONTINUOUS
10
155.3359509999999943
20
-110.6919350000000009
11
168.8589130000000011
21
-114.3154019999999917
0
LINE
8
BLACK
6
CONTINUOUS
10
93.1265179999999901
20
-176.0928260000000023
11
89.5030509999999992
21
-189.6157869999999832
0
LINE
8
BLACK
6
CONTINUOUS
10
89.5030509999999992
20
-189.6157869999999832
11
75.9800899999999899
21
-185.992321000000004
0
LINE
8
BLACK
6
CONTINUOUS
10
75.9800899999999899
20
-185.992321000000004
11
79.6035559999999975
21
-172.4693589999999972
0
LINE
8
BLACK
6
CONTINUOUS
10
79.6035559999999975
20
-172.4693589999999972
11
93.1265179999999901
21
-176.0928260000000023
0
LINE
8
BLACK
6
CONTINUOUS
10
362.700648000000001
20
-164.1114839999999901
11
349.1776859999999942
21
-167.7349509999999952
0
LINE
8
BLACK
6
CONTINUOUS
10
349.1776859999999942
20
-167.7349509999999952
11
345.5542189999999891
21
-154.2119889999999884
0
LINE
8
BLACK
6
CONTINUOUS
10
345.5542189999999891
20
-154.2119889999999884
11
359.0771809999999959
21
-150.5885229999999808
0
LINE
8
BLACK
6
CONTINUOUS
10
359.0771809999999959
20
-150.5885229999999808
11
362.700648000000001
21
-164.1114839999999901
0
LINE
8
BLACK
6
CONTINUOUS
10
338.9778420000000096
20
-149.204860999999994
11
325.4548800000000028
21
-152.8283279999999991
0
LINE
8
BLACK
6
CONTINUOUS
10
325.4548800000000028
20
-152.8283279999999991
11
321.8314129999999977
21
-139.3053659999999923
0
LINE
8
BLACK
6
CONTINUOUS
10
321.8314129999999977
20
-139.3053659999999923
11
335.3543750000000045
21
-135.6818999999999846
0
LINE
8
BLACK
6
CONTINUOUS
10
335.3543750000000045
20
-135.6818999999999846
11
338.9778420000000096
21
-149.204860999999994
0
LINE
8
BLACK
6
CONTINUOUS
10
136.0421169999999904
20
-163.1367339999999899
11
132.4186499999999853
21
-176.6596949999999993
0
LINE
8
BLACK
6
CONTINUOUS
10
132.4186499999999853
20
-176.6596949999999993
11
118.8956889999999902
21
-173.0362289999999916
0
LINE
8
BLACK
6
CONTINUOUS
10
118.8956889999999902
20
-173.0362289999999916
11
122.5191549999999978
21
-159.5132669999999848
0
LINE
8
BLACK
6
CONTINUOUS
10
122.5191549999999978
20
-159.5132669999999848
11
136.0421169999999904
21
-163.1367339999999899
0
LINE
8
BLACK
6
CONTINUOUS
10
132.0477139999999849
20
-104.4650199999999955
11
128.4242470000000083
21
-117.9879809999999907
0
LINE
8
BLACK
6
CONTINUOUS
10
128.4242470000000083
20
-117.9879809999999907
11
114.9012859999999989
21
-114.3645149999999973
0
LINE
8
BLACK
6
CONTINUOUS
10
114.9012859999999989
20
-114.3645149999999973
11
118.5247519999999923
21
-100.8415529999999904
0
LINE
8
BLACK
6
CONTINUOUS
10
118.5247519999999923
20
-100.8415529999999904
11
132.0477139999999849
21
-104.4650199999999955
0
LINE
8
BLACK
6
CONTINUOUS
10
357.7701419999999644
20
-145.7105949999999837
11
344.2471799999999575
21
-149.3340619999999888
0
LINE
8
BLACK
6
CONTINUOUS
10
344.2471799999999575
20
-149.3340619999999888
11
340.6237130000000093
21
-135.8110999999999819
0
LINE
8
BLACK
6
CONTINUOUS
10
340.6237130000000093
20
-135.8110999999999819
11
354.1466749999999593
21
-132.1876340000000027
0
LINE
8
BLACK
6
CONTINUOUS
10
354.1466749999999593
20
-132.1876340000000027
11
357.7701419999999644
21
-145.7105949999999837
0
LINE
8
BLACK
6
CONTINUOUS
10
149.1274839999999813
20
-187.9295709999999815
11
145.5040170000000046
21
-201.4525319999999908
0
LINE
8
BLACK
6
CONTINUOUS
10
145.5040170000000046
20
-201.4525319999999908
11
131.9810559999999953
21
-197.8290659999999832
0
LINE
8
BLACK
6
CONTINUOUS
10
131.9810559999999953
20
-197.8290659999999832
11
135.6045220000000029
21
-184.3061040000000048
0
LINE
8
BLACK
6
CONTINUOUS
10
135.6045220000000029
20
-184.3061040000000048
11
149.1274839999999813
21
-187.9295709999999815
0
LINE
8
BLACK
6
CONTINUOUS
10
273.1309909999999945
20
-124.2226319999999902
11
259.6080289999999877
21
-127.8460989999999953
0
LINE
8
BLACK
6
CONTINUOUS
10
259.6080289999999877
20
-127.8460989999999953
11
255.9845619999999826
21
-114.3231369999999885
0
LINE
8
BLACK
6
CONTINUOUS
10
255.9845619999999826
20
-114.3231369999999885
11
269.5075239999999894
21
-110.699670999999995
0
LINE
8
BLACK
6
CONTINUOUS
10
269.5075239999999894
20
-110.699670999999995
11
273.1309909999999945
21
-124.2226319999999902
0
LINE
8
BLACK
6
CONTINUOUS
10
348.8417029999999954
20
-185.9927260000000047
11
335.3187409999999886
21
-189.6161929999999813
0
LINE
8
BLACK
6
CONTINUOUS
10
335.3187409999999886
20
-189.6161929999999813
11
331.6952739999999835
21
-176.093231000000003
0
LINE
8
BLACK
6
CONTINUOUS
10
331.6952739999999835
20
-176.093231000000003
11
345.2182359999999903
21
-172.4697649999999953
0
LINE
8
BLACK
6
CONTINUOUS
10
345.2182359999999903
20
-172.4697649999999953
11
348.8417029999999954
21
-185.9927260000000047
0
LINE
8
BLACK
6
CONTINUOUS
10
145.9125489999999843
20
-126.3243379999999974
11
142.2890820000000076
21
-139.8472989999999925
0
LINE
8
BLACK
6
CONTINUOUS
10
142.2890820000000076
20
-139.8472989999999925
11
128.7661209999999983
21
-136.2238329999999848
0
LINE
8
BLACK
6
CONTINUOUS
10
128.7661209999999983
20
-136.2238329999999848
11
132.3895870000000059
21
-122.7008709999999923
0
LINE
8
BLACK
6
CONTINUOUS
10
132.3895870000000059
20
-122.7008709999999923
11
145.9125489999999843
21
-126.3243379999999974
0
LINE
8
BLACK
6
CONTINUOUS
10
309.93276800000001
20
-114.3616309999999885
11
296.4098060000000032
21
-117.9850979999999936
0
LINE
8
BLACK
6
CONTINUOUS
10
296.4098060000000032
20
-117.9850979999999936
11
292.7863389999999981
21
-104.462136000000001
0
LINE
8
BLACK
6
CONTINUOUS
10
292.7863389999999981
20
-104.462136000000001
11
306.3093010000000049
21
-100.8386699999999934
0
LINE
8
BLACK
6
CONTINUOUS
10
306.3093010000000049
20
-100.8386699999999934
11
309.93276800000001
21
-114.3616309999999885
0
LINE
8
BLACK
6
CONTINUOUS
10
112.3257079999999917
20
-178.0685670000000016
11
108.7022410000000008
21
-191.5915279999999825
0
LINE
8
BLACK
6
CONTINUOUS
10
108.7022410000000008
20
-191.5915279999999825
11
95.1792799999999914
21
-187.9680620000000033
0
LINE
8
BLACK
6
CONTINUOUS
10
95.1792799999999914
20
-187.9680620000000033
11
98.8027459999999991
21
-174.4450999999999965
0
LINE
8
BLACK
6
CONTINUOUS
10
98.8027459999999991
20
-174.4450999999999965
11
112.3257079999999917
21
-178.0685670000000016
0
LINE
8
BLACK
6
CONTINUOUS
10
319.7909239999999613
20
-151.1773129999999981
11
306.2679620000000114
21
-154.8007800000000032
0
LINE
8
BLACK
6
CONTINUOUS
10
306.2679620000000114
20
-154.8007800000000032
11
302.6444950000000063
21
-141.2778179999999963
0
LINE
8
BLACK
6
CONTINUOUS
10
302.6444950000000063
20
-141.2778179999999963
11
316.1674570000000131
21
-137.6543519999999887
0
LINE
8
BLACK
6
CONTINUOUS
10
316.1674570000000131
20
-137.6543519999999887
11
319.7909239999999613
21
-151.1773129999999981
0
LINE
8
BLACK
6
CONTINUOUS
10
140.9726269999999886
20
-144.7358480000000043
11
137.3491599999999835
21
-158.2588089999999852
0
LINE
8
BLACK
6
CONTINUOUS
10
137.3491599999999835
20
-158.2588089999999852
11
123.8261989999999884
21
-154.635343000000006
0
LINE
8
BLACK
6
CONTINUOUS
10
123.8261989999999884
20
-154.635343000000006
11
127.449664999999996
21
-141.1123809999999992
0
LINE
8
BLACK
6
CONTINUOUS
10
127.449664999999996
20
-141.1123809999999992
11
140.9726269999999886
21
-144.7358480000000043
0
LINE
8
BLACK
6
CONTINUOUS
10
63.3278749999999988
20
-140.0958019999999919
11
59.7044080000000008
21
-153.6187630000000013
0
LINE
8
BLACK
6
CONTINUOUS
10
59.7044080000000008
20
-153.6187630000000013
11
46.1814469999999986
21
-149.9952969999999937
0
LINE
8
BLACK
6
CONTINUOUS
10
46.1814469999999986
20
-149.9952969999999937
11
49.8049129999999991
21
-136.4723349999999868
0
LINE
8
BLACK
6
CONTINUOUS
10
49.8049129999999991
20
-136.4723349999999868
11
63.3278749999999988
21
-140.0958019999999919
0
LINE
8
BLACK
6
CONTINUOUS
10
84.1980799999999903
20
-135.8106970000000047
11
80.5746129999999994
21
-149.3336579999999856
0
LINE
8
BLACK
6
CONTINUOUS
10
80.5746129999999994
20
-149.3336579999999856
11
67.05165199999999
21
-145.7101920000000064
0
LINE
8
BLACK
6
CONTINUOUS
10
67.05165199999999
20
-145.7101920000000064
11
70.6751179999999977
21
-132.1872299999999996
0
LINE
8
BLACK
6
CONTINUOUS
10
70.6751179999999977
20
-132.1872299999999996
11
84.1980799999999903
21
-135.8106970000000047
0
LINE
8
BLACK
6
CONTINUOUS
10
79.2769949999999994
20
-154.2009549999999933
11
75.6535279999999943
21
-167.7239160000000027
0
LINE
8
BLACK
6
CONTINUOUS
10
75.6535279999999943
20
-167.7239160000000027
11
62.1305669999999992
21
-164.100449999999995
0
LINE
8
BLACK
6
CONTINUOUS
10
62.1305669999999992
20
-164.100449999999995
11
65.7540329999999926
21
-150.5774879999999882
0
LINE
8
BLACK
6
CONTINUOUS
10
65.7540329999999926
20
-150.5774879999999882
11
79.2769949999999994
21
-154.2009549999999933
0
LINE
8
BLACK
6
CONTINUOUS
10
274.8465549999999666
20
-204.2287539999999808
11
261.3235929999999598
21
-207.8522209999999859
0
LINE
8
BLACK
6
CONTINUOUS
10
261.3235929999999598
20
-207.8522209999999859
11
257.7001260000000116
21
-194.3292589999999791
0
LINE
8
BLACK
6
CONTINUOUS
10
257.7001260000000116
20
-194.3292589999999791
11
271.2230879999999615
21
-190.7057929999999999
0
LINE
8
BLACK
6
CONTINUOUS
10
271.2230879999999615
20
-190.7057929999999999
11
274.8465549999999666
21
-204.2287539999999808
0
LINE
8
BLACK
6
CONTINUOUS
10
117.2562039999999968
20
-159.6676789999999926
11
113.6327369999999917
21
-173.1906400000000019
0
LINE
8
BLACK
6
CONTINUOUS
10
113.6327369999999917
20
-173.1906400000000019
11
100.1097759999999965
21
-169.5671739999999943
0
LINE
8
BLACK
6
CONTINUOUS
10
100.1097759999999965
20
-169.5671739999999943
11
103.73324199999999
21
-156.0442119999999875
0
LINE
8
BLACK
6
CONTINUOUS
10
103.73324199999999
20
-156.0442119999999875
11
117.2562039999999968
21
-159.6676789999999926
0
LINE
8
BLACK
6
CONTINUOUS
10
172.0738589999999988
20
-175.9206299999999885
11
168.4503919999999937
21
-189.4435909999999978
0
LINE
8
BLACK
6
CONTINUOUS
10
168.4503919999999937
20
-189.4435909999999978
11
154.9274309999999844
21
-185.8201249999999902
0
LINE
8
BLACK
6
CONTINUOUS
10
154.9274309999999844
20
-185.8201249999999902
11
158.550896999999992
21
-172.2971629999999834
0
LINE
8
BLACK
6
CONTINUOUS
10
158.550896999999992
20
-172.2971629999999834
11
172.0738589999999988
21
-175.9206299999999885
0
LINE
8
BLACK
6
CONTINUOUS
10
324.7242709999999875
20
-169.5642939999999896
11
311.2013089999999806
21
-173.1877609999999947
0
LINE
8
BLACK
6
CONTINUOUS
10
311.2013089999999806
20
-173.1877609999999947
11
307.5778419999999755
21
-159.6647989999999879
0
LINE
8
BLACK
6
CONTINUOUS
10
307.5778419999999755
20
-159.6647989999999879
11
321.1008039999999824
21
-156.0413329999999803
0
LINE
8
BLACK
6
CONTINUOUS
10
321.1008039999999824
20
-156.0413329999999803
11
324.7242709999999875
21
-169.5642939999999896
0
LINE
8
BLACK
6
CONTINUOUS
10
282.9891549999999825
20
-161.0383219999999937
11
269.4661929999999757
21
-164.6617889999999989
0
LINE
8
BLACK
6
CONTINUOUS
10
269.4661929999999757
20
-164.6617889999999989
11
265.8427259999999706
21
-151.138826999999992
0
LINE
8
BLACK
6
CONTINUOUS
10
265.8427259999999706
20
-151.138826999999992
11
279.3656879999999774
21
-147.5153609999999844
0
LINE
8
BLACK
6
CONTINUOUS
10
279.3656879999999774
20
-147.5153609999999844
11
282.9891549999999825
21
-161.0383219999999937
0
LINE
8
BLACK
6
CONTINUOUS
10
314.8632729999999924
20
-132.7625239999999849
11
301.3403109999999856
21
-136.38599099999999
0
LINE
8
BLACK
6
CONTINUOUS
10
301.3403109999999856
20
-136.38599099999999
11
297.7168439999999805
21
-122.8630289999999974
0
LINE
8
BLACK
6
CONTINUOUS
10
297.7168439999999805
20
-122.8630289999999974
11
311.2398059999999873
21
-119.2395629999999898
0
LINE
8
BLACK
6
CONTINUOUS
10
311.2398059999999873
20
-119.2395629999999898
11
314.8632729999999924
21
-132.7625239999999849
0
LINE
8
BLACK
6
CONTINUOUS
10
107.9180300000000017
20
-120.8901679999999885
11
104.2945629999999966
21
-134.4131289999999979
0
LINE
8
BLACK
6
CONTINUOUS
10
104.2945629999999966
20
-134.4131289999999979
11
90.7716020000000015
21
-130.7896629999999902
0
LINE
8
BLACK
6
CONTINUOUS
10
90.7716020000000015
20
-130.7896629999999902
11
94.3950679999999949
21
-117.2667009999999976
0
LINE
8
BLACK
6
CONTINUOUS
10
94.3950679999999949
20
-117.2667009999999976
11
107.9180300000000017
21
-120.8901679999999885
0
LINE
8
BLACK
6
CONTINUOUS
10
186.8653620000000046
20
-120.717969999999994
11
183.2418949999999995
21
-134.2409309999999891
0
LINE
8
BLACK
6
CONTINUOUS
10
183.2418949999999995
20
-134.2409309999999891
11
169.7189339999999902
21
-130.6174649999999815
0
LINE
8
BLACK
6
CONTINUOUS
10
169.7189339999999902
20
-130.6174649999999815
11
173.3423999999999978
21
-117.0945029999999889
0
LINE
8
BLACK
6
CONTINUOUS
10
173.3423999999999978
20
-117.0945029999999889
11
186.8653620000000046
21
-120.717969999999994
0
LINE
8
BLACK
6
CONTINUOUS
10
112.8579509999999999
20
-102.4786610000000024
11
109.2344839999999948
21
-116.0016219999999976
0
LINE
8
BLACK
6
CONTINUOUS
10
109.2344839999999948
20
-116.0016219999999976
11
95.7115229999999997
21
-112.3781559999999899
0
LINE
8
BLACK
6
CONTINUOUS
10
95.7115229999999997
20
-112.3781559999999899
11
99.3349889999999931
21
-98.8551939999999973
0
LINE
8
BLACK
6
CONTINUOUS
10
99.3349889999999931
20
-98.8551939999999973
11
112.8579509999999999
21
-102.4786610000000024
0
LINE
8
BLACK
6
CONTINUOUS
10
291.1345890000000054
20
-117.8339719999999886
11
277.6116269999999986
21
-121.4574389999999937
0
LINE
8
BLACK
6
CONTINUOUS
10
277.6116269999999986
20
-121.4574389999999937
11
273.9881599999999935
21
-107.9344770000000011
0
LINE
8
BLACK
6
CONTINUOUS
10
273.9881599999999935
20
-107.9344770000000011
11
287.5111220000000003
21
-104.3110109999999935
0
LINE
8
BLACK
6
CONTINUOUS
10
287.5111220000000003
20
-104.3110109999999935
11
291.1345890000000054
21
-117.8339719999999886
0
LINE
8
BLACK
6
CONTINUOUS
10
239.1713239999999985
20
-220.7192000000000007
11
229.2718289999999968
21
-230.6186950000000024
0
LINE
8
BLACK
6
CONTINUOUS
10
229.2718289999999968
20
-230.6186950000000024
11
219.3723339999999951
21
-220.7192000000000007
0
LINE
8
BLACK
6
CONTINUOUS
10
219.3723339999999951
20
-220.7192000000000007
11
229.2718289999999968
21
-210.819704999999999
0
LINE
8
BLACK
6
CONTINUOUS
10
229.2718289999999968
20
-210.819704999999999
11
239.1713239999999985
21
-220.7192000000000007
0
LINE
8
BLACK
6
CONTINUOUS
10
300.9927500000000009
20
-154.6496579999999881
11
287.4697879999999941
21
-158.2731249999999932
0
LINE
8
BLACK
6
CONTINUOUS
10
287.4697879999999941
20
-158.2731249999999932
11
283.846320999999989
21
-144.7501629999999864
0
LINE
8
BLACK
6
CONTINUOUS
10
283.846320999999989
20
-144.7501629999999864
11
297.3692829999999958
21
-141.1266970000000072
0
LINE
8
BLACK
6
CONTINUOUS
10
297.3692829999999958
20
-141.1266970000000072
11
300.9927500000000009
21
-154.6496579999999881
0
LINE
8
BLACK
6
CONTINUOUS
10
255.9534469999999828
20
-210.0746599999999944
11
243.8290920000000028
21
-217.0746599999999944
0
LINE
8
BLACK
6
CONTINUOUS
10
243.8290920000000028
20
-217.0746599999999944
11
236.8290920000000028
21
-204.9503039999999885
0
LINE
8
BLACK
6
CONTINUOUS
10
236.8290920000000028
20
-204.9503039999999885
11
248.9534469999999828
21
-197.9503039999999885
0
LINE
8
BLACK
6
CONTINUOUS
10
248.9534469999999828
20
-197.9503039999999885
11
255.9534469999999828
21
-210.0746599999999944
0
LINE
8
BLACK
6
CONTINUOUS
10
150.8430520000000001
20
-107.9234479999999934
11
147.219584999999995
21
-121.4464089999999885
0
LINE
8
BLACK
6
CONTINUOUS
10
147.219584999999995
20
-121.4464089999999885
11
133.6966239999999857
21
-117.8229429999999951
0
LINE
8
BLACK
6
CONTINUOUS
10
133.6966239999999857
20
-117.8229429999999951
11
137.3200899999999933
21
-104.2999809999999883
0
LINE
8
BLACK
6
CONTINUOUS
10
137.3200899999999933
20
-104.2999809999999883
11
150.8430520000000001
21
-107.9234479999999934
  0
ENDSEC
  0
EOF
