G04 #@! TF.GenerationSoftware,KiCad,Pcbnew,8.0.4*
G04 #@! TF.CreationDate,2024-08-02T16:26:39+01:00*
G04 #@! TF.ProjectId,Ashwing66_mini,41736877-696e-4673-9636-5f6d696e692e,1*
G04 #@! TF.SameCoordinates,Original*
G04 #@! TF.FileFunction,Legend,Bot*
G04 #@! TF.FilePolarity,Positive*
%FSLAX46Y46*%
G04 Gerber Fmt 4.6, Leading zero omitted, Abs format (unit mm)*
G04 Created by KiCad (PCBNEW 8.0.4) date 2024-08-02 16:26:39*
%MOMM*%
%LPD*%
G01*
G04 APERTURE LIST*
%ADD10C,0.150000*%
%ADD11C,0.100000*%
%ADD12C,1.700000*%
%ADD13C,1.750000*%
%ADD14C,4.000000*%
%ADD15C,2.250000*%
%ADD16C,2.000000*%
%ADD17O,2.250000X2.250000*%
%ADD18R,1.700000X0.825000*%
%ADD19O,1.700000X1.700000*%
%ADD20R,1.700000X1.700000*%
%ADD21R,2.000000X2.000000*%
%ADD22R,1.500000X1.800000*%
%ADD23C,1.998980*%
G04 APERTURE END LIST*
D10*
X229855283Y-155142607D02*
X229931473Y-155104512D01*
X229931473Y-155104512D02*
X230045759Y-155104512D01*
X230045759Y-155104512D02*
X230160045Y-155142607D01*
X230160045Y-155142607D02*
X230236235Y-155218797D01*
X230236235Y-155218797D02*
X230274330Y-155294988D01*
X230274330Y-155294988D02*
X230312426Y-155447369D01*
X230312426Y-155447369D02*
X230312426Y-155561655D01*
X230312426Y-155561655D02*
X230274330Y-155714036D01*
X230274330Y-155714036D02*
X230236235Y-155790226D01*
X230236235Y-155790226D02*
X230160045Y-155866417D01*
X230160045Y-155866417D02*
X230045759Y-155904512D01*
X230045759Y-155904512D02*
X229969568Y-155904512D01*
X229969568Y-155904512D02*
X229855283Y-155866417D01*
X229855283Y-155866417D02*
X229817187Y-155828321D01*
X229817187Y-155828321D02*
X229817187Y-155561655D01*
X229817187Y-155561655D02*
X229969568Y-155561655D01*
X229474330Y-155904512D02*
X229474330Y-155104512D01*
X229474330Y-155104512D02*
X229169568Y-155104512D01*
X229169568Y-155104512D02*
X229093378Y-155142607D01*
X229093378Y-155142607D02*
X229055283Y-155180702D01*
X229055283Y-155180702D02*
X229017187Y-155256893D01*
X229017187Y-155256893D02*
X229017187Y-155371178D01*
X229017187Y-155371178D02*
X229055283Y-155447369D01*
X229055283Y-155447369D02*
X229093378Y-155485464D01*
X229093378Y-155485464D02*
X229169568Y-155523559D01*
X229169568Y-155523559D02*
X229474330Y-155523559D01*
X228255283Y-155904512D02*
X228712426Y-155904512D01*
X228483854Y-155904512D02*
X228483854Y-155104512D01*
X228483854Y-155104512D02*
X228560045Y-155218797D01*
X228560045Y-155218797D02*
X228636235Y-155294988D01*
X228636235Y-155294988D02*
X228712426Y-155333083D01*
X227493378Y-155904512D02*
X227950521Y-155904512D01*
X227721949Y-155904512D02*
X227721949Y-155104512D01*
X227721949Y-155104512D02*
X227798140Y-155218797D01*
X227798140Y-155218797D02*
X227874330Y-155294988D01*
X227874330Y-155294988D02*
X227950521Y-155333083D01*
X229098425Y-149977607D02*
X229174615Y-149939512D01*
X229174615Y-149939512D02*
X229288901Y-149939512D01*
X229288901Y-149939512D02*
X229403187Y-149977607D01*
X229403187Y-149977607D02*
X229479377Y-150053797D01*
X229479377Y-150053797D02*
X229517472Y-150129988D01*
X229517472Y-150129988D02*
X229555568Y-150282369D01*
X229555568Y-150282369D02*
X229555568Y-150396655D01*
X229555568Y-150396655D02*
X229517472Y-150549036D01*
X229517472Y-150549036D02*
X229479377Y-150625226D01*
X229479377Y-150625226D02*
X229403187Y-150701417D01*
X229403187Y-150701417D02*
X229288901Y-150739512D01*
X229288901Y-150739512D02*
X229212710Y-150739512D01*
X229212710Y-150739512D02*
X229098425Y-150701417D01*
X229098425Y-150701417D02*
X229060329Y-150663321D01*
X229060329Y-150663321D02*
X229060329Y-150396655D01*
X229060329Y-150396655D02*
X229212710Y-150396655D01*
X228717472Y-150739512D02*
X228717472Y-149939512D01*
X228717472Y-149939512D02*
X228260329Y-150739512D01*
X228260329Y-150739512D02*
X228260329Y-149939512D01*
X227879377Y-150739512D02*
X227879377Y-149939512D01*
X227879377Y-149939512D02*
X227688901Y-149939512D01*
X227688901Y-149939512D02*
X227574615Y-149977607D01*
X227574615Y-149977607D02*
X227498425Y-150053797D01*
X227498425Y-150053797D02*
X227460330Y-150129988D01*
X227460330Y-150129988D02*
X227422234Y-150282369D01*
X227422234Y-150282369D02*
X227422234Y-150396655D01*
X227422234Y-150396655D02*
X227460330Y-150549036D01*
X227460330Y-150549036D02*
X227498425Y-150625226D01*
X227498425Y-150625226D02*
X227574615Y-150701417D01*
X227574615Y-150701417D02*
X227688901Y-150739512D01*
X227688901Y-150739512D02*
X227879377Y-150739512D01*
X242626283Y-157681607D02*
X242702473Y-157643512D01*
X242702473Y-157643512D02*
X242816759Y-157643512D01*
X242816759Y-157643512D02*
X242931045Y-157681607D01*
X242931045Y-157681607D02*
X243007235Y-157757797D01*
X243007235Y-157757797D02*
X243045330Y-157833988D01*
X243045330Y-157833988D02*
X243083426Y-157986369D01*
X243083426Y-157986369D02*
X243083426Y-158100655D01*
X243083426Y-158100655D02*
X243045330Y-158253036D01*
X243045330Y-158253036D02*
X243007235Y-158329226D01*
X243007235Y-158329226D02*
X242931045Y-158405417D01*
X242931045Y-158405417D02*
X242816759Y-158443512D01*
X242816759Y-158443512D02*
X242740568Y-158443512D01*
X242740568Y-158443512D02*
X242626283Y-158405417D01*
X242626283Y-158405417D02*
X242588187Y-158367321D01*
X242588187Y-158367321D02*
X242588187Y-158100655D01*
X242588187Y-158100655D02*
X242740568Y-158100655D01*
X242245330Y-158443512D02*
X242245330Y-157643512D01*
X242245330Y-157643512D02*
X241940568Y-157643512D01*
X241940568Y-157643512D02*
X241864378Y-157681607D01*
X241864378Y-157681607D02*
X241826283Y-157719702D01*
X241826283Y-157719702D02*
X241788187Y-157795893D01*
X241788187Y-157795893D02*
X241788187Y-157910178D01*
X241788187Y-157910178D02*
X241826283Y-157986369D01*
X241826283Y-157986369D02*
X241864378Y-158024464D01*
X241864378Y-158024464D02*
X241940568Y-158062559D01*
X241940568Y-158062559D02*
X242245330Y-158062559D01*
X241026283Y-158443512D02*
X241483426Y-158443512D01*
X241254854Y-158443512D02*
X241254854Y-157643512D01*
X241254854Y-157643512D02*
X241331045Y-157757797D01*
X241331045Y-157757797D02*
X241407235Y-157833988D01*
X241407235Y-157833988D02*
X241483426Y-157872083D01*
X240645330Y-158443512D02*
X240492949Y-158443512D01*
X240492949Y-158443512D02*
X240416759Y-158405417D01*
X240416759Y-158405417D02*
X240378663Y-158367321D01*
X240378663Y-158367321D02*
X240302473Y-158253036D01*
X240302473Y-158253036D02*
X240264378Y-158100655D01*
X240264378Y-158100655D02*
X240264378Y-157795893D01*
X240264378Y-157795893D02*
X240302473Y-157719702D01*
X240302473Y-157719702D02*
X240340568Y-157681607D01*
X240340568Y-157681607D02*
X240416759Y-157643512D01*
X240416759Y-157643512D02*
X240569140Y-157643512D01*
X240569140Y-157643512D02*
X240645330Y-157681607D01*
X240645330Y-157681607D02*
X240683425Y-157719702D01*
X240683425Y-157719702D02*
X240721521Y-157795893D01*
X240721521Y-157795893D02*
X240721521Y-157986369D01*
X240721521Y-157986369D02*
X240683425Y-158062559D01*
X240683425Y-158062559D02*
X240645330Y-158100655D01*
X240645330Y-158100655D02*
X240569140Y-158138750D01*
X240569140Y-158138750D02*
X240416759Y-158138750D01*
X240416759Y-158138750D02*
X240340568Y-158100655D01*
X240340568Y-158100655D02*
X240302473Y-158062559D01*
X240302473Y-158062559D02*
X240264378Y-157986369D01*
X242938425Y-137920940D02*
X242557472Y-137920940D01*
X243014615Y-138149512D02*
X242747948Y-137349512D01*
X242747948Y-137349512D02*
X242481282Y-138149512D01*
X241795568Y-137387607D02*
X241871758Y-137349512D01*
X241871758Y-137349512D02*
X241986044Y-137349512D01*
X241986044Y-137349512D02*
X242100330Y-137387607D01*
X242100330Y-137387607D02*
X242176520Y-137463797D01*
X242176520Y-137463797D02*
X242214615Y-137539988D01*
X242214615Y-137539988D02*
X242252711Y-137692369D01*
X242252711Y-137692369D02*
X242252711Y-137806655D01*
X242252711Y-137806655D02*
X242214615Y-137959036D01*
X242214615Y-137959036D02*
X242176520Y-138035226D01*
X242176520Y-138035226D02*
X242100330Y-138111417D01*
X242100330Y-138111417D02*
X241986044Y-138149512D01*
X241986044Y-138149512D02*
X241909853Y-138149512D01*
X241909853Y-138149512D02*
X241795568Y-138111417D01*
X241795568Y-138111417D02*
X241757472Y-138073321D01*
X241757472Y-138073321D02*
X241757472Y-137806655D01*
X241757472Y-137806655D02*
X241909853Y-137806655D01*
X241414615Y-138149512D02*
X241414615Y-137349512D01*
X241414615Y-137349512D02*
X240957472Y-138149512D01*
X240957472Y-138149512D02*
X240957472Y-137349512D01*
X240576520Y-138149512D02*
X240576520Y-137349512D01*
X240576520Y-137349512D02*
X240386044Y-137349512D01*
X240386044Y-137349512D02*
X240271758Y-137387607D01*
X240271758Y-137387607D02*
X240195568Y-137463797D01*
X240195568Y-137463797D02*
X240157473Y-137539988D01*
X240157473Y-137539988D02*
X240119377Y-137692369D01*
X240119377Y-137692369D02*
X240119377Y-137806655D01*
X240119377Y-137806655D02*
X240157473Y-137959036D01*
X240157473Y-137959036D02*
X240195568Y-138035226D01*
X240195568Y-138035226D02*
X240271758Y-138111417D01*
X240271758Y-138111417D02*
X240386044Y-138149512D01*
X240386044Y-138149512D02*
X240576520Y-138149512D01*
X229151425Y-162689607D02*
X229227615Y-162651512D01*
X229227615Y-162651512D02*
X229341901Y-162651512D01*
X229341901Y-162651512D02*
X229456187Y-162689607D01*
X229456187Y-162689607D02*
X229532377Y-162765797D01*
X229532377Y-162765797D02*
X229570472Y-162841988D01*
X229570472Y-162841988D02*
X229608568Y-162994369D01*
X229608568Y-162994369D02*
X229608568Y-163108655D01*
X229608568Y-163108655D02*
X229570472Y-163261036D01*
X229570472Y-163261036D02*
X229532377Y-163337226D01*
X229532377Y-163337226D02*
X229456187Y-163413417D01*
X229456187Y-163413417D02*
X229341901Y-163451512D01*
X229341901Y-163451512D02*
X229265710Y-163451512D01*
X229265710Y-163451512D02*
X229151425Y-163413417D01*
X229151425Y-163413417D02*
X229113329Y-163375321D01*
X229113329Y-163375321D02*
X229113329Y-163108655D01*
X229113329Y-163108655D02*
X229265710Y-163108655D01*
X228770472Y-163451512D02*
X228770472Y-162651512D01*
X228770472Y-162651512D02*
X228313329Y-163451512D01*
X228313329Y-163451512D02*
X228313329Y-162651512D01*
X227932377Y-163451512D02*
X227932377Y-162651512D01*
X227932377Y-162651512D02*
X227741901Y-162651512D01*
X227741901Y-162651512D02*
X227627615Y-162689607D01*
X227627615Y-162689607D02*
X227551425Y-162765797D01*
X227551425Y-162765797D02*
X227513330Y-162841988D01*
X227513330Y-162841988D02*
X227475234Y-162994369D01*
X227475234Y-162994369D02*
X227475234Y-163108655D01*
X227475234Y-163108655D02*
X227513330Y-163261036D01*
X227513330Y-163261036D02*
X227551425Y-163337226D01*
X227551425Y-163337226D02*
X227627615Y-163413417D01*
X227627615Y-163413417D02*
X227741901Y-163451512D01*
X227741901Y-163451512D02*
X227932377Y-163451512D01*
X229124330Y-129726607D02*
X229200520Y-129688512D01*
X229200520Y-129688512D02*
X229314806Y-129688512D01*
X229314806Y-129688512D02*
X229429092Y-129726607D01*
X229429092Y-129726607D02*
X229505282Y-129802797D01*
X229505282Y-129802797D02*
X229543377Y-129878988D01*
X229543377Y-129878988D02*
X229581473Y-130031369D01*
X229581473Y-130031369D02*
X229581473Y-130145655D01*
X229581473Y-130145655D02*
X229543377Y-130298036D01*
X229543377Y-130298036D02*
X229505282Y-130374226D01*
X229505282Y-130374226D02*
X229429092Y-130450417D01*
X229429092Y-130450417D02*
X229314806Y-130488512D01*
X229314806Y-130488512D02*
X229238615Y-130488512D01*
X229238615Y-130488512D02*
X229124330Y-130450417D01*
X229124330Y-130450417D02*
X229086234Y-130412321D01*
X229086234Y-130412321D02*
X229086234Y-130145655D01*
X229086234Y-130145655D02*
X229238615Y-130145655D01*
X228743377Y-130488512D02*
X228743377Y-129688512D01*
X228743377Y-129688512D02*
X228438615Y-129688512D01*
X228438615Y-129688512D02*
X228362425Y-129726607D01*
X228362425Y-129726607D02*
X228324330Y-129764702D01*
X228324330Y-129764702D02*
X228286234Y-129840893D01*
X228286234Y-129840893D02*
X228286234Y-129955178D01*
X228286234Y-129955178D02*
X228324330Y-130031369D01*
X228324330Y-130031369D02*
X228362425Y-130069464D01*
X228362425Y-130069464D02*
X228438615Y-130107559D01*
X228438615Y-130107559D02*
X228743377Y-130107559D01*
X228019568Y-129688512D02*
X227524330Y-129688512D01*
X227524330Y-129688512D02*
X227790996Y-129993274D01*
X227790996Y-129993274D02*
X227676711Y-129993274D01*
X227676711Y-129993274D02*
X227600520Y-130031369D01*
X227600520Y-130031369D02*
X227562425Y-130069464D01*
X227562425Y-130069464D02*
X227524330Y-130145655D01*
X227524330Y-130145655D02*
X227524330Y-130336131D01*
X227524330Y-130336131D02*
X227562425Y-130412321D01*
X227562425Y-130412321D02*
X227600520Y-130450417D01*
X227600520Y-130450417D02*
X227676711Y-130488512D01*
X227676711Y-130488512D02*
X227905282Y-130488512D01*
X227905282Y-130488512D02*
X227981473Y-130450417D01*
X227981473Y-130450417D02*
X228019568Y-130412321D01*
X229085330Y-142429607D02*
X229161520Y-142391512D01*
X229161520Y-142391512D02*
X229275806Y-142391512D01*
X229275806Y-142391512D02*
X229390092Y-142429607D01*
X229390092Y-142429607D02*
X229466282Y-142505797D01*
X229466282Y-142505797D02*
X229504377Y-142581988D01*
X229504377Y-142581988D02*
X229542473Y-142734369D01*
X229542473Y-142734369D02*
X229542473Y-142848655D01*
X229542473Y-142848655D02*
X229504377Y-143001036D01*
X229504377Y-143001036D02*
X229466282Y-143077226D01*
X229466282Y-143077226D02*
X229390092Y-143153417D01*
X229390092Y-143153417D02*
X229275806Y-143191512D01*
X229275806Y-143191512D02*
X229199615Y-143191512D01*
X229199615Y-143191512D02*
X229085330Y-143153417D01*
X229085330Y-143153417D02*
X229047234Y-143115321D01*
X229047234Y-143115321D02*
X229047234Y-142848655D01*
X229047234Y-142848655D02*
X229199615Y-142848655D01*
X228704377Y-143191512D02*
X228704377Y-142391512D01*
X228704377Y-142391512D02*
X228399615Y-142391512D01*
X228399615Y-142391512D02*
X228323425Y-142429607D01*
X228323425Y-142429607D02*
X228285330Y-142467702D01*
X228285330Y-142467702D02*
X228247234Y-142543893D01*
X228247234Y-142543893D02*
X228247234Y-142658178D01*
X228247234Y-142658178D02*
X228285330Y-142734369D01*
X228285330Y-142734369D02*
X228323425Y-142772464D01*
X228323425Y-142772464D02*
X228399615Y-142810559D01*
X228399615Y-142810559D02*
X228704377Y-142810559D01*
X227980568Y-142391512D02*
X227447234Y-142391512D01*
X227447234Y-142391512D02*
X227790092Y-143191512D01*
X242589377Y-145732512D02*
X242856044Y-145351559D01*
X243046520Y-145732512D02*
X243046520Y-144932512D01*
X243046520Y-144932512D02*
X242741758Y-144932512D01*
X242741758Y-144932512D02*
X242665568Y-144970607D01*
X242665568Y-144970607D02*
X242627473Y-145008702D01*
X242627473Y-145008702D02*
X242589377Y-145084893D01*
X242589377Y-145084893D02*
X242589377Y-145199178D01*
X242589377Y-145199178D02*
X242627473Y-145275369D01*
X242627473Y-145275369D02*
X242665568Y-145313464D01*
X242665568Y-145313464D02*
X242741758Y-145351559D01*
X242741758Y-145351559D02*
X243046520Y-145351559D01*
X242246520Y-144932512D02*
X242246520Y-145580131D01*
X242246520Y-145580131D02*
X242208425Y-145656321D01*
X242208425Y-145656321D02*
X242170330Y-145694417D01*
X242170330Y-145694417D02*
X242094139Y-145732512D01*
X242094139Y-145732512D02*
X241941758Y-145732512D01*
X241941758Y-145732512D02*
X241865568Y-145694417D01*
X241865568Y-145694417D02*
X241827473Y-145656321D01*
X241827473Y-145656321D02*
X241789377Y-145580131D01*
X241789377Y-145580131D02*
X241789377Y-144932512D01*
X241408425Y-145732512D02*
X241408425Y-144932512D01*
X241408425Y-144932512D02*
X240951282Y-145732512D01*
X240951282Y-145732512D02*
X240951282Y-144932512D01*
X242644425Y-162736607D02*
X242720615Y-162698512D01*
X242720615Y-162698512D02*
X242834901Y-162698512D01*
X242834901Y-162698512D02*
X242949187Y-162736607D01*
X242949187Y-162736607D02*
X243025377Y-162812797D01*
X243025377Y-162812797D02*
X243063472Y-162888988D01*
X243063472Y-162888988D02*
X243101568Y-163041369D01*
X243101568Y-163041369D02*
X243101568Y-163155655D01*
X243101568Y-163155655D02*
X243063472Y-163308036D01*
X243063472Y-163308036D02*
X243025377Y-163384226D01*
X243025377Y-163384226D02*
X242949187Y-163460417D01*
X242949187Y-163460417D02*
X242834901Y-163498512D01*
X242834901Y-163498512D02*
X242758710Y-163498512D01*
X242758710Y-163498512D02*
X242644425Y-163460417D01*
X242644425Y-163460417D02*
X242606329Y-163422321D01*
X242606329Y-163422321D02*
X242606329Y-163155655D01*
X242606329Y-163155655D02*
X242758710Y-163155655D01*
X242263472Y-163498512D02*
X242263472Y-162698512D01*
X242263472Y-162698512D02*
X241806329Y-163498512D01*
X241806329Y-163498512D02*
X241806329Y-162698512D01*
X241425377Y-163498512D02*
X241425377Y-162698512D01*
X241425377Y-162698512D02*
X241234901Y-162698512D01*
X241234901Y-162698512D02*
X241120615Y-162736607D01*
X241120615Y-162736607D02*
X241044425Y-162812797D01*
X241044425Y-162812797D02*
X241006330Y-162888988D01*
X241006330Y-162888988D02*
X240968234Y-163041369D01*
X240968234Y-163041369D02*
X240968234Y-163155655D01*
X240968234Y-163155655D02*
X241006330Y-163308036D01*
X241006330Y-163308036D02*
X241044425Y-163384226D01*
X241044425Y-163384226D02*
X241120615Y-163460417D01*
X241120615Y-163460417D02*
X241234901Y-163498512D01*
X241234901Y-163498512D02*
X241425377Y-163498512D01*
X229819283Y-152543607D02*
X229895473Y-152505512D01*
X229895473Y-152505512D02*
X230009759Y-152505512D01*
X230009759Y-152505512D02*
X230124045Y-152543607D01*
X230124045Y-152543607D02*
X230200235Y-152619797D01*
X230200235Y-152619797D02*
X230238330Y-152695988D01*
X230238330Y-152695988D02*
X230276426Y-152848369D01*
X230276426Y-152848369D02*
X230276426Y-152962655D01*
X230276426Y-152962655D02*
X230238330Y-153115036D01*
X230238330Y-153115036D02*
X230200235Y-153191226D01*
X230200235Y-153191226D02*
X230124045Y-153267417D01*
X230124045Y-153267417D02*
X230009759Y-153305512D01*
X230009759Y-153305512D02*
X229933568Y-153305512D01*
X229933568Y-153305512D02*
X229819283Y-153267417D01*
X229819283Y-153267417D02*
X229781187Y-153229321D01*
X229781187Y-153229321D02*
X229781187Y-152962655D01*
X229781187Y-152962655D02*
X229933568Y-152962655D01*
X229438330Y-153305512D02*
X229438330Y-152505512D01*
X229438330Y-152505512D02*
X229133568Y-152505512D01*
X229133568Y-152505512D02*
X229057378Y-152543607D01*
X229057378Y-152543607D02*
X229019283Y-152581702D01*
X229019283Y-152581702D02*
X228981187Y-152657893D01*
X228981187Y-152657893D02*
X228981187Y-152772178D01*
X228981187Y-152772178D02*
X229019283Y-152848369D01*
X229019283Y-152848369D02*
X229057378Y-152886464D01*
X229057378Y-152886464D02*
X229133568Y-152924559D01*
X229133568Y-152924559D02*
X229438330Y-152924559D01*
X228219283Y-153305512D02*
X228676426Y-153305512D01*
X228447854Y-153305512D02*
X228447854Y-152505512D01*
X228447854Y-152505512D02*
X228524045Y-152619797D01*
X228524045Y-152619797D02*
X228600235Y-152695988D01*
X228600235Y-152695988D02*
X228676426Y-152734083D01*
X227724044Y-152505512D02*
X227647854Y-152505512D01*
X227647854Y-152505512D02*
X227571663Y-152543607D01*
X227571663Y-152543607D02*
X227533568Y-152581702D01*
X227533568Y-152581702D02*
X227495473Y-152657893D01*
X227495473Y-152657893D02*
X227457378Y-152810274D01*
X227457378Y-152810274D02*
X227457378Y-153000750D01*
X227457378Y-153000750D02*
X227495473Y-153153131D01*
X227495473Y-153153131D02*
X227533568Y-153229321D01*
X227533568Y-153229321D02*
X227571663Y-153267417D01*
X227571663Y-153267417D02*
X227647854Y-153305512D01*
X227647854Y-153305512D02*
X227724044Y-153305512D01*
X227724044Y-153305512D02*
X227800235Y-153267417D01*
X227800235Y-153267417D02*
X227838330Y-153229321D01*
X227838330Y-153229321D02*
X227876425Y-153153131D01*
X227876425Y-153153131D02*
X227914521Y-153000750D01*
X227914521Y-153000750D02*
X227914521Y-152810274D01*
X227914521Y-152810274D02*
X227876425Y-152657893D01*
X227876425Y-152657893D02*
X227838330Y-152581702D01*
X227838330Y-152581702D02*
X227800235Y-152543607D01*
X227800235Y-152543607D02*
X227724044Y-152505512D01*
X242502283Y-134827607D02*
X242578473Y-134789512D01*
X242578473Y-134789512D02*
X242692759Y-134789512D01*
X242692759Y-134789512D02*
X242807045Y-134827607D01*
X242807045Y-134827607D02*
X242883235Y-134903797D01*
X242883235Y-134903797D02*
X242921330Y-134979988D01*
X242921330Y-134979988D02*
X242959426Y-135132369D01*
X242959426Y-135132369D02*
X242959426Y-135246655D01*
X242959426Y-135246655D02*
X242921330Y-135399036D01*
X242921330Y-135399036D02*
X242883235Y-135475226D01*
X242883235Y-135475226D02*
X242807045Y-135551417D01*
X242807045Y-135551417D02*
X242692759Y-135589512D01*
X242692759Y-135589512D02*
X242616568Y-135589512D01*
X242616568Y-135589512D02*
X242502283Y-135551417D01*
X242502283Y-135551417D02*
X242464187Y-135513321D01*
X242464187Y-135513321D02*
X242464187Y-135246655D01*
X242464187Y-135246655D02*
X242616568Y-135246655D01*
X242121330Y-135589512D02*
X242121330Y-134789512D01*
X242121330Y-134789512D02*
X241816568Y-134789512D01*
X241816568Y-134789512D02*
X241740378Y-134827607D01*
X241740378Y-134827607D02*
X241702283Y-134865702D01*
X241702283Y-134865702D02*
X241664187Y-134941893D01*
X241664187Y-134941893D02*
X241664187Y-135056178D01*
X241664187Y-135056178D02*
X241702283Y-135132369D01*
X241702283Y-135132369D02*
X241740378Y-135170464D01*
X241740378Y-135170464D02*
X241816568Y-135208559D01*
X241816568Y-135208559D02*
X242121330Y-135208559D01*
X241359426Y-134865702D02*
X241321330Y-134827607D01*
X241321330Y-134827607D02*
X241245140Y-134789512D01*
X241245140Y-134789512D02*
X241054664Y-134789512D01*
X241054664Y-134789512D02*
X240978473Y-134827607D01*
X240978473Y-134827607D02*
X240940378Y-134865702D01*
X240940378Y-134865702D02*
X240902283Y-134941893D01*
X240902283Y-134941893D02*
X240902283Y-135018083D01*
X240902283Y-135018083D02*
X240940378Y-135132369D01*
X240940378Y-135132369D02*
X241397521Y-135589512D01*
X241397521Y-135589512D02*
X240902283Y-135589512D01*
X240445140Y-135132369D02*
X240521330Y-135094274D01*
X240521330Y-135094274D02*
X240559425Y-135056178D01*
X240559425Y-135056178D02*
X240597521Y-134979988D01*
X240597521Y-134979988D02*
X240597521Y-134941893D01*
X240597521Y-134941893D02*
X240559425Y-134865702D01*
X240559425Y-134865702D02*
X240521330Y-134827607D01*
X240521330Y-134827607D02*
X240445140Y-134789512D01*
X240445140Y-134789512D02*
X240292759Y-134789512D01*
X240292759Y-134789512D02*
X240216568Y-134827607D01*
X240216568Y-134827607D02*
X240178473Y-134865702D01*
X240178473Y-134865702D02*
X240140378Y-134941893D01*
X240140378Y-134941893D02*
X240140378Y-134979988D01*
X240140378Y-134979988D02*
X240178473Y-135056178D01*
X240178473Y-135056178D02*
X240216568Y-135094274D01*
X240216568Y-135094274D02*
X240292759Y-135132369D01*
X240292759Y-135132369D02*
X240445140Y-135132369D01*
X240445140Y-135132369D02*
X240521330Y-135170464D01*
X240521330Y-135170464D02*
X240559425Y-135208559D01*
X240559425Y-135208559D02*
X240597521Y-135284750D01*
X240597521Y-135284750D02*
X240597521Y-135437131D01*
X240597521Y-135437131D02*
X240559425Y-135513321D01*
X240559425Y-135513321D02*
X240521330Y-135551417D01*
X240521330Y-135551417D02*
X240445140Y-135589512D01*
X240445140Y-135589512D02*
X240292759Y-135589512D01*
X240292759Y-135589512D02*
X240216568Y-135551417D01*
X240216568Y-135551417D02*
X240178473Y-135513321D01*
X240178473Y-135513321D02*
X240140378Y-135437131D01*
X240140378Y-135437131D02*
X240140378Y-135284750D01*
X240140378Y-135284750D02*
X240178473Y-135208559D01*
X240178473Y-135208559D02*
X240216568Y-135170464D01*
X240216568Y-135170464D02*
X240292759Y-135132369D01*
X229035330Y-147494607D02*
X229111520Y-147456512D01*
X229111520Y-147456512D02*
X229225806Y-147456512D01*
X229225806Y-147456512D02*
X229340092Y-147494607D01*
X229340092Y-147494607D02*
X229416282Y-147570797D01*
X229416282Y-147570797D02*
X229454377Y-147646988D01*
X229454377Y-147646988D02*
X229492473Y-147799369D01*
X229492473Y-147799369D02*
X229492473Y-147913655D01*
X229492473Y-147913655D02*
X229454377Y-148066036D01*
X229454377Y-148066036D02*
X229416282Y-148142226D01*
X229416282Y-148142226D02*
X229340092Y-148218417D01*
X229340092Y-148218417D02*
X229225806Y-148256512D01*
X229225806Y-148256512D02*
X229149615Y-148256512D01*
X229149615Y-148256512D02*
X229035330Y-148218417D01*
X229035330Y-148218417D02*
X228997234Y-148180321D01*
X228997234Y-148180321D02*
X228997234Y-147913655D01*
X228997234Y-147913655D02*
X229149615Y-147913655D01*
X228654377Y-148256512D02*
X228654377Y-147456512D01*
X228654377Y-147456512D02*
X228349615Y-147456512D01*
X228349615Y-147456512D02*
X228273425Y-147494607D01*
X228273425Y-147494607D02*
X228235330Y-147532702D01*
X228235330Y-147532702D02*
X228197234Y-147608893D01*
X228197234Y-147608893D02*
X228197234Y-147723178D01*
X228197234Y-147723178D02*
X228235330Y-147799369D01*
X228235330Y-147799369D02*
X228273425Y-147837464D01*
X228273425Y-147837464D02*
X228349615Y-147875559D01*
X228349615Y-147875559D02*
X228654377Y-147875559D01*
X227816282Y-148256512D02*
X227663901Y-148256512D01*
X227663901Y-148256512D02*
X227587711Y-148218417D01*
X227587711Y-148218417D02*
X227549615Y-148180321D01*
X227549615Y-148180321D02*
X227473425Y-148066036D01*
X227473425Y-148066036D02*
X227435330Y-147913655D01*
X227435330Y-147913655D02*
X227435330Y-147608893D01*
X227435330Y-147608893D02*
X227473425Y-147532702D01*
X227473425Y-147532702D02*
X227511520Y-147494607D01*
X227511520Y-147494607D02*
X227587711Y-147456512D01*
X227587711Y-147456512D02*
X227740092Y-147456512D01*
X227740092Y-147456512D02*
X227816282Y-147494607D01*
X227816282Y-147494607D02*
X227854377Y-147532702D01*
X227854377Y-147532702D02*
X227892473Y-147608893D01*
X227892473Y-147608893D02*
X227892473Y-147799369D01*
X227892473Y-147799369D02*
X227854377Y-147875559D01*
X227854377Y-147875559D02*
X227816282Y-147913655D01*
X227816282Y-147913655D02*
X227740092Y-147951750D01*
X227740092Y-147951750D02*
X227587711Y-147951750D01*
X227587711Y-147951750D02*
X227511520Y-147913655D01*
X227511520Y-147913655D02*
X227473425Y-147875559D01*
X227473425Y-147875559D02*
X227435330Y-147799369D01*
X242608425Y-150026607D02*
X242684615Y-149988512D01*
X242684615Y-149988512D02*
X242798901Y-149988512D01*
X242798901Y-149988512D02*
X242913187Y-150026607D01*
X242913187Y-150026607D02*
X242989377Y-150102797D01*
X242989377Y-150102797D02*
X243027472Y-150178988D01*
X243027472Y-150178988D02*
X243065568Y-150331369D01*
X243065568Y-150331369D02*
X243065568Y-150445655D01*
X243065568Y-150445655D02*
X243027472Y-150598036D01*
X243027472Y-150598036D02*
X242989377Y-150674226D01*
X242989377Y-150674226D02*
X242913187Y-150750417D01*
X242913187Y-150750417D02*
X242798901Y-150788512D01*
X242798901Y-150788512D02*
X242722710Y-150788512D01*
X242722710Y-150788512D02*
X242608425Y-150750417D01*
X242608425Y-150750417D02*
X242570329Y-150712321D01*
X242570329Y-150712321D02*
X242570329Y-150445655D01*
X242570329Y-150445655D02*
X242722710Y-150445655D01*
X242227472Y-150788512D02*
X242227472Y-149988512D01*
X242227472Y-149988512D02*
X241770329Y-150788512D01*
X241770329Y-150788512D02*
X241770329Y-149988512D01*
X241389377Y-150788512D02*
X241389377Y-149988512D01*
X241389377Y-149988512D02*
X241198901Y-149988512D01*
X241198901Y-149988512D02*
X241084615Y-150026607D01*
X241084615Y-150026607D02*
X241008425Y-150102797D01*
X241008425Y-150102797D02*
X240970330Y-150178988D01*
X240970330Y-150178988D02*
X240932234Y-150331369D01*
X240932234Y-150331369D02*
X240932234Y-150445655D01*
X240932234Y-150445655D02*
X240970330Y-150598036D01*
X240970330Y-150598036D02*
X241008425Y-150674226D01*
X241008425Y-150674226D02*
X241084615Y-150750417D01*
X241084615Y-150750417D02*
X241198901Y-150788512D01*
X241198901Y-150788512D02*
X241389377Y-150788512D01*
X242626283Y-152589607D02*
X242702473Y-152551512D01*
X242702473Y-152551512D02*
X242816759Y-152551512D01*
X242816759Y-152551512D02*
X242931045Y-152589607D01*
X242931045Y-152589607D02*
X243007235Y-152665797D01*
X243007235Y-152665797D02*
X243045330Y-152741988D01*
X243045330Y-152741988D02*
X243083426Y-152894369D01*
X243083426Y-152894369D02*
X243083426Y-153008655D01*
X243083426Y-153008655D02*
X243045330Y-153161036D01*
X243045330Y-153161036D02*
X243007235Y-153237226D01*
X243007235Y-153237226D02*
X242931045Y-153313417D01*
X242931045Y-153313417D02*
X242816759Y-153351512D01*
X242816759Y-153351512D02*
X242740568Y-153351512D01*
X242740568Y-153351512D02*
X242626283Y-153313417D01*
X242626283Y-153313417D02*
X242588187Y-153275321D01*
X242588187Y-153275321D02*
X242588187Y-153008655D01*
X242588187Y-153008655D02*
X242740568Y-153008655D01*
X242245330Y-153351512D02*
X242245330Y-152551512D01*
X242245330Y-152551512D02*
X241940568Y-152551512D01*
X241940568Y-152551512D02*
X241864378Y-152589607D01*
X241864378Y-152589607D02*
X241826283Y-152627702D01*
X241826283Y-152627702D02*
X241788187Y-152703893D01*
X241788187Y-152703893D02*
X241788187Y-152818178D01*
X241788187Y-152818178D02*
X241826283Y-152894369D01*
X241826283Y-152894369D02*
X241864378Y-152932464D01*
X241864378Y-152932464D02*
X241940568Y-152970559D01*
X241940568Y-152970559D02*
X242245330Y-152970559D01*
X241483426Y-152627702D02*
X241445330Y-152589607D01*
X241445330Y-152589607D02*
X241369140Y-152551512D01*
X241369140Y-152551512D02*
X241178664Y-152551512D01*
X241178664Y-152551512D02*
X241102473Y-152589607D01*
X241102473Y-152589607D02*
X241064378Y-152627702D01*
X241064378Y-152627702D02*
X241026283Y-152703893D01*
X241026283Y-152703893D02*
X241026283Y-152780083D01*
X241026283Y-152780083D02*
X241064378Y-152894369D01*
X241064378Y-152894369D02*
X241521521Y-153351512D01*
X241521521Y-153351512D02*
X241026283Y-153351512D01*
X240264378Y-153351512D02*
X240721521Y-153351512D01*
X240492949Y-153351512D02*
X240492949Y-152551512D01*
X240492949Y-152551512D02*
X240569140Y-152665797D01*
X240569140Y-152665797D02*
X240645330Y-152741988D01*
X240645330Y-152741988D02*
X240721521Y-152780083D01*
X229060330Y-139821607D02*
X229136520Y-139783512D01*
X229136520Y-139783512D02*
X229250806Y-139783512D01*
X229250806Y-139783512D02*
X229365092Y-139821607D01*
X229365092Y-139821607D02*
X229441282Y-139897797D01*
X229441282Y-139897797D02*
X229479377Y-139973988D01*
X229479377Y-139973988D02*
X229517473Y-140126369D01*
X229517473Y-140126369D02*
X229517473Y-140240655D01*
X229517473Y-140240655D02*
X229479377Y-140393036D01*
X229479377Y-140393036D02*
X229441282Y-140469226D01*
X229441282Y-140469226D02*
X229365092Y-140545417D01*
X229365092Y-140545417D02*
X229250806Y-140583512D01*
X229250806Y-140583512D02*
X229174615Y-140583512D01*
X229174615Y-140583512D02*
X229060330Y-140545417D01*
X229060330Y-140545417D02*
X229022234Y-140507321D01*
X229022234Y-140507321D02*
X229022234Y-140240655D01*
X229022234Y-140240655D02*
X229174615Y-140240655D01*
X228679377Y-140583512D02*
X228679377Y-139783512D01*
X228679377Y-139783512D02*
X228374615Y-139783512D01*
X228374615Y-139783512D02*
X228298425Y-139821607D01*
X228298425Y-139821607D02*
X228260330Y-139859702D01*
X228260330Y-139859702D02*
X228222234Y-139935893D01*
X228222234Y-139935893D02*
X228222234Y-140050178D01*
X228222234Y-140050178D02*
X228260330Y-140126369D01*
X228260330Y-140126369D02*
X228298425Y-140164464D01*
X228298425Y-140164464D02*
X228374615Y-140202559D01*
X228374615Y-140202559D02*
X228679377Y-140202559D01*
X227536520Y-139783512D02*
X227688901Y-139783512D01*
X227688901Y-139783512D02*
X227765092Y-139821607D01*
X227765092Y-139821607D02*
X227803187Y-139859702D01*
X227803187Y-139859702D02*
X227879377Y-139973988D01*
X227879377Y-139973988D02*
X227917473Y-140126369D01*
X227917473Y-140126369D02*
X227917473Y-140431131D01*
X227917473Y-140431131D02*
X227879377Y-140507321D01*
X227879377Y-140507321D02*
X227841282Y-140545417D01*
X227841282Y-140545417D02*
X227765092Y-140583512D01*
X227765092Y-140583512D02*
X227612711Y-140583512D01*
X227612711Y-140583512D02*
X227536520Y-140545417D01*
X227536520Y-140545417D02*
X227498425Y-140507321D01*
X227498425Y-140507321D02*
X227460330Y-140431131D01*
X227460330Y-140431131D02*
X227460330Y-140240655D01*
X227460330Y-140240655D02*
X227498425Y-140164464D01*
X227498425Y-140164464D02*
X227536520Y-140126369D01*
X227536520Y-140126369D02*
X227612711Y-140088274D01*
X227612711Y-140088274D02*
X227765092Y-140088274D01*
X227765092Y-140088274D02*
X227841282Y-140126369D01*
X227841282Y-140126369D02*
X227879377Y-140164464D01*
X227879377Y-140164464D02*
X227917473Y-140240655D01*
X229819283Y-160089607D02*
X229895473Y-160051512D01*
X229895473Y-160051512D02*
X230009759Y-160051512D01*
X230009759Y-160051512D02*
X230124045Y-160089607D01*
X230124045Y-160089607D02*
X230200235Y-160165797D01*
X230200235Y-160165797D02*
X230238330Y-160241988D01*
X230238330Y-160241988D02*
X230276426Y-160394369D01*
X230276426Y-160394369D02*
X230276426Y-160508655D01*
X230276426Y-160508655D02*
X230238330Y-160661036D01*
X230238330Y-160661036D02*
X230200235Y-160737226D01*
X230200235Y-160737226D02*
X230124045Y-160813417D01*
X230124045Y-160813417D02*
X230009759Y-160851512D01*
X230009759Y-160851512D02*
X229933568Y-160851512D01*
X229933568Y-160851512D02*
X229819283Y-160813417D01*
X229819283Y-160813417D02*
X229781187Y-160775321D01*
X229781187Y-160775321D02*
X229781187Y-160508655D01*
X229781187Y-160508655D02*
X229933568Y-160508655D01*
X229438330Y-160851512D02*
X229438330Y-160051512D01*
X229438330Y-160051512D02*
X229133568Y-160051512D01*
X229133568Y-160051512D02*
X229057378Y-160089607D01*
X229057378Y-160089607D02*
X229019283Y-160127702D01*
X229019283Y-160127702D02*
X228981187Y-160203893D01*
X228981187Y-160203893D02*
X228981187Y-160318178D01*
X228981187Y-160318178D02*
X229019283Y-160394369D01*
X229019283Y-160394369D02*
X229057378Y-160432464D01*
X229057378Y-160432464D02*
X229133568Y-160470559D01*
X229133568Y-160470559D02*
X229438330Y-160470559D01*
X228219283Y-160851512D02*
X228676426Y-160851512D01*
X228447854Y-160851512D02*
X228447854Y-160051512D01*
X228447854Y-160051512D02*
X228524045Y-160165797D01*
X228524045Y-160165797D02*
X228600235Y-160241988D01*
X228600235Y-160241988D02*
X228676426Y-160280083D01*
X227952616Y-160051512D02*
X227457378Y-160051512D01*
X227457378Y-160051512D02*
X227724044Y-160356274D01*
X227724044Y-160356274D02*
X227609759Y-160356274D01*
X227609759Y-160356274D02*
X227533568Y-160394369D01*
X227533568Y-160394369D02*
X227495473Y-160432464D01*
X227495473Y-160432464D02*
X227457378Y-160508655D01*
X227457378Y-160508655D02*
X227457378Y-160699131D01*
X227457378Y-160699131D02*
X227495473Y-160775321D01*
X227495473Y-160775321D02*
X227533568Y-160813417D01*
X227533568Y-160813417D02*
X227609759Y-160851512D01*
X227609759Y-160851512D02*
X227838330Y-160851512D01*
X227838330Y-160851512D02*
X227914521Y-160813417D01*
X227914521Y-160813417D02*
X227952616Y-160775321D01*
X242908378Y-129743512D02*
X242413140Y-129743512D01*
X242413140Y-129743512D02*
X242679806Y-130048274D01*
X242679806Y-130048274D02*
X242565521Y-130048274D01*
X242565521Y-130048274D02*
X242489330Y-130086369D01*
X242489330Y-130086369D02*
X242451235Y-130124464D01*
X242451235Y-130124464D02*
X242413140Y-130200655D01*
X242413140Y-130200655D02*
X242413140Y-130391131D01*
X242413140Y-130391131D02*
X242451235Y-130467321D01*
X242451235Y-130467321D02*
X242489330Y-130505417D01*
X242489330Y-130505417D02*
X242565521Y-130543512D01*
X242565521Y-130543512D02*
X242794092Y-130543512D01*
X242794092Y-130543512D02*
X242870283Y-130505417D01*
X242870283Y-130505417D02*
X242908378Y-130467321D01*
X242184568Y-129743512D02*
X241917901Y-130543512D01*
X241917901Y-130543512D02*
X241651235Y-129743512D01*
X241460759Y-129743512D02*
X240965521Y-129743512D01*
X240965521Y-129743512D02*
X241232187Y-130048274D01*
X241232187Y-130048274D02*
X241117902Y-130048274D01*
X241117902Y-130048274D02*
X241041711Y-130086369D01*
X241041711Y-130086369D02*
X241003616Y-130124464D01*
X241003616Y-130124464D02*
X240965521Y-130200655D01*
X240965521Y-130200655D02*
X240965521Y-130391131D01*
X240965521Y-130391131D02*
X241003616Y-130467321D01*
X241003616Y-130467321D02*
X241041711Y-130505417D01*
X241041711Y-130505417D02*
X241117902Y-130543512D01*
X241117902Y-130543512D02*
X241346473Y-130543512D01*
X241346473Y-130543512D02*
X241422664Y-130505417D01*
X241422664Y-130505417D02*
X241460759Y-130467321D01*
X242662283Y-167792607D02*
X242738473Y-167754512D01*
X242738473Y-167754512D02*
X242852759Y-167754512D01*
X242852759Y-167754512D02*
X242967045Y-167792607D01*
X242967045Y-167792607D02*
X243043235Y-167868797D01*
X243043235Y-167868797D02*
X243081330Y-167944988D01*
X243081330Y-167944988D02*
X243119426Y-168097369D01*
X243119426Y-168097369D02*
X243119426Y-168211655D01*
X243119426Y-168211655D02*
X243081330Y-168364036D01*
X243081330Y-168364036D02*
X243043235Y-168440226D01*
X243043235Y-168440226D02*
X242967045Y-168516417D01*
X242967045Y-168516417D02*
X242852759Y-168554512D01*
X242852759Y-168554512D02*
X242776568Y-168554512D01*
X242776568Y-168554512D02*
X242662283Y-168516417D01*
X242662283Y-168516417D02*
X242624187Y-168478321D01*
X242624187Y-168478321D02*
X242624187Y-168211655D01*
X242624187Y-168211655D02*
X242776568Y-168211655D01*
X242281330Y-168554512D02*
X242281330Y-167754512D01*
X242281330Y-167754512D02*
X241976568Y-167754512D01*
X241976568Y-167754512D02*
X241900378Y-167792607D01*
X241900378Y-167792607D02*
X241862283Y-167830702D01*
X241862283Y-167830702D02*
X241824187Y-167906893D01*
X241824187Y-167906893D02*
X241824187Y-168021178D01*
X241824187Y-168021178D02*
X241862283Y-168097369D01*
X241862283Y-168097369D02*
X241900378Y-168135464D01*
X241900378Y-168135464D02*
X241976568Y-168173559D01*
X241976568Y-168173559D02*
X242281330Y-168173559D01*
X241062283Y-168554512D02*
X241519426Y-168554512D01*
X241290854Y-168554512D02*
X241290854Y-167754512D01*
X241290854Y-167754512D02*
X241367045Y-167868797D01*
X241367045Y-167868797D02*
X241443235Y-167944988D01*
X241443235Y-167944988D02*
X241519426Y-167983083D01*
X240376568Y-167754512D02*
X240528949Y-167754512D01*
X240528949Y-167754512D02*
X240605140Y-167792607D01*
X240605140Y-167792607D02*
X240643235Y-167830702D01*
X240643235Y-167830702D02*
X240719425Y-167944988D01*
X240719425Y-167944988D02*
X240757521Y-168097369D01*
X240757521Y-168097369D02*
X240757521Y-168402131D01*
X240757521Y-168402131D02*
X240719425Y-168478321D01*
X240719425Y-168478321D02*
X240681330Y-168516417D01*
X240681330Y-168516417D02*
X240605140Y-168554512D01*
X240605140Y-168554512D02*
X240452759Y-168554512D01*
X240452759Y-168554512D02*
X240376568Y-168516417D01*
X240376568Y-168516417D02*
X240338473Y-168478321D01*
X240338473Y-168478321D02*
X240300378Y-168402131D01*
X240300378Y-168402131D02*
X240300378Y-168211655D01*
X240300378Y-168211655D02*
X240338473Y-168135464D01*
X240338473Y-168135464D02*
X240376568Y-168097369D01*
X240376568Y-168097369D02*
X240452759Y-168059274D01*
X240452759Y-168059274D02*
X240605140Y-168059274D01*
X240605140Y-168059274D02*
X240681330Y-168097369D01*
X240681330Y-168097369D02*
X240719425Y-168135464D01*
X240719425Y-168135464D02*
X240757521Y-168211655D01*
X242590283Y-142443607D02*
X242666473Y-142405512D01*
X242666473Y-142405512D02*
X242780759Y-142405512D01*
X242780759Y-142405512D02*
X242895045Y-142443607D01*
X242895045Y-142443607D02*
X242971235Y-142519797D01*
X242971235Y-142519797D02*
X243009330Y-142595988D01*
X243009330Y-142595988D02*
X243047426Y-142748369D01*
X243047426Y-142748369D02*
X243047426Y-142862655D01*
X243047426Y-142862655D02*
X243009330Y-143015036D01*
X243009330Y-143015036D02*
X242971235Y-143091226D01*
X242971235Y-143091226D02*
X242895045Y-143167417D01*
X242895045Y-143167417D02*
X242780759Y-143205512D01*
X242780759Y-143205512D02*
X242704568Y-143205512D01*
X242704568Y-143205512D02*
X242590283Y-143167417D01*
X242590283Y-143167417D02*
X242552187Y-143129321D01*
X242552187Y-143129321D02*
X242552187Y-142862655D01*
X242552187Y-142862655D02*
X242704568Y-142862655D01*
X242209330Y-143205512D02*
X242209330Y-142405512D01*
X242209330Y-142405512D02*
X241904568Y-142405512D01*
X241904568Y-142405512D02*
X241828378Y-142443607D01*
X241828378Y-142443607D02*
X241790283Y-142481702D01*
X241790283Y-142481702D02*
X241752187Y-142557893D01*
X241752187Y-142557893D02*
X241752187Y-142672178D01*
X241752187Y-142672178D02*
X241790283Y-142748369D01*
X241790283Y-142748369D02*
X241828378Y-142786464D01*
X241828378Y-142786464D02*
X241904568Y-142824559D01*
X241904568Y-142824559D02*
X242209330Y-142824559D01*
X241447426Y-142481702D02*
X241409330Y-142443607D01*
X241409330Y-142443607D02*
X241333140Y-142405512D01*
X241333140Y-142405512D02*
X241142664Y-142405512D01*
X241142664Y-142405512D02*
X241066473Y-142443607D01*
X241066473Y-142443607D02*
X241028378Y-142481702D01*
X241028378Y-142481702D02*
X240990283Y-142557893D01*
X240990283Y-142557893D02*
X240990283Y-142634083D01*
X240990283Y-142634083D02*
X241028378Y-142748369D01*
X241028378Y-142748369D02*
X241485521Y-143205512D01*
X241485521Y-143205512D02*
X240990283Y-143205512D01*
X240304568Y-142405512D02*
X240456949Y-142405512D01*
X240456949Y-142405512D02*
X240533140Y-142443607D01*
X240533140Y-142443607D02*
X240571235Y-142481702D01*
X240571235Y-142481702D02*
X240647425Y-142595988D01*
X240647425Y-142595988D02*
X240685521Y-142748369D01*
X240685521Y-142748369D02*
X240685521Y-143053131D01*
X240685521Y-143053131D02*
X240647425Y-143129321D01*
X240647425Y-143129321D02*
X240609330Y-143167417D01*
X240609330Y-143167417D02*
X240533140Y-143205512D01*
X240533140Y-143205512D02*
X240380759Y-143205512D01*
X240380759Y-143205512D02*
X240304568Y-143167417D01*
X240304568Y-143167417D02*
X240266473Y-143129321D01*
X240266473Y-143129321D02*
X240228378Y-143053131D01*
X240228378Y-143053131D02*
X240228378Y-142862655D01*
X240228378Y-142862655D02*
X240266473Y-142786464D01*
X240266473Y-142786464D02*
X240304568Y-142748369D01*
X240304568Y-142748369D02*
X240380759Y-142710274D01*
X240380759Y-142710274D02*
X240533140Y-142710274D01*
X240533140Y-142710274D02*
X240609330Y-142748369D01*
X240609330Y-142748369D02*
X240647425Y-142786464D01*
X240647425Y-142786464D02*
X240685521Y-142862655D01*
X229145330Y-122056607D02*
X229221520Y-122018512D01*
X229221520Y-122018512D02*
X229335806Y-122018512D01*
X229335806Y-122018512D02*
X229450092Y-122056607D01*
X229450092Y-122056607D02*
X229526282Y-122132797D01*
X229526282Y-122132797D02*
X229564377Y-122208988D01*
X229564377Y-122208988D02*
X229602473Y-122361369D01*
X229602473Y-122361369D02*
X229602473Y-122475655D01*
X229602473Y-122475655D02*
X229564377Y-122628036D01*
X229564377Y-122628036D02*
X229526282Y-122704226D01*
X229526282Y-122704226D02*
X229450092Y-122780417D01*
X229450092Y-122780417D02*
X229335806Y-122818512D01*
X229335806Y-122818512D02*
X229259615Y-122818512D01*
X229259615Y-122818512D02*
X229145330Y-122780417D01*
X229145330Y-122780417D02*
X229107234Y-122742321D01*
X229107234Y-122742321D02*
X229107234Y-122475655D01*
X229107234Y-122475655D02*
X229259615Y-122475655D01*
X228764377Y-122818512D02*
X228764377Y-122018512D01*
X228764377Y-122018512D02*
X228459615Y-122018512D01*
X228459615Y-122018512D02*
X228383425Y-122056607D01*
X228383425Y-122056607D02*
X228345330Y-122094702D01*
X228345330Y-122094702D02*
X228307234Y-122170893D01*
X228307234Y-122170893D02*
X228307234Y-122285178D01*
X228307234Y-122285178D02*
X228345330Y-122361369D01*
X228345330Y-122361369D02*
X228383425Y-122399464D01*
X228383425Y-122399464D02*
X228459615Y-122437559D01*
X228459615Y-122437559D02*
X228764377Y-122437559D01*
X227545330Y-122818512D02*
X228002473Y-122818512D01*
X227773901Y-122818512D02*
X227773901Y-122018512D01*
X227773901Y-122018512D02*
X227850092Y-122132797D01*
X227850092Y-122132797D02*
X227926282Y-122208988D01*
X227926282Y-122208988D02*
X228002473Y-122247083D01*
X242590283Y-155153607D02*
X242666473Y-155115512D01*
X242666473Y-155115512D02*
X242780759Y-155115512D01*
X242780759Y-155115512D02*
X242895045Y-155153607D01*
X242895045Y-155153607D02*
X242971235Y-155229797D01*
X242971235Y-155229797D02*
X243009330Y-155305988D01*
X243009330Y-155305988D02*
X243047426Y-155458369D01*
X243047426Y-155458369D02*
X243047426Y-155572655D01*
X243047426Y-155572655D02*
X243009330Y-155725036D01*
X243009330Y-155725036D02*
X242971235Y-155801226D01*
X242971235Y-155801226D02*
X242895045Y-155877417D01*
X242895045Y-155877417D02*
X242780759Y-155915512D01*
X242780759Y-155915512D02*
X242704568Y-155915512D01*
X242704568Y-155915512D02*
X242590283Y-155877417D01*
X242590283Y-155877417D02*
X242552187Y-155839321D01*
X242552187Y-155839321D02*
X242552187Y-155572655D01*
X242552187Y-155572655D02*
X242704568Y-155572655D01*
X242209330Y-155915512D02*
X242209330Y-155115512D01*
X242209330Y-155115512D02*
X241904568Y-155115512D01*
X241904568Y-155115512D02*
X241828378Y-155153607D01*
X241828378Y-155153607D02*
X241790283Y-155191702D01*
X241790283Y-155191702D02*
X241752187Y-155267893D01*
X241752187Y-155267893D02*
X241752187Y-155382178D01*
X241752187Y-155382178D02*
X241790283Y-155458369D01*
X241790283Y-155458369D02*
X241828378Y-155496464D01*
X241828378Y-155496464D02*
X241904568Y-155534559D01*
X241904568Y-155534559D02*
X242209330Y-155534559D01*
X241447426Y-155191702D02*
X241409330Y-155153607D01*
X241409330Y-155153607D02*
X241333140Y-155115512D01*
X241333140Y-155115512D02*
X241142664Y-155115512D01*
X241142664Y-155115512D02*
X241066473Y-155153607D01*
X241066473Y-155153607D02*
X241028378Y-155191702D01*
X241028378Y-155191702D02*
X240990283Y-155267893D01*
X240990283Y-155267893D02*
X240990283Y-155344083D01*
X240990283Y-155344083D02*
X241028378Y-155458369D01*
X241028378Y-155458369D02*
X241485521Y-155915512D01*
X241485521Y-155915512D02*
X240990283Y-155915512D01*
X240495044Y-155115512D02*
X240418854Y-155115512D01*
X240418854Y-155115512D02*
X240342663Y-155153607D01*
X240342663Y-155153607D02*
X240304568Y-155191702D01*
X240304568Y-155191702D02*
X240266473Y-155267893D01*
X240266473Y-155267893D02*
X240228378Y-155420274D01*
X240228378Y-155420274D02*
X240228378Y-155610750D01*
X240228378Y-155610750D02*
X240266473Y-155763131D01*
X240266473Y-155763131D02*
X240304568Y-155839321D01*
X240304568Y-155839321D02*
X240342663Y-155877417D01*
X240342663Y-155877417D02*
X240418854Y-155915512D01*
X240418854Y-155915512D02*
X240495044Y-155915512D01*
X240495044Y-155915512D02*
X240571235Y-155877417D01*
X240571235Y-155877417D02*
X240609330Y-155839321D01*
X240609330Y-155839321D02*
X240647425Y-155763131D01*
X240647425Y-155763131D02*
X240685521Y-155610750D01*
X240685521Y-155610750D02*
X240685521Y-155420274D01*
X240685521Y-155420274D02*
X240647425Y-155267893D01*
X240647425Y-155267893D02*
X240609330Y-155191702D01*
X240609330Y-155191702D02*
X240571235Y-155153607D01*
X240571235Y-155153607D02*
X240495044Y-155115512D01*
X229123425Y-137313607D02*
X229199615Y-137275512D01*
X229199615Y-137275512D02*
X229313901Y-137275512D01*
X229313901Y-137275512D02*
X229428187Y-137313607D01*
X229428187Y-137313607D02*
X229504377Y-137389797D01*
X229504377Y-137389797D02*
X229542472Y-137465988D01*
X229542472Y-137465988D02*
X229580568Y-137618369D01*
X229580568Y-137618369D02*
X229580568Y-137732655D01*
X229580568Y-137732655D02*
X229542472Y-137885036D01*
X229542472Y-137885036D02*
X229504377Y-137961226D01*
X229504377Y-137961226D02*
X229428187Y-138037417D01*
X229428187Y-138037417D02*
X229313901Y-138075512D01*
X229313901Y-138075512D02*
X229237710Y-138075512D01*
X229237710Y-138075512D02*
X229123425Y-138037417D01*
X229123425Y-138037417D02*
X229085329Y-137999321D01*
X229085329Y-137999321D02*
X229085329Y-137732655D01*
X229085329Y-137732655D02*
X229237710Y-137732655D01*
X228742472Y-138075512D02*
X228742472Y-137275512D01*
X228742472Y-137275512D02*
X228285329Y-138075512D01*
X228285329Y-138075512D02*
X228285329Y-137275512D01*
X227904377Y-138075512D02*
X227904377Y-137275512D01*
X227904377Y-137275512D02*
X227713901Y-137275512D01*
X227713901Y-137275512D02*
X227599615Y-137313607D01*
X227599615Y-137313607D02*
X227523425Y-137389797D01*
X227523425Y-137389797D02*
X227485330Y-137465988D01*
X227485330Y-137465988D02*
X227447234Y-137618369D01*
X227447234Y-137618369D02*
X227447234Y-137732655D01*
X227447234Y-137732655D02*
X227485330Y-137885036D01*
X227485330Y-137885036D02*
X227523425Y-137961226D01*
X227523425Y-137961226D02*
X227599615Y-138037417D01*
X227599615Y-138037417D02*
X227713901Y-138075512D01*
X227713901Y-138075512D02*
X227904377Y-138075512D01*
X242884759Y-132741940D02*
X242503806Y-132741940D01*
X242960949Y-132970512D02*
X242694282Y-132170512D01*
X242694282Y-132170512D02*
X242427616Y-132970512D01*
X242160949Y-132970512D02*
X242160949Y-132170512D01*
X242160949Y-132170512D02*
X241970473Y-132170512D01*
X241970473Y-132170512D02*
X241856187Y-132208607D01*
X241856187Y-132208607D02*
X241779997Y-132284797D01*
X241779997Y-132284797D02*
X241741902Y-132360988D01*
X241741902Y-132360988D02*
X241703806Y-132513369D01*
X241703806Y-132513369D02*
X241703806Y-132627655D01*
X241703806Y-132627655D02*
X241741902Y-132780036D01*
X241741902Y-132780036D02*
X241779997Y-132856226D01*
X241779997Y-132856226D02*
X241856187Y-132932417D01*
X241856187Y-132932417D02*
X241970473Y-132970512D01*
X241970473Y-132970512D02*
X242160949Y-132970512D01*
X240903806Y-132894321D02*
X240941902Y-132932417D01*
X240941902Y-132932417D02*
X241056187Y-132970512D01*
X241056187Y-132970512D02*
X241132378Y-132970512D01*
X241132378Y-132970512D02*
X241246664Y-132932417D01*
X241246664Y-132932417D02*
X241322854Y-132856226D01*
X241322854Y-132856226D02*
X241360949Y-132780036D01*
X241360949Y-132780036D02*
X241399045Y-132627655D01*
X241399045Y-132627655D02*
X241399045Y-132513369D01*
X241399045Y-132513369D02*
X241360949Y-132360988D01*
X241360949Y-132360988D02*
X241322854Y-132284797D01*
X241322854Y-132284797D02*
X241246664Y-132208607D01*
X241246664Y-132208607D02*
X241132378Y-132170512D01*
X241132378Y-132170512D02*
X241056187Y-132170512D01*
X241056187Y-132170512D02*
X240941902Y-132208607D01*
X240941902Y-132208607D02*
X240903806Y-132246702D01*
X240751426Y-133046702D02*
X240141902Y-133046702D01*
X240065711Y-132170512D02*
X239799044Y-132970512D01*
X239799044Y-132970512D02*
X239532378Y-132170512D01*
X238808568Y-132970512D02*
X239075235Y-132589559D01*
X239265711Y-132970512D02*
X239265711Y-132170512D01*
X239265711Y-132170512D02*
X238960949Y-132170512D01*
X238960949Y-132170512D02*
X238884759Y-132208607D01*
X238884759Y-132208607D02*
X238846664Y-132246702D01*
X238846664Y-132246702D02*
X238808568Y-132322893D01*
X238808568Y-132322893D02*
X238808568Y-132437178D01*
X238808568Y-132437178D02*
X238846664Y-132513369D01*
X238846664Y-132513369D02*
X238884759Y-132551464D01*
X238884759Y-132551464D02*
X238960949Y-132589559D01*
X238960949Y-132589559D02*
X239265711Y-132589559D01*
X238465711Y-132551464D02*
X238199045Y-132551464D01*
X238084759Y-132970512D02*
X238465711Y-132970512D01*
X238465711Y-132970512D02*
X238465711Y-132170512D01*
X238465711Y-132170512D02*
X238084759Y-132170512D01*
X237475235Y-132551464D02*
X237741901Y-132551464D01*
X237741901Y-132970512D02*
X237741901Y-132170512D01*
X237741901Y-132170512D02*
X237360949Y-132170512D01*
X242864568Y-119604512D02*
X242597901Y-120404512D01*
X242597901Y-120404512D02*
X242331235Y-119604512D01*
X241797902Y-119985464D02*
X241683616Y-120023559D01*
X241683616Y-120023559D02*
X241645521Y-120061655D01*
X241645521Y-120061655D02*
X241607425Y-120137845D01*
X241607425Y-120137845D02*
X241607425Y-120252131D01*
X241607425Y-120252131D02*
X241645521Y-120328321D01*
X241645521Y-120328321D02*
X241683616Y-120366417D01*
X241683616Y-120366417D02*
X241759806Y-120404512D01*
X241759806Y-120404512D02*
X242064568Y-120404512D01*
X242064568Y-120404512D02*
X242064568Y-119604512D01*
X242064568Y-119604512D02*
X241797902Y-119604512D01*
X241797902Y-119604512D02*
X241721711Y-119642607D01*
X241721711Y-119642607D02*
X241683616Y-119680702D01*
X241683616Y-119680702D02*
X241645521Y-119756893D01*
X241645521Y-119756893D02*
X241645521Y-119833083D01*
X241645521Y-119833083D02*
X241683616Y-119909274D01*
X241683616Y-119909274D02*
X241721711Y-119947369D01*
X241721711Y-119947369D02*
X241797902Y-119985464D01*
X241797902Y-119985464D02*
X242064568Y-119985464D01*
X241264568Y-119604512D02*
X241264568Y-120252131D01*
X241264568Y-120252131D02*
X241226473Y-120328321D01*
X241226473Y-120328321D02*
X241188378Y-120366417D01*
X241188378Y-120366417D02*
X241112187Y-120404512D01*
X241112187Y-120404512D02*
X240959806Y-120404512D01*
X240959806Y-120404512D02*
X240883616Y-120366417D01*
X240883616Y-120366417D02*
X240845521Y-120328321D01*
X240845521Y-120328321D02*
X240807425Y-120252131D01*
X240807425Y-120252131D02*
X240807425Y-119604512D01*
X240464569Y-120366417D02*
X240350283Y-120404512D01*
X240350283Y-120404512D02*
X240159807Y-120404512D01*
X240159807Y-120404512D02*
X240083616Y-120366417D01*
X240083616Y-120366417D02*
X240045521Y-120328321D01*
X240045521Y-120328321D02*
X240007426Y-120252131D01*
X240007426Y-120252131D02*
X240007426Y-120175940D01*
X240007426Y-120175940D02*
X240045521Y-120099750D01*
X240045521Y-120099750D02*
X240083616Y-120061655D01*
X240083616Y-120061655D02*
X240159807Y-120023559D01*
X240159807Y-120023559D02*
X240312188Y-119985464D01*
X240312188Y-119985464D02*
X240388378Y-119947369D01*
X240388378Y-119947369D02*
X240426473Y-119909274D01*
X240426473Y-119909274D02*
X240464569Y-119833083D01*
X240464569Y-119833083D02*
X240464569Y-119756893D01*
X240464569Y-119756893D02*
X240426473Y-119680702D01*
X240426473Y-119680702D02*
X240388378Y-119642607D01*
X240388378Y-119642607D02*
X240312188Y-119604512D01*
X240312188Y-119604512D02*
X240121711Y-119604512D01*
X240121711Y-119604512D02*
X240007426Y-119642607D01*
X229035330Y-134756607D02*
X229111520Y-134718512D01*
X229111520Y-134718512D02*
X229225806Y-134718512D01*
X229225806Y-134718512D02*
X229340092Y-134756607D01*
X229340092Y-134756607D02*
X229416282Y-134832797D01*
X229416282Y-134832797D02*
X229454377Y-134908988D01*
X229454377Y-134908988D02*
X229492473Y-135061369D01*
X229492473Y-135061369D02*
X229492473Y-135175655D01*
X229492473Y-135175655D02*
X229454377Y-135328036D01*
X229454377Y-135328036D02*
X229416282Y-135404226D01*
X229416282Y-135404226D02*
X229340092Y-135480417D01*
X229340092Y-135480417D02*
X229225806Y-135518512D01*
X229225806Y-135518512D02*
X229149615Y-135518512D01*
X229149615Y-135518512D02*
X229035330Y-135480417D01*
X229035330Y-135480417D02*
X228997234Y-135442321D01*
X228997234Y-135442321D02*
X228997234Y-135175655D01*
X228997234Y-135175655D02*
X229149615Y-135175655D01*
X228654377Y-135518512D02*
X228654377Y-134718512D01*
X228654377Y-134718512D02*
X228349615Y-134718512D01*
X228349615Y-134718512D02*
X228273425Y-134756607D01*
X228273425Y-134756607D02*
X228235330Y-134794702D01*
X228235330Y-134794702D02*
X228197234Y-134870893D01*
X228197234Y-134870893D02*
X228197234Y-134985178D01*
X228197234Y-134985178D02*
X228235330Y-135061369D01*
X228235330Y-135061369D02*
X228273425Y-135099464D01*
X228273425Y-135099464D02*
X228349615Y-135137559D01*
X228349615Y-135137559D02*
X228654377Y-135137559D01*
X227473425Y-134718512D02*
X227854377Y-134718512D01*
X227854377Y-134718512D02*
X227892473Y-135099464D01*
X227892473Y-135099464D02*
X227854377Y-135061369D01*
X227854377Y-135061369D02*
X227778187Y-135023274D01*
X227778187Y-135023274D02*
X227587711Y-135023274D01*
X227587711Y-135023274D02*
X227511520Y-135061369D01*
X227511520Y-135061369D02*
X227473425Y-135099464D01*
X227473425Y-135099464D02*
X227435330Y-135175655D01*
X227435330Y-135175655D02*
X227435330Y-135366131D01*
X227435330Y-135366131D02*
X227473425Y-135442321D01*
X227473425Y-135442321D02*
X227511520Y-135480417D01*
X227511520Y-135480417D02*
X227587711Y-135518512D01*
X227587711Y-135518512D02*
X227778187Y-135518512D01*
X227778187Y-135518512D02*
X227854377Y-135480417D01*
X227854377Y-135480417D02*
X227892473Y-135442321D01*
X229927283Y-165181607D02*
X230003473Y-165143512D01*
X230003473Y-165143512D02*
X230117759Y-165143512D01*
X230117759Y-165143512D02*
X230232045Y-165181607D01*
X230232045Y-165181607D02*
X230308235Y-165257797D01*
X230308235Y-165257797D02*
X230346330Y-165333988D01*
X230346330Y-165333988D02*
X230384426Y-165486369D01*
X230384426Y-165486369D02*
X230384426Y-165600655D01*
X230384426Y-165600655D02*
X230346330Y-165753036D01*
X230346330Y-165753036D02*
X230308235Y-165829226D01*
X230308235Y-165829226D02*
X230232045Y-165905417D01*
X230232045Y-165905417D02*
X230117759Y-165943512D01*
X230117759Y-165943512D02*
X230041568Y-165943512D01*
X230041568Y-165943512D02*
X229927283Y-165905417D01*
X229927283Y-165905417D02*
X229889187Y-165867321D01*
X229889187Y-165867321D02*
X229889187Y-165600655D01*
X229889187Y-165600655D02*
X230041568Y-165600655D01*
X229546330Y-165943512D02*
X229546330Y-165143512D01*
X229546330Y-165143512D02*
X229241568Y-165143512D01*
X229241568Y-165143512D02*
X229165378Y-165181607D01*
X229165378Y-165181607D02*
X229127283Y-165219702D01*
X229127283Y-165219702D02*
X229089187Y-165295893D01*
X229089187Y-165295893D02*
X229089187Y-165410178D01*
X229089187Y-165410178D02*
X229127283Y-165486369D01*
X229127283Y-165486369D02*
X229165378Y-165524464D01*
X229165378Y-165524464D02*
X229241568Y-165562559D01*
X229241568Y-165562559D02*
X229546330Y-165562559D01*
X228327283Y-165943512D02*
X228784426Y-165943512D01*
X228555854Y-165943512D02*
X228555854Y-165143512D01*
X228555854Y-165143512D02*
X228632045Y-165257797D01*
X228632045Y-165257797D02*
X228708235Y-165333988D01*
X228708235Y-165333988D02*
X228784426Y-165372083D01*
X227641568Y-165410178D02*
X227641568Y-165943512D01*
X227832044Y-165105417D02*
X228022521Y-165676845D01*
X228022521Y-165676845D02*
X227527282Y-165676845D01*
X229162425Y-124606607D02*
X229238615Y-124568512D01*
X229238615Y-124568512D02*
X229352901Y-124568512D01*
X229352901Y-124568512D02*
X229467187Y-124606607D01*
X229467187Y-124606607D02*
X229543377Y-124682797D01*
X229543377Y-124682797D02*
X229581472Y-124758988D01*
X229581472Y-124758988D02*
X229619568Y-124911369D01*
X229619568Y-124911369D02*
X229619568Y-125025655D01*
X229619568Y-125025655D02*
X229581472Y-125178036D01*
X229581472Y-125178036D02*
X229543377Y-125254226D01*
X229543377Y-125254226D02*
X229467187Y-125330417D01*
X229467187Y-125330417D02*
X229352901Y-125368512D01*
X229352901Y-125368512D02*
X229276710Y-125368512D01*
X229276710Y-125368512D02*
X229162425Y-125330417D01*
X229162425Y-125330417D02*
X229124329Y-125292321D01*
X229124329Y-125292321D02*
X229124329Y-125025655D01*
X229124329Y-125025655D02*
X229276710Y-125025655D01*
X228781472Y-125368512D02*
X228781472Y-124568512D01*
X228781472Y-124568512D02*
X228324329Y-125368512D01*
X228324329Y-125368512D02*
X228324329Y-124568512D01*
X227943377Y-125368512D02*
X227943377Y-124568512D01*
X227943377Y-124568512D02*
X227752901Y-124568512D01*
X227752901Y-124568512D02*
X227638615Y-124606607D01*
X227638615Y-124606607D02*
X227562425Y-124682797D01*
X227562425Y-124682797D02*
X227524330Y-124758988D01*
X227524330Y-124758988D02*
X227486234Y-124911369D01*
X227486234Y-124911369D02*
X227486234Y-125025655D01*
X227486234Y-125025655D02*
X227524330Y-125178036D01*
X227524330Y-125178036D02*
X227562425Y-125254226D01*
X227562425Y-125254226D02*
X227638615Y-125330417D01*
X227638615Y-125330417D02*
X227752901Y-125368512D01*
X227752901Y-125368512D02*
X227943377Y-125368512D01*
X229855283Y-167781607D02*
X229931473Y-167743512D01*
X229931473Y-167743512D02*
X230045759Y-167743512D01*
X230045759Y-167743512D02*
X230160045Y-167781607D01*
X230160045Y-167781607D02*
X230236235Y-167857797D01*
X230236235Y-167857797D02*
X230274330Y-167933988D01*
X230274330Y-167933988D02*
X230312426Y-168086369D01*
X230312426Y-168086369D02*
X230312426Y-168200655D01*
X230312426Y-168200655D02*
X230274330Y-168353036D01*
X230274330Y-168353036D02*
X230236235Y-168429226D01*
X230236235Y-168429226D02*
X230160045Y-168505417D01*
X230160045Y-168505417D02*
X230045759Y-168543512D01*
X230045759Y-168543512D02*
X229969568Y-168543512D01*
X229969568Y-168543512D02*
X229855283Y-168505417D01*
X229855283Y-168505417D02*
X229817187Y-168467321D01*
X229817187Y-168467321D02*
X229817187Y-168200655D01*
X229817187Y-168200655D02*
X229969568Y-168200655D01*
X229474330Y-168543512D02*
X229474330Y-167743512D01*
X229474330Y-167743512D02*
X229169568Y-167743512D01*
X229169568Y-167743512D02*
X229093378Y-167781607D01*
X229093378Y-167781607D02*
X229055283Y-167819702D01*
X229055283Y-167819702D02*
X229017187Y-167895893D01*
X229017187Y-167895893D02*
X229017187Y-168010178D01*
X229017187Y-168010178D02*
X229055283Y-168086369D01*
X229055283Y-168086369D02*
X229093378Y-168124464D01*
X229093378Y-168124464D02*
X229169568Y-168162559D01*
X229169568Y-168162559D02*
X229474330Y-168162559D01*
X228255283Y-168543512D02*
X228712426Y-168543512D01*
X228483854Y-168543512D02*
X228483854Y-167743512D01*
X228483854Y-167743512D02*
X228560045Y-167857797D01*
X228560045Y-167857797D02*
X228636235Y-167933988D01*
X228636235Y-167933988D02*
X228712426Y-167972083D01*
X227531473Y-167743512D02*
X227912425Y-167743512D01*
X227912425Y-167743512D02*
X227950521Y-168124464D01*
X227950521Y-168124464D02*
X227912425Y-168086369D01*
X227912425Y-168086369D02*
X227836235Y-168048274D01*
X227836235Y-168048274D02*
X227645759Y-168048274D01*
X227645759Y-168048274D02*
X227569568Y-168086369D01*
X227569568Y-168086369D02*
X227531473Y-168124464D01*
X227531473Y-168124464D02*
X227493378Y-168200655D01*
X227493378Y-168200655D02*
X227493378Y-168391131D01*
X227493378Y-168391131D02*
X227531473Y-168467321D01*
X227531473Y-168467321D02*
X227569568Y-168505417D01*
X227569568Y-168505417D02*
X227645759Y-168543512D01*
X227645759Y-168543512D02*
X227836235Y-168543512D01*
X227836235Y-168543512D02*
X227912425Y-168505417D01*
X227912425Y-168505417D02*
X227950521Y-168467321D01*
X229145330Y-127134607D02*
X229221520Y-127096512D01*
X229221520Y-127096512D02*
X229335806Y-127096512D01*
X229335806Y-127096512D02*
X229450092Y-127134607D01*
X229450092Y-127134607D02*
X229526282Y-127210797D01*
X229526282Y-127210797D02*
X229564377Y-127286988D01*
X229564377Y-127286988D02*
X229602473Y-127439369D01*
X229602473Y-127439369D02*
X229602473Y-127553655D01*
X229602473Y-127553655D02*
X229564377Y-127706036D01*
X229564377Y-127706036D02*
X229526282Y-127782226D01*
X229526282Y-127782226D02*
X229450092Y-127858417D01*
X229450092Y-127858417D02*
X229335806Y-127896512D01*
X229335806Y-127896512D02*
X229259615Y-127896512D01*
X229259615Y-127896512D02*
X229145330Y-127858417D01*
X229145330Y-127858417D02*
X229107234Y-127820321D01*
X229107234Y-127820321D02*
X229107234Y-127553655D01*
X229107234Y-127553655D02*
X229259615Y-127553655D01*
X228764377Y-127896512D02*
X228764377Y-127096512D01*
X228764377Y-127096512D02*
X228459615Y-127096512D01*
X228459615Y-127096512D02*
X228383425Y-127134607D01*
X228383425Y-127134607D02*
X228345330Y-127172702D01*
X228345330Y-127172702D02*
X228307234Y-127248893D01*
X228307234Y-127248893D02*
X228307234Y-127363178D01*
X228307234Y-127363178D02*
X228345330Y-127439369D01*
X228345330Y-127439369D02*
X228383425Y-127477464D01*
X228383425Y-127477464D02*
X228459615Y-127515559D01*
X228459615Y-127515559D02*
X228764377Y-127515559D01*
X228002473Y-127172702D02*
X227964377Y-127134607D01*
X227964377Y-127134607D02*
X227888187Y-127096512D01*
X227888187Y-127096512D02*
X227697711Y-127096512D01*
X227697711Y-127096512D02*
X227621520Y-127134607D01*
X227621520Y-127134607D02*
X227583425Y-127172702D01*
X227583425Y-127172702D02*
X227545330Y-127248893D01*
X227545330Y-127248893D02*
X227545330Y-127325083D01*
X227545330Y-127325083D02*
X227583425Y-127439369D01*
X227583425Y-127439369D02*
X228040568Y-127896512D01*
X228040568Y-127896512D02*
X227545330Y-127896512D01*
X242590283Y-147462607D02*
X242666473Y-147424512D01*
X242666473Y-147424512D02*
X242780759Y-147424512D01*
X242780759Y-147424512D02*
X242895045Y-147462607D01*
X242895045Y-147462607D02*
X242971235Y-147538797D01*
X242971235Y-147538797D02*
X243009330Y-147614988D01*
X243009330Y-147614988D02*
X243047426Y-147767369D01*
X243047426Y-147767369D02*
X243047426Y-147881655D01*
X243047426Y-147881655D02*
X243009330Y-148034036D01*
X243009330Y-148034036D02*
X242971235Y-148110226D01*
X242971235Y-148110226D02*
X242895045Y-148186417D01*
X242895045Y-148186417D02*
X242780759Y-148224512D01*
X242780759Y-148224512D02*
X242704568Y-148224512D01*
X242704568Y-148224512D02*
X242590283Y-148186417D01*
X242590283Y-148186417D02*
X242552187Y-148148321D01*
X242552187Y-148148321D02*
X242552187Y-147881655D01*
X242552187Y-147881655D02*
X242704568Y-147881655D01*
X242209330Y-148224512D02*
X242209330Y-147424512D01*
X242209330Y-147424512D02*
X241904568Y-147424512D01*
X241904568Y-147424512D02*
X241828378Y-147462607D01*
X241828378Y-147462607D02*
X241790283Y-147500702D01*
X241790283Y-147500702D02*
X241752187Y-147576893D01*
X241752187Y-147576893D02*
X241752187Y-147691178D01*
X241752187Y-147691178D02*
X241790283Y-147767369D01*
X241790283Y-147767369D02*
X241828378Y-147805464D01*
X241828378Y-147805464D02*
X241904568Y-147843559D01*
X241904568Y-147843559D02*
X242209330Y-147843559D01*
X241447426Y-147500702D02*
X241409330Y-147462607D01*
X241409330Y-147462607D02*
X241333140Y-147424512D01*
X241333140Y-147424512D02*
X241142664Y-147424512D01*
X241142664Y-147424512D02*
X241066473Y-147462607D01*
X241066473Y-147462607D02*
X241028378Y-147500702D01*
X241028378Y-147500702D02*
X240990283Y-147576893D01*
X240990283Y-147576893D02*
X240990283Y-147653083D01*
X240990283Y-147653083D02*
X241028378Y-147767369D01*
X241028378Y-147767369D02*
X241485521Y-148224512D01*
X241485521Y-148224512D02*
X240990283Y-148224512D01*
X240685521Y-147500702D02*
X240647425Y-147462607D01*
X240647425Y-147462607D02*
X240571235Y-147424512D01*
X240571235Y-147424512D02*
X240380759Y-147424512D01*
X240380759Y-147424512D02*
X240304568Y-147462607D01*
X240304568Y-147462607D02*
X240266473Y-147500702D01*
X240266473Y-147500702D02*
X240228378Y-147576893D01*
X240228378Y-147576893D02*
X240228378Y-147653083D01*
X240228378Y-147653083D02*
X240266473Y-147767369D01*
X240266473Y-147767369D02*
X240723616Y-148224512D01*
X240723616Y-148224512D02*
X240228378Y-148224512D01*
X229668330Y-119570607D02*
X229744520Y-119532512D01*
X229744520Y-119532512D02*
X229858806Y-119532512D01*
X229858806Y-119532512D02*
X229973092Y-119570607D01*
X229973092Y-119570607D02*
X230049282Y-119646797D01*
X230049282Y-119646797D02*
X230087377Y-119722988D01*
X230087377Y-119722988D02*
X230125473Y-119875369D01*
X230125473Y-119875369D02*
X230125473Y-119989655D01*
X230125473Y-119989655D02*
X230087377Y-120142036D01*
X230087377Y-120142036D02*
X230049282Y-120218226D01*
X230049282Y-120218226D02*
X229973092Y-120294417D01*
X229973092Y-120294417D02*
X229858806Y-120332512D01*
X229858806Y-120332512D02*
X229782615Y-120332512D01*
X229782615Y-120332512D02*
X229668330Y-120294417D01*
X229668330Y-120294417D02*
X229630234Y-120256321D01*
X229630234Y-120256321D02*
X229630234Y-119989655D01*
X229630234Y-119989655D02*
X229782615Y-119989655D01*
X229287377Y-120332512D02*
X229287377Y-119532512D01*
X229287377Y-119532512D02*
X228982615Y-119532512D01*
X228982615Y-119532512D02*
X228906425Y-119570607D01*
X228906425Y-119570607D02*
X228868330Y-119608702D01*
X228868330Y-119608702D02*
X228830234Y-119684893D01*
X228830234Y-119684893D02*
X228830234Y-119799178D01*
X228830234Y-119799178D02*
X228868330Y-119875369D01*
X228868330Y-119875369D02*
X228906425Y-119913464D01*
X228906425Y-119913464D02*
X228982615Y-119951559D01*
X228982615Y-119951559D02*
X229287377Y-119951559D01*
X228334996Y-119532512D02*
X228258806Y-119532512D01*
X228258806Y-119532512D02*
X228182615Y-119570607D01*
X228182615Y-119570607D02*
X228144520Y-119608702D01*
X228144520Y-119608702D02*
X228106425Y-119684893D01*
X228106425Y-119684893D02*
X228068330Y-119837274D01*
X228068330Y-119837274D02*
X228068330Y-120027750D01*
X228068330Y-120027750D02*
X228106425Y-120180131D01*
X228106425Y-120180131D02*
X228144520Y-120256321D01*
X228144520Y-120256321D02*
X228182615Y-120294417D01*
X228182615Y-120294417D02*
X228258806Y-120332512D01*
X228258806Y-120332512D02*
X228334996Y-120332512D01*
X228334996Y-120332512D02*
X228411187Y-120294417D01*
X228411187Y-120294417D02*
X228449282Y-120256321D01*
X228449282Y-120256321D02*
X228487377Y-120180131D01*
X228487377Y-120180131D02*
X228525473Y-120027750D01*
X228525473Y-120027750D02*
X228525473Y-119837274D01*
X228525473Y-119837274D02*
X228487377Y-119684893D01*
X228487377Y-119684893D02*
X228449282Y-119608702D01*
X228449282Y-119608702D02*
X228411187Y-119570607D01*
X228411187Y-119570607D02*
X228334996Y-119532512D01*
X242590283Y-139843607D02*
X242666473Y-139805512D01*
X242666473Y-139805512D02*
X242780759Y-139805512D01*
X242780759Y-139805512D02*
X242895045Y-139843607D01*
X242895045Y-139843607D02*
X242971235Y-139919797D01*
X242971235Y-139919797D02*
X243009330Y-139995988D01*
X243009330Y-139995988D02*
X243047426Y-140148369D01*
X243047426Y-140148369D02*
X243047426Y-140262655D01*
X243047426Y-140262655D02*
X243009330Y-140415036D01*
X243009330Y-140415036D02*
X242971235Y-140491226D01*
X242971235Y-140491226D02*
X242895045Y-140567417D01*
X242895045Y-140567417D02*
X242780759Y-140605512D01*
X242780759Y-140605512D02*
X242704568Y-140605512D01*
X242704568Y-140605512D02*
X242590283Y-140567417D01*
X242590283Y-140567417D02*
X242552187Y-140529321D01*
X242552187Y-140529321D02*
X242552187Y-140262655D01*
X242552187Y-140262655D02*
X242704568Y-140262655D01*
X242209330Y-140605512D02*
X242209330Y-139805512D01*
X242209330Y-139805512D02*
X241904568Y-139805512D01*
X241904568Y-139805512D02*
X241828378Y-139843607D01*
X241828378Y-139843607D02*
X241790283Y-139881702D01*
X241790283Y-139881702D02*
X241752187Y-139957893D01*
X241752187Y-139957893D02*
X241752187Y-140072178D01*
X241752187Y-140072178D02*
X241790283Y-140148369D01*
X241790283Y-140148369D02*
X241828378Y-140186464D01*
X241828378Y-140186464D02*
X241904568Y-140224559D01*
X241904568Y-140224559D02*
X242209330Y-140224559D01*
X241447426Y-139881702D02*
X241409330Y-139843607D01*
X241409330Y-139843607D02*
X241333140Y-139805512D01*
X241333140Y-139805512D02*
X241142664Y-139805512D01*
X241142664Y-139805512D02*
X241066473Y-139843607D01*
X241066473Y-139843607D02*
X241028378Y-139881702D01*
X241028378Y-139881702D02*
X240990283Y-139957893D01*
X240990283Y-139957893D02*
X240990283Y-140034083D01*
X240990283Y-140034083D02*
X241028378Y-140148369D01*
X241028378Y-140148369D02*
X241485521Y-140605512D01*
X241485521Y-140605512D02*
X240990283Y-140605512D01*
X240723616Y-139805512D02*
X240190282Y-139805512D01*
X240190282Y-139805512D02*
X240533140Y-140605512D01*
X242590283Y-165228607D02*
X242666473Y-165190512D01*
X242666473Y-165190512D02*
X242780759Y-165190512D01*
X242780759Y-165190512D02*
X242895045Y-165228607D01*
X242895045Y-165228607D02*
X242971235Y-165304797D01*
X242971235Y-165304797D02*
X243009330Y-165380988D01*
X243009330Y-165380988D02*
X243047426Y-165533369D01*
X243047426Y-165533369D02*
X243047426Y-165647655D01*
X243047426Y-165647655D02*
X243009330Y-165800036D01*
X243009330Y-165800036D02*
X242971235Y-165876226D01*
X242971235Y-165876226D02*
X242895045Y-165952417D01*
X242895045Y-165952417D02*
X242780759Y-165990512D01*
X242780759Y-165990512D02*
X242704568Y-165990512D01*
X242704568Y-165990512D02*
X242590283Y-165952417D01*
X242590283Y-165952417D02*
X242552187Y-165914321D01*
X242552187Y-165914321D02*
X242552187Y-165647655D01*
X242552187Y-165647655D02*
X242704568Y-165647655D01*
X242209330Y-165990512D02*
X242209330Y-165190512D01*
X242209330Y-165190512D02*
X241904568Y-165190512D01*
X241904568Y-165190512D02*
X241828378Y-165228607D01*
X241828378Y-165228607D02*
X241790283Y-165266702D01*
X241790283Y-165266702D02*
X241752187Y-165342893D01*
X241752187Y-165342893D02*
X241752187Y-165457178D01*
X241752187Y-165457178D02*
X241790283Y-165533369D01*
X241790283Y-165533369D02*
X241828378Y-165571464D01*
X241828378Y-165571464D02*
X241904568Y-165609559D01*
X241904568Y-165609559D02*
X242209330Y-165609559D01*
X240990283Y-165990512D02*
X241447426Y-165990512D01*
X241218854Y-165990512D02*
X241218854Y-165190512D01*
X241218854Y-165190512D02*
X241295045Y-165304797D01*
X241295045Y-165304797D02*
X241371235Y-165380988D01*
X241371235Y-165380988D02*
X241447426Y-165419083D01*
X240723616Y-165190512D02*
X240190282Y-165190512D01*
X240190282Y-165190512D02*
X240533140Y-165990512D01*
X229060330Y-132223607D02*
X229136520Y-132185512D01*
X229136520Y-132185512D02*
X229250806Y-132185512D01*
X229250806Y-132185512D02*
X229365092Y-132223607D01*
X229365092Y-132223607D02*
X229441282Y-132299797D01*
X229441282Y-132299797D02*
X229479377Y-132375988D01*
X229479377Y-132375988D02*
X229517473Y-132528369D01*
X229517473Y-132528369D02*
X229517473Y-132642655D01*
X229517473Y-132642655D02*
X229479377Y-132795036D01*
X229479377Y-132795036D02*
X229441282Y-132871226D01*
X229441282Y-132871226D02*
X229365092Y-132947417D01*
X229365092Y-132947417D02*
X229250806Y-132985512D01*
X229250806Y-132985512D02*
X229174615Y-132985512D01*
X229174615Y-132985512D02*
X229060330Y-132947417D01*
X229060330Y-132947417D02*
X229022234Y-132909321D01*
X229022234Y-132909321D02*
X229022234Y-132642655D01*
X229022234Y-132642655D02*
X229174615Y-132642655D01*
X228679377Y-132985512D02*
X228679377Y-132185512D01*
X228679377Y-132185512D02*
X228374615Y-132185512D01*
X228374615Y-132185512D02*
X228298425Y-132223607D01*
X228298425Y-132223607D02*
X228260330Y-132261702D01*
X228260330Y-132261702D02*
X228222234Y-132337893D01*
X228222234Y-132337893D02*
X228222234Y-132452178D01*
X228222234Y-132452178D02*
X228260330Y-132528369D01*
X228260330Y-132528369D02*
X228298425Y-132566464D01*
X228298425Y-132566464D02*
X228374615Y-132604559D01*
X228374615Y-132604559D02*
X228679377Y-132604559D01*
X227536520Y-132452178D02*
X227536520Y-132985512D01*
X227726996Y-132147417D02*
X227917473Y-132718845D01*
X227917473Y-132718845D02*
X227422234Y-132718845D01*
X242856330Y-122117512D02*
X242589663Y-122917512D01*
X242589663Y-122917512D02*
X242322997Y-122117512D01*
X242094426Y-122879417D02*
X241980140Y-122917512D01*
X241980140Y-122917512D02*
X241789664Y-122917512D01*
X241789664Y-122917512D02*
X241713473Y-122879417D01*
X241713473Y-122879417D02*
X241675378Y-122841321D01*
X241675378Y-122841321D02*
X241637283Y-122765131D01*
X241637283Y-122765131D02*
X241637283Y-122688940D01*
X241637283Y-122688940D02*
X241675378Y-122612750D01*
X241675378Y-122612750D02*
X241713473Y-122574655D01*
X241713473Y-122574655D02*
X241789664Y-122536559D01*
X241789664Y-122536559D02*
X241942045Y-122498464D01*
X241942045Y-122498464D02*
X242018235Y-122460369D01*
X242018235Y-122460369D02*
X242056330Y-122422274D01*
X242056330Y-122422274D02*
X242094426Y-122346083D01*
X242094426Y-122346083D02*
X242094426Y-122269893D01*
X242094426Y-122269893D02*
X242056330Y-122193702D01*
X242056330Y-122193702D02*
X242018235Y-122155607D01*
X242018235Y-122155607D02*
X241942045Y-122117512D01*
X241942045Y-122117512D02*
X241751568Y-122117512D01*
X241751568Y-122117512D02*
X241637283Y-122155607D01*
X241142044Y-122536559D02*
X241142044Y-122917512D01*
X241408711Y-122117512D02*
X241142044Y-122536559D01*
X241142044Y-122536559D02*
X240875378Y-122117512D01*
X240646807Y-122879417D02*
X240532521Y-122917512D01*
X240532521Y-122917512D02*
X240342045Y-122917512D01*
X240342045Y-122917512D02*
X240265854Y-122879417D01*
X240265854Y-122879417D02*
X240227759Y-122841321D01*
X240227759Y-122841321D02*
X240189664Y-122765131D01*
X240189664Y-122765131D02*
X240189664Y-122688940D01*
X240189664Y-122688940D02*
X240227759Y-122612750D01*
X240227759Y-122612750D02*
X240265854Y-122574655D01*
X240265854Y-122574655D02*
X240342045Y-122536559D01*
X240342045Y-122536559D02*
X240494426Y-122498464D01*
X240494426Y-122498464D02*
X240570616Y-122460369D01*
X240570616Y-122460369D02*
X240608711Y-122422274D01*
X240608711Y-122422274D02*
X240646807Y-122346083D01*
X240646807Y-122346083D02*
X240646807Y-122269893D01*
X240646807Y-122269893D02*
X240608711Y-122193702D01*
X240608711Y-122193702D02*
X240570616Y-122155607D01*
X240570616Y-122155607D02*
X240494426Y-122117512D01*
X240494426Y-122117512D02*
X240303949Y-122117512D01*
X240303949Y-122117512D02*
X240189664Y-122155607D01*
X242441425Y-124668607D02*
X242517615Y-124630512D01*
X242517615Y-124630512D02*
X242631901Y-124630512D01*
X242631901Y-124630512D02*
X242746187Y-124668607D01*
X242746187Y-124668607D02*
X242822377Y-124744797D01*
X242822377Y-124744797D02*
X242860472Y-124820988D01*
X242860472Y-124820988D02*
X242898568Y-124973369D01*
X242898568Y-124973369D02*
X242898568Y-125087655D01*
X242898568Y-125087655D02*
X242860472Y-125240036D01*
X242860472Y-125240036D02*
X242822377Y-125316226D01*
X242822377Y-125316226D02*
X242746187Y-125392417D01*
X242746187Y-125392417D02*
X242631901Y-125430512D01*
X242631901Y-125430512D02*
X242555710Y-125430512D01*
X242555710Y-125430512D02*
X242441425Y-125392417D01*
X242441425Y-125392417D02*
X242403329Y-125354321D01*
X242403329Y-125354321D02*
X242403329Y-125087655D01*
X242403329Y-125087655D02*
X242555710Y-125087655D01*
X242060472Y-125430512D02*
X242060472Y-124630512D01*
X242060472Y-124630512D02*
X241603329Y-125430512D01*
X241603329Y-125430512D02*
X241603329Y-124630512D01*
X241222377Y-125430512D02*
X241222377Y-124630512D01*
X241222377Y-124630512D02*
X241031901Y-124630512D01*
X241031901Y-124630512D02*
X240917615Y-124668607D01*
X240917615Y-124668607D02*
X240841425Y-124744797D01*
X240841425Y-124744797D02*
X240803330Y-124820988D01*
X240803330Y-124820988D02*
X240765234Y-124973369D01*
X240765234Y-124973369D02*
X240765234Y-125087655D01*
X240765234Y-125087655D02*
X240803330Y-125240036D01*
X240803330Y-125240036D02*
X240841425Y-125316226D01*
X240841425Y-125316226D02*
X240917615Y-125392417D01*
X240917615Y-125392417D02*
X241031901Y-125430512D01*
X241031901Y-125430512D02*
X241222377Y-125430512D01*
X242626283Y-160172607D02*
X242702473Y-160134512D01*
X242702473Y-160134512D02*
X242816759Y-160134512D01*
X242816759Y-160134512D02*
X242931045Y-160172607D01*
X242931045Y-160172607D02*
X243007235Y-160248797D01*
X243007235Y-160248797D02*
X243045330Y-160324988D01*
X243045330Y-160324988D02*
X243083426Y-160477369D01*
X243083426Y-160477369D02*
X243083426Y-160591655D01*
X243083426Y-160591655D02*
X243045330Y-160744036D01*
X243045330Y-160744036D02*
X243007235Y-160820226D01*
X243007235Y-160820226D02*
X242931045Y-160896417D01*
X242931045Y-160896417D02*
X242816759Y-160934512D01*
X242816759Y-160934512D02*
X242740568Y-160934512D01*
X242740568Y-160934512D02*
X242626283Y-160896417D01*
X242626283Y-160896417D02*
X242588187Y-160858321D01*
X242588187Y-160858321D02*
X242588187Y-160591655D01*
X242588187Y-160591655D02*
X242740568Y-160591655D01*
X242245330Y-160934512D02*
X242245330Y-160134512D01*
X242245330Y-160134512D02*
X241940568Y-160134512D01*
X241940568Y-160134512D02*
X241864378Y-160172607D01*
X241864378Y-160172607D02*
X241826283Y-160210702D01*
X241826283Y-160210702D02*
X241788187Y-160286893D01*
X241788187Y-160286893D02*
X241788187Y-160401178D01*
X241788187Y-160401178D02*
X241826283Y-160477369D01*
X241826283Y-160477369D02*
X241864378Y-160515464D01*
X241864378Y-160515464D02*
X241940568Y-160553559D01*
X241940568Y-160553559D02*
X242245330Y-160553559D01*
X241026283Y-160934512D02*
X241483426Y-160934512D01*
X241254854Y-160934512D02*
X241254854Y-160134512D01*
X241254854Y-160134512D02*
X241331045Y-160248797D01*
X241331045Y-160248797D02*
X241407235Y-160324988D01*
X241407235Y-160324988D02*
X241483426Y-160363083D01*
X240569140Y-160477369D02*
X240645330Y-160439274D01*
X240645330Y-160439274D02*
X240683425Y-160401178D01*
X240683425Y-160401178D02*
X240721521Y-160324988D01*
X240721521Y-160324988D02*
X240721521Y-160286893D01*
X240721521Y-160286893D02*
X240683425Y-160210702D01*
X240683425Y-160210702D02*
X240645330Y-160172607D01*
X240645330Y-160172607D02*
X240569140Y-160134512D01*
X240569140Y-160134512D02*
X240416759Y-160134512D01*
X240416759Y-160134512D02*
X240340568Y-160172607D01*
X240340568Y-160172607D02*
X240302473Y-160210702D01*
X240302473Y-160210702D02*
X240264378Y-160286893D01*
X240264378Y-160286893D02*
X240264378Y-160324988D01*
X240264378Y-160324988D02*
X240302473Y-160401178D01*
X240302473Y-160401178D02*
X240340568Y-160439274D01*
X240340568Y-160439274D02*
X240416759Y-160477369D01*
X240416759Y-160477369D02*
X240569140Y-160477369D01*
X240569140Y-160477369D02*
X240645330Y-160515464D01*
X240645330Y-160515464D02*
X240683425Y-160553559D01*
X240683425Y-160553559D02*
X240721521Y-160629750D01*
X240721521Y-160629750D02*
X240721521Y-160782131D01*
X240721521Y-160782131D02*
X240683425Y-160858321D01*
X240683425Y-160858321D02*
X240645330Y-160896417D01*
X240645330Y-160896417D02*
X240569140Y-160934512D01*
X240569140Y-160934512D02*
X240416759Y-160934512D01*
X240416759Y-160934512D02*
X240340568Y-160896417D01*
X240340568Y-160896417D02*
X240302473Y-160858321D01*
X240302473Y-160858321D02*
X240264378Y-160782131D01*
X240264378Y-160782131D02*
X240264378Y-160629750D01*
X240264378Y-160629750D02*
X240302473Y-160553559D01*
X240302473Y-160553559D02*
X240340568Y-160515464D01*
X240340568Y-160515464D02*
X240416759Y-160477369D01*
X229060330Y-144912607D02*
X229136520Y-144874512D01*
X229136520Y-144874512D02*
X229250806Y-144874512D01*
X229250806Y-144874512D02*
X229365092Y-144912607D01*
X229365092Y-144912607D02*
X229441282Y-144988797D01*
X229441282Y-144988797D02*
X229479377Y-145064988D01*
X229479377Y-145064988D02*
X229517473Y-145217369D01*
X229517473Y-145217369D02*
X229517473Y-145331655D01*
X229517473Y-145331655D02*
X229479377Y-145484036D01*
X229479377Y-145484036D02*
X229441282Y-145560226D01*
X229441282Y-145560226D02*
X229365092Y-145636417D01*
X229365092Y-145636417D02*
X229250806Y-145674512D01*
X229250806Y-145674512D02*
X229174615Y-145674512D01*
X229174615Y-145674512D02*
X229060330Y-145636417D01*
X229060330Y-145636417D02*
X229022234Y-145598321D01*
X229022234Y-145598321D02*
X229022234Y-145331655D01*
X229022234Y-145331655D02*
X229174615Y-145331655D01*
X228679377Y-145674512D02*
X228679377Y-144874512D01*
X228679377Y-144874512D02*
X228374615Y-144874512D01*
X228374615Y-144874512D02*
X228298425Y-144912607D01*
X228298425Y-144912607D02*
X228260330Y-144950702D01*
X228260330Y-144950702D02*
X228222234Y-145026893D01*
X228222234Y-145026893D02*
X228222234Y-145141178D01*
X228222234Y-145141178D02*
X228260330Y-145217369D01*
X228260330Y-145217369D02*
X228298425Y-145255464D01*
X228298425Y-145255464D02*
X228374615Y-145293559D01*
X228374615Y-145293559D02*
X228679377Y-145293559D01*
X227765092Y-145217369D02*
X227841282Y-145179274D01*
X227841282Y-145179274D02*
X227879377Y-145141178D01*
X227879377Y-145141178D02*
X227917473Y-145064988D01*
X227917473Y-145064988D02*
X227917473Y-145026893D01*
X227917473Y-145026893D02*
X227879377Y-144950702D01*
X227879377Y-144950702D02*
X227841282Y-144912607D01*
X227841282Y-144912607D02*
X227765092Y-144874512D01*
X227765092Y-144874512D02*
X227612711Y-144874512D01*
X227612711Y-144874512D02*
X227536520Y-144912607D01*
X227536520Y-144912607D02*
X227498425Y-144950702D01*
X227498425Y-144950702D02*
X227460330Y-145026893D01*
X227460330Y-145026893D02*
X227460330Y-145064988D01*
X227460330Y-145064988D02*
X227498425Y-145141178D01*
X227498425Y-145141178D02*
X227536520Y-145179274D01*
X227536520Y-145179274D02*
X227612711Y-145217369D01*
X227612711Y-145217369D02*
X227765092Y-145217369D01*
X227765092Y-145217369D02*
X227841282Y-145255464D01*
X227841282Y-145255464D02*
X227879377Y-145293559D01*
X227879377Y-145293559D02*
X227917473Y-145369750D01*
X227917473Y-145369750D02*
X227917473Y-145522131D01*
X227917473Y-145522131D02*
X227879377Y-145598321D01*
X227879377Y-145598321D02*
X227841282Y-145636417D01*
X227841282Y-145636417D02*
X227765092Y-145674512D01*
X227765092Y-145674512D02*
X227612711Y-145674512D01*
X227612711Y-145674512D02*
X227536520Y-145636417D01*
X227536520Y-145636417D02*
X227498425Y-145598321D01*
X227498425Y-145598321D02*
X227460330Y-145522131D01*
X227460330Y-145522131D02*
X227460330Y-145369750D01*
X227460330Y-145369750D02*
X227498425Y-145293559D01*
X227498425Y-145293559D02*
X227536520Y-145255464D01*
X227536520Y-145255464D02*
X227612711Y-145217369D01*
X229891283Y-157562607D02*
X229967473Y-157524512D01*
X229967473Y-157524512D02*
X230081759Y-157524512D01*
X230081759Y-157524512D02*
X230196045Y-157562607D01*
X230196045Y-157562607D02*
X230272235Y-157638797D01*
X230272235Y-157638797D02*
X230310330Y-157714988D01*
X230310330Y-157714988D02*
X230348426Y-157867369D01*
X230348426Y-157867369D02*
X230348426Y-157981655D01*
X230348426Y-157981655D02*
X230310330Y-158134036D01*
X230310330Y-158134036D02*
X230272235Y-158210226D01*
X230272235Y-158210226D02*
X230196045Y-158286417D01*
X230196045Y-158286417D02*
X230081759Y-158324512D01*
X230081759Y-158324512D02*
X230005568Y-158324512D01*
X230005568Y-158324512D02*
X229891283Y-158286417D01*
X229891283Y-158286417D02*
X229853187Y-158248321D01*
X229853187Y-158248321D02*
X229853187Y-157981655D01*
X229853187Y-157981655D02*
X230005568Y-157981655D01*
X229510330Y-158324512D02*
X229510330Y-157524512D01*
X229510330Y-157524512D02*
X229205568Y-157524512D01*
X229205568Y-157524512D02*
X229129378Y-157562607D01*
X229129378Y-157562607D02*
X229091283Y-157600702D01*
X229091283Y-157600702D02*
X229053187Y-157676893D01*
X229053187Y-157676893D02*
X229053187Y-157791178D01*
X229053187Y-157791178D02*
X229091283Y-157867369D01*
X229091283Y-157867369D02*
X229129378Y-157905464D01*
X229129378Y-157905464D02*
X229205568Y-157943559D01*
X229205568Y-157943559D02*
X229510330Y-157943559D01*
X228291283Y-158324512D02*
X228748426Y-158324512D01*
X228519854Y-158324512D02*
X228519854Y-157524512D01*
X228519854Y-157524512D02*
X228596045Y-157638797D01*
X228596045Y-157638797D02*
X228672235Y-157714988D01*
X228672235Y-157714988D02*
X228748426Y-157753083D01*
X227986521Y-157600702D02*
X227948425Y-157562607D01*
X227948425Y-157562607D02*
X227872235Y-157524512D01*
X227872235Y-157524512D02*
X227681759Y-157524512D01*
X227681759Y-157524512D02*
X227605568Y-157562607D01*
X227605568Y-157562607D02*
X227567473Y-157600702D01*
X227567473Y-157600702D02*
X227529378Y-157676893D01*
X227529378Y-157676893D02*
X227529378Y-157753083D01*
X227529378Y-157753083D02*
X227567473Y-157867369D01*
X227567473Y-157867369D02*
X228024616Y-158324512D01*
X228024616Y-158324512D02*
X227529378Y-158324512D01*
X242868092Y-127143512D02*
X242372854Y-127143512D01*
X242372854Y-127143512D02*
X242639520Y-127448274D01*
X242639520Y-127448274D02*
X242525235Y-127448274D01*
X242525235Y-127448274D02*
X242449044Y-127486369D01*
X242449044Y-127486369D02*
X242410949Y-127524464D01*
X242410949Y-127524464D02*
X242372854Y-127600655D01*
X242372854Y-127600655D02*
X242372854Y-127791131D01*
X242372854Y-127791131D02*
X242410949Y-127867321D01*
X242410949Y-127867321D02*
X242449044Y-127905417D01*
X242449044Y-127905417D02*
X242525235Y-127943512D01*
X242525235Y-127943512D02*
X242753806Y-127943512D01*
X242753806Y-127943512D02*
X242829997Y-127905417D01*
X242829997Y-127905417D02*
X242868092Y-127867321D01*
X242144282Y-127143512D02*
X241877615Y-127943512D01*
X241877615Y-127943512D02*
X241610949Y-127143512D01*
X241420473Y-127143512D02*
X240925235Y-127143512D01*
X240925235Y-127143512D02*
X241191901Y-127448274D01*
X241191901Y-127448274D02*
X241077616Y-127448274D01*
X241077616Y-127448274D02*
X241001425Y-127486369D01*
X241001425Y-127486369D02*
X240963330Y-127524464D01*
X240963330Y-127524464D02*
X240925235Y-127600655D01*
X240925235Y-127600655D02*
X240925235Y-127791131D01*
X240925235Y-127791131D02*
X240963330Y-127867321D01*
X240963330Y-127867321D02*
X241001425Y-127905417D01*
X241001425Y-127905417D02*
X241077616Y-127943512D01*
X241077616Y-127943512D02*
X241306187Y-127943512D01*
X241306187Y-127943512D02*
X241382378Y-127905417D01*
X241382378Y-127905417D02*
X241420473Y-127867321D01*
X240772854Y-128019702D02*
X240163330Y-128019702D01*
X239972853Y-127524464D02*
X239706187Y-127524464D01*
X239591901Y-127943512D02*
X239972853Y-127943512D01*
X239972853Y-127943512D02*
X239972853Y-127143512D01*
X239972853Y-127143512D02*
X239591901Y-127143512D01*
X239249043Y-127943512D02*
X239249043Y-127143512D01*
X239249043Y-127143512D02*
X238791900Y-127943512D01*
X238791900Y-127943512D02*
X238791900Y-127143512D01*
X220382723Y-146342122D02*
X219382723Y-146342122D01*
X219382723Y-146342122D02*
X219382723Y-146580217D01*
X219382723Y-146580217D02*
X219430342Y-146723074D01*
X219430342Y-146723074D02*
X219525580Y-146818312D01*
X219525580Y-146818312D02*
X219620818Y-146865931D01*
X219620818Y-146865931D02*
X219811294Y-146913550D01*
X219811294Y-146913550D02*
X219954151Y-146913550D01*
X219954151Y-146913550D02*
X220144627Y-146865931D01*
X220144627Y-146865931D02*
X220239865Y-146818312D01*
X220239865Y-146818312D02*
X220335104Y-146723074D01*
X220335104Y-146723074D02*
X220382723Y-146580217D01*
X220382723Y-146580217D02*
X220382723Y-146342122D01*
X219382723Y-147532598D02*
X219382723Y-147627836D01*
X219382723Y-147627836D02*
X219430342Y-147723074D01*
X219430342Y-147723074D02*
X219477961Y-147770693D01*
X219477961Y-147770693D02*
X219573199Y-147818312D01*
X219573199Y-147818312D02*
X219763675Y-147865931D01*
X219763675Y-147865931D02*
X220001770Y-147865931D01*
X220001770Y-147865931D02*
X220192246Y-147818312D01*
X220192246Y-147818312D02*
X220287484Y-147770693D01*
X220287484Y-147770693D02*
X220335104Y-147723074D01*
X220335104Y-147723074D02*
X220382723Y-147627836D01*
X220382723Y-147627836D02*
X220382723Y-147532598D01*
X220382723Y-147532598D02*
X220335104Y-147437360D01*
X220335104Y-147437360D02*
X220287484Y-147389741D01*
X220287484Y-147389741D02*
X220192246Y-147342122D01*
X220192246Y-147342122D02*
X220001770Y-147294503D01*
X220001770Y-147294503D02*
X219763675Y-147294503D01*
X219763675Y-147294503D02*
X219573199Y-147342122D01*
X219573199Y-147342122D02*
X219477961Y-147389741D01*
X219477961Y-147389741D02*
X219430342Y-147437360D01*
X219430342Y-147437360D02*
X219382723Y-147532598D01*
X182282723Y-146342122D02*
X181282723Y-146342122D01*
X181282723Y-146342122D02*
X181282723Y-146580217D01*
X181282723Y-146580217D02*
X181330342Y-146723074D01*
X181330342Y-146723074D02*
X181425580Y-146818312D01*
X181425580Y-146818312D02*
X181520818Y-146865931D01*
X181520818Y-146865931D02*
X181711294Y-146913550D01*
X181711294Y-146913550D02*
X181854151Y-146913550D01*
X181854151Y-146913550D02*
X182044627Y-146865931D01*
X182044627Y-146865931D02*
X182139865Y-146818312D01*
X182139865Y-146818312D02*
X182235104Y-146723074D01*
X182235104Y-146723074D02*
X182282723Y-146580217D01*
X182282723Y-146580217D02*
X182282723Y-146342122D01*
X181282723Y-147532598D02*
X181282723Y-147627836D01*
X181282723Y-147627836D02*
X181330342Y-147723074D01*
X181330342Y-147723074D02*
X181377961Y-147770693D01*
X181377961Y-147770693D02*
X181473199Y-147818312D01*
X181473199Y-147818312D02*
X181663675Y-147865931D01*
X181663675Y-147865931D02*
X181901770Y-147865931D01*
X181901770Y-147865931D02*
X182092246Y-147818312D01*
X182092246Y-147818312D02*
X182187484Y-147770693D01*
X182187484Y-147770693D02*
X182235104Y-147723074D01*
X182235104Y-147723074D02*
X182282723Y-147627836D01*
X182282723Y-147627836D02*
X182282723Y-147532598D01*
X182282723Y-147532598D02*
X182235104Y-147437360D01*
X182235104Y-147437360D02*
X182187484Y-147389741D01*
X182187484Y-147389741D02*
X182092246Y-147342122D01*
X182092246Y-147342122D02*
X181901770Y-147294503D01*
X181901770Y-147294503D02*
X181663675Y-147294503D01*
X181663675Y-147294503D02*
X181473199Y-147342122D01*
X181473199Y-147342122D02*
X181377961Y-147389741D01*
X181377961Y-147389741D02*
X181330342Y-147437360D01*
X181330342Y-147437360D02*
X181282723Y-147532598D01*
X163232723Y-165392122D02*
X162232723Y-165392122D01*
X162232723Y-165392122D02*
X162232723Y-165630217D01*
X162232723Y-165630217D02*
X162280342Y-165773074D01*
X162280342Y-165773074D02*
X162375580Y-165868312D01*
X162375580Y-165868312D02*
X162470818Y-165915931D01*
X162470818Y-165915931D02*
X162661294Y-165963550D01*
X162661294Y-165963550D02*
X162804151Y-165963550D01*
X162804151Y-165963550D02*
X162994627Y-165915931D01*
X162994627Y-165915931D02*
X163089865Y-165868312D01*
X163089865Y-165868312D02*
X163185104Y-165773074D01*
X163185104Y-165773074D02*
X163232723Y-165630217D01*
X163232723Y-165630217D02*
X163232723Y-165392122D01*
X162232723Y-166582598D02*
X162232723Y-166677836D01*
X162232723Y-166677836D02*
X162280342Y-166773074D01*
X162280342Y-166773074D02*
X162327961Y-166820693D01*
X162327961Y-166820693D02*
X162423199Y-166868312D01*
X162423199Y-166868312D02*
X162613675Y-166915931D01*
X162613675Y-166915931D02*
X162851770Y-166915931D01*
X162851770Y-166915931D02*
X163042246Y-166868312D01*
X163042246Y-166868312D02*
X163137484Y-166820693D01*
X163137484Y-166820693D02*
X163185104Y-166773074D01*
X163185104Y-166773074D02*
X163232723Y-166677836D01*
X163232723Y-166677836D02*
X163232723Y-166582598D01*
X163232723Y-166582598D02*
X163185104Y-166487360D01*
X163185104Y-166487360D02*
X163137484Y-166439741D01*
X163137484Y-166439741D02*
X163042246Y-166392122D01*
X163042246Y-166392122D02*
X162851770Y-166344503D01*
X162851770Y-166344503D02*
X162613675Y-166344503D01*
X162613675Y-166344503D02*
X162423199Y-166392122D01*
X162423199Y-166392122D02*
X162327961Y-166439741D01*
X162327961Y-166439741D02*
X162280342Y-166487360D01*
X162280342Y-166487360D02*
X162232723Y-166582598D01*
X201332723Y-127292122D02*
X200332723Y-127292122D01*
X200332723Y-127292122D02*
X200332723Y-127530217D01*
X200332723Y-127530217D02*
X200380342Y-127673074D01*
X200380342Y-127673074D02*
X200475580Y-127768312D01*
X200475580Y-127768312D02*
X200570818Y-127815931D01*
X200570818Y-127815931D02*
X200761294Y-127863550D01*
X200761294Y-127863550D02*
X200904151Y-127863550D01*
X200904151Y-127863550D02*
X201094627Y-127815931D01*
X201094627Y-127815931D02*
X201189865Y-127768312D01*
X201189865Y-127768312D02*
X201285104Y-127673074D01*
X201285104Y-127673074D02*
X201332723Y-127530217D01*
X201332723Y-127530217D02*
X201332723Y-127292122D01*
X200332723Y-128482598D02*
X200332723Y-128577836D01*
X200332723Y-128577836D02*
X200380342Y-128673074D01*
X200380342Y-128673074D02*
X200427961Y-128720693D01*
X200427961Y-128720693D02*
X200523199Y-128768312D01*
X200523199Y-128768312D02*
X200713675Y-128815931D01*
X200713675Y-128815931D02*
X200951770Y-128815931D01*
X200951770Y-128815931D02*
X201142246Y-128768312D01*
X201142246Y-128768312D02*
X201237484Y-128720693D01*
X201237484Y-128720693D02*
X201285104Y-128673074D01*
X201285104Y-128673074D02*
X201332723Y-128577836D01*
X201332723Y-128577836D02*
X201332723Y-128482598D01*
X201332723Y-128482598D02*
X201285104Y-128387360D01*
X201285104Y-128387360D02*
X201237484Y-128339741D01*
X201237484Y-128339741D02*
X201142246Y-128292122D01*
X201142246Y-128292122D02*
X200951770Y-128244503D01*
X200951770Y-128244503D02*
X200713675Y-128244503D01*
X200713675Y-128244503D02*
X200523199Y-128292122D01*
X200523199Y-128292122D02*
X200427961Y-128339741D01*
X200427961Y-128339741D02*
X200380342Y-128387360D01*
X200380342Y-128387360D02*
X200332723Y-128482598D01*
X163232723Y-127292122D02*
X162232723Y-127292122D01*
X162232723Y-127292122D02*
X162232723Y-127530217D01*
X162232723Y-127530217D02*
X162280342Y-127673074D01*
X162280342Y-127673074D02*
X162375580Y-127768312D01*
X162375580Y-127768312D02*
X162470818Y-127815931D01*
X162470818Y-127815931D02*
X162661294Y-127863550D01*
X162661294Y-127863550D02*
X162804151Y-127863550D01*
X162804151Y-127863550D02*
X162994627Y-127815931D01*
X162994627Y-127815931D02*
X163089865Y-127768312D01*
X163089865Y-127768312D02*
X163185104Y-127673074D01*
X163185104Y-127673074D02*
X163232723Y-127530217D01*
X163232723Y-127530217D02*
X163232723Y-127292122D01*
X162232723Y-128482598D02*
X162232723Y-128577836D01*
X162232723Y-128577836D02*
X162280342Y-128673074D01*
X162280342Y-128673074D02*
X162327961Y-128720693D01*
X162327961Y-128720693D02*
X162423199Y-128768312D01*
X162423199Y-128768312D02*
X162613675Y-128815931D01*
X162613675Y-128815931D02*
X162851770Y-128815931D01*
X162851770Y-128815931D02*
X163042246Y-128768312D01*
X163042246Y-128768312D02*
X163137484Y-128720693D01*
X163137484Y-128720693D02*
X163185104Y-128673074D01*
X163185104Y-128673074D02*
X163232723Y-128577836D01*
X163232723Y-128577836D02*
X163232723Y-128482598D01*
X163232723Y-128482598D02*
X163185104Y-128387360D01*
X163185104Y-128387360D02*
X163137484Y-128339741D01*
X163137484Y-128339741D02*
X163042246Y-128292122D01*
X163042246Y-128292122D02*
X162851770Y-128244503D01*
X162851770Y-128244503D02*
X162613675Y-128244503D01*
X162613675Y-128244503D02*
X162423199Y-128292122D01*
X162423199Y-128292122D02*
X162327961Y-128339741D01*
X162327961Y-128339741D02*
X162280342Y-128387360D01*
X162280342Y-128387360D02*
X162232723Y-128482598D01*
X201332723Y-165392122D02*
X200332723Y-165392122D01*
X200332723Y-165392122D02*
X200332723Y-165630217D01*
X200332723Y-165630217D02*
X200380342Y-165773074D01*
X200380342Y-165773074D02*
X200475580Y-165868312D01*
X200475580Y-165868312D02*
X200570818Y-165915931D01*
X200570818Y-165915931D02*
X200761294Y-165963550D01*
X200761294Y-165963550D02*
X200904151Y-165963550D01*
X200904151Y-165963550D02*
X201094627Y-165915931D01*
X201094627Y-165915931D02*
X201189865Y-165868312D01*
X201189865Y-165868312D02*
X201285104Y-165773074D01*
X201285104Y-165773074D02*
X201332723Y-165630217D01*
X201332723Y-165630217D02*
X201332723Y-165392122D01*
X200332723Y-166582598D02*
X200332723Y-166677836D01*
X200332723Y-166677836D02*
X200380342Y-166773074D01*
X200380342Y-166773074D02*
X200427961Y-166820693D01*
X200427961Y-166820693D02*
X200523199Y-166868312D01*
X200523199Y-166868312D02*
X200713675Y-166915931D01*
X200713675Y-166915931D02*
X200951770Y-166915931D01*
X200951770Y-166915931D02*
X201142246Y-166868312D01*
X201142246Y-166868312D02*
X201237484Y-166820693D01*
X201237484Y-166820693D02*
X201285104Y-166773074D01*
X201285104Y-166773074D02*
X201332723Y-166677836D01*
X201332723Y-166677836D02*
X201332723Y-166582598D01*
X201332723Y-166582598D02*
X201285104Y-166487360D01*
X201285104Y-166487360D02*
X201237484Y-166439741D01*
X201237484Y-166439741D02*
X201142246Y-166392122D01*
X201142246Y-166392122D02*
X200951770Y-166344503D01*
X200951770Y-166344503D02*
X200713675Y-166344503D01*
X200713675Y-166344503D02*
X200523199Y-166392122D01*
X200523199Y-166392122D02*
X200427961Y-166439741D01*
X200427961Y-166439741D02*
X200380342Y-166487360D01*
X200380342Y-166487360D02*
X200332723Y-166582598D01*
X182282723Y-165392122D02*
X181282723Y-165392122D01*
X181282723Y-165392122D02*
X181282723Y-165630217D01*
X181282723Y-165630217D02*
X181330342Y-165773074D01*
X181330342Y-165773074D02*
X181425580Y-165868312D01*
X181425580Y-165868312D02*
X181520818Y-165915931D01*
X181520818Y-165915931D02*
X181711294Y-165963550D01*
X181711294Y-165963550D02*
X181854151Y-165963550D01*
X181854151Y-165963550D02*
X182044627Y-165915931D01*
X182044627Y-165915931D02*
X182139865Y-165868312D01*
X182139865Y-165868312D02*
X182235104Y-165773074D01*
X182235104Y-165773074D02*
X182282723Y-165630217D01*
X182282723Y-165630217D02*
X182282723Y-165392122D01*
X181282723Y-166582598D02*
X181282723Y-166677836D01*
X181282723Y-166677836D02*
X181330342Y-166773074D01*
X181330342Y-166773074D02*
X181377961Y-166820693D01*
X181377961Y-166820693D02*
X181473199Y-166868312D01*
X181473199Y-166868312D02*
X181663675Y-166915931D01*
X181663675Y-166915931D02*
X181901770Y-166915931D01*
X181901770Y-166915931D02*
X182092246Y-166868312D01*
X182092246Y-166868312D02*
X182187484Y-166820693D01*
X182187484Y-166820693D02*
X182235104Y-166773074D01*
X182235104Y-166773074D02*
X182282723Y-166677836D01*
X182282723Y-166677836D02*
X182282723Y-166582598D01*
X182282723Y-166582598D02*
X182235104Y-166487360D01*
X182235104Y-166487360D02*
X182187484Y-166439741D01*
X182187484Y-166439741D02*
X182092246Y-166392122D01*
X182092246Y-166392122D02*
X181901770Y-166344503D01*
X181901770Y-166344503D02*
X181663675Y-166344503D01*
X181663675Y-166344503D02*
X181473199Y-166392122D01*
X181473199Y-166392122D02*
X181377961Y-166439741D01*
X181377961Y-166439741D02*
X181330342Y-166487360D01*
X181330342Y-166487360D02*
X181282723Y-166582598D01*
X163232723Y-146342122D02*
X162232723Y-146342122D01*
X162232723Y-146342122D02*
X162232723Y-146580217D01*
X162232723Y-146580217D02*
X162280342Y-146723074D01*
X162280342Y-146723074D02*
X162375580Y-146818312D01*
X162375580Y-146818312D02*
X162470818Y-146865931D01*
X162470818Y-146865931D02*
X162661294Y-146913550D01*
X162661294Y-146913550D02*
X162804151Y-146913550D01*
X162804151Y-146913550D02*
X162994627Y-146865931D01*
X162994627Y-146865931D02*
X163089865Y-146818312D01*
X163089865Y-146818312D02*
X163185104Y-146723074D01*
X163185104Y-146723074D02*
X163232723Y-146580217D01*
X163232723Y-146580217D02*
X163232723Y-146342122D01*
X162232723Y-147532598D02*
X162232723Y-147627836D01*
X162232723Y-147627836D02*
X162280342Y-147723074D01*
X162280342Y-147723074D02*
X162327961Y-147770693D01*
X162327961Y-147770693D02*
X162423199Y-147818312D01*
X162423199Y-147818312D02*
X162613675Y-147865931D01*
X162613675Y-147865931D02*
X162851770Y-147865931D01*
X162851770Y-147865931D02*
X163042246Y-147818312D01*
X163042246Y-147818312D02*
X163137484Y-147770693D01*
X163137484Y-147770693D02*
X163185104Y-147723074D01*
X163185104Y-147723074D02*
X163232723Y-147627836D01*
X163232723Y-147627836D02*
X163232723Y-147532598D01*
X163232723Y-147532598D02*
X163185104Y-147437360D01*
X163185104Y-147437360D02*
X163137484Y-147389741D01*
X163137484Y-147389741D02*
X163042246Y-147342122D01*
X163042246Y-147342122D02*
X162851770Y-147294503D01*
X162851770Y-147294503D02*
X162613675Y-147294503D01*
X162613675Y-147294503D02*
X162423199Y-147342122D01*
X162423199Y-147342122D02*
X162327961Y-147389741D01*
X162327961Y-147389741D02*
X162280342Y-147437360D01*
X162280342Y-147437360D02*
X162232723Y-147532598D01*
X182282723Y-127292122D02*
X181282723Y-127292122D01*
X181282723Y-127292122D02*
X181282723Y-127530217D01*
X181282723Y-127530217D02*
X181330342Y-127673074D01*
X181330342Y-127673074D02*
X181425580Y-127768312D01*
X181425580Y-127768312D02*
X181520818Y-127815931D01*
X181520818Y-127815931D02*
X181711294Y-127863550D01*
X181711294Y-127863550D02*
X181854151Y-127863550D01*
X181854151Y-127863550D02*
X182044627Y-127815931D01*
X182044627Y-127815931D02*
X182139865Y-127768312D01*
X182139865Y-127768312D02*
X182235104Y-127673074D01*
X182235104Y-127673074D02*
X182282723Y-127530217D01*
X182282723Y-127530217D02*
X182282723Y-127292122D01*
X181282723Y-128482598D02*
X181282723Y-128577836D01*
X181282723Y-128577836D02*
X181330342Y-128673074D01*
X181330342Y-128673074D02*
X181377961Y-128720693D01*
X181377961Y-128720693D02*
X181473199Y-128768312D01*
X181473199Y-128768312D02*
X181663675Y-128815931D01*
X181663675Y-128815931D02*
X181901770Y-128815931D01*
X181901770Y-128815931D02*
X182092246Y-128768312D01*
X182092246Y-128768312D02*
X182187484Y-128720693D01*
X182187484Y-128720693D02*
X182235104Y-128673074D01*
X182235104Y-128673074D02*
X182282723Y-128577836D01*
X182282723Y-128577836D02*
X182282723Y-128482598D01*
X182282723Y-128482598D02*
X182235104Y-128387360D01*
X182235104Y-128387360D02*
X182187484Y-128339741D01*
X182187484Y-128339741D02*
X182092246Y-128292122D01*
X182092246Y-128292122D02*
X181901770Y-128244503D01*
X181901770Y-128244503D02*
X181663675Y-128244503D01*
X181663675Y-128244503D02*
X181473199Y-128292122D01*
X181473199Y-128292122D02*
X181377961Y-128339741D01*
X181377961Y-128339741D02*
X181330342Y-128387360D01*
X181330342Y-128387360D02*
X181282723Y-128482598D01*
X220382724Y-165392124D02*
X219382724Y-165392124D01*
X219382724Y-165392124D02*
X219382724Y-165630219D01*
X219382724Y-165630219D02*
X219430343Y-165773076D01*
X219430343Y-165773076D02*
X219525581Y-165868314D01*
X219525581Y-165868314D02*
X219620819Y-165915933D01*
X219620819Y-165915933D02*
X219811295Y-165963552D01*
X219811295Y-165963552D02*
X219954152Y-165963552D01*
X219954152Y-165963552D02*
X220144628Y-165915933D01*
X220144628Y-165915933D02*
X220239866Y-165868314D01*
X220239866Y-165868314D02*
X220335105Y-165773076D01*
X220335105Y-165773076D02*
X220382724Y-165630219D01*
X220382724Y-165630219D02*
X220382724Y-165392124D01*
X219382724Y-166582600D02*
X219382724Y-166677838D01*
X219382724Y-166677838D02*
X219430343Y-166773076D01*
X219430343Y-166773076D02*
X219477962Y-166820695D01*
X219477962Y-166820695D02*
X219573200Y-166868314D01*
X219573200Y-166868314D02*
X219763676Y-166915933D01*
X219763676Y-166915933D02*
X220001771Y-166915933D01*
X220001771Y-166915933D02*
X220192247Y-166868314D01*
X220192247Y-166868314D02*
X220287485Y-166820695D01*
X220287485Y-166820695D02*
X220335105Y-166773076D01*
X220335105Y-166773076D02*
X220382724Y-166677838D01*
X220382724Y-166677838D02*
X220382724Y-166582600D01*
X220382724Y-166582600D02*
X220335105Y-166487362D01*
X220335105Y-166487362D02*
X220287485Y-166439743D01*
X220287485Y-166439743D02*
X220192247Y-166392124D01*
X220192247Y-166392124D02*
X220001771Y-166344505D01*
X220001771Y-166344505D02*
X219763676Y-166344505D01*
X219763676Y-166344505D02*
X219573200Y-166392124D01*
X219573200Y-166392124D02*
X219477962Y-166439743D01*
X219477962Y-166439743D02*
X219430343Y-166487362D01*
X219430343Y-166487362D02*
X219382724Y-166582600D01*
X201332723Y-146342122D02*
X200332723Y-146342122D01*
X200332723Y-146342122D02*
X200332723Y-146580217D01*
X200332723Y-146580217D02*
X200380342Y-146723074D01*
X200380342Y-146723074D02*
X200475580Y-146818312D01*
X200475580Y-146818312D02*
X200570818Y-146865931D01*
X200570818Y-146865931D02*
X200761294Y-146913550D01*
X200761294Y-146913550D02*
X200904151Y-146913550D01*
X200904151Y-146913550D02*
X201094627Y-146865931D01*
X201094627Y-146865931D02*
X201189865Y-146818312D01*
X201189865Y-146818312D02*
X201285104Y-146723074D01*
X201285104Y-146723074D02*
X201332723Y-146580217D01*
X201332723Y-146580217D02*
X201332723Y-146342122D01*
X200332723Y-147532598D02*
X200332723Y-147627836D01*
X200332723Y-147627836D02*
X200380342Y-147723074D01*
X200380342Y-147723074D02*
X200427961Y-147770693D01*
X200427961Y-147770693D02*
X200523199Y-147818312D01*
X200523199Y-147818312D02*
X200713675Y-147865931D01*
X200713675Y-147865931D02*
X200951770Y-147865931D01*
X200951770Y-147865931D02*
X201142246Y-147818312D01*
X201142246Y-147818312D02*
X201237484Y-147770693D01*
X201237484Y-147770693D02*
X201285104Y-147723074D01*
X201285104Y-147723074D02*
X201332723Y-147627836D01*
X201332723Y-147627836D02*
X201332723Y-147532598D01*
X201332723Y-147532598D02*
X201285104Y-147437360D01*
X201285104Y-147437360D02*
X201237484Y-147389741D01*
X201237484Y-147389741D02*
X201142246Y-147342122D01*
X201142246Y-147342122D02*
X200951770Y-147294503D01*
X200951770Y-147294503D02*
X200713675Y-147294503D01*
X200713675Y-147294503D02*
X200523199Y-147342122D01*
X200523199Y-147342122D02*
X200427961Y-147389741D01*
X200427961Y-147389741D02*
X200380342Y-147437360D01*
X200380342Y-147437360D02*
X200332723Y-147532598D01*
X220382723Y-127292122D02*
X219382723Y-127292122D01*
X219382723Y-127292122D02*
X219382723Y-127530217D01*
X219382723Y-127530217D02*
X219430342Y-127673074D01*
X219430342Y-127673074D02*
X219525580Y-127768312D01*
X219525580Y-127768312D02*
X219620818Y-127815931D01*
X219620818Y-127815931D02*
X219811294Y-127863550D01*
X219811294Y-127863550D02*
X219954151Y-127863550D01*
X219954151Y-127863550D02*
X220144627Y-127815931D01*
X220144627Y-127815931D02*
X220239865Y-127768312D01*
X220239865Y-127768312D02*
X220335104Y-127673074D01*
X220335104Y-127673074D02*
X220382723Y-127530217D01*
X220382723Y-127530217D02*
X220382723Y-127292122D01*
X219382723Y-128482598D02*
X219382723Y-128577836D01*
X219382723Y-128577836D02*
X219430342Y-128673074D01*
X219430342Y-128673074D02*
X219477961Y-128720693D01*
X219477961Y-128720693D02*
X219573199Y-128768312D01*
X219573199Y-128768312D02*
X219763675Y-128815931D01*
X219763675Y-128815931D02*
X220001770Y-128815931D01*
X220001770Y-128815931D02*
X220192246Y-128768312D01*
X220192246Y-128768312D02*
X220287484Y-128720693D01*
X220287484Y-128720693D02*
X220335104Y-128673074D01*
X220335104Y-128673074D02*
X220382723Y-128577836D01*
X220382723Y-128577836D02*
X220382723Y-128482598D01*
X220382723Y-128482598D02*
X220335104Y-128387360D01*
X220335104Y-128387360D02*
X220287484Y-128339741D01*
X220287484Y-128339741D02*
X220192246Y-128292122D01*
X220192246Y-128292122D02*
X220001770Y-128244503D01*
X220001770Y-128244503D02*
X219763675Y-128244503D01*
X219763675Y-128244503D02*
X219573199Y-128292122D01*
X219573199Y-128292122D02*
X219477961Y-128339741D01*
X219477961Y-128339741D02*
X219430342Y-128387360D01*
X219430342Y-128387360D02*
X219382723Y-128482598D01*
D11*
X172034561Y-169277919D02*
X171134557Y-170177914D01*
X171134559Y-169277915D01*
X172034561Y-169277919D01*
G36*
X172034561Y-169277919D02*
G01*
X171134557Y-170177914D01*
X171134559Y-169277915D01*
X172034561Y-169277919D01*
G37*
X191084561Y-150227919D02*
X190184557Y-151127914D01*
X190184559Y-150227915D01*
X191084561Y-150227919D01*
G36*
X191084561Y-150227919D02*
G01*
X190184557Y-151127914D01*
X190184559Y-150227915D01*
X191084561Y-150227919D01*
G37*
X152984561Y-150227919D02*
X152084557Y-151127914D01*
X152084559Y-150227915D01*
X152984561Y-150227919D01*
G36*
X152984561Y-150227919D02*
G01*
X152084557Y-151127914D01*
X152084559Y-150227915D01*
X152984561Y-150227919D01*
G37*
X152984561Y-131177919D02*
X152084557Y-132077914D01*
X152084559Y-131177915D01*
X152984561Y-131177919D01*
G36*
X152984561Y-131177919D02*
G01*
X152084557Y-132077914D01*
X152084559Y-131177915D01*
X152984561Y-131177919D01*
G37*
X172034561Y-131177919D02*
X171134557Y-132077914D01*
X171134559Y-131177915D01*
X172034561Y-131177919D01*
G36*
X172034561Y-131177919D02*
G01*
X171134557Y-132077914D01*
X171134559Y-131177915D01*
X172034561Y-131177919D01*
G37*
X210134561Y-169277919D02*
X209234557Y-170177914D01*
X209234559Y-169277915D01*
X210134561Y-169277919D01*
G36*
X210134561Y-169277919D02*
G01*
X209234557Y-170177914D01*
X209234559Y-169277915D01*
X210134561Y-169277919D01*
G37*
X210134561Y-150227919D02*
X209234557Y-151127914D01*
X209234559Y-150227915D01*
X210134561Y-150227919D01*
G36*
X210134561Y-150227919D02*
G01*
X209234557Y-151127914D01*
X209234559Y-150227915D01*
X210134561Y-150227919D01*
G37*
X152984561Y-169277919D02*
X152084557Y-170177914D01*
X152084559Y-169277915D01*
X152984561Y-169277919D01*
G36*
X152984561Y-169277919D02*
G01*
X152084557Y-170177914D01*
X152084559Y-169277915D01*
X152984561Y-169277919D01*
G37*
X191084561Y-169277919D02*
X190184557Y-170177914D01*
X190184559Y-169277915D01*
X191084561Y-169277919D01*
G36*
X191084561Y-169277919D02*
G01*
X190184557Y-170177914D01*
X190184559Y-169277915D01*
X191084561Y-169277919D01*
G37*
X210134561Y-131177919D02*
X209234557Y-132077914D01*
X209234559Y-131177915D01*
X210134561Y-131177919D01*
G36*
X210134561Y-131177919D02*
G01*
X209234557Y-132077914D01*
X209234559Y-131177915D01*
X210134561Y-131177919D01*
G37*
X172034561Y-150227919D02*
X171134557Y-151127914D01*
X171134559Y-150227915D01*
X172034561Y-150227919D01*
G36*
X172034561Y-150227919D02*
G01*
X171134557Y-151127914D01*
X171134559Y-150227915D01*
X172034561Y-150227919D01*
G37*
X191084561Y-131177919D02*
X190184557Y-132077914D01*
X190184559Y-131177915D01*
X191084561Y-131177919D01*
G36*
X191084561Y-131177919D02*
G01*
X190184557Y-132077914D01*
X190184559Y-131177915D01*
X191084561Y-131177919D01*
G37*
D10*
X221127907Y-147530218D02*
X221827907Y-146630217D01*
X221827901Y-147530217D02*
X221827904Y-147780219D01*
X221827907Y-146630217D02*
X221827904Y-146380215D01*
X221827907Y-146630217D02*
X222527905Y-147530216D01*
X222527901Y-146630216D02*
X221127903Y-146630218D01*
X222527905Y-147530216D02*
X221127907Y-147530218D01*
X183027907Y-147530218D02*
X183727907Y-146630217D01*
X183727901Y-147530217D02*
X183727904Y-147780219D01*
X183727907Y-146630217D02*
X183727904Y-146380215D01*
X183727907Y-146630217D02*
X184427905Y-147530216D01*
X184427901Y-146630216D02*
X183027903Y-146630218D01*
X184427905Y-147530216D02*
X183027907Y-147530218D01*
X163977907Y-166580218D02*
X164677907Y-165680217D01*
X164677901Y-166580217D02*
X164677904Y-166830219D01*
X164677907Y-165680217D02*
X164677904Y-165430215D01*
X164677907Y-165680217D02*
X165377905Y-166580216D01*
X165377901Y-165680216D02*
X163977903Y-165680218D01*
X165377905Y-166580216D02*
X163977907Y-166580218D01*
X202077907Y-128480218D02*
X202777907Y-127580217D01*
X202777901Y-128480217D02*
X202777904Y-128730219D01*
X202777907Y-127580217D02*
X202777904Y-127330215D01*
X202777907Y-127580217D02*
X203477905Y-128480216D01*
X203477901Y-127580216D02*
X202077903Y-127580218D01*
X203477905Y-128480216D02*
X202077907Y-128480218D01*
X163977907Y-128480218D02*
X164677907Y-127580217D01*
X164677901Y-128480217D02*
X164677904Y-128730219D01*
X164677907Y-127580217D02*
X164677904Y-127330215D01*
X164677907Y-127580217D02*
X165377905Y-128480216D01*
X165377901Y-127580216D02*
X163977903Y-127580218D01*
X165377905Y-128480216D02*
X163977907Y-128480218D01*
X202077907Y-166580218D02*
X202777907Y-165680217D01*
X202777901Y-166580217D02*
X202777904Y-166830219D01*
X202777907Y-165680217D02*
X202777904Y-165430215D01*
X202777907Y-165680217D02*
X203477905Y-166580216D01*
X203477901Y-165680216D02*
X202077903Y-165680218D01*
X203477905Y-166580216D02*
X202077907Y-166580218D01*
X183027907Y-166580218D02*
X183727907Y-165680217D01*
X183727901Y-166580217D02*
X183727904Y-166830219D01*
X183727907Y-165680217D02*
X183727904Y-165430215D01*
X183727907Y-165680217D02*
X184427905Y-166580216D01*
X184427901Y-165680216D02*
X183027903Y-165680218D01*
X184427905Y-166580216D02*
X183027907Y-166580218D01*
X163977907Y-147530218D02*
X164677907Y-146630217D01*
X164677901Y-147530217D02*
X164677904Y-147780219D01*
X164677907Y-146630217D02*
X164677904Y-146380215D01*
X164677907Y-146630217D02*
X165377905Y-147530216D01*
X165377901Y-146630216D02*
X163977903Y-146630218D01*
X165377905Y-147530216D02*
X163977907Y-147530218D01*
X183027907Y-128480218D02*
X183727907Y-127580217D01*
X183727901Y-128480217D02*
X183727904Y-128730219D01*
X183727907Y-127580217D02*
X183727904Y-127330215D01*
X183727907Y-127580217D02*
X184427905Y-128480216D01*
X184427901Y-127580216D02*
X183027903Y-127580218D01*
X184427905Y-128480216D02*
X183027907Y-128480218D01*
X221127908Y-166580220D02*
X221827908Y-165680219D01*
X221827902Y-166580219D02*
X221827905Y-166830221D01*
X221827908Y-165680219D02*
X221827905Y-165430217D01*
X221827908Y-165680219D02*
X222527906Y-166580218D01*
X222527902Y-165680218D02*
X221127904Y-165680220D01*
X222527906Y-166580218D02*
X221127908Y-166580220D01*
X202077907Y-147530218D02*
X202777907Y-146630217D01*
X202777901Y-147530217D02*
X202777904Y-147780219D01*
X202777907Y-146630217D02*
X202777904Y-146380215D01*
X202777907Y-146630217D02*
X203477905Y-147530216D01*
X203477901Y-146630216D02*
X202077903Y-146630218D01*
X203477905Y-147530216D02*
X202077907Y-147530218D01*
X221127907Y-128480218D02*
X221827907Y-127580217D01*
X221827901Y-128480217D02*
X221827904Y-128730219D01*
X221827907Y-127580217D02*
X221827904Y-127330215D01*
X221827907Y-127580217D02*
X222527905Y-128480216D01*
X222527901Y-127580216D02*
X221127903Y-127580218D01*
X222527905Y-128480216D02*
X221127907Y-128480218D01*
%LPC*%
D12*
X169839557Y-166102917D03*
D13*
X170259559Y-166102917D03*
D14*
X175339555Y-166102917D03*
D13*
X180419559Y-166102917D03*
D12*
X180839553Y-166102914D03*
D15*
X177879557Y-161022917D03*
D16*
X180339554Y-162302919D03*
D17*
X171529556Y-163562922D03*
D16*
X175339559Y-160202918D03*
D18*
X178136557Y-170472917D03*
X172536557Y-170472917D03*
X172536557Y-171872917D03*
X178136558Y-171872917D03*
D12*
X188889557Y-147052917D03*
D13*
X189309559Y-147052917D03*
D14*
X194389555Y-147052917D03*
D13*
X199469559Y-147052917D03*
D12*
X199889553Y-147052914D03*
D15*
X196929557Y-141972917D03*
D16*
X199389554Y-143252919D03*
D17*
X190579556Y-144512922D03*
D16*
X194389559Y-141152918D03*
D18*
X197186557Y-151422917D03*
X191586557Y-151422917D03*
X191586557Y-152822917D03*
X197186558Y-152822917D03*
D12*
X150789557Y-147052917D03*
D13*
X151209559Y-147052917D03*
D14*
X156289555Y-147052917D03*
D13*
X161369559Y-147052917D03*
D12*
X161789553Y-147052914D03*
D15*
X158829557Y-141972917D03*
D16*
X161289554Y-143252919D03*
D17*
X152479556Y-144512922D03*
D18*
X153486557Y-152822917D03*
D16*
X156289559Y-141152918D03*
D18*
X159086557Y-151422917D03*
X153486557Y-151422917D03*
X159086558Y-152822917D03*
D12*
X150789557Y-128002917D03*
D13*
X151209559Y-128002917D03*
D14*
X156289555Y-128002917D03*
D13*
X161369559Y-128002917D03*
D12*
X161789553Y-128002914D03*
D15*
X158829557Y-122922917D03*
D16*
X161289554Y-124202919D03*
D17*
X152479556Y-125462922D03*
D16*
X156289559Y-122102918D03*
D18*
X159086557Y-132372917D03*
X153486557Y-132372917D03*
X153486557Y-133772917D03*
X159086558Y-133772917D03*
D12*
X169839557Y-128002917D03*
D13*
X170259559Y-128002917D03*
D14*
X175339555Y-128002917D03*
D13*
X180419559Y-128002917D03*
D12*
X180839553Y-128002914D03*
D15*
X177879557Y-122922917D03*
D16*
X180339554Y-124202919D03*
D17*
X171529556Y-125462922D03*
D16*
X175339559Y-122102918D03*
D18*
X178136557Y-132372917D03*
X172536557Y-132372917D03*
X172536557Y-133772917D03*
X178136558Y-133772917D03*
D12*
X207939557Y-166102917D03*
D13*
X208359559Y-166102917D03*
D14*
X213439555Y-166102917D03*
D13*
X218519559Y-166102917D03*
D12*
X218939553Y-166102914D03*
D15*
X215979557Y-161022917D03*
D16*
X218439554Y-162302919D03*
D17*
X209629556Y-163562922D03*
D16*
X213439559Y-160202918D03*
D18*
X216236557Y-170472917D03*
X210636557Y-170472917D03*
X210636557Y-171872917D03*
X216236558Y-171872917D03*
D12*
X207939557Y-147052917D03*
D13*
X208359559Y-147052917D03*
D14*
X213439555Y-147052917D03*
D13*
X218519559Y-147052917D03*
D12*
X218939553Y-147052914D03*
D15*
X215979557Y-141972917D03*
D16*
X218439554Y-143252919D03*
D17*
X209629556Y-144512922D03*
D16*
X213439559Y-141152918D03*
D18*
X216236557Y-151422917D03*
X210636557Y-151422917D03*
X210636557Y-152822917D03*
X216236558Y-152822917D03*
D12*
X150789557Y-166102917D03*
D13*
X151209559Y-166102917D03*
D14*
X156289555Y-166102917D03*
D13*
X161369559Y-166102917D03*
D12*
X161789553Y-166102914D03*
D15*
X158829557Y-161022917D03*
D16*
X161289554Y-162302919D03*
D17*
X152479556Y-163562922D03*
D18*
X153486557Y-171872917D03*
D16*
X156289559Y-160202918D03*
D18*
X159086557Y-170472917D03*
X159086558Y-171872917D03*
X153486557Y-170472917D03*
D12*
X188889557Y-166102917D03*
D13*
X189309559Y-166102917D03*
D14*
X194389555Y-166102917D03*
D13*
X199469559Y-166102917D03*
D12*
X199889553Y-166102914D03*
D15*
X196929557Y-161022917D03*
D16*
X199389554Y-162302919D03*
D17*
X190579556Y-163562922D03*
D16*
X194389559Y-160202918D03*
D18*
X197186557Y-170472917D03*
X191586557Y-170472917D03*
X191586557Y-171872917D03*
X197186558Y-171872917D03*
D12*
X207939557Y-128002917D03*
D13*
X208359559Y-128002917D03*
D14*
X213439555Y-128002917D03*
D13*
X218519559Y-128002917D03*
D12*
X218939553Y-128002914D03*
D15*
X215979557Y-122922917D03*
D16*
X218439554Y-124202919D03*
D17*
X209629556Y-125462922D03*
D16*
X213439559Y-122102918D03*
D18*
X216236557Y-132372917D03*
X210636557Y-132372917D03*
X210636557Y-133772917D03*
X216236558Y-133772917D03*
D19*
X226399903Y-119902219D03*
D20*
X226399905Y-150382215D03*
D19*
X226399905Y-122442215D03*
D20*
X226399905Y-124982219D03*
D19*
X226399901Y-127522216D03*
X226399901Y-130062215D03*
X226399904Y-132602217D03*
X226399901Y-135142217D03*
D20*
X226399902Y-137682219D03*
D19*
X226399902Y-140222217D03*
X226399903Y-142762217D03*
X226399903Y-145302217D03*
X226399902Y-147842217D03*
X226399902Y-152922218D03*
X226399901Y-155462219D03*
X226399900Y-158002218D03*
X226399902Y-160542217D03*
D20*
X226399903Y-163082215D03*
D19*
X226399903Y-165622218D03*
X226399902Y-168162217D03*
X244179901Y-168162215D03*
X244179899Y-165622219D03*
D20*
X244179899Y-163082215D03*
D19*
X244179903Y-160542218D03*
X244179903Y-158002219D03*
X244179900Y-155462217D03*
X244179903Y-152922217D03*
D20*
X244179902Y-150382215D03*
D19*
X244179902Y-147842217D03*
X244179901Y-145302217D03*
X244179901Y-142762217D03*
X244179902Y-140222217D03*
D20*
X244179899Y-137682219D03*
D19*
X244179902Y-135142216D03*
X244179903Y-132602215D03*
X244179904Y-130062216D03*
X244179902Y-127522217D03*
D20*
X244179901Y-124982219D03*
D19*
X244179901Y-122442216D03*
X244179902Y-119902217D03*
D12*
X169839557Y-147052917D03*
D13*
X170259559Y-147052917D03*
D14*
X175339555Y-147052917D03*
D13*
X180419559Y-147052917D03*
D12*
X180839553Y-147052914D03*
D15*
X177879557Y-141972917D03*
D16*
X180339554Y-143252919D03*
D17*
X171529556Y-144512922D03*
D16*
X175339559Y-141152918D03*
D18*
X178136557Y-151422917D03*
X172536557Y-151422917D03*
X172536557Y-152822917D03*
X178136558Y-152822917D03*
D12*
X188889557Y-128002917D03*
D13*
X189309559Y-128002917D03*
D14*
X194389555Y-128002917D03*
D13*
X199469559Y-128002917D03*
D12*
X199889553Y-128002914D03*
D15*
X196929557Y-122922917D03*
D16*
X199389554Y-124202919D03*
D17*
X190579556Y-125462922D03*
D16*
X194389559Y-122102918D03*
D18*
X197186557Y-132372917D03*
X191586557Y-132372917D03*
X191586557Y-133772917D03*
X197186558Y-133772917D03*
D21*
X221827905Y-143270215D03*
D22*
X221827903Y-145380215D03*
X221827905Y-148780219D03*
D23*
X221827903Y-150890219D03*
D21*
X183727905Y-143270215D03*
D22*
X183727903Y-145380215D03*
X183727905Y-148780219D03*
D23*
X183727903Y-150890219D03*
D21*
X164677905Y-162320215D03*
D22*
X164677903Y-164430215D03*
X164677905Y-167830219D03*
D23*
X164677903Y-169940219D03*
D21*
X202777905Y-124220215D03*
D22*
X202777903Y-126330215D03*
X202777905Y-129730219D03*
D23*
X202777903Y-131840219D03*
D21*
X164677905Y-124220215D03*
D22*
X164677903Y-126330215D03*
X164677905Y-129730219D03*
D23*
X164677903Y-131840219D03*
D21*
X202777905Y-162320215D03*
D22*
X202777903Y-164430215D03*
X202777905Y-167830219D03*
D23*
X202777903Y-169940219D03*
D21*
X183727905Y-162320215D03*
D22*
X183727903Y-164430215D03*
X183727905Y-167830219D03*
D23*
X183727903Y-169940219D03*
D21*
X164677905Y-143270215D03*
D22*
X164677903Y-145380215D03*
X164677905Y-148780219D03*
D23*
X164677903Y-150890219D03*
D21*
X183727905Y-124220215D03*
D22*
X183727903Y-126330215D03*
X183727905Y-129730219D03*
D23*
X183727903Y-131840219D03*
D21*
X221827906Y-162320217D03*
D22*
X221827904Y-164430217D03*
X221827906Y-167830221D03*
D23*
X221827904Y-169940221D03*
D21*
X202777905Y-143270215D03*
D22*
X202777903Y-145380215D03*
X202777905Y-148780219D03*
D23*
X202777903Y-150890219D03*
D21*
X221827905Y-124220215D03*
D22*
X221827903Y-126330215D03*
X221827905Y-129730219D03*
D23*
X221827903Y-131840219D03*
%LPD*%
M02*
