G04 #@! TF.GenerationSoftware,KiCad,Pcbnew,8.0.2*
G04 #@! TF.CreationDate,2024-06-03T01:19:23+01:00*
G04 #@! TF.ProjectId,Ashwing66,41736877-696e-4673-9636-2e6b69636164,1*
G04 #@! TF.SameCoordinates,Original*
G04 #@! TF.FileFunction,Soldermask,Bot*
G04 #@! TF.FilePolarity,Negative*
%FSLAX46Y46*%
G04 Gerber Fmt 4.6, Leading zero omitted, Abs format (unit mm)*
G04 Created by KiCad (PCBNEW 8.0.2) date 2024-06-03 01:19:23*
%MOMM*%
%LPD*%
G01*
G04 APERTURE LIST*
G04 Aperture macros list*
%AMRoundRect*
0 Rectangle with rounded corners*
0 $1 Rounding radius*
0 $2 $3 $4 $5 $6 $7 $8 $9 X,Y pos of 4 corners*
0 Add a 4 corners polygon primitive as box body*
4,1,4,$2,$3,$4,$5,$6,$7,$8,$9,$2,$3,0*
0 Add four circle primitives for the rounded corners*
1,1,$1+$1,$2,$3*
1,1,$1+$1,$4,$5*
1,1,$1+$1,$6,$7*
1,1,$1+$1,$8,$9*
0 Add four rect primitives between the rounded corners*
20,1,$1+$1,$2,$3,$4,$5,0*
20,1,$1+$1,$4,$5,$6,$7,0*
20,1,$1+$1,$6,$7,$8,$9,0*
20,1,$1+$1,$8,$9,$2,$3,0*%
%AMHorizOval*
0 Thick line with rounded ends*
0 $1 width*
0 $2 $3 position (X,Y) of the first rounded end (center of the circle)*
0 $4 $5 position (X,Y) of the second rounded end (center of the circle)*
0 Add line between two ends*
20,1,$1,$2,$3,$4,$5,0*
0 Add two circle primitives to create the rounded ends*
1,1,$1,$2,$3*
1,1,$1,$4,$5*%
G04 Aperture macros list end*
%ADD10C,1.700000*%
%ADD11C,1.750000*%
%ADD12C,4.000000*%
%ADD13C,2.250000*%
%ADD14C,2.000000*%
%ADD15HorizOval,2.250000X0.000000X0.000000X0.000000X0.000000X0*%
%ADD16HorizOval,2.250000X0.000000X0.000000X0.000000X0.000000X0*%
%ADD17RoundRect,0.082000X0.608642X-0.502656X0.778427X0.130992X-0.608642X0.502656X-0.778427X-0.130992X0*%
%ADD18RoundRect,0.082000X0.778427X-0.130992X0.608642X0.502656X-0.778427X0.130992X-0.608642X-0.502656X0*%
%ADD19O,2.000000X3.200000*%
%ADD20R,2.000000X2.000000*%
%ADD21HorizOval,2.250000X0.000000X0.000000X0.000000X0.000000X0*%
%ADD22C,4.900000*%
%ADD23HorizOval,2.250000X0.000000X0.000000X0.000000X0.000000X0*%
%ADD24O,1.700000X1.700000*%
%ADD25R,1.700000X1.700000*%
%ADD26HorizOval,2.250000X0.000000X0.000000X0.000000X0.000000X0*%
%ADD27HorizOval,2.250000X0.000000X0.000000X0.000000X0.000000X0*%
%ADD28RoundRect,0.250000X-0.212132X0.367423X-0.367423X-0.212132X0.212132X-0.367423X0.367423X0.212132X0*%
%ADD29RoundRect,0.250000X-0.367423X0.212132X-0.212132X-0.367423X0.367423X-0.212132X0.212132X0.367423X0*%
%ADD30RoundRect,0.250000X-0.409808X0.109808X-0.109808X-0.409808X0.409808X-0.109808X0.109808X0.409808X0*%
%ADD31RoundRect,0.250000X-0.424264X0.000000X0.000000X-0.424264X0.424264X0.000000X0.000000X0.424264X0*%
%ADD32RoundRect,0.250000X-0.109808X0.409808X-0.409808X-0.109808X0.109808X-0.409808X0.409808X0.109808X0*%
%ADD33RoundRect,0.250000X0.000000X0.424264X-0.424264X0.000000X0.000000X-0.424264X0.424264X0.000000X0*%
%ADD34C,0.850000*%
%ADD35RoundRect,0.250000X-0.300000X0.300000X-0.300000X-0.300000X0.300000X-0.300000X0.300000X0.300000X0*%
G04 APERTURE END LIST*
D10*
X219805529Y-173294914D03*
D11*
X220211220Y-173186210D03*
D12*
X225118119Y-171871410D03*
D11*
X230025026Y-170556608D03*
D10*
X230430707Y-170447905D03*
D13*
X226256772Y-166307106D03*
D14*
X228964236Y-166906799D03*
D15*
X220780545Y-170404062D03*
D14*
X223591090Y-166172448D03*
D10*
X68818055Y-156463481D03*
D11*
X69223744Y-156572186D03*
D12*
X74130645Y-157886985D03*
D11*
X79037552Y-159201787D03*
D10*
X79443233Y-159310490D03*
D13*
X77898899Y-153637483D03*
D14*
X79943785Y-155510564D03*
D16*
X71107868Y-154447435D03*
D14*
X75657680Y-152188024D03*
D10*
X314671195Y-159312440D03*
D11*
X315076886Y-159203736D03*
D12*
X319983785Y-157888936D03*
D11*
X324890692Y-156574134D03*
D10*
X325296373Y-156465431D03*
D13*
X321122438Y-152324632D03*
D14*
X323829902Y-152924325D03*
D15*
X315646211Y-156421588D03*
D14*
X318456756Y-152189974D03*
D10*
X230815044Y-140746691D03*
D11*
X231220735Y-140637987D03*
D12*
X236127634Y-139323187D03*
D11*
X241034541Y-138008385D03*
D10*
X241440222Y-137899682D03*
D13*
X237266287Y-133758883D03*
D14*
X239973751Y-134358576D03*
D15*
X231790060Y-137855839D03*
D14*
X234600605Y-133624225D03*
D10*
X304810184Y-122510673D03*
D11*
X305215875Y-122401969D03*
D12*
X310122774Y-121087169D03*
D11*
X315029681Y-119772367D03*
D10*
X315435362Y-119663664D03*
D13*
X311261427Y-115522865D03*
D14*
X313968891Y-116122558D03*
D15*
X305785200Y-119619821D03*
D14*
X308595745Y-115388207D03*
D10*
X300411926Y-179699685D03*
D11*
X300817617Y-179590981D03*
D12*
X305724516Y-178276181D03*
D11*
X310631423Y-176961379D03*
D10*
X311037104Y-176852676D03*
D13*
X306863169Y-172711877D03*
D14*
X309570633Y-173311570D03*
D15*
X301386942Y-176808833D03*
D14*
X304197487Y-172577219D03*
D10*
X73748560Y-138062588D03*
D11*
X74154249Y-138171293D03*
D12*
X79061150Y-139486092D03*
D11*
X83968057Y-140800894D03*
D10*
X84373738Y-140909597D03*
D13*
X82829404Y-135236590D03*
D14*
X84874290Y-137109671D03*
D16*
X76038373Y-136046542D03*
D14*
X80588185Y-133787131D03*
D10*
X59889614Y-116181345D03*
D11*
X60295304Y-116290050D03*
D12*
X65202204Y-117604849D03*
D11*
X70109111Y-118919651D03*
D10*
X70514796Y-119028354D03*
D13*
X68970458Y-113355347D03*
D14*
X71015344Y-115228428D03*
D16*
X62179429Y-114165297D03*
D14*
X66729239Y-111905888D03*
D10*
X92957170Y-140027705D03*
D11*
X93362859Y-140136410D03*
D12*
X98269760Y-141451209D03*
D11*
X103176667Y-142766011D03*
D10*
X103582348Y-142874714D03*
D13*
X102038014Y-137201707D03*
D14*
X104082900Y-139074788D03*
D16*
X95246983Y-138011659D03*
D14*
X99796795Y-135752248D03*
D10*
X64829536Y-97769829D03*
D11*
X65235226Y-97878534D03*
D12*
X70142126Y-99193333D03*
D11*
X75049033Y-100508135D03*
D10*
X75454718Y-100616838D03*
D13*
X73910380Y-94943831D03*
D17*
X71141085Y-105491487D03*
D14*
X75955266Y-96816912D03*
D16*
X67119349Y-95753784D03*
D14*
X71669161Y-93494372D03*
D17*
X71529310Y-104042600D03*
X66506498Y-102696737D03*
X66118270Y-104145628D03*
D10*
X318669138Y-100629420D03*
D11*
X319074828Y-100520717D03*
D12*
X323981728Y-99205916D03*
D11*
X328888635Y-97891114D03*
D10*
X329294317Y-97782407D03*
D13*
X325120381Y-93641612D03*
D18*
X327995931Y-104160800D03*
D14*
X327827845Y-94241305D03*
D15*
X319644152Y-97738564D03*
D14*
X322454699Y-93506953D03*
D18*
X327607700Y-102711913D03*
X322584885Y-104057772D03*
X322973114Y-105506657D03*
D10*
X101872655Y-180309148D03*
D11*
X102278344Y-180417853D03*
D12*
X107185245Y-181732652D03*
D11*
X112092152Y-183047454D03*
D10*
X112497833Y-183156157D03*
D13*
X110953499Y-177483150D03*
D14*
X112998385Y-179356231D03*
D16*
X104162468Y-178293102D03*
D14*
X108712280Y-176033691D03*
D10*
X129749525Y-149899333D03*
D11*
X130155214Y-150008038D03*
D12*
X135062115Y-151322837D03*
D11*
X139969022Y-152637639D03*
D10*
X140374703Y-152746342D03*
D13*
X138830369Y-147073335D03*
D14*
X140875255Y-148946416D03*
D16*
X132039338Y-147883287D03*
D14*
X136589150Y-145623876D03*
D10*
X225884542Y-122345814D03*
D11*
X226290232Y-122237111D03*
D12*
X231197132Y-120922310D03*
D11*
X236104039Y-119607508D03*
D10*
X236509721Y-119498801D03*
D13*
X232335785Y-115358006D03*
D18*
X235211335Y-125877194D03*
D14*
X235043249Y-115957699D03*
D15*
X226859556Y-119454958D03*
D14*
X229670103Y-115223347D03*
D18*
X234823104Y-124428307D03*
X229800289Y-125774166D03*
X230188518Y-127223051D03*
D10*
X299876840Y-104123696D03*
D11*
X300282530Y-104014993D03*
D12*
X305189430Y-102700192D03*
D11*
X310096337Y-101385390D03*
D10*
X310502019Y-101276683D03*
D13*
X306328083Y-97135888D03*
D18*
X309203633Y-107655076D03*
D14*
X309035547Y-97735581D03*
D15*
X300851854Y-101232840D03*
D14*
X303662401Y-97001229D03*
D18*
X308815402Y-106206189D03*
X303792587Y-107552048D03*
X304180816Y-109000933D03*
D19*
X191483552Y-187100917D03*
X202683552Y-187100917D03*
D20*
X194583552Y-194600917D03*
D14*
X199583552Y-194600917D03*
X197083552Y-194600917D03*
X194583552Y-180100917D03*
X199583552Y-180100917D03*
D10*
X323599642Y-119030307D03*
D11*
X324005333Y-118921603D03*
D12*
X328912232Y-117606803D03*
D11*
X333819139Y-116292001D03*
D10*
X334224820Y-116183298D03*
D13*
X330050885Y-112042499D03*
D14*
X332758349Y-112642192D03*
D15*
X324574658Y-116139455D03*
D14*
X327385203Y-111907841D03*
D10*
X124828434Y-168289588D03*
D11*
X125234123Y-168398293D03*
D12*
X130141024Y-169713092D03*
D11*
X135047931Y-171027894D03*
D10*
X135453612Y-171136597D03*
D13*
X133909278Y-165463590D03*
D14*
X135954164Y-167336671D03*
D16*
X127118247Y-166273542D03*
D14*
X131668059Y-164014131D03*
D10*
X176255098Y-212049300D03*
D11*
X176552083Y-212346286D03*
D12*
X180144184Y-215938386D03*
D11*
X183736289Y-219530491D03*
D10*
X184033268Y-219827471D03*
D13*
X185532339Y-214142336D03*
D14*
X186366723Y-216786912D03*
D21*
X179246158Y-211448262D03*
D14*
X184316115Y-211766457D03*
D10*
X263610155Y-189560697D03*
D11*
X264015846Y-189451993D03*
D12*
X268922745Y-188137193D03*
D11*
X273829652Y-186822391D03*
D10*
X274235333Y-186713688D03*
D13*
X270061398Y-182572889D03*
D14*
X272768862Y-183172582D03*
D15*
X264585171Y-186669845D03*
D14*
X267395716Y-182438231D03*
D10*
X349394569Y-141708842D03*
D11*
X349800260Y-141600138D03*
D12*
X354707159Y-140285338D03*
D11*
X359614066Y-138970536D03*
D10*
X360019747Y-138861833D03*
D13*
X355845812Y-134721034D03*
D14*
X358553276Y-135320727D03*
D15*
X350369585Y-138817990D03*
D14*
X353180130Y-134586376D03*
D22*
X167054036Y-186687989D03*
D10*
X147765392Y-156291280D03*
D11*
X148171081Y-156399985D03*
D12*
X153077982Y-157714784D03*
D11*
X157984889Y-159029586D03*
D10*
X158390570Y-159138289D03*
D13*
X156846236Y-153465282D03*
D14*
X158891122Y-155338363D03*
D16*
X150055205Y-154275234D03*
D14*
X154605017Y-152015823D03*
D10*
X248818646Y-134358036D03*
D11*
X249224337Y-134249332D03*
D12*
X254131236Y-132934532D03*
D11*
X259038143Y-131619730D03*
D10*
X259443824Y-131511027D03*
D13*
X255269889Y-127370228D03*
D14*
X257977353Y-127969921D03*
D15*
X249793662Y-131467184D03*
D14*
X252604207Y-127235570D03*
D10*
X258682503Y-171145896D03*
D11*
X259088194Y-171037192D03*
D12*
X263995093Y-169722392D03*
D11*
X268902000Y-168407590D03*
D10*
X269307681Y-168298887D03*
D13*
X265133746Y-164158088D03*
D14*
X267841210Y-164757781D03*
D15*
X259657519Y-168255044D03*
D14*
X262468064Y-164023430D03*
D10*
X235745545Y-159147583D03*
D11*
X236151236Y-159038879D03*
D12*
X241058135Y-157724079D03*
D11*
X245965042Y-156409277D03*
D10*
X246370723Y-156300574D03*
D13*
X242196788Y-152159775D03*
D14*
X244904252Y-152759468D03*
D15*
X236720561Y-156256731D03*
D14*
X239531106Y-152025117D03*
D10*
X134689446Y-131487821D03*
D11*
X135095135Y-131596526D03*
D12*
X140002036Y-132911325D03*
D11*
X144908943Y-134226127D03*
D10*
X145314624Y-134334830D03*
D13*
X143770290Y-128661823D03*
D14*
X145815176Y-130534904D03*
D16*
X136979259Y-129471775D03*
D14*
X141529071Y-127212364D03*
D10*
X163709544Y-170426762D03*
D11*
X164115233Y-170535467D03*
D12*
X169022134Y-171850266D03*
D11*
X173929041Y-173165068D03*
D10*
X174334722Y-173273771D03*
D13*
X172790388Y-167600764D03*
D14*
X174835274Y-169473845D03*
D16*
X165999357Y-168410716D03*
D14*
X170549169Y-166151305D03*
D10*
X152695894Y-137890394D03*
D11*
X153101583Y-137999099D03*
D12*
X158008484Y-139313898D03*
D11*
X162915391Y-140628700D03*
D10*
X163321072Y-140737403D03*
D13*
X161776738Y-135064396D03*
D14*
X163821624Y-136937477D03*
D16*
X154985707Y-135874348D03*
D14*
X159535519Y-133614937D03*
D10*
X276686097Y-164757233D03*
D11*
X277091788Y-164648529D03*
D12*
X281998687Y-163333729D03*
D11*
X286905594Y-162018927D03*
D10*
X287311275Y-161910224D03*
D13*
X283137340Y-157769425D03*
D14*
X285844804Y-158369118D03*
D15*
X277661113Y-161866381D03*
D14*
X280471658Y-157634767D03*
D10*
X281613757Y-183172033D03*
D11*
X282019448Y-183063329D03*
D12*
X286926347Y-181748529D03*
D11*
X291833254Y-180433727D03*
D10*
X292238935Y-180325024D03*
D13*
X288065000Y-176184225D03*
D14*
X290772464Y-176783918D03*
D15*
X282588773Y-180281181D03*
D14*
X285399318Y-176049567D03*
D10*
X158321173Y-199995704D03*
D11*
X158684905Y-200205705D03*
D12*
X163084311Y-202745703D03*
D11*
X167483723Y-205285705D03*
D10*
X167847446Y-205495702D03*
D13*
X167824017Y-199616295D03*
D14*
X169314439Y-201954806D03*
D23*
X161054754Y-198640999D03*
D14*
X166034312Y-197636154D03*
D10*
X240673210Y-177562386D03*
D11*
X241078901Y-177453682D03*
D12*
X245985800Y-176138882D03*
D11*
X250892707Y-174824080D03*
D10*
X251298388Y-174715377D03*
D13*
X247124453Y-170574578D03*
D14*
X249831917Y-171174271D03*
D15*
X241648226Y-174671534D03*
D14*
X244458771Y-170439920D03*
D10*
X137904387Y-193093052D03*
D11*
X138310076Y-193201757D03*
D12*
X143216977Y-194516556D03*
D11*
X148123884Y-195831358D03*
D10*
X148529565Y-195940061D03*
D13*
X146985231Y-190267054D03*
D14*
X149030117Y-192140135D03*
D16*
X140194200Y-191077006D03*
D14*
X144744012Y-188817595D03*
D10*
X266825100Y-127955463D03*
D11*
X267230791Y-127846759D03*
D12*
X272137690Y-126531959D03*
D11*
X277044597Y-125217157D03*
D10*
X277450278Y-125108454D03*
D13*
X273276343Y-120967655D03*
D14*
X275983807Y-121567348D03*
D15*
X267800116Y-125064611D03*
D14*
X270610661Y-120832997D03*
D10*
X97878256Y-121637435D03*
D11*
X98283945Y-121746140D03*
D12*
X103190846Y-123060939D03*
D11*
X108097753Y-124375741D03*
D10*
X108503434Y-124484444D03*
D13*
X106959100Y-118811437D03*
D14*
X109003986Y-120684518D03*
D16*
X100168069Y-119621389D03*
D14*
X104717881Y-117361978D03*
D22*
X136663283Y-182168280D03*
D10*
X139619951Y-113086936D03*
D11*
X140025640Y-113195641D03*
D12*
X144932541Y-114510440D03*
D11*
X149839448Y-115825242D03*
D10*
X150245132Y-115933940D03*
D13*
X148700795Y-110260938D03*
D17*
X145931501Y-120808596D03*
D14*
X150745681Y-112134019D03*
D16*
X141909766Y-111070888D03*
D14*
X146459576Y-108811479D03*
D17*
X146319726Y-119359708D03*
X141296911Y-118013849D03*
X140908685Y-119462735D03*
D10*
X63887554Y-174864361D03*
D11*
X64293243Y-174973066D03*
D12*
X69200144Y-176287865D03*
D11*
X74107051Y-177602667D03*
D10*
X74512732Y-177711370D03*
D13*
X72968398Y-172038363D03*
D14*
X75013284Y-173911444D03*
D16*
X66177367Y-172848315D03*
D14*
X70727179Y-170588904D03*
D10*
X333460648Y-155832088D03*
D11*
X333866339Y-155723384D03*
D12*
X338773238Y-154408584D03*
D11*
X343680145Y-153093782D03*
D10*
X344085826Y-152985079D03*
D13*
X339911891Y-148844280D03*
D14*
X342619355Y-149443973D03*
D15*
X334435664Y-152941236D03*
D14*
X337246209Y-148709622D03*
D10*
X309737843Y-140925465D03*
D11*
X310143534Y-140816761D03*
D12*
X315050433Y-139501961D03*
D11*
X319957340Y-138187159D03*
D10*
X320363021Y-138078456D03*
D13*
X316189086Y-133937657D03*
D14*
X318896550Y-134537350D03*
D15*
X310712859Y-138034613D03*
D14*
X313523404Y-133802999D03*
D10*
X106803153Y-161908270D03*
D11*
X107208842Y-162016975D03*
D12*
X112115743Y-163331774D03*
D11*
X117022650Y-164646576D03*
D10*
X117428331Y-164755279D03*
D13*
X115883997Y-159082272D03*
D14*
X117928883Y-160955353D03*
D16*
X109092966Y-159892224D03*
D14*
X113642778Y-157632813D03*
D10*
X102808749Y-103236553D03*
D11*
X103214438Y-103345258D03*
D12*
X108121339Y-104660057D03*
D11*
X113028246Y-105974859D03*
D10*
X113433930Y-106083557D03*
D13*
X111889593Y-100410555D03*
D17*
X109120299Y-110958213D03*
D14*
X113934479Y-102283636D03*
D16*
X105098564Y-101220505D03*
D14*
X109648374Y-98961096D03*
D17*
X109508524Y-109509325D03*
X104485709Y-108163466D03*
X104097483Y-109612352D03*
D10*
X328530141Y-137431200D03*
D11*
X328935832Y-137322496D03*
D12*
X333842731Y-136007696D03*
D11*
X338749638Y-134692894D03*
D10*
X339155319Y-134584191D03*
D13*
X334981384Y-130443392D03*
D14*
X337688848Y-131043085D03*
D15*
X329505157Y-134540348D03*
D14*
X332315702Y-130308734D03*
D10*
X119888520Y-186701107D03*
D11*
X120294209Y-186809812D03*
D12*
X125201110Y-188124611D03*
D11*
X130108017Y-189439413D03*
D10*
X130513698Y-189548116D03*
D13*
X128969364Y-183875109D03*
D14*
X131014250Y-185748190D03*
D16*
X122178333Y-184685061D03*
D14*
X126728145Y-182425650D03*
D10*
X243890991Y-115943234D03*
D11*
X244296681Y-115834531D03*
D12*
X249203581Y-114519730D03*
D11*
X254110488Y-113204928D03*
D10*
X254516170Y-113096221D03*
D13*
X250342234Y-108955426D03*
D18*
X253217784Y-119474614D03*
D14*
X253049698Y-109555119D03*
D15*
X244866005Y-113052378D03*
D14*
X247676552Y-108820767D03*
D18*
X252829553Y-118025727D03*
X247806738Y-119371586D03*
X248194967Y-120820471D03*
D10*
X319601703Y-177713329D03*
D11*
X320007394Y-177604625D03*
D12*
X324914293Y-176289825D03*
D11*
X329821200Y-174975023D03*
D10*
X330226881Y-174866320D03*
D13*
X326052946Y-170725521D03*
D14*
X328760410Y-171325214D03*
D15*
X320576719Y-174822477D03*
D14*
X323387264Y-170590863D03*
D10*
X116673585Y-125095873D03*
D11*
X117079274Y-125204578D03*
D12*
X121986175Y-126519377D03*
D11*
X126893082Y-127834179D03*
D10*
X127298763Y-127942882D03*
D13*
X125754429Y-122269875D03*
D14*
X127799315Y-124142956D03*
D16*
X118963398Y-123079827D03*
D14*
X123513210Y-120820416D03*
D24*
X188177042Y-112751299D03*
X188177043Y-115291297D03*
D25*
X188177043Y-117831299D03*
D24*
X188177040Y-120371297D03*
X188177039Y-122911295D03*
X188177041Y-125451299D03*
X188177040Y-127991298D03*
D25*
X188177041Y-130531300D03*
D24*
X188177041Y-133071298D03*
X188177042Y-135611298D03*
X188177042Y-138151298D03*
X188177041Y-140691298D03*
D25*
X188177044Y-143231298D03*
D24*
X188177041Y-145771299D03*
X188177041Y-148311301D03*
X188177039Y-150851299D03*
X188177039Y-153391297D03*
D25*
X188177041Y-155931298D03*
D24*
X188177042Y-158471298D03*
X188177041Y-161011298D03*
X205957040Y-161011297D03*
X205957039Y-158471299D03*
D25*
X205957039Y-155931297D03*
D24*
X205957042Y-153391299D03*
X205957043Y-150851301D03*
X205957041Y-148311297D03*
X205957042Y-145771298D03*
D25*
X205957041Y-143231296D03*
D24*
X205957041Y-140691298D03*
X205957040Y-138151298D03*
X205957040Y-135611298D03*
X205957041Y-133071298D03*
D25*
X205957038Y-130531298D03*
D24*
X205957041Y-127991297D03*
X205957041Y-125451295D03*
X205957043Y-122911297D03*
X205957043Y-120371299D03*
D25*
X205957041Y-117831298D03*
D24*
X205957040Y-115291298D03*
X205957041Y-112751298D03*
X194527037Y-160781299D03*
D25*
X197067041Y-160781298D03*
D24*
X199607039Y-160781299D03*
D10*
X280692769Y-106082235D03*
D11*
X281098459Y-105973532D03*
D12*
X286005359Y-104658731D03*
D11*
X290912266Y-103343929D03*
D10*
X291317948Y-103235222D03*
D13*
X287144012Y-99094427D03*
D18*
X290019562Y-109613615D03*
D14*
X289851476Y-99694120D03*
D15*
X281667783Y-103191379D03*
D14*
X284478330Y-98959768D03*
D18*
X289631331Y-108164728D03*
X284608516Y-109510587D03*
X284996745Y-110959472D03*
D10*
X83086745Y-176840100D03*
D11*
X83492434Y-176948805D03*
D12*
X88399335Y-178263604D03*
D11*
X93306242Y-179578406D03*
D10*
X93711923Y-179687109D03*
D13*
X92167589Y-174014102D03*
D14*
X94212475Y-175887183D03*
D16*
X85376558Y-174824054D03*
D14*
X89926370Y-172564643D03*
D10*
X290550926Y-142897915D03*
D11*
X290956617Y-142789211D03*
D12*
X295863516Y-141474411D03*
D11*
X300770423Y-140159609D03*
D10*
X301176104Y-140050906D03*
D13*
X297002169Y-135910107D03*
D14*
X299709633Y-136509800D03*
D15*
X291525942Y-140007063D03*
D14*
X294336487Y-135775449D03*
D10*
X111733663Y-143507383D03*
D11*
X112139352Y-143616088D03*
D12*
X117046253Y-144930887D03*
D11*
X121953160Y-146245689D03*
D10*
X122358841Y-146354392D03*
D13*
X120814507Y-140681385D03*
D14*
X122859393Y-142554466D03*
D16*
X114023476Y-141491337D03*
D14*
X118573288Y-139231926D03*
D10*
X34088910Y-138867336D03*
D11*
X34494599Y-138976041D03*
D12*
X39401500Y-140290840D03*
D11*
X44308407Y-141605642D03*
D10*
X44714088Y-141714345D03*
D13*
X43169754Y-136041338D03*
D14*
X45214640Y-137914419D03*
D16*
X36378723Y-136851290D03*
D14*
X40928535Y-134591879D03*
D10*
X54959118Y-134582233D03*
D11*
X55364807Y-134690938D03*
D12*
X60271708Y-136005737D03*
D11*
X65178615Y-137320539D03*
D10*
X65584296Y-137429242D03*
D13*
X64039962Y-131756235D03*
D14*
X66084848Y-133629316D03*
D16*
X57248931Y-132566187D03*
D14*
X61798743Y-130306776D03*
D10*
X50038032Y-152972490D03*
D11*
X50443721Y-153081195D03*
D12*
X55350622Y-154395994D03*
D11*
X60257529Y-155710796D03*
D10*
X60663210Y-155819499D03*
D13*
X59118876Y-150146492D03*
D14*
X61163762Y-152019573D03*
D16*
X52327845Y-150956444D03*
D14*
X56877657Y-148697033D03*
D22*
X151467732Y-126917321D03*
D10*
X245606556Y-195949359D03*
D11*
X246012247Y-195840655D03*
D12*
X250919146Y-194525855D03*
D11*
X255826053Y-193211053D03*
D10*
X256231734Y-193102350D03*
D13*
X252057799Y-188961551D03*
D14*
X254765263Y-189561244D03*
D15*
X246581572Y-193058507D03*
D14*
X249392117Y-188826893D03*
D10*
X88017241Y-158439214D03*
D11*
X88422930Y-158547919D03*
D12*
X93329831Y-159862718D03*
D11*
X98236738Y-161177520D03*
D10*
X98642419Y-161286223D03*
D13*
X97098085Y-155613216D03*
D14*
X99142971Y-157486297D03*
D16*
X90307054Y-156423168D03*
D14*
X94856866Y-154163757D03*
D22*
X77094197Y-110068938D03*
D10*
X142834896Y-174692164D03*
D11*
X143240585Y-174800869D03*
D12*
X148147486Y-176115668D03*
D11*
X153054393Y-177430470D03*
D10*
X153460074Y-177539173D03*
D13*
X151915740Y-171866166D03*
D14*
X153960626Y-173739247D03*
D16*
X145124709Y-172676118D03*
D14*
X149674521Y-170416707D03*
D10*
X295484271Y-161284897D03*
D11*
X295889962Y-161176193D03*
D12*
X300796861Y-159861393D03*
D11*
X305703768Y-158546591D03*
D10*
X306109449Y-158437888D03*
D13*
X301935514Y-154297089D03*
D14*
X304642978Y-154896782D03*
D15*
X296459287Y-158394045D03*
D14*
X299269832Y-154162431D03*
D10*
X253749155Y-152758924D03*
D11*
X254154846Y-152650220D03*
D12*
X259061745Y-151335420D03*
D11*
X263968652Y-150020618D03*
D10*
X264374333Y-149911915D03*
D13*
X260200398Y-145771116D03*
D14*
X262907862Y-146370809D03*
D15*
X254724171Y-149868072D03*
D14*
X257534716Y-145636458D03*
D10*
X285623274Y-124483129D03*
D11*
X286028965Y-124374425D03*
D12*
X290935864Y-123059625D03*
D11*
X295842771Y-121744823D03*
D10*
X296248452Y-121636120D03*
D13*
X292074517Y-117495321D03*
D14*
X294781981Y-118095014D03*
D15*
X286598290Y-121592277D03*
D14*
X289408835Y-117360663D03*
D10*
X78679066Y-119661702D03*
D11*
X79084755Y-119770407D03*
D12*
X83991656Y-121085206D03*
D11*
X88898563Y-122400008D03*
D10*
X89304244Y-122508711D03*
D13*
X87759910Y-116835704D03*
D14*
X89804796Y-118708785D03*
D16*
X80968879Y-117645656D03*
D14*
X85518691Y-115386245D03*
D22*
X62289749Y-165319895D03*
D10*
X157626398Y-119489504D03*
D11*
X158032087Y-119598209D03*
D12*
X162938988Y-120913008D03*
D11*
X167845895Y-122227810D03*
D10*
X168251579Y-122336508D03*
D13*
X166707242Y-116663506D03*
D17*
X163937948Y-127211164D03*
D14*
X168752128Y-118536587D03*
D16*
X159916213Y-117473456D03*
D14*
X164466023Y-115214047D03*
D17*
X164326173Y-125762276D03*
X159303358Y-124416417D03*
X158915132Y-125865303D03*
D10*
X83618988Y-101250195D03*
D11*
X84024677Y-101358900D03*
D12*
X88931578Y-102673699D03*
D11*
X93838485Y-103988501D03*
D10*
X94244169Y-104097199D03*
D13*
X92699832Y-98424197D03*
D17*
X89930538Y-108971855D03*
D14*
X94744718Y-100297278D03*
D16*
X85908803Y-99234147D03*
D14*
X90458613Y-96974738D03*
D17*
X90318763Y-107522967D03*
X85295948Y-106177108D03*
X84907722Y-107625994D03*
D10*
X261894589Y-109554574D03*
D11*
X262300279Y-109445871D03*
D12*
X267207179Y-108131070D03*
D11*
X272114086Y-106816268D03*
D10*
X272519768Y-106707561D03*
D13*
X268345832Y-102566766D03*
D18*
X271221382Y-113085954D03*
D14*
X271053296Y-103166459D03*
D15*
X262869603Y-106663718D03*
D14*
X265680150Y-102432107D03*
D18*
X270833151Y-111637067D03*
X265810336Y-112982926D03*
X266198565Y-114431811D03*
D10*
X210028429Y-219856995D03*
D11*
X210325415Y-219560010D03*
D12*
X213917515Y-215967909D03*
D11*
X217509620Y-212375804D03*
D10*
X217806600Y-212078825D03*
D13*
X212121465Y-210579754D03*
D14*
X214766041Y-209745370D03*
D26*
X209427391Y-216865935D03*
D14*
X209745586Y-211795978D03*
D10*
X271752751Y-146370260D03*
D11*
X272158442Y-146261556D03*
D12*
X277065341Y-144946756D03*
D11*
X281972248Y-143631954D03*
D10*
X282377929Y-143523251D03*
D13*
X278203994Y-139382452D03*
D14*
X280911458Y-139982145D03*
D15*
X272727767Y-143479408D03*
D14*
X275538312Y-139247794D03*
D10*
X226273756Y-205510252D03*
D11*
X226637488Y-205300252D03*
D12*
X231036894Y-202760253D03*
D11*
X235436306Y-200220251D03*
D10*
X235800029Y-200010257D03*
D13*
X230696600Y-197090843D03*
D14*
X233467020Y-196969358D03*
D27*
X226467341Y-202465550D03*
D14*
X228086897Y-197650703D03*
D10*
X121604087Y-106694983D03*
D11*
X122009776Y-106803688D03*
D12*
X126916677Y-108118487D03*
D11*
X131823584Y-109433289D03*
D10*
X132229268Y-109541987D03*
D13*
X130684931Y-103868985D03*
D17*
X127915637Y-114416643D03*
D14*
X132729817Y-105742066D03*
D16*
X123893902Y-104678935D03*
D14*
X128443712Y-102419526D03*
D17*
X128303862Y-112967755D03*
X123281047Y-111621896D03*
X122892821Y-113070782D03*
D28*
X73311767Y-128992130D03*
X72587077Y-131696728D03*
D22*
X331862205Y-165392665D03*
D29*
X235794335Y-169930431D03*
X236519035Y-172635027D03*
D28*
X76997148Y-114727559D03*
X76272458Y-117432157D03*
D30*
X219591655Y-199426492D03*
X220991659Y-201851362D03*
D22*
X242684221Y-126990091D03*
D28*
X83224096Y-92095407D03*
X82499406Y-94800005D03*
D29*
X276715643Y-175554480D03*
X277440343Y-178259076D03*
X285649971Y-135294262D03*
X286374671Y-137998858D03*
D28*
X124382234Y-159229773D03*
X123657544Y-161934371D03*
D29*
X214918894Y-165682470D03*
X215643594Y-168387066D03*
X261921287Y-120365722D03*
X262645987Y-123070318D03*
D31*
X202051702Y-215748977D03*
X204031608Y-217728871D03*
D29*
X304836884Y-133321816D03*
X305561584Y-136026412D03*
D28*
X136206972Y-188024727D03*
X135482282Y-190729325D03*
X111296866Y-134436928D03*
X110572176Y-137141526D03*
D29*
X220939393Y-114657609D03*
X221664093Y-117362205D03*
X294885983Y-96433561D03*
X295610683Y-99138157D03*
X275699057Y-98406006D03*
X276423757Y-101110602D03*
X295508687Y-172068083D03*
X296233387Y-174772679D03*
X309767387Y-151722704D03*
X310492087Y-154427300D03*
D28*
X151040308Y-132859156D03*
X150315618Y-135563754D03*
X157197862Y-110460296D03*
X156473172Y-113164894D03*
D29*
X230863830Y-151529552D03*
X231588530Y-154234148D03*
X313675433Y-92953196D03*
X314400133Y-95657792D03*
D28*
X62371509Y-169846289D03*
X61646819Y-172550887D03*
D29*
X256655539Y-101944087D03*
X257380239Y-104648683D03*
X259664108Y-186109827D03*
X260388808Y-188814423D03*
D32*
X160255679Y-191148811D03*
X158855683Y-193573687D03*
D33*
X180399513Y-204015714D03*
X178419619Y-205995620D03*
D28*
X64434642Y-88615051D03*
X63709952Y-91319649D03*
D29*
X226156589Y-133091225D03*
X226881289Y-135795821D03*
D28*
X87550098Y-149385465D03*
X86825408Y-152090063D03*
D29*
X319614951Y-115435228D03*
X320339651Y-118139824D03*
D28*
X49577166Y-143895277D03*
X48852476Y-146599875D03*
D22*
X317057756Y-110141707D03*
D28*
X97441459Y-112566987D03*
X96716769Y-115271585D03*
D22*
X227097919Y-186760757D03*
D28*
X142388677Y-165632343D03*
X141663987Y-168336941D03*
D29*
X240741824Y-188359095D03*
X241466524Y-191063691D03*
D34*
X196553808Y-141941055D03*
X197553808Y-141941053D03*
D28*
X106366351Y-152837811D03*
X105641661Y-155542409D03*
D29*
X328311487Y-148308086D03*
X329036187Y-151012682D03*
X323626337Y-129841463D03*
X324351037Y-132546059D03*
X299906384Y-114920928D03*
X300631084Y-117625524D03*
D28*
X134243158Y-122452816D03*
X133518468Y-125157414D03*
D29*
X238897282Y-108267013D03*
X239621982Y-110971609D03*
X248848189Y-145155276D03*
X249572889Y-147859872D03*
D28*
X101451497Y-171204894D03*
X100726807Y-173909492D03*
X147319181Y-147231450D03*
X146594491Y-149936048D03*
D29*
X290580469Y-153695155D03*
X291305169Y-156399751D03*
X344563448Y-134133421D03*
X345288148Y-136838017D03*
X271782300Y-157167496D03*
X272507000Y-159872092D03*
D28*
X129312734Y-140828879D03*
X128588044Y-143533477D03*
X33670414Y-129849723D03*
X32945724Y-132554321D03*
D22*
X257488671Y-182241046D03*
D28*
X116227366Y-116036043D03*
X115502676Y-118740641D03*
D29*
X314700733Y-170109683D03*
X315425433Y-172814279D03*
D28*
X139191411Y-104057722D03*
X138466721Y-106762320D03*
X163314317Y-161430104D03*
X162589627Y-164134702D03*
D29*
X244898482Y-131003758D03*
X245623182Y-133708354D03*
X253800777Y-163527863D03*
X254525477Y-166232459D03*
X280719462Y-116893378D03*
X281444162Y-119597974D03*
D28*
X82656163Y-167746460D03*
X81931473Y-170451058D03*
X119457938Y-177607467D03*
X118733248Y-180312065D03*
D29*
X266851788Y-138766609D03*
X267576488Y-141471205D03*
D28*
X68366281Y-147376891D03*
X67641591Y-150081489D03*
X121175550Y-97665773D03*
X120450860Y-100370371D03*
X59452821Y-107110896D03*
X58728131Y-109815494D03*
X54276980Y-125446038D03*
X53552290Y-128150636D03*
X92510955Y-130967878D03*
X91786265Y-133672476D03*
X102177945Y-94005404D03*
X101453255Y-96710002D03*
D35*
X192503552Y-174150917D03*
X192503558Y-176950919D03*
M02*
