M48
; DRILL file {KiCad 8.0.2} date 2024-06-03T01:19:17+0100
; FORMAT={-:-/ absolute / metric / decimal}
; #@! TF.CreationDate,2024-06-03T01:19:17+01:00
; #@! TF.GenerationSoftware,Kicad,Pcbnew,8.0.2
; #@! TF.FileFunction,NonPlated,1,2,NPTH
FMAT,2
METRIC
; #@! TA.AperFunction,NonPlated,NPTH,ComponentDrill
T1C1.500
; #@! TA.AperFunction,NonPlated,NPTH,ComponentDrill
T2C1.700
; #@! TA.AperFunction,NonPlated,NPTH,ComponentDrill
T3C1.750
; #@! TA.AperFunction,NonPlated,NPTH,ComponentDrill
T4C4.000
%
G90
G05
T2
X34.089Y-138.867
X44.714Y-141.714
X50.038Y-152.972
X54.959Y-134.582
X59.89Y-116.181
X60.663Y-155.819
X63.888Y-174.864
X64.83Y-97.77
X65.584Y-137.429
X68.818Y-156.463
X70.515Y-119.028
X73.749Y-138.063
X74.513Y-177.711
X75.455Y-100.617
X78.679Y-119.662
X79.443Y-159.31
X83.087Y-176.84
X83.619Y-101.25
X84.374Y-140.91
X88.017Y-158.439
X89.304Y-122.509
X92.957Y-140.028
X93.712Y-179.687
X94.244Y-104.097
X97.878Y-121.637
X98.642Y-161.286
X101.873Y-180.309
X102.809Y-103.237
X103.582Y-142.875
X106.803Y-161.908
X108.503Y-124.484
X111.734Y-143.507
X112.498Y-183.156
X113.434Y-106.084
X116.674Y-125.096
X117.428Y-164.755
X119.889Y-186.701
X121.604Y-106.695
X122.359Y-146.354
X124.828Y-168.29
X127.299Y-127.943
X129.75Y-149.899
X130.514Y-189.548
X132.229Y-109.542
X134.689Y-131.488
X135.454Y-171.137
X137.904Y-193.093
X139.62Y-113.087
X140.375Y-152.746
X142.835Y-174.692
X145.315Y-134.335
X147.765Y-156.291
X148.53Y-195.94
X150.245Y-115.934
X152.696Y-137.89
X153.46Y-177.539
X157.626Y-119.49
X158.321Y-199.996
X158.391Y-159.138
X163.321Y-140.737
X163.71Y-170.427
X167.847Y-205.496
X168.252Y-122.337
X174.335Y-173.274
X176.255Y-212.049
X184.033Y-219.827
X210.028Y-219.857
X217.807Y-212.079
X219.806Y-173.295
X225.885Y-122.346
X226.274Y-205.51
X230.431Y-170.448
X230.815Y-140.747
X235.746Y-159.148
X235.8Y-200.01
X236.51Y-119.499
X240.673Y-177.562
X241.44Y-137.9
X243.891Y-115.943
X245.607Y-195.949
X246.371Y-156.301
X248.819Y-134.358
X251.298Y-174.715
X253.749Y-152.759
X254.516Y-113.096
X256.232Y-193.102
X258.683Y-171.146
X259.444Y-131.511
X261.895Y-109.555
X263.61Y-189.561
X264.374Y-149.912
X266.825Y-127.955
X269.308Y-168.299
X271.753Y-146.37
X272.52Y-106.708
X274.235Y-186.714
X276.686Y-164.757
X277.45Y-125.108
X280.693Y-106.082
X281.614Y-183.172
X282.378Y-143.523
X285.623Y-124.483
X287.311Y-161.91
X290.551Y-142.898
X291.318Y-103.235
X292.239Y-180.325
X295.484Y-161.285
X296.248Y-121.636
X299.877Y-104.124
X300.412Y-179.7
X301.176Y-140.051
X304.81Y-122.511
X306.109Y-158.438
X309.738Y-140.925
X310.502Y-101.277
X311.037Y-176.853
X314.671Y-159.312
X315.435Y-119.664
X318.669Y-100.629
X319.602Y-177.713
X320.363Y-138.078
X323.6Y-119.03
X325.296Y-156.465
X328.53Y-137.431
X329.294Y-97.782
X330.227Y-174.866
X333.461Y-155.832
X334.225Y-116.183
X339.155Y-134.584
X344.086Y-152.985
X349.395Y-141.709
X360.02Y-138.862
T3
X34.495Y-138.976
X44.308Y-141.606
X50.444Y-153.081
X55.365Y-134.691
X60.258Y-155.711
X60.295Y-116.29
X64.293Y-174.973
X65.179Y-137.321
X65.235Y-97.879
X69.224Y-156.572
X70.109Y-118.92
X74.107Y-177.603
X74.154Y-138.171
X75.049Y-100.508
X79.038Y-159.202
X79.085Y-119.77
X83.492Y-176.949
X83.968Y-140.801
X84.025Y-101.359
X88.423Y-158.548
X88.899Y-122.4
X93.306Y-179.578
X93.363Y-140.136
X93.838Y-103.989
X98.237Y-161.178
X98.284Y-121.746
X102.278Y-180.418
X103.177Y-142.766
X103.214Y-103.345
X107.209Y-162.017
X108.098Y-124.376
X112.092Y-183.047
X112.139Y-143.616
X113.028Y-105.975
X117.023Y-164.647
X117.079Y-125.205
X120.294Y-186.81
X121.953Y-146.246
X122.01Y-106.804
X125.234Y-168.398
X126.893Y-127.834
X130.108Y-189.439
X130.155Y-150.008
X131.824Y-109.433
X135.048Y-171.028
X135.095Y-131.597
X138.31Y-193.202
X139.969Y-152.638
X140.026Y-113.196
X143.241Y-174.801
X144.909Y-134.226
X148.124Y-195.831
X148.171Y-156.4
X149.839Y-115.825
X153.054Y-177.43
X153.102Y-137.999
X157.985Y-159.03
X158.032Y-119.598
X158.685Y-200.206
X162.915Y-140.629
X164.115Y-170.535
X167.484Y-205.286
X167.846Y-122.228
X173.929Y-173.165
X176.552Y-212.346
X183.736Y-219.53
X210.325Y-219.56
X217.51Y-212.376
X220.211Y-173.186
X226.29Y-122.237
X226.637Y-205.3
X230.025Y-170.557
X231.221Y-140.638
X235.436Y-200.22
X236.104Y-119.608
X236.151Y-159.039
X241.035Y-138.008
X241.079Y-177.454
X244.297Y-115.835
X245.965Y-156.409
X246.012Y-195.841
X249.224Y-134.249
X250.893Y-174.824
X254.11Y-113.205
X254.155Y-152.65
X255.826Y-193.211
X259.038Y-131.62
X259.088Y-171.037
X262.3Y-109.446
X263.969Y-150.021
X264.016Y-189.452
X267.231Y-127.847
X268.902Y-168.408
X272.114Y-106.816
X272.158Y-146.262
X273.83Y-186.822
X277.045Y-125.217
X277.092Y-164.649
X281.098Y-105.974
X281.972Y-143.632
X282.019Y-183.063
X286.029Y-124.374
X286.906Y-162.019
X290.912Y-103.344
X290.957Y-142.789
X291.833Y-180.434
X295.843Y-121.745
X295.89Y-161.176
X300.283Y-104.015
X300.77Y-140.16
X300.818Y-179.591
X305.216Y-122.402
X305.704Y-158.547
X310.096Y-101.385
X310.144Y-140.817
X310.631Y-176.961
X315.03Y-119.772
X315.077Y-159.204
X319.075Y-100.521
X319.957Y-138.187
X320.007Y-177.605
X324.005Y-118.922
X324.891Y-156.574
X328.889Y-97.891
X328.936Y-137.322
X329.821Y-174.975
X333.819Y-116.292
X333.866Y-155.723
X338.75Y-134.693
X343.68Y-153.094
X349.8Y-141.6
X359.614Y-138.971
T4
X39.401Y-140.291
X55.351Y-154.396
X60.272Y-136.006
X65.202Y-117.605
X69.2Y-176.288
X70.142Y-99.193
X74.131Y-157.887
X79.061Y-139.486
X83.992Y-121.085
X88.399Y-178.264
X88.932Y-102.674
X93.33Y-159.863
X98.27Y-141.451
X103.191Y-123.061
X107.185Y-181.733
X108.121Y-104.66
X112.116Y-163.332
X117.046Y-144.931
X121.986Y-126.519
X125.201Y-188.125
X126.917Y-108.118
X130.141Y-169.713
X135.062Y-151.323
X140.002Y-132.911
X143.217Y-194.517
X144.933Y-114.51
X148.147Y-176.116
X153.078Y-157.715
X158.008Y-139.314
X162.939Y-120.913
X163.084Y-202.746
X169.022Y-171.85
X180.144Y-215.938
X213.918Y-215.968
X225.118Y-171.871
X231.037Y-202.76
X231.197Y-120.922
X236.128Y-139.323
X241.058Y-157.724
X245.986Y-176.139
X249.204Y-114.52
X250.919Y-194.526
X254.131Y-132.935
X259.062Y-151.335
X263.995Y-169.722
X267.207Y-108.131
X268.923Y-188.137
X272.138Y-126.532
X277.065Y-144.947
X281.999Y-163.334
X286.005Y-104.659
X286.926Y-181.749
X290.936Y-123.06
X295.864Y-141.474
X300.797Y-159.861
X305.189Y-102.7
X305.725Y-178.276
X310.123Y-121.087
X315.05Y-139.502
X319.984Y-157.889
X323.982Y-99.206
X324.914Y-176.29
X328.912Y-117.607
X333.843Y-136.008
X338.773Y-154.409
X354.707Y-140.285
T1
X191.484Y-187.751G85X191.484Y-186.451
G05
X202.684Y-187.751G85X202.684Y-186.451
G05
M30
