M48
; DRILL file {KiCad 8.0.4} date 2024-08-02T16:26:35+0100
; FORMAT={-:-/ absolute / metric / decimal}
; #@! TF.CreationDate,2024-08-02T16:26:35+01:00
; #@! TF.GenerationSoftware,Kicad,Pcbnew,8.0.4
; #@! TF.FileFunction,Plated,1,2,PTH
FMAT,2
METRIC
; #@! TA.AperFunction,Plated,PTH,ViaDrill
T1C0.400
; #@! TA.AperFunction,Plated,PTH,ComponentDrill
T2C1.000
; #@! TA.AperFunction,Plated,PTH,ComponentDrill
T3C1.020
; #@! TA.AperFunction,Plated,PTH,ComponentDrill
T4C1.200
; #@! TA.AperFunction,Plated,PTH,ComponentDrill
T5C1.470
%
G90
G05
T1
X150.612Y-151.371
X150.612Y-170.421
X150.866Y-132.321
X161.788Y-153.657
X162.042Y-172.707
X162.296Y-134.861
X169.154Y-170.421
X169.662Y-151.371
X169.916Y-132.321
X180.838Y-153.911
X180.838Y-172.707
X181.6Y-134.861
X187.95Y-170.421
X188.458Y-151.371
X188.712Y-132.321
X199.634Y-134.861
X200.142Y-153.911
X200.142Y-172.707
X207.254Y-170.421
X207.508Y-151.371
X207.762Y-132.321
X216.24Y-137.936
X218.272Y-156.732
X219.192Y-171.691
X219.288Y-134.888
X219.288Y-152.922
T2
X164.678Y-131.84
X164.678Y-150.89
X164.678Y-169.94
X164.678Y-124.22
X164.678Y-143.27
X164.678Y-162.32
X183.728Y-131.84
X183.728Y-150.89
X183.728Y-169.94
X183.728Y-124.22
X183.728Y-143.27
X183.728Y-162.32
X202.778Y-131.84
X202.778Y-150.89
X202.778Y-169.94
X202.778Y-124.22
X202.778Y-143.27
X202.778Y-162.32
X221.828Y-131.84
X221.828Y-150.89
X221.828Y-169.94
X221.828Y-124.22
X221.828Y-143.27
X221.828Y-162.32
T3
X226.4Y-158.002
X226.4Y-127.522
X226.4Y-130.062
X226.4Y-135.142
X226.4Y-155.462
X226.4Y-137.682
X226.4Y-140.222
X226.4Y-147.842
X226.4Y-152.922
X226.4Y-160.542
X226.4Y-168.162
X226.4Y-119.902
X226.4Y-142.762
X226.4Y-145.302
X226.4Y-163.082
X226.4Y-165.622
X226.4Y-132.602
X226.4Y-122.442
X226.4Y-124.982
X226.4Y-150.382
X244.18Y-137.682
X244.18Y-163.082
X244.18Y-165.622
X244.18Y-155.462
X244.18Y-122.442
X244.18Y-124.982
X244.18Y-142.762
X244.18Y-145.302
X244.18Y-168.162
X244.18Y-119.902
X244.18Y-127.522
X244.18Y-135.142
X244.18Y-140.222
X244.18Y-147.842
X244.18Y-150.382
X244.18Y-132.602
X244.18Y-152.922
X244.18Y-158.002
X244.18Y-160.542
X244.18Y-130.062
T4
X156.29Y-122.103
X156.29Y-141.153
X156.29Y-160.203
X161.29Y-124.203
X161.29Y-143.253
X161.29Y-162.303
X175.34Y-122.103
X175.34Y-141.153
X175.34Y-160.203
X180.34Y-124.203
X180.34Y-143.253
X180.34Y-162.303
X194.39Y-122.103
X194.39Y-141.153
X194.39Y-160.203
X199.39Y-124.203
X199.39Y-143.253
X199.39Y-162.303
X213.44Y-122.103
X213.44Y-141.153
X213.44Y-160.203
X218.44Y-124.203
X218.44Y-143.253
X218.44Y-162.303
T5
X152.48Y-125.463
X152.48Y-144.513
X152.48Y-163.563
X158.83Y-122.923
X158.83Y-141.973
X158.83Y-161.023
X171.53Y-125.463
X171.53Y-144.513
X171.53Y-163.563
X177.88Y-122.923
X177.88Y-141.973
X177.88Y-161.023
X190.58Y-125.463
X190.58Y-144.513
X190.58Y-163.563
X196.93Y-122.923
X196.93Y-141.973
X196.93Y-161.023
X209.63Y-125.463
X209.63Y-144.513
X209.63Y-163.563
X215.98Y-122.923
X215.98Y-141.973
X215.98Y-161.023
M30
