G04 #@! TF.GenerationSoftware,KiCad,Pcbnew,8.0.2*
G04 #@! TF.CreationDate,2024-06-03T01:19:23+01:00*
G04 #@! TF.ProjectId,Ashwing66,41736877-696e-4673-9636-2e6b69636164,1*
G04 #@! TF.SameCoordinates,Original*
G04 #@! TF.FileFunction,Paste,Bot*
G04 #@! TF.FilePolarity,Positive*
%FSLAX46Y46*%
G04 Gerber Fmt 4.6, Leading zero omitted, Abs format (unit mm)*
G04 Created by KiCad (PCBNEW 8.0.2) date 2024-06-03 01:19:23*
%MOMM*%
%LPD*%
G01*
G04 APERTURE LIST*
G04 Aperture macros list*
%AMRoundRect*
0 Rectangle with rounded corners*
0 $1 Rounding radius*
0 $2 $3 $4 $5 $6 $7 $8 $9 X,Y pos of 4 corners*
0 Add a 4 corners polygon primitive as box body*
4,1,4,$2,$3,$4,$5,$6,$7,$8,$9,$2,$3,0*
0 Add four circle primitives for the rounded corners*
1,1,$1+$1,$2,$3*
1,1,$1+$1,$4,$5*
1,1,$1+$1,$6,$7*
1,1,$1+$1,$8,$9*
0 Add four rect primitives between the rounded corners*
20,1,$1+$1,$2,$3,$4,$5,0*
20,1,$1+$1,$4,$5,$6,$7,0*
20,1,$1+$1,$6,$7,$8,$9,0*
20,1,$1+$1,$8,$9,$2,$3,0*%
G04 Aperture macros list end*
%ADD10RoundRect,0.082000X0.608642X-0.502656X0.778427X0.130992X-0.608642X0.502656X-0.778427X-0.130992X0*%
%ADD11RoundRect,0.082000X0.778427X-0.130992X0.608642X0.502656X-0.778427X0.130992X-0.608642X-0.502656X0*%
%ADD12RoundRect,0.250000X-0.212132X0.367423X-0.367423X-0.212132X0.212132X-0.367423X0.367423X0.212132X0*%
%ADD13RoundRect,0.250000X-0.367423X0.212132X-0.212132X-0.367423X0.367423X-0.212132X0.212132X0.367423X0*%
%ADD14RoundRect,0.250000X-0.409808X0.109808X-0.109808X-0.409808X0.409808X-0.109808X0.109808X0.409808X0*%
%ADD15RoundRect,0.250000X-0.424264X0.000000X0.000000X-0.424264X0.424264X0.000000X0.000000X0.424264X0*%
%ADD16RoundRect,0.250000X-0.109808X0.409808X-0.409808X-0.109808X0.109808X-0.409808X0.409808X0.109808X0*%
%ADD17RoundRect,0.250000X0.000000X0.424264X-0.424264X0.000000X0.000000X-0.424264X0.424264X0.000000X0*%
%ADD18RoundRect,0.250000X-0.300000X0.300000X-0.300000X-0.300000X0.300000X-0.300000X0.300000X0.300000X0*%
G04 APERTURE END LIST*
D10*
X71141085Y-105491487D03*
X71529310Y-104042600D03*
X66506498Y-102696737D03*
X66118270Y-104145628D03*
D11*
X327995931Y-104160800D03*
X327607700Y-102711913D03*
X322584885Y-104057772D03*
X322973114Y-105506657D03*
X235211335Y-125877194D03*
X234823104Y-124428307D03*
X229800289Y-125774166D03*
X230188518Y-127223051D03*
X309203633Y-107655076D03*
X308815402Y-106206189D03*
X303792587Y-107552048D03*
X304180816Y-109000933D03*
D10*
X145931501Y-120808596D03*
X146319726Y-119359708D03*
X141296911Y-118013849D03*
X140908685Y-119462735D03*
X109120299Y-110958213D03*
X109508524Y-109509325D03*
X104485709Y-108163466D03*
X104097483Y-109612352D03*
D11*
X253217784Y-119474614D03*
X252829553Y-118025727D03*
X247806738Y-119371586D03*
X248194967Y-120820471D03*
X290019562Y-109613615D03*
X289631331Y-108164728D03*
X284608516Y-109510587D03*
X284996745Y-110959472D03*
D10*
X163937948Y-127211164D03*
X164326173Y-125762276D03*
X159303358Y-124416417D03*
X158915132Y-125865303D03*
X89930538Y-108971855D03*
X90318763Y-107522967D03*
X85295948Y-106177108D03*
X84907722Y-107625994D03*
D11*
X271221382Y-113085954D03*
X270833151Y-111637067D03*
X265810336Y-112982926D03*
X266198565Y-114431811D03*
D10*
X127915637Y-114416643D03*
X128303862Y-112967755D03*
X123281047Y-111621896D03*
X122892821Y-113070782D03*
D12*
X73311767Y-128992130D03*
X72587077Y-131696728D03*
D13*
X235794335Y-169930431D03*
X236519035Y-172635027D03*
D12*
X76997148Y-114727559D03*
X76272458Y-117432157D03*
D14*
X219591655Y-199426492D03*
X220991659Y-201851362D03*
D12*
X83224096Y-92095407D03*
X82499406Y-94800005D03*
D13*
X276715643Y-175554480D03*
X277440343Y-178259076D03*
X285649971Y-135294262D03*
X286374671Y-137998858D03*
D12*
X124382234Y-159229773D03*
X123657544Y-161934371D03*
D13*
X214918894Y-165682470D03*
X215643594Y-168387066D03*
X261921287Y-120365722D03*
X262645987Y-123070318D03*
D15*
X202051702Y-215748977D03*
X204031608Y-217728871D03*
D13*
X304836884Y-133321816D03*
X305561584Y-136026412D03*
D12*
X136206972Y-188024727D03*
X135482282Y-190729325D03*
X111296866Y-134436928D03*
X110572176Y-137141526D03*
D13*
X220939393Y-114657609D03*
X221664093Y-117362205D03*
X294885983Y-96433561D03*
X295610683Y-99138157D03*
X275699057Y-98406006D03*
X276423757Y-101110602D03*
X295508687Y-172068083D03*
X296233387Y-174772679D03*
X309767387Y-151722704D03*
X310492087Y-154427300D03*
D12*
X151040308Y-132859156D03*
X150315618Y-135563754D03*
X157197862Y-110460296D03*
X156473172Y-113164894D03*
D13*
X230863830Y-151529552D03*
X231588530Y-154234148D03*
X313675433Y-92953196D03*
X314400133Y-95657792D03*
D12*
X62371509Y-169846289D03*
X61646819Y-172550887D03*
D13*
X256655539Y-101944087D03*
X257380239Y-104648683D03*
X259664108Y-186109827D03*
X260388808Y-188814423D03*
D16*
X160255679Y-191148811D03*
X158855683Y-193573687D03*
D17*
X180399513Y-204015714D03*
X178419619Y-205995620D03*
D12*
X64434642Y-88615051D03*
X63709952Y-91319649D03*
D13*
X226156589Y-133091225D03*
X226881289Y-135795821D03*
D12*
X87550098Y-149385465D03*
X86825408Y-152090063D03*
D13*
X319614951Y-115435228D03*
X320339651Y-118139824D03*
D12*
X49577166Y-143895277D03*
X48852476Y-146599875D03*
X97441459Y-112566987D03*
X96716769Y-115271585D03*
X142388677Y-165632343D03*
X141663987Y-168336941D03*
D13*
X240741824Y-188359095D03*
X241466524Y-191063691D03*
D12*
X106366351Y-152837811D03*
X105641661Y-155542409D03*
D13*
X328311487Y-148308086D03*
X329036187Y-151012682D03*
X323626337Y-129841463D03*
X324351037Y-132546059D03*
X299906384Y-114920928D03*
X300631084Y-117625524D03*
D12*
X134243158Y-122452816D03*
X133518468Y-125157414D03*
D13*
X238897282Y-108267013D03*
X239621982Y-110971609D03*
X248848189Y-145155276D03*
X249572889Y-147859872D03*
D12*
X101451497Y-171204894D03*
X100726807Y-173909492D03*
X147319181Y-147231450D03*
X146594491Y-149936048D03*
D13*
X290580469Y-153695155D03*
X291305169Y-156399751D03*
X344563448Y-134133421D03*
X345288148Y-136838017D03*
X271782300Y-157167496D03*
X272507000Y-159872092D03*
D12*
X129312734Y-140828879D03*
X128588044Y-143533477D03*
X33670414Y-129849723D03*
X32945724Y-132554321D03*
X116227366Y-116036043D03*
X115502676Y-118740641D03*
D13*
X314700733Y-170109683D03*
X315425433Y-172814279D03*
D12*
X139191411Y-104057722D03*
X138466721Y-106762320D03*
X163314317Y-161430104D03*
X162589627Y-164134702D03*
D13*
X244898482Y-131003758D03*
X245623182Y-133708354D03*
X253800777Y-163527863D03*
X254525477Y-166232459D03*
X280719462Y-116893378D03*
X281444162Y-119597974D03*
D12*
X82656163Y-167746460D03*
X81931473Y-170451058D03*
X119457938Y-177607467D03*
X118733248Y-180312065D03*
D13*
X266851788Y-138766609D03*
X267576488Y-141471205D03*
D12*
X68366281Y-147376891D03*
X67641591Y-150081489D03*
X121175550Y-97665773D03*
X120450860Y-100370371D03*
X59452821Y-107110896D03*
X58728131Y-109815494D03*
X54276980Y-125446038D03*
X53552290Y-128150636D03*
X92510955Y-130967878D03*
X91786265Y-133672476D03*
X102177945Y-94005404D03*
X101453255Y-96710002D03*
D18*
X192503552Y-174150917D03*
X192503558Y-176950919D03*
M02*
