G04 #@! TF.GenerationSoftware,KiCad,Pcbnew,8.0.4*
G04 #@! TF.CreationDate,2024-08-02T16:26:39+01:00*
G04 #@! TF.ProjectId,Ashwing66_mini,41736877-696e-4673-9636-5f6d696e692e,1*
G04 #@! TF.SameCoordinates,Original*
G04 #@! TF.FileFunction,Paste,Bot*
G04 #@! TF.FilePolarity,Positive*
%FSLAX46Y46*%
G04 Gerber Fmt 4.6, Leading zero omitted, Abs format (unit mm)*
G04 Created by KiCad (PCBNEW 8.0.4) date 2024-08-02 16:26:39*
%MOMM*%
%LPD*%
G01*
G04 APERTURE LIST*
%ADD10R,1.700000X0.825000*%
%ADD11R,1.500000X1.800000*%
G04 APERTURE END LIST*
D10*
X178136557Y-170472917D03*
X172536557Y-170472917D03*
X172536557Y-171872917D03*
X178136558Y-171872917D03*
X197186557Y-151422917D03*
X191586557Y-151422917D03*
X191586557Y-152822917D03*
X197186558Y-152822917D03*
X153486557Y-152822917D03*
X159086557Y-151422917D03*
X153486557Y-151422917D03*
X159086558Y-152822917D03*
X159086557Y-132372917D03*
X153486557Y-132372917D03*
X153486557Y-133772917D03*
X159086558Y-133772917D03*
X178136557Y-132372917D03*
X172536557Y-132372917D03*
X172536557Y-133772917D03*
X178136558Y-133772917D03*
X216236557Y-170472917D03*
X210636557Y-170472917D03*
X210636557Y-171872917D03*
X216236558Y-171872917D03*
X216236557Y-151422917D03*
X210636557Y-151422917D03*
X210636557Y-152822917D03*
X216236558Y-152822917D03*
X153486557Y-171872917D03*
X159086557Y-170472917D03*
X159086558Y-171872917D03*
X153486557Y-170472917D03*
X197186557Y-170472917D03*
X191586557Y-170472917D03*
X191586557Y-171872917D03*
X197186558Y-171872917D03*
X216236557Y-132372917D03*
X210636557Y-132372917D03*
X210636557Y-133772917D03*
X216236558Y-133772917D03*
X178136557Y-151422917D03*
X172536557Y-151422917D03*
X172536557Y-152822917D03*
X178136558Y-152822917D03*
X197186557Y-132372917D03*
X191586557Y-132372917D03*
X191586557Y-133772917D03*
X197186558Y-133772917D03*
D11*
X221827903Y-145380215D03*
X221827905Y-148780219D03*
X183727903Y-145380215D03*
X183727905Y-148780219D03*
X164677903Y-164430215D03*
X164677905Y-167830219D03*
X202777903Y-126330215D03*
X202777905Y-129730219D03*
X164677903Y-126330215D03*
X164677905Y-129730219D03*
X202777903Y-164430215D03*
X202777905Y-167830219D03*
X183727903Y-164430215D03*
X183727905Y-167830219D03*
X164677903Y-145380215D03*
X164677905Y-148780219D03*
X183727903Y-126330215D03*
X183727905Y-129730219D03*
X221827904Y-164430217D03*
X221827906Y-167830221D03*
X202777903Y-145380215D03*
X202777905Y-148780219D03*
X221827903Y-126330215D03*
X221827905Y-129730219D03*
M02*
