M48
; DRILL file {KiCad 8.0.2} date 2024-06-03T01:19:17+0100
; FORMAT={-:-/ absolute / metric / decimal}
; #@! TF.CreationDate,2024-06-03T01:19:17+01:00
; #@! TF.GenerationSoftware,Kicad,Pcbnew,8.0.2
; #@! TF.FileFunction,Plated,1,2,PTH
FMAT,2
METRIC
; #@! TA.AperFunction,Plated,PTH,ViaDrill
T1C0.400
; #@! TA.AperFunction,Plated,PTH,ComponentDrill
T2C0.500
; #@! TA.AperFunction,Plated,PTH,ComponentDrill
T3C1.000
; #@! TA.AperFunction,Plated,PTH,ComponentDrill
T4C1.020
; #@! TA.AperFunction,Plated,PTH,ComponentDrill
T5C1.200
; #@! TA.AperFunction,Plated,PTH,ComponentDrill
T6C1.470
; #@! TA.AperFunction,Plated,PTH,ComponentDrill
T7C4.700
%
G90
G05
T1
X-106.851Y41.314
X56.176Y-167.564
X64.954Y-102.266
X70.248Y-107.531
X75.179Y-142.866
X79.179Y-125.316
X83.519Y-106.091
X93.304Y-109.816
X102.054Y-108.841
X112.579Y-111.741
X120.504Y-191.766
X121.304Y-111.641
X132.979Y-116.516
X135.329Y-136.441
X139.229Y-117.491
X148.279Y-162.241
X149.77Y-121.467
X157.322Y-123.517
X168.78Y-126.96
X180.196Y-116.539
X181.241Y-142.179
X181.404Y-147.191
X182.421Y-139.439
X184.234Y-112.751
X184.304Y-130.541
X190.149Y-153.381
X190.574Y-150.856
X190.999Y-148.306
X191.621Y-139.439
X191.629Y-142.991
X191.729Y-146.941
X197.084Y-196.856
X197.636Y-147.66
X199.704Y-141.966
X203.621Y-112.764
X209.311Y-128.012
X210.146Y-134.339
X220.125Y-129.929
X227.729Y-126.191
X228.046Y-127.806
X241.787Y-122.675
X245.327Y-118.983
X247.629Y-161.091
X258.904Y-117.791
X263.404Y-113.591
X269.579Y-133.241
X275.179Y-111.966
X293.754Y-108.591
X301.329Y-108.091
X310.179Y-164.766
X312.626Y-106.256
X320.129Y-104.641
X327.304Y-123.666
X350.754Y-153.191
T2
X196.554Y-141.941
X197.554Y-141.941
T3
X194.584Y-180.101
X194.584Y-194.601
X197.084Y-194.601
X199.584Y-180.101
X199.584Y-194.601
T4
X188.177Y-122.911
X188.177Y-150.851
X188.177Y-153.391
X188.177Y-120.371
X188.177Y-127.991
X188.177Y-125.451
X188.177Y-130.531
X188.177Y-133.071
X188.177Y-140.691
X188.177Y-145.771
X188.177Y-148.311
X188.177Y-155.931
X188.177Y-161.011
X188.177Y-112.751
X188.177Y-135.611
X188.177Y-138.151
X188.177Y-158.471
X188.177Y-115.291
X188.177Y-117.831
X188.177Y-143.231
X194.527Y-160.781
X197.067Y-160.781
X199.607Y-160.781
X205.957Y-130.531
X205.957Y-155.931
X205.957Y-158.471
X205.957Y-115.291
X205.957Y-135.611
X205.957Y-138.151
X205.957Y-161.011
X205.957Y-112.751
X205.957Y-117.831
X205.957Y-125.451
X205.957Y-127.991
X205.957Y-133.071
X205.957Y-140.691
X205.957Y-143.231
X205.957Y-148.311
X205.957Y-145.771
X205.957Y-153.391
X205.957Y-120.371
X205.957Y-122.911
X205.957Y-150.851
T5
X40.929Y-134.592
X45.215Y-137.914
X56.878Y-148.697
X61.164Y-152.02
X61.799Y-130.307
X66.085Y-133.629
X66.729Y-111.906
X70.727Y-170.589
X71.015Y-115.228
X71.669Y-93.494
X75.013Y-173.911
X75.658Y-152.188
X75.955Y-96.817
X79.944Y-155.511
X80.588Y-133.787
X84.874Y-137.11
X85.519Y-115.386
X89.805Y-118.709
X89.926Y-172.565
X90.459Y-96.975
X94.212Y-175.887
X94.745Y-100.297
X94.857Y-154.164
X99.143Y-157.486
X99.797Y-135.752
X104.083Y-139.075
X104.718Y-117.362
X108.712Y-176.034
X109.004Y-120.685
X109.648Y-98.961
X112.998Y-179.356
X113.643Y-157.633
X113.934Y-102.284
X117.929Y-160.955
X118.573Y-139.232
X122.859Y-142.554
X123.513Y-120.82
X126.728Y-182.426
X127.799Y-124.143
X128.444Y-102.42
X131.014Y-185.748
X131.668Y-164.014
X132.73Y-105.742
X135.954Y-167.337
X136.589Y-145.624
X140.875Y-148.946
X141.529Y-127.212
X144.744Y-188.818
X145.815Y-130.535
X146.46Y-108.811
X149.03Y-192.14
X149.675Y-170.417
X150.746Y-112.134
X153.961Y-173.739
X154.605Y-152.016
X158.891Y-155.338
X159.536Y-133.615
X163.822Y-136.937
X164.466Y-115.214
X166.034Y-197.636
X168.752Y-118.537
X169.314Y-201.955
X170.549Y-166.151
X174.835Y-169.474
X184.316Y-211.766
X186.367Y-216.787
X209.746Y-211.796
X214.766Y-209.745
X223.591Y-166.172
X228.087Y-197.651
X228.964Y-166.907
X229.67Y-115.223
X233.467Y-196.969
X234.601Y-133.624
X235.043Y-115.958
X239.531Y-152.025
X239.974Y-134.359
X244.459Y-170.44
X244.904Y-152.759
X247.677Y-108.821
X249.392Y-188.827
X249.832Y-171.174
X252.604Y-127.236
X253.05Y-109.555
X254.765Y-189.561
X257.535Y-145.636
X257.977Y-127.97
X262.468Y-164.023
X262.908Y-146.371
X265.68Y-102.432
X267.396Y-182.438
X267.841Y-164.758
X270.611Y-120.833
X271.053Y-103.166
X272.769Y-183.173
X275.538Y-139.248
X275.984Y-121.567
X280.472Y-157.635
X280.911Y-139.982
X284.478Y-98.96
X285.399Y-176.05
X285.845Y-158.369
X289.409Y-117.361
X289.851Y-99.694
X290.772Y-176.784
X294.336Y-135.775
X294.782Y-118.095
X299.27Y-154.162
X299.71Y-136.51
X303.662Y-97.001
X304.197Y-172.577
X304.643Y-154.897
X308.596Y-115.388
X309.036Y-97.736
X309.571Y-173.312
X313.523Y-133.803
X313.969Y-116.123
X318.457Y-152.19
X318.897Y-134.537
X322.455Y-93.507
X323.387Y-170.591
X323.83Y-152.924
X327.385Y-111.908
X327.828Y-94.241
X328.76Y-171.325
X332.316Y-130.309
X332.758Y-112.642
X337.246Y-148.71
X337.689Y-131.043
X342.619Y-149.444
X353.18Y-134.586
X358.553Y-135.321
T6
X36.379Y-136.851
X43.17Y-136.041
X52.328Y-150.956
X57.249Y-132.566
X59.119Y-150.146
X62.179Y-114.165
X64.04Y-131.756
X66.177Y-172.848
X67.119Y-95.754
X68.97Y-113.355
X71.108Y-154.447
X72.968Y-172.038
X73.91Y-94.944
X76.038Y-136.047
X77.899Y-153.637
X80.969Y-117.646
X82.829Y-135.237
X85.377Y-174.824
X85.909Y-99.234
X87.76Y-116.836
X90.307Y-156.423
X92.168Y-174.014
X92.7Y-98.424
X95.247Y-138.012
X97.098Y-155.613
X100.168Y-119.621
X102.038Y-137.202
X104.162Y-178.293
X105.099Y-101.221
X106.959Y-118.811
X109.093Y-159.892
X110.953Y-177.483
X111.89Y-100.411
X114.023Y-141.491
X115.884Y-159.082
X118.963Y-123.08
X120.815Y-140.681
X122.178Y-184.685
X123.894Y-104.679
X125.754Y-122.27
X127.118Y-166.274
X128.969Y-183.875
X130.685Y-103.869
X132.039Y-147.883
X133.909Y-165.464
X136.979Y-129.472
X138.83Y-147.073
X140.194Y-191.077
X141.91Y-111.071
X143.77Y-128.662
X145.125Y-172.676
X146.985Y-190.267
X148.701Y-110.261
X150.055Y-154.275
X151.916Y-171.866
X154.986Y-135.874
X156.846Y-153.465
X159.916Y-117.473
X161.055Y-198.641
X161.777Y-135.064
X165.999Y-168.411
X166.707Y-116.664
X167.824Y-199.616
X172.79Y-167.601
X179.246Y-211.448
X185.532Y-214.142
X209.427Y-216.866
X212.121Y-210.58
X220.781Y-170.404
X226.257Y-166.307
X226.467Y-202.466
X226.86Y-119.455
X230.697Y-197.091
X231.79Y-137.856
X232.336Y-115.358
X236.721Y-156.257
X237.266Y-133.759
X241.648Y-174.672
X242.197Y-152.16
X244.866Y-113.052
X246.582Y-193.059
X247.124Y-170.575
X249.794Y-131.467
X250.342Y-108.955
X252.058Y-188.962
X254.724Y-149.868
X255.27Y-127.37
X259.658Y-168.255
X260.2Y-145.771
X262.87Y-106.664
X264.585Y-186.67
X265.134Y-164.158
X267.8Y-125.065
X268.346Y-102.567
X270.061Y-182.573
X272.728Y-143.479
X273.276Y-120.968
X277.661Y-161.866
X278.204Y-139.382
X281.668Y-103.191
X282.589Y-180.281
X283.137Y-157.769
X286.598Y-121.592
X287.144Y-99.094
X288.065Y-176.184
X291.526Y-140.007
X292.075Y-117.495
X296.459Y-158.394
X297.002Y-135.91
X300.852Y-101.233
X301.387Y-176.809
X301.936Y-154.297
X305.785Y-119.62
X306.328Y-97.136
X306.863Y-172.712
X310.713Y-138.035
X311.261Y-115.523
X315.646Y-156.422
X316.189Y-133.938
X319.644Y-97.739
X320.577Y-174.822
X321.122Y-152.325
X324.575Y-116.139
X325.12Y-93.642
X326.053Y-170.726
X329.505Y-134.54
X330.051Y-112.042
X334.436Y-152.941
X334.981Y-130.443
X339.912Y-148.844
X350.37Y-138.818
X355.846Y-134.721
T7
X62.29Y-165.32
X77.094Y-110.069
X136.663Y-182.168
X151.468Y-126.917
X167.054Y-186.688
X227.098Y-186.761
X242.684Y-126.99
X257.489Y-182.241
X317.058Y-110.142
X331.862Y-165.393
M30
