G04 #@! TF.GenerationSoftware,KiCad,Pcbnew,8.0.4*
G04 #@! TF.CreationDate,2024-08-02T16:26:39+01:00*
G04 #@! TF.ProjectId,Ashwing66_mini,41736877-696e-4673-9636-5f6d696e692e,1*
G04 #@! TF.SameCoordinates,Original*
G04 #@! TF.FileFunction,Legend,Top*
G04 #@! TF.FilePolarity,Positive*
%FSLAX46Y46*%
G04 Gerber Fmt 4.6, Leading zero omitted, Abs format (unit mm)*
G04 Created by KiCad (PCBNEW 8.0.4) date 2024-08-02 16:26:39*
%MOMM*%
%LPD*%
G01*
G04 APERTURE LIST*
%ADD10C,0.150000*%
%ADD11C,0.120000*%
%ADD12C,1.700000*%
%ADD13C,1.750000*%
%ADD14C,4.000000*%
%ADD15C,2.250000*%
%ADD16C,2.000000*%
%ADD17O,2.250000X2.250000*%
%ADD18O,1.700000X1.700000*%
%ADD19R,3.500000X1.700000*%
%ADD20R,1.700000X1.700000*%
G04 APERTURE END LIST*
D10*
X174601461Y-158683739D02*
X174601461Y-157683739D01*
X175172889Y-158683739D02*
X174744318Y-158112310D01*
X175172889Y-157683739D02*
X174601461Y-158255167D01*
X175791937Y-157683739D02*
X175887175Y-157683739D01*
X175887175Y-157683739D02*
X175982413Y-157731358D01*
X175982413Y-157731358D02*
X176030032Y-157778977D01*
X176030032Y-157778977D02*
X176077651Y-157874215D01*
X176077651Y-157874215D02*
X176125270Y-158064691D01*
X176125270Y-158064691D02*
X176125270Y-158302786D01*
X176125270Y-158302786D02*
X176077651Y-158493262D01*
X176077651Y-158493262D02*
X176030032Y-158588500D01*
X176030032Y-158588500D02*
X175982413Y-158636120D01*
X175982413Y-158636120D02*
X175887175Y-158683739D01*
X175887175Y-158683739D02*
X175791937Y-158683739D01*
X175791937Y-158683739D02*
X175696699Y-158636120D01*
X175696699Y-158636120D02*
X175649080Y-158588500D01*
X175649080Y-158588500D02*
X175601461Y-158493262D01*
X175601461Y-158493262D02*
X175553842Y-158302786D01*
X175553842Y-158302786D02*
X175553842Y-158064691D01*
X175553842Y-158064691D02*
X175601461Y-157874215D01*
X175601461Y-157874215D02*
X175649080Y-157778977D01*
X175649080Y-157778977D02*
X175696699Y-157731358D01*
X175696699Y-157731358D02*
X175791937Y-157683739D01*
X173839560Y-173907926D02*
X173982417Y-173955545D01*
X173982417Y-173955545D02*
X174030036Y-174003164D01*
X174030036Y-174003164D02*
X174077655Y-174098402D01*
X174077655Y-174098402D02*
X174077655Y-174241259D01*
X174077655Y-174241259D02*
X174030036Y-174336497D01*
X174030036Y-174336497D02*
X173982417Y-174384117D01*
X173982417Y-174384117D02*
X173887179Y-174431736D01*
X173887179Y-174431736D02*
X173506227Y-174431736D01*
X173506227Y-174431736D02*
X173506227Y-173431736D01*
X173506227Y-173431736D02*
X173839560Y-173431736D01*
X173839560Y-173431736D02*
X173934798Y-173479355D01*
X173934798Y-173479355D02*
X173982417Y-173526974D01*
X173982417Y-173526974D02*
X174030036Y-173622212D01*
X174030036Y-173622212D02*
X174030036Y-173717450D01*
X174030036Y-173717450D02*
X173982417Y-173812688D01*
X173982417Y-173812688D02*
X173934798Y-173860307D01*
X173934798Y-173860307D02*
X173839560Y-173907926D01*
X173839560Y-173907926D02*
X173506227Y-173907926D01*
X174649084Y-174431736D02*
X174553846Y-174384117D01*
X174553846Y-174384117D02*
X174506227Y-174288878D01*
X174506227Y-174288878D02*
X174506227Y-173431736D01*
X175458608Y-174431736D02*
X175458608Y-173907926D01*
X175458608Y-173907926D02*
X175410989Y-173812688D01*
X175410989Y-173812688D02*
X175315751Y-173765069D01*
X175315751Y-173765069D02*
X175125275Y-173765069D01*
X175125275Y-173765069D02*
X175030037Y-173812688D01*
X175458608Y-174384117D02*
X175363370Y-174431736D01*
X175363370Y-174431736D02*
X175125275Y-174431736D01*
X175125275Y-174431736D02*
X175030037Y-174384117D01*
X175030037Y-174384117D02*
X174982418Y-174288878D01*
X174982418Y-174288878D02*
X174982418Y-174193640D01*
X174982418Y-174193640D02*
X175030037Y-174098402D01*
X175030037Y-174098402D02*
X175125275Y-174050783D01*
X175125275Y-174050783D02*
X175363370Y-174050783D01*
X175363370Y-174050783D02*
X175458608Y-174003164D01*
X175934799Y-173765069D02*
X175934799Y-174431736D01*
X175934799Y-173860307D02*
X175982418Y-173812688D01*
X175982418Y-173812688D02*
X176077656Y-173765069D01*
X176077656Y-173765069D02*
X176220513Y-173765069D01*
X176220513Y-173765069D02*
X176315751Y-173812688D01*
X176315751Y-173812688D02*
X176363370Y-173907926D01*
X176363370Y-173907926D02*
X176363370Y-174431736D01*
X176839561Y-174431736D02*
X176839561Y-173431736D01*
X176934799Y-174050783D02*
X177220513Y-174431736D01*
X177220513Y-173765069D02*
X176839561Y-174146021D01*
X193651461Y-139633739D02*
X193651461Y-138633739D01*
X194222889Y-139633739D02*
X193794318Y-139062310D01*
X194222889Y-138633739D02*
X193651461Y-139205167D01*
X194841937Y-138633739D02*
X194937175Y-138633739D01*
X194937175Y-138633739D02*
X195032413Y-138681358D01*
X195032413Y-138681358D02*
X195080032Y-138728977D01*
X195080032Y-138728977D02*
X195127651Y-138824215D01*
X195127651Y-138824215D02*
X195175270Y-139014691D01*
X195175270Y-139014691D02*
X195175270Y-139252786D01*
X195175270Y-139252786D02*
X195127651Y-139443262D01*
X195127651Y-139443262D02*
X195080032Y-139538500D01*
X195080032Y-139538500D02*
X195032413Y-139586120D01*
X195032413Y-139586120D02*
X194937175Y-139633739D01*
X194937175Y-139633739D02*
X194841937Y-139633739D01*
X194841937Y-139633739D02*
X194746699Y-139586120D01*
X194746699Y-139586120D02*
X194699080Y-139538500D01*
X194699080Y-139538500D02*
X194651461Y-139443262D01*
X194651461Y-139443262D02*
X194603842Y-139252786D01*
X194603842Y-139252786D02*
X194603842Y-139014691D01*
X194603842Y-139014691D02*
X194651461Y-138824215D01*
X194651461Y-138824215D02*
X194699080Y-138728977D01*
X194699080Y-138728977D02*
X194746699Y-138681358D01*
X194746699Y-138681358D02*
X194841937Y-138633739D01*
X192889560Y-154857926D02*
X193032417Y-154905545D01*
X193032417Y-154905545D02*
X193080036Y-154953164D01*
X193080036Y-154953164D02*
X193127655Y-155048402D01*
X193127655Y-155048402D02*
X193127655Y-155191259D01*
X193127655Y-155191259D02*
X193080036Y-155286497D01*
X193080036Y-155286497D02*
X193032417Y-155334117D01*
X193032417Y-155334117D02*
X192937179Y-155381736D01*
X192937179Y-155381736D02*
X192556227Y-155381736D01*
X192556227Y-155381736D02*
X192556227Y-154381736D01*
X192556227Y-154381736D02*
X192889560Y-154381736D01*
X192889560Y-154381736D02*
X192984798Y-154429355D01*
X192984798Y-154429355D02*
X193032417Y-154476974D01*
X193032417Y-154476974D02*
X193080036Y-154572212D01*
X193080036Y-154572212D02*
X193080036Y-154667450D01*
X193080036Y-154667450D02*
X193032417Y-154762688D01*
X193032417Y-154762688D02*
X192984798Y-154810307D01*
X192984798Y-154810307D02*
X192889560Y-154857926D01*
X192889560Y-154857926D02*
X192556227Y-154857926D01*
X193699084Y-155381736D02*
X193603846Y-155334117D01*
X193603846Y-155334117D02*
X193556227Y-155238878D01*
X193556227Y-155238878D02*
X193556227Y-154381736D01*
X194508608Y-155381736D02*
X194508608Y-154857926D01*
X194508608Y-154857926D02*
X194460989Y-154762688D01*
X194460989Y-154762688D02*
X194365751Y-154715069D01*
X194365751Y-154715069D02*
X194175275Y-154715069D01*
X194175275Y-154715069D02*
X194080037Y-154762688D01*
X194508608Y-155334117D02*
X194413370Y-155381736D01*
X194413370Y-155381736D02*
X194175275Y-155381736D01*
X194175275Y-155381736D02*
X194080037Y-155334117D01*
X194080037Y-155334117D02*
X194032418Y-155238878D01*
X194032418Y-155238878D02*
X194032418Y-155143640D01*
X194032418Y-155143640D02*
X194080037Y-155048402D01*
X194080037Y-155048402D02*
X194175275Y-155000783D01*
X194175275Y-155000783D02*
X194413370Y-155000783D01*
X194413370Y-155000783D02*
X194508608Y-154953164D01*
X194984799Y-154715069D02*
X194984799Y-155381736D01*
X194984799Y-154810307D02*
X195032418Y-154762688D01*
X195032418Y-154762688D02*
X195127656Y-154715069D01*
X195127656Y-154715069D02*
X195270513Y-154715069D01*
X195270513Y-154715069D02*
X195365751Y-154762688D01*
X195365751Y-154762688D02*
X195413370Y-154857926D01*
X195413370Y-154857926D02*
X195413370Y-155381736D01*
X195889561Y-155381736D02*
X195889561Y-154381736D01*
X195984799Y-155000783D02*
X196270513Y-155381736D01*
X196270513Y-154715069D02*
X195889561Y-155096021D01*
X155551461Y-139633739D02*
X155551461Y-138633739D01*
X156122889Y-139633739D02*
X155694318Y-139062310D01*
X156122889Y-138633739D02*
X155551461Y-139205167D01*
X156741937Y-138633739D02*
X156837175Y-138633739D01*
X156837175Y-138633739D02*
X156932413Y-138681358D01*
X156932413Y-138681358D02*
X156980032Y-138728977D01*
X156980032Y-138728977D02*
X157027651Y-138824215D01*
X157027651Y-138824215D02*
X157075270Y-139014691D01*
X157075270Y-139014691D02*
X157075270Y-139252786D01*
X157075270Y-139252786D02*
X157027651Y-139443262D01*
X157027651Y-139443262D02*
X156980032Y-139538500D01*
X156980032Y-139538500D02*
X156932413Y-139586120D01*
X156932413Y-139586120D02*
X156837175Y-139633739D01*
X156837175Y-139633739D02*
X156741937Y-139633739D01*
X156741937Y-139633739D02*
X156646699Y-139586120D01*
X156646699Y-139586120D02*
X156599080Y-139538500D01*
X156599080Y-139538500D02*
X156551461Y-139443262D01*
X156551461Y-139443262D02*
X156503842Y-139252786D01*
X156503842Y-139252786D02*
X156503842Y-139014691D01*
X156503842Y-139014691D02*
X156551461Y-138824215D01*
X156551461Y-138824215D02*
X156599080Y-138728977D01*
X156599080Y-138728977D02*
X156646699Y-138681358D01*
X156646699Y-138681358D02*
X156741937Y-138633739D01*
X154789560Y-154857926D02*
X154932417Y-154905545D01*
X154932417Y-154905545D02*
X154980036Y-154953164D01*
X154980036Y-154953164D02*
X155027655Y-155048402D01*
X155027655Y-155048402D02*
X155027655Y-155191259D01*
X155027655Y-155191259D02*
X154980036Y-155286497D01*
X154980036Y-155286497D02*
X154932417Y-155334117D01*
X154932417Y-155334117D02*
X154837179Y-155381736D01*
X154837179Y-155381736D02*
X154456227Y-155381736D01*
X154456227Y-155381736D02*
X154456227Y-154381736D01*
X154456227Y-154381736D02*
X154789560Y-154381736D01*
X154789560Y-154381736D02*
X154884798Y-154429355D01*
X154884798Y-154429355D02*
X154932417Y-154476974D01*
X154932417Y-154476974D02*
X154980036Y-154572212D01*
X154980036Y-154572212D02*
X154980036Y-154667450D01*
X154980036Y-154667450D02*
X154932417Y-154762688D01*
X154932417Y-154762688D02*
X154884798Y-154810307D01*
X154884798Y-154810307D02*
X154789560Y-154857926D01*
X154789560Y-154857926D02*
X154456227Y-154857926D01*
X155599084Y-155381736D02*
X155503846Y-155334117D01*
X155503846Y-155334117D02*
X155456227Y-155238878D01*
X155456227Y-155238878D02*
X155456227Y-154381736D01*
X156408608Y-155381736D02*
X156408608Y-154857926D01*
X156408608Y-154857926D02*
X156360989Y-154762688D01*
X156360989Y-154762688D02*
X156265751Y-154715069D01*
X156265751Y-154715069D02*
X156075275Y-154715069D01*
X156075275Y-154715069D02*
X155980037Y-154762688D01*
X156408608Y-155334117D02*
X156313370Y-155381736D01*
X156313370Y-155381736D02*
X156075275Y-155381736D01*
X156075275Y-155381736D02*
X155980037Y-155334117D01*
X155980037Y-155334117D02*
X155932418Y-155238878D01*
X155932418Y-155238878D02*
X155932418Y-155143640D01*
X155932418Y-155143640D02*
X155980037Y-155048402D01*
X155980037Y-155048402D02*
X156075275Y-155000783D01*
X156075275Y-155000783D02*
X156313370Y-155000783D01*
X156313370Y-155000783D02*
X156408608Y-154953164D01*
X156884799Y-154715069D02*
X156884799Y-155381736D01*
X156884799Y-154810307D02*
X156932418Y-154762688D01*
X156932418Y-154762688D02*
X157027656Y-154715069D01*
X157027656Y-154715069D02*
X157170513Y-154715069D01*
X157170513Y-154715069D02*
X157265751Y-154762688D01*
X157265751Y-154762688D02*
X157313370Y-154857926D01*
X157313370Y-154857926D02*
X157313370Y-155381736D01*
X157789561Y-155381736D02*
X157789561Y-154381736D01*
X157884799Y-155000783D02*
X158170513Y-155381736D01*
X158170513Y-154715069D02*
X157789561Y-155096021D01*
X155551461Y-120583739D02*
X155551461Y-119583739D01*
X156122889Y-120583739D02*
X155694318Y-120012310D01*
X156122889Y-119583739D02*
X155551461Y-120155167D01*
X156741937Y-119583739D02*
X156837175Y-119583739D01*
X156837175Y-119583739D02*
X156932413Y-119631358D01*
X156932413Y-119631358D02*
X156980032Y-119678977D01*
X156980032Y-119678977D02*
X157027651Y-119774215D01*
X157027651Y-119774215D02*
X157075270Y-119964691D01*
X157075270Y-119964691D02*
X157075270Y-120202786D01*
X157075270Y-120202786D02*
X157027651Y-120393262D01*
X157027651Y-120393262D02*
X156980032Y-120488500D01*
X156980032Y-120488500D02*
X156932413Y-120536120D01*
X156932413Y-120536120D02*
X156837175Y-120583739D01*
X156837175Y-120583739D02*
X156741937Y-120583739D01*
X156741937Y-120583739D02*
X156646699Y-120536120D01*
X156646699Y-120536120D02*
X156599080Y-120488500D01*
X156599080Y-120488500D02*
X156551461Y-120393262D01*
X156551461Y-120393262D02*
X156503842Y-120202786D01*
X156503842Y-120202786D02*
X156503842Y-119964691D01*
X156503842Y-119964691D02*
X156551461Y-119774215D01*
X156551461Y-119774215D02*
X156599080Y-119678977D01*
X156599080Y-119678977D02*
X156646699Y-119631358D01*
X156646699Y-119631358D02*
X156741937Y-119583739D01*
X154789560Y-135807926D02*
X154932417Y-135855545D01*
X154932417Y-135855545D02*
X154980036Y-135903164D01*
X154980036Y-135903164D02*
X155027655Y-135998402D01*
X155027655Y-135998402D02*
X155027655Y-136141259D01*
X155027655Y-136141259D02*
X154980036Y-136236497D01*
X154980036Y-136236497D02*
X154932417Y-136284117D01*
X154932417Y-136284117D02*
X154837179Y-136331736D01*
X154837179Y-136331736D02*
X154456227Y-136331736D01*
X154456227Y-136331736D02*
X154456227Y-135331736D01*
X154456227Y-135331736D02*
X154789560Y-135331736D01*
X154789560Y-135331736D02*
X154884798Y-135379355D01*
X154884798Y-135379355D02*
X154932417Y-135426974D01*
X154932417Y-135426974D02*
X154980036Y-135522212D01*
X154980036Y-135522212D02*
X154980036Y-135617450D01*
X154980036Y-135617450D02*
X154932417Y-135712688D01*
X154932417Y-135712688D02*
X154884798Y-135760307D01*
X154884798Y-135760307D02*
X154789560Y-135807926D01*
X154789560Y-135807926D02*
X154456227Y-135807926D01*
X155599084Y-136331736D02*
X155503846Y-136284117D01*
X155503846Y-136284117D02*
X155456227Y-136188878D01*
X155456227Y-136188878D02*
X155456227Y-135331736D01*
X156408608Y-136331736D02*
X156408608Y-135807926D01*
X156408608Y-135807926D02*
X156360989Y-135712688D01*
X156360989Y-135712688D02*
X156265751Y-135665069D01*
X156265751Y-135665069D02*
X156075275Y-135665069D01*
X156075275Y-135665069D02*
X155980037Y-135712688D01*
X156408608Y-136284117D02*
X156313370Y-136331736D01*
X156313370Y-136331736D02*
X156075275Y-136331736D01*
X156075275Y-136331736D02*
X155980037Y-136284117D01*
X155980037Y-136284117D02*
X155932418Y-136188878D01*
X155932418Y-136188878D02*
X155932418Y-136093640D01*
X155932418Y-136093640D02*
X155980037Y-135998402D01*
X155980037Y-135998402D02*
X156075275Y-135950783D01*
X156075275Y-135950783D02*
X156313370Y-135950783D01*
X156313370Y-135950783D02*
X156408608Y-135903164D01*
X156884799Y-135665069D02*
X156884799Y-136331736D01*
X156884799Y-135760307D02*
X156932418Y-135712688D01*
X156932418Y-135712688D02*
X157027656Y-135665069D01*
X157027656Y-135665069D02*
X157170513Y-135665069D01*
X157170513Y-135665069D02*
X157265751Y-135712688D01*
X157265751Y-135712688D02*
X157313370Y-135807926D01*
X157313370Y-135807926D02*
X157313370Y-136331736D01*
X157789561Y-136331736D02*
X157789561Y-135331736D01*
X157884799Y-135950783D02*
X158170513Y-136331736D01*
X158170513Y-135665069D02*
X157789561Y-136046021D01*
X174601461Y-120583739D02*
X174601461Y-119583739D01*
X175172889Y-120583739D02*
X174744318Y-120012310D01*
X175172889Y-119583739D02*
X174601461Y-120155167D01*
X175791937Y-119583739D02*
X175887175Y-119583739D01*
X175887175Y-119583739D02*
X175982413Y-119631358D01*
X175982413Y-119631358D02*
X176030032Y-119678977D01*
X176030032Y-119678977D02*
X176077651Y-119774215D01*
X176077651Y-119774215D02*
X176125270Y-119964691D01*
X176125270Y-119964691D02*
X176125270Y-120202786D01*
X176125270Y-120202786D02*
X176077651Y-120393262D01*
X176077651Y-120393262D02*
X176030032Y-120488500D01*
X176030032Y-120488500D02*
X175982413Y-120536120D01*
X175982413Y-120536120D02*
X175887175Y-120583739D01*
X175887175Y-120583739D02*
X175791937Y-120583739D01*
X175791937Y-120583739D02*
X175696699Y-120536120D01*
X175696699Y-120536120D02*
X175649080Y-120488500D01*
X175649080Y-120488500D02*
X175601461Y-120393262D01*
X175601461Y-120393262D02*
X175553842Y-120202786D01*
X175553842Y-120202786D02*
X175553842Y-119964691D01*
X175553842Y-119964691D02*
X175601461Y-119774215D01*
X175601461Y-119774215D02*
X175649080Y-119678977D01*
X175649080Y-119678977D02*
X175696699Y-119631358D01*
X175696699Y-119631358D02*
X175791937Y-119583739D01*
X173839560Y-135807926D02*
X173982417Y-135855545D01*
X173982417Y-135855545D02*
X174030036Y-135903164D01*
X174030036Y-135903164D02*
X174077655Y-135998402D01*
X174077655Y-135998402D02*
X174077655Y-136141259D01*
X174077655Y-136141259D02*
X174030036Y-136236497D01*
X174030036Y-136236497D02*
X173982417Y-136284117D01*
X173982417Y-136284117D02*
X173887179Y-136331736D01*
X173887179Y-136331736D02*
X173506227Y-136331736D01*
X173506227Y-136331736D02*
X173506227Y-135331736D01*
X173506227Y-135331736D02*
X173839560Y-135331736D01*
X173839560Y-135331736D02*
X173934798Y-135379355D01*
X173934798Y-135379355D02*
X173982417Y-135426974D01*
X173982417Y-135426974D02*
X174030036Y-135522212D01*
X174030036Y-135522212D02*
X174030036Y-135617450D01*
X174030036Y-135617450D02*
X173982417Y-135712688D01*
X173982417Y-135712688D02*
X173934798Y-135760307D01*
X173934798Y-135760307D02*
X173839560Y-135807926D01*
X173839560Y-135807926D02*
X173506227Y-135807926D01*
X174649084Y-136331736D02*
X174553846Y-136284117D01*
X174553846Y-136284117D02*
X174506227Y-136188878D01*
X174506227Y-136188878D02*
X174506227Y-135331736D01*
X175458608Y-136331736D02*
X175458608Y-135807926D01*
X175458608Y-135807926D02*
X175410989Y-135712688D01*
X175410989Y-135712688D02*
X175315751Y-135665069D01*
X175315751Y-135665069D02*
X175125275Y-135665069D01*
X175125275Y-135665069D02*
X175030037Y-135712688D01*
X175458608Y-136284117D02*
X175363370Y-136331736D01*
X175363370Y-136331736D02*
X175125275Y-136331736D01*
X175125275Y-136331736D02*
X175030037Y-136284117D01*
X175030037Y-136284117D02*
X174982418Y-136188878D01*
X174982418Y-136188878D02*
X174982418Y-136093640D01*
X174982418Y-136093640D02*
X175030037Y-135998402D01*
X175030037Y-135998402D02*
X175125275Y-135950783D01*
X175125275Y-135950783D02*
X175363370Y-135950783D01*
X175363370Y-135950783D02*
X175458608Y-135903164D01*
X175934799Y-135665069D02*
X175934799Y-136331736D01*
X175934799Y-135760307D02*
X175982418Y-135712688D01*
X175982418Y-135712688D02*
X176077656Y-135665069D01*
X176077656Y-135665069D02*
X176220513Y-135665069D01*
X176220513Y-135665069D02*
X176315751Y-135712688D01*
X176315751Y-135712688D02*
X176363370Y-135807926D01*
X176363370Y-135807926D02*
X176363370Y-136331736D01*
X176839561Y-136331736D02*
X176839561Y-135331736D01*
X176934799Y-135950783D02*
X177220513Y-136331736D01*
X177220513Y-135665069D02*
X176839561Y-136046021D01*
X212701461Y-158683739D02*
X212701461Y-157683739D01*
X213272889Y-158683739D02*
X212844318Y-158112310D01*
X213272889Y-157683739D02*
X212701461Y-158255167D01*
X213891937Y-157683739D02*
X213987175Y-157683739D01*
X213987175Y-157683739D02*
X214082413Y-157731358D01*
X214082413Y-157731358D02*
X214130032Y-157778977D01*
X214130032Y-157778977D02*
X214177651Y-157874215D01*
X214177651Y-157874215D02*
X214225270Y-158064691D01*
X214225270Y-158064691D02*
X214225270Y-158302786D01*
X214225270Y-158302786D02*
X214177651Y-158493262D01*
X214177651Y-158493262D02*
X214130032Y-158588500D01*
X214130032Y-158588500D02*
X214082413Y-158636120D01*
X214082413Y-158636120D02*
X213987175Y-158683739D01*
X213987175Y-158683739D02*
X213891937Y-158683739D01*
X213891937Y-158683739D02*
X213796699Y-158636120D01*
X213796699Y-158636120D02*
X213749080Y-158588500D01*
X213749080Y-158588500D02*
X213701461Y-158493262D01*
X213701461Y-158493262D02*
X213653842Y-158302786D01*
X213653842Y-158302786D02*
X213653842Y-158064691D01*
X213653842Y-158064691D02*
X213701461Y-157874215D01*
X213701461Y-157874215D02*
X213749080Y-157778977D01*
X213749080Y-157778977D02*
X213796699Y-157731358D01*
X213796699Y-157731358D02*
X213891937Y-157683739D01*
X211939560Y-173907926D02*
X212082417Y-173955545D01*
X212082417Y-173955545D02*
X212130036Y-174003164D01*
X212130036Y-174003164D02*
X212177655Y-174098402D01*
X212177655Y-174098402D02*
X212177655Y-174241259D01*
X212177655Y-174241259D02*
X212130036Y-174336497D01*
X212130036Y-174336497D02*
X212082417Y-174384117D01*
X212082417Y-174384117D02*
X211987179Y-174431736D01*
X211987179Y-174431736D02*
X211606227Y-174431736D01*
X211606227Y-174431736D02*
X211606227Y-173431736D01*
X211606227Y-173431736D02*
X211939560Y-173431736D01*
X211939560Y-173431736D02*
X212034798Y-173479355D01*
X212034798Y-173479355D02*
X212082417Y-173526974D01*
X212082417Y-173526974D02*
X212130036Y-173622212D01*
X212130036Y-173622212D02*
X212130036Y-173717450D01*
X212130036Y-173717450D02*
X212082417Y-173812688D01*
X212082417Y-173812688D02*
X212034798Y-173860307D01*
X212034798Y-173860307D02*
X211939560Y-173907926D01*
X211939560Y-173907926D02*
X211606227Y-173907926D01*
X212749084Y-174431736D02*
X212653846Y-174384117D01*
X212653846Y-174384117D02*
X212606227Y-174288878D01*
X212606227Y-174288878D02*
X212606227Y-173431736D01*
X213558608Y-174431736D02*
X213558608Y-173907926D01*
X213558608Y-173907926D02*
X213510989Y-173812688D01*
X213510989Y-173812688D02*
X213415751Y-173765069D01*
X213415751Y-173765069D02*
X213225275Y-173765069D01*
X213225275Y-173765069D02*
X213130037Y-173812688D01*
X213558608Y-174384117D02*
X213463370Y-174431736D01*
X213463370Y-174431736D02*
X213225275Y-174431736D01*
X213225275Y-174431736D02*
X213130037Y-174384117D01*
X213130037Y-174384117D02*
X213082418Y-174288878D01*
X213082418Y-174288878D02*
X213082418Y-174193640D01*
X213082418Y-174193640D02*
X213130037Y-174098402D01*
X213130037Y-174098402D02*
X213225275Y-174050783D01*
X213225275Y-174050783D02*
X213463370Y-174050783D01*
X213463370Y-174050783D02*
X213558608Y-174003164D01*
X214034799Y-173765069D02*
X214034799Y-174431736D01*
X214034799Y-173860307D02*
X214082418Y-173812688D01*
X214082418Y-173812688D02*
X214177656Y-173765069D01*
X214177656Y-173765069D02*
X214320513Y-173765069D01*
X214320513Y-173765069D02*
X214415751Y-173812688D01*
X214415751Y-173812688D02*
X214463370Y-173907926D01*
X214463370Y-173907926D02*
X214463370Y-174431736D01*
X214939561Y-174431736D02*
X214939561Y-173431736D01*
X215034799Y-174050783D02*
X215320513Y-174431736D01*
X215320513Y-173765069D02*
X214939561Y-174146021D01*
X212701461Y-139633739D02*
X212701461Y-138633739D01*
X213272889Y-139633739D02*
X212844318Y-139062310D01*
X213272889Y-138633739D02*
X212701461Y-139205167D01*
X213891937Y-138633739D02*
X213987175Y-138633739D01*
X213987175Y-138633739D02*
X214082413Y-138681358D01*
X214082413Y-138681358D02*
X214130032Y-138728977D01*
X214130032Y-138728977D02*
X214177651Y-138824215D01*
X214177651Y-138824215D02*
X214225270Y-139014691D01*
X214225270Y-139014691D02*
X214225270Y-139252786D01*
X214225270Y-139252786D02*
X214177651Y-139443262D01*
X214177651Y-139443262D02*
X214130032Y-139538500D01*
X214130032Y-139538500D02*
X214082413Y-139586120D01*
X214082413Y-139586120D02*
X213987175Y-139633739D01*
X213987175Y-139633739D02*
X213891937Y-139633739D01*
X213891937Y-139633739D02*
X213796699Y-139586120D01*
X213796699Y-139586120D02*
X213749080Y-139538500D01*
X213749080Y-139538500D02*
X213701461Y-139443262D01*
X213701461Y-139443262D02*
X213653842Y-139252786D01*
X213653842Y-139252786D02*
X213653842Y-139014691D01*
X213653842Y-139014691D02*
X213701461Y-138824215D01*
X213701461Y-138824215D02*
X213749080Y-138728977D01*
X213749080Y-138728977D02*
X213796699Y-138681358D01*
X213796699Y-138681358D02*
X213891937Y-138633739D01*
X211939560Y-154857926D02*
X212082417Y-154905545D01*
X212082417Y-154905545D02*
X212130036Y-154953164D01*
X212130036Y-154953164D02*
X212177655Y-155048402D01*
X212177655Y-155048402D02*
X212177655Y-155191259D01*
X212177655Y-155191259D02*
X212130036Y-155286497D01*
X212130036Y-155286497D02*
X212082417Y-155334117D01*
X212082417Y-155334117D02*
X211987179Y-155381736D01*
X211987179Y-155381736D02*
X211606227Y-155381736D01*
X211606227Y-155381736D02*
X211606227Y-154381736D01*
X211606227Y-154381736D02*
X211939560Y-154381736D01*
X211939560Y-154381736D02*
X212034798Y-154429355D01*
X212034798Y-154429355D02*
X212082417Y-154476974D01*
X212082417Y-154476974D02*
X212130036Y-154572212D01*
X212130036Y-154572212D02*
X212130036Y-154667450D01*
X212130036Y-154667450D02*
X212082417Y-154762688D01*
X212082417Y-154762688D02*
X212034798Y-154810307D01*
X212034798Y-154810307D02*
X211939560Y-154857926D01*
X211939560Y-154857926D02*
X211606227Y-154857926D01*
X212749084Y-155381736D02*
X212653846Y-155334117D01*
X212653846Y-155334117D02*
X212606227Y-155238878D01*
X212606227Y-155238878D02*
X212606227Y-154381736D01*
X213558608Y-155381736D02*
X213558608Y-154857926D01*
X213558608Y-154857926D02*
X213510989Y-154762688D01*
X213510989Y-154762688D02*
X213415751Y-154715069D01*
X213415751Y-154715069D02*
X213225275Y-154715069D01*
X213225275Y-154715069D02*
X213130037Y-154762688D01*
X213558608Y-155334117D02*
X213463370Y-155381736D01*
X213463370Y-155381736D02*
X213225275Y-155381736D01*
X213225275Y-155381736D02*
X213130037Y-155334117D01*
X213130037Y-155334117D02*
X213082418Y-155238878D01*
X213082418Y-155238878D02*
X213082418Y-155143640D01*
X213082418Y-155143640D02*
X213130037Y-155048402D01*
X213130037Y-155048402D02*
X213225275Y-155000783D01*
X213225275Y-155000783D02*
X213463370Y-155000783D01*
X213463370Y-155000783D02*
X213558608Y-154953164D01*
X214034799Y-154715069D02*
X214034799Y-155381736D01*
X214034799Y-154810307D02*
X214082418Y-154762688D01*
X214082418Y-154762688D02*
X214177656Y-154715069D01*
X214177656Y-154715069D02*
X214320513Y-154715069D01*
X214320513Y-154715069D02*
X214415751Y-154762688D01*
X214415751Y-154762688D02*
X214463370Y-154857926D01*
X214463370Y-154857926D02*
X214463370Y-155381736D01*
X214939561Y-155381736D02*
X214939561Y-154381736D01*
X215034799Y-155000783D02*
X215320513Y-155381736D01*
X215320513Y-154715069D02*
X214939561Y-155096021D01*
X155551461Y-158683739D02*
X155551461Y-157683739D01*
X156122889Y-158683739D02*
X155694318Y-158112310D01*
X156122889Y-157683739D02*
X155551461Y-158255167D01*
X156741937Y-157683739D02*
X156837175Y-157683739D01*
X156837175Y-157683739D02*
X156932413Y-157731358D01*
X156932413Y-157731358D02*
X156980032Y-157778977D01*
X156980032Y-157778977D02*
X157027651Y-157874215D01*
X157027651Y-157874215D02*
X157075270Y-158064691D01*
X157075270Y-158064691D02*
X157075270Y-158302786D01*
X157075270Y-158302786D02*
X157027651Y-158493262D01*
X157027651Y-158493262D02*
X156980032Y-158588500D01*
X156980032Y-158588500D02*
X156932413Y-158636120D01*
X156932413Y-158636120D02*
X156837175Y-158683739D01*
X156837175Y-158683739D02*
X156741937Y-158683739D01*
X156741937Y-158683739D02*
X156646699Y-158636120D01*
X156646699Y-158636120D02*
X156599080Y-158588500D01*
X156599080Y-158588500D02*
X156551461Y-158493262D01*
X156551461Y-158493262D02*
X156503842Y-158302786D01*
X156503842Y-158302786D02*
X156503842Y-158064691D01*
X156503842Y-158064691D02*
X156551461Y-157874215D01*
X156551461Y-157874215D02*
X156599080Y-157778977D01*
X156599080Y-157778977D02*
X156646699Y-157731358D01*
X156646699Y-157731358D02*
X156741937Y-157683739D01*
X154789560Y-173907926D02*
X154932417Y-173955545D01*
X154932417Y-173955545D02*
X154980036Y-174003164D01*
X154980036Y-174003164D02*
X155027655Y-174098402D01*
X155027655Y-174098402D02*
X155027655Y-174241259D01*
X155027655Y-174241259D02*
X154980036Y-174336497D01*
X154980036Y-174336497D02*
X154932417Y-174384117D01*
X154932417Y-174384117D02*
X154837179Y-174431736D01*
X154837179Y-174431736D02*
X154456227Y-174431736D01*
X154456227Y-174431736D02*
X154456227Y-173431736D01*
X154456227Y-173431736D02*
X154789560Y-173431736D01*
X154789560Y-173431736D02*
X154884798Y-173479355D01*
X154884798Y-173479355D02*
X154932417Y-173526974D01*
X154932417Y-173526974D02*
X154980036Y-173622212D01*
X154980036Y-173622212D02*
X154980036Y-173717450D01*
X154980036Y-173717450D02*
X154932417Y-173812688D01*
X154932417Y-173812688D02*
X154884798Y-173860307D01*
X154884798Y-173860307D02*
X154789560Y-173907926D01*
X154789560Y-173907926D02*
X154456227Y-173907926D01*
X155599084Y-174431736D02*
X155503846Y-174384117D01*
X155503846Y-174384117D02*
X155456227Y-174288878D01*
X155456227Y-174288878D02*
X155456227Y-173431736D01*
X156408608Y-174431736D02*
X156408608Y-173907926D01*
X156408608Y-173907926D02*
X156360989Y-173812688D01*
X156360989Y-173812688D02*
X156265751Y-173765069D01*
X156265751Y-173765069D02*
X156075275Y-173765069D01*
X156075275Y-173765069D02*
X155980037Y-173812688D01*
X156408608Y-174384117D02*
X156313370Y-174431736D01*
X156313370Y-174431736D02*
X156075275Y-174431736D01*
X156075275Y-174431736D02*
X155980037Y-174384117D01*
X155980037Y-174384117D02*
X155932418Y-174288878D01*
X155932418Y-174288878D02*
X155932418Y-174193640D01*
X155932418Y-174193640D02*
X155980037Y-174098402D01*
X155980037Y-174098402D02*
X156075275Y-174050783D01*
X156075275Y-174050783D02*
X156313370Y-174050783D01*
X156313370Y-174050783D02*
X156408608Y-174003164D01*
X156884799Y-173765069D02*
X156884799Y-174431736D01*
X156884799Y-173860307D02*
X156932418Y-173812688D01*
X156932418Y-173812688D02*
X157027656Y-173765069D01*
X157027656Y-173765069D02*
X157170513Y-173765069D01*
X157170513Y-173765069D02*
X157265751Y-173812688D01*
X157265751Y-173812688D02*
X157313370Y-173907926D01*
X157313370Y-173907926D02*
X157313370Y-174431736D01*
X157789561Y-174431736D02*
X157789561Y-173431736D01*
X157884799Y-174050783D02*
X158170513Y-174431736D01*
X158170513Y-173765069D02*
X157789561Y-174146021D01*
X193651461Y-158683739D02*
X193651461Y-157683739D01*
X194222889Y-158683739D02*
X193794318Y-158112310D01*
X194222889Y-157683739D02*
X193651461Y-158255167D01*
X194841937Y-157683739D02*
X194937175Y-157683739D01*
X194937175Y-157683739D02*
X195032413Y-157731358D01*
X195032413Y-157731358D02*
X195080032Y-157778977D01*
X195080032Y-157778977D02*
X195127651Y-157874215D01*
X195127651Y-157874215D02*
X195175270Y-158064691D01*
X195175270Y-158064691D02*
X195175270Y-158302786D01*
X195175270Y-158302786D02*
X195127651Y-158493262D01*
X195127651Y-158493262D02*
X195080032Y-158588500D01*
X195080032Y-158588500D02*
X195032413Y-158636120D01*
X195032413Y-158636120D02*
X194937175Y-158683739D01*
X194937175Y-158683739D02*
X194841937Y-158683739D01*
X194841937Y-158683739D02*
X194746699Y-158636120D01*
X194746699Y-158636120D02*
X194699080Y-158588500D01*
X194699080Y-158588500D02*
X194651461Y-158493262D01*
X194651461Y-158493262D02*
X194603842Y-158302786D01*
X194603842Y-158302786D02*
X194603842Y-158064691D01*
X194603842Y-158064691D02*
X194651461Y-157874215D01*
X194651461Y-157874215D02*
X194699080Y-157778977D01*
X194699080Y-157778977D02*
X194746699Y-157731358D01*
X194746699Y-157731358D02*
X194841937Y-157683739D01*
X192889560Y-173907926D02*
X193032417Y-173955545D01*
X193032417Y-173955545D02*
X193080036Y-174003164D01*
X193080036Y-174003164D02*
X193127655Y-174098402D01*
X193127655Y-174098402D02*
X193127655Y-174241259D01*
X193127655Y-174241259D02*
X193080036Y-174336497D01*
X193080036Y-174336497D02*
X193032417Y-174384117D01*
X193032417Y-174384117D02*
X192937179Y-174431736D01*
X192937179Y-174431736D02*
X192556227Y-174431736D01*
X192556227Y-174431736D02*
X192556227Y-173431736D01*
X192556227Y-173431736D02*
X192889560Y-173431736D01*
X192889560Y-173431736D02*
X192984798Y-173479355D01*
X192984798Y-173479355D02*
X193032417Y-173526974D01*
X193032417Y-173526974D02*
X193080036Y-173622212D01*
X193080036Y-173622212D02*
X193080036Y-173717450D01*
X193080036Y-173717450D02*
X193032417Y-173812688D01*
X193032417Y-173812688D02*
X192984798Y-173860307D01*
X192984798Y-173860307D02*
X192889560Y-173907926D01*
X192889560Y-173907926D02*
X192556227Y-173907926D01*
X193699084Y-174431736D02*
X193603846Y-174384117D01*
X193603846Y-174384117D02*
X193556227Y-174288878D01*
X193556227Y-174288878D02*
X193556227Y-173431736D01*
X194508608Y-174431736D02*
X194508608Y-173907926D01*
X194508608Y-173907926D02*
X194460989Y-173812688D01*
X194460989Y-173812688D02*
X194365751Y-173765069D01*
X194365751Y-173765069D02*
X194175275Y-173765069D01*
X194175275Y-173765069D02*
X194080037Y-173812688D01*
X194508608Y-174384117D02*
X194413370Y-174431736D01*
X194413370Y-174431736D02*
X194175275Y-174431736D01*
X194175275Y-174431736D02*
X194080037Y-174384117D01*
X194080037Y-174384117D02*
X194032418Y-174288878D01*
X194032418Y-174288878D02*
X194032418Y-174193640D01*
X194032418Y-174193640D02*
X194080037Y-174098402D01*
X194080037Y-174098402D02*
X194175275Y-174050783D01*
X194175275Y-174050783D02*
X194413370Y-174050783D01*
X194413370Y-174050783D02*
X194508608Y-174003164D01*
X194984799Y-173765069D02*
X194984799Y-174431736D01*
X194984799Y-173860307D02*
X195032418Y-173812688D01*
X195032418Y-173812688D02*
X195127656Y-173765069D01*
X195127656Y-173765069D02*
X195270513Y-173765069D01*
X195270513Y-173765069D02*
X195365751Y-173812688D01*
X195365751Y-173812688D02*
X195413370Y-173907926D01*
X195413370Y-173907926D02*
X195413370Y-174431736D01*
X195889561Y-174431736D02*
X195889561Y-173431736D01*
X195984799Y-174050783D02*
X196270513Y-174431736D01*
X196270513Y-173765069D02*
X195889561Y-174146021D01*
X212701461Y-120583739D02*
X212701461Y-119583739D01*
X213272889Y-120583739D02*
X212844318Y-120012310D01*
X213272889Y-119583739D02*
X212701461Y-120155167D01*
X213891937Y-119583739D02*
X213987175Y-119583739D01*
X213987175Y-119583739D02*
X214082413Y-119631358D01*
X214082413Y-119631358D02*
X214130032Y-119678977D01*
X214130032Y-119678977D02*
X214177651Y-119774215D01*
X214177651Y-119774215D02*
X214225270Y-119964691D01*
X214225270Y-119964691D02*
X214225270Y-120202786D01*
X214225270Y-120202786D02*
X214177651Y-120393262D01*
X214177651Y-120393262D02*
X214130032Y-120488500D01*
X214130032Y-120488500D02*
X214082413Y-120536120D01*
X214082413Y-120536120D02*
X213987175Y-120583739D01*
X213987175Y-120583739D02*
X213891937Y-120583739D01*
X213891937Y-120583739D02*
X213796699Y-120536120D01*
X213796699Y-120536120D02*
X213749080Y-120488500D01*
X213749080Y-120488500D02*
X213701461Y-120393262D01*
X213701461Y-120393262D02*
X213653842Y-120202786D01*
X213653842Y-120202786D02*
X213653842Y-119964691D01*
X213653842Y-119964691D02*
X213701461Y-119774215D01*
X213701461Y-119774215D02*
X213749080Y-119678977D01*
X213749080Y-119678977D02*
X213796699Y-119631358D01*
X213796699Y-119631358D02*
X213891937Y-119583739D01*
X211939560Y-135807926D02*
X212082417Y-135855545D01*
X212082417Y-135855545D02*
X212130036Y-135903164D01*
X212130036Y-135903164D02*
X212177655Y-135998402D01*
X212177655Y-135998402D02*
X212177655Y-136141259D01*
X212177655Y-136141259D02*
X212130036Y-136236497D01*
X212130036Y-136236497D02*
X212082417Y-136284117D01*
X212082417Y-136284117D02*
X211987179Y-136331736D01*
X211987179Y-136331736D02*
X211606227Y-136331736D01*
X211606227Y-136331736D02*
X211606227Y-135331736D01*
X211606227Y-135331736D02*
X211939560Y-135331736D01*
X211939560Y-135331736D02*
X212034798Y-135379355D01*
X212034798Y-135379355D02*
X212082417Y-135426974D01*
X212082417Y-135426974D02*
X212130036Y-135522212D01*
X212130036Y-135522212D02*
X212130036Y-135617450D01*
X212130036Y-135617450D02*
X212082417Y-135712688D01*
X212082417Y-135712688D02*
X212034798Y-135760307D01*
X212034798Y-135760307D02*
X211939560Y-135807926D01*
X211939560Y-135807926D02*
X211606227Y-135807926D01*
X212749084Y-136331736D02*
X212653846Y-136284117D01*
X212653846Y-136284117D02*
X212606227Y-136188878D01*
X212606227Y-136188878D02*
X212606227Y-135331736D01*
X213558608Y-136331736D02*
X213558608Y-135807926D01*
X213558608Y-135807926D02*
X213510989Y-135712688D01*
X213510989Y-135712688D02*
X213415751Y-135665069D01*
X213415751Y-135665069D02*
X213225275Y-135665069D01*
X213225275Y-135665069D02*
X213130037Y-135712688D01*
X213558608Y-136284117D02*
X213463370Y-136331736D01*
X213463370Y-136331736D02*
X213225275Y-136331736D01*
X213225275Y-136331736D02*
X213130037Y-136284117D01*
X213130037Y-136284117D02*
X213082418Y-136188878D01*
X213082418Y-136188878D02*
X213082418Y-136093640D01*
X213082418Y-136093640D02*
X213130037Y-135998402D01*
X213130037Y-135998402D02*
X213225275Y-135950783D01*
X213225275Y-135950783D02*
X213463370Y-135950783D01*
X213463370Y-135950783D02*
X213558608Y-135903164D01*
X214034799Y-135665069D02*
X214034799Y-136331736D01*
X214034799Y-135760307D02*
X214082418Y-135712688D01*
X214082418Y-135712688D02*
X214177656Y-135665069D01*
X214177656Y-135665069D02*
X214320513Y-135665069D01*
X214320513Y-135665069D02*
X214415751Y-135712688D01*
X214415751Y-135712688D02*
X214463370Y-135807926D01*
X214463370Y-135807926D02*
X214463370Y-136331736D01*
X214939561Y-136331736D02*
X214939561Y-135331736D01*
X215034799Y-135950783D02*
X215320513Y-136331736D01*
X215320513Y-135665069D02*
X214939561Y-136046021D01*
X233956569Y-143820369D02*
X233956569Y-144820369D01*
X233956569Y-143867988D02*
X234051807Y-143820369D01*
X234051807Y-143820369D02*
X234242283Y-143820369D01*
X234242283Y-143820369D02*
X234337521Y-143867988D01*
X234337521Y-143867988D02*
X234385140Y-143915607D01*
X234385140Y-143915607D02*
X234432759Y-144010845D01*
X234432759Y-144010845D02*
X234432759Y-144296559D01*
X234432759Y-144296559D02*
X234385140Y-144391797D01*
X234385140Y-144391797D02*
X234337521Y-144439417D01*
X234337521Y-144439417D02*
X234242283Y-144487036D01*
X234242283Y-144487036D02*
X234051807Y-144487036D01*
X234051807Y-144487036D02*
X233956569Y-144439417D01*
X234861331Y-144487036D02*
X234861331Y-143820369D01*
X234861331Y-143487036D02*
X234813712Y-143534655D01*
X234813712Y-143534655D02*
X234861331Y-143582274D01*
X234861331Y-143582274D02*
X234908950Y-143534655D01*
X234908950Y-143534655D02*
X234861331Y-143487036D01*
X234861331Y-143487036D02*
X234861331Y-143582274D01*
X235766092Y-144439417D02*
X235670854Y-144487036D01*
X235670854Y-144487036D02*
X235480378Y-144487036D01*
X235480378Y-144487036D02*
X235385140Y-144439417D01*
X235385140Y-144439417D02*
X235337521Y-144391797D01*
X235337521Y-144391797D02*
X235289902Y-144296559D01*
X235289902Y-144296559D02*
X235289902Y-144010845D01*
X235289902Y-144010845D02*
X235337521Y-143915607D01*
X235337521Y-143915607D02*
X235385140Y-143867988D01*
X235385140Y-143867988D02*
X235480378Y-143820369D01*
X235480378Y-143820369D02*
X235670854Y-143820369D01*
X235670854Y-143820369D02*
X235766092Y-143867988D01*
X236337521Y-144487036D02*
X236242283Y-144439417D01*
X236242283Y-144439417D02*
X236194664Y-144391797D01*
X236194664Y-144391797D02*
X236147045Y-144296559D01*
X236147045Y-144296559D02*
X236147045Y-144010845D01*
X236147045Y-144010845D02*
X236194664Y-143915607D01*
X236194664Y-143915607D02*
X236242283Y-143867988D01*
X236242283Y-143867988D02*
X236337521Y-143820369D01*
X236337521Y-143820369D02*
X236480378Y-143820369D01*
X236480378Y-143820369D02*
X236575616Y-143867988D01*
X236575616Y-143867988D02*
X236623235Y-143915607D01*
X236623235Y-143915607D02*
X236670854Y-144010845D01*
X236670854Y-144010845D02*
X236670854Y-144296559D01*
X236670854Y-144296559D02*
X236623235Y-144391797D01*
X236623235Y-144391797D02*
X236575616Y-144439417D01*
X236575616Y-144439417D02*
X236480378Y-144487036D01*
X236480378Y-144487036D02*
X236337521Y-144487036D01*
X174601461Y-139633739D02*
X174601461Y-138633739D01*
X175172889Y-139633739D02*
X174744318Y-139062310D01*
X175172889Y-138633739D02*
X174601461Y-139205167D01*
X175791937Y-138633739D02*
X175887175Y-138633739D01*
X175887175Y-138633739D02*
X175982413Y-138681358D01*
X175982413Y-138681358D02*
X176030032Y-138728977D01*
X176030032Y-138728977D02*
X176077651Y-138824215D01*
X176077651Y-138824215D02*
X176125270Y-139014691D01*
X176125270Y-139014691D02*
X176125270Y-139252786D01*
X176125270Y-139252786D02*
X176077651Y-139443262D01*
X176077651Y-139443262D02*
X176030032Y-139538500D01*
X176030032Y-139538500D02*
X175982413Y-139586120D01*
X175982413Y-139586120D02*
X175887175Y-139633739D01*
X175887175Y-139633739D02*
X175791937Y-139633739D01*
X175791937Y-139633739D02*
X175696699Y-139586120D01*
X175696699Y-139586120D02*
X175649080Y-139538500D01*
X175649080Y-139538500D02*
X175601461Y-139443262D01*
X175601461Y-139443262D02*
X175553842Y-139252786D01*
X175553842Y-139252786D02*
X175553842Y-139014691D01*
X175553842Y-139014691D02*
X175601461Y-138824215D01*
X175601461Y-138824215D02*
X175649080Y-138728977D01*
X175649080Y-138728977D02*
X175696699Y-138681358D01*
X175696699Y-138681358D02*
X175791937Y-138633739D01*
X173839560Y-154857926D02*
X173982417Y-154905545D01*
X173982417Y-154905545D02*
X174030036Y-154953164D01*
X174030036Y-154953164D02*
X174077655Y-155048402D01*
X174077655Y-155048402D02*
X174077655Y-155191259D01*
X174077655Y-155191259D02*
X174030036Y-155286497D01*
X174030036Y-155286497D02*
X173982417Y-155334117D01*
X173982417Y-155334117D02*
X173887179Y-155381736D01*
X173887179Y-155381736D02*
X173506227Y-155381736D01*
X173506227Y-155381736D02*
X173506227Y-154381736D01*
X173506227Y-154381736D02*
X173839560Y-154381736D01*
X173839560Y-154381736D02*
X173934798Y-154429355D01*
X173934798Y-154429355D02*
X173982417Y-154476974D01*
X173982417Y-154476974D02*
X174030036Y-154572212D01*
X174030036Y-154572212D02*
X174030036Y-154667450D01*
X174030036Y-154667450D02*
X173982417Y-154762688D01*
X173982417Y-154762688D02*
X173934798Y-154810307D01*
X173934798Y-154810307D02*
X173839560Y-154857926D01*
X173839560Y-154857926D02*
X173506227Y-154857926D01*
X174649084Y-155381736D02*
X174553846Y-155334117D01*
X174553846Y-155334117D02*
X174506227Y-155238878D01*
X174506227Y-155238878D02*
X174506227Y-154381736D01*
X175458608Y-155381736D02*
X175458608Y-154857926D01*
X175458608Y-154857926D02*
X175410989Y-154762688D01*
X175410989Y-154762688D02*
X175315751Y-154715069D01*
X175315751Y-154715069D02*
X175125275Y-154715069D01*
X175125275Y-154715069D02*
X175030037Y-154762688D01*
X175458608Y-155334117D02*
X175363370Y-155381736D01*
X175363370Y-155381736D02*
X175125275Y-155381736D01*
X175125275Y-155381736D02*
X175030037Y-155334117D01*
X175030037Y-155334117D02*
X174982418Y-155238878D01*
X174982418Y-155238878D02*
X174982418Y-155143640D01*
X174982418Y-155143640D02*
X175030037Y-155048402D01*
X175030037Y-155048402D02*
X175125275Y-155000783D01*
X175125275Y-155000783D02*
X175363370Y-155000783D01*
X175363370Y-155000783D02*
X175458608Y-154953164D01*
X175934799Y-154715069D02*
X175934799Y-155381736D01*
X175934799Y-154810307D02*
X175982418Y-154762688D01*
X175982418Y-154762688D02*
X176077656Y-154715069D01*
X176077656Y-154715069D02*
X176220513Y-154715069D01*
X176220513Y-154715069D02*
X176315751Y-154762688D01*
X176315751Y-154762688D02*
X176363370Y-154857926D01*
X176363370Y-154857926D02*
X176363370Y-155381736D01*
X176839561Y-155381736D02*
X176839561Y-154381736D01*
X176934799Y-155000783D02*
X177220513Y-155381736D01*
X177220513Y-154715069D02*
X176839561Y-155096021D01*
X193651461Y-120583739D02*
X193651461Y-119583739D01*
X194222889Y-120583739D02*
X193794318Y-120012310D01*
X194222889Y-119583739D02*
X193651461Y-120155167D01*
X194841937Y-119583739D02*
X194937175Y-119583739D01*
X194937175Y-119583739D02*
X195032413Y-119631358D01*
X195032413Y-119631358D02*
X195080032Y-119678977D01*
X195080032Y-119678977D02*
X195127651Y-119774215D01*
X195127651Y-119774215D02*
X195175270Y-119964691D01*
X195175270Y-119964691D02*
X195175270Y-120202786D01*
X195175270Y-120202786D02*
X195127651Y-120393262D01*
X195127651Y-120393262D02*
X195080032Y-120488500D01*
X195080032Y-120488500D02*
X195032413Y-120536120D01*
X195032413Y-120536120D02*
X194937175Y-120583739D01*
X194937175Y-120583739D02*
X194841937Y-120583739D01*
X194841937Y-120583739D02*
X194746699Y-120536120D01*
X194746699Y-120536120D02*
X194699080Y-120488500D01*
X194699080Y-120488500D02*
X194651461Y-120393262D01*
X194651461Y-120393262D02*
X194603842Y-120202786D01*
X194603842Y-120202786D02*
X194603842Y-119964691D01*
X194603842Y-119964691D02*
X194651461Y-119774215D01*
X194651461Y-119774215D02*
X194699080Y-119678977D01*
X194699080Y-119678977D02*
X194746699Y-119631358D01*
X194746699Y-119631358D02*
X194841937Y-119583739D01*
X192889560Y-135807926D02*
X193032417Y-135855545D01*
X193032417Y-135855545D02*
X193080036Y-135903164D01*
X193080036Y-135903164D02*
X193127655Y-135998402D01*
X193127655Y-135998402D02*
X193127655Y-136141259D01*
X193127655Y-136141259D02*
X193080036Y-136236497D01*
X193080036Y-136236497D02*
X193032417Y-136284117D01*
X193032417Y-136284117D02*
X192937179Y-136331736D01*
X192937179Y-136331736D02*
X192556227Y-136331736D01*
X192556227Y-136331736D02*
X192556227Y-135331736D01*
X192556227Y-135331736D02*
X192889560Y-135331736D01*
X192889560Y-135331736D02*
X192984798Y-135379355D01*
X192984798Y-135379355D02*
X193032417Y-135426974D01*
X193032417Y-135426974D02*
X193080036Y-135522212D01*
X193080036Y-135522212D02*
X193080036Y-135617450D01*
X193080036Y-135617450D02*
X193032417Y-135712688D01*
X193032417Y-135712688D02*
X192984798Y-135760307D01*
X192984798Y-135760307D02*
X192889560Y-135807926D01*
X192889560Y-135807926D02*
X192556227Y-135807926D01*
X193699084Y-136331736D02*
X193603846Y-136284117D01*
X193603846Y-136284117D02*
X193556227Y-136188878D01*
X193556227Y-136188878D02*
X193556227Y-135331736D01*
X194508608Y-136331736D02*
X194508608Y-135807926D01*
X194508608Y-135807926D02*
X194460989Y-135712688D01*
X194460989Y-135712688D02*
X194365751Y-135665069D01*
X194365751Y-135665069D02*
X194175275Y-135665069D01*
X194175275Y-135665069D02*
X194080037Y-135712688D01*
X194508608Y-136284117D02*
X194413370Y-136331736D01*
X194413370Y-136331736D02*
X194175275Y-136331736D01*
X194175275Y-136331736D02*
X194080037Y-136284117D01*
X194080037Y-136284117D02*
X194032418Y-136188878D01*
X194032418Y-136188878D02*
X194032418Y-136093640D01*
X194032418Y-136093640D02*
X194080037Y-135998402D01*
X194080037Y-135998402D02*
X194175275Y-135950783D01*
X194175275Y-135950783D02*
X194413370Y-135950783D01*
X194413370Y-135950783D02*
X194508608Y-135903164D01*
X194984799Y-135665069D02*
X194984799Y-136331736D01*
X194984799Y-135760307D02*
X195032418Y-135712688D01*
X195032418Y-135712688D02*
X195127656Y-135665069D01*
X195127656Y-135665069D02*
X195270513Y-135665069D01*
X195270513Y-135665069D02*
X195365751Y-135712688D01*
X195365751Y-135712688D02*
X195413370Y-135807926D01*
X195413370Y-135807926D02*
X195413370Y-136331736D01*
X195889561Y-136331736D02*
X195889561Y-135331736D01*
X195984799Y-135950783D02*
X196270513Y-136331736D01*
X196270513Y-135665069D02*
X195889561Y-136046021D01*
D11*
X168354555Y-159117913D02*
X173815557Y-159117916D01*
X168354558Y-173087916D02*
X168354555Y-159117913D01*
X176876254Y-159092518D02*
X182337254Y-159092517D01*
X182324553Y-173087913D02*
X168354558Y-173087916D01*
X182324559Y-159117919D02*
X182324553Y-173087913D01*
X187404555Y-140067913D02*
X192865557Y-140067916D01*
X187404558Y-154037916D02*
X187404555Y-140067913D01*
X195926254Y-140042518D02*
X201387254Y-140042517D01*
X201374553Y-154037913D02*
X187404558Y-154037916D01*
X201374559Y-140067919D02*
X201374553Y-154037913D01*
X149304555Y-140067913D02*
X154765557Y-140067916D01*
X149304558Y-154037916D02*
X149304555Y-140067913D01*
X157826254Y-140042518D02*
X163287254Y-140042517D01*
X163274553Y-154037913D02*
X149304558Y-154037916D01*
X163274559Y-140067919D02*
X163274553Y-154037913D01*
X149304555Y-121017913D02*
X154765557Y-121017916D01*
X149304558Y-134987916D02*
X149304555Y-121017913D01*
X157826254Y-120992518D02*
X163287254Y-120992517D01*
X163274553Y-134987913D02*
X149304558Y-134987916D01*
X163274559Y-121017919D02*
X163274553Y-134987913D01*
X168354555Y-121017913D02*
X173815557Y-121017916D01*
X168354558Y-134987916D02*
X168354555Y-121017913D01*
X176876254Y-120992518D02*
X182337254Y-120992517D01*
X182324553Y-134987913D02*
X168354558Y-134987916D01*
X182324559Y-121017919D02*
X182324553Y-134987913D01*
X206454555Y-159117913D02*
X211915557Y-159117916D01*
X206454558Y-173087916D02*
X206454555Y-159117913D01*
X214976254Y-159092518D02*
X220437254Y-159092517D01*
X220424553Y-173087913D02*
X206454558Y-173087916D01*
X220424559Y-159117919D02*
X220424553Y-173087913D01*
X206454555Y-140067913D02*
X211915557Y-140067916D01*
X206454558Y-154037916D02*
X206454555Y-140067913D01*
X214976254Y-140042518D02*
X220437254Y-140042517D01*
X220424553Y-154037913D02*
X206454558Y-154037916D01*
X220424559Y-140067919D02*
X220424553Y-154037913D01*
X149304555Y-159117913D02*
X154765557Y-159117916D01*
X149304558Y-173087916D02*
X149304555Y-159117913D01*
X157826254Y-159092518D02*
X163287254Y-159092517D01*
X163274553Y-173087913D02*
X149304558Y-173087916D01*
X163274559Y-159117919D02*
X163274553Y-173087913D01*
X187404555Y-159117913D02*
X192865557Y-159117916D01*
X187404558Y-173087916D02*
X187404555Y-159117913D01*
X195926254Y-159092518D02*
X201387254Y-159092517D01*
X201374553Y-173087913D02*
X187404558Y-173087916D01*
X201374559Y-159117919D02*
X201374553Y-173087913D01*
X206454555Y-121017913D02*
X211915557Y-121017916D01*
X206454558Y-134987916D02*
X206454555Y-121017913D01*
X214976254Y-120992518D02*
X220437254Y-120992517D01*
X220424553Y-134987913D02*
X206454558Y-134987916D01*
X220424559Y-121017919D02*
X220424553Y-134987913D01*
X224789899Y-136232217D02*
X224789902Y-136632214D01*
X224789899Y-154032214D02*
X224789903Y-154432220D01*
X224789899Y-164132216D02*
X224789900Y-164532217D01*
X224789900Y-133632215D02*
X224789901Y-134032215D01*
X224789900Y-156532219D02*
X224789903Y-156932217D01*
X224789901Y-146332216D02*
X224789902Y-146732217D01*
X224789902Y-123532219D02*
X224789902Y-123932220D01*
X224789902Y-126032216D02*
X224789898Y-126432217D01*
X224789902Y-141332217D02*
X224789901Y-141732218D01*
X224789902Y-143832218D02*
X224789901Y-144232218D01*
X224789902Y-159132218D02*
X224789902Y-159532218D01*
X224789903Y-118532215D02*
X224789905Y-118832214D01*
X224789903Y-118532215D02*
X245789903Y-118532214D01*
X224789903Y-131132217D02*
X224789902Y-131532215D01*
X224789903Y-138732215D02*
X224789904Y-139132217D01*
X224789904Y-121199219D02*
X227796892Y-121199214D01*
X224789904Y-128632215D02*
X224789904Y-129032219D01*
X224789904Y-151432219D02*
X224789903Y-151832215D01*
X224789904Y-161632217D02*
X224789902Y-162032218D01*
X224789904Y-166732217D02*
X224789904Y-167132219D01*
X224789905Y-120932215D02*
X224789902Y-121332218D01*
X224789906Y-148932217D02*
X224789902Y-149332219D01*
X227796892Y-121199214D02*
X227796898Y-118532220D01*
X231589902Y-169532217D02*
X224789901Y-169532220D01*
X233789902Y-169532217D02*
X234189901Y-169532215D01*
X236389904Y-169532219D02*
X236789902Y-169532217D01*
X245789900Y-120932215D02*
X245789900Y-121332217D01*
X245789900Y-148932217D02*
X245789901Y-149332219D01*
X245789901Y-128632218D02*
X245789900Y-129032219D01*
X245789901Y-131132217D02*
X245789904Y-131532215D01*
X245789901Y-133632214D02*
X245789905Y-134032220D01*
X245789901Y-136232219D02*
X245789900Y-136632215D01*
X245789901Y-159132217D02*
X245789902Y-159532216D01*
X245789901Y-169532219D02*
X238989902Y-169532217D01*
X245789902Y-126032216D02*
X245789900Y-126432217D01*
X245789902Y-138732215D02*
X245789898Y-139132217D01*
X245789902Y-141332217D02*
X245789903Y-141732218D01*
X245789902Y-151432220D02*
X245789905Y-151832217D01*
X245789902Y-156532219D02*
X245789901Y-156932217D01*
X245789902Y-164132214D02*
X245789902Y-164532215D01*
X245789902Y-166732216D02*
X245789899Y-167132219D01*
X245789903Y-118532214D02*
X245789903Y-118832214D01*
X245789903Y-143832216D02*
X245789902Y-144232216D01*
X245789903Y-146332216D02*
X245789902Y-146732217D01*
X245789903Y-154032219D02*
X245789904Y-154432219D01*
X245789904Y-123532217D02*
X245789905Y-123932218D01*
X245789906Y-161632217D02*
X245789902Y-162032218D01*
X168354555Y-140067913D02*
X173815557Y-140067916D01*
X168354558Y-154037916D02*
X168354555Y-140067913D01*
X176876254Y-140042518D02*
X182337254Y-140042517D01*
X182324553Y-154037913D02*
X168354558Y-154037916D01*
X182324559Y-140067919D02*
X182324553Y-154037913D01*
X187404555Y-121017913D02*
X192865557Y-121017916D01*
X187404558Y-134987916D02*
X187404555Y-121017913D01*
X195926254Y-120992518D02*
X201387254Y-120992517D01*
X201374553Y-134987913D02*
X187404558Y-134987916D01*
X201374559Y-121017919D02*
X201374553Y-134987913D01*
D10*
X221127907Y-147530218D02*
X221827907Y-146630217D01*
X221827907Y-146630217D02*
X222527905Y-147530216D01*
X222527901Y-146630216D02*
X221127903Y-146630218D01*
X222527905Y-147530216D02*
X221127907Y-147530218D01*
X183027907Y-147530218D02*
X183727907Y-146630217D01*
X183727907Y-146630217D02*
X184427905Y-147530216D01*
X184427901Y-146630216D02*
X183027903Y-146630218D01*
X184427905Y-147530216D02*
X183027907Y-147530218D01*
X163977907Y-166580218D02*
X164677907Y-165680217D01*
X164677907Y-165680217D02*
X165377905Y-166580216D01*
X165377901Y-165680216D02*
X163977903Y-165680218D01*
X165377905Y-166580216D02*
X163977907Y-166580218D01*
X202077907Y-128480218D02*
X202777907Y-127580217D01*
X202777907Y-127580217D02*
X203477905Y-128480216D01*
X203477901Y-127580216D02*
X202077903Y-127580218D01*
X203477905Y-128480216D02*
X202077907Y-128480218D01*
X163977907Y-128480218D02*
X164677907Y-127580217D01*
X164677907Y-127580217D02*
X165377905Y-128480216D01*
X165377901Y-127580216D02*
X163977903Y-127580218D01*
X165377905Y-128480216D02*
X163977907Y-128480218D01*
X202077907Y-166580218D02*
X202777907Y-165680217D01*
X202777907Y-165680217D02*
X203477905Y-166580216D01*
X203477901Y-165680216D02*
X202077903Y-165680218D01*
X203477905Y-166580216D02*
X202077907Y-166580218D01*
X183027907Y-166580218D02*
X183727907Y-165680217D01*
X183727907Y-165680217D02*
X184427905Y-166580216D01*
X184427901Y-165680216D02*
X183027903Y-165680218D01*
X184427905Y-166580216D02*
X183027907Y-166580218D01*
X163977907Y-147530218D02*
X164677907Y-146630217D01*
X164677907Y-146630217D02*
X165377905Y-147530216D01*
X165377901Y-146630216D02*
X163977903Y-146630218D01*
X165377905Y-147530216D02*
X163977907Y-147530218D01*
X183027907Y-128480218D02*
X183727907Y-127580217D01*
X183727907Y-127580217D02*
X184427905Y-128480216D01*
X184427901Y-127580216D02*
X183027903Y-127580218D01*
X184427905Y-128480216D02*
X183027907Y-128480218D01*
X221127908Y-166580220D02*
X221827908Y-165680219D01*
X221827908Y-165680219D02*
X222527906Y-166580218D01*
X222527902Y-165680218D02*
X221127904Y-165680220D01*
X222527906Y-166580218D02*
X221127908Y-166580220D01*
X202077907Y-147530218D02*
X202777907Y-146630217D01*
X202777907Y-146630217D02*
X203477905Y-147530216D01*
X203477901Y-146630216D02*
X202077903Y-146630218D01*
X203477905Y-147530216D02*
X202077907Y-147530218D01*
X221127907Y-128480218D02*
X221827907Y-127580217D01*
X221827907Y-127580217D02*
X222527905Y-128480216D01*
X222527901Y-127580216D02*
X221127903Y-127580218D01*
X222527905Y-128480216D02*
X221127907Y-128480218D01*
%LPC*%
D12*
X169839557Y-166102917D03*
D13*
X170259559Y-166102917D03*
D14*
X175339555Y-166102917D03*
D13*
X180419559Y-166102917D03*
D12*
X180839553Y-166102914D03*
D15*
X177879557Y-161022917D03*
D16*
X180339554Y-162302919D03*
D17*
X171529556Y-163562922D03*
D16*
X175339559Y-160202918D03*
D12*
X188889557Y-147052917D03*
D13*
X189309559Y-147052917D03*
D14*
X194389555Y-147052917D03*
D13*
X199469559Y-147052917D03*
D12*
X199889553Y-147052914D03*
D15*
X196929557Y-141972917D03*
D16*
X199389554Y-143252919D03*
D17*
X190579556Y-144512922D03*
D16*
X194389559Y-141152918D03*
D12*
X150789557Y-147052917D03*
D13*
X151209559Y-147052917D03*
D14*
X156289555Y-147052917D03*
D13*
X161369559Y-147052917D03*
D12*
X161789553Y-147052914D03*
D15*
X158829557Y-141972917D03*
D16*
X161289554Y-143252919D03*
D17*
X152479556Y-144512922D03*
D16*
X156289559Y-141152918D03*
D12*
X150789557Y-128002917D03*
D13*
X151209559Y-128002917D03*
D14*
X156289555Y-128002917D03*
D13*
X161369559Y-128002917D03*
D12*
X161789553Y-128002914D03*
D15*
X158829557Y-122922917D03*
D16*
X161289554Y-124202919D03*
D17*
X152479556Y-125462922D03*
D16*
X156289559Y-122102918D03*
D12*
X169839557Y-128002917D03*
D13*
X170259559Y-128002917D03*
D14*
X175339555Y-128002917D03*
D13*
X180419559Y-128002917D03*
D12*
X180839553Y-128002914D03*
D15*
X177879557Y-122922917D03*
D16*
X180339554Y-124202919D03*
D17*
X171529556Y-125462922D03*
D16*
X175339559Y-122102918D03*
D12*
X207939557Y-166102917D03*
D13*
X208359559Y-166102917D03*
D14*
X213439555Y-166102917D03*
D13*
X218519559Y-166102917D03*
D12*
X218939553Y-166102914D03*
D15*
X215979557Y-161022917D03*
D16*
X218439554Y-162302919D03*
D17*
X209629556Y-163562922D03*
D16*
X213439559Y-160202918D03*
D12*
X207939557Y-147052917D03*
D13*
X208359559Y-147052917D03*
D14*
X213439555Y-147052917D03*
D13*
X218519559Y-147052917D03*
D12*
X218939553Y-147052914D03*
D15*
X215979557Y-141972917D03*
D16*
X218439554Y-143252919D03*
D17*
X209629556Y-144512922D03*
D16*
X213439559Y-141152918D03*
D12*
X150789557Y-166102917D03*
D13*
X151209559Y-166102917D03*
D14*
X156289555Y-166102917D03*
D13*
X161369559Y-166102917D03*
D12*
X161789553Y-166102914D03*
D15*
X158829557Y-161022917D03*
D16*
X161289554Y-162302919D03*
D17*
X152479556Y-163562922D03*
D16*
X156289559Y-160202918D03*
D12*
X188889557Y-166102917D03*
D13*
X189309559Y-166102917D03*
D14*
X194389555Y-166102917D03*
D13*
X199469559Y-166102917D03*
D12*
X199889553Y-166102914D03*
D15*
X196929557Y-161022917D03*
D16*
X199389554Y-162302919D03*
D17*
X190579556Y-163562922D03*
D16*
X194389559Y-160202918D03*
D12*
X207939557Y-128002917D03*
D13*
X208359559Y-128002917D03*
D14*
X213439555Y-128002917D03*
D13*
X218519559Y-128002917D03*
D12*
X218939553Y-128002914D03*
D15*
X215979557Y-122922917D03*
D16*
X218439554Y-124202919D03*
D17*
X209629556Y-125462922D03*
D16*
X213439559Y-122102918D03*
D18*
X226399903Y-119902219D03*
D19*
X225499903Y-119902219D03*
D20*
X226399905Y-150382215D03*
D18*
X226399905Y-122442215D03*
D19*
X225499905Y-122442215D03*
D20*
X226399905Y-124982219D03*
D19*
X225499905Y-124982219D03*
D18*
X226399901Y-127522216D03*
D19*
X225499901Y-127522216D03*
D18*
X226399901Y-130062215D03*
D19*
X225499901Y-130062215D03*
D18*
X226399904Y-132602217D03*
D19*
X225499904Y-132602217D03*
D18*
X226399901Y-135142217D03*
D19*
X225499901Y-135142217D03*
D20*
X226399902Y-137682219D03*
D19*
X225499902Y-137682219D03*
D18*
X226399902Y-140222217D03*
D19*
X225499902Y-140222217D03*
D18*
X226399903Y-142762217D03*
D19*
X225499903Y-142762217D03*
D18*
X226399903Y-145302217D03*
D19*
X225499903Y-145302217D03*
D18*
X226399902Y-147842217D03*
D19*
X225499902Y-147842217D03*
X225499905Y-150382215D03*
D18*
X226399902Y-152922218D03*
D19*
X225499902Y-152922218D03*
D18*
X226399901Y-155462219D03*
D19*
X225499901Y-155462219D03*
D18*
X226399900Y-158002218D03*
D19*
X225499900Y-158002218D03*
D18*
X226399902Y-160542217D03*
D19*
X225499902Y-160542217D03*
D20*
X226399903Y-163082215D03*
D19*
X225499903Y-163082215D03*
D18*
X226399903Y-165622218D03*
D19*
X225499903Y-165622218D03*
D18*
X226399902Y-168162217D03*
D19*
X225499902Y-168162217D03*
D18*
X244179901Y-168162215D03*
D19*
X245079901Y-168162215D03*
D18*
X244179899Y-165622219D03*
D19*
X245079899Y-165622219D03*
D20*
X244179899Y-163082215D03*
D19*
X245079899Y-163082215D03*
D18*
X244179903Y-160542218D03*
D19*
X245079903Y-160542218D03*
D18*
X244179903Y-158002219D03*
D19*
X245079903Y-158002219D03*
D18*
X244179900Y-155462217D03*
D19*
X245079900Y-155462217D03*
D18*
X244179903Y-152922217D03*
D19*
X245079903Y-152922217D03*
D20*
X244179902Y-150382215D03*
D19*
X245079902Y-150382215D03*
D18*
X244179902Y-147842217D03*
D19*
X245079902Y-147842217D03*
D18*
X244179901Y-145302217D03*
D19*
X245079901Y-145302217D03*
D18*
X244179901Y-142762217D03*
D19*
X245079901Y-142762217D03*
D18*
X244179902Y-140222217D03*
D19*
X245079902Y-140222217D03*
D20*
X244179899Y-137682219D03*
D19*
X245079899Y-137682219D03*
D18*
X244179902Y-135142216D03*
D19*
X245079902Y-135142216D03*
D18*
X244179903Y-132602215D03*
D19*
X245079903Y-132602215D03*
D18*
X244179904Y-130062216D03*
D19*
X245079904Y-130062216D03*
D18*
X244179902Y-127522217D03*
D19*
X245079902Y-127522217D03*
D20*
X244179901Y-124982219D03*
D19*
X245079901Y-124982219D03*
D18*
X244179901Y-122442216D03*
D19*
X245079901Y-122442216D03*
D18*
X244179902Y-119902217D03*
D19*
X245079902Y-119902217D03*
D12*
X169839557Y-147052917D03*
D13*
X170259559Y-147052917D03*
D14*
X175339555Y-147052917D03*
D13*
X180419559Y-147052917D03*
D12*
X180839553Y-147052914D03*
D15*
X177879557Y-141972917D03*
D16*
X180339554Y-143252919D03*
D17*
X171529556Y-144512922D03*
D16*
X175339559Y-141152918D03*
D12*
X188889557Y-128002917D03*
D13*
X189309559Y-128002917D03*
D14*
X194389555Y-128002917D03*
D13*
X199469559Y-128002917D03*
D12*
X199889553Y-128002914D03*
D15*
X196929557Y-122922917D03*
D16*
X199389554Y-124202919D03*
D17*
X190579556Y-125462922D03*
D16*
X194389559Y-122102918D03*
%LPD*%
M02*
