M48
; DRILL file {KiCad 8.0.4} date 2024-08-02T16:26:35+0100
; FORMAT={-:-/ absolute / metric / decimal}
; #@! TF.CreationDate,2024-08-02T16:26:35+01:00
; #@! TF.GenerationSoftware,Kicad,Pcbnew,8.0.4
; #@! TF.FileFunction,NonPlated,1,2,NPTH
FMAT,2
METRIC
; #@! TA.AperFunction,NonPlated,NPTH,ComponentDrill
T1C1.700
; #@! TA.AperFunction,NonPlated,NPTH,ComponentDrill
T2C1.750
; #@! TA.AperFunction,NonPlated,NPTH,ComponentDrill
T3C4.000
%
G90
G05
T1
X150.79Y-128.003
X150.79Y-147.053
X150.79Y-166.103
X161.79Y-128.003
X161.79Y-147.053
X161.79Y-166.103
X169.84Y-128.003
X169.84Y-147.053
X169.84Y-166.103
X180.84Y-128.003
X180.84Y-147.053
X180.84Y-166.103
X188.89Y-128.003
X188.89Y-147.053
X188.89Y-166.103
X199.89Y-128.003
X199.89Y-147.053
X199.89Y-166.103
X207.94Y-128.003
X207.94Y-147.053
X207.94Y-166.103
X218.94Y-128.003
X218.94Y-147.053
X218.94Y-166.103
T2
X151.21Y-128.003
X151.21Y-147.053
X151.21Y-166.103
X161.37Y-128.003
X161.37Y-147.053
X161.37Y-166.103
X170.26Y-128.003
X170.26Y-147.053
X170.26Y-166.103
X180.42Y-128.003
X180.42Y-147.053
X180.42Y-166.103
X189.31Y-128.003
X189.31Y-147.053
X189.31Y-166.103
X199.47Y-128.003
X199.47Y-147.053
X199.47Y-166.103
X208.36Y-128.003
X208.36Y-147.053
X208.36Y-166.103
X218.52Y-128.003
X218.52Y-147.053
X218.52Y-166.103
T3
X156.29Y-128.003
X156.29Y-147.053
X156.29Y-166.103
X175.34Y-128.003
X175.34Y-147.053
X175.34Y-166.103
X194.39Y-128.003
X194.39Y-147.053
X194.39Y-166.103
X213.44Y-128.003
X213.44Y-147.053
X213.44Y-166.103
M30
